<?xml version="1.0" encoding="utf-8"?>
<!-- Generator: Adobe Illustrator 24.2.3, SVG Export Plug-In . SVG Version: 6.00 Build 0)  -->
<svg version="1.1" id="Layer_1" xmlns="http://www.w3.org/2000/svg" xmlns:xlink="http://www.w3.org/1999/xlink" x="0px" y="0px"
	 viewBox="0 0 1920 1080" style="enable-background:new 0 0 1920 1080;" xml:space="preserve">
<style type="text/css">
	.st0{fill:#EDF9FD;}
	.st1{opacity:0.13;fill:#231F20;}
	.st2{fill:#FFFFFF;}
	.st3{filter:url(#Adobe_OpacityMaskFilter);}
	.st4{filter:url(#Adobe_OpacityMaskFilter_1_);}
	.st5{mask:url(#SVGID_1_);fill:url(#SVGID_2_);}
	.st6{opacity:3.000000e-02;fill:url(#SVGID_3_);}
	.st7{fill:#A3BBC4;}
	.st8{fill:#D6F2F5;}
	.st9{fill:#C3D82E;}
	.st10{fill:#FF6200;}
	.st11{fill:#339EDB;}
	.st12{fill:#B9EDFF;}
	.st13{opacity:0.25;}
	.st14{filter:url(#Adobe_OpacityMaskFilter_2_);}
	.st15{filter:url(#Adobe_OpacityMaskFilter_3_);}
	.st16{mask:url(#SVGID_6_);fill:url(#SVGID_7_);}
	.st17{opacity:3.000000e-02;fill:url(#SVGID_8_);}
</style>
<rect id="Rectangle_1180_13_" x="0.3" y="-1.2" class="st0" width="1920" height="1080"/>
<g>
	<g>
		<polygon class="st1" points="710.6,620.7 585.4,589.7 354.4,538.3 467.5,77.9 825.1,165.7 736,497.5 		"/>
		<polygon class="st2" points="695,598.7 578,575.4 341.8,517.4 459.2,39.3 816.8,127.1 729.9,480.8 		"/>
		<defs>
			<filter id="Adobe_OpacityMaskFilter" filterUnits="userSpaceOnUse" x="344.2" y="42.2" width="471.8" height="548.2">
				<feFlood  style="flood-color:white;flood-opacity:1" result="back"/>
				<feBlend  in="SourceGraphic" in2="back" mode="normal"/>
			</filter>
		</defs>
		<mask maskUnits="userSpaceOnUse" x="344.2" y="42.2" width="471.8" height="548.2" id="SVGID_1_">
			<g class="st3">
				<defs>
					<filter id="Adobe_OpacityMaskFilter_1_" filterUnits="userSpaceOnUse" x="344.2" y="42.2" width="471.8" height="548.2">
						<feFlood  style="flood-color:white;flood-opacity:1" result="back"/>
						<feBlend  in="SourceGraphic" in2="back" mode="normal"/>
					</filter>
				</defs>
				<mask maskUnits="userSpaceOnUse" x="344.2" y="42.2" width="471.8" height="548.2" id="SVGID_1_">
					<g class="st4">
					</g>
				</mask>
				
					<linearGradient id="SVGID_2_" gradientUnits="userSpaceOnUse" x1="335.0049" y1="1570.62" x2="858.4363" y2="1834.7296" gradientTransform="matrix(0.9711 0.2386 -0.2386 0.9711 170.9419 -1674.1217)">
					<stop  offset="0.3602" style="stop-color:#FFFFFF"/>
					<stop  offset="1" style="stop-color:#000000"/>
				</linearGradient>
				<polygon class="st5" points="689.7,590.4 577.1,575.3 344.2,518.1 461.1,42.2 815.9,129.4 724.5,501.5 				"/>
			</g>
		</mask>
		
			<linearGradient id="SVGID_3_" gradientUnits="userSpaceOnUse" x1="335.0049" y1="1570.62" x2="858.4363" y2="1834.7296" gradientTransform="matrix(0.9711 0.2386 -0.2386 0.9711 170.9419 -1674.1217)">
			<stop  offset="0.3602" style="stop-color:#000000"/>
			<stop  offset="1" style="stop-color:#000000"/>
		</linearGradient>
		<polygon class="st6" points="689.7,590.4 577.1,575.3 344.2,518.1 461.1,42.2 815.9,129.4 724.5,501.5 		"/>
		<path class="st7" d="M737.8,259.9l-268.1-65.9c-3.8-0.9-6.1-4.7-5.1-8.5l0,0c0.9-3.8,4.7-6.1,8.5-5.1l268.1,65.9
			c3.8,0.9,6.1,4.7,5.1,8.5v0C745.4,258.6,741.6,260.9,737.8,259.9z"/>
		<path class="st7" d="M691.9,193.3L544.1,157c-3.8-0.9-6.1-4.7-5.1-8.5l0,0c0.9-3.8,4.7-6.1,8.5-5.1l147.7,36.3
			c3.8,0.9,6.1,4.7,5.1,8.5l0,0C699.4,191.9,695.6,194.2,691.9,193.3z"/>
		<path class="st7" d="M728.7,297.2l-268.1-65.9c-3.8-0.9-6.1-4.7-5.1-8.5v0c0.9-3.8,4.7-6.1,8.5-5.1L732,283.6
			c3.8,0.9,6.1,4.7,5.1,8.5l0,0C736.2,295.9,732.4,298.2,728.7,297.2z"/>
		<path class="st7" d="M710.3,371.9L442.3,306c-3.8-0.9-6.1-4.7-5.1-8.5l0,0c0.9-3.8,4.7-6.1,8.5-5.1l268.1,65.9
			c3.8,0.9,6.1,4.7,5.1,8.5v0C717.9,370.5,714.1,372.8,710.3,371.9z"/>
		<path class="st7" d="M701.2,409.2l-268.1-65.9c-3.8-0.9-6.1-4.7-5.1-8.5l0,0c0.9-3.8,4.7-6.1,8.5-5.1l268.1,65.9
			c3.8,0.9,6.1,4.7,5.1,8.5l0,0C708.7,407.8,704.9,410.1,701.2,409.2z"/>
		<path class="st7" d="M582.9,419.7l-158.9-39c-3.8-0.9-6.1-4.7-5.1-8.5l0,0c0.9-3.8,4.7-6.1,8.5-5.1l158.9,39
			c3.8,0.9,6.1,4.7,5.1,8.5l0,0C590.4,418.3,586.6,420.6,582.9,419.7z"/>
		
			<rect x="395.8" y="474.1" transform="matrix(0.9711 0.2386 -0.2386 0.9711 127.4069 -100.686)" class="st7" width="167.7" height="3.9"/>
		<g>
			<g>
				<path class="st8" d="M684.7,502.3c-7.2,26-34.1,41.1-60.1,33.9c-26-7.2-41.1-34.1-33.9-60.1c7.2-26,34.1-41.1,60.1-33.9
					C676.7,449.5,691.9,476.4,684.7,502.3z"/>
			</g>
			
				<ellipse transform="matrix(0.4457 -0.8952 0.8952 0.4457 -84.5202 841.9988)" class="st2" cx="637.7" cy="489.3" rx="35.5" ry="35.5"/>
			<g>
				<path class="st8" d="M623.5,547.2c-0.6-0.1-1.2-0.3-1.8-0.5c-31.7-8.8-50.3-41.7-41.5-73.4c8.9-31.8,41.4-50.4,73.4-41.5
					c15.3,4.3,28.1,14.3,35.9,28.1c7.8,13.9,9.8,30,5.5,45.3C686.4,536.5,655,554.9,623.5,547.2z M650.8,435.9
					c-29-7.1-58,9.8-66,38.6c-8.1,29.2,9,59.5,38.2,67.6c29.5,8.2,59.5-8.9,67.6-38.2c3.9-14.1,2.1-28.9-5.1-41.7
					c-7.2-12.8-19-22-33.1-25.9C651.9,436.2,651.3,436.1,650.8,435.9z"/>
			</g>
			<polygon class="st9" points="626.6,507.9 612.8,485.1 622.9,479.8 630.8,492.9 658.1,478.7 664,488.4 			"/>
		</g>
		<g>
			<defs>
				
					<rect id="SVGID_4_" x="394.9" y="76.1" transform="matrix(0.9711 0.2386 -0.2386 0.9711 93.5973 -128.8234)" width="368.2" height="492.3"/>
			</defs>
			<clipPath id="SVGID_5_">
				<use xlink:href="#SVGID_4_"  style="overflow:visible;"/>
			</clipPath>
		</g>
	</g>
</g>
<path class="st10" d="M3253.3-1085.4c-62.3,34.8-92.1,105.5-78.3,171.9l-15.7,8.8l-19.1-34.1l-30.3,17l19.1,34.1l-46.7,26.1
	l-19.1-34.1l-30.3,17l19.1,34.1l-23.3,13.1l-23.3,13.1l-19.1-34.1l-30.3,17l19.1,34.1l-46.7,26.1l-19.1-34.1l-30.3,17l19.1,34.1
	l-23.3,13.1l-23.3,13.1l-19.1-34.1l-30.3,17l19.1,34.1l-46.7,26.1l-19.1-34.1l-30.3,17l19.1,34.1l-23.3,13.1l-23.3,13.1l-19.1-34.1
	l-30.3,17l19.1,34.1l-46.7,26.1l-19.1-34.1l-30.3,17l19.1,34.1l-23.3,13.1l-23.3,13.1l-19.1-34.1l-30.3,17l19.1,34.1l-46.7,26.1
	l-19.1-34.1l-30.3,17l19.1,34.1l-23.3,13.1l-23.3,13.1l-19.1-34.1l-30.3,17l19.1,34.1l-46.7,26.1l-19.1-34.1l-30.3,17l19.1,34.1
	l-23.3,13.1l-23.3,13.1l-19.1-34.1l-30.3,17l19.1,34.1l-46.7,26.1l-19.1-34.1l-30.3,17l19.1,34.1l-23.3,13.1l-23.3,13.1l-19.1-34.1
	l-30.3,17l19.1,34.1l-46.7,26.1l-19.1-34.1l-30.3,17l19.1,34.1l-23.3,13.1l-23.3,13.1l-19.1-34.1l-30.3,17l19.1,34.1l-46.7,26.1
	l-19.1-34.1l-30.3,17l19.1,34.1l-23.3,13.1l-23.3,13.1l-19.1-34.1l-30.3,17l19.1,34.1l-46.7,26.1l-19.1-34.1l-30.3,17l19.1,34.1
	l-23.3,13.1l-23.3,13.1l-19.1-34.1l-30.3,17l19.1,34.1l-46.7,26.1l-19.1-34.1l-30.3,17l19.1,34.1l-23.3,13.1l-23.3,13.1l-19.1-34.1
	l-30.3,17l19.1,34.1L1388.6,86l-19.1-34.1l-30.3,17l19.1,34.1l-23.3,13.1l-23.3,13.1L1292.5,95l-30.3,17l19.1,34.1l-46.7,26.1
	l-19.1-34.1l-30.3,17l19.1,34.1l-23.3,13.1l-23.3,13.1l-19.1-34.1l-30.3,17l19.1,34.1l-46.7,26.1l-19.1-34.1l-30.3,17l19.1,34.1
	l-23.3,13.1l-23.3,13.1l-19.1-34.1l-30.3,17l19.1,34.1l-46.7,26.1l-19.1-34.1l-30.3,17l19.1,34.1L873,374.5l-23.3,13.1l-19.1-34.1
	l-30.3,17l19.1,34.1l-46.7,26.1l-19.1-34.1l-30.3,17l19.1,34.1L719,460.6l-23.3,13.1l-19.1-34.1l-30.3,17l19.1,34.1l-46.7,26.1
	l-19.1-34.1l-30.3,17l19.1,34.1l-23.3,13.1l-23.3,13.1l-19.1-34.1l-30.3,17l19.1,34.1l-46.7,26.1l-19.1-34.1l-30.3,17l19.1,34.1
	l-23.3,13.1L387.7,646l-19.1-34.1l-30.3,17l19.1,34.1L310.7,689l-19.1-34.1l-30.3,17l19.1,34.1l-23.3,13.1l-23.3,13.1L214.7,698
	l-30.3,17l19.1,34.1l-46.7,26.1l-19.1-34.1l-30.3,17l19.1,34.1l-23.3,13.1l-23.3,13.1l-19.1-34.1l-30.3,17l19.1,34.1L2.8,861.3
	l-19.1-34.1l-30.3,17l19.1,34.1l-23.3,13.1l-23.3,13.1l-19.1-34.1l-30.3,17l19.1,34.1l-46.7,26.1l-19.1-34.1l-30.3,17l19.1,34.1
	l-23.3,13.1l-23.3,13.1l-19.1-34.1l-30.3,17l19.1,34.1l-46.7,26.1l-19.1-34.1l-30.3,17l19.1,34.1l-23.3,13.1l-23.3,13.1l-19.1-34.1
	l-30.3,17l19.1,34.1l-46.7,26.1l-19.1-34.1l-30.3,17l19.1,34.1l-23.3,13.1l-23.3,13.1l-19.1-34.1l-30.3,17l19.1,34.1l-46.7,26.1
	l-19.1-34.1l-30.3,17l19.1,34.1l-23.3,13.1l-23.3,13.1l-19.1-34.1l-30.3,17l19.1,34.1l-26.4,14.8l4.2,7.6l26.4-14.8l38.2,68.2
	l-26.4,14.8l4.2,7.6l26.4-14.8l19.1,34.1l30.3-17l-19.1-34.1l23.3-13.1l23.3-13.1l19.1,34.1l30.3-17l-19.1-34.1l46.7-26.1l19.1,34.1
	l30.3-17l-19.1-34.1l23.3-13.1l23.3-13.1l19.1,34.1l30.3-17l-19.1-34.1l46.7-26.1l19.1,34.1l30.3-17l-19.1-34.1l23.3-13.1l23.3-13.1
	l19.1,34.1l30.3-17l-19.1-34.1l46.7-26.1l19.1,34.1l30.3-17l-19.1-34.1l23.3-13.1l23.3-13.1l19.1,34.1l30.3-17l-19.1-34.1l46.7-26.1
	l19.1,34.1l30.3-17l-19.1-34.1l23.3-13.1l23.3-13.1l19.1,34.1l30.3-17l-19.1-34.1l46.7-26.1l19.1,34.1l30.3-17l-19.1-34.1l23.3-13.1
	l23.3-13.1l19.1,34.1l30.3-17l-19.1-34.1l46.7-26.1l19.1,34.1l30.3-17l-19.1-34.1l23.3-13.1l23.3-13.1l19.1,34.1l30.3-17l-19.1-34.1
	l46.7-26.1l19.1,34.1l30.3-17l-19.1-34.1l23.3-13.1l23.3-13.1l19.1,34.1l30.3-17l-19.1-34.1l46.7-26.1l19.1,34.1l30.3-17l-19.1-34.1
	l23.3-13.1L635,617l19.1,34.1l30.3-17l-19.1-34.1L712,574l19.1,34.1l30.3-17L742.3,557l23.3-13.1l23.3-13.1l19.1,34.1l30.3-17
	l-19.1-34.1l46.7-26.1l19.1,34.1l30.3-17l-19.1-34.1l23.3-13.1l23.3-13.1l19.1,34.1l30.3-17l-19.1-34.1l46.7-26.1l19.1,34.1l30.3-17
	l-19.1-34.1l23.3-13.1l23.3-13.1l19.1,34.1l30.3-17l-19.1-34.1l46.7-26.1l19.1,34.1l30.3-17l-19.1-34.1l23.3-13.1l23.3-13.1
	l19.1,34.1l30.3-17l-19.1-34.1l46.7-26.1l19.1,34.1l30.3-17l-19.1-34.1l23.3-13.1l23.3-13.1l19.1,34.1l30.3-17l-19.1-34.1l46.7-26.1
	l19.1,34.1l30.3-17l-19.1-34.1l23.3-13.1l23.3-13.1l19.1,34.1l30.3-17l-19.1-34.1l46.7-26.1l19.1,34.1l30.3-17l-19.1-34.1l23.3-13.1
	l23.3-13.1l19.1,34.1l30.3-17L1743.2-3l46.7-26.1L1808.9,5l30.3-17L1820.2-46l23.3-13.1l23.3-13.1l19.1,34.1l30.3-17l-19.1-34.1
	l46.7-26.1l19.1,34.1l30.3-17l-19.1-34.1l23.3-13.1l23.3-13.1l19.1,34.1l30.3-17l-19.1-34.1l46.7-26.1l19.1,34.1l30.3-17l-19.1-34.1
	l23.3-13.1l23.3-13.1l19.1,34.1l30.3-17l-19.1-34.1l46.7-26.1l19.1,34.1l30.3-17l-19.1-34.1l23.3-13.1l23.3-13.1l19.1,34.1l30.3-17
	l-19.1-34.1l46.7-26.1l19.1,34.1l30.3-17l-19.1-34.1l23.3-13.1l23.3-13.1l19.1,34.1l30.3-17l-19.1-34.1l46.7-26.1l19.1,34.1l30.3-17
	l-19.1-34.1l23.3-13.1l23.3-13.1l19.1,34.1l30.3-17l-19.1-34.1l46.7-26.1l19.1,34.1l30.3-17l-19.1-34.1l23.3-13.1l23.3-13.1
	l19.1,34.1l30.3-17L2821-606l46.7-26.1l19.1,34.1l30.3-17l-19.1-34.1l23.3-13.1l23.3-13.1l19.1,34.1l30.3-17l-19.1-34.1l46.7-26.1
	l19.1,34.1l30.3-17l-19.1-34.1l23.3-13.1l23.3-13.1l19.1,34.1l30.3-17l-19.1-34.1l46.7-26.1l19.1,34.1l30.3-17l-19.1-34.1l15.7-8.8
	c49.4,46.6,125.2,58.1,187.5,23.3c76.8-43,104.3-140.4,61.3-217.2C3427.5-1100.9,3330-1128.4,3253.3-1085.4z M-601,1298.7
	l-23.3,13.1l-23.3,13.1l-38.2-68.2l23.3-13.1l23.3-13.1L-601,1298.7z M-524,1255.6l-46.7,26.1l-38.2-68.2l46.7-26.1L-524,1255.6z
	 M-447,1212.5l-23.3,13.1l-23.3,13.1l-38.2-68.2l23.3-13.1l23.3-13.1L-447,1212.5z M-370.1,1169.4l-46.7,26.1l-38.2-68.2l46.7-26.1
	L-370.1,1169.4z M-293.1,1126.4l-23.3,13.1l-23.3,13.1l-38.2-68.2l23.3-13.1l23.3-13.1L-293.1,1126.4z M-216.1,1083.3l-46.7,26.1
	l-38.2-68.2l46.7-26.1L-216.1,1083.3z M-139.1,1040.2l-23.3,13.1l-23.3,13.1l-38.2-68.2l23.3-13.1l23.3-13.1L-139.1,1040.2z
	 M-62.1,997.1l-46.7,26.1l-38.2-68.2l46.7-26.1L-62.1,997.1z M14.9,954.1l-23.3,13.1l-23.3,13.1L-70,912l23.3-13.1l23.3-13.1
	L14.9,954.1z M91.9,911l-46.7,26.1L7,868.9l46.7-26.1L91.9,911z M168.9,867.9L145.5,881L122.2,894L84,825.8l23.3-13.1l23.3-13.1
	L168.9,867.9z M245.8,824.8L199.2,851L161,782.8l46.7-26.1L245.8,824.8z M322.8,781.8l-23.3,13.1l-23.3,13.1L238,739.7l23.3-13.1
	l23.3-13.1L322.8,781.8z M399.8,738.7l-46.7,26.1L315,696.6l46.7-26.1L399.8,738.7z M476.8,695.6l-23.3,13.1l-23.3,13.1L392,653.5
	l23.3-13.1l23.3-13.1L476.8,695.6z M553.8,652.5l-46.7,26.1L469,610.5l46.7-26.1L553.8,652.5z M630.8,609.5l-23.3,13.1l-23.3,13.1
	L546,567.4l23.3-13.1l23.3-13.1L630.8,609.5z M707.8,566.4l-46.7,26.1l-38.2-68.2l46.7-26.1L707.8,566.4z M784.8,523.3l-23.3,13.1
	l-23.3,13.1l-38.2-68.2l23.3-13.1l23.3-13.1L784.8,523.3z M861.7,480.2l-46.7,26.1l-38.2-68.2l46.7-26.1L861.7,480.2z M938.7,437.2
	l-23.3,13.1l-23.3,13.1l-38.2-68.2l23.3-13.1l23.3-13.1L938.7,437.2z M1015.7,394.1L969,420.2L930.9,352l46.7-26.1L1015.7,394.1z
	 M1092.7,351l-23.3,13.1l-23.3,13.1l-38.2-68.2l23.3-13.1l23.3-13.1L1092.7,351z M1169.7,307.9l-46.7,26.1l-38.2-68.2l46.7-26.1
	L1169.7,307.9z M1246.7,264.9l-23.3,13.1L1200,291l-38.2-68.2l23.3-13.1l23.3-13.1L1246.7,264.9z M1323.7,221.8l-46.7,26.1
	l-38.2-68.2l46.7-26.1L1323.7,221.8z M1400.7,178.7l-23.3,13.1l-23.3,13.1l-38.2-68.2l23.3-13.1l23.3-13.1L1400.7,178.7z
	 M1477.7,135.7l-46.7,26.1l-38.2-68.2l46.7-26.1L1477.7,135.7z M1554.6,92.6l-23.3,13.1l-23.3,13.1l-38.2-68.2l23.3-13.1l23.3-13.1
	L1554.6,92.6z M1631.6,49.5L1585,75.6l-38.2-68.2l46.7-26.1L1631.6,49.5z M1708.6,6.4l-23.3,13.1l-23.3,13.1l-38.2-68.2l23.3-13.1
	l23.3-13.1L1708.6,6.4z M1785.6-36.6l-46.7,26.1l-38.2-68.2l46.7-26.1L1785.6-36.6z M1862.6-79.7l-23.3,13.1l-23.3,13.1l-38.2-68.2
	l23.3-13.1l23.3-13.1L1862.6-79.7z M1939.6-122.8l-46.7,26.1l-38.2-68.2l46.7-26.1L1939.6-122.8z M2016.6-165.9l-23.3,13.1
	l-23.3,13.1l-38.2-68.2l23.3-13.1l23.3-13.1L2016.6-165.9z M2093.6-208.9l-46.7,26.1l-38.2-68.2l46.7-26.1L2093.6-208.9z
	 M2170.5-252l-23.3,13.1l-23.3,13.1l-38.2-68.2l23.3-13.1l23.3-13.1L2170.5-252z M2247.5-295.1l-46.7,26.1l-38.2-68.2l46.7-26.1
	L2247.5-295.1z M2324.5-338.2l-23.3,13.1l-23.3,13.1l-38.2-68.2l23.3-13.1l23.3-13.1L2324.5-338.2z M2401.5-381.2l-46.7,26.1
	l-38.2-68.2l46.7-26.1L2401.5-381.2z M2478.5-424.3l-23.3,13.1l-23.3,13.1l-38.2-68.2l23.3-13.1l23.3-13.1L2478.5-424.3z
	 M2555.5-467.4l-46.7,26.1l-38.2-68.2l46.7-26.1L2555.5-467.4z M2632.5-510.5l-23.3,13.1l-23.3,13.1l-38.2-68.2l23.3-13.1l23.3-13.1
	L2632.5-510.5z M2709.5-553.5l-46.7,26.1l-38.2-68.2l46.7-26.1L2709.5-553.5z M2786.5-596.6l-23.3,13.1l-23.3,13.1l-38.2-68.2
	l23.3-13.1l23.3-13.1L2786.5-596.6z M2863.4-639.7l-46.7,26.1l-38.2-68.2l46.7-26.1L2863.4-639.7z M2940.4-682.8l-23.3,13.1
	l-23.3,13.1l-38.2-68.2l23.3-13.1l23.3-13.1L2940.4-682.8z M3017.4-725.8l-46.7,26.1l-38.2-68.2l46.7-26.1L3017.4-725.8z
	 M3094.4-768.9l-23.3,13.1l-23.3,13.1l-38.2-68.2l23.3-13.1l23.3-13.1L3094.4-768.9z M3171.4-812l-46.7,26.1l-38.2-68.2l46.7-26.1
	L3171.4-812z M3201.7-828.9l-38.2-68.2l13.7-7.7c3.4,12.5,8.1,24.8,14.7,36.6c6.6,11.8,14.6,22.2,23.5,31.6L3201.7-828.9z
	 M3400.6-822c-68.4,38.3-155.3,13.8-193.6-54.7c-38.3-68.4-13.8-155.3,54.7-193.6c68.4-38.3,155.3-13.8,193.6,54.7
	S3469.1-860.3,3400.6-822z"/>
<path class="st11" d="M3433-936.1c-62.3,34.8-92.1,105.5-78.3,171.9l-15.7,8.8l-19.1-34.1l-30.3,17l19.1,34.1l-46.7,26.1l-19.1-34.1
	l-30.3,17l19.1,34.1l-23.3,13.1l-23.3,13.1l-19.1-34.1l-30.3,17l19.1,34.1l-46.7,26.1l-19.1-34.1l-30.3,17l19.1,34.1l-23.3,13.1
	l-23.3,13.1l-19.1-34.1l-30.3,17l19.1,34.1l-46.7,26.1l-19.1-34.1l-30.3,17l19.1,34.1l-23.3,13.1l-23.3,13.1l-19.1-34.1l-30.3,17
	l19.1,34.1l-46.7,26.1l-19.1-34.1l-30.3,17l19.1,34.1l-23.3,13.1l-23.3,13.1l-19.1-34.1l-30.3,17l19.1,34.1l-46.7,26.1l-19.1-34.1
	l-30.3,17l19.1,34.1l-23.3,13.1l-23.3,13.1l-19.1-34.1l-30.3,17l19.1,34.1l-46.7,26.1l-19.1-34.1l-30.3,17l19.1,34.1l-23.3,13.1
	l-23.3,13.1l-19.1-34.1l-30.3,17l19.1,34.1l-46.7,26.1l-19.1-34.1l-30.3,17l19.1,34.1l-23.3,13.1l-23.3,13.1l-19.1-34.1l-30.3,17
	l19.1,34.1l-46.7,26.1l-19.1-34.1l-30.3,17l19.1,34.1l-23.3,13.1l-23.3,13.1l-19.1-34.1l-30.3,17l19.1,34.1l-46.7,26.1l-19.1-34.1
	l-30.3,17L2000-6.1l-23.3,13.1L1953.3,20l-19.1-34.1l-30.3,17L1923,37l-46.7,26.1L1857.2,29l-30.3,17L1846,80l-23.3,13.1l-23.3,13.1
	l-19.1-34.1l-30.3,17l19.1,34.1l-46.7,26.1l-19.1-34.1l-30.3,17l19.1,34.1l-23.3,13.1l-23.3,13.1l-19.1-34.1l-30.3,17l19.1,34.1
	l-46.7,26.1l-19.1-34.1l-30.3,17l19.1,34.1l-23.3,13.1l-23.3,13.1l-19.1-34.1l-30.3,17l19.1,34.1l-46.7,26.1l-19.1-34.1l-30.3,17
	l19.1,34.1l-23.3,13.1l-23.3,13.1l-19.1-34.1l-30.3,17l19.1,34.1l-46.7,26.1l-19.1-34.1l-30.3,17l19.1,34.1l-23.3,13.1l-23.3,13.1
	l-19.1-34.1l-30.3,17l19.1,34.1l-46.7,26.1l-19.1-34.1l-30.3,17l19.1,34.1l-23.3,13.1l-23.3,13.1l-19.1-34.1l-30.3,17l19.1,34.1
	L952.5,580l-19.1-34.1l-30.3,17l19.1,34.1L898.8,610L875.5,623L856.4,589l-30.3,17l19.1,34.1l-46.7,26.1L779.4,632l-30.3,17
	l19.1,34.1l-23.3,13.1l-23.3,13.1l-19.1-34.1l-30.3,17l19.1,34.1l-46.7,26.1l-19.1-34.1l-30.3,17l19.1,34.1l-23.3,13.1l-23.3,13.1
	l-19.1-34.1l-30.3,17l19.1,34.1l-46.7,26.1l-19.1-34.1l-30.3,17l19.1,34.1l-23.3,13.1l-23.3,13.1l-19.1-34.1l-30.3,17l19.1,34.1
	l-46.7,26.1l-19.1-34.1l-30.3,17l19.1,34.1l-23.3,13.1l-23.3,13.1l-19.1-34.1l-30.3,17l19.1,34.1l-46.7,26.1l-19.1-34.1l-30.3,17
	l19.1,34.1l-23.3,13.1l-23.3,13.1l-19.1-34.1l-30.3,17l19.1,34.1l-46.7,26.1l-19.1-34.1l-30.3,17l19.1,34.1l-23.3,13.1l-23.3,13.1
	l-19.1-34.1l-30.3,17l19.1,34.1l-46.7,26.1l-19.1-34.1l-30.3,17l19.1,34.1L-179,1213l-23.3,13.1l-19.1-34.1l-30.3,17l19.1,34.1
	l-46.7,26.1l-19.1-34.1l-30.3,17l19.1,34.1l-23.3,13.1l-23.3,13.1l-19.1-34.1l-30.3,17l19.1,34.1l-46.7,26.1l-19.1-34.1l-30.3,17
	l19.1,34.1l-23.3,13.1l-23.3,13.1l-19.1-34.1l-30.3,17l19.1,34.1l-26.4,14.8l4.2,7.6l26.4-14.8l38.2,68.2l-26.4,14.8l4.2,7.6
	l26.4-14.8l19.1,34.1l30.3-17l-19.1-34.1l23.3-13.1l23.3-13.1l19.1,34.1l30.3-17l-19.1-34.1l46.7-26.1l19.1,34.1l30.3-17l-19.1-34.1
	l23.3-13.1l23.3-13.1l19.1,34.1l30.3-17l-19.1-34.1l46.7-26.1l19.1,34.1l30.3-17l-19.1-34.1l23.3-13.1l23.3-13.1l19.1,34.1l30.3-17
	l-19.1-34.1l46.7-26.1l19.1,34.1l30.3-17l-19.1-34.1l23.3-13.1l23.3-13.1l19.1,34.1l30.3-17l-19.1-34.1l46.7-26.1l19.1,34.1l30.3-17
	l-19.1-34.1l23.3-13.1l23.3-13.1l19.1,34.1l30.3-17l-19.1-34.1l46.7-26.1L295,1102l30.3-17l-19.1-34.1l23.3-13.1l23.3-13.1
	l19.1,34.1l30.3-17l-19.1-34.1l46.7-26.1l19.1,34.1l30.3-17l-19.1-34.1l23.3-13.1l23.3-13.1l19.1,34.1l30.3-17l-19.1-34.1l46.7-26.1
	l19.1,34.1l30.3-17l-19.1-34.1l23.3-13.1l23.3-13.1l19.1,34.1l30.3-17l-19.1-34.1l46.7-26.1l19.1,34.1l30.3-17l-19.1-34.1l23.3-13.1
	l23.3-13.1l19.1,34.1l30.3-17l-19.1-34.1l46.7-26.1l19.1,34.1l30.3-17l-19.1-34.1l23.3-13.1l23.3-13.1l19.1,34.1l30.3-17l-19.1-34.1
	l46.7-26.1l19.1,34.1l30.3-17l-19.1-34.1l23.3-13.1l23.3-13.1l19.1,34.1l30.3-17l-19.1-34.1l46.7-26.1l19.1,34.1l30.3-17l-19.1-34.1
	l23.3-13.1l23.3-13.1l19.1,34.1l30.3-17L1307,491l46.7-26.1l19.1,34.1l30.3-17l-19.1-34.1l23.3-13.1l23.3-13.1l19.1,34.1l30.3-17
	l-19.1-34.1l46.7-26.1l19.1,34.1l30.3-17l-19.1-34.1l23.3-13.1l23.3-13.1l19.1,34.1l30.3-17l-19.1-34.1l46.7-26.1l19.1,34.1l30.3-17
	l-19.1-34.1l23.3-13.1l23.3-13.1l19.1,34.1l30.3-17l-19.1-34.1l46.7-26.1l19.1,34.1l30.3-17l-19.1-34.1l23.3-13.1l23.3-13.1
	l19.1,34.1l30.3-17l-19.1-34.1l46.7-26.1l19.1,34.1l30.3-17l-19.1-34.1l23.3-13.1l23.3-13.1l19.1,34.1l30.3-17l-19.1-34.1l46.7-26.1
	l19.1,34.1l30.3-17l-19.1-34.1l23.3-13.1l23.3-13.1l19.1,34.1l30.3-17l-19.1-34.1l46.7-26.1l19.1,34.1l30.3-17l-19.1-34.1l23.3-13.1
	l23.3-13.1l19.1,34.1l30.3-17l-19.1-34.1l46.7-26.1l19.1,34.1l30.3-17l-19.1-34.1l23.3-13.1l23.3-13.1l19.1,34.1l30.3-17l-19.1-34.1
	l46.7-26.1l19.1,34.1l30.3-17l-19.1-34.1l23.3-13.1l23.3-13.1l19.1,34.1l30.3-17l-19.1-34.1l46.7-26.1l19.1,34.1l30.3-17l-19.1-34.1
	l23.3-13.1l23.3-13.1l19.1,34.1l30.3-17l-19.1-34.1l46.7-26.1l19.1,34.1l30.3-17l-19.1-34.1l23.3-13.1l23.3-13.1l19.1,34.1l30.3-17
	l-19.1-34.1l46.7-26.1l19.1,34.1l30.3-17l-19.1-34.1l23.3-13.1l23.3-13.1l19.1,34.1l30.3-17l-19.1-34.1l46.7-26.1l19.1,34.1l30.3-17
	l-19.1-34.1l23.3-13.1l23.3-13.1l19.1,34.1l30.3-17l-19.1-34.1l46.7-26.1l19.1,34.1l30.3-17l-19.1-34.1l15.7-8.8
	c49.4,46.6,125.2,58.1,187.5,23.3c76.8-43,104.3-140.4,61.3-217.2S3509.8-979,3433-936.1z M-421.3,1448l-23.3,13.1l-23.3,13.1
	l-38.2-68.2l23.3-13.1l23.3-13.1L-421.3,1448z M-344.3,1405l-46.7,26.1l-38.2-68.2l46.7-26.1L-344.3,1405z M-267.3,1361.9
	l-23.3,13.1L-314,1388l-38.2-68.2l23.3-13.1l23.3-13.1L-267.3,1361.9z M-190.3,1318.8l-46.7,26.1l-38.2-68.2l46.7-26.1
	L-190.3,1318.8z M-113.3,1275.7l-23.3,13.1l-23.3,13.1l-38.2-68.2l23.3-13.1l23.3-13.1L-113.3,1275.7z M-36.3,1232.7l-46.7,26.1
	l-38.2-68.2l46.7-26.1L-36.3,1232.7z M40.7,1189.6l-23.3,13.1L-6,1215.7l-38.2-68.2l23.3-13.1l23.3-13.1L40.7,1189.6z M117.7,1146.5
	L71,1172.6l-38.2-68.2l46.7-26.1L117.7,1146.5z M194.7,1103.4l-23.3,13.1l-23.3,13.1l-38.2-68.2l23.3-13.1l23.3-13.1L194.7,1103.4z
	 M271.6,1060.4l-46.7,26.1l-38.2-68.2l46.7-26.1L271.6,1060.4z M348.6,1017.3l-23.3,13.1l-23.3,13.1l-38.2-68.2l23.3-13.1l23.3-13.1
	L348.6,1017.3z M425.6,974.2l-46.7,26.1l-38.2-68.2l46.7-26.1L425.6,974.2z M502.6,931.1l-23.3,13.1l-23.3,13.1l-38.2-68.2
	l23.3-13.1l23.3-13.1L502.6,931.1z M579.6,888.1l-46.7,26.1L494.8,846l46.7-26.1L579.6,888.1z M656.6,845l-23.3,13.1l-23.3,13.1
	l-38.2-68.2l23.3-13.1l23.3-13.1L656.6,845z M733.6,801.9L686.9,828l-38.2-68.2l46.7-26.1L733.6,801.9z M810.6,758.9l-23.3,13.1
	L763.9,785l-38.2-68.2l23.3-13.1l23.3-13.1L810.6,758.9z M887.6,715.8l-46.7,26.1l-38.2-68.2l46.7-26.1L887.6,715.8z M964.5,672.7
	l-23.3,13.1l-23.3,13.1l-38.2-68.2l23.3-13.1l23.3-13.1L964.5,672.7z M1041.5,629.6l-46.7,26.1l-38.2-68.2l46.7-26.1L1041.5,629.6z
	 M1118.5,586.6l-23.3,13.1l-23.3,13.1l-38.2-68.2l23.3-13.1l23.3-13.1L1118.5,586.6z M1195.5,543.5l-46.7,26.1l-38.2-68.2l46.7-26.1
	L1195.5,543.5z M1272.5,500.4l-23.3,13.1l-23.3,13.1l-38.2-68.2l23.3-13.1l23.3-13.1L1272.5,500.4z M1349.5,457.3l-46.7,26.1
	l-38.2-68.2l46.7-26.1L1349.5,457.3z M1426.5,414.3l-23.3,13.1l-23.3,13.1l-38.2-68.2l23.3-13.1l23.3-13.1L1426.5,414.3z
	 M1503.5,371.2l-46.7,26.1l-38.2-68.2l46.7-26.1L1503.5,371.2z M1580.4,328.1l-23.3,13.1l-23.3,13.1l-38.2-68.2l23.3-13.1l23.3-13.1
	L1580.4,328.1z M1657.4,285l-46.7,26.1l-38.2-68.2l46.7-26.1L1657.4,285z M1734.4,242l-23.3,13.1l-23.3,13.1l-38.2-68.2l23.3-13.1
	l23.3-13.1L1734.4,242z M1811.4,198.9l-46.7,26.1l-38.2-68.2l46.7-26.1L1811.4,198.9z M1888.4,155.8l-23.3,13.1l-23.3,13.1
	l-38.2-68.2l23.3-13.1l23.3-13.1L1888.4,155.8z M1965.4,112.7l-46.7,26.1l-38.2-68.2l46.7-26.1L1965.4,112.7z M2042.4,69.7
	L2019,82.7l-23.3,13.1l-38.2-68.2l23.3-13.1l23.3-13.1L2042.4,69.7z M2119.4,26.6l-46.7,26.1l-38.2-68.2l46.7-26.1L2119.4,26.6z
	 M2196.4-16.5L2173-3.4l-23.3,13.1l-38.2-68.2l23.3-13.1l23.3-13.1L2196.4-16.5z M2273.3-59.6l-46.7,26.1l-38.2-68.2l46.7-26.1
	L2273.3-59.6z M2350.3-102.6L2327-89.6l-23.3,13.1l-38.2-68.2l23.3-13.1l23.3-13.1L2350.3-102.6z M2427.3-145.7l-46.7,26.1
	l-38.2-68.2l46.7-26.1L2427.3-145.7z M2504.3-188.8l-23.3,13.1l-23.3,13.1l-38.2-68.2l23.3-13.1l23.3-13.1L2504.3-188.8z
	 M2581.3-231.9l-46.7,26.1l-38.2-68.2l46.7-26.1L2581.3-231.9z M2658.3-274.9l-23.3,13.1l-23.3,13.1l-38.2-68.2l23.3-13.1l23.3-13.1
	L2658.3-274.9z M2735.3-318l-46.7,26.1l-38.2-68.2l46.7-26.1L2735.3-318z M2812.3-361.1l-23.3,13.1l-23.3,13.1l-38.2-68.2l23.3-13.1
	l23.3-13.1L2812.3-361.1z M2889.2-404.2l-46.7,26.1l-38.2-68.2l46.7-26.1L2889.2-404.2z M2966.2-447.2l-23.3,13.1l-23.3,13.1
	l-38.2-68.2l23.3-13.1l23.3-13.1L2966.2-447.2z M3043.2-490.3l-46.7,26.1l-38.2-68.2l46.7-26.1L3043.2-490.3z M3120.2-533.4
	l-23.3,13.1l-23.3,13.1l-38.2-68.2l23.3-13.1l23.3-13.1L3120.2-533.4z M3197.2-576.5l-46.7,26.1l-38.2-68.2l46.7-26.1L3197.2-576.5z
	 M3274.2-619.5l-23.3,13.1l-23.3,13.1l-38.2-68.2l23.3-13.1l23.3-13.1L3274.2-619.5z M3351.2-662.6l-46.7,26.1l-38.2-68.2l46.7-26.1
	L3351.2-662.6z M3381.5-679.6l-38.2-68.2l13.7-7.7c3.4,12.5,8.1,24.8,14.7,36.6s14.6,22.2,23.5,31.6L3381.5-679.6z M3580.4-672.7
	c-68.4,38.3-155.3,13.8-193.6-54.7s-13.8-155.3,54.7-193.6c68.4-38.3,155.3-13.8,193.6,54.7S3648.8-710.9,3580.4-672.7z"/>
<g>
	<path class="st12" d="M992.9,844.2H828.5c-6.1,0-11.2-3.3-11.2-7.5l0,0c0-4.1,5-7.5,11.2-7.5h164.4c6.1,0,11.2,3.3,11.2,7.5l0,0
		C1004.1,840.9,999,844.2,992.9,844.2z"/>
	<path class="st12" d="M992.9,870.2H828.5c-6.1,0-11.2-3.3-11.2-7.5l0,0c0-4.1,5-7.5,11.2-7.5h164.4c6.1,0,11.2,3.3,11.2,7.5l0,0
		C1004.1,866.9,999,870.2,992.9,870.2z"/>
	<path class="st12" d="M914.5,896.2h-86c-6.1,0-11.2-3.3-11.2-7.5l0,0c0-4.1,5-7.5,11.2-7.5h86c6.1,0,11.2,3.3,11.2,7.5l0,0
		C925.7,892.9,920.6,896.2,914.5,896.2z"/>
	<path class="st12" d="M1124.4,896.2H956.1c-6.1,0-11.2-3.3-11.2-7.5l0,0c0-4.1,5-7.5,11.2-7.5h168.3c6.1,0,11.2,3.3,11.2,7.5l0,0
		C1135.6,892.9,1130.6,896.2,1124.4,896.2z"/>
	<path class="st12" d="M1202.4,870.2H1038c-6.1,0-11.2-3.3-11.2-7.5l0,0c0-4.1,5-7.5,11.2-7.5h164.4c6.1,0,11.2,3.3,11.2,7.5l0,0
		C1213.6,866.9,1208.5,870.2,1202.4,870.2z"/>
	<path class="st12" d="M1069.1,1165.3H904.7c-6.1,0-11.2-3.3-11.2-7.5l0,0c0-4.1,5-7.5,11.2-7.5h164.4c6.1,0,11.2,3.3,11.2,7.5l0,0
		C1080.3,1162,1075.2,1165.3,1069.1,1165.3z"/>
	<path class="st12" d="M1069.1,1191.3H904.7c-6.1,0-11.2-3.3-11.2-7.5l0,0c0-4.1,5-7.5,11.2-7.5h164.4c6.1,0,11.2,3.3,11.2,7.5l0,0
		C1080.3,1188,1075.2,1191.3,1069.1,1191.3z"/>
	<path class="st12" d="M990.7,1217.3h-86c-6.1,0-11.2-3.3-11.2-7.5l0,0c0-4.1,5-7.5,11.2-7.5h86c6.1,0,11.2,3.3,11.2,7.5l0,0
		C1001.8,1214,996.8,1217.3,990.7,1217.3z"/>
	<path class="st12" d="M1200.6,1217.3h-168.3c-6.1,0-11.2-3.3-11.2-7.5l0,0c0-4.1,5-7.5,11.2-7.5h168.3c6.1,0,11.2,3.3,11.2,7.5l0,0
		C1211.8,1214,1206.8,1217.3,1200.6,1217.3z"/>
	<path class="st12" d="M1278.6,1191.3h-164.4c-6.1,0-11.2-3.3-11.2-7.5l0,0c0-4.1,5-7.5,11.2-7.5h164.4c6.1,0,11.2,3.3,11.2,7.5l0,0
		C1289.7,1188,1284.7,1191.3,1278.6,1191.3z"/>
	<path class="st12" d="M1063.2,1013.1H898.8c-6.1,0-11.2-3.3-11.2-7.5l0,0c0-4.1,5-7.5,11.2-7.5h164.4c6.1,0,11.2,3.3,11.2,7.5l0,0
		C1074.3,1009.7,1069.3,1013.1,1063.2,1013.1z"/>
	<path class="st12" d="M1063.2,1039.1H898.8c-6.1,0-11.2-3.3-11.2-7.5l0,0c0-4.1,5-7.5,11.2-7.5h164.4c6.1,0,11.2,3.3,11.2,7.5l0,0
		C1074.3,1035.7,1069.3,1039.1,1063.2,1039.1z"/>
	<path class="st12" d="M1272.5,1039.1h-164.4c-6.1,0-11.2-3.3-11.2-7.5l0,0c0-4.1,5-7.5,11.2-7.5h164.4c6.1,0,11.2,3.3,11.2,7.5l0,0
		C1283.7,1035.7,1278.7,1039.1,1272.5,1039.1z"/>
	<path class="st12" d="M1063.2,932H898.8c-6.1,0-11.2-3.3-11.2-7.5l0,0c0-4.1,5-7.5,11.2-7.5h164.4c6.1,0,11.2,3.3,11.2,7.5l0,0
		C1074.3,928.6,1069.3,932,1063.2,932z"/>
	<path class="st12" d="M1290.8,984.3h-262.5c-6.1,0-11.2-3.3-11.2-7.5l0,0c0-4.1,5-7.5,11.2-7.5h262.5c6.1,0,11.2,3.3,11.2,7.5l0,0
		C1302,980.9,1297,984.3,1290.8,984.3z"/>
	<path class="st12" d="M984.6,958h-86c-6.1,0-11.2-3.3-11.2-7.5l0,0c0-4.1,5-7.5,11.2-7.5h86c6.1,0,11.2,3.3,11.2,7.5l0,0
		C995.8,954.7,990.8,958,984.6,958z"/>
	<path class="st12" d="M984.6,984.3h-86c-6.1,0-11.2-3.3-11.2-7.5l0,0c0-4.1,5-7.5,11.2-7.5h86c6.1,0,11.2,3.3,11.2,7.5l0,0
		C995.8,980.9,990.8,984.3,984.6,984.3z"/>
	<path class="st12" d="M989.5,1106.5H825.1c-6.1,0-11.2-3.3-11.2-7.5l0,0c0-4.1,5-7.5,11.2-7.5h164.4c6.1,0,11.2,3.3,11.2,7.5l0,0
		C1000.7,1103.1,995.6,1106.5,989.5,1106.5z"/>
	<path class="st12" d="M1065.6,1132.5H901.2c-6.1,0-11.2-3.3-11.2-7.5l0,0c0-4.1,5-7.5,11.2-7.5h164.4c6.1,0,11.2,3.3,11.2,7.5l0,0
		C1076.8,1129.1,1071.8,1132.5,1065.6,1132.5z"/>
	<path class="st12" d="M1275,1132.5h-164.4c-6.1,0-11.2-3.3-11.2-7.5l0,0c0-4.1,5-7.5,11.2-7.5H1275c6.1,0,11.2,3.3,11.2,7.5l0,0
		C1286.2,1129.1,1281.2,1132.5,1275,1132.5z"/>
	<path class="st12" d="M1217.1,1077.7H954.6c-6.1,0-11.2-3.3-11.2-7.5l0,0c0-4.1,5-7.5,11.2-7.5h262.5c6.1,0,11.2,3.3,11.2,7.5l0,0
		C1228.3,1074.3,1223.3,1077.7,1217.1,1077.7z"/>
	<path class="st12" d="M910.9,1077.7h-86c-6.1,0-11.2-3.3-11.2-7.5l0,0c0-4.1,5-7.5,11.2-7.5h86c6.1,0,11.2,3.3,11.2,7.5l0,0
		C922.1,1074.3,917.1,1077.7,910.9,1077.7z"/>
	<path class="st12" d="M1327.2,958h-86c-6.1,0-11.2-3.3-11.2-7.5l0,0c0-4.1,5-7.5,11.2-7.5h86c6.1,0,11.2,3.3,11.2,7.5l0,0
		C1338.4,954.7,1333.4,958,1327.2,958z"/>
	<path class="st12" d="M1194.7,958h-168.3c-6.1,0-11.2-3.3-11.2-7.5l0,0c0-4.1,5-7.5,11.2-7.5h168.3c6.1,0,11.2,3.3,11.2,7.5l0,0
		C1205.9,954.7,1200.8,958,1194.7,958z"/>
	<path class="st12" d="M1179.1,932h-71c-6.1,0-11.2-3.3-11.2-7.5l0,0c0-4.1,5-7.5,11.2-7.5h71c6.1,0,11.2,3.3,11.2,7.5l0,0
		C1190.4,928.6,1185.3,932,1179.1,932z"/>
</g>
<g>
	<path class="st12" d="M1495.4,542.7H1331c-6.1,0-11.2-3.3-11.2-7.5l0,0c0-4.1,5-7.5,11.2-7.5h164.4c6.1,0,11.2,3.3,11.2,7.5l0,0
		C1506.6,539.3,1501.5,542.7,1495.4,542.7z"/>
	<path class="st12" d="M1495.4,568.7H1331c-6.1,0-11.2-3.3-11.2-7.5l0,0c0-4.1,5-7.5,11.2-7.5h164.4c6.1,0,11.2,3.3,11.2,7.5l0,0
		C1506.6,565.3,1501.5,568.7,1495.4,568.7z"/>
	<path class="st12" d="M1417,594.7h-86c-6.1,0-11.2-3.3-11.2-7.5l0,0c0-4.1,5-7.5,11.2-7.5h86c6.1,0,11.2,3.3,11.2,7.5l0,0
		C1428.2,591.3,1423.1,594.7,1417,594.7z"/>
	<path class="st12" d="M1626.9,594.7h-168.3c-6.1,0-11.2-3.3-11.2-7.5l0,0c0-4.1,5-7.5,11.2-7.5h168.3c6.1,0,11.2,3.3,11.2,7.5l0,0
		C1638.1,591.3,1633.1,594.7,1626.9,594.7z"/>
	<path class="st12" d="M1704.9,568.7h-164.4c-6.1,0-11.2-3.3-11.2-7.5l0,0c0-4.1,5-7.5,11.2-7.5h164.4c6.1,0,11.2,3.3,11.2,7.5l0,0
		C1716.1,565.3,1711,568.7,1704.9,568.7z"/>
	<path class="st12" d="M1571.6,863.8h-164.4c-6.1,0-11.2-3.3-11.2-7.5l0,0c0-4.1,5-7.5,11.2-7.5h164.4c6.1,0,11.2,3.3,11.2,7.5l0,0
		C1582.8,860.4,1577.7,863.8,1571.6,863.8z"/>
	<path class="st12" d="M1571.6,889.8h-164.4c-6.1,0-11.2-3.3-11.2-7.5l0,0c0-4.1,5-7.5,11.2-7.5h164.4c6.1,0,11.2,3.3,11.2,7.5l0,0
		C1582.8,886.4,1577.7,889.8,1571.6,889.8z"/>
	<path class="st12" d="M1493.2,915.8h-86c-6.1,0-11.2-3.3-11.2-7.5l0,0c0-4.1,5-7.5,11.2-7.5h86c6.1,0,11.2,3.3,11.2,7.5l0,0
		C1504.3,912.4,1499.3,915.8,1493.2,915.8z"/>
	<path class="st12" d="M1703.1,915.8h-168.3c-6.1,0-11.2-3.3-11.2-7.5l0,0c0-4.1,5-7.5,11.2-7.5h168.3c6.1,0,11.2,3.3,11.2,7.5l0,0
		C1714.3,912.4,1709.3,915.8,1703.1,915.8z"/>
	<path class="st12" d="M1781.1,889.8h-164.4c-6.1,0-11.2-3.3-11.2-7.5l0,0c0-4.1,5-7.5,11.2-7.5h164.4c6.1,0,11.2,3.3,11.2,7.5l0,0
		C1792.2,886.4,1787.2,889.8,1781.1,889.8z"/>
	<path class="st12" d="M1565.7,711.6h-164.4c-6.1,0-11.2-3.3-11.2-7.5l0,0c0-4.1,5-7.5,11.2-7.5h164.4c6.1,0,11.2,3.3,11.2,7.5l0,0
		C1576.8,708.2,1571.8,711.6,1565.7,711.6z"/>
	<path class="st12" d="M1565.7,737.6h-164.4c-6.1,0-11.2-3.3-11.2-7.5l0,0c0-4.1,5-7.5,11.2-7.5h164.4c6.1,0,11.2,3.3,11.2,7.5l0,0
		C1576.8,734.2,1571.8,737.6,1565.7,737.6z"/>
	<path class="st12" d="M1775,737.6h-164.4c-6.1,0-11.2-3.3-11.2-7.5l0,0c0-4.1,5-7.5,11.2-7.5H1775c6.1,0,11.2,3.3,11.2,7.5l0,0
		C1786.2,734.2,1781.2,737.6,1775,737.6z"/>
	<path class="st12" d="M1565.7,630.5h-164.4c-6.1,0-11.2-3.3-11.2-7.5l0,0c0-4.1,5-7.5,11.2-7.5h164.4c6.1,0,11.2,3.3,11.2,7.5l0,0
		C1576.8,627.1,1571.8,630.5,1565.7,630.5z"/>
	<path class="st12" d="M1793.3,682.8h-262.5c-6.1,0-11.2-3.3-11.2-7.5l0,0c0-4.1,5-7.5,11.2-7.5h262.5c6.1,0,11.2,3.3,11.2,7.5l0,0
		C1804.5,679.4,1799.5,682.8,1793.3,682.8z"/>
	<path class="st12" d="M1487.1,656.5h-86c-6.1,0-11.2-3.3-11.2-7.5l0,0c0-4.1,5-7.5,11.2-7.5h86c6.1,0,11.2,3.3,11.2,7.5l0,0
		C1498.3,653.2,1493.3,656.5,1487.1,656.5z"/>
	<path class="st12" d="M1487.1,682.8h-86c-6.1,0-11.2-3.3-11.2-7.5l0,0c0-4.1,5-7.5,11.2-7.5h86c6.1,0,11.2,3.3,11.2,7.5l0,0
		C1498.3,679.4,1493.3,682.8,1487.1,682.8z"/>
	<path class="st12" d="M1492,805h-164.4c-6.1,0-11.2-3.3-11.2-7.5l0,0c0-4.1,5-7.5,11.2-7.5H1492c6.1,0,11.2,3.3,11.2,7.5l0,0
		C1503.2,801.6,1498.1,805,1492,805z"/>
	<path class="st12" d="M1568.1,831h-164.4c-6.1,0-11.2-3.3-11.2-7.5l0,0c0-4.1,5-7.5,11.2-7.5h164.4c6.1,0,11.2,3.3,11.2,7.5l0,0
		C1579.3,827.6,1574.3,831,1568.1,831z"/>
	<path class="st12" d="M1777.5,831h-164.4c-6.1,0-11.2-3.3-11.2-7.5l0,0c0-4.1,5-7.5,11.2-7.5h164.4c6.1,0,11.2,3.3,11.2,7.5l0,0
		C1788.7,827.6,1783.7,831,1777.5,831z"/>
	<path class="st12" d="M1719.6,776.2h-262.5c-6.1,0-11.2-3.3-11.2-7.5l0,0c0-4.1,5-7.5,11.2-7.5h262.5c6.1,0,11.2,3.3,11.2,7.5l0,0
		C1730.8,772.8,1725.8,776.2,1719.6,776.2z"/>
	<path class="st12" d="M1413.4,776.2h-86c-6.1,0-11.2-3.3-11.2-7.5l0,0c0-4.1,5-7.5,11.2-7.5h86c6.1,0,11.2,3.3,11.2,7.5l0,0
		C1424.6,772.8,1419.6,776.2,1413.4,776.2z"/>
	<path class="st12" d="M1829.7,656.5h-86c-6.1,0-11.2-3.3-11.2-7.5l0,0c0-4.1,5-7.5,11.2-7.5h86c6.1,0,11.2,3.3,11.2,7.5l0,0
		C1840.9,653.2,1835.9,656.5,1829.7,656.5z"/>
	<path class="st12" d="M1697.2,656.5h-168.3c-6.1,0-11.2-3.3-11.2-7.5l0,0c0-4.1,5-7.5,11.2-7.5h168.3c6.1,0,11.2,3.3,11.2,7.5l0,0
		C1708.4,653.2,1703.3,656.5,1697.2,656.5z"/>
	<path class="st12" d="M1681.6,630.5h-71c-6.1,0-11.2-3.3-11.2-7.5l0,0c0-4.1,5-7.5,11.2-7.5h71c6.1,0,11.2,3.3,11.2,7.5l0,0
		C1692.9,627.1,1687.8,630.5,1681.6,630.5z"/>
</g>
<g class="st13">
	<path class="st12" d="M1766.9,442.5h-376.7c-14,0-25.7-7.7-25.7-17.2l0,0c0-9.4,11.5-17.2,25.7-17.2h376.7c14,0,25.7,7.7,25.7,17.2
		l0,0C1792.6,434.8,1781,442.5,1766.9,442.5z"/>
	<path class="st12" d="M1766.9,502.1h-376.7c-14,0-25.7-7.7-25.7-17.2l0,0c0-9.4,11.5-17.2,25.7-17.2h376.7c14,0,25.7,7.7,25.7,17.2
		l0,0C1792.6,494.4,1781,502.1,1766.9,502.1z"/>
	<path class="st12" d="M1587.2,561.7h-196.9c-14,0-25.7-7.7-25.7-17.2l0,0c0-9.4,11.5-17.2,25.7-17.2h196.9c14,0,25.7,7.7,25.7,17.2
		l0,0C1612.9,554,1601.2,561.7,1587.2,561.7z"/>
	<path class="st12" d="M2068.3,561.7h-385.6c-14,0-25.7-7.7-25.7-17.2l0,0c0-9.4,11.5-17.2,25.7-17.2h385.6c14,0,25.7,7.7,25.7,17.2
		l0,0C2094,554,2082.5,561.7,2068.3,561.7z"/>
	<path class="st12" d="M2246.8,502.1h-376.7c-14,0-25.7-7.7-25.7-17.2l0,0c0-9.4,11.5-17.2,25.7-17.2h376.7c14,0,25.7,7.7,25.7,17.2
		l0,0C2272.5,494.4,2260.8,502.1,2246.8,502.1z"/>
	<path class="st12" d="M1941.5,1178.2h-376.7c-14,0-25.7-7.7-25.7-17.2l0,0c0-9.4,11.5-17.2,25.7-17.2h376.7
		c14,0,25.7,7.7,25.7,17.2l0,0C1967.2,1170.5,1955.6,1178.2,1941.5,1178.2z"/>
	<path class="st12" d="M1941.5,1237.8h-376.7c-14,0-25.7-7.7-25.7-17.2l0,0c0-9.4,11.5-17.2,25.7-17.2h376.7
		c14,0,25.7,7.7,25.7,17.2l0,0C1967.2,1230.1,1955.6,1237.8,1941.5,1237.8z"/>
	<path class="st12" d="M1761.8,1297.3h-196.9c-14,0-25.7-7.7-25.7-17.2l0,0c0-9.4,11.5-17.2,25.7-17.2h196.9
		c14,0,25.7,7.7,25.7,17.2l0,0C1787.3,1289.7,1775.8,1297.3,1761.8,1297.3z"/>
	<path class="st12" d="M2242.9,1297.3h-385.6c-14,0-25.7-7.7-25.7-17.2l0,0c0-9.4,11.5-17.2,25.7-17.2h385.6
		c14,0,25.7,7.7,25.7,17.2l0,0C2268.6,1289.7,2257.1,1297.3,2242.9,1297.3z"/>
	<path class="st12" d="M2421.4,1237.8h-376.7c-14,0-25.7-7.7-25.7-17.2l0,0c0-9.4,11.5-17.2,25.7-17.2h376.7
		c14,0,25.7,7.7,25.7,17.2l0,0C2446.9,1230.1,2435.4,1237.8,2421.4,1237.8z"/>
	<path class="st12" d="M1927.9,829.4h-376.7c-14,0-25.7-7.7-25.7-17.2l0,0c0-9.4,11.5-17.2,25.7-17.2h376.7c14,0,25.7,7.7,25.7,17.2
		l0,0C1953.4,821.8,1941.9,829.4,1927.9,829.4z"/>
	<path class="st12" d="M1927.9,889h-376.7c-14,0-25.7-7.7-25.7-17.2l0,0c0-9.4,11.5-17.2,25.7-17.2h376.7c14,0,25.7,7.7,25.7,17.2
		l0,0C1953.4,881.3,1941.9,889,1927.9,889z"/>
	<path class="st12" d="M2407.6,889h-376.7c-14,0-25.7-7.7-25.7-17.2l0,0c0-9.4,11.5-17.2,25.7-17.2h376.7c14,0,25.7,7.7,25.7,17.2
		l0,0C2433.3,881.3,2421.8,889,2407.6,889z"/>
	<path class="st12" d="M1927.9,643.7h-376.7c-14,0-25.7-7.7-25.7-17.2l0,0c0-9.4,11.5-17.2,25.7-17.2h376.7c14,0,25.7,7.7,25.7,17.2
		l0,0C1953.4,635.9,1941.9,643.7,1927.9,643.7z"/>
	<path class="st12" d="M2449.5,763.5H1848c-14,0-25.7-7.7-25.7-17.2l0,0c0-9.4,11.5-17.2,25.7-17.2h601.5c14,0,25.7,7.7,25.7,17.2
		l0,0C2475.2,755.7,2463.7,763.5,2449.5,763.5z"/>
	<path class="st12" d="M1747.9,703.3H1551c-14,0-25.7-7.7-25.7-17.2l0,0c0-9.4,11.5-17.2,25.7-17.2h196.9c14,0,25.7,7.7,25.7,17.2
		l0,0C1773.7,695.6,1762.2,703.3,1747.9,703.3z"/>
	<path class="st12" d="M1747.9,763.5H1551c-14,0-25.7-7.7-25.7-17.2l0,0c0-9.4,11.5-17.2,25.7-17.2h196.9c14,0,25.7,7.7,25.7,17.2
		l0,0C1773.7,755.7,1762.2,763.5,1747.9,763.5z"/>
	<path class="st12" d="M1759,1043.4h-376.7c-14,0-25.7-7.7-25.7-17.2l0,0c0-9.4,11.5-17.2,25.7-17.2H1759c14,0,25.7,7.7,25.7,17.2
		l0,0C1784.7,1035.8,1773.1,1043.4,1759,1043.4z"/>
	<path class="st12" d="M1933.4,1103h-376.7c-14,0-25.7-7.7-25.7-17.2l0,0c0-9.4,11.5-17.2,25.7-17.2h376.7c14,0,25.7,7.7,25.7,17.2
		l0,0C1959.1,1095.3,1947.7,1103,1933.4,1103z"/>
	<path class="st12" d="M2413.3,1103h-376.7c-14,0-25.7-7.7-25.7-17.2l0,0c0-9.4,11.5-17.2,25.7-17.2h376.7c14,0,25.7,7.7,25.7,17.2
		l0,0C2439,1095.3,2427.5,1103,2413.3,1103z"/>
	<path class="st12" d="M2280.6,977.5h-601.5c-14,0-25.7-7.7-25.7-17.2l0,0c0-9.4,11.5-17.2,25.7-17.2h601.5c14,0,25.7,7.7,25.7,17.2
		l0,0C2306.3,969.7,2294.9,977.5,2280.6,977.5z"/>
	<path class="st12" d="M1579.1,977.5h-196.9c-14,0-25.7-7.7-25.7-17.2l0,0c0-9.4,11.5-17.2,25.7-17.2h196.9c14,0,25.7,7.7,25.7,17.2
		l0,0C1604.8,969.7,1593.3,977.5,1579.1,977.5z"/>
	<path class="st12" d="M2532.9,703.3H2336c-14,0-25.7-7.7-25.7-17.2l0,0c0-9.4,11.5-17.2,25.7-17.2h196.9c14,0,25.7,7.7,25.7,17.2
		l0,0C2558.6,695.6,2547.2,703.3,2532.9,703.3z"/>
	<path class="st12" d="M2229.2,703.3h-385.6c-14,0-25.7-7.7-25.7-17.2l0,0c0-9.4,11.5-17.2,25.7-17.2h385.6c14,0,25.7,7.7,25.7,17.2
		l0,0C2254.9,695.6,2243.2,703.3,2229.2,703.3z"/>
	<path class="st12" d="M2193.6,643.7h-162.7c-14,0-25.7-7.7-25.7-17.2l0,0c0-9.4,11.5-17.2,25.7-17.2h162.7c14,0,25.7,7.7,25.7,17.2
		l0,0C2219.3,635.9,2207.7,643.7,2193.6,643.7z"/>
</g>
<g class="st13">
	<path class="st12" d="M1095.6,773.6H719c-14,0-25.7-7.7-25.7-17.2l0,0c0-9.4,11.5-17.2,25.7-17.2h376.7c14,0,25.7,7.7,25.7,17.2
		l0,0C1121.3,765.9,1109.7,773.6,1095.6,773.6z"/>
	<path class="st12" d="M1095.6,833.1H719c-14,0-25.7-7.7-25.7-17.2l0,0c0-9.4,11.5-17.2,25.7-17.2h376.7c14,0,25.7,7.7,25.7,17.2
		l0,0C1121.3,825.5,1109.7,833.1,1095.6,833.1z"/>
	<path class="st12" d="M915.9,892.7H719c-14,0-25.7-7.7-25.7-17.2l0,0c0-9.4,11.5-17.2,25.7-17.2h196.9c14,0,25.7,7.7,25.7,17.2l0,0
		C941.6,885.1,929.9,892.7,915.9,892.7z"/>
	<path class="st12" d="M1397,892.7h-385.6c-14,0-25.7-7.7-25.7-17.2l0,0c0-9.4,11.5-17.2,25.7-17.2H1397c14,0,25.7,7.7,25.7,17.2
		l0,0C1422.7,885.1,1411.2,892.7,1397,892.7z"/>
	<path class="st12" d="M1575.5,833.1h-376.7c-14,0-25.7-7.7-25.7-17.2l0,0c0-9.4,11.5-17.2,25.7-17.2h376.7c14,0,25.7,7.7,25.7,17.2
		l0,0C1601.2,825.5,1589.5,833.1,1575.5,833.1z"/>
	<path class="st12" d="M1270.2,1509.2H893.6c-14,0-25.7-7.7-25.7-17.2l0,0c0-9.4,11.5-17.2,25.7-17.2h376.7c14,0,25.7,7.7,25.7,17.2
		l0,0C1295.9,1501.6,1284.3,1509.2,1270.2,1509.2z"/>
	<path class="st12" d="M1270.2,1568.8H893.6c-14,0-25.7-7.7-25.7-17.2l0,0c0-9.4,11.5-17.2,25.7-17.2h376.7c14,0,25.7,7.7,25.7,17.2
		l0,0C1295.9,1561.2,1284.3,1568.8,1270.2,1568.8z"/>
	<path class="st12" d="M1090.5,1628.4H893.6c-14,0-25.7-7.7-25.7-17.2l0,0c0-9.4,11.5-17.2,25.7-17.2h196.9c14,0,25.7,7.7,25.7,17.2
		l0,0C1116,1620.7,1104.5,1628.4,1090.5,1628.4z"/>
	<path class="st12" d="M1571.6,1628.4H1186c-14,0-25.7-7.7-25.7-17.2l0,0c0-9.4,11.5-17.2,25.7-17.2h385.6c14,0,25.7,7.7,25.7,17.2
		l0,0C1597.3,1620.7,1585.8,1628.4,1571.6,1628.4z"/>
	<path class="st12" d="M1750.1,1568.8h-376.7c-14,0-25.7-7.7-25.7-17.2l0,0c0-9.4,11.5-17.2,25.7-17.2h376.7
		c14,0,25.7,7.7,25.7,17.2l0,0C1775.6,1561.2,1764.1,1568.8,1750.1,1568.8z"/>
	<path class="st12" d="M1256.6,1160.5H879.9c-14,0-25.7-7.7-25.7-17.2l0,0c0-9.4,11.5-17.2,25.7-17.2h376.7c14,0,25.7,7.7,25.7,17.2
		l0,0C1282.1,1152.8,1270.6,1160.5,1256.6,1160.5z"/>
	<path class="st12" d="M1256.6,1220.1H879.9c-14,0-25.7-7.7-25.7-17.2l0,0c0-9.4,11.5-17.2,25.7-17.2h376.7c14,0,25.7,7.7,25.7,17.2
		l0,0C1282.1,1212.4,1270.6,1220.1,1256.6,1220.1z"/>
	<path class="st12" d="M1736.3,1220.1h-376.7c-14,0-25.7-7.7-25.7-17.2l0,0c0-9.4,11.5-17.2,25.7-17.2h376.7
		c14,0,25.7,7.7,25.7,17.2l0,0C1762,1212.4,1750.5,1220.1,1736.3,1220.1z"/>
	<path class="st12" d="M1256.6,974.8H879.9c-14,0-25.7-7.7-25.7-17.2l0,0c0-9.4,11.5-17.2,25.7-17.2h376.7c14,0,25.7,7.7,25.7,17.2
		l0,0C1282.1,967,1270.6,974.8,1256.6,974.8z"/>
	<path class="st12" d="M1778.2,1094.6h-601.5c-14,0-25.7-7.7-25.7-17.2l0,0c0-9.4,11.5-17.2,25.7-17.2h601.5
		c14,0,25.7,7.7,25.7,17.2l0,0C1803.9,1086.8,1792.4,1094.6,1778.2,1094.6z"/>
	<path class="st12" d="M1076.6,1034.3H879.7c-14,0-25.7-7.7-25.7-17.2l0,0c0-9.4,11.5-17.2,25.7-17.2h196.9c14,0,25.7,7.7,25.7,17.2
		l0,0C1102.4,1026.7,1090.9,1034.3,1076.6,1034.3z"/>
	<path class="st12" d="M1076.6,1094.6H879.7c-14,0-25.7-7.7-25.7-17.2l0,0c0-9.4,11.5-17.2,25.7-17.2h196.9c14,0,25.7,7.7,25.7,17.2
		l0,0C1102.4,1086.8,1090.9,1094.6,1076.6,1094.6z"/>
	<path class="st12" d="M1087.7,1374.5H711.1c-14,0-25.7-7.7-25.7-17.2l0,0c0-9.4,11.5-17.2,25.7-17.2h376.7c14,0,25.7,7.7,25.7,17.2
		l0,0C1113.4,1366.8,1101.8,1374.5,1087.7,1374.5z"/>
	<path class="st12" d="M1262.1,1434.1H885.4c-14,0-25.7-7.7-25.7-17.2l0,0c0-9.4,11.5-17.2,25.7-17.2h376.7c14,0,25.7,7.7,25.7,17.2
		l0,0C1287.8,1426.4,1276.3,1434.1,1262.1,1434.1z"/>
	<path class="st12" d="M1742,1434.1h-376.7c-14,0-25.7-7.7-25.7-17.2l0,0c0-9.4,11.5-17.2,25.7-17.2H1742c14,0,25.7,7.7,25.7,17.2
		l0,0C1767.7,1426.4,1756.2,1434.1,1742,1434.1z"/>
	<path class="st12" d="M1609.3,1308.6h-601.5c-14,0-25.7-7.7-25.7-17.2l0,0c0-9.4,11.5-17.2,25.7-17.2h601.5
		c14,0,25.7,7.7,25.7,17.2l0,0C1635,1300.8,1623.6,1308.6,1609.3,1308.6z"/>
	<path class="st12" d="M907.8,1308.6H710.9c-14,0-25.7-7.7-25.7-17.2l0,0c0-9.4,11.5-17.2,25.7-17.2h196.9c14,0,25.7,7.7,25.7,17.2
		l0,0C933.5,1300.8,922,1308.6,907.8,1308.6z"/>
	<path class="st12" d="M1861.6,1034.3h-196.9c-14,0-25.7-7.7-25.7-17.2l0,0c0-9.4,11.5-17.2,25.7-17.2h196.9
		c14,0,25.7,7.7,25.7,17.2l0,0C1887.3,1026.7,1875.9,1034.3,1861.6,1034.3z"/>
	<path class="st12" d="M1557.9,1034.3h-385.6c-14,0-25.7-7.7-25.7-17.2l0,0c0-9.4,11.5-17.2,25.7-17.2h385.6
		c14,0,25.7,7.7,25.7,17.2l0,0C1583.6,1026.7,1571.9,1034.3,1557.9,1034.3z"/>
	<path class="st12" d="M1522.3,974.8h-162.7c-14,0-25.7-7.7-25.7-17.2l0,0c0-9.4,11.5-17.2,25.7-17.2h162.7c14,0,25.7,7.7,25.7,17.2
		l0,0C1548,967,1536.4,974.8,1522.3,974.8z"/>
</g>
<g>
	<g>
		<polygon class="st1" points="531.3,538.2 406.9,571.9 180,639.2 55,181.9 410.2,84.9 493.6,418.1 		"/>
		<polygon class="st2" points="506.9,526.5 393.4,563 158.8,627.1 29,152.2 384.2,55.2 480.2,406.4 		"/>
		<defs>
			<filter id="Adobe_OpacityMaskFilter_2_" filterUnits="userSpaceOnUse" x="32" y="57.5" width="466.3" height="569">
				<feFlood  style="flood-color:white;flood-opacity:1" result="back"/>
				<feBlend  in="SourceGraphic" in2="back" mode="normal"/>
			</filter>
		</defs>
		<mask maskUnits="userSpaceOnUse" x="32" y="57.5" width="466.3" height="569" id="SVGID_6_">
			<g class="st14">
				<defs>
					<filter id="Adobe_OpacityMaskFilter_3_" filterUnits="userSpaceOnUse" x="32" y="57.5" width="466.3" height="569">
						<feFlood  style="flood-color:white;flood-opacity:1" result="back"/>
						<feBlend  in="SourceGraphic" in2="back" mode="normal"/>
					</filter>
				</defs>
				<mask maskUnits="userSpaceOnUse" x="32" y="57.5" width="466.3" height="569" id="SVGID_6_">
					<g class="st15">
					</g>
				</mask>
				
					<linearGradient id="SVGID_7_" gradientUnits="userSpaceOnUse" x1="-167.8766" y1="-1642.455" x2="355.5548" y2="-1378.3455" gradientTransform="matrix(0.9646 -0.2635 0.2635 0.9646 276.1269 1761.9025)">
					<stop  offset="0.3602" style="stop-color:#FFFFFF"/>
					<stop  offset="1" style="stop-color:#000000"/>
				</linearGradient>
				<polygon class="st16" points="498.3,521.8 392.6,563.3 161.2,626.5 32,153.8 384.5,57.5 485.5,427.2 				"/>
			</g>
		</mask>
		
			<linearGradient id="SVGID_8_" gradientUnits="userSpaceOnUse" x1="-167.8766" y1="-1642.455" x2="355.5548" y2="-1378.3455" gradientTransform="matrix(0.9646 -0.2635 0.2635 0.9646 276.1269 1761.9025)">
			<stop  offset="0.3602" style="stop-color:#000000"/>
			<stop  offset="1" style="stop-color:#000000"/>
		</linearGradient>
		<polygon class="st17" points="498.3,521.8 392.6,563.3 161.2,626.5 32,153.8 384.5,57.5 485.5,427.2 		"/>
		<path class="st7" d="M379.8,209.6l-266.3,72.7c-3.7,1-7.6-1.2-8.6-4.9l0,0c-1-3.7,1.2-7.6,4.9-8.6l266.3-72.7
			c3.7-1,7.6,1.2,8.6,4.9v0C385.7,204.7,383.5,208.6,379.8,209.6z"/>
		<path class="st7" d="M307.2,173.7l-146.7,40.1c-3.7,1-7.6-1.2-8.6-4.9l0,0c-1-3.7,1.2-7.6,4.9-8.6l146.7-40.1
			c3.7-1,7.6,1.2,8.6,4.9l0,0C313.1,168.9,310.9,172.7,307.2,173.7z"/>
		<path class="st7" d="M389.9,246.7l-266.3,72.7c-3.7,1-7.6-1.2-8.6-4.9l0,0c-1-3.7,1.2-7.6,4.9-8.6l266.3-72.7
			c3.7-1,7.6,1.2,8.6,4.9l0,0C395.8,241.8,393.6,245.7,389.9,246.7z"/>
		<path class="st7" d="M410.1,320.8l-266.3,72.7c-3.7,1-7.6-1.2-8.6-4.9h0c-1-3.7,1.2-7.6,4.9-8.6l266.3-72.7c3.7-1,7.6,1.2,8.6,4.9
			l0,0C416.1,315.9,413.9,319.8,410.1,320.8z"/>
		<path class="st7" d="M420.3,357.9L154,430.6c-3.7,1-7.6-1.2-8.6-4.9v0c-1-3.7,1.2-7.6,4.9-8.6l266.3-72.7c3.7-1,7.6,1.2,8.6,4.9
			l0,0C426.2,353,424,356.9,420.3,357.9z"/>
		<path class="st7" d="M322,424.6l-157.8,43.1c-3.7,1-7.6-1.2-8.6-4.9v0c-1-3.7,1.2-7.6,4.9-8.6L318.3,411c3.7-1,7.6,1.2,8.6,4.9
			l0,0C327.9,419.7,325.7,423.5,322,424.6z"/>
		
			<rect x="175.3" y="522" transform="matrix(0.9646 -0.2635 0.2635 0.9646 -128.9148 86.8142)" class="st7" width="167.7" height="3.9"/>
		<g>
			<g>
				<path class="st8" d="M451.1,447.3c6.3,26.2-9.8,52.5-36,58.8c-26.2,6.3-52.5-9.8-58.8-36c-6.3-26.2,9.8-52.5,36-58.8
					C418.5,405,444.8,421.1,451.1,447.3z"/>
			</g>
			
				<ellipse transform="matrix(0.999 -4.555906e-02 4.555906e-02 0.999 -20.4788 18.8678)" class="st2" cx="403.7" cy="458.7" rx="35.5" ry="35.5"/>
			<g>
				<path class="st8" d="M419.4,516.2c-0.6,0.2-1.2,0.3-1.8,0.5c-32,7.7-64.2-12.1-71.9-44c-7.7-32.1,11.6-64.1,44-71.9
					c15.5-3.7,31.5-1.2,45.1,7.1c13.6,8.3,23.1,21.4,26.8,36.9C469.2,476.3,450.7,507.7,419.4,516.2z M389.2,405.7
					c-28.8,7.9-45.9,36.8-38.9,65.8c7.1,29.4,36.8,47.6,66.2,40.5c29.7-7.2,47.7-36.6,40.5-66.2c-3.4-14.3-12.2-26.3-24.7-34
					c-12.5-7.7-27.3-10-41.5-6.6C390.3,405.4,389.7,405.6,389.2,405.7z"/>
			</g>
			<polygon class="st9" points="403.1,480.4 379.9,467.2 386.2,457.7 399.5,465.2 416.4,439.5 426.3,445.2 			"/>
		</g>
		<g>
			<defs>
				
					<rect id="SVGID_9_" x="87.1" y="95.1" transform="matrix(0.9646 -0.2635 0.2635 0.9646 -80.3543 83.5419)" width="368.2" height="492.3"/>
			</defs>
			<clipPath id="SVGID_10_">
				<use xlink:href="#SVGID_9_"  style="overflow:visible;"/>
			</clipPath>
		</g>
	</g>
</g>
</svg>
