<?xml version="1.0" encoding="utf-8"?>
<!-- Generator: Adobe Illustrator 24.3.0, SVG Export Plug-In . SVG Version: 6.00 Build 0)  -->
<svg version="1.1" id="Layer_1" xmlns="http://www.w3.org/2000/svg" xmlns:xlink="http://www.w3.org/1999/xlink" x="0px" y="0px"
	 viewBox="0 0 1920 1080" style="enable-background:new 0 0 1920 1080;" xml:space="preserve">
<style type="text/css">
	.st0{fill:url(#Rectangle_1180_1_);}
	.st1{fill:#B9EDFF;}
	.st2{opacity:0.47;}
	.st3{fill:#007EC3;}
	.st4{fill:#6CC3F1;}
	.st5{fill-rule:evenodd;clip-rule:evenodd;fill:#6699CB;}
	.st6{clip-path:url(#SVGID_2_);fill:url(#SVGID_3_);}
	.st7{fill:#30B3FF;}
	.st8{fill-rule:evenodd;clip-rule:evenodd;fill:#7BA7D3;}
	.st9{fill-rule:evenodd;clip-rule:evenodd;fill:#2F6799;}
	.st10{fill:#4B85FD;}
	.st11{fill:#0D1D7E;}
	.st12{fill:#232E42;}
	.st13{fill:#334660;}
	.st14{fill:#F5CFBF;}
	.st15{opacity:0.3;fill:#3D6ACC;enable-background:new    ;}
	.st16{fill:#0D232B;}
	.st17{fill:#F29D9D;}
	.st18{fill:#BD422A;}
	.st19{fill:#246AFC;}
	.st20{fill:#E6E5CE;}
	.st21{opacity:0.8;}
	.st22{fill:#D2DDE7;}
	.st23{opacity:0.16;fill:#007EC3;enable-background:new    ;}
</style>
<linearGradient id="Rectangle_1180_1_" gradientUnits="userSpaceOnUse" x1="0" y1="540" x2="1920" y2="540" gradientTransform="matrix(1 0 0 -1 0 1080)">
	<stop  offset="8.465609e-02" style="stop-color:#004A6E"/>
	<stop  offset="0.93" style="stop-color:#004A6E"/>
</linearGradient>
<rect id="Rectangle_1180_11_" class="st0" width="1920" height="1080"/>
<path class="st1" d="M1112.1,202.2c-11.5,0-20.9-9.4-20.9-20.9s9.4-20.9,20.9-20.9c0.6,0,1.2,0,1.8,0.1c4.3-12.2,15.9-21,29.6-21
	s25.4,8.8,29.7,21.1c0.8-0.1,1.7-0.2,2.6-0.2c3.3,0,6.4,0.8,9.2,2.2c4.5-8.5,13.5-14.2,23.7-14.2c14.9,0,26.9,12.1,26.9,26.9
	s-12.1,26.9-26.9,26.9L1112.1,202.2L1112.1,202.2z"/>
<g class="st2">
	<path class="st3" d="M360.4,645.5v83.2c0,100.1-50,157.5-146.7,157.5S67,828.9,67,728.7V403.2c0-100.1,50-157.5,146.7-157.3
		c96.7,0,146.7,57.2,146.7,157.5v60.8h-93.1V397c0-44.7-19.6-61.7-50.9-61.7s-50.9,16.9-51.1,61.7v338c0,44.7,19.6,60.8,50.9,60.8
		s50.9-16.1,50.9-60.8v-89.5H360.4z M412.3,403.2c0-100.1,52.8-157.5,149.4-157.3c96.7,0,149.3,57.2,149.3,157.5v325.5
		c0,100.1-52.8,157.5-149.4,157.5s-149.3-57.2-149.3-157.5V403.2z M510.5,735c0,44.7,19.6,61.7,50.9,61.7s50.9-16.9,50.9-61.7V397
		c0-44.7-19.6-61.7-50.9-61.7s-50.9,16.9-51.1,61.7L510.5,735L510.5,735z M862,425.5V879h-88.5V253H897l101,374.8V253h87.6v626
		H984.5L862,425.5z M1474.6,879.2h-99.2l-16.9-113.6h-120.8l-17.1,113.6h-90.3l100.3-626h144L1474.6,879.2L1474.6,879.2z
		 M1250.2,680.5h94.8l-47.3-316.7L1250.2,680.5z M1607.9,425.7v453.5h-88.5v-626h123.5l100.9,374.7V253.2h87.6v626h-101.1
		L1607.9,425.7z"/>
</g>
<g>
	<path class="st4" d="M1291.3,954.9c-12.8-7.1-22.9-16.8-30.2-29.2c-7.3-12.4-10.9-26.3-10.9-41.8s3.6-29.4,10.9-41.8
		c7.3-12.4,17.4-22.1,30.3-29.2c12.9-7.1,27.3-10.6,43.3-10.6c12.5,0,23.8,2.1,34.2,6.3c10.3,4.2,19.1,10.4,26.4,18.6l-14.8,14.4
		c-12-12.6-27-18.9-44.9-18.9c-11.8,0-22.6,2.7-32.1,8c-9.6,5.3-17.1,12.6-22.4,22c-5.4,9.3-8.1,19.8-8.1,31.3s2.7,22,8.1,31.3
		s12.9,16.7,22.4,22c9.6,5.3,20.3,8,32.1,8c17.8,0,32.7-6.4,44.9-19.1l14.8,14.4c-7.3,8.2-16.1,14.4-26.5,18.7s-21.8,6.4-34.3,6.4
		C1318.6,965.5,1304.2,962,1291.3,954.9z"/>
	<path class="st4" d="M1472.8,771.8h19.8l-75.2,214.7h-19.8L1472.8,771.8z"/>
	<path class="st4" d="M1531.7,954.9c-12.8-7.1-22.9-16.8-30.2-29.2c-7.3-12.4-10.9-26.3-10.9-41.8s3.6-29.4,10.9-41.8
		c7.3-12.4,17.4-22.1,30.3-29.2c12.9-7.1,27.3-10.6,43.3-10.6c12.5,0,23.8,2.1,34.2,6.3c10.3,4.2,19.1,10.4,26.4,18.6l-14.8,14.4
		c-12-12.6-27-18.9-44.9-18.9c-11.8,0-22.6,2.7-32.1,8c-9.6,5.3-17.1,12.6-22.4,22c-5.4,9.3-8.1,19.8-8.1,31.3s2.7,22,8.1,31.3
		s12.9,16.7,22.4,22c9.6,5.3,20.3,8,32.1,8c17.8,0,32.7-6.4,44.9-19.1l14.8,14.4c-7.3,8.2-16.1,14.4-26.5,18.7s-21.8,6.4-34.3,6.4
		C1559,965.5,1544.6,962,1531.7,954.9z"/>
	<path class="st4" d="M1761.1,893.1h-41.5v40.8h-19.1v-40.8H1659v-18h41.5v-41h19.1v41h41.5V893.1z"/>
	<path class="st4" d="M1894.4,893.1h-41.5v40.8h-19.1v-40.8h-41.5v-18h41.5v-41h19.1v41h41.5V893.1z"/>
</g>
<path class="st5" d="M960.3,566.5L735.5,436.1v209l224.8,148.1V566.5z"/>
<g>
	<g>
		<defs>
			<polygon id="SVGID_1_" points="734.9,436.2 960.3,566.5 1185.1,446.6 954.5,333.2 			"/>
		</defs>
		<clipPath id="SVGID_2_">
			<use xlink:href="#SVGID_1_"  style="overflow:visible;"/>
		</clipPath>
		<linearGradient id="SVGID_3_" gradientUnits="userSpaceOnUse" x1="1069.8173" y1="513.2999" x2="933.5463" y2="434.5656">
			<stop  offset="0" style="stop-color:#AFD5E6"/>
			<stop  offset="1" style="stop-color:#AFD5E6"/>
		</linearGradient>
		<path class="st6" d="M734.9,333.2h450.2v233.3H734.9V333.2z"/>
	</g>
</g>
<path class="st7" d="M1256.1,590.7c-27.1-11.4-48.2-19.4-67.5-32.6c-7.6-5.2-63.7-56.7-74.5-64.1l-14.8,22.5
	c10.7,11,92.1,88.3,106.2,93.7L1256.1,590.7z"/>
<path class="st8" d="M960.3,566.5l224.8-119.9v208.9L960.3,793.2V566.5z"/>
<path class="st5" d="M961.3,389.3l-13,1.5l-1.9,0.8h-2.1l-1.8,0.8l-10.2,2.4l-1.5,0.6h-1.4l-1.2,1l-18.8,7l-1,0.7
	c-8.5,3.3-15.4,7.9-22.7,11.7l-0.8,0.9c-6.6,3.7-8.9,5.6-13.6,10.2l-1.1,0.7l-4.7,6.2l-0.9,0.8l-1.5,3.1l-0.8,0.9
	c-5.3,12.1-5.2,14-4.1,28.2l0.9,1.4v1.5l0.7,1.3l1.8,4.4l0.7,1l0.8,2.2l0.9,0.8c2.7,4.8,6,8.7,9.2,12.2c1.8,2,9.5,8.2,12.5,9.8
	l0.8,0.9c6.2,2.9,10.7,6.6,18.6,9.4l1.1,0.7l15.2,4.8l1.7,0.8c5.2,0.6,10.7,2.1,16.5,2.9c6.3,0.8,9.7-2.2,15-4.5l1-0.7h0.7l1-0.7
	l24.1-11.1l1-0.7h0.7l1-0.7l13.9-6.6l-1.2-0.5c-8.1-0.4-17.8,0.9-26.6,0.7c-8.8-0.2-17-1.8-25.1-2.2l-1.7-0.8
	c-5.9-0.6-11.7-3-16.8-4.8l-1.1-0.7c-8.1-2.9-15.6-9.3-19.1-16c-5.6-10.6-2.1-18.4,2.1-27.3l0.9-0.8l0.7-1.5l1-0.8
	c4.4-6.2,15.1-14.8,25.7-18.2l1.1-0.7l11.2-3.2l1.6-0.8l1.7,0.1l1.7-0.8l7.4-0.6c1.8-1.2,2.7-1,5.3-1.1h17.3c2.7-0.1,5.1-0.1,7,1
	l10.1,1.4l1.2,1c6.1,0.9,11.2,4.3,16.4,6.2l0.9,0.8l3.2,1.5l0.8,0.9c5.4,2.9,15,11.7,17,18.7l0.7,1.1c2.3,7.9,1.7,10.6,0,18.4
	l-0.7,1.5l-2.8,6.1l4.2-1.7l0.9-0.8l33.3-17.2l0.9-0.8l8-3.9l0.9-0.8l8-3.9l0.9-0.9c0.3-1.7-10-10.2-12.2-12.3l-0.8-1.1
	c-2.7-2.3-6.6-5.6-9.7-7.6l-0.8-1c-3.2-1.8-5.9-4.6-8.9-6.1l-0.8-0.9l-8.1-4.6l-0.8-0.9l-10.5-5.5l-1-0.7l-13.5-5.6l-1.1-0.7
	l-8.1-2.3l-1.3-1h-1.4l-1.6-0.7h-1.5l-1.4-0.9c-6.6-0.6-13.9-2.8-21.4-3.5c-8.9-0.8-17.6,0.2-25.7-0.5L961.3,389.3L961.3,389.3z"/>
<path class="st9" d="M1076.6,504.4l8.4-4.5v216.9l-8.4,5.1V504.4z"/>
<path class="st10" d="M1338.2,1035.8c6.8,8.3,10.4,10,16.4,16.7c1.9,2.1,2,5.3,0.1,7.5c-7.2,8.5-25.5,27.8-42,25.2
	c-16.1-2.5-13.9-2.2-13.9-2.2s1.2-4.8,6.1-5.7c3.3-0.6,9.1-8.3,12.6-13.4c1.8-2.6,1.6-6.2-0.6-8.6l-14.1-15.3L1338.2,1035.8z"/>
<path class="st11" d="M1163.3,785.8c5.8,22.2,27.4,126.4,63,180.7c36.7,56,85.6,88.3,85.6,88.3c12.7-2.8,22.3-15.7,26.2-19.1
	c0,0-57.9-66.9-76.1-115.6c-10.3-27.8-22.5-78.4-27.3-101.7c6.4-26.8,7.6-45.8,7.6-45.8L1163.3,785.8z"/>
<path class="st12" d="M1163.3,785.8c5.8,22.2,27.4,126.4,63,180.7c36.7,56,85.6,88.3,85.6,88.3c12.7-2.8,22.3-15.7,26.2-19.1
	c0,0-57.9-66.9-76.1-115.6c-10.3-27.8-22.5-78.4-27.3-101.7c6.4-26.8,7.6-45.8,7.6-45.8L1163.3,785.8z"/>
<path class="st10" d="M996.5,1084.7l57.1,0.7c3,0,5.5-2.3,5.7-5.3c0.4-6.4,1.5-22.9,3.2-37.3c-13.5-0.6-33.2-2.2-33.2-2.2l-1.2,23.7
	c-0.2,3.2-2.3,5.9-5.4,6.9c-6.7,2.2-18.2,6.1-21.7,7.5C995.9,1080.7,996.5,1084.7,996.5,1084.7z"/>
<path class="st13" d="M1025.8,1059.2c0,0,28.8,2.8,40.8,4c4.3-25.4,23.1-91.7,31-115.1c15.5-46,55.5-99.9,84.6-118.3
	c25.2-16,45.2-39.7,47.5-53.6l-74.2-43.4c0,0-70.1,80.6-98.3,171.2C1037.4,967.3,1025.8,1059.2,1025.8,1059.2z"/>
<g>
	<path class="st14" d="M1270.7,629.4c-17.5,4.5-35-10.6-37.5-15.5c-4.5-8.7-5-3.3-3.1-12c16.8-8.2,21.7-8.7,25.6-15.2
		c4.3-7.2,15.1-49.5,15.1-49.5l34,11c0,0-11.4,41.5-12.4,48.7c-0.6,4.3,4.2,14.8,5.4,20.9C1289.7,624.8,1281.2,626.7,1270.7,629.4z"
		/>
	<path class="st15" d="M1266.5,568.8c-1.4-0.5-2.8-1.1-4-1.7c4.6-14.1,8.7-27.4,8.7-27.4l24.1,8.6
		C1289,563.2,1277.9,572.8,1266.5,568.8z"/>
	<path class="st14" d="M1261.9,523c-4.9,9.2-10,21.3-7.8,28.9c1.4,5,5.8,7.3,16.4,10c10.3,2.6,24.1-2.1,32.1-17.4
		c8.1-15.3,10.8-29.7-5.7-38.5C1278.7,496.5,1270,507.7,1261.9,523z"/>
	<path class="st16" d="M1329.1,531.8c6.7,18.9-12.8,22.1-8.9,37.7c-13.8,9.2-41.6,4.2-26.5-21.8l19.5-18.7L1329.1,531.8z"/>
	<path d="M1271.4,522.2c-0.4,0.8-0.1,1.9,0.7,2.3c0.8,0.4,1.9,0.1,2.3-0.7s0.1-1.9-0.7-2.3C1272.9,521,1271.8,521.3,1271.4,522.2z"
		/>
	<g>
		<path class="st17" d="M1287.6,549.8c6,3.2,13.4,0.9,16.6-5.1s0.9-13.4-5.1-16.6L1287.6,549.8z"/>
		<path class="st18" d="M1290.3,544.7c3.2,1.7,7.1,0.5,8.7-2.7c1.7-3.2,0.5-7.1-2.7-8.7L1290.3,544.7z"/>
	</g>
	<path class="st17" d="M1268.8,531.4c-1.4,2.6-0.4,5.9,2.2,7.3c2.6,1.4,5.9,0.4,7.3-2.2c1.4-2.6,0.4-5.9-2.2-7.3
		C1273.4,527.8,1270.2,528.8,1268.8,531.4z"/>
	<path class="st17" d="M1266.8,518.4l-11.3,5.3c-1.3,0.6-1.6,2.4-0.4,3.4l5.3,4.2L1266.8,518.4z"/>
	<path class="st16" d="M1297.5,530.7l-4.4,8.6l-3.1-1.4c1.3-2,3.5-7.5,4.1-9.3L1297.5,530.7z"/>
	<path class="st16" d="M1277.9,485.2c8.5-3.9,6.7,8,19.1,5.7c17.4-3.2,30.5,10.1,28.3,21.5c-1.4,7.3,16.9,17.5,3.3,30.7
		c-10,9.7-33.6-5.7-36.8-9.7c-4.3-5.4-6.6-9-4.2-18.4c0,0,2-11.2-10.7-10.9C1270.6,502.2,1264.9,491.2,1277.9,485.2z"/>
	<path class="st17" d="M1280.3,522.1c-1.7-0.9-3.3-1.9-4.9-2.8c-0.8-0.5-1.6-0.9-2.4-1.4l-1.2-0.6c-0.2-0.1-0.4-0.2-0.6-0.3
		l-0.3-0.1l-0.2-0.1l-0.1-0.1h-0.1c-0.2,0-0.4-0.5-0.4-0.6c0.1-0.3,0.3-0.5,0.6-0.4c0.3,0.1,0.5,0.3,0.4,0.6
		c0.1-0.1-0.1-0.5-0.3-0.6l0,0h0.1h0.2h0.4c0.3,0,0.5,0,0.8,0.1c0.5,0.1,1,0.2,1.5,0.4c1,0.3,1.9,0.7,2.7,1.3
		c0.9,0.5,1.7,1.1,2.4,1.8c0.7,0.7,1.4,1.4,2,2.2c0.2,0.2,0.1,0.6-0.1,0.7C1280.7,522.2,1280.5,522.2,1280.3,522.1L1280.3,522.1z"/>
	<path class="st17" d="M1257.7,535.6c-0.5-0.1-0.9-0.3-1.4-0.4c-0.2,0.5-0.4,1.1-0.7,1.7c0.6,0.3,1.3,0.5,2,0.8
		c2.7,0.8,4.8,0.6,4.8-0.3C1262.6,536.3,1260.4,536.4,1257.7,535.6z"/>
</g>
<path class="st7" d="M1256.5,585.2c0,0-6,9.2,6.6,15c13.5,6.2,31.8,2.6,31.8,2.6s18.7,42.7-22.2,114.7
	c-20.8,36.6-30.3,63.2-30.3,63.2s-55.6,0-104.4-41.9c17-50.3,40.6-61.6,55.5-107.2C1202.4,604.4,1217.6,588.9,1256.5,585.2z"/>
<g>
	<path class="st14" d="M1272.3,644.1c-3.5,22.8-48.4,46.3-95.7,67.3c-47.3,20.9-114.7,45.6-137.2,50.6s-32.9,6.3-33.8,2.9
		c-0.5-1.7,2.3-2.6,5.3-3.1c-3,0-6-0.3-6.4-1.9c-0.5-1.7,2.5-2.8,5.5-3.6c-3.1,0.3-6.5,0.2-7-1.8c-0.6-2.1,3.5-3.4,7.4-4.1
		c-2.9,0.2-5.9-0.1-6.1-1.8c-0.5-3.1,16-5.8,21-6.6c-2.3,0.3-6.9,0.9-9.2,1c-1.7,0-2.9-1.7-2.9-2.7s1.1-1.3,5-2.2
		c7.8-1.7,24.4-6.1,64.9-20.7c40.5-14.5,111.8-60.8,133.6-80.1C1249.3,608.6,1276,619.9,1272.3,644.1z"/>
	<path class="st7" d="M1088.3,747.6c-8.2-8.1-10.7-22.6-12.6-27.8c44-15,125-68.4,141-82.6c33-29.2,59.9-17.7,56.2,6.7
		c-3.5,23-48.8,46.7-96.5,67.9C1170.7,714.2,1097.4,745.7,1088.3,747.6z"/>
</g>
<path class="st19" d="M1001,1078.7c3.6-1.4,15-5.2,21.7-7.5c1.6-0.5,2.9-1.5,3.9-2.8c1.9,1.2,4.6,2.6,8.1,3.3
	c5.6,1.1,19.6-0.3,25.3-0.9c-0.3,3.8-0.5,6.9-0.7,9.4c-0.2,3-2.7,5.3-5.7,5.3l-57.1-0.7C996.5,1084.7,995.9,1080.7,1001,1078.7z"/>
<path class="st20" d="M997.5,1081.3l56.9,0.7c2.2,0,4-1.2,5-2.9c0,0.4,0,0.7-0.1,1.1c-0.2,3-2.7,5.3-5.7,5.3l-57.1-0.7
	C996.5,1084.7,996.3,1083,997.5,1081.3z"/>
<path class="st19" d="M1298.8,1083c0,0,1.2-4.8,6.1-5.7c3.3-0.6,9.1-8.3,12.6-13.4c0.6-0.9,1-1.9,1.1-3c13.1,3.7,21-3.5,30.5-14.5
	c2.1,2.3,4,4.4,5.5,6.1c1.9,2.1,2,5.3,0.1,7.5c-7.2,8.5-25.5,27.8-42,25.2C1301.8,1083.5,1299.3,1083.1,1298.8,1083z"/>
<path class="st20" d="M1311.2,1082.3c16.6,2.6,34.9-16.7,42-25.2c1.2-1.4,1.6-3.2,1.2-4.8c0.1,0.1,0.1,0.1,0.2,0.2
	c1.9,2.1,2,5.3,0.1,7.5c-7.2,8.5-25.5,27.8-42,25.2c-11-1.7-13.5-2.1-13.9-2.2c0,0,0.3-1.2,1.2-2.5
	C1302,1080.8,1305.4,1081.4,1311.2,1082.3z"/>
<path class="st1" d="M182.5,1019.4c0-27.6-13.4-51.9-33.4-65.5c-11.1-7.5-16.9-21.7-14.2-35.6c0.8-3.9,1.2-7.9,1.2-12
	c0-27.5-17.7-50.5-41.4-56.2c-6.3-1.5-10.5-7.9-9.9-14.8c0.3-3.1,0.4-6.1,0.1-8.5c-1.9-15.9-10.2-24.6-22-31.7
	c-6.1-3.7-9.1-11.3-7.4-18.7c0.9-3.6,1.3-7.4,1.4-11.3c0.7-29.4-13.8-41.4-23.9-46.9c-4.9-2.7-8.5-7.6-10-13.3
	c-3.9-15.7-17.6-27-33.4-25.9c-15.5,1.1-28.3,14.4-30,31.3c0,0.1,0,0.3,0,0.4c-0.5,5.8-5.1,10-10.4,9.7c-1.7-0.1-3.5-0.1-5.3,0.1
	c-19.7,1.8-35.5,19.2-36.9,40.6c-0.2,3.4-0.1,6.8,0.4,10c1.1,7.4-1.9,14.8-7.8,18.8c-11.1,7.6-19.7,19.1-24.2,32.7
	c-1.7,5.3-5.8,9.3-10.8,10.8c-22.2,6.7-38.4,28.8-38.4,55.1c0,7.1,1.2,13.8,3.3,20.1c3.3,9.7-1,20.3-9.7,24.3
	c-23.5,10.7-40.1,35.9-40.1,65.4c0,11.9,2.7,23.2,7.5,33c7.3,14.9,4.6,33.4-7,44.7c-16.3,16-26.5,39.2-26.5,64.9v31.9h435.6v-31.9
	c0-12.9-7.5-25.2-16.3-36.2c-9.6-12-10.3-29.5-2.2-42.7C178.2,1049.7,182.5,1035.1,182.5,1019.4z"/>
<path class="st4" d="M263.2,1035.6c0-24.7-11.9-46.4-29.9-58.5c-9.9-6.7-15.1-19.4-12.7-31.9c0.7-3.5,1-7.1,1-10.8
	c0-24.6-15.8-45.2-37-50.3c-5.6-1.4-9.4-7-8.8-13.3c0.2-2.8,0.3-5.4,0.1-7.6c-1.7-14.2-9.1-22-19.7-28.4c-5.5-3.3-8.2-10.1-6.6-16.7
	c0.8-3.2,1.2-6.6,1.3-10.1c0.6-26.2-12.4-37.1-21.4-41.9c-4.4-2.4-7.6-6.8-8.9-11.9c-3.5-14-15.7-24.2-29.9-23.1
	c-13.9,1-25.3,12.9-26.8,28c0,0.1,0,0.2,0,0.4c-0.5,5.2-4.5,9-9.3,8.7c-1.6-0.1-3.1-0.1-4.7,0.1c-17.6,1.6-31.8,17.1-33,36.3
	c-0.2,3.1-0.1,6,0.3,8.9c1,6.6-1.7,13.3-7,16.9c-9.9,6.8-17.6,17.1-21.7,29.3c-1.6,4.7-5.2,8.3-9.6,9.6c-19.8,6-34.4,25.8-34.4,49.3
	c0,6.3,1.1,12.4,3,18c3,8.6-0.9,18.2-8.7,21.7c-21,9.5-35.8,32.1-35.8,58.5c0,10.7,2.4,20.7,6.7,29.6c6.5,13.4,4.1,29.8-6.2,40
	c-14.6,14.3-23.7,35-23.7,58v28.5h389.5v-28.5c0-11.5-6.7-22.5-14.6-32.4c-8.6-10.7-9.2-26.4-2-38.2
	C259.3,1062.8,263.2,1049.7,263.2,1035.6z"/>
<g class="st21">
	<path class="st22" d="M-140.5,1089.3c6.1,10,5.6,23.2-1.7,32.2c-6.7,8.3-12.3,17.5-12.3,27.3v24h328v-24c0-19.4-7.7-36.8-20-48.9
		c-8.7-8.5-10.7-22.4-5.2-33.7c3.6-7.4,5.7-15.9,5.7-24.9c0-22.2-12.5-41.2-30.2-49.3c-6.6-3-9.8-11-7.3-18.3
		c1.6-4.7,2.5-9.8,2.5-15.1c0-19.8-12.3-36.4-28.9-41.5c-3.7-1.1-6.8-4.1-8.1-8.1c-3.4-10.3-9.9-18.9-18.2-24.7
		c-4.4-3-6.7-8.6-5.9-14.2c0.4-2.4,0.5-4.9,0.3-7.5c-1-16.2-12.9-29.3-27.8-30.6c-1.3-0.1-2.7-0.1-4-0.1c-4,0.2-7.4-3-7.8-7.3
		c0-0.1,0-0.2,0-0.3C17.3,811.7,7.7,801.6-4,800.8c-12-0.9-22.2,7.7-25.2,19.5c-1.1,4.4-3.8,8-7.5,10c-7.6,4.1-18.5,13.2-18,35.3
		c0.1,3,0.4,5.8,1.1,8.5c1.3,5.5-1,11.3-5.6,14.1c-9,5.3-15.2,11.9-16.6,23.9c-0.2,1.8-0.1,4.1,0.1,6.4c0.4,5.2-2.7,10-7.4,11.2
		c-17.8,4.3-31.2,21.6-31.2,42.3c0,3.1,0.3,6.1,0.9,9.1c2,10.5-2.3,21.2-10.7,26.8c-15.1,10.2-25.2,28.5-25.2,49.3
		C-149.3,1069.1-146.1,1080.1-140.5,1089.3z"/>
</g>
<path class="st1" d="M295.9,132.6c13.7,0,24.7-11.1,24.7-24.7c0-13.7-11.1-24.7-24.7-24.7c-3,0-5.8,0.6-8.4,1.5
	c-4.3-16.4-19.2-28.5-37-28.5c-17.2,0-31.7,11.3-36.5,26.9c-4-2.4-8.6-3.8-13.6-3.8c-14.7,0-26.7,11.9-26.7,26.7
	s11.9,26.7,26.7,26.7h95.5V132.6z"/>
<path class="st1" d="M1979.2,132c27.1,0,49.1-22,49.1-49.1s-22-49.1-49.1-49.1c-5.9,0-11.5,1.1-16.8,3
	c-8.5-32.6-38.2-56.6-73.4-56.6c-34.1,0-63,22.5-72.5,53.5c-7.9-4.7-17.2-7.5-27.1-7.5c-29.2,0-52.9,23.7-52.9,52.9
	s23.7,52.9,52.9,52.9H1979.2z"/>
<path class="st23" d="M1088.3,747.6c-8.2-8.1-10.7-22.6-12.6-27.8c44-15,125-68.4,141-82.6c33-29.2,59.9-17.7,56.2,6.7
	c-3.5,23-48.8,46.7-96.5,67.9C1170.7,714.2,1097.4,745.7,1088.3,747.6z"/>
</svg>
