<?xml version="1.0" encoding="utf-8"?>
<!-- Generator: Adobe Illustrator 24.2.3, SVG Export Plug-In . SVG Version: 6.00 Build 0)  -->
<svg version="1.1" id="Layer_1" xmlns="http://www.w3.org/2000/svg" xmlns:xlink="http://www.w3.org/1999/xlink" x="0px" y="0px"
	 viewBox="0 0 1920 1080" style="enable-background:new 0 0 1920 1080;" xml:space="preserve">
<style type="text/css">
	.st0{fill:url(#Rectangle_1180_1_);}
	.st1{fill:#B9EDFF;}
	.st2{fill:#007EC3;}
	.st3{opacity:0.1;fill:#171733;enable-background:new    ;}
	.st4{fill:#171733;}
	.st5{fill:#FF6200;}
	.st6{fill:#4E83B0;}
	.st7{fill:#EDF9FD;}
	.st8{fill:#1B4E61;}
	.st9{fill:#9E321E;}
	.st10{fill:#236780;}
	.st11{fill:#184657;}
	.st12{fill:#232E42;}
	.st13{fill:#FBF9E3;}
	.st14{opacity:0.46;fill:#CBC7FF;}
	.st15{opacity:0.3;fill:#3D6ACC;enable-background:new    ;}
	.st16{fill:#CBC7FF;}
	.st17{opacity:0.29;fill:#035E80;enable-background:new    ;}
	.st18{fill:#FDCE70;}
	.st19{opacity:0.68;fill:#FFFFFF;enable-background:new    ;}
	.st20{fill:#B15B4B;}
	.st21{opacity:0.24;fill:#FCC557;enable-background:new    ;}
	.st22{opacity:0.7;fill:#CBC7FF;enable-background:new    ;}
	.st23{fill:url(#SVGID_1_);}
	.st24{opacity:0.26;fill:#05C5DB;enable-background:new    ;}
</style>
<linearGradient id="Rectangle_1180_1_" gradientUnits="userSpaceOnUse" x1="-0.799" y1="539.2322" x2="1919.201" y2="539.2322">
	<stop  offset="8.465609e-02" style="stop-color:#004A6E"/>
	<stop  offset="0.93" style="stop-color:#004A6E"/>
</linearGradient>
<rect id="Rectangle_1180_11_" x="-0.8" y="-0.8" class="st0" width="1920" height="1080"/>
<g>
	<circle class="st1" cx="765.7" cy="757.1" r="545.8"/>
	<g>
		<g id="Monitor_5_">
			<rect x="1121.1" y="536.2" class="st2" width="129.5" height="518.2"/>
			<rect x="1121.1" y="536.2" class="st3" width="129.5" height="354.9"/>
			<path class="st2" d="M1703.3,862.2h-1035c-8.7,0-15.9-7.2-15.9-15.9V151.9c0-8.7,7.2-15.9,15.9-15.9h1035
				c8.7,0,15.9,7.2,15.9,15.9v694.4C1719.1,855,1712.1,862.2,1703.3,862.2z"/>
			<rect x="664" y="146.1" class="st4" width="1043.6" height="674.3"/>
			<rect x="664" y="146.1" class="st1" width="269.6" height="674.3"/>
			<path class="st2" d="M1426.1,1079.6H945.6l0,0c0-13.9,11.3-25.2,25.2-25.2h430C1414.8,1054.4,1426.1,1065.7,1426.1,1079.6
				L1426.1,1079.6z"/>
		</g>
		<g>
			<path class="st1" d="M1143.4,226.5H979c-6.1,0-11.2-5-11.2-11.2l0,0c0-6.1,5-11.2,11.2-11.2h164.4c6.1,0,11.2,5,11.2,11.2l0,0
				C1154.6,221.5,1149.5,226.5,1143.4,226.5z"/>
			<path class="st5" d="M1143.4,265.4H979c-6.1,0-11.2-5-11.2-11.2l0,0c0-6.1,5-11.2,11.2-11.2h164.4c6.1,0,11.2,5,11.2,11.2l0,0
				C1154.6,260.4,1149.5,265.4,1143.4,265.4z"/>
			<path class="st1" d="M1064.9,304.3h-86c-6.1,0-11.2-5-11.2-11.2l0,0c0-6.1,5-11.2,11.2-11.2h86c6.1,0,11.2,5,11.2,11.2l0,0
				C1076.1,299.3,1071,304.3,1064.9,304.3z"/>
			<path class="st1" d="M1274.9,304.3h-168.3c-6.1,0-11.2-5-11.2-11.2l0,0c0-6.1,5-11.2,11.2-11.2h168.3c6.1,0,11.2,5,11.2,11.2l0,0
				C1286.1,299.3,1281.1,304.3,1274.9,304.3z"/>
			<path class="st1" d="M1352.8,265.4h-164.4c-6.1,0-11.2-5-11.2-11.2l0,0c0-6.1,5-11.2,11.2-11.2h164.4c6.1,0,11.2,5,11.2,11.2l0,0
				C1364,260.4,1358.9,265.4,1352.8,265.4z"/>
			<path class="st1" d="M1219.6,707.1h-164.4c-6.1,0-11.2-5-11.2-11.2l0,0c0-6.1,5-11.2,11.2-11.2h164.4c6.1,0,11.2,5,11.2,11.2l0,0
				C1230.8,702.1,1225.7,707.1,1219.6,707.1z"/>
			<path class="st1" d="M1219.6,746h-164.4c-6.1,0-11.2-5-11.2-11.2l0,0c0-6.1,5-11.2,11.2-11.2h164.4c6.1,0,11.2,5,11.2,11.2l0,0
				C1230.8,741,1225.7,746,1219.6,746z"/>
			<path class="st1" d="M1141.1,784.9h-86c-6.1,0-11.2-5-11.2-11.2l0,0c0-6.1,5-11.2,11.2-11.2h86c6.1,0,11.2,5,11.2,11.2l0,0
				C1152.2,779.9,1147.2,784.9,1141.1,784.9z"/>
			<path class="st1" d="M1351.1,784.9h-168.3c-6.1,0-11.2-5-11.2-11.2l0,0c0-6.1,5-11.2,11.2-11.2h168.3c6.1,0,11.2,5,11.2,11.2l0,0
				C1362.3,779.9,1357.3,784.9,1351.1,784.9z"/>
			<path class="st1" d="M1429,746h-164.4c-6.1,0-11.2-5-11.2-11.2l0,0c0-6.1,5-11.2,11.2-11.2H1429c6.1,0,11.2,5,11.2,11.2l0,0
				C1440.1,741,1435.1,746,1429,746z"/>
			<path class="st1" d="M1213.6,479.3h-164.4c-6.1,0-11.2-5-11.2-11.2l0,0c0-6.1,5-11.2,11.2-11.2h164.4c6.1,0,11.2,5,11.2,11.2l0,0
				C1224.7,474.3,1219.7,479.3,1213.6,479.3z"/>
			<path class="st1" d="M1213.6,518.2h-164.4c-6.1,0-11.2-5-11.2-11.2l0,0c0-6.1,5-11.2,11.2-11.2h164.4c6.1,0,11.2,5,11.2,11.2l0,0
				C1224.7,513.2,1219.7,518.2,1213.6,518.2z"/>
			<path class="st1" d="M1423,518.2h-164.4c-6.1,0-11.2-5-11.2-11.2l0,0c0-6.1,5-11.2,11.2-11.2H1423c6.1,0,11.2,5,11.2,11.2l0,0
				C1434.2,513.2,1429.2,518.2,1423,518.2z"/>
			<path class="st1" d="M1213.6,357.9h-164.4c-6.1,0-11.2-5-11.2-11.2l0,0c0-6.1,5-11.2,11.2-11.2h164.4c6.1,0,11.2,5,11.2,11.2l0,0
				C1224.7,352.8,1219.7,357.9,1213.6,357.9z"/>
			<path class="st5" d="M1441.3,436.2h-262.5c-6.1,0-11.2-5-11.2-11.2l0,0c0-6.1,5-11.2,11.2-11.2h262.5c6.1,0,11.2,5,11.2,11.2l0,0
				C1452.5,431.1,1447.5,436.2,1441.3,436.2z"/>
			<path class="st1" d="M1135.1,396.8h-86c-6.1,0-11.2-5-11.2-11.2l0,0c0-6.1,5-11.2,11.2-11.2h86c6.1,0,11.2,5,11.2,11.2l0,0
				C1146.3,391.8,1141.3,396.8,1135.1,396.8z"/>
			<path class="st1" d="M1135.1,436.2h-86c-6.1,0-11.2-5-11.2-11.2l0,0c0-6.1,5-11.2,11.2-11.2h86c6.1,0,11.2,5,11.2,11.2l0,0
				C1146.3,431.1,1141.3,436.2,1135.1,436.2z"/>
			<path class="st5" d="M1139.9,619.1H975.5c-6.1,0-11.2-5-11.2-11.2l0,0c0-6.1,5-11.2,11.2-11.2h164.4c6.1,0,11.2,5,11.2,11.2l0,0
				C1151.1,614.1,1146,619.1,1139.9,619.1z"/>
			<path class="st1" d="M1216,658h-164.4c-6.1,0-11.2-5-11.2-11.2l0,0c0-6.1,5-11.2,11.2-11.2H1216c6.1,0,11.2,5,11.2,11.2l0,0
				C1227.2,653,1222.2,658,1216,658z"/>
			<path class="st1" d="M1425.5,658h-164.4c-6.1,0-11.2-5-11.2-11.2l0,0c0-6.1,5-11.2,11.2-11.2h164.4c6.1,0,11.2,5,11.2,11.2l0,0
				C1436.7,653,1431.7,658,1425.5,658z"/>
			<path class="st5" d="M1367.6,576H1105c-6.1,0-11.2-5-11.2-11.2l0,0c0-6.1,5-11.2,11.2-11.2h262.5c6.1,0,11.2,5,11.2,11.2l0,0
				C1378.8,570.9,1373.8,576,1367.6,576z"/>
			<path class="st1" d="M1061.4,576h-86c-6.1,0-11.2-5-11.2-11.2l0,0c0-6.1,5-11.2,11.2-11.2h86c6.1,0,11.2,5,11.2,11.2l0,0
				C1072.6,570.9,1067.6,576,1061.4,576z"/>
			<path class="st1" d="M1477.7,396.8h-86c-6.1,0-11.2-5-11.2-11.2l0,0c0-6.1,5-11.2,11.2-11.2h86c6.1,0,11.2,5,11.2,11.2l0,0
				C1488.9,391.8,1483.9,396.8,1477.7,396.8z"/>
			<path class="st5" d="M1345.1,396.8h-168.3c-6.1,0-11.2-5-11.2-11.2l0,0c0-6.1,5-11.2,11.2-11.2h168.3c6.1,0,11.2,5,11.2,11.2l0,0
				C1356.3,391.8,1351.2,396.8,1345.1,396.8z"/>
			<path class="st1" d="M1329.6,357.9h-71c-6.1,0-11.2-5-11.2-11.2l0,0c0-6.1,5-11.2,11.2-11.2h71c6.1,0,11.2,5,11.2,11.2l0,0
				C1340.8,352.8,1335.7,357.9,1329.6,357.9z"/>
		</g>
		<rect x="686.8" y="204.1" class="st6" width="36.4" height="32.3"/>
		<rect x="686.8" y="249.3" class="st6" width="36.4" height="32.3"/>
		<rect x="686.8" y="294.5" class="st6" width="36.4" height="32.3"/>
		<rect x="686.8" y="339.7" class="st6" width="36.4" height="32.3"/>
		<rect x="705" y="395.5" class="st6" width="36.4" height="32.3"/>
		<rect x="705" y="440.7" class="st6" width="36.4" height="32.3"/>
		<rect x="705" y="485.9" class="st6" width="36.4" height="32.3"/>
		<path class="st6" d="M860.8,229.3H750.5c-5,0-9.1-4.1-9.1-9.1l0,0c0-5,4.1-9.1,9.1-9.1h110.3c5,0,9.1,4.1,9.1,9.1l0,0
			C869.9,225.2,865.8,229.3,860.8,229.3z"/>
		<path class="st6" d="M860.8,274.5H750.5c-5,0-9.1-4.1-9.1-9.1l0,0c0-5,4.1-9.1,9.1-9.1h110.3c5,0,9.1,4.1,9.1,9.1l0,0
			C869.9,270.4,865.8,274.5,860.8,274.5z"/>
		<path class="st6" d="M860.8,319.7H750.5c-5,0-9.1-4.1-9.1-9.1l0,0c0-5,4.1-9.1,9.1-9.1h110.3c5,0,9.1,4.1,9.1,9.1l0,0
			C869.9,315.6,865.8,319.7,860.8,319.7z"/>
		<path class="st6" d="M860.8,364.9H750.5c-5,0-9.1-4.1-9.1-9.1l0,0c0-5,4.1-9.1,9.1-9.1h110.3c5,0,9.1,4.1,9.1,9.1l0,0
			C869.9,360.9,865.8,364.9,860.8,364.9z"/>
		<path class="st6" d="M885.1,420.7H774.8c-5,0-9.1-4.1-9.1-9.1l0,0c0-5,4.1-9.1,9.1-9.1h110.3c5,0,9.1,4.1,9.1,9.1l0,0
			C894.1,416.6,890.1,420.7,885.1,420.7z"/>
		<path class="st6" d="M885.1,465.9H774.8c-5,0-9.1-4.1-9.1-9.1l0,0c0-5,4.1-9.1,9.1-9.1h110.3c5,0,9.1,4.1,9.1,9.1l0,0
			C894.1,461.8,890.1,465.9,885.1,465.9z"/>
		<path class="st6" d="M885.1,511.1H774.8c-5,0-9.1-4.1-9.1-9.1l0,0c0-5,4.1-9.1,9.1-9.1h110.3c5,0,9.1,4.1,9.1,9.1l0,0
			C894.1,507.1,890.1,511.1,885.1,511.1z"/>
	</g>
	<g>
		<path class="st1" d="M137.6,1235.8c15.2,11.9,23.7,31.2,23.5,52c-0.2,14.5,1.8,29.2,6.2,43.5c20.8,68.2,92.3,104.6,156.8,79.8
			c34.6-13.3,61.3-40.6,76.2-73.7c4.7-10.5,14.2-18,24.8-19.3c4.6-0.6,9.2-1.7,13.8-3.5c30.4-12.1,47.2-48,37.5-80.3v-0.1
			c-0.8-2.6,0.6-5.4,3.1-6.4c0.2-0.1,0.3-0.1,0.5-0.2c21.6-8.5,33.5-34.1,26.7-57c0-0.1-0.1-0.2-0.1-0.3c-2.3-7.8-0.3-16.5,5.5-22.3
			c30.6-31.2,44.2-79.1,31-123.3c-7.4-24.9-22.2-44.9-41-57.9c-19.2-13.4-27.6-39.4-20.4-63.9c8.3-27.8,9-58.2,0.3-87.2
			c-13.6-45.8-47.3-77.6-87.5-88.6c-23.3-6.4-38.5-29.9-36.9-56.3c0.7-11.9-0.6-24.2-4.1-36c-14.7-49.1-66.4-76.1-112.9-58.9
			c-49.6,18.3-77.3,76.4-61.9,128.4c0.1,0.3,0.1,0.4,0.2,0.6c1.8,6-1.2,12.7-6.8,14.8l-0.1,0.1c-38.2,15.2-59.5,60.5-47.3,101.1
			c1.9,6.4,4.9,12.7,8.4,18.4c7.3,12.2,5,28.6-5.2,39.2c-17.5,18.3-25.2,46-17.6,71.7c1,3.5,2.3,6.8,3.8,9.9
			c6.3,13.1,5.2,29.2-2.5,42.2c-14.7,24.9-19.5,55.9-10.9,85c3.2,10.7,8,20.4,14,28.7c7.2,9.9,8.3,23.6,3.4,35.6
			c-6.5,15.7-7.9,33.7-2.8,50.8C119.5,1216.5,127.4,1227.9,137.6,1235.8z"/>
		<path class="st7" d="M162.1,1213.9c13,11.6,19.7,29.1,18.1,47.5c-1,12.9-0.2,26,2.9,38.9c14.7,61.7,77.5,98.6,137.7,80.7
			c32.3-9.5,58.3-32,74-60.4c5-9,14-15,23.7-15.5c4.2-0.2,8.5-0.9,12.8-2.2c28.4-8.7,45.9-39.4,39.2-68.7v-0.1
			c-0.5-2.3,0.9-4.8,3.2-5.4c0.2-0.1,0.3-0.1,0.4-0.2c20.2-6.2,32.6-28,27.9-48.8c0-0.1,0-0.2-0.1-0.2c-1.6-7,0.9-14.6,6.4-19.3
			c29.9-25.6,45.1-67.2,35.9-107.3c-5.2-22.6-17.4-41.2-33.7-53.9c-16.7-13.1-22.7-36.7-14.5-57.9c9.2-24.1,11.8-50.9,5.8-77.2
			c-9.6-41.4-38.2-71.7-74-84.1c-20.8-7.2-33.1-28.9-30.1-52.2c1.4-10.5,0.9-21.4-1.6-32.1c-10.3-44.4-55.7-71.6-99.1-59.4
			c-46.3,13-75.2,62.7-64.3,109.8c0.1,0.2,0.1,0.4,0.2,0.6c1.3,5.4-1.9,11.1-7.2,12.8h-0.1c-35.7,11-57.9,49.7-49.4,86.6
			c1.3,5.8,3.7,11.5,6.5,16.8c6,11.2,2.8,25.6-7.2,34.3c-17.1,15-25.8,39.2-20.5,62.3c0.7,3.1,1.6,6.1,2.8,9
			c4.9,12,2.8,26.1-4.9,37.2c-14.9,21.1-21.3,48.2-15.2,74.6c2.2,9.8,6,18.6,11,26.3c5.9,9.2,6.1,21.4,0.9,31.8
			c-6.8,13.5-9.2,29.3-5.7,44.8C146.9,1195.6,153.4,1206.2,162.1,1213.9z"/>
	</g>
	<g>
		<g>
			<polygon class="st8" points="723,1069 715.8,1065.4 716.3,1081 723.2,1081.1 			"/>
			<path class="st9" d="M750.6,1049.4c-6.9-14.3,5.1-43.9,19.2-109.4c-14.1-1.9-33.3-8.8-48.2-4.8c-4.1,38.1-0.2,61.9-5.4,88.8
				c-2.8,14.4-7.2,30.8-6.9,39.6c10.4,3.4,21.1,1.2,33.2,9.6c12.3,8.5,28,8,33.5,6.7c3.8-0.9,6-2.3,6.8-3.2
				C780.8,1072.3,758.5,1065.8,750.6,1049.4z"/>
			<path class="st10" d="M780.5,1079.9c-4.8,2.2-20.5,4.4-30.8-0.7c-10.2-5.1-25.2-8.5-33.6-11.6c-0.3,3.5,0.3,8,0.3,13.8
				c-3.4-0.9-7-0.2-7-0.2s0.2-8.6-0.2-17.6c10.4,3.4,19.9,0.7,33.7,8.3c13.2,7.2,27.5,9.3,33,8c3.8-0.9,6-2.3,6.8-3.2
				C783.1,1078,782.5,1079,780.5,1079.9z"/>
			<path class="st11" d="M775.8,1080c3.8-0.9,6-2.3,6.8-3.2c-1.1-2.7-9.1-6.7-18.9-12.9c-9.4,5.7-17.8,2.5-17.8,2.5
				c-12.3-6.5-25.5-13.1-36.4-14.6c-1.3,3.8-0.5,9.5-0.4,11.8c10.4,3.4,28.1,8,33.1,10.3C757.3,1080.6,770.4,1081.3,775.8,1080z"/>
		</g>
		<g>
			<polygon class="st8" points="356.5,1037.9 357.2,1030.7 342.2,1029.4 344.5,1036.7 			"/>
			<path class="st9" d="M358.2,1065.1c6.4-0.9,65.2,5.3,129.7,13c-1.6-15.4-0.2-38.3-2.5-53.6c-32.8-1.6-68.9,6.6-94.4,4.7
				c-12.5-0.9-23.6-4.4-31.5-5c-4.6,10-9.6,16.7-21.4,25.5c-12.1,9-15.3,18.6-15.7,24.2c-0.3,3.9,0.3,6.4,0.9,7.5
				C328.1,1081.1,340.2,1067.7,358.2,1065.1z"/>
			<path class="st10" d="M321,1078.4c-0.5-5.3,1.1-15.4,9.1-23.6c8-8.1,20.6-16.1,24.7-24.1c-3.5-0.6-7-0.6-12.7-1.4
				c1.2-3.3,3.4-6.3,3.4-6.3s5.2,0.4,14.1,1.1c-4.6,10-9.6,16.7-21.4,25.5c-12.1,9-15.3,18.6-15.7,24.2c-0.3,3.9,0.3,6.4,0.9,7.5
				C322,1081.5,321.3,1080.6,321,1078.4z"/>
			<path class="st11" d="M322.5,1073.9c-0.3,3.9,0.3,6.4,0.9,7.5c2.9-0.2,8.5-5.2,16.5-9.6c-2.4-10.8,3.7-16.4,3.7-16.4
				c9.9-5.3,21-19.8,23.7-30.5c-2.8-0.2-5.4-0.4-7.6-0.6c-4.6,10-9.6,16.7-21.4,25.5C326.2,1058.8,323,1068.3,322.5,1073.9z"/>
		</g>
		<path class="st12" d="M523.4,880.8L724,821.2l-24.3,178.9l56.3,5.1c0,0,72.8-198.1,25.5-258.2c-48.7-61.8-237.8,3.8-237.8,3.8
			L445.5,683l3.8,143.2L523.4,880.8z"/>
		<path class="st4" d="M444.1,681.8c-35.8,43.5-97.2,172.5-69,239c29.5,69.7,244.1,84.4,244.1,84.4l-176.4,17.9l-2.6,55
			c0,0,126.5,3.8,177.7,3.8c51.1,0,116.3-42.2,80.5-109.9S486.6,837.3,486.6,837.3l96.7-101.8L444.1,681.8z"/>
		<polygon class="st13" points="645.4,594.9 729.1,572.7 738.1,603.9 645.4,643.3 		"/>
		<g>
			<path class="st5" d="M1251.5,513.1c0,147.7-119.8,267.5-267.5,267.5S716.4,660.8,716.4,513.1S836.2,245.6,984,245.6
				S1251.5,365.3,1251.5,513.1z M984,285.4c-125.7,0-227.7,101.9-227.7,227.7S858.2,740.8,984,740.8s227.7-101.9,227.7-227.7
				C1211.6,387.4,1109.7,285.4,984,285.4z"/>
			<path class="st14" d="M984,285.4c-125.7,0-227.7,101.9-227.7,227.7S858.2,740.8,984,740.8s227.7-101.9,227.7-227.7
				C1211.6,387.4,1109.7,285.4,984,285.4z"/>
			<g>
				<path class="st2" d="M497.7,987.7c-28.4,25.7-72.1-23.4-44.1-48.8l312-275.7c13-1,36.7,22.3,37.5,41.5L497.7,987.7z"/>
				<path class="st15" d="M785.6,673.2L484.9,939c-17.3,15.7-7.2,40.6,9.8,51c1-0.7,2-1.5,2.9-2.3l305.4-282.9
					C802.6,693.8,794.7,681.5,785.6,673.2z"/>
				<path class="st16" d="M803.1,704.7c-0.9-19.2-24.6-42.5-37.5-41.5l-18.5,16.3c7.5-0.8,19.3-1.1,27.5,2.7
					c14,6.3,20.7,17.3,20.7,29.7L803.1,704.7z"/>
			</g>
			<path class="st17" d="M968.2,310.5c125.7,0,227.7,101.9,227.7,227.7c0,39.2-9.9,76.1-27.4,108.3c30.5-38.7,48.7-87.6,48.7-140.8
				c0-125.7-101.9-227.7-227.7-227.7c-86.6,0-161.8,48.2-200.3,119.4C830.9,344.6,895.5,310.5,968.2,310.5z"/>
			<path class="st18" d="M1260.5,496.5c0,147.7-119.8,267.5-267.5,267.5S725.4,644.3,725.4,496.5S845.2,229,992.9,229
				S1260.5,348.8,1260.5,496.5z M992.8,268.9c-125.7,0-227.7,101.9-227.7,227.7s101.9,227.7,227.7,227.7s227.7-101.9,227.7-227.7
				C1220.5,370.8,1118.6,268.9,992.8,268.9z"/>
			<path class="st5" d="M1263,493.3c0,147.7-119.8,267.5-267.5,267.5S727.9,641.1,727.9,493.3s119.8-267.5,267.5-267.5
				S1263,345.6,1263,493.3z M995.4,265.7c-125.7,0-227.7,101.9-227.7,227.7S869.7,721,995.4,721s227.7-101.9,227.7-227.7
				C1223.1,367.6,1121.2,265.7,995.4,265.7z"/>
			<path class="st19" d="M1034.4,349.3c38.7,6.1,92.3,49.9,114.2,95.1L1034.4,349.3z"/>
		</g>
		<g>
			<path class="st20" d="M738.4,467l2.6,16.5c0.2,1.2-0.9,2.2-2.1,2.1l-8.6-1.3L738.4,467z"/>
			<path class="st9" d="M750.8,418.7c6.7,10.3,0,31.2-8.3,44.1c-8.3,12.9-22.1,54.6-43.1,52c-15.4-1.8-28-8.3-28-8.3l-37.1,49.7
				L583,525.2l91.1-92.1L750.8,418.7z"/>
			<path class="st4" d="M737.8,458.2c1.1-0.2,2.3-0.3,3.5-0.3c0.6,0,1.2,0,1.8,0.1c0.6,0.1,1.2,0.1,1.9,0.3c0.5,0.2,0.8,0.7,0.7,1.2
				c-0.2,0.5-0.7,0.8-1.2,0.7c-0.1,0-0.2-0.1-0.3-0.2c-0.3-0.3-0.9-0.4-1.4-0.7c-0.5-0.2-1-0.3-1.6-0.5
				C740.1,458.6,739,458.4,737.8,458.2z"/>
			<path class="st21" d="M727.6,481.5c-0.6,5.5-5.6,9.5-11.1,8.9c-5.5-0.6-9.5-5.6-8.9-11.1c0.6-5.5,5.6-9.5,11.1-8.9
				C724.3,471,728.3,476,727.6,481.5z"/>
		</g>
		<path class="st13" d="M499.8,561.1c-21.4,32.7-62,128.4-62,128.4s19.2,13.5,51.8,26.8c31.4,12.9,73.5,10.9,73.5,10.9l49.2-105.1
			L499.8,561.1z"/>
		<path class="st4" d="M666.2,360.9c40.4-18.5,62.5,24.6,76.3,27.9c28.2,6.7,16.7,51.5-16.7,64c-25.8,9.7-33.2,63-69.5,41.7
			c-22.5-13.2-32.2,21.9-69.5-2c-23-14.8-40.6,29.4-81,13c-40.7-16.5-65.2-26.1-88.5-4.1c-23.7,22.3-55.1,42.9-94.1,29.8
			c-38.8-13.1-46.9-43.3-44.4-57.6c6.7-40.5,46.7-39.8,52-63.5c6.6-29.8,41.7-51.2,79.1-39.8c37.4,11.4,60.2,24.8,78.5,10.3
			c18.3-14.4,36.8-30.3,72-18.7C595.5,373.2,622.4,381.1,666.2,360.9z"/>
		<path class="st9" d="M740.5,754.6c5.4-0.4,4.4-5.9,4.4-5.9c-3.5,1.6-16.5,1.6-23.6,4.3c-7.6-1.9-16.3-4.1-25.4-6.9
			c0.7,10.7-3.9,23-8.4,32.2c15,0.4,27,1.1,34.3,3.3c21.5,6.2,22.2-20,22.2-20c-2-1.9-5.5-3.5-10.2-5
			C736,755.7,738.4,754.8,740.5,754.6z"/>
		<path class="st22" d="M570,727.9l28.1-118.2l-75.4,115.6c0,0,16,5.1,26.8,5.1C560.4,730.4,570,727.9,570,727.9z"/>
		<path class="st13" d="M687.5,778.3c-38.5-1.2-92.4-3.1-114.7-20.2c-31-23.7,20.3-139.2,20.3-139.2l-93.4-57.8
			c0,0,53.6-56.3,93.2-42.2c43.8,15.5,52,28.4,60.3,67c8.4,38.6-33.5,139.5-33.5,139.5s40.8,9.8,75.9,20.9
			C696.6,756.9,691.9,769.1,687.5,778.3z"/>
	</g>
	<g>
		
			<linearGradient id="SVGID_1_" gradientUnits="userSpaceOnUse" x1="1354.7188" y1="1309.8085" x2="1354.7188" y2="1886.126" gradientTransform="matrix(1 0 0 1 0 -614)">
			<stop  offset="0" style="stop-color:#56BFF0"/>
			<stop  offset="0.5624" style="stop-color:#6E98FF"/>
			<stop  offset="1" style="stop-color:#8566FF"/>
		</linearGradient>
		<path class="st23" d="M1495.5,1125.1c3.5-11.6,2.5-23.8-1.9-34.6c-3.4-8.2-2.6-17.4,2.2-24.3c4.1-5.7,7.3-12.3,9.5-19.5
			c5.9-19.8,2.6-40.8-7.4-57.7c-5.3-8.8-6-19.8-1.7-28.7c1-2.1,1.9-4.4,2.6-6.7c5.3-17.4,0-36.2-12-48.7c-6.9-7.2-8.5-18.3-3.5-26.6
			c2.4-3.9,4.4-8.2,5.7-12.4c8.3-27.6-6.2-58.4-32.2-68.8h-0.1c-3.8-1.6-5.9-6-4.7-10.1c0-0.2,0.1-0.3,0.1-0.5
			c10.5-35.4-8.4-74.8-42-87.2c-31.6-11.7-66.8,6.6-76.7,40c-2.4,8.1-3.4,16.3-2.8,24.5c1,18-9.2,33.9-25,38.2
			c-27.3,7.5-50.1,29.2-59.5,60.2c-5.9,19.8-5.4,40.4,0.2,59.3c4.9,16.7-0.8,34.3-13.9,43.4c-12.7,8.8-22.8,22.4-27.8,39.4
			c-8.9,30.1,0.3,62.7,21.1,83.9c3.9,4,5.4,9.8,3.7,15.1c0,0.1,0,0.1,0,0.2c-4.7,15.5,3.5,33,18.1,38.7c0.1,0,0.2,0.1,0.3,0.1
			c1.7,0.7,2.7,2.6,2.1,4.4l0,0c-6.6,21.9,4.9,46.3,25.5,54.5c3.1,1.2,6.3,2,9.4,2.4c7.2,0.9,13.5,6,16.8,13.1
			c10.2,22.5,28.3,41,51.8,50.1c43.8,16.8,92.5-7.9,106.6-54.2c2.9-9.7,4.3-19.7,4.1-29.5c-0.2-14.2,5.6-27.2,16-35.3
			C1487.4,1142.3,1492.7,1134.6,1495.5,1125.1z"/>
		<path class="st24" d="M1476.1,1111.8c2.5-10.5,0.8-21.2-3.9-30.5c-3.5-7-3.5-15.3,0.6-21.6c3.4-5.4,5.9-11.3,7.4-17.9
			c4.1-18-0.2-36.3-10.4-50.7c-5.4-7.5-6.6-17.1-3.4-25.3c0.8-1.9,1.5-4,1.9-6c3.6-15.8-2.2-32.1-14-42.4
			c-6.7-5.9-8.9-15.7-4.8-23.4c1.9-3.6,3.5-7.5,4.5-11.4c5.8-24.9-9.3-51.3-33.5-58.8h-0.1c-3.6-1.1-5.8-4.9-4.8-8.6
			c0-0.1,0.1-0.3,0.1-0.3c7.4-32-12.3-65.7-43.7-74.6c-29.5-8.4-60.3,10.2-67.3,40.4c-1.7,7.3-2,14.8-1,21.8
			c2.1,15.8-6.3,30.5-20.5,35.4c-24.4,8.4-43.8,29-50.3,57.1c-4.1,17.9-2.4,36.1,3.9,52.5c5.5,14.4,1.5,30.5-9.8,39.4
			c-11.1,8.6-19.3,21.2-22.9,36.7c-6.3,27.2,4.1,55.5,24.4,72.8c3.8,3.2,5.5,8.4,4.4,13.2v0.1c-3.2,14.1,5.3,29,18.9,33.1
			c0.1,0,0.2,0.1,0.3,0.1c1.6,0.5,2.6,2.1,2.2,3.7l0,0c-4.6,19.8,7.3,40.7,26.7,46.6c2.9,0.9,5.8,1.5,8.7,1.6
			c6.6,0.3,12.7,4.4,16.1,10.5c10.6,19.2,28.3,34.6,50.2,41c40.9,12.1,83.6-12.9,93.6-54.9c2.1-8.8,2.7-17.8,2-26.4
			c-1-12.5,3.5-24.4,12.3-32.3C1469.7,1127.5,1474.1,1120.5,1476.1,1111.8z"/>
	</g>
</g>
</svg>
