<?xml version="1.0" encoding="utf-8"?>
<!-- Generator: Adobe Illustrator 24.2.3, SVG Export Plug-In . SVG Version: 6.00 Build 0)  -->
<svg version="1.1" id="Layer_1" xmlns="http://www.w3.org/2000/svg" xmlns:xlink="http://www.w3.org/1999/xlink" x="0px" y="0px"
	 viewBox="0 0 1920 1080" style="enable-background:new 0 0 1920 1080;" xml:space="preserve">
<style type="text/css">
	.st0{fill:#9FD4E0;}
	.st1{fill:#B9EDFF;}
	.st2{fill:#007EC3;}
	.st3{fill:#EDF9FD;}
	.st4{fill:#9AB2E4;}
	.st5{opacity:0.3;fill:#3D6ACC;}
	.st6{fill:#A7A7B1;}
	.st7{fill:#0C252E;}
	.st8{fill:#171733;}
	.st9{fill:#FFFFFF;}
	.st10{fill:#292969;}
	.st11{fill:#004A6E;}
	.st12{fill:#23C6FD;}
	.st13{fill:#F5CFBF;}
	.st14{fill:#AFEBF2;}
	.st15{fill:#FF6200;}
	.st16{fill:#05C5DB;}
	.st17{fill:#E6F2FF;}
	.st18{fill:#41B093;}
	.st19{fill:#E3F5FF;}
	.st20{fill:#6CC3F1;}
	.st21{fill:#5F48DC;}
	.st22{fill:#9F91EA;}
	.st23{fill:#7763E1;}
	.st24{fill:#93E6F0;}
	.st25{fill:#339EDB;}
	.st26{fill:#6898FD;}
	.st27{fill:#EC81B8;}
	.st28{fill:#F29D9D;}
	.st29{fill:#BD422A;}
	.st30{fill:url(#SVGID_1_);}
	.st31{fill:#C3B9DD;}
	.st32{fill:#3A3A75;}
	.st33{fill:#CCCCCC;}
	.st34{fill:#414179;}
	.st35{opacity:0.3;fill:#5F48DC;}
	.st36{fill:#FCDFD6;}
	.st37{fill:url(#SVGID_2_);}
	.st38{fill:#F6B8B8;}
	.st39{fill:#3D6ACC;}
	.st40{fill:#103FCD;}
	.st41{fill:#E6E5CE;}
	.st42{fill:#4B85FD;}
	.st43{fill:#0D1D7E;}
	.st44{fill:#232E42;}
	.st45{fill:#246AFC;}
	.st46{fill:#FFB993;}
	.st47{fill:url(#SVGID_3_);}
	.st48{fill:#0D232B;}
	.st49{fill:#936037;}
	.st50{fill:#B17F4A;}
	.st51{fill:#FFCB8A;}
	.st52{fill:#7D4E24;}
	.st53{fill:url(#SVGID_4_);}
	.st54{fill:#683C11;}
	.st55{fill:#F6D2C3;}
	.st56{fill-rule:evenodd;clip-rule:evenodd;fill:#339EDB;}
	.st57{fill-rule:evenodd;clip-rule:evenodd;fill:#FF6200;}
	.st58{opacity:9.000000e-02;fill:#134C83;}
	.st59{opacity:0.44;fill:#FFFFFF;}
</style>
<g>
	<path class="st0" d="M1763,1024.3h-248c-2.6,0-4.8,2.1-4.8,4.8l0,0c0,2.6,2.1,4.8,4.8,4.8h248c2.6,0,4.8-2.1,4.8-4.8l0,0
		C1767.8,1026.5,1765.6,1024.3,1763,1024.3z"/>
	<path class="st1" d="M546.9,941.6v39.8H356.6v13.4c0,120.2,98.4,218.6,218.6,218.6h724.3c120.2,0,218.6-98.4,218.6-218.6v-53.2
		H546.9z"/>
	<g>
		<path class="st2" d="M1157.1,183.9c-0.4,0-0.7-0.3-0.7-0.7v-47.8c0-0.4,0.3-0.7,0.7-0.7c0.4,0,0.7,0.3,0.7,0.7v47.8
			C1157.8,183.5,1157.5,183.9,1157.1,183.9z"/>
		<path class="st2" d="M1265.2,240.8c-0.1,0-0.2,0-0.3-0.1l-108.1-56.9c-0.3-0.2-0.5-0.6-0.3-1c0.2-0.3,0.6-0.5,1-0.3l108.1,56.9
			c0.3,0.2,0.5,0.6,0.3,1C1265.7,240.6,1265.5,240.8,1265.2,240.8z"/>
		<path class="st2" d="M1049,240.8c-0.3,0-0.5-0.1-0.6-0.4c-0.2-0.3,0-0.8,0.3-1l108.1-56.9c0.3-0.2,0.8,0,1,0.3
			c0.2,0.3,0,0.8-0.3,1l-108.1,56.9C1049.2,240.8,1049.1,240.8,1049,240.8z"/>
		<path class="st2" d="M1157.1,136c-0.3,0-0.6-0.2-0.7-0.5c-0.1-0.4,0.1-0.8,0.5-0.8l374.6-87.3c0.2,0,0.3,0,0.5,0l190.4,87.3
			c0.4,0.2,0.5,0.6,0.3,0.9c-0.2,0.4-0.6,0.5-0.9,0.3l-190.2-87.2L1157.3,136C1157.2,136,1157.2,136,1157.1,136z"/>
		<path class="st2" d="M1496.1,940c-0.6,0-1.3-0.2-1.7-0.7c-1-1-1-2.5,0-3.5l70.2-70.8l-70.2-69.1c-0.5-0.5-0.7-1.1-0.7-1.7
			c0-0.7,0.3-1.3,0.7-1.8l70.2-70.9l-70.2-70.8c-1-1-1-2.5,0-3.5l70.2-69.6l-70.2-70.5c-1-1-1-2.5,0-3.5l70.2-71.2l-70.2-70.2
			c-1-1-1-2.5,0-3.5l70.2-70.9l-70.2-71c-1-1-0.9-2.5,0-3.5c1-1,2.5-0.9,3.5,0l71.9,72.7c1,1,1,2.5,0,3.5l-70.2,70.9l70.2,70.2
			c1,1,1,2.5,0,3.5l-70.2,71.2l70.2,70.5c0.5,0.5,0.7,1.1,0.7,1.8c0,0.7-0.3,1.3-0.7,1.7l-70.2,69.6l70.2,70.8c1,1,1,2.5,0,3.5
			l-70.2,70.9l70.2,69.1c0.5,0.5,0.7,1.1,0.7,1.7c0,0.7-0.3,1.3-0.7,1.8l-72,72.5C1497.4,939.8,1496.8,940,1496.1,940z"/>
		<path class="st2" d="M1573.6,215.7H1491c-1.8,0-3.2-1.4-3.2-3.2V130c0-1.8,1.4-3.2,3.2-3.2h82.5c1.8,0,3.2,1.4,3.2,3.2v82.5
			C1576.8,214.3,1575.3,215.7,1573.6,215.7z"/>
		<path class="st2" d="M1568.1,940h-72c-0.7,0-1.3-0.3-1.7-0.7c-0.5-0.5-0.7-1.1-0.7-1.7l0.4-722.5c0-1.4,1.1-2.5,2.5-2.5h71.5
			c1.4,0,2.5,1.1,2.5,2.5l0,722.5c0,0.7-0.3,1.3-0.7,1.7C1569.4,939.8,1568.7,940,1568.1,940z M1498.6,935.1h67l0-717.6H1499
			L1498.6,935.1z"/>
		<path class="st2" d="M1568.1,940c-0.6,0-1.3-0.2-1.8-0.7l-72-72.5c-0.5-0.5-0.7-1.1-0.7-1.8c0-0.7,0.3-1.3,0.7-1.7l70.2-69.1
			l-70.2-70.9c-1-1-1-2.5,0-3.5l70.2-70.8l-70.2-69.6c-0.5-0.5-0.7-1.1-0.7-1.7c0-0.7,0.3-1.3,0.7-1.8l70.2-70.5l-70.2-71.2
			c-1-1-0.9-2.5,0-3.5l70.2-70.2l-70.2-70.9c-1-1-1-2.5,0-3.5l71.9-72.7c1-1,2.5-1,3.5,0c1,1,1,2.5,0,3.5l-70.2,71l70.2,70.9
			c1,1,1,2.5,0,3.5l-70.2,70.2l70.2,71.2c1,1,0.9,2.5,0,3.5l-70.2,70.5l70.2,69.6c1,1,1,2.5,0,3.5l-70.2,70.8l70.2,70.9
			c0.5,0.5,0.7,1.1,0.7,1.8c0,0.7-0.3,1.3-0.7,1.7l-70.2,69.1l70.2,70.8c1,1,1,2.5,0,3.5C1569.3,939.8,1568.7,940,1568.1,940z"/>
		<path class="st2" d="M1722.1,209.7C1722.1,209.7,1722.1,209.7,1722.1,209.7l-145.4-0.4c-1.4,0-2.5-1.1-2.5-2.5v-71.5
			c0-1.4,1.1-2.5,2.5-2.5l145.4,0c0.7,0,1.3,0.3,1.7,0.7c0.5,0.5,0.7,1.1,0.7,1.7v72c0,0.7-0.3,1.3-0.7,1.7
			C1723.4,209.5,1722.8,209.7,1722.1,209.7z M1579.2,204.4l140.4,0.4v-67l-140.4,0V204.4z"/>
		<path class="st2" d="M1649.5,209.7c-0.6,0-1.3-0.2-1.7-0.7l-72.7-71.9c-1-1-1-2.5,0-3.5c1-1,2.5-1,3.5,0l71,70.2l70.9-70.2
			c1-1,2.5-1,3.5,0c1,1,1,2.5,0,3.5l-72.6,72C1650.8,209.5,1650.1,209.7,1649.5,209.7z"/>
		<path class="st2" d="M1487.8,209.7c-0.2,0-0.4,0-0.5-0.1l-330.7-71.9c-1.2-0.3-2.1-1.4-1.9-2.7c0.1-1.3,1.2-2.2,2.5-2.2l330.7,0
			c0.7,0,1.3,0.3,1.7,0.7c0.5,0.5,0.7,1.1,0.7,1.7v72c0,0.7-0.3,1.5-0.9,1.9C1489,209.5,1488.4,209.7,1487.8,209.7z M1180.1,137.8
			l305.3,66.4v-66.4L1180.1,137.8z"/>
		<path class="st2" d="M1428,196.7c-0.6,0-1.2-0.2-1.7-0.7l-58.6-57.4l-35.8,35.8c-1,1-2.5,1-3.5,0l-34.7-34.7l-21.5,21.5
			c-1,1-2.5,1-3.5,0l-21.5-21.5l-13.1,13.1c-1,1-2.5,1-3.5,0l-13.6-13.6l-8.5,8.5c-1,1-2.5,1-3.5,0l-8.8-8.8l-5.2,5.2
			c-1,1-2.5,1-3.5,0c-1-1-1-2.5,0-3.5l6.9-6.9c0.9-0.9,2.6-0.9,3.5,0l8.8,8.8l8.5-8.5c1-1,2.5-1,3.5,0l13.6,13.6l13.1-13.1
			c1-1,2.5-1,3.5,0l21.5,21.5l21.5-21.5c1-1,2.5-1,3.5,0l34.7,34.7l35.8-35.8c1-1,2.5-1,3.5,0l58.6,57.4l58.1-57.2
			c1-1,2.5-0.9,3.5,0c1,1,0.9,2.5,0,3.5l-59.8,58.9C1429.3,196.5,1428.7,196.7,1428,196.7z"/>
		<rect x="1499.7" y="158.2" class="st2" width="64" height="7.1"/>
		<path class="st2" d="M1496.1,129.3c-0.3,0-0.7-0.1-1-0.2c-1.2-0.6-1.8-2-1.2-3.3l35.6-78.8c0.4-0.9,1.3-1.4,2.2-1.5c0,0,0,0,0,0
			c1,0,1.8,0.6,2.2,1.4l36.3,78.8c0.6,1.2,0,2.7-1.2,3.3c-1.2,0.6-2.7,0-3.3-1.2L1531.8,54l-33.4,73.9
			C1498,128.7,1497.1,129.3,1496.1,129.3z"/>
		<path class="st2" d="M1266.4,294.2H1049v-54.1h217.4V294.2z M1081.7,256.1c-6.1,0-11.1,5-11.1,11.1c0,6.1,5,11.1,11.1,11.1
			c6.1,0,11.1-5,11.1-11.1C1092.8,261,1087.8,256.1,1081.7,256.1z M1131,256.1c-6.1,0-11.1,5-11.1,11.1c0,6.1,5,11.1,11.1,11.1
			c6.1,0,11.1-5,11.1-11.1C1142.1,261,1137.2,256.1,1131,256.1z M1180.4,256.1c-6.1,0-11.1,5-11.1,11.1c0,6.1,4.9,11.1,11.1,11.1
			s11.1-5,11.1-11.1C1191.4,261,1186.5,256.1,1180.4,256.1z M1229.7,256.1c-6.1,0-11.1,5-11.1,11.1c0,6.1,5,11.1,11.1,11.1
			c6.1,0,11.1-5,11.1-11.1C1240.7,261,1235.8,256.1,1229.7,256.1z"/>
	</g>
	<g>
		<path class="st3" d="M521.2,781.7c2.1-11.5-0.7-22.8-7-32.2c-4.8-7.1-5.3-16-1-23.1c3.6-6,6.2-12.7,7.5-19.9
			c3.6-19.6-3.1-38.9-16.3-53.1c-6.9-7.5-9.3-17.6-6-26.7c0.8-2.2,1.4-4.4,1.8-6.8c3.1-17.2-5.2-34.1-20-43.8
			c-8.5-5.6-11.9-15.8-7.7-24.4c2-4,3.6-8.4,4.4-12.7c5-27.3-15.1-53.9-44.8-59.3l-0.1,0c-4.4-0.8-7.3-4.7-6.5-8.7
			c0-0.1,0.1-0.3,0.1-0.4c6.4-35-19.8-69-58.2-75.1c-36-5.7-71.5,17.3-77.6,50.3c-1.5,8-1.2,15.9,0.4,23.5
			c3.7,16.7-5.2,33.4-21.7,40.1c-28.6,11.6-50.3,35.7-55.9,66.5c-3.6,19.5-0.1,38.9,8.7,55.7c7.8,14.8,4.1,32.4-8.8,43.1
			c-12.6,10.5-21.6,24.8-24.6,41.6c-5.4,29.8,9.3,58.9,34.9,75.3c4.8,3.1,7.2,8.4,6.2,13.6c0,0,0,0.1,0,0.1
			c-2.8,15.4,8.5,30.4,25.2,33.4c0.1,0,0.3,0,0.4,0.1c1.9,0.3,3.2,2,2.9,3.7l0,0c-3.9,21.7,12,42.8,35.5,47.1
			c3.6,0.6,7.1,0.9,10.6,0.7c7.9-0.4,15.6,3.4,20.2,9.5c14.3,19.5,36.6,33.9,63.4,38.5c50,8.5,99.2-22.8,107.9-68.7
			c1.8-9.6,1.9-19.2,0.3-28.5c-2.2-13.3,2.2-26.5,12.3-35.8C514.8,799.3,519.5,791.1,521.2,781.7z"/>
		<path class="st1" d="M560.9,782.7c1.1-10.3-2.2-20.1-8.6-28c-4.9-6-5.9-13.8-2.5-20.4c2.9-5.5,4.8-11.6,5.5-18
			c1.9-17.5-5.4-34.1-18.5-45.9c-6.8-6.2-9.7-15-7.3-23.2c0.6-2,1-4,1.2-6.1c1.7-15.4-7.1-29.8-21.2-37.5
			c-8.2-4.5-11.9-13.3-8.6-21.1c1.5-3.7,2.7-7.6,3.2-11.5c2.7-24.5-17.4-46.7-44.9-49.7l-0.1,0c-4-0.4-7-3.7-6.5-7.3
			c0-0.1,0-0.3,0-0.4c3.4-31.3-22.7-59.8-58.2-62.9c-33.3-2.9-64.1,19.5-67.3,49.1c-0.8,7.1,0,14.1,2,20.7
			c4.5,14.5-2.4,29.8-17.1,36.7c-25.3,11.9-43.4,34.5-46.5,62.1c-1.9,17.5,2.6,34.3,11.8,48.7c8.1,12.6,6,28.4-5.1,38.6
			c-10.8,10-18,23.2-19.6,38.2c-2.9,26.6,12.5,51.5,37,64.5c4.6,2.4,7.2,7,6.6,11.6c0,0,0,0.1,0,0.1c-1.5,13.8,9.8,26.3,25.3,28
			c0.1,0,0.2,0,0.4,0c1.8,0.2,3.1,1.6,2.9,3.1l0,0c-2.1,19.4,13.8,37.1,35.6,39.5c3.3,0.4,6.5,0.3,9.7,0c7.2-0.8,14.5,2,19,7.2
			c14.3,16.3,35.7,27.8,60.5,30.2c46.2,4.6,89-26,93.8-67.1c1-8.6,0.4-17.1-1.6-25.2c-2.9-11.6,0.2-23.5,8.7-32.4
			C556.3,798.6,560,791.1,560.9,782.7z"/>
	</g>
	<path class="st1" d="M1474,793.2c2.1-9-0.3-17.9-6-25.2c-4.3-5.5-4.7-12.5-0.6-18.1c3.4-4.8,5.9-10,7.2-15.7
		c3.6-15.4-2.3-30.5-14.3-41.5c-6.3-5.8-8.4-13.7-5.1-20.9c0.8-1.7,1.4-3.5,1.8-5.3c3.1-13.6-4.4-26.7-17.8-34.2
		c-7.8-4.3-10.8-12.3-6.7-19.1c1.9-3.2,3.5-6.6,4.2-10c5-21.5-13.2-42.1-40.5-46.1l-0.1,0c-4-0.6-6.6-3.6-5.9-6.8
		c0-0.1,0.1-0.2,0.1-0.3c6.4-27.6-17.3-53.9-52.6-58.3c-33.2-4.1-66.3,14.4-72.3,40.4c-1.5,6.3-1.4,12.5,0.1,18.4
		c3.2,13-5.2,26.3-20.6,31.7c-26.5,9.4-46.9,28.6-52.5,52.8c-3.6,15.4-0.6,30.5,7.3,43.6c7,11.6,3.4,25.4-8.7,34
		c-11.8,8.4-20.2,19.7-23.3,32.9c-5.4,23.4,7.7,46.1,31.2,58.8c4.4,2.4,6.6,6.5,5.6,10.6c0,0,0,0.1,0,0.1
		c-2.8,12.1,7.4,23.8,22.8,26c0.1,0,0.2,0,0.4,0c1.8,0.2,2.9,1.5,2.6,2.9l0,0c-3.9,17.1,10.5,33.5,32.2,36.6
		c3.3,0.5,6.5,0.6,9.7,0.4c7.3-0.4,14.4,2.5,18.5,7.3c12.9,15.1,33.3,26.2,58,29.5c46,6.2,91.9-19,100.6-55.1
		c1.8-7.6,2-15.1,0.7-22.4c-1.9-10.4,2.4-20.8,11.8-28.3C1467.8,807,1472.3,800.6,1474,793.2z"/>
	<path class="st1" d="M1493.2,813.3c1.1-7.6-1.5-14.9-6.6-20.7c-3.9-4.4-4.6-10.2-1.7-15.1c2.4-4.1,4.1-8.7,4.7-13.5
		c1.8-13-3.9-25.3-14.4-33.9c-5.5-4.5-7.7-11-5.6-17.1c0.5-1.5,0.9-3,1.1-4.5c1.6-11.5-5.4-22.1-16.7-27.6
		c-6.6-3.2-9.5-9.7-6.7-15.6c1.3-2.8,2.3-5.7,2.7-8.5c2.5-18.2-13.5-34.5-35.8-36.4l-0.1,0c-3.3-0.3-5.6-2.7-5.2-5.4
		c0-0.1,0-0.2,0-0.3c3.2-23.3-17.6-44.1-46.4-46c-27-1.8-52.3,15.3-55.4,37.2c-0.7,5.3-0.2,10.5,1.3,15.3
		c3.5,10.7-2.4,22.2-14.4,27.5c-20.7,9.1-35.8,26.1-38.6,46.6c-1.8,13,1.6,25.5,8.9,36c6.4,9.3,4.4,21-4.7,28.7
		c-8.9,7.5-14.9,17.4-16.5,28.6c-2.7,19.8,9.4,38.1,29.1,47.4c3.7,1.8,5.7,5.1,5.2,8.6c0,0,0,0.1,0,0.1
		c-1.4,10.2,7.6,19.4,20.2,20.5c0.1,0,0.2,0,0.3,0c1.4,0.1,2.5,1.1,2.3,2.3l0,0c-2,14.4,10.7,27.4,28.4,28.9
		c2.7,0.2,5.3,0.2,7.9-0.1c5.9-0.7,11.7,1.3,15.4,5.1c11.4,12,28.6,20.2,48.7,21.7c37.5,2.9,72.7-20.4,77.2-50.9
		c0.9-6.4,0.6-12.7-1-18.7c-2.2-8.6,0.5-17.5,7.6-24.1C1489.2,825.1,1492.3,819.5,1493.2,813.3z"/>
	<path class="st0" d="M1593.2,938h-248.7c-2.5,0-4.4,2-4.4,4.4v0.7c0,2.5,2,4.4,4.4,4.4h248.7c2.5,0,4.4-2,4.4-4.4v-0.7
		C1597.6,940,1595.6,938,1593.2,938z"/>
	<path class="st4" d="M518.1,976h-248c-2.6,0-4.8,2.1-4.8,4.8l0,0c0,2.6,2.1,4.8,4.8,4.8h248c2.6,0,4.8-2.1,4.8-4.8l0,0
		C522.9,978.1,520.8,976,518.1,976z"/>
	<ellipse class="st5" cx="549.9" cy="1013.5" rx="88" ry="10.5"/>
	<path class="st6" d="M1322.3,972.8H523c-29.4,0-53.2-23.8-53.2-53.2V390.8c0-29.4,23.8-53.2,53.2-53.2h799.3
		c29.4,0,53.2,23.8,53.2,53.2v528.8C1375.5,949,1351.7,972.8,1322.3,972.8z"/>
	<path class="st7" d="M1315.3,983.8H518.1c-31,0-56.2-25.2-56.2-56.2V397.9c0-31.1,25.2-56.2,56.2-56.2h797.2
		c31.1,0,56.2,25.2,56.2,56.2v529.6C1371.5,958.6,1346.3,983.8,1315.3,983.8z"/>
	<path class="st8" d="M1321.9,976.9H516.1c-27.6,0-49.9-22.3-49.9-49.9V391.7c0-27.6,22.3-49.9,49.9-49.9h805.8
		c27.6,0,49.9,22.3,49.9,49.9V927C1371.8,954.6,1349.4,976.9,1321.9,976.9z"/>
	<rect x="525" y="356" class="st9" width="788" height="606.7"/>
	<path d="M1314.6,964.3H523.3v-610h791.2V964.3z M526.6,961.1h784.8V357.6H526.6V961.1z"/>
	<path class="st10" d="M1340.3,677.9L1340.3,677.9c-1.8,0-3.2-1.5-3.2-3.2v-43.4c0-1.8,1.5-3.2,3.2-3.2l0,0c1.8,0,3.2,1.5,3.2,3.2
		v43.4C1343.6,676.4,1342.1,677.9,1340.3,677.9z"/>
	<ellipse cx="497.3" cy="652.9" rx="4.9" ry="5.5"/>
	<rect x="576.8" y="424.7" class="st1" width="710.5" height="269.6"/>
	<rect x="1026.4" y="720" class="st11" width="234.6" height="14.7"/>
	<rect x="576.8" y="400.5" class="st12" width="105.4" height="24.2"/>
	
		<rect x="682.3" y="400.5" transform="matrix(-1 -1.224647e-16 1.224647e-16 -1 1529.8148 825.2283)" class="st12" width="165.3" height="24.2"/>
	<g>
		<path class="st11" d="M665.1,746.8l-16.7,58.5L593.9,832c-4-8.1-6.2-17.1-6.2-26.7c0-33.6,27.2-60.8,60.8-60.8
			C654.3,744.5,659.9,745.3,665.1,746.8z"/>
		<path class="st13" d="M648.5,805.3h60.8c0,0.1,0,0.3,0,0.4C689.6,805.9,648.5,805.3,648.5,805.3z"/>
		<path class="st14" d="M696.7,768.3l-48.2,37l16.7-58.5C677.9,750.4,688.9,758.1,696.7,768.3z"/>
		<path class="st15" d="M709.3,805.3h-60.8l48.2-37C704.6,778.5,709.3,791.3,709.3,805.3z"/>
		<path class="st16" d="M709.2,805.7c0,6.8-1.2,13.3-3.3,19.3l-57.5-19.8C648.5,805.3,689.6,805.9,709.2,805.7z"/>
		<path class="st11" d="M706,825c-8.2,23.9-30.8,41-57.5,41c-24,0-44.7-13.9-54.6-34.1l54.6-26.7L706,825z"/>
	</g>
	<rect x="1155.5" y="384.9" class="st1" width="131.8" height="15.6"/>
	<g>
		<path class="st12" d="M791.4,744.5v13.7c-26,0-47,21.1-47,47c0,13,5.2,24.7,13.7,33.2l-9.7,9.7c-11-11-17.7-26.2-17.7-42.9
			C730.6,771.7,757.8,744.5,791.4,744.5z"/>
		<path class="st1" d="M852.2,805.3c0,33.6-27.2,60.8-60.8,60.8c-16.8,0-32-6.8-43-17.9l9.7-9.7c8.5,8.5,20.3,13.8,33.3,13.8
			c26,0,47-21.1,47-47c0-26-21.1-47-47-47v-13.7C825,744.5,852.2,771.7,852.2,805.3z"/>
		<path class="st17" d="M838.4,805.3c0,26-21.1,47-47,47c-13,0-24.8-5.3-33.3-13.8c-8.5-8.5-13.7-20.2-13.7-33.2c0-26,21.1-47,47-47
			S838.4,779.3,838.4,805.3z"/>
	</g>
	<g>
		<path class="st12" d="M981.5,841.5c-11.1,14.9-28.8,24.6-48.8,24.6c-33.6,0-60.8-27.2-60.8-60.8c0-33.6,27.2-60.8,60.8-60.8v13.7
			c-26,0-47,21.1-47,47c0,13,5.2,24.7,13.7,33.2c8.5,8.5,20.3,13.8,33.3,13.8c15.5,0,29.2-7.5,37.8-19L981.5,841.5z"/>
		<path class="st11" d="M993.5,805.3c0,13.6-4.4,26.1-12,36.2l-11-8.2c5.8-7.8,9.3-17.5,9.3-28c0-26-21.1-47-47-47v-13.7
			C966.3,744.5,993.5,771.7,993.5,805.3z"/>
		<path class="st17" d="M979.8,805.3c0,10.5-3.4,20.2-9.3,28c-8.6,11.5-22.3,19-37.8,19c-13,0-24.8-5.3-33.3-13.8
			c-8.5-8.5-13.7-20.2-13.7-33.2c0-26,21.1-47,47-47C958.7,758.2,979.8,779.3,979.8,805.3z"/>
	</g>
	<path class="st18" d="M1131.3,1025.3c0-76.8,62.3-234.6,139.1-234.6s139.1,157.8,139.1,234.6H1131.3z"/>
	<rect x="1026.4" y="779.1" class="st3" width="234.6" height="109.7"/>
	<path class="st11" d="M1131.3,1025.3c0-76.8,62.3-234.6,139.1-234.6s139.1,157.8,139.1,234.6H1131.3z"/>
	<path class="st5" d="M1310.7,804.9l-23.9,16.8c-4.2-3.8-9.8-6.1-16-6.1c-13.2,0-24,10.7-24,24c0,3.2,0.6,6.3,1.8,9l-92.1,64.9
		c-3.7,9.3-7,18.7-10,28l114-80.3c3.1,1.5,6.6,2.3,10.3,2.3c13.2,0,24-10.7,24-24c0-0.8,0-1.6-0.1-2.4l29.7-20.9
		C1319.9,812,1315.3,808.2,1310.7,804.9z"/>
	<path class="st12" d="M1538.2,657.1l-520.4,366.6c-3.9,2.7-9.2,1.8-12-2.1l0,0c-2.7-3.9-1.8-9.2,2.1-12L1528.3,643
		c3.9-2.7,9.2-1.8,12,2.1l0,0C1543,649,1542.1,654.3,1538.2,657.1z"/>
	
		<ellipse transform="matrix(0.9239 -0.3827 0.3827 0.9239 -223.0273 549.9246)" class="st19" cx="1270.8" cy="835.6" rx="24" ry="24"/>
	<circle class="st5" cx="1270.8" cy="839.3" r="15.3"/>
	
		<ellipse transform="matrix(0.1602 -0.9871 0.9871 0.1602 242.4626 1956.1384)" class="st20" cx="1270.8" cy="835.6" rx="15.3" ry="15.3"/>
	<g>
		<path class="st21" d="M624.1,1011.5c0-4.7-32.1-8.5-71.6-8.5c-39.6,0-71.6,3.8-71.6,8.5c0,0.7,0.6,1.3,1.8,1.9
			c4.5,4.1,34.1,7.3,69.8,7.3c35.8,0,65.3-3.2,69.8-7.3C623.4,1012.8,624.1,1012.2,624.1,1011.5z"/>
		<path class="st5" d="M624.1,1011.5c0-4.7-32.1-8.5-71.6-8.5c-39.6,0-71.6,3.8-71.6,8.5c0,0.7,0.6,1.3,1.8,1.9
			c4.5,4.1,34.1,7.3,69.8,7.3c35.8,0,65.3-3.2,69.8-7.3C623.4,1012.8,624.1,1012.2,624.1,1011.5z"/>
		<path class="st11" d="M480.8,976.4v34.6c0,4.7,32.1,8.5,71.6,8.5c39.6,0,71.6-3.8,71.6-8.5v-34.6H480.8z"/>
		<ellipse class="st22" cx="552.4" cy="976.4" rx="71.6" ry="8.5"/>
		<ellipse class="st23" cx="552.4" cy="975.6" rx="70.4" ry="8.4"/>
		<ellipse class="st5" cx="552.4" cy="975.6" rx="70.4" ry="8.4"/>
	</g>
	<g>
		<path class="st16" d="M624.1,973.4c0-4.7-32.1-8.5-71.6-8.5c-39.6,0-71.6,3.8-71.6,8.5c0,0.7,0.6,1.3,1.8,1.9
			c4.5,4.1,34.1,7.3,69.8,7.3c35.8,0,65.3-3.2,69.8-7.3C623.4,974.7,624.1,974.1,624.1,973.4z"/>
		<path class="st5" d="M624.1,973.4c0-4.7-32.1-8.5-71.6-8.5c-39.6,0-71.6,3.8-71.6,8.5c0,0.7,0.6,1.3,1.8,1.9
			c4.5,4.1,34.1,7.3,69.8,7.3c35.8,0,65.3-3.2,69.8-7.3C623.4,974.7,624.1,974.1,624.1,973.4z"/>
		<path class="st2" d="M480.8,938.4V973c0,4.7,32.1,8.5,71.6,8.5c39.6,0,71.6-3.8,71.6-8.5v-34.6H480.8z"/>
		<ellipse class="st24" cx="552.4" cy="938.4" rx="71.6" ry="8.5"/>
		<ellipse class="st25" cx="552.4" cy="937.6" rx="70.4" ry="8.4"/>
	</g>
	<rect x="576.8" y="720" class="st10" width="20.4" height="14.7"/>
	<rect x="716.8" y="720" class="st10" width="20.4" height="14.7"/>
	<rect x="852" y="720" class="st10" width="20.4" height="14.7"/>
	<rect x="576.8" y="449.5" class="st26" width="15.3" height="15.3"/>
	<rect x="576.8" y="475.1" class="st26" width="15.3" height="15.3"/>
	<rect x="576.8" y="500.8" class="st27" width="15.3" height="15.3"/>
	<g>
		<g>
			<path class="st2" d="M255.9,715.2c-6.6-3.7-6.6-10.9-3.1-14.8c3.6-3.8,3.6-6,10-10.8c6.4-4.7,9.1-3.8,15.6-5
				c6.5-1.2,7.5-4.7,12-9.7c4.5-5,8.8-7.5,15.9-8.2c7.1-0.8,9.1,0.9,16.5-2.1c7.4-3,6.1-7.6,14-8.7c9.4-1.4,22.9,11.8,22.6,19.2
				c-0.3,7.4-25,17-25,17s-2,1.6-7.1,6.7c-5,5.1-7.9,6-16.1,5.1c-8.3-0.9-12.4,1.5-15.9,4.3c-3.5,2.9-9.3,3.8-14.3,2.5
				s-8.7-0.3-13.2,2.5S258.3,716.5,255.9,715.2z"/>
			<path class="st11" d="M343.5,674.2l-16.4,6.9c-8.4,1.5-10.7-1.2-14.9,2.8c-4.2,4-8.3,8.2-12.4,8.9c-4.1,0.7-10.2-1.7-15.3,1.5
				c-5.1,3.2-6.5,8.4-11.8,10.2c-5.3,1.8-7.8,0.5-11.9,5.1c-1.6,1.8-2.5,4.1-2.9,6.2c2.7,0.4,6.5-0.4,10-2.6
				c4.4-2.8,8.2-3.9,13.2-2.5s10.8,0.4,14.3-2.5c3.5-2.9,7.6-5.3,15.9-4.3c8.3,0.9,11.1,0,16.1-5.1c5-5.1,7.1-6.7,7.1-6.7
				s6.3-6.3,10.8-12.7L343.5,674.2z"/>
			<path class="st28" d="M338.9,680.2c0.4,3.3-1.9,6.3-5.1,6.7c-3.3,0.4-6.3-1.9-6.7-5.1c-0.4-3.3,1.9-6.3,5.1-6.7
				C335.5,674.6,338.5,676.9,338.9,680.2z"/>
			<path class="st29" d="M336.1,680.5c0.2,1.7-1,3.3-2.7,3.5c-1.7,0.2-3.3-1-3.5-2.7c-0.2-1.7,1-3.3,2.7-3.5
				C334.3,677.6,335.9,678.8,336.1,680.5z"/>
			<g>
				<path class="st13" d="M351.5,731.7c6-0.1,11.5,0.5,14.7,1c0.5-3,0.2-6,0-9.1c-0.1-1.7-1.9-3.8-3.3-5.8c-1.4-2.1-3.5-3.7-6-4.3
					c-1.4-0.4-2.2-0.8-2.7-2.8c-1-4-3.8-25.6-3.8-25.6l-17.4,0.2c0,0,3.2,21.3,2.7,24.8c-0.5,3.2-5.7,4.9-12,7.7
					c3.6,4.8,4.7,11.8,4.1,17.8C334.9,730.4,343.9,731.9,351.5,731.7z"/>
				<linearGradient id="SVGID_1_" gradientUnits="userSpaceOnUse" x1="344.9044" y1="686.7389" x2="342.642" y2="712.1906">
					<stop  offset="0" style="stop-color:#F0C3A8"/>
					<stop  offset="1" style="stop-color:#FFFFFF"/>
				</linearGradient>
				<path class="st30" d="M354.6,711.7c-0.1-0.3-0.2-0.6-0.3-1c-1-4-3.8-25.6-3.8-25.6l-17.4,0.2c0,0,3.2,21.3,2.7,24.8
					c-0.1,0.6-0.3,1.1-0.7,1.6H354.6z"/>
				<path class="st5" d="M344.9,698.5c1.6,0.3,6.1,0.4,7.4-0.1c-0.8-6.8-1.8-13.2-1.8-13.2l-14.1,0.2
					C336.8,692.1,340.3,697.5,344.9,698.5z"/>
			</g>
			<path class="st13" d="M355.2,677.9c1.1,8.3-1.2,15.5-8.4,16.5c-6.1,0.8-12.4-5.2-13.9-13.4c-1.5-8.2,0.7-15.5,9.2-16.7
				C354.3,662.6,354.1,669.6,355.2,677.9z"/>
			<path class="st31" d="M337.6,674.1c1-0.7,2.1-1.1,3.3-1.4c1.2-0.2,2.4-0.3,3.6,0c0.1,0,0.1,0.1,0.1,0.2c0,0.1-0.1,0.1-0.1,0.1h0
				c-1.2,0-2.3,0.1-3.5,0.3c-0.6,0.1-1.1,0.2-1.7,0.4c-0.6,0.2-1.1,0.4-1.6,0.6l0,0c-0.1,0-0.1,0-0.2-0.1
				C337.6,674.2,337.6,674.2,337.6,674.1z"/>
			<path class="st31" d="M354.2,671.3c-0.4,0-0.8,0-1.2,0c-1.2,0.1-2.4,0.4-3.4,1c-0.1,0-0.1,0.1-0.1,0.1c0,0.1,0.1,0.1,0.2,0.1l0,0
				c0.6-0.2,1.1-0.3,1.7-0.4c0.6-0.1,1.1-0.2,1.7-0.2c0.4,0,0.8-0.1,1.2-0.1C354.3,671.6,354.3,671.4,354.2,671.3z"/>
			<path d="M342.6,676.6c0.1,0.4-0.3,0.8-0.7,0.9c-0.4,0.1-0.8-0.3-0.9-0.7c-0.1-0.4,0.3-0.8,0.7-0.9
				C342.1,675.8,342.5,676.2,342.6,676.6z"/>
			<path d="M353.9,675c0.1,0.4-0.3,0.8-0.7,0.9c-0.4,0.1-0.8-0.3-0.9-0.7c-0.1-0.4,0.3-0.8,0.7-0.9
				C353.5,674.3,353.9,674.6,353.9,675z"/>
			<path class="st28" d="M355.1,677.3c-0.1,0-0.1,0-0.2,0c-1.4,0.2-2.4,1.5-2.2,2.9c0.2,1.4,1.4,2.3,2.7,2.2c0-1.5,0-3-0.3-4.6
				C355.2,677.7,355.1,677.5,355.1,677.3z"/>
			<path class="st28" d="M344.6,681c0.2,1.4-0.8,2.7-2.2,2.9c-1.4,0.2-2.7-0.8-2.9-2.2c-0.2-1.4,0.8-2.7,2.2-2.9
				C343.1,678.6,344.4,679.6,344.6,681z"/>
			<path class="st28" d="M348.7,675.1l2.6,3.7c0.3,0.4,0.1,1-0.5,1.1l-2.4,0.4L348.7,675.1z"/>
			<path class="st9" d="M352.7,683c0.1,1.1-1.3,2.2-3.2,2.5c-1.9,0.3-3.6-0.4-3.7-1.6c-0.1-1.1,1.5-0.5,3.5-0.8
				C351.1,683,352.6,681.9,352.7,683z"/>
			<path class="st2" d="M359.2,665c-1.9-4.1-7.6-9.8-15.9-7.7c-7.1,1.8-10,7.2-10,7.2l-7.8,16.8c12-0.1,12.5-13.6,15.6-15.5
				c1.3-0.8,3.2-1.5,4-1.8c2.8,6.6,8.4,3.1,10.3,4.9c2.6,2.3,1.5,10,2.1,9.9C358.1,678.7,362,671.2,359.2,665z"/>
		</g>
		<g>
			<path class="st13" d="M347.2,717.1c-0.5,10.6,14.3,29.3,33.7,43.2c19.4,13.9,36,23.4,45.7,27.8c9.7,4.4,14.3,5.9,15,4.5
				c0.4-0.7-0.8-1.4-2.1-1.9c1.4,0.3,2.7,0.4,3.1-0.3c0.4-0.7-0.9-1.5-2.2-2.1c1.4,0.4,2.9,0.7,3.3-0.2c0.5-0.9-1.3-1.9-3-2.6
				c1.3,0.4,2.7,0.5,2.9-0.2c0.5-1.3-6.7-4.1-8.9-4.9c1,0.4,3,1.1,4.1,1.3c0.8,0.2,1.5-0.5,1.5-1c0.1-0.5-0.4-0.7-2.1-1.5
				c-3.3-1.5-11.4-4.2-28.3-14.5s-35.8-27-42.6-38.6c-1-1.6-2.5-4.6-3.4-6.2C359.2,716.5,347.8,705.8,347.2,717.1z"/>
			<path class="st28" d="M382.1,761.2c2.2,1.5,4.3,3,6.4,4.4c0.2-0.2,0.3-0.4,0.4-0.7c1-1.9,0.2-4.3-1.7-5.3
				C385.4,758.8,383.2,759.4,382.1,761.2z"/>
		</g>
		<path class="st5" d="M370.2,732.9c4.6,8.4,3.4,21.8,3.4,21.8s-7.4-6.5-9.9-9.1C361.2,743.1,370.2,732.9,370.2,732.9z"/>
		<polygon class="st10" points="405.4,969.9 403.2,970.6 404.7,975.3 406.6,973.6 		"/>
		<path class="st13" d="M422.7,974.1c-0.3,0.3-0.9,0.8-2.1,1.2c-1.7,0.6-5,0.9-9.3-1.5c-4.2-2.4-6.8-3-10.4-3.1
			c-4.2-12.1-16.4-40.9-26.7-71.5c-8-23.8-13.3-42.5-19.4-64.3l20.7-8.1c0,0,3.9,17.9,8.1,35.8c4.3,18.1,5.5,22.1,12.4,47.5
			c6.7,24.6,15.9,53.6,17.2,55.7C416.4,970.8,422,972.7,422.7,974.1z"/>
		<path class="st32" d="M422.1,975.2c-1.5,0.8-4.8,1.7-8.2,0.3c-3.5-1.3-7.5-4-10.4-4.2c0.3,1.1,0.7,2.2,1.3,4
			c-1.1,0.1-2.3-0.2-2.3-0.2s-0.5-1.6-1.5-4.4c3.6,0.1,6.2,0.7,10.4,3.1c4.3,2.4,7.5,2.1,9.3,1.5c1.2-0.4,1.8-0.9,2.1-1.2
			C422.9,974.5,422.7,974.8,422.1,975.2z"/>
		<polygon class="st10" points="284,965.3 281.7,964.6 280.2,969.2 282.7,969 		"/>
		<path class="st13" d="M295.3,979c-0.4,0.1-1.2,0.1-2.4-0.3c-1.7-0.6-4.5-2.3-6.5-6.8c-1.9-4.4-3.6-6.5-6.5-8.7
			c3.9-12.2,14.7-46.8,18.6-65.7c4.7-23.1,8.6-51.8,15.3-72.9l20.5,5.2c0,0-3.3,9.3-6.9,25.7c-3.7,16.4-6.1,31.1-16.5,59.1
			c-8.9,23.9-17.9,49.6-18.1,52.1C292.2,972.7,295.5,977.5,295.3,979z"/>
		<path class="st33" d="M358.4,847.3c1.7-1.6,4.7-3.7,8.9-5.4c3.8-1.5,8-1.4,11.2-1.1c-2.2-9.8-3.8-17.1-3.8-17.1l-20.7,8.1
			C355.5,837.1,357,842.2,358.4,847.3z"/>
		<path class="st33" d="M333.9,832.7l-20.5-5.2c-1.5,4.8-2.9,9.9-4.2,15.3c6.6-0.6,10.7,0.4,15.2,2c2.1,0.8,3.8,1.8,5.2,2.8
			C332,838.1,333.9,832.7,333.9,832.7z"/>
		<path class="st34" d="M294.2,979.5c-1.7-0.2-4.8-1.5-6.8-4.6c-2-3.1-3.6-7.7-5.8-9.6c-0.5,1-0.7,2.2-1.4,3.9
			c-0.9-0.6-1.7-1.5-1.7-1.5s0.5-1.6,1.4-4.4c2.8,2.2,4.6,4.3,6.5,8.7c2,4.5,4.8,6.2,6.5,6.8c1.2,0.4,2,0.4,2.4,0.3
			C295.2,979.4,294.9,979.6,294.2,979.5z"/>
		<path class="st2" d="M325.9,756.7c-1,5.9-8.7,12.2-14.5,29c-5.8,16.8-7.1,53.1-7.1,53.1s12.6,2.8,39.8,2.1
			c26.7-0.7,36.7-3.3,36.7-3.3s0.5-16.6-3.1-41.1c-3.6-24.5-13.4-32.7-14.5-40.3L325.9,756.7z"/>
		<g>
			<path class="st12" d="M345.4,817.5c-16.1,0.4-29.3,0.2-39.6-0.3c-0.3,2.8-0.5,5.5-0.7,7.9c6.9,0.3,15,0.6,24.1,0.6
				c5.1,0,10.6-0.1,16.4-0.2c13.9-0.4,25.4-1,34.7-1.8c-0.1-2.4-0.3-5-0.6-7.9C370.3,816.5,358.9,817.1,345.4,817.5z"/>
			<path class="st12" d="M345.4,802.2c-15.1,0.4-27.7,0.2-37.7-0.2c-0.4,2.6-0.8,5.3-1.1,7.9c6.6,0.3,14.1,0.5,22.6,0.5
				c5.1,0,10.6-0.1,16.4-0.2c13.3-0.4,24.4-1,33.5-1.7c-0.3-2.5-0.6-5.2-1-7.9C369,801.2,358.1,801.8,345.4,802.2z"/>
			<path class="st12" d="M345.4,786.8c-13.5,0.4-24.9,0.2-34.4-0.1c-0.7,2.3-1.4,5-2,7.9c6,0.2,12.7,0.4,20.2,0.4
				c5.1,0,10.6-0.1,16.4-0.2c12.3-0.3,22.8-0.9,31.5-1.5c-0.5-2.8-1.1-5.5-1.7-7.9C366.8,786,356.8,786.5,345.4,786.8z"/>
			<path class="st12" d="M345.4,771.5c-10.4,0.3-19.7,0.3-27.7,0.1c-1.3,2.3-2.6,4.9-3.9,7.9c4.7,0.1,9.9,0.2,15.4,0.2
				c5.1,0,10.6-0.1,16.4-0.2c10.5-0.3,19.6-0.7,27.4-1.2c-1.1-2.9-2.2-5.5-3.4-7.8C362.5,770.9,354.4,771.3,345.4,771.5z"/>
			<path class="st12" d="M325.9,756.7c-0.4,2.3-1.8,4.7-3.7,7.7c2.3,0,4.6,0,7.1,0c5.1,0,10.6-0.1,16.4-0.2
				c7.5-0.2,14.2-0.5,20.3-0.8c-1.4-2.7-2.5-5-2.8-7.2L325.9,756.7z"/>
			<path class="st12" d="M380.6,831c-9.6,0.8-21.4,1.5-35.3,1.8c-16.7,0.5-30.3,0.1-40.8-0.4c-0.2,3.9-0.3,6.3-0.3,6.3
				s9.8,2.2,30.8,2.2c3.4,0,6.9-0.1,10.5-0.2c1.7,0,3.4-0.1,5-0.2c21.7-0.9,30.1-3.1,30.1-3.1S380.8,835.2,380.6,831z"/>
		</g>
		<path class="st12" d="M357.3,713.5c2.2,1.6,7,15.8,7,15.8l6,0.9c0,0-3.9-9.9-6.8-13C360.5,714.2,357.3,713.5,357.3,713.5z"/>
		<path class="st12" d="M322.4,741.8l3.3-10.1c0,0,11-2.6,25.5-2.9c14.5-0.4,18.1,0.4,18.1,0.4s5.2,6.4,3,12.7
			c-2.2,6.2-7.8,7.6-7.8,7.6l-1.5,6.6c0,0-4.8,1.8-18.9,1.6s-18.3-1.1-18.3-1.1L322.4,741.8z"/>
		<path class="st28" d="M319.9,884.9c-0.7,2-2.9,3.2-4.9,2.5c-2-0.7-3.2-2.9-2.5-4.9c0.7-2,2.9-3.2,4.9-2.5
			C319.5,880.6,320.6,882.9,319.9,884.9z"/>
		<path class="st28" d="M388,883.2c0.7,2-0.4,4.3-2.5,4.9c-2,0.7-4.3-0.4-4.9-2.5c-0.7-2,0.4-4.3,2.5-4.9
			C385.1,880,387.3,881.1,388,883.2z"/>
		<path class="st2" d="M292.9,978.7c1.2,0.4,2,0.4,2.4,0.3c0.2-0.9-1-3.1-1.8-5.9c-3.6,0-4.9-2.4-4.9-2.4c-0.9-3.5-4.7-8.1-7.9-9.8
			c-0.3,0.9-0.5,1.7-0.8,2.4c2.8,2.2,4.6,4.3,6.5,8.7C288.3,976.5,291.1,978.2,292.9,978.7z"/>
		<path class="st2" d="M420.6,975.3c1.2-0.4,1.8-0.9,2.1-1.2c-0.4-0.7-2-1.6-4-2.9c-3.2,2.3-5.8,1-5.8,1c-2.9-2.6-9.2-4.4-12.7-3.7
			c0.3,0.8,0.5,1.5,0.8,2.2c3.6,0.1,6.2,0.7,10.4,3.1C415.6,976.2,418.8,975.9,420.6,975.3z"/>
		<path class="st35" d="M345.5,780.9c12.1,6.8,23.1,12.3,32.2,16.3c0-0.2-0.1-0.5-0.1-0.7c-0.8-5.7-2-10.5-3.3-14.6
			c-17.8-8.5-37.8-22.8-45.7-33.4c-1.1-1.5-3-4.3-4.1-5.8c-0.6-0.3-1.2-0.7-1.9-1.2l-0.1,0.4l3.5,14.8c-0.4,2.2-1.7,4.5-3.6,7.5
			C328.7,770.1,336.7,776,345.5,780.9z"/>
		<path class="st12" d="M327.3,716.2c-6.8,3.2-12.1,7.5-11,14.9s4.4,12,4.4,12s2.3-4,6.4-6c4.1-2,6.8-1.5,7.7-1.7
			C334.5,734.7,327.3,716.2,327.3,716.2z"/>
	</g>
	<path class="st0" d="M1427.5,1025.5H694.2c-2.6,0-4.8,2.1-4.8,4.8l0,0c0,2.6,2.1,4.8,4.8,4.8h733.3c2.6,0,4.8-2.1,4.8-4.8l0,0
		C1432.3,1027.7,1430.2,1025.5,1427.5,1025.5z"/>
	<g>
		<path class="st13" d="M750,993.5c-4,3.6-11.5,9.7-15.1,12.5c-1.1,0.9-1.4,2.5-0.7,3.7c2.9,4.8,10.5,15.8,18.9,15.8
			c8.2,0,7.1,0,7.1,0s-0.2-2.5-2.6-3.3c-1.6-0.5-3.9-4.8-5.2-7.7c-0.7-1.5-0.3-3.2,1-4.2l8.2-6.5L750,993.5z"/>
		<path class="st16" d="M849.1,890.6c-4.6,10.6-21.9,58.5-43.7,82.7c-22.6,25-41.3,34.3-41.3,34.3c-6.1-2.4-12.3-12.2-14-14.2
			c0,0,28.4-23.2,41.1-45.9c12.8-22.8,28.8-68.1,28.8-68.1L849.1,890.6z"/>
		<path class="st12" d="M849.1,890.6c-4.6,10.6-21.9,58.5-43.7,82.7c-22.6,25-41.3,34.3-41.3,34.3c-6.1-2.4-12.3-12.2-14-14.2
			c0,0,28.4-23.2,41.1-45.9c12.8-22.8,28.8-68.1,28.8-68.1L849.1,890.6z"/>
		<path class="st13" d="M893.3,1025.4h-25.4c-1.3,0-2.4-1-2.5-2.4c-0.2-2.9-0.5-8.1-1.1-14.5c6-0.2,14.5-1.6,14.5-1.6l0.6,9.2
			c0.1,1.4,1,2.6,2.3,3.1c3,1,8,2.8,9.6,3.4C893.6,1023.7,893.3,1025.4,893.3,1025.4z"/>
		<path class="st1" d="M883,1006.3l-4.2,0.7c0,0-9.4,2.1-15.4,2.3c-1.3-12.9-4.3-37.3-9.4-50.1c-9.1-22.6-32.6-39.9-46.3-52.7
			c-12.6-11.7-13.2-23.4-5.2-37.5l34,20.5c0,0,23.7,17.5,35.9,49.6C884.2,970.1,883,1006.3,883,1006.3z"/>
		<g>
			<path class="st13" d="M952.5,895.2c0,0,2-4.8-5.1-11c-6.2-5.4-32.4-24.3-39.1-29.2c-5.8,1.2-11.6,2.4-17.5,3.3
				c6.4,14.2,38.9,25,43.2,27.5c4.9,2.8,7.6,3.9,9.6,5.6c1.9,1.7,2.3,3.7,3,3.5c0.7-0.2,0.2-3,0.2-3c0.7,0.8,1,4.3,1.8,3.9
				c0.8-0.4,0.1-3.5,0.1-3.5c0.8,1,0.7,3.9,1.5,4c0.8,0.1,0.8-3.1,0.8-3.1L952.5,895.2z"/>
			<path class="st5" d="M952.5,895.2c0,0,2-4.8-5.1-11c-6.2-5.4-32.4-24.3-39.1-29.2c-5.8,1.2-11.6,2.4-17.5,3.3
				c6.4,14.2,38.9,25,43.2,27.5c4.9,2.8,7.6,3.9,9.6,5.6c1.9,1.7,2.3,3.7,3,3.5c0.7-0.2,0.2-3,0.2-3c0.7,0.8,1,4.3,1.8,3.9
				c0.8-0.4,0.1-3.5,0.1-3.5c0.8,1,0.7,3.9,1.5,4c0.8,0.1,0.8-3.1,0.8-3.1L952.5,895.2z"/>
		</g>
		<g>
			<path class="st15" d="M976.9,1023.9c-21.7,4.2-45-1.6-62.5-17.6c-29.4-26.9-31.5-72.6-4.6-102c26.9-29.4,72.6-31.5,102-4.6
				l-11,12c-22.8-20.8-58.1-19.2-78.9,3.6c-10.4,11.4-15.2,25.9-14.6,40.1c0.6,14.3,6.7,28.4,18.1,38.8
				c13.6,12.4,31.6,16.8,48.4,13.6L976.9,1023.9z"/>
			<path class="st36" d="M1016.4,1001.7c-10.9,11.9-24.8,19.3-39.5,22.2l-3.1-16c11.4-2.2,22.2-7.9,30.6-17.2
				c20.8-22.8,19.2-58.1-3.6-78.9l11-12C1041.2,926.6,1043.3,972.3,1016.4,1001.7z"/>
			<path class="st2" d="M1004.3,990.7c-8.4,9.2-19.2,15-30.6,17.2c-16.8,3.2-34.8-1.2-48.4-13.6c-11.4-10.4-17.5-24.5-18.1-38.8
				c-0.6-14.3,4.2-28.8,14.6-40.1c20.8-22.8,56.2-24.4,78.9-3.6C1023.6,932.6,1025.2,968,1004.3,990.7z"/>
		</g>
		<path class="st2" d="M886.2,813.4c4.5,11.1,5.9,32.3,22,41.3L895,867.3l-24.8-14.6L886.2,813.4z"/>
		<g>
			<path class="st13" d="M861.3,811.7c2.4,8.7,13.4,12.6,16.1,12.4c4.9-0.2,2.7,1.3,6-1.7c-0.6-9.4-1.7-11.6,0.2-15
				c2.1-3.7,17.8-19,17.8-19l-13.3-12.1c0,0-15.2,15.4-18.1,17.6c-1.7,1.4-7.5,1.9-10.4,2.9C858.5,802.2,859.8,806.4,861.3,811.7z"
				/>
			
				<linearGradient id="SVGID_2_" gradientUnits="userSpaceOnUse" x1="4233.8887" y1="1351.4607" x2="4231.5557" y2="1377.7073" gradientTransform="matrix(0.7343 0.6788 -0.6788 0.7343 -1296.9146 -3082.104)">
				<stop  offset="0" style="stop-color:#F0C3A8"/>
				<stop  offset="1" style="stop-color:#FFFFFF"/>
			</linearGradient>
			<path class="st37" d="M883.2,808.4c0.1-0.3,0.2-0.6,0.4-0.9c2.1-3.7,17.8-19,17.8-19l-13.3-12.1c0,0-15.2,15.4-18.1,17.6
				c-0.5,0.4-1,0.6-1.6,0.7L883.2,808.4z"/>
			<path class="st5" d="M888.7,798.3c0.6,0.5,1.2,0.9,1.7,1.3c5-5.6,9.8-10.7,9.8-10.7l-9.8-8.3
				C885.5,787.1,884.1,794.3,888.7,798.3z"/>
			<path class="st15" d="M892.1,761.6c-4,2.6-9.5,4.7-7.3,18l6.3,1.5l3.2-13.2L892.1,761.6z"/>
			<path class="st13" d="M909.8,788.8c-2.8,4.4-6.8,9.7-10.6,10.7c-2.6,0.6-4.6-0.7-8.5-4.6c-3.7-3.8-5.1-11-0.5-18.4
				c4.6-7.4,10.2-12.2,18.2-7.2C917.1,774.8,914.4,781.4,909.8,788.8z"/>
			<path d="M907.8,784.5c-0.3,0.4-0.8,0.5-1.2,0.3c-0.4-0.3-0.5-0.8-0.3-1.2c0.3-0.4,0.8-0.5,1.2-0.3
				C907.9,783.5,908,784,907.8,784.5z"/>
			<g>
				<path class="st38" d="M891.7,784.3c-2.9-1.8-3.7-5.6-1.9-8.5c1.8-2.9,5.6-3.7,8.5-1.9L891.7,784.3z"/>
				<path class="st28" d="M893.2,781.9c-1.5-1-2-3-1-4.5c1-1.5,3-2,4.5-1L893.2,781.9z"/>
			</g>
			<path class="st28" d="M904.4,787.9c-0.8,1.3-2.5,1.6-3.7,0.8c-1.3-0.8-1.6-2.5-0.8-3.7c0.8-1.3,2.5-1.6,3.7-0.8
				C904.8,785,905.2,786.6,904.4,787.9z"/>
			<path class="st28" d="M910.6,785.5l0.5,6.3c0.1,0.7-0.7,1.3-1.4,1l-3.2-1.2L910.6,785.5z"/>
			<path class="st15" d="M897.5,775.2l-2.7,4.1l1.4,1c0.5-1.1,2.4-3.4,3-4.1L897.5,775.2z"/>
			<path class="st15" d="M915.7,767.4c-2.2-4.2-5.5-0.7-7.5-6.7c-3.8-11.4-15.8-11.1-19.5-6.8c-2.4,2.8-9.3-0.1-10,7.7
				c-0.6,7,16.7,14.9,19.3,15.3c3.4,0.5,6.6-1.9,10.1-5.4c0,0,3,0.5,6,6.1C916.9,777.2,919.1,773.7,915.7,767.4z"/>
			<path class="st28" d="M905.7,780.1c0.5,0.1,1,0.2,1.5,0.3c0.5,0.2,0.9,0.4,1.4,0.6c0.4,0.2,0.9,0.5,1.2,0.9
				c0.2,0.2,0.4,0.4,0.5,0.6c0.1,0.1,0.2,0.2,0.2,0.3l0.1,0.2l0,0.1l0,0c0,0,0,0,0,0c-0.1-0.1-0.3-0.1-0.3,0c0.1-0.1,0.3-0.1,0.4,0
				c0.1,0.1,0.1,0.3,0,0.4c-0.1,0.1-0.3,0.1-0.4,0l0,0l-0.1,0l-0.1-0.1l-0.1-0.1c-0.1-0.1-0.2-0.1-0.3-0.2l-0.6-0.4
				c-0.4-0.2-0.8-0.5-1.2-0.7c-0.8-0.5-1.6-0.9-2.4-1.4l0,0c-0.1-0.1-0.2-0.2-0.1-0.4C905.5,780.1,905.6,780.1,905.7,780.1z"/>
			<path class="st28" d="M905.4,793.8c0.2,0.2,0.4,0.3,0.5,0.5c-0.2,0.2-0.4,0.5-0.6,0.7c-0.3-0.2-0.6-0.4-0.8-0.7
				c-1-1-1.5-1.9-1.1-2.2C903.8,791.8,904.4,792.8,905.4,793.8z"/>
		</g>
		<path class="st2" d="M883.6,807.8c0,0-2.3,4-9.8,0.1c-7.6-3.9-10.7-12.4-10.7-12.4s-20.5,3.4-42,36.5
			c-11.5,17.7-21.6,38.7-21.6,38.7s13.2,20,50.5,20.8c4.4-8.5,13.2-26.3,29.6-43.9C889.2,837.5,892.8,824.7,883.6,807.8z"/>
		<path class="st5" d="M886.3,814c5.3,11.1,2.5,40.3,2.5,40.3l-7.2-9.7C884.3,840.1,886.7,821.5,886.3,814z"/>
		<path class="st5" d="M928.7,911.2c0,0-10.8-4.4-24.1-0.9c0,0,5.7-7.6,10-10.3C918.8,897.4,928.7,911.2,928.7,911.2z"/>
		<path class="st5" d="M844.3,815.2c0.3,13.8,7.1,49.7,15.9,57.6l11-15.7L844.3,815.2z"/>
		<path class="st13" d="M844.4,812.9c-3.1,11.2,12.7,31.2,30.1,50.5c17.4,19.3,32.8,33.3,42.1,40.2c9.3,6.9,13.8,9.7,14.9,8.3
			c0.6-0.7-0.5-1.7-1.8-2.5c1.4,0.6,2.8,1.1,3.3,0.5c0.6-0.7-0.6-1.8-1.8-2.8c1.4,0.8,2.9,1.4,3.6,0.6c0.7-0.8-0.9-2.3-2.5-3.4
			c1.3,0.7,2.7,1.2,3.2,0.5c0.9-1.3-6.1-5.9-8.3-7.3c1,0.6,3,1.9,4,2.3c0.8,0.4,1.7-0.2,1.9-0.7c0.2-0.5-0.3-0.8-1.9-2
			c-3.2-2.4-9.9-7.8-25.5-22.8c-15.6-15-28.3-39.7-34.3-53C862.2,801.4,847.7,801.1,844.4,812.9z"/>
		<path class="st28" d="M877,866.1c1.9,2.1,3.9,4.2,5.7,6.2c0.2-0.2,0.4-0.4,0.6-0.6c1.5-1.8,1.2-4.5-0.6-6
			C881.1,864.2,878.6,864.4,877,866.1z"/>
		<path class="st2" d="M880.6,870.3c5.4-2,11.3-7.7,13.2-9.7c-10.1-13.7-18.1-29.6-22.6-39.4c-9.1-20.1-23.8-20.4-27.1-8.5
			c-3.1,11.3,12.8,31.4,30.4,50.9C876.6,866,878.6,868.2,880.6,870.3z"/>
		<path class="st39" d="M891.3,1022.7c-1.6-0.6-6.7-2.4-9.6-3.4c-0.7-0.2-1.3-0.7-1.7-1.3c-0.8,0.5-2.1,1.1-3.6,1.4
			c-2.5,0.5-8.7-0.2-11.3-0.5c0.1,1.7,0.2,3.1,0.3,4.2c0.1,1.3,1.2,2.4,2.5,2.4h25.4C893.3,1025.4,893.6,1023.7,891.3,1022.7z"/>
		<path class="st40" d="M892.9,1023.9h-25.3c-1,0-1.8-0.5-2.2-1.3c0,0.2,0,0.3,0,0.5c0.1,1.3,1.2,2.4,2.5,2.4h25.4
			C893.3,1025.4,893.4,1024.7,892.9,1023.9z"/>
		<path class="st39" d="M760.3,1025.5c0,0-0.2-2.5-2.6-3.3c-1.6-0.5-3.9-4.8-5.2-7.7c-0.2-0.5-0.3-1-0.3-1.6
			c-6.8,0.8-10.1-3.4-14-9.6c-1.2,1-2.3,1.9-3.2,2.6c-1.1,0.9-1.4,2.5-0.7,3.7c2.9,4.8,10.5,15.8,18.9,15.8
			C758.8,1025.5,760.1,1025.5,760.3,1025.5z"/>
		<path class="st40" d="M754.2,1024.2c-8.4,0-16-11-18.9-15.8c-0.5-0.8-0.5-1.7-0.2-2.5c0,0-0.1,0.1-0.1,0.1
			c-1.1,0.9-1.4,2.5-0.7,3.7c2.9,4.8,10.5,15.8,18.9,15.8c5.6,0,6.9,0,7.1,0c0,0,0-0.6-0.4-1.3
			C758.9,1024.2,757.1,1024.2,754.2,1024.2z"/>
		<path class="st41" d="M857.4,850.9c-0.2-0.1-16.7-7-25.1-14.7l0.5-0.6c8.4,7.6,24.8,14.5,24.9,14.6L857.4,850.9z"/>
		<path class="st41" d="M851.6,859.1c-0.2-0.1-16.7-7-25.1-14.7l0.5-0.6c8.4,7.6,24.8,14.5,24.9,14.6L851.6,859.1z"/>
		<path class="st41" d="M846.9,866.4c-0.2-0.1-17-6.2-25.9-13.4l0.5-0.6c8.8,7.1,25.5,13.2,25.6,13.3L846.9,866.4z"/>
		<path class="st41" d="M842,875.6c-0.2-0.1-17.2-5.6-26.3-12.6l0.5-0.6c9,6.9,25.9,12.4,26,12.4L842,875.6z"/>
	</g>
	<g>
		<path class="st42" d="M1759.3,999.5c3.4,4.2,5.2,5,8.3,8.4c1,1.1,1,2.7,0.1,3.8c-3.6,4.3-12.8,14-21.1,12.7c-8.1-1.3-7-1.1-7-1.1
			s0.6-2.4,3.1-2.9c1.6-0.3,4.6-4.2,6.4-6.8c0.9-1.3,0.8-3.1-0.3-4.3l-7.1-7.7L1759.3,999.5z"/>
		<path class="st43" d="M1671.5,873.9c2.9,11.2,13.8,63.5,31.7,90.8c18.4,28.1,43,44.4,43,44.4c6.4-1.4,11.2-7.9,13.2-9.6
			c0,0-29.1-33.6-38.2-58.1c-5.2-14-11.3-39.4-13.7-51.1c3.2-13.5,3.8-23,3.8-23L1671.5,873.9z"/>
		<path class="st44" d="M1671.5,873.9c2.9,11.2,13.8,63.5,31.7,90.8c18.4,28.1,43,44.4,43,44.4c6.4-1.4,11.2-7.9,13.2-9.6
			c0,0-29.1-33.6-38.2-58.1c-5.2-14-11.3-39.4-13.7-51.1c3.2-13.5,3.8-23,3.8-23L1671.5,873.9z"/>
		<path class="st42" d="M1587.6,1024l28.7,0.3c1.5,0,2.8-1.1,2.9-2.7c0.2-3.2,0.8-11.5,1.6-18.8c-6.8-0.3-16.7-1.1-16.7-1.1
			l-0.6,11.9c-0.1,1.6-1.2,3-2.7,3.5c-3.4,1.1-9.1,3-10.9,3.7C1587.3,1022,1587.6,1024,1587.6,1024z"/>
		<path class="st44" d="M1602.3,1011.2c0,0,14.5,1.4,20.5,2c2.2-12.7,11.6-46.1,15.6-57.8c7.8-23.1,27.9-50.2,42.5-59.5
			c12.7-8,22.7-19.9,23.8-26.9l-37.3-21.8c0,0-35.2,40.5-49.4,86C1608.2,965.1,1602.3,1011.2,1602.3,1011.2z"/>
		<g>
			<path class="st13" d="M1612.2,705.7c0,0,4.2-3,11.8,2.6c6.6,4.9,42.2,36.5,48.5,42c0.1,5.9,0.2,11.9,0.6,17.8
				c-15.3-3.1-44.3-42.7-47.6-46.4c-3.8-4.2-5.5-6.6-7.6-8.1c-2.1-1.5-4.1-1.4-4.1-2.2c0-0.8,2.9-0.9,2.9-0.9
				c-0.9-0.5-4.4-0.1-4.2-0.9c0.2-0.9,3.4-0.8,3.4-0.8c-1.1-0.6-3.9,0.2-4.2-0.6c-0.3-0.8,2.8-1.5,2.8-1.5L1612.2,705.7z"/>
			<path class="st5" d="M1612.2,705.7c0,0,4.2-3,11.8,2.6c6.6,4.9,42.2,36.5,48.5,42c0.1,5.9,0.2,11.9,0.6,17.8
				c-15.3-3.1-44.3-42.7-47.6-46.4c-3.8-4.2-5.5-6.6-7.6-8.1c-2.1-1.5-4.1-1.4-4.1-2.2c0-0.8,2.9-0.9,2.9-0.9
				c-0.9-0.5-4.4-0.1-4.2-0.9c0.2-0.9,3.4-0.8,3.4-0.8c-1.1-0.6-3.9,0.2-4.2-0.6c-0.3-0.8,2.8-1.5,2.8-1.5L1612.2,705.7z"/>
		</g>
		
			<rect x="1579.8" y="625.8" transform="matrix(0.633 -0.7742 0.7742 0.633 54.7699 1472.7594)" class="st45" width="1.6" height="105.6"/>
		<path class="st11" d="M1718.1,775.8c-13.6-5.7-24.2-9.7-33.9-16.4c-3.8-2.6-32-28.5-37.4-32.2l-7.5,11.3
			c5.4,5.5,46.3,44.4,53.4,47.1L1718.1,775.8z"/>
		<g>
			<path class="st46" d="M1725.4,795.3c-8.8,2.3-17.6-5.3-18.8-7.8c-2.2-4.4-2.5-1.7-1.6-6.1c8.5-4.1,10.9-4.4,12.9-7.7
				c2.2-3.6,7.6-24.9,7.6-24.9l17.1,5.5c0,0-5.7,20.9-6.2,24.5c-0.3,2.2,2.1,7.4,2.7,10.5C1735,793,1730.7,793.9,1725.4,795.3z"/>
			
				<linearGradient id="SVGID_3_" gradientUnits="userSpaceOnUse" x1="1206.8245" y1="1489.9039" x2="1204.4916" y2="1516.1489" gradientTransform="matrix(-0.9548 -0.2973 -0.2973 0.9548 3327.7334 -311.1313)">
				<stop  offset="0" style="stop-color:#F0C3A8"/>
				<stop  offset="1" style="stop-color:#FFFFFF"/>
			</linearGradient>
			<path class="st47" d="M1717.3,774.6c0.2-0.2,0.4-0.5,0.6-0.9c2.2-3.6,7.6-24.9,7.6-24.9l17.1,5.5c0,0-5.7,20.9-6.2,24.5
				c-0.1,0.6,0,1.2,0.2,1.7L1717.3,774.6z"/>
			<path class="st5" d="M1723.3,764.8c-0.7-0.2-1.4-0.5-2-0.9c2.3-7.1,4.4-13.8,4.4-13.8l12.1,4.3
				C1734.6,762,1729,766.8,1723.3,764.8z"/>
			<path class="st46" d="M1721,741.8c-2.4,4.6-5,10.7-3.9,14.5c0.7,2.5,2.9,3.7,8.2,5c5.2,1.3,12.1-1,16.2-8.7
				c4.1-7.7,5.4-14.9-2.9-19.3C1729.4,728.5,1725.1,734.1,1721,741.8z"/>
			<path class="st48" d="M1754.7,746.2c3.4,9.5-6.4,11.1-4.4,18.9c-6.9,4.6-20.9,2.1-13.3-11l9.8-9.4L1754.7,746.2z"/>
			<path d="M1725.8,741.4c-0.2,0.4-0.1,1,0.4,1.2c0.4,0.2,1,0.1,1.2-0.4c0.2-0.4,0.1-1-0.4-1.2
				C1726.5,740.8,1726,740.9,1725.8,741.4z"/>
			<g>
				<path class="st46" d="M1733.9,755.3c3,1.6,6.7,0.4,8.3-2.6c1.6-3,0.4-6.7-2.6-8.3L1733.9,755.3z"/>
				<path class="st28" d="M1735.3,752.7c1.6,0.8,3.6,0.2,4.4-1.4c0.8-1.6,0.2-3.6-1.4-4.4L1735.3,752.7z"/>
			</g>
			<path class="st28" d="M1724.5,746c-0.7,1.3-0.2,3,1.1,3.7c1.3,0.7,3,0.2,3.7-1.1c0.7-1.3,0.2-3-1.1-3.7
				C1726.8,744.2,1725.2,744.7,1724.5,746z"/>
			<path class="st28" d="M1723.5,739.5l-5.7,2.7c-0.7,0.3-0.8,1.2-0.2,1.7l2.6,2.1L1723.5,739.5z"/>
			<path class="st48" d="M1738.9,745.6l-2.2,4.3l-1.6-0.7c0.7-1,1.7-3.7,2.1-4.7L1738.9,745.6z"/>
			<path class="st48" d="M1729,722.8c4.3-2,3.4,4,9.6,2.9c8.7-1.6,15.3,5.1,14.2,10.8c-0.7,3.7,8.5,8.8,1.7,15.4
				c-5,4.9-16.9-2.9-18.5-4.9c-2.1-2.7-3.3-4.5-2.1-9.2c0,0,1-5.6-5.4-5.5C1725.4,731.3,1722.5,725.8,1729,722.8z"/>
			<path class="st28" d="M1730.3,741.4c-0.9-0.4-1.7-0.9-2.4-1.4c-0.4-0.2-0.8-0.5-1.2-0.7l-0.6-0.3c-0.1-0.1-0.2-0.1-0.3-0.2
				l-0.2-0.1l-0.1,0l-0.1,0l0,0c-0.1,0-0.2-0.2-0.2-0.3c0-0.1,0.2-0.2,0.3-0.2c0.1,0,0.2,0.2,0.2,0.3c0-0.1,0-0.3-0.1-0.3
				c0,0,0,0,0,0l0,0l0.1,0l0.2,0c0.1,0,0.3,0,0.4,0c0.3,0,0.5,0.1,0.7,0.2c0.5,0.2,0.9,0.4,1.4,0.6c0.4,0.3,0.8,0.6,1.2,0.9
				c0.4,0.3,0.7,0.7,1,1.1c0.1,0.1,0.1,0.3-0.1,0.4C1730.5,741.4,1730.4,741.4,1730.3,741.4L1730.3,741.4z"/>
			<path class="st28" d="M1718.9,748.1c-0.2-0.1-0.5-0.1-0.7-0.2c-0.1,0.3-0.2,0.5-0.3,0.9c0.3,0.1,0.7,0.3,1,0.4
				c1.3,0.4,2.4,0.3,2.4-0.2C1721.3,748.5,1720.2,748.5,1718.9,748.1z"/>
		</g>
		<path class="st2" d="M1718.3,773.1c0,0-3,4.6,3.3,7.5c6.8,3.1,16,1.3,16,1.3s9.4,21.5-11.1,57.6c-10.4,18.4-15.2,31.7-15.2,31.7
			s-28,0-52.5-21c8.5-25.3,20.4-31,27.9-53.9C1691.1,782.7,1698.7,774.9,1718.3,773.1z"/>
		<path class="st5" d="M1722.5,805.2c-12.3,6.2-34.8,16.6-47.2,13.9c5.1-5.5,11.7-22.5,13.1-27.4L1722.5,805.2z"/>
		<g>
			<path class="st46" d="M1721.2,805.8c-11.1,3.3-31.4-12.1-51-29.1c-19.6-17-45.3-42.4-52.4-51.6c-7.1-9.2-9.9-13.6-8.6-14.8
				c0.7-0.6,1.7,0.5,2.5,1.8c-0.7-1.4-1.1-2.8-0.5-3.3c0.7-0.6,1.8,0.5,2.8,1.7c-0.8-1.4-1.4-2.9-0.7-3.6c0.8-0.7,2.3,0.9,3.5,2.5
				c-0.7-1.3-1.2-2.7-0.5-3.2c1.3-0.9,6.1,6,7.5,8.2c-0.7-1-1.9-2.9-2.4-4c-0.4-0.8,0.2-1.7,0.6-1.9c0.5-0.2,0.8,0.2,2.1,1.8
				c2.4,3.2,8,9.8,23.3,25.1c15.3,15.3,51.6,37.8,65,43.6C1732.4,787.7,1733,802.3,1721.2,805.8z"/>
			<path class="st2" d="M1634.8,744.2c1.9-5.5,8-9.7,10-11.7c16.2,16.8,57.8,42.2,67.7,46.5c20.3,8.8,20.9,23.5,9,27
				c-11.2,3.3-31.7-12.2-51.5-29.4C1667.6,774.6,1637.6,748,1634.8,744.2z"/>
		</g>
		<path class="st11" d="M1589.9,1021c1.8-0.7,7.6-2.6,10.9-3.7c0.8-0.3,1.5-0.8,1.9-1.4c1,0.6,2.3,1.3,4.1,1.6
			c2.8,0.6,9.8-0.1,12.7-0.5c-0.2,1.9-0.3,3.5-0.3,4.7c-0.1,1.5-1.4,2.7-2.9,2.7l-28.7-0.3C1587.6,1024,1587.3,1022,1589.9,1021z"/>
		<path class="st41" d="M1588.1,1022.3l28.6,0.3c1.1,0,2-0.6,2.5-1.5c0,0.2,0,0.4,0,0.5c-0.1,1.5-1.4,2.7-2.9,2.7l-28.7-0.3
			C1587.6,1024,1587.5,1023.2,1588.1,1022.3z"/>
		<path class="st11" d="M1739.6,1023.2c0,0,0.6-2.4,3.1-2.9c1.6-0.3,4.6-4.2,6.4-6.8c0.3-0.5,0.5-1,0.6-1.5
			c6.6,1.9,10.5-1.8,15.3-7.3c1.1,1.2,2,2.2,2.7,3c1,1.1,1,2.7,0.1,3.8c-3.6,4.3-12.8,14-21.1,12.7
			C1741,1023.4,1739.8,1023.2,1739.6,1023.2z"/>
		<path class="st41" d="M1745.8,1022.8c8.3,1.3,17.5-8.4,21.1-12.7c0.6-0.7,0.8-1.6,0.6-2.4c0,0,0.1,0.1,0.1,0.1
			c1,1.1,1,2.7,0.1,3.8c-3.6,4.3-12.8,14-21.1,12.7c-5.5-0.9-6.8-1.1-7-1.1c0,0,0.1-0.6,0.6-1.3
			C1741.2,1022.1,1742.9,1022.4,1745.8,1022.8z"/>
	</g>
	<path class="st5" d="M1271.1,892.4c-8.6,0-15.6,7-15.6,15.6v117.5h31.1V908C1286.6,899.4,1279.7,892.4,1271.1,892.4z"/>
	<path class="st10" d="M669.1,509.8C702.5,495.9,669.1,509.8,669.1,509.8c-0.4,0-2.7-1.1-2.7-1.5l-20.8-271.9c0-0.4,0.4-0.8,0.8-0.8
		c0.4,0,0.8,0.4,0.8,0.8l19.2,271.8C666.4,508.7,669.6,509.8,669.1,509.8z"/>
	<g>
		<path class="st49" d="M648.3,224.9c-2.3,1.3-4.9,6.3-4.9,6.3s4.5,8.8,4.9,8.7c0.4-0.1,4.3-4.8,6.4-7.5L648.3,224.9z"/>
		<path class="st50" d="M641.1,226.2c4.1,2.4,9.1,5.6,8.9,9.3c-0.1,3.7-1.1,7.5-1.1,7.5l-13.6-9.1L641.1,226.2z"/>
		<path class="st2" d="M622.3,136.7c1.3-1,3.9,0.1,3.9,0.1l-3.5,2.1L622.3,136.7z"/>
		<path class="st51" d="M611.7,331.8c0,0-1.3,3.9-0.7,4.9c0.7,1.1,2,0.8,10.1,0.8s17,0.9,17.4-0.5c0.4-1.5-2.3-1.9-6.3-3.1
			c-4-1.2-5.3-3.1-5.3-3.1L611.7,331.8z"/>
		<path class="st40" d="M638.2,336c-1.5,1-9.7,0.2-17.2,0.2c-8.1,0-9.5,0.3-10.1-0.8c0,0,0,0,0-0.1c-0.1,0.6,0,1.1,0.2,1.4
			c0.7,1.1,2,0.8,10.1,0.8c8.1,0,17,0.9,17.4-0.5C638.7,336.6,638.5,336.3,638.2,336z"/>
		<path class="st51" d="M551.2,328.6c0,0-2.1,3.4-1.5,4.5c0.5,1.1,2.1,0.2,9.7,3c6.3,2.3,17.3,2.1,18,0.9c1.4-2.3-2.5-1.4-6.3-3.1
			c-3.8-1.7-4.5-4.1-4.5-4.1L551.2,328.6z"/>
		<path class="st40" d="M577.3,335.7c-1.7,1-11.8,1.1-17.7-1.1c-7.6-2.8-9.2-1.8-9.7-3c0-0.1-0.1-0.2-0.1-0.3
			c-0.2,0.7-0.4,1.3-0.2,1.7c0.5,1.1,2.1,0.2,9.7,3c6.3,2.3,17.3,2.1,18,0.9C577.7,336.3,577.7,336,577.3,335.7z"/>
		<path class="st44" d="M611.6,208c7.7,27.2,10.9,37.3,14.9,71.6c4,34.3,2,52.1,2,52.1c-3.6,1.2-14.4,1.2-18.1,0.5
			c0,0-2.5-33.7-5.5-53.2c-2.9-19.4-20.8-69-20.8-69L611.6,208z"/>
		<path class="st44" d="M572.4,186.5c-11.7,19.9-10.9,34.9-10.7,75.3c0.3,38.1-11.1,67-11.1,67c3.9,1.9,14.1,5.2,19.3,4
			c0,0,16.1-34.8,17.7-69.4c1.6-35.1,0.8-51.1,0.8-51.1l21.8-2.4L572.4,186.5z"/>
		<path class="st12" d="M600.7,145.1c-12.8,11.8-22.5,30.3-28.3,41.4c0,0,8.8,13,24,19c15.2,6,15.8,4.2,15.8,4.2
			s18.6-29.6,28.8-38.9c0,0-4.6-11.6-19.2-16.4C607.2,149.6,600.7,145.1,600.7,145.1z"/>
		<path class="st5" d="M595.6,154.5c-3.8,11.6-3.2,48.9-3.2,48.9s13.4,6,17.8,6.4l11.8-15c0,0-7.6-16.9-10.4-29.2
			C608.8,153.3,595.6,154.5,595.6,154.5z"/>
		<path class="st12" d="M619,139.2c-20.4,1.4-24.2,10-24.8,23.6c-0.6,13.8,2.3,31.3,14.4,49.5c11.4,17.2,27.8,23.4,27.8,23.4l6.6-10
			c0,0-11.6-7.3-20.8-20c-11.6-16-10.6-40-10.6-40l26.1,4c0,0,11.7,7.7,15.7,23.7c4,16-5.9,30.9-5.9,30.9l6.6,10
			c0,0,9.7-5.3,12-26.6c2.5-23.5-9.3-44.9-19.1-54C637.1,144.6,619,139.2,619,139.2z"/>
		<path class="st52" d="M634.3,150.1c-0.1-1.6,0-1.9,0.7-3.2c1.4-2.7,12.7-13.5,12.7-13.5l-9.5-8.6c0,0-10.8,10.9-12.9,12.5
			c-1.2,1-4.4,1.3-6.5,2C618,143.1,625.8,152,634.3,150.1z"/>
		
			<linearGradient id="SVGID_4_" gradientUnits="userSpaceOnUse" x1="3605.0085" y1="1042.2332" x2="3603.3484" y2="1060.9119" gradientTransform="matrix(0.7343 0.6788 -0.6788 0.7343 -1296.9146 -3082.104)">
			<stop  offset="0" style="stop-color:#F0C3A8"/>
			<stop  offset="1" style="stop-color:#FFFFFF"/>
		</linearGradient>
		<path class="st53" d="M634.6,147.5c0.1-0.2,0.2-0.4,0.3-0.7c1.5-2.6,12.7-13.5,12.7-13.5l-9.5-8.6c0,0-10.8,10.9-12.9,12.5
			c-0.3,0.3-0.7,0.4-1.1,0.5L634.6,147.5z"/>
		<path class="st5" d="M636.5,142.5c0.4,0.4,0.8,0.7,1.2,0.9c3.6-4,6.9-7.6,6.9-7.6l-7-5.9C634.2,134.5,633.2,139.7,636.5,142.5z"/>
		<path class="st49" d="M638.9,118.8c-3.3,5.1-7.1,14.7-1.9,19.8c8.8,8.5,14.9-2.3,19.3-9.3L638.9,118.8z"/>
		<path class="st2" d="M638.9,118.8c0,0,8.3,10.5,21.9,13c8.6,1.6,10.6-12.2,1.8-14.4c0,0-2.4-5.7-8.5-7.4
			C644.2,107.2,638.9,118.8,638.9,118.8z"/>
		<path class="st2" d="M635.5,124.9l3.2-0.4l3.3-4.3l-0.9-5c0,0-2.4,3.2-3.5,5.1C636.5,122.4,635.5,124.9,635.5,124.9z"/>
		<polygon class="st2" points="643.2,122.5 641.6,124.5 642.8,125.1 644.8,123.3 		"/>
		<path d="M647.4,128.2c-0.2,0.3-0.5,0.3-0.8,0.2c-0.3-0.2-0.3-0.5-0.2-0.8c0.2-0.3,0.5-0.3,0.8-0.2
			C647.5,127.5,647.6,127.9,647.4,128.2z"/>
		<path class="st54" d="M644.6,130c-0.5,0.8-1.6,1.1-2.4,0.5c-0.8-0.5-1.1-1.6-0.5-2.4c0.5-0.8,1.6-1.1,2.4-0.5
			C644.8,128.1,645.1,129.2,644.6,130z"/>
		<path class="st52" d="M651,130.5l0,4c0,0.5-0.5,0.8-0.9,0.6l-1.9-1L651,130.5z"/>
		<g>
			<path class="st49" d="M639.7,127.4c-1.8-1.2-2.2-3.7-1-5.5c1.2-1.8,3.7-2.2,5.5-1L639.7,127.4z"/>
			<path class="st54" d="M640.8,125.9c-0.9-0.7-1.2-2-0.5-2.9c0.7-0.9,2-1.2,2.9-0.5L640.8,125.9z"/>
		</g>
		<path class="st12" d="M618.7,139.3c2.5-1.8,3.6-2.6,3.6-2.6s1.8,5.4,4.3,8.1c2.5,2.7,5.9,5.7,5.9,5.7s-7.6,0.4-11.7-3
			C616.7,144.1,618.7,139.3,618.7,139.3z"/>
		<path class="st2" d="M632.4,150.5l3.6-5.3l1.2,1.9c0,0-1.3,2.4-3.1,3C632.4,150.7,632.4,150.5,632.4,150.5z"/>
	</g>
	<rect x="548.4" y="337.7" class="st5" width="92.7" height="16.5"/>
	<g>
		<path class="st13" d="M863.8,264.4c-3.3,21.9-4.2,63-4.2,63l11.6,1.3c0,0,6.5-47.3,9.5-62.8L863.8,264.4z"/>
		<path class="st13" d="M922.9,264c3.5,21.9,5,62.9,5,62.9l-11.6,1.4c0,0-7.2-47.2-10.3-62.6L922.9,264z"/>
		<path class="st28" d="M875.9,270c0,2.2-1.8,3.9-3.9,3.9c-2.2,0-3.9-1.8-3.9-3.9c0-2.2,1.8-3.9,3.9-3.9
			C874.2,266,875.9,267.8,875.9,270z"/>
		<path class="st28" d="M918.8,270c0,2.2-1.8,3.9-3.9,3.9c-2.2,0-3.9-1.8-3.9-3.9c0-2.2,1.8-3.9,3.9-3.9
			C917.1,266,918.8,267.8,918.8,270z"/>
		<path class="st2" d="M866.1,193.1c-3.7,23.7-6.1,73.5-6.1,73.5s4,2.9,13.3,3.2c9.3,0.3,12-1.1,12-1.1l7.3-60.1
			c0.1-0.5,0.8-0.5,0.8,0l6.5,58.8c0,0,3.2,1.9,13.6,1.3c10.4-0.5,12-4.5,12-4.5s-0.8-48.5-9.1-68.2L866.1,193.1z"/>
		<path class="st44" d="M868.4,150.2c0,0-4.4,23.5-5,42.7c0,0,16.2,14.2,31.2,13c15-1.2,21.8-12,21.8-12l-5.7-48.7L868.4,150.2z"/>
		<path class="st5" d="M873.7,152c0.8,7.5,3.8,29.2,5.5,33.7c1.7,4.6,11.8,26.4,11.8,26.4s-17.8-22.2-19.5-29.7S873.7,152,873.7,152
			z"/>
		<path class="st5" d="M907.3,149.9c0,0,9.2,15.3,8.8,23.2c-0.4,7.9-3.5,22.6-5.9,28.6c-2.4,6-9.6,13.6-9.6,13.6s5.4-17.9,7.4-33
			C910,166.9,907.3,149.9,907.3,149.9z"/>
		<path class="st13" d="M858.4,168.1c1.6,22,18.7,46.3,32.3,54c13.6,7.8,6.9-5,4.4-6.3c-2.6-1.3-10-10.7-16.4-24.2
			c-6.4-13.6-6-23.8-6-23.8L858.4,168.1z"/>
		<path class="st13" d="M913.2,169.3c0.2,12.2-3.8,38.3-14.4,47.7c-10.6,9.4,3.6,8.2,9.4,2.4c5.8-5.8,17-22.8,17.8-50.3L913.2,169.3
			z"/>
		<path class="st44" d="M861.6,141.4c3-7.8,18.2-14.4,30.6-14.6c12.4-0.2,27.2,6,30,16c2.8,10,5,20.4,5.2,27.4c0,0-8,2.6-15,1
			c0-5.4-3-17.9-5.4-21.6h-32c-1.3,4.8-1.4,17-1.2,21c0,0-8.6,2.2-16,0.4C857.8,170.9,856.2,155.3,861.6,141.4z"/>
		<path class="st13" d="M885.6,120.4c-0.1,2.7-0.3,6.7-1.4,9.5c0,0,6.5,6.7,9,6.7c2.5,0,8-7,8-7s-1.1-0.6-1.3-3
			c-0.2-2.3,0-5.5,0-5.5L885.6,120.4z"/>
		<path class="st5" d="M899.8,125.7c-0.2-5.5,0.7-10.9,0.7-10.9l-14.6,0c0,0-0.2,4.7-0.6,9.8c1.5,2.3,3.9,4.9,7.3,5
			C896.5,129.6,898.4,127.5,899.8,125.7z"/>
		<path class="st55" d="M903.4,112.2c0,7.4-4.5,13.3-10.4,13.4c-6,0.1-10.4-6-10.4-13.4s4.6-13.4,10.4-13.4S903.4,104.8,903.4,112.2
			z"/>
		<path d="M887.9,115.8c-0.2,0.3-0.5,0.3-0.8,0.2c-0.3-0.2-0.3-0.5-0.2-0.8c0.2-0.3,0.5-0.3,0.8-0.2
			C888,115.2,888.1,115.6,887.9,115.8z"/>
		<path d="M898.7,116.1c-0.2,0.3-0.5,0.3-0.8,0.2c-0.3-0.2-0.3-0.5-0.2-0.8c0.2-0.3,0.5-0.3,0.8-0.2
			C898.7,115.5,898.8,115.8,898.7,116.1z"/>
		<path class="st28" d="M887.4,118.9c-0.5,0.8-1.6,1.1-2.4,0.5c-0.8-0.5-1.1-1.6-0.5-2.4c0.5-0.8,1.6-1.1,2.4-0.5
			C887.7,117,887.9,118.1,887.4,118.9z"/>
		<path class="st28" d="M901.7,119.3c-0.5,0.8-1.6,1.1-2.4,0.5c-0.8-0.5-1.1-1.6-0.5-2.4c0.5-0.8,1.6-1.1,2.4-0.5
			C902,117.4,902.2,118.5,901.7,119.3z"/>
		<path class="st28" d="M893.7,116.1l1.4,3.8c0.2,0.4-0.2,0.9-0.7,0.9l-2.2-0.2L893.7,116.1z"/>
		<g>
			<path class="st28" d="M883.4,116.6c-2.2,0-4-1.7-4-3.9c0-2.2,1.7-4,3.9-4L883.4,116.6z"/>
			<path class="st29" d="M883.4,114.7c-1.1,0-2.1-0.9-2.1-2c0-1.1,0.9-2.1,2-2.1L883.4,114.7z"/>
		</g>
		<path class="st5" d="M884.5,107.6c2.1,5.1,5.5,8.3,7.8,8.7c2.3,0.4,3.4-0.9,3.4-0.9s2.4,2.8,4.5,2.9c2.1,0.1,2.2-0.2,2.2-0.2
			s1.3-4.1,1.5-6.5C904,109.2,884.5,107.6,884.5,107.6z"/>
		<g>
			<path class="st28" d="M902.7,116.7c2.2,0,4-1.7,4-3.9c0-2.2-1.7-4-3.9-4L902.7,116.7z"/>
			<path class="st29" d="M902.7,114.9c1.1,0,2.1-0.9,2.1-2c0-1.1-0.9-2.1-2-2.1L902.7,114.9z"/>
		</g>
		<path class="st2" d="M895.2,111.4c4.1,2.9,7.3,3,8.9,1c2.3-2.9,2.3-12-2.4-15.7c-2.7-2.2-4.3-3.9-6.9-4c-3.4-0.1-4.7,0.6-8.9,3.1
			c-4.1,2.5-3.9,10.3-3.9,13l1.1,0.3l0.3,3.9c0,0,0.7,0.9,0.8,0.7c0.1-0.2,0.5-6.1,0.5-6.1s4.2,5,7.1,5.2
			C894.3,113,895.2,111.4,895.2,111.4z"/>
		<g>
			<path class="st25" d="M859.4,323.7c0,0,2.3,1.7,6.3,1.7c4,0,6.4-1.7,6.4-1.7l-0.3,11.2l-15.3-0.5
				C857.9,331.8,859.3,325,859.4,323.7z"/>
			<path class="st12" d="M857.4,331c3.7-1.2,5-1.7,8.6-1.9c4.3-0.2,5.8,2.1,5.8,2.1l0.3,4.2c0.1,1.3-0.9,2.5-2.3,2.5h-13.6
				c-1,0-1.6-1-1.2-1.9L857.4,331z"/>
			<path class="st8" d="M870.1,336.3h-13.6c-0.6,0-1-0.3-1.2-0.8l-0.2,0.4c-0.4,0.9,0.2,1.9,1.2,1.9h13.6c1.3,0,2.4-1.1,2.3-2.5
				l0-0.3C871.8,335.8,871,336.3,870.1,336.3z"/>
		</g>
		<g>
			<path class="st25" d="M928,323.7c0,0-2.3,1.7-6.3,1.7c-4,0-6.4-1.7-6.4-1.7l0.3,11.2l15.3-0.5C929.6,331.8,928.2,325,928,323.7z"
				/>
			<path class="st12" d="M930,331c-3.7-1.2-5-1.7-8.6-1.9c-4.3-0.2-5.8,2.1-5.8,2.1l-0.3,4.2c-0.1,1.3,0.9,2.5,2.3,2.5h13.6
				c1,0,1.6-1,1.2-1.9L930,331z"/>
			<path class="st8" d="M917.4,336.3H931c0.6,0,1-0.3,1.2-0.8l0.2,0.4c0.4,0.9-0.2,1.9-1.2,1.9h-13.6c-1.3,0-2.4-1.1-2.3-2.5l0-0.3
				C915.7,335.8,916.5,336.3,917.4,336.3z"/>
		</g>
	</g>
	<path class="st10" d="M919.6,500.8c-0.4,0-0.8-0.3-0.8-0.6l-22.4-280.9c0-0.3,0.3-0.6,0.7-0.7c0.4,0,0.8,0.2,0.8,0.6l22.4,280.9
		C920.4,500.5,920.1,500.8,919.6,500.8C919.6,500.8,919.6,500.8,919.6,500.8z"/>
	<path class="st14" d="M1646,314.8c-7.5,0-13.6-6.1-13.6-13.6c0-7.5,6.1-13.6,13.6-13.6c0.4,0,0.8,0,1.1,0.1
		c2.8-8,10.3-13.7,19.3-13.7c8.9,0,16.5,5.7,19.3,13.7c0.6-0.1,1.1-0.1,1.7-0.1c2.2,0,4.2,0.5,6,1.4c3-5.5,8.8-9.2,15.4-9.2
		c9.7,0,17.5,7.8,17.5,17.5c0,9.7-7.8,17.5-17.5,17.5H1646z"/>
	<path class="st1" d="M432,284.9c14.3,0,26-11.6,26-26c0-14.3-11.6-26-26-26c-3.1,0-6.1,0.6-8.9,1.6c-4.5-17.2-20.2-29.9-38.8-29.9
		c-18,0-33.3,11.9-38.3,28.3c-4.2-2.5-9.1-4-14.3-4c-15.5,0-28,12.5-28,28s12.5,28,28,28H432z"/>
	<path class="st1" d="M1072.4,132.3c7.3,0,13.2-5.9,13.2-13.2c0-7.3-5.9-13.2-13.2-13.2c-1.6,0-3.1,0.3-4.5,0.8
		c-2.3-8.7-10.2-15.2-19.7-15.2c-9.2,0-16.9,6-19.5,14.3c-2.1-1.3-4.6-2-7.3-2c-7.8,0-14.2,6.4-14.2,14.2s6.4,14.2,14.2,14.2H1072.4
		z"/>
	<g>
		<path class="st56" d="M832.8,633.6c17.5-6.7,34.6-22.7,46.1-34c4.7-4.7,9.4-9.4,14-14.2l47.9,45.6c-30.2,31-62.6,63.4-105.8,70.6
			l22.5-32.6L832.8,633.6z"/>
		<path class="st56" d="M1112.9,491.8l-38,50.1l0-17.8c-0.8,0-1.5,0-2.3,0c-22.5,0-46.8,22.5-61.9,37.3c-4.5,4.5-9.6,9.3-14.1,13.9
			l-47.3-45.9c34.1-35,71-71.6,123.2-71.6c0.8,0,1.7,0,2.5,0l0-16.4L1112.9,491.8z"/>
		<path class="st56" d="M1036.2,668.4l38-50.1l-0.1,18.4c25-0.6,45.9-17.6,52.6-40.5l33.9,23.7l33.6-23.1
			c-8,59.6-58.7,105.6-120.3,106.3l0,15.7L1036.2,668.4z"/>
		<path class="st56" d="M1160.7,610.2l-50.1-38l17.8,0c-2.8-19.1-15.1-35.1-32-42.9l26.2-37.4l-21.2-30.7
			c51.4,12.4,90.1,57,93.6,111.3l16.1,0L1160.7,610.2z"/>
	</g>
</g>
<path class="st57" d="M812.2,620.9l-38-50.1l0.1,17.4c-12.3-1.6-23.8-7.1-32.7-16.1c-6.8-6.8-11.4-14.6-14.1-22.8l-32.1,22.4
	l-35.8-24.7c7.1,58.5,55.3,104.3,114.8,107.6l0,16.6L812.2,620.9z"/>
<path class="st57" d="M695.4,562.1l50.1-38l-20.1,0.1c2.5-18.5,13.9-35.4,31.6-43.4l-25.4-36.4l21.7-31.4
	c-51.6,12.2-90.6,57-94.1,111.4l-14.1,0L695.4,562.1z"/>
<path class="st57" d="M909.3,485.9l47,46.3c6.2,6.4,12.6,13,18.9,19.3c10.6,10.4,25.6,24.5,41.4,32l-25.7,36.8l22.1,32
	c-40.6-9.2-71.5-40.6-100.6-70.4c-17.5-18.5-35.4-34.4-52.5-51.9c-18.5-19.1-50.6-54.1-78.4-54.1l-0.2,0l-1.2,0c-0.3,0-0.6,0-0.9,0
	l0.1,18.5l-38-50.1l37.7-50.4l0,15.8c0.8,0,1.7,0,2.5,0h0.1l0.1,0c3.9,0.1,7.7,0.3,11.6,0.7C842,415.8,876.8,452.5,909.3,485.9z"/>
<g>
	<path class="st15" d="M389.5,740.5V789c0,5.4,2.9,10.3,7.5,13l42,24.3c4.6,2.7,10.4,2.7,15,0l42-24.3c4.6-2.7,7.5-7.6,7.5-13v-48.5
		c0-5.4-2.9-10.3-7.5-13l-42-24.3c-4.6-2.7-10.4-2.7-15,0l-42,24.3C392.4,730.2,389.5,735.1,389.5,740.5z"/>
	<path class="st58" d="M392.4,799.3l51.2,29.6c1.6,0.9,2.9,0.2,2.9-1.7v-59.1c0-1.8-1.3-4.1-2.9-5l-51.2-29.6
		c-1.6-0.9-2.9-0.2-2.9,1.7v59.1C389.5,796.2,390.8,798.4,392.4,799.3z"/>
	<path class="st59" d="M450.5,765.2c-0.2,0-0.3-0.1-0.4-0.2c-0.1-0.2,0-0.5,0.2-0.6l49.2-28.4c0.2-0.1,0.5,0,0.6,0.2
		c0.1,0.2,0,0.5-0.2,0.6l-49.2,28.4C450.7,765.2,450.6,765.2,450.5,765.2z"/>
</g>
<g>
	<path class="st13" d="M316.3,729.5c-0.5,10.6,14.3,29.3,33.7,43.2c19.4,13.9,36,23.4,45.7,27.8c9.7,4.4,14.3,5.9,15,4.5
		c0.4-0.7-0.8-1.4-2.1-1.9c1.4,0.3,2.7,0.4,3.1-0.3c0.4-0.7-0.9-1.5-2.2-2.1c1.4,0.4,2.9,0.7,3.3-0.2c0.5-0.9-1.3-1.9-3-2.6
		c1.3,0.4,2.7,0.5,2.9-0.2c0.5-1.3-6.7-4.1-8.9-4.9c1,0.4,3,1.1,4.1,1.3c0.8,0.2,1.5-0.5,1.5-1c0.1-0.5-0.4-0.7-2.1-1.5
		c-3.3-1.5-11.4-4.2-28.3-14.5c-16.9-10.3-35.8-27-42.6-38.6c-1-1.6-2.5-4.6-3.4-6.2C328.3,728.8,316.9,718.2,316.3,729.5z"/>
	<path class="st28" d="M351.3,773.6c2.2,1.5,4.3,3,6.4,4.4c0.2-0.2,0.3-0.4,0.4-0.7c1-1.9,0.2-4.3-1.7-5.3
		C354.6,771.1,352.3,771.8,351.3,773.6z"/>
	<path class="st48" d="M393.8,785.4c-0.9,2.8-2.7,7.7-5.3,11.5c0.8,0.4,1.7,0.9,2.5,1.3c0.8-1.1,1.5-2.3,2.1-3.5
		c1.5-2.9,2.6-5.9,3.3-7.9C395.5,786.3,394.7,785.9,393.8,785.4z"/>
</g>
</svg>
