<?xml version="1.0" encoding="utf-8"?>
<!-- Generator: Adobe Illustrator 24.3.0, SVG Export Plug-In . SVG Version: 6.00 Build 0)  -->
<svg version="1.1" id="Layer_1" xmlns="http://www.w3.org/2000/svg" xmlns:xlink="http://www.w3.org/1999/xlink" x="0px" y="0px"
	 viewBox="0 0 1920 1080" style="enable-background:new 0 0 1920 1080;" xml:space="preserve">
<style type="text/css">
	.st0{fill:#007EC3;}
	.st1{fill:#B9EDFF;}
	.st2{fill:#EDF9FD;}
	.st3{fill:#184657;}
	.st4{fill:#F0C3A8;}
	.st5{fill:#004A6E;}
	.st6{fill:#F5CFBF;}
	.st7{opacity:0.58;fill:#CBC7FF;}
	.st8{fill:#23C6FD;}
	.st9{fill:#FCC14A;}
	.st10{opacity:0.51;fill:#E1DEFF;}
	.st11{fill:#F29D7E;}
	.st12{fill:#ED6D53;}
	.st13{fill:#1B4E61;}
	.st14{fill:#FF6200;}
	.st15{fill:#FAF8DC;}
	.st16{filter:url(#Adobe_OpacityMaskFilter);}
	.st17{fill:url(#SVGID_2_);}
	.st18{mask:url(#SVGID_1_);fill:url(#SVGID_3_);}
	.st19{filter:url(#Adobe_OpacityMaskFilter_1_);}
	.st20{filter:url(#Adobe_OpacityMaskFilter_2_);}
	.st21{mask:url(#SVGID_4_);fill:url(#SVGID_5_);}
	.st22{opacity:0.29;fill:url(#SVGID_6_);}
	.st23{fill:#E8A68E;}
	.st24{fill:url(#SVGID_7_);}
	.st25{fill:url(#SVGID_8_);}
	.st26{opacity:0.72;fill:url(#SVGID_9_);}
	.st27{filter:url(#Adobe_OpacityMaskFilter_3_);}
	.st28{filter:url(#Adobe_OpacityMaskFilter_4_);}
	.st29{mask:url(#SVGID_10_);fill:url(#SVGID_11_);}
	.st30{opacity:0.29;fill:url(#SVGID_12_);}
	.st31{fill:#C3B9DD;}
	.st32{fill:#4D8499;}
	.st33{fill:#FCFBED;}
	.st34{opacity:0.39;}
	.st35{fill:#FFFFFF;}
	.st36{fill:#CBE8EE;}
	.st37{fill:#F29D9D;}
	.st38{opacity:0.58;fill:#BBC8EB;}
	.st39{fill:#7ABA8E;}
	.st40{fill:#B3B3B3;}
	.st41{fill:#2C544A;}
	.st42{opacity:0.49;fill:#65A36C;}
	.st43{fill:url(#SVGID_13_);}
	.st44{fill:#9C5F2D;}
	.st45{fill:#FFFFFF;stroke:#004A6E;stroke-width:5.6693;stroke-miterlimit:10;}
	.st46{fill:none;stroke:#B9EDFF;stroke-width:2.8346;stroke-miterlimit:10;}
	.st47{fill:#E8A48B;}
	.st48{fill:none;stroke:#23C6FD;stroke-width:14.1732;stroke-miterlimit:10;}
	.st49{fill:none;stroke:#23C6FD;stroke-width:14.1732;stroke-miterlimit:10;stroke-dasharray:35.2072,20.5376;}
	.st50{fill:none;stroke:#23C6FD;stroke-width:14.1732;stroke-miterlimit:10;stroke-dasharray:34.8291,20.317;}
</style>
<rect id="Rectangle_1180_10_" x="0.2" y="2" class="st0" width="1920" height="1080"/>
<path class="st1" d="M2103.2,777.4c90.7,0,164.2-73.5,164.2-164.2S2193.9,449,2103.2,449c-19.7,0-38.5,3.7-56,10
	c-28.5-109-127.7-189.3-245.6-189.3c-114.1,0-210.6,75.2-242.6,178.8c-26.5-15.8-57.4-25.1-90.5-25.1c-97.8,0-177,79.2-177,177
	s79.2,177,177,177H2103.2z"/>
<path class="st1" d="M391.6,669.4c90.7,0,164.2-73.5,164.2-164.2S482.3,341,391.6,341c-19.7,0-38.5,3.7-56,10
	C307,242.1,207.9,161.7,90,161.7c-114.1,0-210.6,75.2-242.6,178.8c-26.5-15.8-57.4-25.1-90.5-25.1c-97.8,0-177,79.2-177,177
	s79.2,177,177,177H391.6z"/>
<g>
	<path class="st2" d="M815.8,1010.1c0,13.8,5.2,26.3,13.7,35.9h164.1c8.5-9.9,13.5-22.7,13.5-36.8c0-24.2-15.1-44.8-36.5-53
		c0.1-1.4,0.1-2.8,0.1-4.2c0-31.6-25.6-57.1-57.1-57.1c-31.6,0-57.1,25.6-57.1,57.1c0,1.9,0.1,3.7,0.3,5.6
		C833.2,963.5,815.8,984.7,815.8,1010.1z"/>
	<path class="st3" d="M1419.3,655.8c0,0,23.6,225.4,32.8,391.9h-150.7l-32.8-297.5l-2.6,3.9l-22.7,293.6H1093l-17-292.3
		L1419.3,655.8z"/>
	<g>
		<path class="st4" d="M1506.2,522.5l27.5-8.8c0,0,22.3,40,29.5,84.5c7.2,44.6-5.2,61.3-16.7,65.9
			C1535,668.6,1506.2,522.5,1506.2,522.5z"/>
		<path class="st5" d="M1164.3,85.9c-32.4,4-45.2,20.9-45.2,20.9s-68.1-50.6-43.8-96.4c24.3-45.8,66.1-26.3,91.7-7.4
			c25.6,18.9,28.8,16.4,63.8,14.4c35.1-2,58.9,23.6,58.9,59.3s28.3,73.3-20.2,119.8C1212.4,251.1,1164.3,85.9,1164.3,85.9z"/>
		<path class="st6" d="M1291.7,396.4c-6.5,10.1-14.2,20.4-24.5,27.4c-16.3,2.8-32.4,6.1-47.7,8.4c-15-2.8-28.2-9.6-41.6-18.8
			c-24.1-16.7-44-38.6-63.3-61.1c51.3-27.4,64-19.2,66-41.5c2.1-24.6-25.4-148.7-25.4-148.7l108.9-16.8c0,0,25,122.8,31.8,142.9
			c4.1,12.1,20.4,18.3,43.2,24C1326.3,341.6,1309.2,369.3,1291.7,396.4z"/>
		<path class="st7" d="M1188.8,270.3c-4.4,0.8-8.5,1.1-12.5,1.2c-7.9-42.5-16.2-82.2-16.2-82.2l73.6-11.7
			C1238.6,224.3,1223.5,264.6,1188.8,270.3z"/>
		<path class="st8" d="M1017.7,567.4c0,0-6.2-139,33.7-175.1c40-36,80.3-49.7,89.5-54.3c9.2-4.6,30.8-13.8,30.8-13.8
			s14.4,25.6,60.3,19.7c45.9-5.9,76.7-44.6,76.7-44.6s26.2,11.8,44.6,15.7c18.3,3.9,93.7,11.1,123.8,55
			c30.1,43.9,68.1,148.1,68.1,148.1s-22.9,15.7-64.9,30.8C1438.4,564.1,1017.7,567.4,1017.7,567.4z"/>
		<path class="st5" d="M1229.3,358.3c23.1-2.1,60.9-9.3,94.1-52.8c-8.5-3.3-14.8-6.2-14.8-6.2s-30.8,38.7-76.7,44.6
			c-45.9,5.9-60.3-19.7-60.3-19.7s-6.1,2.6-13.2,5.7C1176.4,356.5,1206.8,360.4,1229.3,358.3z"/>
	</g>
	<g>
		<path class="st9" d="M821.9,207.7c18.3-11.1,24.7-40.6,15.3-55.5c-7-11.1-23.3-14.2-24.5-25.3c-2.2-21.4-30.6-41.9-55.5-34.5
			c-32.1,9.6-44.4-4.3-58.3-24.5c-15-21.7-22.9-43.2-74.7-43.2c-51.8,0-65.5-8.5-70.8-34.1c-5.2-25.6-47.8-53.1-95.7-30.8
			C409.9-18,392.2,3,365.4-12.7c-26.9-15.7-53.1-37.4-83.2-15.1c-30.1,22.3-18.3,78,15.1,83.2c33.4,5.2,9.8,41.9-3.3,64.2
			c-13.1,22.3,5.2,62.9,49.8,55.7c44.6-7.2,51.8,6.6,61.6,30.8c9.8,24.2,45.9,29.5,65.5,19.7c19.7-9.8,42.6-16.4,64.9,3.3
			c22.3,19.7,28.8,30.8,60.3,23.6c31.5-7.2,36.5-1.7,51.5,10c15.1,11.8,50.7,5,50.7,5L821.9,207.7z"/>
		<path class="st10" d="M745.8,239.1l6.6-25.3l-88.2-18.3c-43.7-28.8-55-23.6-87.4-21c-32.3,2.6-21.8-33.2-52.4-49.8
			c-30.6-16.6-41.9,11.4-71.6,5.2c-29.7-6.1-15.7-34.1-54.2-38.4c-36.3-4.1-45.4,22.1-95.5,12.5c-3.1,5.6-6.3,10.9-9.1,15.6
			c-13.1,22.3,5.2,62.9,49.8,55.7c44.6-7.2,51.8,6.6,61.6,30.8c9.8,24.2,45.9,29.5,65.5,19.7c19.7-9.8,42.6-16.4,64.9,3.3
			c22.3,19.7,28.8,30.8,60.3,23.6c31.5-7.2,35.6-3.5,50.7,8.3c15.1,11.8,48.9,9.6,48.9,9.6L745.8,239.1z"/>
		<path class="st11" d="M745.1,409.6c-1.7-24.3,26.8-152.4,26.8-152.4l-101.7-16c0,0-26.1,126.9-32.7,146.7
			c-6.6,19.8-44.2,23.7-89.1,36.5c-6.2,1.8-12.5,4.5-19,8.2c3.7,16.1,10.6,31.5,17.8,46.2c7.9,16.1,16.5,31.8,24.2,48
			c40.3,28.1,81.9,19.9,125,26.3c14.5,2.2,54.7-18.7,67.3-15.7c21.7-27.6,30.1-54,48.2-84.1C759.5,422.8,746.7,432.4,745.1,409.6z"
			/>
		<path class="st7" d="M686.5,283.3c3,18.8,19,72.1,64.1,82c4.1-22.5,8.7-46.5,12.7-66.1L686.5,283.3z"/>
		
			<ellipse transform="matrix(0.9602 -0.2792 0.2792 0.9602 -34.6351 200.7446)" class="st11" cx="687.3" cy="221.9" rx="35.3" ry="35.3"/>
		
			<ellipse transform="matrix(0.9716 -0.2366 0.2366 0.9716 -32.9974 168.9206)" class="st12" cx="687.3" cy="221.9" rx="18.6" ry="18.6"/>
		<path class="st11" d="M812.8,266.8c-17,46.8-44.5,79.5-91.8,61.9c-27.1-10-49.8-60.5-32.8-107.3s37.2-78,94-61.8
			C837.2,175.3,829.8,220,812.8,266.8z"/>
		<path d="M743.3,231c-0.9,2.4-3.6,3.7-6,2.8c-2.4-0.9-3.7-3.6-2.8-6c0.9-2.4,3.6-3.7,6-2.8C742.9,225.9,744.1,228.6,743.3,231z"/>
		<path d="M803.8,251.6c-0.9,2.4-3.5,3.6-5.9,2.8c-2.4-0.9-3.6-3.5-2.8-5.9c0.9-2.4,3.5-3.6,5.9-2.8
			C803.5,246.6,804.7,249.2,803.8,251.6z"/>
		<path class="st12" d="M812.5,266.2c-1.7-1.7-3.9-2.9-6.4-3.6c-8.2-2.3-16.8,2.4-19.1,10.6c-2.3,8.2,2.4,16.8,10.6,19.1
			c1.2,0.4,2.5,0.5,3.7,0.6c4.5-8,8.3-16.8,11-26.4C812.5,266.4,812.5,266.3,812.5,266.2z"/>
		
			<ellipse transform="matrix(0.8875 -0.4607 0.4607 0.8875 -34.0056 361.4789)" class="st12" cx="723.4" cy="250.4" rx="15.5" ry="15.5"/>
		<path class="st12" d="M770.3,242l5.1,26.1c0.6,3.1-2.3,5.7-5.3,4.9l-13.9-3.8L770.3,242z"/>
		<path class="st13" d="M676.3,245.1c-0.6,1.6-2.3,2.4-3.8,1.8c-1.6-0.6-2.4-2.3-1.8-3.8c0.6-1.6,2.3-2.4,3.8-1.8
			C676.1,241.8,676.9,243.5,676.3,245.1z"/>
		<path class="st7" d="M652.9,213c26.2,16.4,45.6,9.8,60,4.6c14.4-5.2,19-41.3,39.3-43.9c20.3-2.6,22.4,13.5,44,11.8
			c25.2-2,28.1,16.4,28.1,16.4s1.4-21.3-32-40.3c-33.4-19-72.2-25.9-97.1-7.5c-8.2,6-7.3,23.2-16.3,28.8
			C656.6,197,652.9,213,652.9,213z"/>
		<path class="st9" d="M660.1,192.7c26.2,16.4,36.7,21.6,51.1,16.4c14.4-5.2,19-41.3,39.3-43.9c20.3-2.6,21.6,13.8,43.2,15.1
			c23.2,1.3,28.8,13.1,28.8,13.1s14.4-26.2-19-45.2c-33.4-19-85.2-21-110.1-2.6S660.1,192.7,660.1,192.7z"/>
		<path class="st14" d="M860.2,1047.7H408c0,0,63.8-264.7,129.3-396.7C601.6,667,697,671.1,761,653.6
			C761,653.6,855.8,901.8,860.2,1047.7z"/>
		<path class="st8" d="M802.9,596.9c-2.8,23.7-41.9,56.8-41.9,56.8c-64,17.5-159.5,13.3-223.7-2.6c0,0-7.4-57.7-21.4-90
			c0,0-3.1-28-25.8-51.6c-12.9-13.4-21.6-17-26.7-17.6c-2-0.2-3-2.6-1.7-4.1c7.9-9.6,24-28.5,38.9-39.6c15-11.2,36.5-22.3,47.8-25.8
			c1.7-0.5,3.4,0.6,3.6,2.4c1.7,17.1,11.7,96.2,50.8,107.3c43.9,12.5,167.8-3.9,167.8-3.9S807.3,560.2,802.9,596.9z"/>
		<path class="st3" d="M463.4,491.9c5.1,0.6,13.8,4.2,26.8,17.6c22.7,23.6,25.8,51.5,25.8,51.5c0.5,1.2,1.1,2.5,1.6,3.8
			c2.6-2.7,5.2-5.7,8-8.9c18-21,3.2-47.9-7.2-57.7c-9.3-8.7-25.2-19.3-47-21.8c-3.8,4.3-7.1,8.3-9.6,11.3
			C460.4,489.3,461.4,491.6,463.4,491.9z"/>
		<path class="st7" d="M533.5,576.5c-4.3-19.4-8.9-34.5-8.9-34.5l-14.2-1.1c4.7,11.6,5.6,20.2,5.6,20.2c5.4,12.5,9.8,28.7,13.2,43.9
			C532.2,595.9,533.2,585.8,533.5,576.5z"/>
		<path class="st15" d="M748.6,421.5c-13.9,10-32.5,15.5-54,15.5c-24.1,0-52.8-11.5-67.6-36.8c-0.7,0.5-1.4,0.9-2.2,1.4
			c13.7,23.2,40.4,38.1,69.8,38.1c22.2,0,41.4-5.6,55.8-16.1C749.8,422.8,749.2,422.2,748.6,421.5z"/>
		<path class="st3" d="M573.4,529.7c22.6,22.6,53.1,22.9,99.9,20c38.1-2.4,89.4-8.9,107.2-11.3c-5.6-6.5-9.9-10.4-9.9-10.4
			s-123.8,16.4-167.8,3.9c-39.1-11.1-49.1-90.2-50.8-107.3c-0.2-1.8-1.9-2.9-3.6-2.4c-3.1,1-6.9,2.5-11.2,4.4
			C543.4,462.6,552.3,508.6,573.4,529.7z"/>
		<g>
			<path class="st11" d="M894.2,477.2c0,0,18.3-101.8,22.7-134.1c2.4-17.5,6.1-48.2,10.8-72.4c3.9-20.5,7.7-36.1,13.3-35.5
				c9.2,1.1,4.3,20.3,2.6,38.7c-1,10.9-1.1,23.2-1.1,30.4c0,2.2,2.7,3.4,4.3,1.8c8.3-8.4,26.8-25,37.4-16.7
				c14,10.9-12.5,46.1-12.5,46.1l21.3,9.8c-2.5,10-18.6,30.5-23.5,33.5l-4.2,109.8L894.2,477.2z"/>
			<defs>
				<filter id="Adobe_OpacityMaskFilter" filterUnits="userSpaceOnUse" x="894.7" y="235.1" width="98.4" height="254.3">
					<feColorMatrix  type="matrix" values="1 0 0 0 0  0 1 0 0 0  0 0 1 0 0  0 0 0 1 0"/>
				</filter>
			</defs>
			<mask maskUnits="userSpaceOnUse" x="894.7" y="235.1" width="98.4" height="254.3" id="SVGID_1_">
				<g class="st16">
					<linearGradient id="SVGID_2_" gradientUnits="userSpaceOnUse" x1="951.9111" y1="346.1012" x2="951.9111" y2="415.5833">
						<stop  offset="0" style="stop-color:#FFFFFF"/>
						<stop  offset="1" style="stop-color:#000000"/>
					</linearGradient>
					<rect x="903" y="233" class="st17" width="97.9" height="183.5"/>
				</g>
			</mask>
			<linearGradient id="SVGID_3_" gradientUnits="userSpaceOnUse" x1="950.1533" y1="362.3941" x2="931.4777" y2="363.3771">
				<stop  offset="0" style="stop-color:#F0C3A8"/>
				<stop  offset="1" style="stop-color:#FFFFFF"/>
			</linearGradient>
			<path class="st18" d="M965,489.4l4.6-110.6c6.1-3.9,21.1-24.7,23.5-33.5l-21.3-9.8c0,0,26.4-35.2,12.5-46.1
				c-10.6-8.3-29.1,8.2-37.4,16.7c-1.6,1.6-4.3,0.5-4.3-1.8c0-7.2,0.1-19.5,1.1-30.4c1.6-18.3,6.5-37.6-2.6-38.7
				c-5.6-0.7-9.3,15-13.3,35.5c-4.6,24.2-8.5,54.9-10.8,72.4c-1.7,12.8-18.7,112.4-22.3,133.7C909.5,477.5,959.6,489.2,965,489.4z"
				/>
			<defs>
				<filter id="Adobe_OpacityMaskFilter_1_" filterUnits="userSpaceOnUse" x="894.7" y="235.1" width="98.4" height="254.3">
					<feFlood  style="flood-color:white;flood-opacity:1" result="back"/>
					<feBlend  in="SourceGraphic" in2="back" mode="normal"/>
				</filter>
			</defs>
			<mask maskUnits="userSpaceOnUse" x="894.7" y="235.1" width="98.4" height="254.3" id="SVGID_4_">
				<g class="st19">
					<defs>
						<filter id="Adobe_OpacityMaskFilter_2_" filterUnits="userSpaceOnUse" x="894.7" y="235.1" width="98.4" height="254.3">
							<feFlood  style="flood-color:white;flood-opacity:1" result="back"/>
							<feBlend  in="SourceGraphic" in2="back" mode="normal"/>
						</filter>
					</defs>
					<mask maskUnits="userSpaceOnUse" x="894.7" y="235.1" width="98.4" height="254.3" id="SVGID_4_">
						<g class="st20">
						</g>
					</mask>
					<linearGradient id="SVGID_5_" gradientUnits="userSpaceOnUse" x1="977.5546" y1="264.3501" x2="959.8619" y2="328.7864">
						<stop  offset="0" style="stop-color:#FFFFFF"/>
						<stop  offset="1" style="stop-color:#000000"/>
					</linearGradient>
					<path class="st21" d="M965,489.4l4.6-110.6c6.1-3.9,21.1-24.7,23.5-33.5l-21.3-9.8c0,0,26.4-35.2,12.5-46.1
						c-10.6-8.3-29.1,8.2-37.4,16.7c-1.6,1.6-4.3,0.5-4.3-1.8c0-7.2,0.1-19.5,1.1-30.4c1.6-18.3,6.5-37.6-2.6-38.7
						c-5.6-0.7-9.3,15-13.3,35.5c-4.6,24.2-8.5,54.9-10.8,72.4c-1.7,12.8-18.7,112.4-22.3,133.7C909.5,477.5,959.6,489.2,965,489.4z
						"/>
				</g>
			</mask>
			<linearGradient id="SVGID_6_" gradientUnits="userSpaceOnUse" x1="977.5546" y1="264.3501" x2="959.8619" y2="328.7864">
				<stop  offset="0" style="stop-color:#FFFFFF"/>
				<stop  offset="1" style="stop-color:#F5D0BA"/>
			</linearGradient>
			<path class="st22" d="M965,489.4l4.6-110.6c6.1-3.9,21.1-24.7,23.5-33.5l-21.3-9.8c0,0,26.4-35.2,12.5-46.1
				c-10.6-8.3-29.1,8.2-37.4,16.7c-1.6,1.6-4.3,0.5-4.3-1.8c0-7.2,0.1-19.5,1.1-30.4c1.6-18.3,6.5-37.6-2.6-38.7
				c-5.6-0.7-9.3,15-13.3,35.5c-4.6,24.2-8.5,54.9-10.8,72.4c-1.7,12.8-18.7,112.4-22.3,133.7C909.5,477.5,959.6,489.2,965,489.4z"
				/>
			<path class="st11" d="M991.2,326.4c6.6,3.7,9.8,13.1,3.7,19.2c-6.1,6.1-32.1,21.8-36.3,19c-4.2-2.8-4.4-12.2,1.5-15.5
				C966.1,345.9,991.2,326.4,991.2,326.4z"/>
			<path class="st23" d="M965.6,359c-1.7-1.5-7.3,1.6-9.1,2.8c0.5,1.2,1.3,2.2,2.2,2.9c1.3,0.9,4.8-0.1,9.1-2
				C967.5,361.8,966.9,360.2,965.6,359z"/>
			<linearGradient id="SVGID_7_" gradientUnits="userSpaceOnUse" x1="974.3369" y1="344.1187" x2="982.3641" y2="354.4394">
				<stop  offset="0" style="stop-color:#F0C3A8"/>
				<stop  offset="1" style="stop-color:#FFFFFF"/>
			</linearGradient>
			<path class="st24" d="M991.2,326.4c6.6,3.7,9.8,13.1,3.7,19.2c-6.1,6.1-32.1,21.8-36.3,19c-4.2-2.8-4.4-12.2,1.5-15.5
				C966.1,345.9,991.2,326.4,991.2,326.4z"/>
			<path class="st11" d="M982.7,311.8c5.9,1.1,11.8,2.2,13.3,9.2c1.5,7-29.1,33-38.2,34.9c-9.2,2-11.1-12.5-1.1-19
				C966.8,330.4,982.7,311.8,982.7,311.8z"/>
			<path class="st23" d="M960.1,347.7c-1.7-1.8-8.4,2.5-9.8,3.4c0.9,3.4,3.5,5.6,7.5,4.8c1.4-0.3,3.2-1.1,5.3-2.3
				C962.9,351.5,961.8,349.6,960.1,347.7z"/>
			<linearGradient id="SVGID_8_" gradientUnits="userSpaceOnUse" x1="969.6403" y1="330.7469" x2="977.5037" y2="341.8867">
				<stop  offset="0" style="stop-color:#F0C3A8"/>
				<stop  offset="1" style="stop-color:#FFFFFF"/>
			</linearGradient>
			<path class="st25" d="M982.7,311.8c5.9,1.1,11.8,2.2,13.3,9.2c1.5,7-29.1,33-38.2,34.9c-9.2,2-11.1-12.5-1.1-19
				C966.8,330.4,982.7,311.8,982.7,311.8z"/>
			<path class="st11" d="M985.3,290.3c9.4,10.5,1.1,24.3-12.9,37.2c-14,12.9-19,11.1-23.4,8.7c-4.4-2.4,4.8-12.8,14.2-22.4
				C972.7,304.2,985.3,290.3,985.3,290.3z"/>
			<path class="st23" d="M964.9,333.8c-0.8-1.7-3.1-5.5-5.9-4.9c-3.1,0.7-8,6.8-8.9,8C953.4,338.4,957.3,339.1,964.9,333.8z"/>
			<linearGradient id="SVGID_9_" gradientUnits="userSpaceOnUse" x1="946.343" y1="323.7956" x2="972.7182" y2="313.4749">
				<stop  offset="0" style="stop-color:#F0C3A8"/>
				<stop  offset="1" style="stop-color:#FFFFFF"/>
			</linearGradient>
			<path class="st26" d="M985.3,290.3c9.4,10.5,1.1,24.3-12.9,37.2c-14,12.9-19,11.1-23.4,8.7c-4.4-2.4,4.8-12.8,14.2-22.4
				C972.7,304.2,985.3,290.3,985.3,290.3z"/>
			<path class="st11" d="M975.3,324.4c4.3-4.7,2.6-10.1-12.7-10.5c-15.4-0.4-34.8,13.9-34.8,13.9c-3,1.5-6.2,2.9-9.2,4.1
				c-0.4,2.7-0.7,5.3-1,7.6c-0.9,7-2.5,16.9-4.3,28.3c0.2,0,0.5,0,0.7,0C945.7,366.7,956,328,956,328S972.5,327.5,975.3,324.4z"/>
			<defs>
				<filter id="Adobe_OpacityMaskFilter_3_" filterUnits="userSpaceOnUse" x="913.2" y="313.9" width="64.2" height="53.9">
					<feFlood  style="flood-color:white;flood-opacity:1" result="back"/>
					<feBlend  in="SourceGraphic" in2="back" mode="normal"/>
				</filter>
			</defs>
			<mask maskUnits="userSpaceOnUse" x="913.2" y="313.9" width="64.2" height="53.9" id="SVGID_10_">
				<g class="st27">
					<defs>
						<filter id="Adobe_OpacityMaskFilter_4_" filterUnits="userSpaceOnUse" x="913.2" y="313.9" width="64.2" height="53.9">
							<feFlood  style="flood-color:white;flood-opacity:1" result="back"/>
							<feBlend  in="SourceGraphic" in2="back" mode="normal"/>
						</filter>
					</defs>
					<mask maskUnits="userSpaceOnUse" x="913.2" y="313.9" width="64.2" height="53.9" id="SVGID_10_">
						<g class="st28">
						</g>
					</mask>
					<linearGradient id="SVGID_11_" gradientUnits="userSpaceOnUse" x1="937.1783" y1="321.8886" x2="944.4193" y2="341.3641">
						<stop  offset="0" style="stop-color:#FFFFFF"/>
						<stop  offset="1" style="stop-color:#000000"/>
					</linearGradient>
					<path class="st29" d="M975.3,324.4c4.3-4.7,2.6-10.1-12.7-10.5c-15.4-0.4-34.8,13.9-34.8,13.9c-3,1.5-6.2,2.9-9.2,4.1
						c-0.4,2.7-0.7,5.3-1,7.6c-0.9,7-2.5,16.9-4.3,28.3c0.2,0,0.5,0,0.7,0C945.7,366.7,956,328,956,328S972.5,327.5,975.3,324.4z"/>
				</g>
			</mask>
			<linearGradient id="SVGID_12_" gradientUnits="userSpaceOnUse" x1="937.1783" y1="321.8886" x2="944.4193" y2="341.3641">
				<stop  offset="0" style="stop-color:#FFFFFF"/>
				<stop  offset="1" style="stop-color:#F5D0BA"/>
			</linearGradient>
			<path class="st30" d="M975.3,324.4c4.3-4.7,2.6-10.1-12.7-10.5c-15.4-0.4-34.8,13.9-34.8,13.9c-3,1.5-6.2,2.9-9.2,4.1
				c-0.4,2.7-0.7,5.3-1,7.6c-0.9,7-2.5,16.9-4.3,28.3c0.2,0,0.5,0,0.7,0C945.7,366.7,956,328,956,328S972.5,327.5,975.3,324.4z"/>
			<path class="st23" d="M976.1,317.3c-1.4-1.4-4.1-2.5-8.3-3c-0.2,1.2-0.3,4.2,2.8,4.8c3.9,0.8,5.2,0.3,5.2,0.3L976.1,317.3z"/>
		</g>
		<path class="st31" d="M733.1,208.2c1.4-0.3,2.9-0.5,4.3-0.6c1.5,0,2.9-0.2,4.4-0.1c2.9,0.1,5.9,0.6,8.7,1.4c2.8,0.9,5.6,2.2,8,3.9
			c2.4,1.7,4.6,3.8,6.2,6.4c0.2,0.3,0.1,0.7-0.2,0.8c-0.2,0.1-0.6,0.1-0.8-0.1l0-0.1c-1.8-2-4.1-3.7-6.4-5.1
			c-2.4-1.4-4.9-2.5-7.5-3.3c-1.3-0.4-2.6-0.8-4-1c-1.3-0.3-2.7-0.4-4.1-0.6c-1.4-0.2-2.8-0.2-4.2-0.3c-1.4,0-2.8,0-4.2,0l-0.1,0
			c-0.3,0-0.6-0.3-0.6-0.6C732.6,208.5,732.9,208.3,733.1,208.2z"/>
		<path class="st31" d="M790.3,228.9c1.3-0.2,2.6-0.4,3.9-0.6c1.3-0.1,2.6-0.2,4-0.1c2.7,0.1,5.3,0.3,7.9,1c2.6,0.7,5.2,1.6,7.5,2.9
			c2.3,1.3,4.5,3,6.1,5.3c0.2,0.3,0.1,0.6-0.1,0.8c-0.2,0.2-0.5,0.1-0.7,0l-0.1-0.1c-1.8-1.6-4-2.9-6.3-4c-2.3-1-4.6-1.8-7.1-2.4
			l-1.8-0.4c-0.6-0.1-1.2-0.2-1.9-0.3c-1.2-0.3-2.5-0.3-3.8-0.5c-1.3-0.1-2.5-0.2-3.8-0.3c-1.3-0.1-2.6,0-3.8-0.1l0,0
			c-0.3,0-0.6-0.3-0.6-0.6C789.8,229.2,790,229,790.3,228.9z"/>
		<path class="st12" d="M771.6,287.7c-0.6,2.3-9.8,4.6-19.2,1.7c-9.4-2.9-15.6-9.4-15-12.2c0.8-3.3,6.8,5.3,16.3,8.2
			C763.1,288.3,772.5,284.3,771.6,287.7z"/>
	</g>
	<polygon class="st32" points="1119.3,787.9 1118.7,781.7 982,781.7 981.4,787.9 	"/>
	<path class="st33" d="M1864.1,1383.3H102.8c-67.6,0-122.5-54.8-122.5-122.5v-213.1h2006.3v213.1
		C1986.6,1328.5,1931.8,1383.3,1864.1,1383.3z"/>
	<g>
		<path class="st5" d="M765.1,1134h-86.5c-8.1,0-14.6-6.5-14.6-14.6V994.1c0-0.9,0.8-1.7,1.7-1.7H778c0.9,0,1.7,0.8,1.7,1.7v125.2
			C779.7,1127.4,773.2,1134,765.1,1134z"/>
		<path class="st5" d="M790.3,1091.8h-11.8c-18.2,0-33-14.8-33-33v-17.5c0-18.2,14.8-33,33-33h11.8c18.2,0,33,14.8,33,33v17.5
			C823.3,1077,808.5,1091.8,790.3,1091.8z M778.5,1022.8c-10.2,0-18.5,8.3-18.5,18.5v17.5c0,10.2,8.3,18.5,18.5,18.5h11.8
			c10.2,0,18.5-8.3,18.5-18.5v-17.5c0-10.2-8.3-18.5-18.5-18.5H778.5z"/>
		<g class="st34">
			<path class="st35" d="M692.4,921.2c0.6,2.9,0.9,5.5,1.4,8c0.5,2.4,1,4.7,1.6,6.8c1.2,4.2,2.8,7.9,4.6,11.7
				c0.2,0.5,0.5,0.9,0.7,1.4l0.5,1.1c0.2,0.4,0.4,0.8,0.6,1.3c0.6,1.7,1.1,3.3,1.3,4.9c0.5,3.2,0.3,6.3-0.3,9.3
				c-0.6,3-1.7,5.8-3.4,8.3c-1.7,2.5-3.8,4.8-6.6,5.9c0.2-3,0.1-5.4-0.2-7.8c-0.3-2.4-0.7-4.6-1.1-6.7c-0.5-2.1-1-4.1-1.7-5.9
				c-0.3-0.9-0.7-1.7-1-2.3l-0.6-1c-0.4-0.7-0.7-1.3-1.1-2c-2.7-5.4-3.9-11.7-3-17.6C685,930.4,687.8,924.9,692.4,921.2z"/>
			<path class="st35" d="M749.2,979.8c0.2-3,0.1-5.4-0.2-7.8c-0.3-2.4-0.6-4.6-1.1-6.7c-0.5-2.1-1.1-4.1-1.7-5.9
				c-0.3-0.9-0.7-1.7-1-2.3l-0.6-1c-0.4-0.7-0.7-1.3-1.1-2c-2.7-5.3-3.9-11.7-3-17.6c0.9-6,3.6-11.5,8.3-15.1c0.6,2.9,0.9,5.5,1.4,8
				c0.5,2.4,1,4.6,1.6,6.7c1.2,4.2,2.8,7.9,4.6,11.7c0.2,0.5,0.5,0.9,0.7,1.4l0.5,1.1c0.2,0.4,0.4,0.8,0.6,1.3
				c0.6,1.7,1.1,3.3,1.3,4.9c0.5,3.2,0.3,6.3-0.3,9.3c-0.6,3-1.7,5.8-3.4,8.3C754.2,976.3,752,978.6,749.2,979.8z"/>
			<path class="st35" d="M721,979.8c0.2-3,0.1-5.4-0.2-7.8c-0.3-2.4-0.6-4.6-1.1-6.7c-0.5-2.1-1.1-4.1-1.7-5.9
				c-0.3-0.9-0.7-1.7-1-2.3l-0.6-1c-0.4-0.7-0.7-1.3-1.1-2c-2.7-5.3-3.9-11.7-3-17.6c0.9-6,3.6-11.5,8.3-15.1c0.6,2.9,0.9,5.5,1.4,8
				c0.5,2.4,1,4.6,1.6,6.7c1.2,4.2,2.8,7.9,4.6,11.7c0.2,0.5,0.5,0.9,0.7,1.4l0.5,1.1c0.2,0.4,0.4,0.8,0.6,1.3
				c0.6,1.7,1.1,3.3,1.3,4.9c0.5,3.2,0.3,6.3-0.3,9.3c-0.6,3-1.7,5.8-3.4,8.3C726,976.3,723.8,978.6,721,979.8z"/>
		</g>
		<rect x="688.9" y="1034.2" class="st35" width="67.3" height="6.6"/>
		<rect x="688.9" y="1052.5" class="st35" width="67.3" height="6.6"/>
	</g>
	<g>
		<g>
			<path class="st35" d="M1685.7,1005.9h-7.4c-12.5,0-22.7-10.2-22.7-22.7v-11c0-12.5,10.2-22.7,22.7-22.7h7.4
				c12.5,0,22.7,10.2,22.7,22.7v11C1708.4,995.8,1698.2,1005.9,1685.7,1005.9z M1678.3,962.7c-5.3,0-9.6,4.3-9.6,9.6v11
				c0,5.3,4.3,9.6,9.6,9.6h7.4c5.3,0,9.6-4.3,9.6-9.6v-11c0-5.3-4.3-9.6-9.6-9.6H1678.3z"/>
			<path class="st35" d="M1673.1,1027.2h-58.5c-5.6-15.6-11.6-64.9-10.4-83.9h79.3C1683.8,961.1,1678.9,1010.9,1673.1,1027.2z"/>
		</g>
		<g>
			<path class="st36" d="M1704.2,1044.6h-111.8c-6,0-11.8-2.5-16-6.9l-7.8-8.3c-0.8-0.8-0.2-2.2,1-2.2H1727c1.1,0,1.7,1.4,1,2.2
				l-7.8,8.3C1716,1042.1,1710.2,1044.6,1704.2,1044.6z"/>
			<path class="st35" d="M1569.4,1030.2c0.1,0,0.1,0,0.2,0H1727c0.1,0,0.1,0,0.2,0l0.7-0.8c0.8-0.8,0.2-2.2-1-2.2h-157.4
				c-1.1,0-1.7,1.4-1,2.2L1569.4,1030.2z"/>
		</g>
		<path class="st7" d="M1721.3,1049.5h-147.8c-1.4,0-2.5-1.1-2.5-2.5l0,0c0-1.4,1.1-2.5,2.5-2.5h147.8c1.4,0,2.5,1.1,2.5,2.5l0,0
			C1723.8,1048.4,1722.7,1049.5,1721.3,1049.5z"/>
	</g>
	<path class="st7" d="M782.4,1140H663.1c-0.9,0-1.6-0.7-1.6-1.6v-2.9c0-0.9,0.7-1.6,1.6-1.6h119.3c0.9,0,1.6,0.7,1.6,1.6v2.9
		C784,1139.3,783.3,1140,782.4,1140z"/>
	<path class="st1" d="M1472.2,117.2c9.1,0,16.5-7.4,16.5-16.5c0-9.1-7.4-16.5-16.5-16.5c-0.5,0-0.9,0-1.4,0.1
		c-3.4-9.6-12.5-16.6-23.3-16.6c-10.8,0-20,6.9-23.3,16.6c-0.7-0.1-1.3-0.1-2-0.1c-2.6,0-5.1,0.6-7.3,1.7
		c-3.6-6.7-10.6-11.2-18.7-11.2c-11.7,0-21.2,9.5-21.2,21.2c0,11.7,9.5,21.2,21.2,21.2H1472.2z"/>
	<path class="st1" d="M1008.1,191.1c5.2,0,9.5-4.2,9.5-9.5c0-5.2-4.2-9.5-9.5-9.5c-0.3,0-0.5,0-0.8,0c-1.9-5.6-7.2-9.5-13.4-9.5
		c-6.2,0-11.5,4-13.4,9.6c-0.4,0-0.8-0.1-1.2-0.1c-1.5,0-2.9,0.4-4.2,1c-2.1-3.8-6.1-6.4-10.8-6.4c-6.7,0-12.2,5.5-12.2,12.2
		c0,6.7,5.5,12.2,12.2,12.2H1008.1z"/>
	<path class="st1" d="M110.4,125.8c-11.4,0-20.6-9.2-20.6-20.6c0-11.4,9.2-20.6,20.6-20.6c0.6,0,1.2,0,1.7,0.1
		c4.2-12.1,15.7-20.7,29.2-20.7c13.5,0,25,8.7,29.2,20.8c0.8-0.1,1.7-0.2,2.5-0.2c3.3,0,6.3,0.8,9.1,2.1c4.5-8.3,13.3-14,23.4-14
		c14.6,0,26.5,11.9,26.5,26.5c0,14.6-11.9,26.5-26.5,26.5H110.4z"/>
	<g>
		
			<ellipse transform="matrix(0.5827 -0.8127 0.8127 0.5827 403.2891 1085.0194)" class="st6" cx="1258.2" cy="149.8" rx="35.7" ry="35.7"/>
		<path class="st37" d="M1239.6,152.9c1.7,10.3,11.4,17.2,21.6,15.5c10.3-1.7,17.2-11.4,15.5-21.6c-1.7-10.3-11.4-17.2-21.6-15.5
			C1244.9,132.9,1237.9,142.6,1239.6,152.9z"/>
		<path class="st6" d="M1125.8,171c8.2,49.7,21.1,88.7,68.7,80.3c41.9-8.5,71.8-52.4,63.6-102.1c-8.2-49.7-34.2-88.4-87.8-79
			C1105.9,81.5,1117.6,121.3,1125.8,171z"/>
		<path d="M1194.5,145c0.5,2.7,3,4.6,5.8,4.2c2.7-0.5,4.6-3,4.2-5.8c-0.5-2.7-3-4.6-5.8-4.2C1195.9,139.6,1194,142.2,1194.5,145z"/>
		<path d="M1131.2,155.3c0.4,2.4,2.7,4.1,5.1,3.7c2.4-0.4,4.1-2.7,3.7-5.1c-0.4-2.4-2.7-4.1-5.1-3.7
			C1132.4,150.6,1130.8,152.8,1131.2,155.3z"/>
		<path class="st37" d="M1142.7,182.4c1.2,7.4-3,14.5-9.8,17.1c-3.1-8.8-5.5-18.4-7.2-28.5c-0.1-0.5-0.2-1.1-0.3-1.6
			C1133.8,168.5,1141.4,174.2,1142.7,182.4z"/>
		<path class="st37" d="M1199,173.3c1.4,8.5,9.5,14.3,18,12.9c8.5-1.4,14.3-9.5,12.9-18c-1.4-8.5-9.5-14.3-18-12.9
			C1203.4,156.7,1197.6,164.8,1199,173.3z"/>
		<path class="st37" d="M1165.5,146l-11.1,32.8c-1.3,3.9,1.9,7.8,6,7.2l18.5-2.5L1165.5,146z"/>
		<path class="st13" d="M1253,121.6l5,27.6l-9.7,2.1c-0.5-6.9-5.1-23.4-6.7-28.8L1253,121.6z"/>
		<path class="st5" d="M1218.9,124.1c-1.7-0.1-3.4-0.3-5-0.4l-2.5-0.2c-0.8,0-1.6-0.2-2.4-0.1c-1.6,0-3.2-0.2-4.8,0
			c-1.6,0-3.2,0.2-4.7,0.3c-3.1,0.4-6.2,1-9.2,1.9c-3,0.9-6,2.2-8.7,3.7l-0.2,0.1c-0.7,0.4-1.6,0.2-2-0.6c-0.3-0.5-0.2-1.1,0.1-1.6
			c2.3-3.2,5.3-5.3,8.6-6.9c0.4-0.2,0.8-0.4,1.2-0.6l1.3-0.5l1.3-0.5l1.3-0.4c1.8-0.5,3.6-0.8,5.4-1.1c3.7-0.3,7.3-0.2,10.9,0.5
			c1.8,0.3,3.5,0.9,5.2,1.4c1.7,0.6,3.3,1.3,4.9,2.2c0.7,0.4,1,1.3,0.6,2c-0.3,0.5-0.8,0.8-1.4,0.8L1218.9,124.1z"/>
		<path class="st5" d="M1151.1,134c-1.4,0.1-2.8,0.1-4.1,0.1c-1.3,0-2.7,0.1-4,0.1l-3.9,0.2c-1.2,0.2-2.5,0.2-3.7,0.5
			c-2.4,0.4-4.7,1-6.8,2c-1,0.5-2.1,1-3,1.8c-1,0.6-1.9,1.6-2.6,2.3l-0.3,0.3c-0.6,0.6-1.5,0.6-2,0c-0.3-0.3-0.5-0.8-0.4-1.3
			c0.3-1.8,1.1-3.2,2-4.5c0.5-0.7,1-1.2,1.6-1.8c0.6-0.6,1.2-1.1,1.9-1.5c2.6-1.9,5.7-3,8.7-3.4c1.5-0.3,3-0.3,4.5-0.4
			c1.5,0.1,3,0.1,4.4,0.4c1.4,0.3,2.9,0.5,4.3,0.9c1.4,0.5,2.7,0.9,4.1,1.5c0.8,0.3,1.1,1.2,0.7,2c-0.2,0.5-0.7,0.8-1.2,0.9
			L1151.1,134z"/>
		<path class="st35" d="M1193.7,196.7c1,5.8-6.1,11.9-15.8,13.5c-9.7,1.6-18.4-1.8-19.3-7.6c-1-5.8,7.7-2.8,17.5-4.4
			C1185.7,196.5,1192.7,190.8,1193.7,196.7z"/>
		<path class="st38" d="M1177.7,76l-12.9-4.6c-45.8,14.2-45.2,36.5-45.2,46.7C1119.6,118.1,1167,98.8,1177.7,76z"/>
		<path class="st5" d="M1235,51.9l-96.4-3.4l-27,38.4l8.1,20.9c1.8-3.7,2.5-9.8,8.8-16c11.5,2.8,23.8,0.8,29.6-1.2
			c4.7-1.7,14.2-9.9,19.5-14.7c12.6,0.7,24.3,4.9,28.1,11.7c15.7,27.9,27.1,11.2,35.9,35l11.3-1L1235,51.9z"/>
	</g>
	<g>
		<path class="st39" d="M217.6,832.1c1.2,0-0.3,2.4,17.7-36.4c0.7-1.5-1.6-2.6-2.3-1.1C215.7,832,214.8,832.1,217.6,832.1z"/>
		<path class="st39" d="M228.1,837.5c39-39,37.5-36.8,36.3-38.1c-1.3-1.3,0.3-2.1-38.1,36.3C225.1,836.9,226.9,838.7,228.1,837.5z"
			/>
		<path class="st39" d="M236.1,847.8c33.4-20.7,33.2-19.9,32.2-21.5c-1-1.6,0.3-1.7-33.5,19.3C233.3,846.6,234.7,848.7,236.1,847.8z
			"/>
		<path class="st40" d="M307.7,1108.8c0-7.3-141.6-7.3-141.6,0C166.1,1116.1,307.7,1116.1,307.7,1108.8z"/>
		<path class="st41" d="M232.2,961.9l9.9-87.4c2.9-25.6-17.2-48-42.9-48c-25.8,0-45.8,22.4-42.9,48l9.9,87.4H232.2z"/>
		<path class="st42" d="M192.2,961.8c-5.5-107.7-4.1-103-7.8-102.9c-3.9,0.2-2.7-3.3,2.7,103.2C187.3,965.4,192.3,965.1,192.2,961.8
			z"/>
		<path class="st42" d="M210,963.8c3.5,0,2.2,4.9,7.6-102.9c0.2-3.4-4.9-3.6-5.1-0.3C207.1,968.2,206.2,963.8,210,963.8z"/>
		<linearGradient id="SVGID_13_" gradientUnits="userSpaceOnUse" x1="110.9827" y1="1036.549" x2="289.0646" y2="1036.549">
			<stop  offset="3.766030e-03" style="stop-color:#D6925A"/>
			<stop  offset="0.3296" style="stop-color:#C37B40"/>
			<stop  offset="1" style="stop-color:#804B1F"/>
		</linearGradient>
		<path class="st43" d="M183.5,1112.6c99.4,0,88.1-21.8,105.6-152.1H111l13.5,100.4C128.4,1090.5,153.7,1112.6,183.5,1112.6z"/>
		<g>
			<path class="st44" d="M248.3,972.2c-0.2-1.9-3.2-1.4-4.2,0.3C242.4,975.1,248.8,977.2,248.3,972.2z"/>
			<path class="st44" d="M193.6,974.2c2.8-3.3-4.8-9.7-5.3-2.7C188.1,974.8,191.5,976.7,193.6,974.2z"/>
			<path class="st44" d="M200.1,968.6c-0.7-1.3-2.7-1.8-3.4-0.5C194.6,971.8,202,972.1,200.1,968.6z"/>
			<path class="st44" d="M177,962.5c-2.1,0-2.3,3.3-0.1,3.3C179,965.8,179.1,962.5,177,962.5z"/>
			<path class="st44" d="M235.3,995.2c-3.3-2.3-6.4,4.1-4.9,5.7C232.7,1003.4,238.7,997.5,235.3,995.2z"/>
			<path class="st44" d="M223.3,981.7c0.6-2-2-1.8-2-3.2c0-2.3-3.3-2.1-3.3-0.1C218,982,222.5,984.3,223.3,981.7z"/>
			<path class="st44" d="M201,998.4c-0.9,1.5,1.5,4.1,2.8,3.7C207.3,1001.1,202.6,995.5,201,998.4z"/>
			<path class="st44" d="M226.1,1004.7c-2.1,0-2.3,3.3-0.1,3.3C228.1,1008,228.2,1004.7,226.1,1004.7z"/>
			<path class="st44" d="M280.3,963.3c-2.1,0-2.3,3.3-0.1,3.3C282.3,966.5,282.4,963.3,280.3,963.3z"/>
			<path class="st44" d="M269.1,984.8c-1.4-6.5-7.4-2.6-4.4-0.3C267.2,988.5,269.4,986.4,269.1,984.8z"/>
			<path class="st44" d="M284.7,979c0.4-0.5,0.7-0.5,0.6-0.5c1.6,1,1.3,0.5,1.7-2.8c-1.9-1.1-3.7-0.4-5.1,1.6
				C280.8,978.8,283.2,981,284.7,979z"/>
			<path class="st44" d="M284.5,982.4c-0.7-1.2-3.6-1.3-4,0.3C279.6,986.1,286.2,985.3,284.5,982.4z"/>
			<path class="st44" d="M267,1060c-0.7-3-4.1-3.5-4.7-1.6C261.1,1061.9,267.5,1062.2,267,1060z"/>
			<path class="st44" d="M267.1,1078.9c-0.3,2.6,5.9-0.2,3.3-4.5c-0.9-2.3-3.6-2.6-3.8-1c-0.2,2,1.3,2.6,1.1,3.6
				C267.3,1078.4,267.1,1078.2,267.1,1078.9z"/>
			<path class="st44" d="M262.5,1011.4c1-3.9-5.3-3.9-5.6-4.1c-0.5-0.4-1.9-3.9-4.6-1.2c-1.8-1.2-2.5,0.9-2.5,1.9
				C246.1,1013.9,261.1,1016.8,262.5,1011.4z"/>
			<path class="st44" d="M280.5,1024.7c-2.3-1.3-4.5,3.4-1.7,5C280,1030.3,279.8,1029.8,280.5,1024.7z"/>
			<path class="st44" d="M278.6,1038.9c-0.2,0.6-0.3,1.2-0.2,1.7L278.6,1038.9z"/>
			<path class="st44" d="M266.6,1019.8c-1.3,0-1.4,2-0.1,2C267.8,1021.8,267.9,1019.8,266.6,1019.8z"/>
			<path class="st44" d="M234.3,1031.2c-3.7-0.3-6.2,4.8-4.5,4.7C233.7,1035.8,236.5,1031.4,234.3,1031.2z"/>
			<path class="st44" d="M244.8,1051.9c0-1.2-1.7-1.3-2.4,0.9C239.4,1055.4,244.9,1061.1,244.8,1051.9z"/>
			<path class="st44" d="M255.8,1041.5c1.1-2.2,0.2-2.6-0.3-2.5C253.2,1039.7,254.8,1043.5,255.8,1041.5z"/>
			<path class="st44" d="M188.9,1032.8c2.1,0,2.8-7.8-2.3-5.5c0-0.3,0-0.6,0-1c0-0.4-0.5-0.4-0.6,0c-0.3,2.4-2.2,3-0.6,4.8
				C186.1,1033.7,188.5,1032.8,188.9,1032.8z"/>
			<path class="st44" d="M208.3,1049.6c1.3-3.1-2.5-2.6-2.8,0.2C205.4,1050.5,208.4,1053,208.3,1049.6z"/>
			<path class="st44" d="M222.4,1072.4c1.5,0.9,3.1-2.9,0.4-5c-1.2-1-5.4,4.5-3,5.7C220.7,1074.1,221.6,1073.4,222.4,1072.4z"/>
			<path class="st44" d="M218.2,1032.3c0.4-2.3-1.2-1.8-1.6-0.6c-0.1,0.3,0,0.4-0.4,0.4c-0.7,0.1-0.4,0.7-0.1,0.6
				C216.4,1032.6,217.7,1035,218.2,1032.3z"/>
			<path class="st44" d="M217.4,1061.2c0.6,0,3-1.2,1.1-3.8C216.5,1054.7,214.7,1061.8,217.4,1061.2z"/>
			<path class="st44" d="M183.5,1088.1c-2.3-4.5-7.3,0.2-5,4.2C180.3,1095.5,185.2,1091.5,183.5,1088.1z"/>
			<path class="st44" d="M194.6,1106c4.2-1.3,3.7-6.6,1-6.3C192.3,1100,192.2,1106.7,194.6,1106z"/>
			<path class="st44" d="M196.6,1093.3c-0.2,1.4,1.9,1.9,2.3,0.5c0.8-3.5-4.9-8.9-4.3-4.6C194.1,1090.6,194.4,1092.4,196.6,1093.3z"
				/>
			<path class="st44" d="M163.6,1060.3c2.1-3.7-1.6-7.7-4.8-4.4C154.4,1060.5,163.2,1066.5,163.6,1060.3z"/>
			<path class="st44" d="M170.2,1063.5c-0.6-1.7-2.2-2-2.8-0.2C166.3,1066.5,171.1,1066.2,170.2,1063.5z"/>
			<path class="st44" d="M163.1,991.4c-0.2-3.1-6.2-1.7-4.3,2.3C158.8,997.6,164.7,995.4,163.1,991.4z"/>
			<path class="st44" d="M152.9,1002.7c4.4,0.5,2.1-13-3.1-1.8C149.2,1002.4,151.4,1004.4,152.9,1002.7z"/>
			<path class="st44" d="M158.3,1008.2c1.4-2.9-3.1-5.1-3.7-2.1C152.8,1010.6,158.1,1012.1,158.3,1008.2z"/>
			<path class="st44" d="M162.1,1003.2c1.6,1.3,3.8-0.2,2.9-2C166.6,997.3,158.5,1000.3,162.1,1003.2z"/>
			<path class="st44" d="M150.8,1014.4c2.4-1.1-2.2-4.5-2.8-0.9C147.1,1015,149.9,1016.6,150.8,1014.4z"/>
			<path class="st44" d="M121.3,1037.5l0.4,3.1C122.1,1039.4,121.9,1038.3,121.3,1037.5z"/>
			<path class="st44" d="M126.6,1067c3.5-0.1,0.6-8-1.4-2.5C125.1,1064.7,125.3,1068,126.6,1067z"/>
			<path class="st44" d="M142.2,1086.2c-2.1,0.9-3.3,4.7-1.2,5.3C146,1092.7,146.7,1084.3,142.2,1086.2z"/>
			<path class="st44" d="M135.3,1077.7c0.2-0.5,0.6-0.6,0.5-1.3c-0.2-1.8-3.6-1.6-3.2,1.7C132.7,1078.7,134.8,1079.4,135.3,1077.7z"
				/>
			<path class="st44" d="M114.8,989.1l1.2,8.6C121.3,995.9,119.5,990.5,114.8,989.1z"/>
			<path class="st44" d="M148.4,965.6c-0.3-3.8-7.1-0.3-5.7,2.7C143,973.9,148.6,969.2,148.4,965.6z"/>
			<path class="st44" d="M131,971.4c2.8-3.7-0.9-7-2.9-3.7C125.7,971.8,129.9,973.9,131,971.4z"/>
			<path class="st44" d="M136.1,978.1c2.6-4.2-5.8-2.6-2.9,0.9C133.8,979.7,135,979.8,136.1,978.1z"/>
			<path class="st44" d="M148.1,1016.4c-1.3-1.7-5.3,0.9-4.6,4.4C144.1,1023.9,151.7,1021.2,148.1,1016.4z"/>
		</g>
	</g>
</g>
<path class="st1" d="M146.2,802.7c12.6,0,22.9-10.2,22.9-22.9s-10.2-22.9-22.9-22.9c-2.7,0-5.4,0.5-7.8,1.4
	c-4-15.2-17.8-26.4-34.2-26.4c-15.9,0-29.3,10.5-33.8,24.9c-3.7-2.2-8-3.5-12.6-3.5c-13.6,0-24.7,11-24.7,24.7
	c0,13.6,11,24.7,24.7,24.7H146.2z"/>
<path class="st45" d="M1419.8,860.4h-783c-6.6,0-12-5.4-12-12V409.3c0-6.6,5.4-12,12-12h783c6.6,0,12,5.4,12,12v439.1
	C1431.8,855,1426.4,860.4,1419.8,860.4z"/>
<g>
	<line class="st46" x1="652.9" y1="439.6" x2="1402.8" y2="439.6"/>
	<line class="st46" x1="652.9" y1="475.6" x2="1402.8" y2="475.6"/>
	<line class="st46" x1="652.9" y1="511.6" x2="1402.8" y2="511.6"/>
	<line class="st46" x1="652.9" y1="543.6" x2="1402.8" y2="543.6"/>
	<line class="st46" x1="652.9" y1="575.5" x2="1402.8" y2="575.5"/>
	<line class="st46" x1="652.9" y1="611.5" x2="1402.8" y2="611.5"/>
	<line class="st46" x1="652.9" y1="647.6" x2="1402.8" y2="647.6"/>
	<line class="st46" x1="652.9" y1="683.6" x2="1402.8" y2="683.6"/>
	<line class="st46" x1="652.9" y1="719.6" x2="1402.8" y2="719.6"/>
	<line class="st46" x1="652.9" y1="755.6" x2="1402.8" y2="755.6"/>
	<line class="st46" x1="652.9" y1="794" x2="1402.8" y2="794"/>
	<line class="st46" x1="652.9" y1="832.2" x2="1402.8" y2="832.2"/>
</g>
<g>
	<line class="st46" x1="1046.5" y1="441.6" x2="1046.5" y2="832.2"/>
	<line class="st46" x1="1010.4" y1="441.6" x2="1010.4" y2="832.2"/>
	<line class="st46" x1="974.4" y1="441.6" x2="974.4" y2="832.2"/>
	<line class="st46" x1="942.5" y1="441.6" x2="942.5" y2="832.2"/>
	<line class="st46" x1="910.5" y1="441.6" x2="910.5" y2="832.2"/>
	<line class="st46" x1="874.5" y1="441.6" x2="874.5" y2="832.2"/>
	<line class="st46" x1="838.5" y1="441.6" x2="838.5" y2="832.2"/>
	<line class="st46" x1="802.5" y1="441.6" x2="802.5" y2="832.2"/>
	<line class="st46" x1="766.5" y1="441.6" x2="766.5" y2="832.2"/>
	<line class="st46" x1="730.5" y1="441.6" x2="730.5" y2="832.2"/>
	<line class="st46" x1="692.1" y1="441.6" x2="692.1" y2="832.2"/>
	<line class="st46" x1="653.9" y1="441.6" x2="653.9" y2="832.2"/>
</g>
<g>
	<line class="st46" x1="1402.8" y1="441.6" x2="1402.8" y2="832.2"/>
	<line class="st46" x1="1366.8" y1="441.6" x2="1366.8" y2="832.2"/>
	<line class="st46" x1="1330.7" y1="441.6" x2="1330.7" y2="832.2"/>
	<line class="st46" x1="1298.8" y1="441.6" x2="1298.8" y2="832.2"/>
	<line class="st46" x1="1266.8" y1="441.6" x2="1266.8" y2="832.2"/>
	<line class="st46" x1="1230.8" y1="441.6" x2="1230.8" y2="832.2"/>
	<line class="st46" x1="1194.8" y1="441.6" x2="1194.8" y2="832.2"/>
	<line class="st46" x1="1158.8" y1="441.6" x2="1158.8" y2="832.2"/>
	<line class="st46" x1="1122.8" y1="441.6" x2="1122.8" y2="832.2"/>
	<line class="st46" x1="1086.8" y1="441.6" x2="1086.8" y2="832.2"/>
	<line class="st46" x1="1048.4" y1="441.6" x2="1048.4" y2="832.2"/>
	<line class="st46" x1="1010.2" y1="441.6" x2="1010.2" y2="832.2"/>
</g>
<g>
	<path class="st11" d="M707.9,756.9c13.5-1.9,28.2-5.3,26.7-11.2c-1.2-4.7-10.8-5.3-21.2-4.6c7.8-2,14-4.7,12.9-8.3
		c-2.9-9.1-51.7-1.2-51.7-1.2s9.4-4.4,12.7-6.1c5.1-2.6,11.3-7.6,5.5-11.4c-5.9-3.7-35.4,5.7-76.3,20.3
		c-43.2,4.8-147.4-0.7-147.4-0.7s-1.7-25.4,11.7-83.6c6.7-29.1,32-83.7,44-108.2c0-0.1-0.2-17.3-26-37.4
		c-14.6-11.3-31-12.5-36.1-12.8c-29.1,38.2-50.8,87-59.7,134.3c-16,85-14.3,158,36.8,176.5c51.1,18.5,190.2-4.7,206.4-6.9
		c16.2-2.2,73.5-7.2,72.1-16.9c-0.7-4.9-8.5-6.4-16.1-6.7c13.7-1,31.9-3.5,31.6-9.8C733.2,756.9,720.2,756.3,707.9,756.9z"/>
	<g>
		<path class="st47" d="M720.4,729.4c-0.5,0.2-1,0.5-1.4,0.9c-0.7,0.3-1.3,0.6-1.9,1.1c-1.2,1.1-1.4,3.5-0.1,4.6
			c1.7,1.5,3.9,1.9,6.1,1.7c2.5-1.4,3.8-3,3.2-4.8C725.7,731.2,723.5,730.1,720.4,729.4z"/>
		<path class="st47" d="M723.2,762.7c-0.2,3.4,2.7,4.6,5.8,4.6c2.9-1.3,4.7-3,4.5-5c-0.1-2.1-2.2-3.5-5.4-4.3
			C725.6,758.7,723.4,760.1,723.2,762.7z"/>
		<path class="st47" d="M734.6,745.7c-0.5-2-2.6-3.3-5.7-4c-2.9,1.3-5.2,3.5-4.4,6.5c0.7,2.5,3,3.3,5.7,3.3
			C733.3,749.8,735.1,748,734.6,745.7z"/>
		<path class="st47" d="M718.1,778.8c-0.1-0.6-0.3-1.1-0.5-1.5c-2.9,0.3-5.9,0.6-8.2,2.8c-1.3,1.2-2.2,2.9-1.7,4.7
			c0.1,0.4,0.2,0.7,0.4,1C714.5,783.7,718.5,781.5,718.1,778.8z"/>
		<path class="st47" d="M692.6,714.2c-1.8-1.2-5.9-1-11.9,0.1c0.1,1.3,1,2.5,2.2,2.8c3.7,0.8,7,0.1,10.7-0.6c0.4-0.1,0.7-0.2,1-0.4
			C694.2,715.4,693.6,714.8,692.6,714.2z"/>
	</g>
</g>
<g>
	<path class="st6" d="M1450.8,428.2c23.3,3.6,36.3,10,50.7,42.8c13.8,31.4,43.7,95.8,52.6,136.8c8.8,41,6.7,62.4-24.4,63.6
		c-34.7,1.4-60.7-73-66.1-108c-5.7-36.5-13.1-69.7-13.1-69.7s-14.4-1.1-27.1-4.4c-12.7-3.3-24.3,7.6-28.4,1.3
		c-4.1-6.3,9.4-16.3,27.2-16c0,0-8.8-2.7-21.2,0.2s-16.5,3.4-17.8-1.3c-1.3-4.7,14.4-12.6,25.5-12.9s16.5-0.9,16.5-0.9
		s-19.6-3.8-29.5,0.8c-9.9,4.6-17.8,9.6-20.3,4.4c-2.5-5.2,11.1-15.7,26.2-19.3c15.1-3.6,18.5-2.3,18.5-2.3s-18.8-1.4-28.9,2.8
		c-10.1,4.2-14.3,7.8-17.6,3.7c-3.3-4.1,5.2-12.4,20.3-17.7C1408.9,426.6,1423.5,424,1450.8,428.2z"/>
	<g>
		<path class="st47" d="M1390.3,471.4c0,0,0-0.1,0-0.1c0.2-1.3-0.2-2.6-1.3-3.6c-0.2-0.2-0.5-0.4-0.7-0.5c-3.5,2.2-5.7,4.6-5.2,6.5
			c0,0,0,0,0,0c0.2,0.2,0.4,0.3,0.7,0.5c0.1,0.2,0.3,0.4,0.4,0.5c1.2,1.1,3.4,1.5,4.6,0.1C1389.7,473.7,1390.2,472.7,1390.3,471.4z"
			/>
		<path class="st47" d="M1394.3,489.5c1.9,0.9,4.2,0.8,5.5-1.1c1.3-2.1,0.3-4.6-1.4-6.1c-0.1-0.1-0.3-0.3-0.5-0.4
			C1395,484.4,1393.6,487.1,1394.3,489.5z"/>
		<path class="st47" d="M1380.2,446.6c0.6-1.2,0.7-2.5-0.1-3.6c-0.7-0.9-2.1-1.7-3.3-1.3c-0.2,0.1-0.4,0.2-0.6,0.3
			c-3.1,3-4.1,5.8-2.6,7.8c0.6,0.7,1.2,1.2,1.9,1.5c0.1,0,0.1-0.1,0.2-0.1C1377.3,450,1379.3,448.4,1380.2,446.6z"/>
		<path class="st47" d="M1380.7,465.3c1-0.8,1.9-1.8,2.1-3.1c0.2-1.3,0.1-2.5-1.1-3.5c-1-0.8-2.4-1-3.6-0.4
			c-1.1,0.6-1.7,1.4-2.3,2.4c0,0,0,0,0,0c-0.9,1.5-1.1,3-0.5,4.1c0.3,0.6,0.7,1,1.1,1.4c0.6,0.3,1.3,0.4,1.9,0.3
			C1379.2,466.5,1380.1,466.1,1380.7,465.3z"/>
	</g>
</g>
<g>
	<g>
		<path class="st48" d="M1203.4,583.4c-5.6,1-11.1,2.5-16.4,4.4c-1.4-5.5-3.2-10.9-5.2-16.2"/>
		<path class="st49" d="M1173.1,553.1c-25.7-46.2-75-77.5-131.6-77.5c-58,0-108.3,32.8-133.4,80.8"/>
		<path class="st48" d="M903.6,565.7c-2.3,5.2-4.3,10.5-5.9,15.9c-4.8-2.9-9.9-5.4-15.2-7.5"/>
		<path class="st50" d="M862.9,568.5c-6.1-1.1-12.5-1.7-18.9-1.7c-58,0-104.9,47-104.9,104.9c0,58,47,104.9,104.9,104.9h376.3
			c53.8,0,97.4-43.6,97.4-97.4c0-53.8-43.6-97.4-97.4-97.4c-2.3,0-4.5,0.1-6.8,0.2"/>
	</g>
</g>
</svg>
