<svg xmlns="http://www.w3.org/2000/svg" xmlns:xlink="http://www.w3.org/1999/xlink" viewBox="0 0 1920 1080"><defs><style>.cls-1{isolation:isolate;}.cls-2{fill:#007ec3;}.cls-3{fill:#339edb;}.cls-4{fill:#edf9fd;}.cls-5{fill:#b9edff;}.cls-6{fill:#ffdf58;mix-blend-mode:overlay;opacity:0.4;}.cls-7{fill:#004a6e;}.cls-8{fill:#171733;}.cls-9{fill:#9197aa;}.cls-10{fill:#6cc3f1;}.cls-11{fill:#23c6fd;}.cls-12{fill:#f5cfbf;}.cls-13,.cls-17,.cls-41,.cls-42{fill:#cbc7ff;}.cls-13,.cls-17,.cls-18,.cls-19,.cls-22,.cls-34,.cls-41,.cls-42,.cls-43{mix-blend-mode:multiply;}.cls-13{opacity:0.61;}.cls-14{fill:#f29d9d;}.cls-15{fill:#ff6200;}.cls-16{fill:#e6332a;}.cls-17{opacity:0.58;}.cls-18{fill:#c3b9dd;}.cls-19{fill:#1a1a1a;}.cls-20{fill:#0d1d7e;}.cls-21{fill:#232e42;}.cls-22{fill:#292969;}.cls-23{fill:#f8dbd0;}.cls-24{fill:#706f6f;}.cls-25{fill:#3c3c3b;}.cls-26,.cls-27,.cls-28{fill:none;stroke-miterlimit:10;}.cls-26{stroke:#232e42;stroke-width:5.67px;}.cls-27,.cls-28{stroke:#23c6fd;stroke-width:6px;}.cls-28{stroke-dasharray:19.41 19.41;}.cls-29{fill:#fff;}.cls-30{fill:#c9d5f1;}.cls-31{fill:#f79575;}.cls-32{fill:#242638;}.cls-33{fill:#8c5529;}.cls-34,.cls-35{fill:#a8bdd1;}.cls-36{fill:#683c11;}.cls-37{fill:#432918;}.cls-38{fill:#b9cada;}.cls-39{fill:#0d232b;}.cls-40{fill:#1c3038;}.cls-41{opacity:0.41;}.cls-42{opacity:0.7;}.cls-43{opacity:0.47;fill:url(#New_Gradient_Swatch_2);}.cls-44{fill:#bd422a;}</style><linearGradient id="New_Gradient_Swatch_2" x1="2060.3" y1="919.36" x2="2055.99" y2="967.92" gradientTransform="matrix(-1, -0.03, -0.03, 1, 3355.04, -298.92)" gradientUnits="userSpaceOnUse"><stop offset="0" stop-color="#f0c3a8"/><stop offset="1" stop-color="#fff"/></linearGradient></defs><g class="cls-1"><g id="Layer_1" data-name="Layer 1"><polygon class="cls-2" points="1920 1080 0 1080 300 775.55 1660 775.55 1920 1080"/><path class="cls-3" d="M1124.09,518c0-30.2-18.49-56.68-46.26-71.55-15.33-8.21-23.41-23.77-19.65-39a54.14,54.14,0,0,0,1.61-13.16c0-30.06-24.51-55.2-57.29-61.46-8.69-1.66-14.52-8.6-13.69-16.21a38.22,38.22,0,0,0,.09-9.29c-2.63-17.41-14-26.91-30.5-34.67-8.47-4-12.62-12.38-10.22-20.42a48.55,48.55,0,0,0,2-12.4c1-32.08-19.12-45.31-33.09-51.25a24.06,24.06,0,0,1-13.8-14.58c-5.42-17.16-24.3-29.55-46.29-28.3C835.48,147,817.83,161.56,815.51,180c0,.14,0,.29,0,.43-.71,6.32-7,11-14.39,10.65a64.45,64.45,0,0,0-7.34.11c-27.29,1.92-49.17,20.94-51.07,44.42a41.66,41.66,0,0,0,.54,10.91c1.48,8.12-2.69,16.21-10.78,20.6-15.35,8.33-27.26,20.89-33.52,35.79-2.42,5.76-8,10.14-14.9,11.78-30.69,7.33-53.21,31.52-53.21,60.23a54.74,54.74,0,0,0,4.62,22c4.62,10.56-1.32,22.22-13.44,26.56-32.58,11.67-55.48,39.28-55.48,71.51a68.5,68.5,0,0,0,10.4,36.12c10,16.33,6.3,36.49-9.65,48.87-22.53,17.49-36.69,42.8-36.69,71v34.84h602.89V650.87c0-14.11-10.36-27.51-22.63-39.56-13.33-13.1-14.25-32.23-3-46.72A75.76,75.76,0,0,0,1124.09,518Z"/><path class="cls-4" d="M845.07,581.42c0-35.77-17.29-67.14-43.27-84.76-14.34-9.72-21.9-28.15-18.38-46.13a80.65,80.65,0,0,0,1.5-15.59c0-35.61-22.93-65.38-53.59-72.8-8.13-2-13.58-10.19-12.81-19.21a55.74,55.74,0,0,0,.09-11c-2.46-20.62-13.14-31.87-28.53-41.06-7.92-4.73-11.81-14.68-9.56-24.2A71.74,71.74,0,0,0,682.38,252c.93-38-17.89-53.67-31-60.71A26.81,26.81,0,0,1,638.51,174c-5.07-20.32-22.73-35-43.3-33.52-20.12,1.46-36.63,18.68-38.8,40.5,0,.17,0,.34,0,.51-.66,7.48-6.56,13-13.46,12.61a47.81,47.81,0,0,0-6.86.13c-25.53,2.28-46,24.81-47.78,52.62a62.81,62.81,0,0,0,.5,12.92c1.39,9.63-2.51,19.21-10.08,24.41a83,83,0,0,0-31.36,42.39,21.45,21.45,0,0,1-13.94,14c-28.7,8.69-49.77,37.33-49.77,71.34a79.68,79.68,0,0,0,4.32,26c4.33,12.52-1.23,26.33-12.57,31.48-30.48,13.81-51.9,46.52-51.9,84.7a97.9,97.9,0,0,0,9.72,42.79c9.4,19.34,5.9,43.22-9,57.89-21.08,20.72-34.32,50.69-34.32,84v41.27h564V738.78c0-16.71-9.69-32.58-21.17-46.86-12.46-15.52-13.33-38.18-2.85-55.35A105.63,105.63,0,0,0,845.07,581.42Z"/><path class="cls-5" d="M926.31,600.89c0-32-15.46-60-38.7-75.79-12.82-8.69-19.57-25.17-16.43-41.25a72.58,72.58,0,0,0,1.35-13.94c0-31.84-20.51-58.47-47.93-65.1-7.26-1.76-12.14-9.11-11.45-17.18a50.09,50.09,0,0,0,.08-9.84c-2.2-18.43-11.75-28.5-25.52-36.71-7.08-4.23-10.55-13.12-8.54-21.64a63.92,63.92,0,0,0,1.66-13.13c.83-34-16-48-27.68-54.29a24,24,0,0,1-11.54-15.45c-4.54-18.17-20.33-31.29-38.72-30-18,1.3-32.76,16.71-34.7,36.22,0,.15,0,.3,0,.45-.6,6.69-5.87,11.6-12,11.28a43.59,43.59,0,0,0-6.14.11c-22.82,2-41.13,22.19-42.72,47.06a55.92,55.92,0,0,0,.45,11.55c1.24,8.61-2.25,17.18-9,21.83a74.27,74.27,0,0,0-28,37.91,19.19,19.19,0,0,1-12.46,12.48c-25.67,7.76-44.51,33.38-44.51,63.79a71.16,71.16,0,0,0,3.87,23.26c3.86,11.19-1.11,23.54-11.25,28.14-27.25,12.36-46.4,41.61-46.4,75.74a87.41,87.41,0,0,0,8.69,38.26c8.41,17.3,5.27,38.65-8.07,51.77-18.84,18.53-30.69,45.33-30.69,75.15v36.91H934.14V741.6c0-15-8.67-29.13-18.93-41.9-11.15-13.88-11.93-34.14-2.55-49.49A94.47,94.47,0,0,0,926.31,600.89Z"/><path class="cls-6" d="M374.26,665.82c7.9,12.93,7.25,30-2.14,41.68-8.64,10.75-15.94,22.7-15.94,35.29v31.08H780.9V742.79c0-25.12-10-47.69-25.85-63.29-11.23-11-13.87-29-6.8-43.6a73.53,73.53,0,0,0,7.33-32.22c0-28.75-16.14-53.38-39.09-63.79C708,536,703.77,525.62,707,516.19a59.77,59.77,0,0,0,3.26-19.59c0-25.61-15.87-47.18-37.48-53.72a16.18,16.18,0,0,1-10.5-10.51,62.51,62.51,0,0,0-23.61-31.93c-5.7-3.91-8.64-11.13-7.6-18.38a46.13,46.13,0,0,0,.38-9.73c-1.34-20.94-16.75-37.91-36-39.63a39,39,0,0,0-5.17-.1c-5.19.28-9.64-3.85-10.14-9.49l0-.39c-1.63-16.43-14.07-29.4-29.22-30.49-15.49-1.12-28.79,9.93-32.61,25.24a20.18,20.18,0,0,1-9.72,13c-9.84,5.31-24,17.1-23.31,45.72a53.31,53.31,0,0,0,1.4,11.07c1.69,7.17-1.24,14.66-7.2,18.22C467.9,412.4,459.85,420.87,458,436.4a42.82,42.82,0,0,0,.07,8.29c.58,6.79-3.53,13-9.65,14.46-23.09,5.59-40.36,28-40.36,54.83a61.08,61.08,0,0,0,1.13,11.73c2.65,13.55-3,27.42-13.83,34.75-19.57,13.26-32.59,36.89-32.59,63.82A79.63,79.63,0,0,0,374.26,665.82Z"/><polygon class="cls-7" points="1135.9 851.69 846.49 851.69 846.57 851.07 857.68 825.68 1124.71 825.68 1135.82 851.07 1135.9 851.69"/><path class="cls-8" d="M636.93,865.52a1.25,1.25,0,1,1-1.25-1.25A1.24,1.24,0,0,1,636.93,865.52Zm4.68-1.25a1.25,1.25,0,1,0,1.25,1.25A1.25,1.25,0,0,0,641.61,864.27Zm5.93,0a1.25,1.25,0,1,0,1.25,1.25A1.24,1.24,0,0,0,647.54,864.27Zm5.93,0a1.25,1.25,0,1,0,0,2.49,1.25,1.25,0,0,0,0-2.49Zm5.93,0a1.25,1.25,0,1,0,1.24,1.25A1.25,1.25,0,0,0,659.4,864.27Zm5.92,0a1.25,1.25,0,1,0,1.25,1.25A1.25,1.25,0,0,0,665.32,864.27Zm5.93,0a1.25,1.25,0,1,0,1.25,1.25A1.25,1.25,0,0,0,671.25,864.27Zm5.93,0a1.25,1.25,0,1,0,1.25,1.25A1.24,1.24,0,0,0,677.18,864.27Zm-41.5,4.79a1.25,1.25,0,1,0,1.25,1.24A1.24,1.24,0,0,0,635.68,869.06Zm5.93,0a1.25,1.25,0,1,0,1.25,1.24A1.24,1.24,0,0,0,641.61,869.06Zm5.93,0a1.25,1.25,0,0,0,0,2.49,1.25,1.25,0,1,0,0-2.49Zm5.93,0a1.25,1.25,0,1,0,1.24,1.24A1.24,1.24,0,0,0,653.47,869.06Zm5.93,0a1.25,1.25,0,1,0,1.24,1.24A1.24,1.24,0,0,0,659.4,869.06Zm5.92,0a1.25,1.25,0,1,0,1.25,1.24A1.24,1.24,0,0,0,665.32,869.06Zm5.93,0a1.25,1.25,0,1,0,1.25,1.24A1.24,1.24,0,0,0,671.25,869.06Zm5.93,0a1.25,1.25,0,0,0,0,2.49,1.25,1.25,0,1,0,0-2.49Zm-41.5,4.78a1.25,1.25,0,1,0,1.25,1.24A1.25,1.25,0,0,0,635.68,873.84Zm5.93,0a1.25,1.25,0,1,0,1.25,1.24A1.25,1.25,0,0,0,641.61,873.84Zm5.93,0a1.25,1.25,0,1,0,1.25,1.24A1.24,1.24,0,0,0,647.54,873.84Zm5.93,0a1.25,1.25,0,1,0,1.24,1.24A1.25,1.25,0,0,0,653.47,873.84Zm5.93,0a1.25,1.25,0,1,0,1.24,1.24A1.25,1.25,0,0,0,659.4,873.84Zm5.92,0a1.25,1.25,0,1,0,1.25,1.24A1.25,1.25,0,0,0,665.32,873.84Zm5.93,0a1.25,1.25,0,1,0,1.25,1.24A1.25,1.25,0,0,0,671.25,873.84Zm5.93,0a1.25,1.25,0,1,0,1.25,1.24A1.24,1.24,0,0,0,677.18,873.84Z"/><path class="cls-8" d="M1046.25,868.4H943.73a1.67,1.67,0,1,0,0,3.33h102.52a1.67,1.67,0,0,0,0-3.33Z"/><rect class="cls-8" x="1082.09" y="868.4" width="56.96" height="3.32" rx="1.66"/><path class="cls-9" d="M1362.8,785.18H561V299.3a50.11,50.11,0,0,1,50.1-50.11h699.54c30,0,52.17,24.35,52.17,54.37Z"/><path class="cls-7" d="M622.25,253h675.51a65,65,0,0,1,65,65V785.18a0,0,0,0,1,0,0H557.2a0,0,0,0,1,0,0V318A65,65,0,0,1,622.25,253Z"/><polygon class="cls-10" points="1429.99 877.71 490.01 877.71 490.28 875.53 557.2 785.18 1362.8 785.18 1429.72 875.53 1429.99 877.71"/><path class="cls-7" d="M1410.83,900.39H509.17c-11.34,0-20.53-5.9-20.53-13.17V879.1l1.37-1.39h940l1.37,1.39v8.12C1431.36,894.49,1422.17,900.39,1410.83,900.39Z"/><polygon class="cls-10" points="1431.36 879.88 488.64 879.88 490.28 875.53 1429.72 875.53 1431.36 879.88"/><path class="cls-8" d="M1304.08,884.18a1.33,1.33,0,1,1-1.33-1.32A1.33,1.33,0,0,1,1304.08,884.18Zm5-1.32a1.33,1.33,0,1,0,1.33,1.32A1.32,1.32,0,0,0,1309.06,882.86Zm6.31,0a1.33,1.33,0,1,0,1.32,1.32A1.32,1.32,0,0,0,1315.37,882.86Zm6.31,0a1.33,1.33,0,1,0,1.32,1.32A1.33,1.33,0,0,0,1321.68,882.86Zm6.31,0a1.33,1.33,0,1,0,1.32,1.32A1.33,1.33,0,0,0,1328,882.86Zm6.31,0a1.33,1.33,0,1,0,1.32,1.32A1.32,1.32,0,0,0,1334.3,882.86Zm6.3,0a1.33,1.33,0,1,0,1.33,1.32A1.32,1.32,0,0,0,1340.6,882.86Zm6.31,0a1.33,1.33,0,1,0,1.33,1.32A1.32,1.32,0,0,0,1346.91,882.86ZM1302.75,888a1.33,1.33,0,1,0,1.33,1.32A1.32,1.32,0,0,0,1302.75,888Zm6.31,0a1.33,1.33,0,1,0,1.33,1.32A1.32,1.32,0,0,0,1309.06,888Zm6.31,0a1.33,1.33,0,1,0,1.32,1.32A1.32,1.32,0,0,0,1315.37,888Zm6.31,0a1.33,1.33,0,1,0,1.32,1.32A1.33,1.33,0,0,0,1321.68,888Zm6.31,0a1.33,1.33,0,1,0,1.32,1.32A1.33,1.33,0,0,0,1328,888Zm6.31,0a1.33,1.33,0,1,0,1.32,1.32A1.32,1.32,0,0,0,1334.3,888Zm6.3,0a1.33,1.33,0,1,0,1.33,1.32A1.32,1.32,0,0,0,1340.6,888Zm6.31,0a1.33,1.33,0,1,0,1.33,1.32A1.32,1.32,0,0,0,1346.91,888ZM1302.75,893a1.33,1.33,0,0,0,0,2.65,1.33,1.33,0,1,0,0-2.65Zm6.31,0a1.33,1.33,0,0,0,0,2.65,1.33,1.33,0,1,0,0-2.65Zm6.31,0a1.33,1.33,0,1,0,1.32,1.32A1.32,1.32,0,0,0,1315.37,893Zm6.31,0a1.33,1.33,0,1,0,1.32,1.32A1.33,1.33,0,0,0,1321.68,893Zm6.31,0a1.33,1.33,0,1,0,1.32,1.32A1.33,1.33,0,0,0,1328,893Zm6.31,0a1.33,1.33,0,1,0,1.32,1.32A1.32,1.32,0,0,0,1334.3,893Zm6.3,0a1.33,1.33,0,1,0,1.33,1.32A1.32,1.32,0,0,0,1340.6,893Zm6.31,0a1.33,1.33,0,0,0,0,2.65,1.33,1.33,0,1,0,0-2.65Z"/><path class="cls-11" d="M631.86,277h656.28a40.59,40.59,0,0,1,40.59,40.59V761.17a0,0,0,0,1,0,0H591.27a0,0,0,0,1,0,0V317.58A40.59,40.59,0,0,1,631.86,277Z"/><path class="cls-5" d="M413.4,186.36a29.19,29.19,0,0,0,0-58.37,28.88,28.88,0,0,0-10,1.79,45.12,45.12,0,0,0-86.75-1.88,31.45,31.45,0,1,0-16.08,58.46Z"/><path class="cls-5" d="M1763.29,236.84a52,52,0,1,0-17.77-100.92,80.49,80.49,0,0,0-154.72-3.34,56.08,56.08,0,1,0-28.68,104.26Z"/><path class="cls-12" d="M1140.23,125.89c-1.62-6-.76-39.42-.76-39.42l-26.23,1s-.3,33-1,38.28-9.71,7.4-20.31,12.79c-1.45.74-3.08,2.45-4.52,3.69,1.71,3.84,37,16.71,39.53,20,2.76,3.65,29-15.74,32-24.14C1146.65,131.3,1141.74,131.5,1140.23,125.89Z"/><path class="cls-13" d="M1138.13,85.88l-24.23.9s-.09,7.75-.28,17.13c1.86,4.39,5.59,11.42,12.09,11.31,7.46-.12,9.81-6.62,12.16-10.47C1137.79,94.87,1138.13,85.88,1138.13,85.88Z"/><path class="cls-12" d="M1119.9,86.66a8.52,8.52,0,1,1-7.9-9.09A8.52,8.52,0,0,1,1119.9,86.66Z"/><path class="cls-14" d="M1115.88,86.38a4.49,4.49,0,1,1-4.16-4.79A4.48,4.48,0,0,1,1115.88,86.38Z"/><path class="cls-15" d="M1106.19,83.88c-3.89-3.41-4.79-15.69,2.33-20.62,2.6-1.8,6.13-2.41,6.86-5,1.41-5,9-8.68,14.6-5.88,7.21,3.6,10.71.83,14.86-3.38,4.46-4.53,7.24-9.31,19.53-7.16s15.9.7,18.21-5.14,13.56-10.61,24-3.33,13.76,13,20.79,10.37,14.15-6.66,20.38-.12,1.11,19.27-7,19.13-4.08,9.54-1.89,15.37-3.86,14.71-14.14,11.15-12.56-.6-15.9,4.75-12.11,5.09-16.37,1.94S1183,90.3,1176.86,94s-8.12,6.11-15.29,3.09-8.58-1.93-12.65.24-12.24-.91-12.24-.91Z"/><path class="cls-16" d="M1126.6,87.68l-.53-6.28,23.9,1.53c9.58-5.58,11.85-5.52,19.41-3.56s6.57-7,14.52-9.64,9.48,4.44,16.78,4.23,5.15-7.44,14.46-6.87c8.78.53,9.84,7.13,22.15,7,.5,1.44,1,2.85,1.51,4.08,2.18,5.84-3.86,14.71-14.14,11.15s-12.56-.6-15.9,4.75-12.11,5.09-16.37,1.94S1183,90.3,1176.86,94s-8.12,6.11-15.29,3.09-8.3-2.31-12.37-.14-12,.25-12,.25Z"/><circle class="cls-12" cx="1141.4" cy="86.07" r="8.52" transform="translate(-3.13 70.3) rotate(-3.52)"/><path class="cls-14" d="M1136.93,86.38a4.49,4.49,0,1,0,4.16-4.79A4.48,4.48,0,0,0,1136.93,86.38Z"/><path class="cls-12" d="M1110.32,89.7c.84,12,5,20.62,17.15,20.43,7.61-.11,14-8.52,14-20.52-.08-12.59-2.69-22.68-16.93-22.69C1110.73,66.91,1109.48,77.73,1110.32,89.7Z"/><path class="cls-14" d="M1131.33,96.39a3.73,3.73,0,1,0,3.46-4A3.74,3.74,0,0,0,1131.33,96.39Z"/><path class="cls-14" d="M1112.77,96.31a3.73,3.73,0,1,0,3.46-4A3.72,3.72,0,0,0,1112.77,96.31Z"/><path class="cls-14" d="M1126.05,89.54l-2.92,5.72a1,1,0,0,0,.9,1.49l3.46,0Z"/><path class="cls-17" d="M1149.66,88.19c-6.9,2.8-10.21.34-13.42-1.5s-2.79-10.59-7.5-12.06-5.88,2.27-10.94,1c-5.9-1.51-7.09,2-7.09,2s-.17-4.41,8.56-7.53,18.67-3.16,23.81,2.23c1.69,1.77,1.64,4.45,3.53,6.17A9.79,9.79,0,0,1,1149.66,88.19Z"/><path class="cls-18" d="M1138.33,85.45c-.41-.06-.8-.16-1.19-.24s-.79-.15-1.18-.2a16.85,16.85,0,0,0-2.33-.18,12.53,12.53,0,0,0-2.29.24,9.67,9.67,0,0,0-2.19.71l-.05,0a.31.31,0,0,1-.42-.15.32.32,0,0,1,.06-.35,5.57,5.57,0,0,1,2.27-1.41,8.61,8.61,0,0,1,2.61-.44,9.9,9.9,0,0,1,2.6.37c.42.11.81.29,1.22.44s.77.38,1.13.6a.32.32,0,0,1,.11.44.3.3,0,0,1-.32.15Z"/><path class="cls-19" d="M1131.46,89.53c.52.1,1,.2,1.51.27a9.41,9.41,0,0,0,1.49.1,7.17,7.17,0,0,0,1.45-.17,6.69,6.69,0,0,0,1.39-.47l0,0a.22.22,0,0,1,.28.1.23.23,0,0,1,0,.24,4.37,4.37,0,0,1-3.11,1.24,5.86,5.86,0,0,1-1.67-.23,5.59,5.59,0,0,1-.78-.28,7.18,7.18,0,0,1-.72-.39.21.21,0,0,1-.07-.29.21.21,0,0,1,.22-.1Z"/><path class="cls-19" d="M1114.78,89.53c.52.1,1,.2,1.52.27a9.2,9.2,0,0,0,1.48.1,7.09,7.09,0,0,0,1.45-.17,6.69,6.69,0,0,0,1.39-.47l0,0a.22.22,0,0,1,.28.1.23.23,0,0,1,0,.24,4.37,4.37,0,0,1-3.11,1.24,5.79,5.79,0,0,1-1.66-.23,5.71,5.71,0,0,1-.79-.28,7.18,7.18,0,0,1-.72-.39.21.21,0,0,1-.07-.29.21.21,0,0,1,.22-.1Z"/><path class="cls-18" d="M1122.28,85.22c-.36,0-.71-.13-1.06-.19l-1-.17a17.86,17.86,0,0,0-2-.16,11.15,11.15,0,0,0-2,.14,9.92,9.92,0,0,0-1.94.52l0,0a.32.32,0,0,1-.41-.18.31.31,0,0,1,.07-.34,4.85,4.85,0,0,1,2-1.2,7.33,7.33,0,0,1,2.32-.34,8.69,8.69,0,0,1,2.28.36,9.79,9.79,0,0,1,1.07.4c.34.17.68.35,1,.55a.32.32,0,0,1,.1.44.33.33,0,0,1-.31.15Z"/><path class="cls-14" d="M1122,100.21c0,.57,2,1.09,4.34,1s4.25-.51,4.28-1.2-1.94.14-4.32.18S1122,99.35,1122,100.21Z"/><path class="cls-20" d="M1109.34,102.11a.42.42,0,0,1-.43-.42v-9a.43.43,0,1,1,.85,0v9A.42.42,0,0,1,1109.34,102.11Z"/><path class="cls-20" d="M1142.49,102.5a.43.43,0,0,1-.43-.43V93a.43.43,0,0,1,.85,0v9A.42.42,0,0,1,1142.49,102.5Z"/><path class="cls-15" d="M1149.8,83c-6.9,2.8-9.61,3.61-12.81,1.77s-2.8-10.59-7.51-12.06-5.79,2.81-11,2.2c-5.55-.66-8,1.79-8,1.79a9.9,9.9,0,0,1,6.89-11.37c8.73-3.12,21.34-.3,26.49,5.09A24.27,24.27,0,0,1,1149.8,83Z"/><path class="cls-21" d="M1097.26,270.8c-15.94,0-20.06-16.83-16.62-34.14,4-20.28,24.27-30,43.1-30s38.48,11.6,43.82,31.53c4.15,15.48-1.39,32.57-17.33,32.57Z"/><rect class="cls-22" x="1089.76" y="241.09" width="64.14" height="28.66" rx="8.39"/><path class="cls-5" d="M1106.78,131.13s-16,5.82-21.62,11.72a53.61,53.61,0,0,0-6.69,8.17l16.33,53.07h58l20.33-53.16a38,38,0,0,0-14.34-13.46c-9.89-5.38-12.68-5.91-13.81-6.6,0,0-14.16,17.28-17.8,17.46S1106.78,131.13,1106.78,131.13Z"/><path class="cls-5" d="M1127.2,149.89c4.4.08,17-16,18.93-18.5a9.21,9.21,0,0,1-1.13-.52s-14.16,17.28-17.8,17.46-20.42-17.2-20.42-17.2l-1.2.46C1107.41,133.55,1122.71,149.81,1127.2,149.89Z"/><path class="cls-12" d="M1078.82,151.11c2.43,9.38,11.64,10.42,13.2,22.58-8,14.77-16.16,36.83-16.16,36.83s31.1,1.56,43.61,5.38l-.35,14.77h-50.73c-11.12,0-16.44-7.57-12.85-24.67C1060.05,184.46,1072.21,160.31,1078.82,151.11Z"/><path class="cls-12" d="M1172.56,151.11c-.8,9.55-15.79,16.2-13.21,22.58,5.91,14.59,15.19,37.18,15.19,37.18s-30.79-.87-42.25,2.78v17H1183c11.12,0,16.58-8.36,12.58-25.36C1191.63,188.63,1183.74,166.74,1172.56,151.11Z"/><path class="cls-12" d="M1092,243.55c12.47-1.87,17.42,10.16,22,29.11s16.5,69.68,22.46,87.1c5.48,16-.92,11-3.67,19.71-2.55,8.08-6.7,14.12-12.83,14.44-4.36.23-.08-13.06,4.81-23.15-.69-9.4-10.55-27.73-25.9-61-15.12-32.71-15.44-37.89-16.35-48.9S1087.43,244.24,1092,243.55Z"/><path class="cls-14" d="M1058.14,219.92a6,6,0,0,0-3.16.9c1.1,4.77,3.79,7.73,7.81,9a6.06,6.06,0,0,0-4.65-9.94Z"/><path class="cls-14" d="M1196.07,221.54a6.05,6.05,0,0,0-8.36,8.53A11.65,11.65,0,0,0,1196.07,221.54Z"/><path class="cls-23" d="M1135.79,243.09c11.69,0,11.46,23.15,10.77,35.53s-8,51.34-17.19,77.7S1118.83,387,1118.6,394.6s-8.71,8.94-14.44,8.71-5.73-1.6.23-17.88,13.52-62.11,14.9-89.16S1114.7,243.09,1135.79,243.09Z"/><path class="cls-21" d="M1080.38,252.56c4.86-8.17,59.32-8.34,75.74-1l-1-23.19-69.84,1.3Z"/><rect class="cls-24" x="1079.16" y="173.17" width="85.12" height="56.98" rx="6.25"/><path class="cls-10" d="M1085.41,174.21H1158a6.25,6.25,0,0,1,6.25,6.25v50.73a0,0,0,0,1,0,0h-85.12a0,0,0,0,1,0,0V180.46A6.25,6.25,0,0,1,1085.41,174.21Z"/><path class="cls-25" d="M1079.16,231.19h85.12a0,0,0,0,1,0,0v1.33a1.36,1.36,0,0,1-1.36,1.36h-82.41a1.36,1.36,0,0,1-1.36-1.36v-1.33A0,0,0,0,1,1079.16,231.19Z"/><circle class="cls-7" cx="1121.38" cy="202.53" r="7.47"/><polygon class="cls-26" points="1462.25 66.31 1547.45 107.34 1568.49 199.53 1509.53 273.47 1414.97 273.47 1356.01 199.53 1377.05 107.34 1462.25 66.31"/><polyline class="cls-27" points="1502.57 190.07 1502.57 202.57 1490.07 202.57"/><line class="cls-28" x1="1470.66" y1="202.57" x2="1441.54" y2="202.57"/><polyline class="cls-27" points="1431.83 202.57 1419.33 202.57 1419.33 190.07"/><polyline class="cls-27" points="1419.33 155.81 1419.33 143.31 1431.83 143.31"/><line class="cls-28" x1="1451.24" y1="143.31" x2="1480.37" y2="143.31"/><polyline class="cls-27" points="1490.07 143.31 1502.57 143.31 1502.57 155.81"/><line class="cls-27" x1="1520.78" y1="186.2" x2="1520.78" y2="173.7"/><polyline class="cls-27" points="1520.78 139.44 1520.78 126.94 1508.28 126.94"/><line class="cls-28" x1="1488.86" y1="126.94" x2="1459.74" y2="126.94"/><polyline class="cls-27" points="1450.04 126.94 1437.54 126.94 1437.54 136.88"/><rect class="cls-11" x="1404.55" y="156.57" width="83.24" height="59.26"/><rect class="cls-11" x="1404.55" y="220.29" width="83.24" height="5.93"/><polygon class="cls-26" points="332.45 286.2 441.94 338.93 468.98 457.4 393.21 552.41 271.69 552.41 195.92 457.4 222.97 338.93 332.45 286.2"/><polygon class="cls-15" points="734.87 52.96 781.07 75.21 792.48 125.2 760.51 165.29 709.23 165.29 677.26 125.2 688.67 75.21 734.87 52.96"/><polygon class="cls-15" points="1462.25 347.69 1487.09 359.65 1493.22 386.53 1476.03 408.08 1448.47 408.08 1431.28 386.53 1437.42 359.65 1462.25 347.69"/><polygon class="cls-15" points="425.99 580.24 483.78 608.07 498.06 670.61 458.06 720.76 393.92 720.76 353.93 670.61 368.2 608.07 425.99 580.24"/><polygon class="cls-11" points="327.37 504.13 257.24 468.03 257.24 388.87 327.37 406.92 327.37 504.13"/><polygon class="cls-11" points="337.53 504.13 407.66 468.03 407.66 388.87 337.53 406.92 337.53 504.13"/><polygon class="cls-11" points="407.09 376.81 333.43 357.3 258.87 376.81 333.43 396.33 407.09 376.81"/><polygon class="cls-7" points="1125.99 872.43 818.95 872.43 819.04 871.77 830.83 844.85 1114.11 844.85 1125.9 871.77 1125.99 872.43"/><rect class="cls-8" x="602.33" y="803.26" width="70.88" height="3.09" rx="1.45"/><rect class="cls-8" x="687.76" y="803.26" width="70.88" height="3.09" rx="1.45"/><rect class="cls-8" x="770.08" y="803.26" width="70.88" height="3.09" rx="1.45"/><rect class="cls-8" x="850.08" y="803.26" width="70.88" height="3.09" rx="1.45"/><rect class="cls-8" x="930.84" y="803.26" width="70.88" height="3.09" rx="1.45"/><rect class="cls-8" x="582.97" y="829.36" width="74.35" height="3.09" rx="1.45"/><rect class="cls-8" x="672.58" y="829.36" width="74.35" height="3.09" rx="1.45"/><rect class="cls-8" x="758.94" y="829.36" width="74.35" height="3.09" rx="1.45"/><rect class="cls-8" x="842.85" y="829.36" width="243.35" height="3.09" rx="1.45"/><rect class="cls-8" x="1012.08" y="803.79" width="70.88" height="3.09" rx="1.45"/><rect class="cls-8" x="1097.5" y="803.79" width="70.88" height="3.09" rx="1.45"/><rect class="cls-8" x="1179.83" y="803.79" width="70.88" height="3.09" rx="1.45"/><rect class="cls-8" x="1259.82" y="803.79" width="70.88" height="3.09" rx="1.45"/><rect class="cls-8" x="1104.03" y="830.15" width="74.35" height="3.09" rx="1.45"/><rect class="cls-8" x="1190.38" y="830.15" width="74.35" height="3.09" rx="1.45"/><rect class="cls-8" x="1274.29" y="830.15" width="74.35" height="3.09" rx="1.45"/><rect class="cls-8" x="984.48" y="817.11" width="74.35" height="3.09" rx="1.45"/><rect class="cls-8" x="1074.09" y="817.11" width="74.35" height="3.09" rx="1.45"/><rect class="cls-8" x="1160.45" y="817.11" width="74.35" height="3.09" rx="1.45"/><rect class="cls-8" x="1244.36" y="817.11" width="74.35" height="3.09" rx="1.45"/><rect class="cls-8" x="639.81" y="816.86" width="74.35" height="3.09" rx="1.45"/><rect class="cls-8" x="726.17" y="816.86" width="74.35" height="3.09" rx="1.45"/><rect class="cls-8" x="810.08" y="816.86" width="74.35" height="3.09" rx="1.45"/><rect class="cls-8" x="894.8" y="816.86" width="74.35" height="3.09" rx="1.45"/><path class="cls-29" d="M964,598.9a75.22,75.22,0,1,1,7.27-.35C968.85,598.79,966.42,598.9,964,598.9Zm.18-136.43q-2.93,0-5.89.28a61.44,61.44,0,0,0,5.8,122.6q2.92,0,5.89-.28a61.44,61.44,0,0,0-5.8-122.6Z"/><path class="cls-29" d="M899.39,480.35l37.36,32.43s.94,3.77-.94,5.46l17.68,2.44,5.17-7.14-5.55-16.37s-1.88,3.76-8.84-2.07-34.73-26-34.73-26l-5.86-.71-12.45-11.33s-7.46-5.77-10.25,1.57c-1.15,3,.94,6.58,4,8.46s12.79,7.71,12.79,7.71Z"/><path class="cls-29" d="M957.84,444.84l-2.66,48.63a4.14,4.14,0,0,1-2,3.71l5.53,16.36,10.75.25,10.29-15.68s-3.4-.64-3.56-9.71S973,445.11,973,445.11l-4.56-5.58,2.17-15s1.12-9.31-7.37-8.2c-3.21.42-5.42,5.35-4.8,8.92S961,440,961,440Z"/><path class="cls-29" d="M1044.86,544.62l-49.19-5.3s-4.37,3.25-5.6,5.34l-18-14.85,2.54-8.36L996,516.7s-1.47,3.94,7.53,5.07,42.7,7.75,42.7,7.75l4.51,3.81,16.77,1.41s9.31,1.54,5.83,8.58c-1.44,2.91-5.46,3.79-9,2.79S1050,542,1050,542Z"/><path class="cls-29" d="M1031.11,477.62l-33.83,35a4.14,4.14,0,0,0-1.32,4l-21.31,4.75-5.83-7.66,8.37-15.93s2.78,2.05,9.54-4,33.86-27.16,33.86-27.16l7.19-.46,9.49-11.76s6-7.16,11-.18c1.88,2.64-.23,7.61-3.27,9.59L1032.49,472Z"/><path class="cls-29" d="M887.49,534.82l47.25-13a23.47,23.47,0,0,1,2.09-5.17l17,3.55,1.5,10.68-12.15,12.29s0-4.21-8.85-2-42.62,8.18-42.62,8.18l-5.58-1.93L870,552.2s-9.23,1.92-8.53-5.9c.29-3.23,3.73-5.5,7.34-5.84l14.88-1.33Z"/><path class="cls-29" d="M924.5,592.34l18.9-44.89a4.14,4.14,0,0,0-.22-4.24l12.13-12.28,9.78,4.49L967.47,554s-3.33-.91-7.45,7.18-21.77,37.54-21.77,37.54l-6.54,3-4.61,14.39S924,625,916.9,620.3c-2.71-1.79-2.54-7.18-.42-10.13l8.75-12.1Z"/><path class="cls-29" d="M1004.72,594.94l-15.07-46.32a4.16,4.16,0,0,1,.58-4.2l-18-15-7.67,5.75.55,18s3.4-.63,6.83,7.78,18.55,39.23,18.55,39.23l6.26,3.57,3.38,14.72s2.31,9.09,9.83,5c2.85-1.55,3.13-6.94,1.26-10s-7.7-12.79-7.7-12.79Z"/><rect class="cls-30" x="849.29" y="604.45" width="17.68" height="72.85" transform="translate(963.31 1706.72) rotate(-132.39)"/><path class="cls-21" d="M711.93,774.4h0a19.31,19.31,0,0,0,27.19,1.2L849.34,674.67a19.31,19.31,0,0,0,1.19-27.19h0a19.29,19.29,0,0,0-27.18-1.19L713.13,747.22A19.29,19.29,0,0,0,711.93,774.4Z"/><path class="cls-30" d="M1104,485.33a142.37,142.37,0,1,0-40.86,143.76c22.67-20.76,36.29-47.35,43.05-75.09C1115.35,516.27,1104,485.33,1104,485.33Zm-57.91,125.14A117.1,117.1,0,1,1,1053.34,445,117.12,117.12,0,0,1,1046.07,610.47Z"/><path class="cls-31" d="M713.62,1016s1.16,4.35,12.76,7.54c9.67,2.66,14.71,4.71,16.61,8a1.34,1.34,0,0,1-1.21,2l-53.42-2.93a3,3,0,0,1-2.88-3.06,76.1,76.1,0,0,1,1.18-13.33C688.11,1007,713.62,1016,713.62,1016Z"/><path class="cls-32" d="M742.6,1031a6,6,0,0,1,.39.53,1.34,1.34,0,0,1-1.21,2l-53.42-2.93a3,3,0,0,1-2.88-3.06c0-.12,0-.26,0-.38,4.55.48,16.52,1.69,24.94,2.27C720.54,1030.19,731.07,1030.62,742.6,1031Z"/><path class="cls-33" d="M686.66,1014.28c1.45-7.25,27,1.74,27,1.74s.47,1.72,3.7,3.8c-7,.69-11.61,1.45-17.76.11s-8.68-2.81-13.32-3.12C686.36,1016,686.49,1015.1,686.66,1014.28Z"/><path class="cls-31" d="M584.22,1004.73s-.78,4.43,8.4,12.21c7.65,6.48,11.36,10.47,11.7,14.26a1.35,1.35,0,0,1-2,1.33l-47.22-25.14a3,3,0,0,1-1.32-4,76.12,76.12,0,0,1,6.68-11.59C564.87,985.84,584.22,1004.73,584.22,1004.73Z"/><path class="cls-32" d="M604.19,1030.55c0,.22.11.44.13.65a1.35,1.35,0,0,1-2,1.33l-47.22-25.14a3,3,0,0,1-1.32-4l.16-.34c3.93,2.35,14.28,8.5,21.67,12.56C584.53,1020.5,593.9,1025.32,604.19,1030.55Z"/><path class="cls-33" d="M560.5,991.8c4.37-6,23.72,12.93,23.72,12.93s-.3,1.76,1.76,5c-6.67-2.33-11.14-3.57-16.16-7.37s-6.69-6.21-10.77-8.45C559.52,993.19,560,992.48,560.5,991.8Z"/><path class="cls-2" d="M676.13,729.58c-.39,17,1.54,25.51,1.54,25.51s33.63,89.88,37.11,131S717.1,1016,717.1,1016a64.12,64.12,0,0,1-15.07,1.55,90.5,90.5,0,0,1-17.79-1.94s-5-94.7-8.5-117.9-30.15-88.91-30.15-88.91S640,866.61,631.28,898.5s-46.38,109-46.38,109-.58-.19-11.6-4.83-13.92-8.11-13.92-8.11S581,921.89,588,890s4.25-87.75,3.48-114.42c-.73-25.17,6.18-54.51,6.18-54.51Z"/><path class="cls-34" d="M568.82,1000c.3-.82,30.63-81.89,38.28-108.28,7.46-25.72,7.13-64.75,5.82-99.53-1.2-32,1.33-51.94,4.25-68.69l-1.15-.2c-2.92,16.82-5.46,36.81-4.26,68.93,1.3,34.69,1.64,73.61-5.77,99.17-7.64,26.34-38,107.37-38.26,108.19Z"/><path class="cls-34" d="M692.56,1016.05l1.15-.06c-.05-1-5.06-102.35-8.51-125.3-3.32-22.17-19.12-61.76-37.56-94.14l-1,.58c18.38,32.26,34.12,71.68,37.43,93.73C687.49,913.76,692.51,1015,692.56,1016.05Z"/><path class="cls-35" d="M631.79,616.63c-18.75,3-26.37,27.63-29.62,53.24-2.3,18.14-6.5,56.08-6.5,56.08s36.88,9.55,60.35,9.55,22.15-.61,22.15-.61l3.45-57a107.37,107.37,0,0,0,23,14.83,111,111,0,0,0,55.82,10c1.45-1.26,6.12-5.67,6.68-12.53a17,17,0,0,0-.49-5.61,112.47,112.47,0,0,1-41.13-12.53c-21.59-11.62-39.19-30.5-41.46-33.53-6.4-8.53-13.71-19.2-23.92-22.71S631.79,616.63,631.79,616.63Z"/><path class="cls-33" d="M658.61,543.93c3.51,3.2,5.49,11.43,6.1,18.44.21,2.43,2.28,19.66-3.2,22.71a16,16,0,0,1-4.73,1.83l3.36,29s-3.1,6.86-10,6.86-18.34-6.09-18.34-6.09,2.64-26.37,2.44-33.68-5-16-4.57-25.15c.45-10.52,7.46-18.34,16-18.14S655.11,540.73,658.61,543.93Z"/><path class="cls-32" d="M667,536.92c4.57-1.37,4-7.92,1.38-9s-5.19.76-6.56-.92.46-4.26-3-5.94-6.24-.3-9.6,2.29-8.07-1.68-11.27.91-4.42,5.79-3.2,8.08-2,2.74-3.66,4.42-5.18,3.66-3.51,7,2,6.25-.91,7.47-4.12,5.79-3.05,9.29S633.77,579,633.77,579l1.83-1.67-2-12.35s7.62,3.81,7.47,3.2.76-6.7-.31-10.66-3.2-6.1-1.07-11.13,9.45-3.81,12.35-2.59a87.83,87.83,0,0,0,8.69,2.74s3.65-1.52,3.35-4.87S665.47,537.38,667,536.92Z"/><path class="cls-36" d="M636.62,557.19a9.21,9.21,0,0,0-10.82,10.06c.45,8.23,9.6,9.9,13.41,9Z"/><path class="cls-37" d="M636.37,561.84a4.58,4.58,0,0,0-5.38,5c.22,4.1,4.78,4.93,6.67,4.48Z"/><path class="cls-37" d="M662,559.68s6.7,5.79,6.4,7-5.49,1.52-5.49,1.52Z"/><circle class="cls-32" cx="652.97" cy="561.15" r="1.17"/><path class="cls-32" d="M657.35,557.25a8.35,8.35,0,0,0-5.12-1.29,7.28,7.28,0,0,0-4.88,2,23.56,23.56,0,0,1,4.95-.78A45.27,45.27,0,0,1,657.35,557.25Z"/><path class="cls-32" d="M662.52,557.6a5.07,5.07,0,0,1,1.37-1.11c0,.24.09.47.13.71C663.53,557.32,663,557.43,662.52,557.6Z"/><path class="cls-37" d="M644,569a4.52,4.52,0,1,0,4.52-4.52A4.53,4.53,0,0,0,644,569Z"/><path class="cls-29" d="M658.26,572.23c0-1.35,2.73-.41,5.79-.41.42,0,.83,0,1.21-.05,0,.93,0,1.87-.07,2.81a12.51,12.51,0,0,1-1.4.09C660.74,574.67,658.26,573.57,658.26,572.23Z"/><path class="cls-33" d="M733.67,716.42c9.78,2.32,17.43,3.92,21,4.45s7.12-2.31,11.74-3.91,6.22-1.25,8.71-3.2c0,0,2.84,1.24,1.07,3.73s-8.59,4.4-8.59,4.4,4.27.4,10.16-2.44c5.45-2.64,9.73-5.8,11-4.45,2.56,2.62-6.58,8.18-6.58,8.18s9.78-5.16,11.2-2.67-5.51,5.69-5.51,5.69,3.56-.89,3.38,1.07-5.69,4.09-5.69,4.09,4.27-1.6,3.73.36-9.62,6.57-20.12,7.64S738,737.2,729,734.89,733.67,716.42,733.67,716.42Z"/><path class="cls-38" d="M643.83,641.42c9.56,12.58,38.4,52,51.21,58.52s32.31,15,39.62,16.66c0,0,1,7.52-1.42,12.4s-4.68,6.09-4.68,6.09-43.15-12.26-65.43-26.62c-24.58-15.85-32.3-28-40.64-39.62-10.77-15-11-32.51,0-37.39S640,636.34,643.83,641.42Z"/><path class="cls-33" d="M766.72,685.64l11.59.8-16.75,15.45a25,25,0,0,0,4.75-10.5A24.58,24.58,0,0,0,766.72,685.64Z"/><polygon class="cls-26" points="1587.41 422.5 1646.16 450.79 1660.67 514.37 1620.01 565.36 1554.8 565.36 1514.14 514.37 1528.65 450.79 1587.41 422.5"/><path class="cls-11" d="M1614.7,512.8l-1.41-3.32s3.26-7.35,3-7.63l-4.31-4.21c-.3-.29-7.65,3.06-7.65,3.06l-3.39-1.37s-3-7.45-3.41-7.45h-6.08c-.42,0-3.2,7.47-3.2,7.47l-3.38,1.37s-7.51-3.19-7.8-2.91l-4.3,4.22c-.3.29,3.13,7.49,3.13,7.49l-1.4,3.32s-7.61,2.93-7.61,3.33v6c0,.42,7.63,3.14,7.63,3.14l1.4,3.31s-3.26,7.34-3,7.63l4.31,4.22c.3.28,7.65-3.07,7.65-3.07l3.4,1.37s3,7.45,3.4,7.45h6.09c.42,0,3.2-7.47,3.2-7.47l3.39-1.37s7.49,3.19,7.78,2.91l4.31-4.22c.3-.29-3.13-7.49-3.13-7.49l1.39-3.32s7.62-2.94,7.62-3.34v-6C1622.32,515.51,1614.7,512.8,1614.7,512.8ZM1603.48,519a8.89,8.89,0,1,1-8.89-8.7A8.81,8.81,0,0,1,1603.48,519Z"/><path class="cls-11" d="M1561.88,489.54l-1.5-1.85s.69-5.26.45-5.38l-3.51-1.86c-.25-.13-4.27,3.36-4.27,3.36l-2.41-.23s-3.28-4.16-3.54-4.09l-3.86,1.14c-.27.08-.63,5.32-.63,5.32l-1.89,1.5s-5.35-.62-5.48-.39l-1.94,3.48c-.13.24,3.38,4.16,3.38,4.16l-.27,2.36s-4.27,3.28-4.2,3.53l1.12,3.77c.07.27,5.41.57,5.41.57l1.5,1.84s-.69,5.25-.46,5.38l3.52,1.87c.24.13,4.27-3.37,4.27-3.37l2.41.24s3.28,4.15,3.54,4.08l3.86-1.14c.26-.08.63-5.32.63-5.32l1.89-1.5s5.34.62,5.47.39l2-3.47c.13-.25-3.38-4.16-3.38-4.16l.26-2.37s4.28-3.28,4.2-3.53l-1.11-3.77C1567.21,489.83,1561.88,489.54,1561.88,489.54Zm-5.94,6a5.87,5.87,0,1,1-7.25-3.85A5.81,5.81,0,0,1,1555.94,495.57Z"/><path class="cls-11" d="M1626.77,468.62l-1.51-1.85s.69-5.26.46-5.38l-3.52-1.87c-.24-.13-4.27,3.37-4.27,3.37l-2.4-.24s-3.29-4.16-3.55-4.08l-3.85,1.13c-.27.08-.64,5.33-.64,5.33l-1.89,1.5s-5.34-.62-5.47-.39l-1.94,3.47c-.14.24,3.37,4.16,3.37,4.16l-.26,2.37s-4.28,3.27-4.2,3.52l1.11,3.78c.08.26,5.41.56,5.41.56l1.51,1.84s-.7,5.26-.46,5.39l3.51,1.87c.24.12,4.27-3.37,4.27-3.37l2.41.23s3.28,4.16,3.55,4.08l3.85-1.13c.27-.08.63-5.32.63-5.32l1.9-1.51s5.34.63,5.47.4l1.94-3.48c.14-.24-3.38-4.16-3.38-4.16l.27-2.36s4.27-3.28,4.2-3.53l-1.12-3.78C1632.1,468.91,1626.77,468.62,1626.77,468.62Zm-6,6a5.87,5.87,0,1,1-7.25-3.85A5.81,5.81,0,0,1,1620.82,474.65Z"/><path class="cls-5" d="M182.6,109.12a13.32,13.32,0,1,0-4.55-25.83,20.6,20.6,0,0,0-39.6-.85,14.35,14.35,0,1,0-7.34,26.68Z"/><path class="cls-12" d="M1206.63,980s-1.22,28.86.46,37.94c1.42,7.64-6,7.57-12.77,7.23s-36.64-.18-36.64-.18-1.06-4.32,5.33-5.33c5.66-.89,20.48-9,20.48-9V982Z"/><rect class="cls-39" x="1157.1" y="1024.65" width="49.41" height="3.25" transform="translate(2363.61 2052.56) rotate(-180)"/><path class="cls-40" d="M1206.27,1011.36a13.9,13.9,0,0,0-8.53,3.06c-4.15,3.28-12.23,2.18-12.23,2.18l-4.16-5.46s-13.33,6.77-16.39,7.43-7.21,1.31-7.43,3.72a24.08,24.08,0,0,0,0,4.37l49-.66s2.18-2.84,2-5.68S1206.27,1011.36,1206.27,1011.36Z"/><rect class="cls-39" x="1157.3" y="1024.65" width="51.5" height="3.25" transform="translate(2366.09 2052.56) rotate(-180)"/><path class="cls-12" d="M1274.59,979.94s4.18,26.79,7.66,37.95c2.32,7.41-6,7.57-12.77,7.23s-36.64-.18-36.64-.18-1.06-4.32,5.33-5.33c5.66-.89,20.55-9,20.55-9l-5.53-28.11Z"/><path class="cls-40" d="M1281.23,1011.36a13.9,13.9,0,0,0-8.53,3.06c-4.15,3.28-12.23,2.18-12.23,2.18l-4.16-5.46s-13.33,6.77-16.39,7.43-7.21,1.31-7.43,3.72a24.08,24.08,0,0,0,0,4.37l49-.66s2.19-2.84,2-5.68S1281.23,1011.36,1281.23,1011.36Z"/><rect class="cls-39" x="1232.26" y="1024.65" width="51.5" height="3.25" transform="translate(2516.01 2052.56) rotate(-180)"/><path class="cls-12" d="M1202.39,683.48s-20.53,0-23.31-1.4,9.22-19.83,9.22-19.83l25.4,2.61Z"/><path class="cls-7" d="M1265.89,729.23c6.62,22.27,4.53,38.63-.34,72.73-4.78,33.42,13,183.9,13,183.9l-24.87,2.61s-21.58-96-29.23-148.24-9-113.43-9-113.43Z"/><path class="cls-41" d="M1224.83,842.5c-2.53-20.12-6.25-55.33-7.37-72.66L1256,745.59c.7,17.63-3,33.4-14.32,50.45C1232,810.62,1226.93,836.11,1224.83,842.5Z"/><path class="cls-7" d="M1190.39,723.67c-13.92,55.32-19.49,98.47-16.71,176.41s4.88,87.17,4.88,87.17l29.22.52s11.17-92.18,11.83-147.88c.7-58.46,44.54-52.89,37.93-112.74Z"/><path class="cls-12" d="M1176.25,661.33c3.42-6.7,13.67-21.06,19-28l21.8,15.58s-9.3,12.08-24.08,28.26a15.23,15.23,0,0,1-12.18,5.4C1173.86,682.43,1170.9,671.82,1176.25,661.33Z"/><path class="cls-12" d="M1244.23,574.14c2.16-.42,2,2.36,2,2.36,2.16-.42,5,2.13,3.3,2.5s-6.21,4.71-6.21,4.71,6.57-2.27,6.83-.73-10.1,6.24-13.17,10.16-6.16,12-14.86,26.07c-6.82,11.06-39.59,41.16-46.35,45.82,3.31-27.48,56.45-91.33,61.24-93.79a3,3,0,0,1,3.68.8C1243.54,571.18,1244.23,574.14,1244.23,574.14Z"/><path class="cls-42" d="M1206.91,664.63l-12.35,18.56s-2.09-20.77-4.17-23.66c-4.85-6.73-8.48-6.94-8.48-6.94l2.66-3.63Z"/><path class="cls-14" d="M1247.62,550.56l-4.54,6a1.2,1.2,0,0,0,.72,1.9l4,.77Z"/><path class="cls-12" d="M1246.79,552.9c-.44,14,0,26.47,14.22,25.57,5.49-.35,11.92-14.8,13-28.75s6.39-21.09-7.88-21.57C1245.68,527.46,1247.22,538.91,1246.79,552.9Z"/><path class="cls-8" d="M1247.07,545.24c.55.09,1.09.14,1.62.18l1.57.13c.52,0,1,.09,1.55.15l.77.1.8.12h.17a.3.3,0,0,0,.2-.16.3.3,0,1,0-.53-.26.31.31,0,0,1,.19-.16h.13l0,0-.08-.06-.18-.12-.39-.21a5.73,5.73,0,0,0-.81-.33,7.55,7.55,0,0,0-1.68-.32,8.77,8.77,0,0,0-1.7,0,6.77,6.77,0,0,0-1.65.36.3.3,0,0,0-.18.39A.31.31,0,0,0,1247.07,545.24Z"/><path class="cls-14" d="M1248.81,558.58a3.86,3.86,0,1,0,4-3.74A3.84,3.84,0,0,0,1248.81,558.58Z"/><path class="cls-12" d="M1290.62,615.3c-17.44,8.78-37.79,10.49-57.2,12.27.07-.68.14-1.36.2-2.06.25-2.88,3.34-6.3,5.72-9.51a17.55,17.55,0,0,1,10.19-6.82c2.34-.51,3.7-1.21,4.62-4.58,1.8-6.59,9.09-49.29,9.09-49.29l22.78,5.83s-1.77,37.56-1,43.38A17,17,0,0,0,1290.62,615.3Z"/><path class="cls-43" d="M1253.59,606.19a10,10,0,0,0,.56-1.59c1.8-6.59,9.09-49.29,9.09-49.29l22.78,5.83s-1.77,37.56-1,43.38a5.75,5.75,0,0,0,1,2.63Z"/><path class="cls-39" d="M1248.53,550.05a1,1,0,0,0,2-.2,1,1,0,0,0-1.09-.89A1,1,0,0,0,1248.53,550.05Z"/><path class="cls-21" d="M1286.56,577.35a10.7,10.7,0,0,0,8-13.94c-1.47-4.5-2.18-9.9.38-14.21,6.8-11.45-1-27.11-14.87-25.55-14.41,1.62-20.58-4-27.17-2-4.26,1.3-4.67,6.34-1.78,9.4.7.74-.94,1.28.07,1.34,3.21.2,6.93,2.23,5.42,8.39-1.91,7.77,4.23,9.48,3.33,14.52l2.47.13s.68-7.88.59-10.91c3.46.41,7.3,7.4,7.43,15.45C1270.68,576.56,1279,578.78,1286.56,577.35Z"/><path class="cls-14" d="M1262.07,564.49a9.93,9.93,0,0,0,.62-19.85Z"/><path class="cls-44" d="M1262.22,559.8a5.23,5.23,0,1,0,.32-10.46Z"/><path class="cls-2" d="M1297.33,641.9c2.05-10.29,0-25.85-11.6-36.66,0,0-17.18-4.68-29.23-5.1s-37.69.8-48.79,14.63-25,35.27-25,35.27c4.19,5.19,18.14,14.25,23.55,15.61,0,0-19.39,35.4-15.91,58,0,0,3.48,6.61,34.1,11.13C1247.58,738.21,1268,731,1268,731s-6.26-16.35,3.83-40.36C1284.42,660.61,1294.19,657.55,1297.33,641.9Z"/><path class="cls-42" d="M1223.27,638.1s-17.73,48.06-28.86,88.66c-3.35-1.82-4-3.09-4-3.09-2.39-15.5,6-37,11.46-49,2.71-5.47,4.45-9,4.45-9C1214.05,653.3,1223.27,638.1,1223.27,638.1Z"/><path class="cls-12" d="M1202.5,673.18c5.72,1.17,9.33,4.48,7.76,5.7s-9.17-1.21-9.17-1.21,8.41,1.51,8.06,4.29-9.46,0-9.46,0,6.75,1.72,6,4.48-6.71-.26-6.71-.26,4.83,1.9,4,3.65-5.26.87-7.15-2.31-2.73-11.71,1.85-17,8.24-4.77,8.24-4.77Z"/></g></g></svg>