<?xml version="1.0" encoding="utf-8"?>
<!-- Generator: Adobe Illustrator 16.0.0, SVG Export Plug-In . SVG Version: 6.00 Build 0)  -->
<!DOCTYPE svg PUBLIC "-//W3C//DTD SVG 1.1//EN" "http://www.w3.org/Graphics/SVG/1.1/DTD/svg11.dtd">
<svg version="1.1" id="Layer_1" xmlns="http://www.w3.org/2000/svg" xmlns:xlink="http://www.w3.org/1999/xlink" x="0px" y="0px"
	 width="850.389px" height="850.391px" viewBox="0 0 850.389 850.391" enable-background="new 0 0 850.389 850.391"
	 xml:space="preserve">
<path fill="#0D0E12" d="M816.851,858.316l-784.61-5.854C33.037,742.246,15.067,506.781,199.9,506.781l451.843,3.325
	C842.52,510.106,817.649,748.077,816.851,858.316z"/>
<g>
	<rect x="577.538" y="681.794" fill="#DADDE5" width="7.553" height="21.787"/>
	<path fill="#DADDE5" d="M581.315,675.417c-1.85,0-3.699,0-5.549,0c0-1.776,0-3.553,0-5.329c0-3.02,2.439-5.331,5.46-5.331
		c3.019,0,5.459,2.312,5.459,5.331C586.685,673.076,584.292,675.372,581.315,675.417z"/>
	<path fill="#DADDE5" d="M570.185,675.401c1.851,0,3.7,0,5.55,0c0,1.776,0,3.552,0,5.329c0,3.019-2.439,5.331-5.46,5.331
		c-3.019,0-5.459-2.312-5.459-5.331C564.816,677.741,567.208,675.446,570.185,675.401z"/>
	<path fill="#DADDE5" d="M635.356,693.704c-1.454,2.092-3.952,3.486-6.799,3.486c-4.242,0-7.438-3.254-7.438-7.669
		c0-4.068,2.848-7.728,7.264-7.728c2.904,0,5.403,1.394,6.973,3.485C635.356,688.088,635.356,690.896,635.356,693.704z
		 M642.908,675.402c-2.421,0-4.843,0-7.263,0c0,0.755,0,1.511,0,2.266c-2.208-1.801-5.055-2.846-8.251-2.846
		c-7.669,0-13.828,6.39-13.828,14.699c0,3.834,1.396,7.32,3.603,9.877c2.498,2.905,6.449,4.764,10.634,4.764
		c2.846,0,5.519-0.871,7.843-2.846c0,0.755,0,1.51,0,2.265c2.42,0,4.842,0,7.263,0C642.908,694.188,642.908,684.796,642.908,675.402
		z"/>
	<path fill="#DADDE5" d="M611.24,668.721c-0.64-0.174-1.567-0.291-2.266-0.291c-1.859,0-3.312,0.524-4.242,1.628
		c-0.64,0.812-1.045,1.859-1.045,4.473c0,0.291,0,0.581,0,0.872c2.905,0,5.811,0,8.715,0c0,2.13,0,4.261,0,6.391
		c-2.904,0-5.81,0-8.715,0c0,7.264,0,14.525,0,21.789c-2.518,0-5.035,0-7.553,0c0-7.264,0-14.525,0-21.789c-2.422,0-4.843,0-7.264,0
		c0-2.13,0-4.261,0-6.391c2.421,0,4.842,0,7.264,0c0-0.388,0-0.774,0-1.162c0-4.532,1.045-7.263,3.021-9.18s4.938-3.312,8.773-3.312
		c1.511,0,2.904,0.115,4.474,0.522C612.015,664.421,611.627,666.57,611.24,668.721z"/>
	<path fill="#DADDE5" d="M531.459,685.86c0.348-2.557,2.904-4.938,6.043-4.938c3.079,0,5.345,2.439,5.578,4.938
		C539.206,685.86,535.333,685.86,531.459,685.86z M545.811,694.808c-1.337,1.453-3.894,3.254-7.089,3.254
		c-4.009,0-7.204-2.729-7.611-6.682c6.507,0,13.015,0,19.522,0c0.116-0.639,0.174-1.395,0.174-2.149
		c0-7.844-5.52-14.408-13.305-14.408c-8.366,0-13.712,6.855-13.712,14.698c0,8.832,6.332,14.642,14.758,14.642
		c4.357,0,8.831-1.801,11.562-5.054C548.677,697.675,547.243,696.241,545.811,694.808z"/>
	<polygon fill="#DADDE5" points="508.215,692.601 515.944,675.402 523.786,675.402 510.829,703.581 505.601,703.581 
		492.645,675.402 500.488,675.402 	"/>
	<rect x="555.457" y="675.401" fill="#DADDE5" width="7.554" height="28.18"/>
</g>
<polyline fill="#FAD5D5" points="538.092,530.695 318.695,530.695 318.695,302.199 538.092,302.199 "/>
<g>
	<path fill="#FFB8B2" d="M317.411,355.397c-28.934,4.494-55.513-4.045-64.693-63.046c-8.882-57.075,3.595-73.682,32.528-78.197
		L317.411,355.397z"/>
	<path fill="#F39797" d="M302.089,322.376c-16.18,2.525-25.467-2.29-30.025-31.608c-4.43-28.462,2.718-36.723,19.004-39.249
		L302.089,322.376z"/>
</g>
<g>
	<path fill="#FFB8B2" d="M539.077,360.127c29.19,2.204,61.825-7.918,66.319-67.454c4.345-57.61-9.416-73.168-38.605-75.373
		L539.077,360.127z"/>
	<path fill="#F39797" d="M558.551,326.528c16.329,1.241,25.21-4.302,27.436-33.898c2.162-28.719-5.606-36.381-22.042-37.622
		L558.551,326.528z"/>
</g>
<path fill="#FAD5D5" d="M428.501,488.615c60.585,0,108.193,17.42,108.193,38.08s-47.608,36.736-108.193,36.736
	s-109.699-16.748-109.699-37.408S367.916,488.615,428.501,488.615z"/>
<path fill="#FCE1E1" d="M431.112,60.435c83.377-1.883,124.016,12.776,130.907,124.979c6.891,112.353-2.954,193.953-46.247,254.558
	c-27.734,38.821-36.616,46.075-84.66,45.284c-48.044-0.942-82.498-6.164-108.992-78.904
	c-26.493-72.74-31.801-111.089-30.924-189.993C292.266,137.134,271.058,63.923,431.112,60.435z"/>
<path opacity="0.29" fill="#F29D9D" enable-background="new    " d="M509.031,102.722c-36.038,41.688-89.753,83.227-127.375,91.059
	s-74.303-3.51-74.303-3.51l-14.017,25.638c0,0,30.923-53.651,16.242-37.986c-14.659,15.665,0,0,0,0l12.198-75.223l71.371-31.651
	l114.128,10.978L509.031,102.722z"/>
<polygon opacity="0.56" fill="#F29D9D" enable-background="new    " points="428.651,227.294 462.206,323.34 418.229,322.291 "/>
<circle opacity="0.56" fill="#F29D9D" enable-background="new    " cx="348.1" cy="321.927" r="30.56"/>
<ellipse opacity="0.56" fill="#F29D9D" enable-background="new    " cx="505.136" cy="320.686" rx="30.56" ry="30.56"/>
<path fill="#FAD5D5" d="M322.119,266.222c0,0,1.584-9.181,36.038-9.181c34.455,0,34.797,9.181,34.797,9.181
	s-9.716,4.409-33.384,4.409C335.902,270.801,322.119,266.222,322.119,266.222z"/>
<path fill="#FAD5D5" d="M461.5,266.222c0,0,1.584-9.181,36.039-9.181c34.454,0,34.818,9.181,34.818,9.181s-9.716,4.409-33.385,4.409
	C475.112,270.801,461.5,266.222,461.5,266.222z"/>
<circle fill="#4F79A2" cx="355.697" cy="251.027" r="6.014"/>
<path fill="#D38800" d="M318.588,239.278c4.772-5.821,10.594-10.422,17.313-13.418c6.72-3.188,14.124-5.115,21.721-5.479
	c7.598-0.364,15.194,0.877,22.257,3.702c6.891,2.825,13.075,7.062,18.02,12.905c-7.598-0.171-14.317-1.241-20.673-1.583
	c-6.356-0.535-12.541-0.535-18.897-0.364c-6.185,0.364-12.369,1.07-18.896,1.776C332.712,237.502,326.186,238.915,318.588,239.278z"
	/>
<path fill="#4F79A2" d="M504.793,249.958c0,4.066-2.118,6.013-6.014,6.013c-4.065,0-6.013-2.118-6.013-6.013
	s2.118-6.014,6.013-6.014C502.675,243.772,504.793,245.891,504.793,249.958z"/>
<path fill="#D38800" d="M455.851,239.278c4.772-5.821,10.593-10.422,17.312-13.418c6.72-3.188,14.125-5.115,21.722-5.479
	c7.598-0.364,15.194,0.877,22.257,3.702c6.891,2.825,13.075,7.062,18.019,12.905c-7.597-0.171-14.316-1.241-20.673-1.583
	c-6.355-0.535-12.54-0.535-18.896-0.364c-6.185,0.364-12.369,1.07-18.896,1.776C469.996,237.502,463.448,238.915,455.851,239.278z"
	/>
<path fill="#FFFFFF" d="M485.405,390.109c0.193,7.918-17.869,25.531-53.629,25.66c-35.761,0.063-54.036-17.484-54.229-25.403
	c-0.192-7.918,18.897-1.22,54.636-1.284C467.942,389.018,485.191,382.191,485.405,390.109z"/>
<polygon fill="#FAD5D5" points="418.229,322.633 438.537,353 442.968,322.633 "/>
<path fill="#D38800" d="M288.199,304.25l20.844,7.426c0,0-11.128-80.744-2.995-104.926c8.132-24.375,15.022-44.513,9.181-83.569
	c11.834-29.511,21.914-33.385,103.706-31.972c81.793,1.412,90.268-2.482,90.268-2.482s0.706,71.028,36.744,93.991
	c0,0,3.896,79.139,2.996,130.735l17.142-12.198c0,0,8.646-172.595-13.418-227.188C530.581,19.475,334.489,7.811,302.859,88.191
	C271.229,168.571,288.199,304.25,288.199,304.25z"/>
<path fill="#D38800" d="M522.085,53.736c-8.475-20.116-21.679-20.78-58.638-25.98c-36.958-5.2-62.553-1.113-62.553-1.113
	l40.639,14.809L522.085,53.736z"/>
<path fill="#D38800" d="M445.878,43.293c-13.718-16.97-26.579-13.975-63.517-8.752c-36.938,5.222-60.413,16.221-60.413,16.221
	l43.143,2.996L445.878,43.293z"/>
<path fill="#D38800" d="M509.031,53.736c4.494,86.073-38.884,72.483-101.138,85.367c-62.255,12.883-113.08-12.07-113.08-12.07
	l59.472-54.058L509.031,53.736z"/>
<path fill="#F36839" d="M437.66,320.686c0-4.066-2.119-6.185-6.185-6.185c-4.066,0-6.185,2.119-6.185,6.185
	c0,0.877,0.171,1.241,0.363,2.119l11.492,0.171C437.66,322.098,437.66,321.563,437.66,320.686z"/>
<path fill="#FAD5D5" d="M485.169,181.476c-6.891,0-9.373-2.033-11.492-3.681c-1.947-1.541-3.53-2.868-8.646-2.868
	c-5.114,0-6.72,1.306-8.646,2.868c-2.119,1.776-4.602,3.681-11.492,3.681s-9.374-2.033-11.492-3.681
	c-1.947-1.541-3.531-2.868-8.646-2.868c-5.115,0-6.72,1.306-8.646,2.868c-2.118,1.776-4.601,3.681-11.491,3.681
	c-6.892,0-9.374-2.033-11.492-3.681c-1.947-1.541-3.531-2.868-8.646-2.868c-5.115,0-6.721,1.306-8.646,2.868
	c-2.118,1.776-4.601,3.681-11.492,3.681c-1.069,0-1.775-0.599-1.775-1.199c0-0.706,0.877-1.198,1.775-1.198
	c5.115,0,6.72-1.306,8.646-2.868c2.118-1.776,4.601-3.681,11.492-3.681c6.891,0,9.373,2.033,11.491,3.681
	c1.948,1.541,3.531,2.868,8.646,2.868c5.114,0,6.72-1.306,8.646-2.868c2.118-1.776,4.602-3.681,11.492-3.681
	s9.373,2.033,11.492,3.681c1.947,1.541,3.53,2.868,8.646,2.868c5.114,0,6.72-1.198,8.646-2.868
	c2.119-1.776,4.602-3.681,11.492-3.681s9.373,2.033,11.492,3.681c1.947,1.541,3.531,2.868,8.646,2.868
	c1.07,0,1.776,0.599,1.776,1.198C486.946,180.877,486.24,181.476,485.169,181.476z"/>
<path fill="#FAD5D5" d="M391.991,441.898c0,0,1.584-9.181,36.039-9.181c34.454,0,34.797,9.181,34.797,9.181
	s-9.716,4.408-33.385,4.408C405.774,446.499,391.991,441.898,391.991,441.898z"/>
<path fill="#322200" d="M538.499,287.9H468.37c-14.382,0-30.967-19.475-31.331-32.464l-3.103-28.142
	c0-13.868,11.278-25.146,25.146-25.146h79.417c13.867,0,25.146,11.278,25.146,25.146v35.46
	C563.645,276.601,552.366,287.9,538.499,287.9z M447.098,226.952l3.082,28.056c0,6.827,11.898,19.731,18.169,19.731h70.129
	c6.613,0,11.984-5.372,11.984-11.984v-35.46c0-6.613-5.371-11.984-11.984-11.984h-79.417
	C452.576,215.31,447.269,220.51,447.098,226.952z"/>
<path fill="#322200" d="M392.12,287.9h-70.13c-13.867,0-25.145-11.278-25.145-25.146v-35.46c0-13.868,11.277-25.146,25.145-25.146
	h79.418c13.867,0,25.145,11.278,25.145,25.146l-0.042,0.728l-3.061,27.414C423.086,268.404,406.501,287.9,392.12,287.9z
	 M321.99,215.31c-6.612,0-11.984,5.372-11.984,11.984v35.46c0,6.613,5.372,11.984,11.984,11.984h70.13
	c6.292,0,18.169-12.905,18.169-19.731l0.043-0.728l3.039-27.307c-0.172-6.463-5.479-11.663-11.984-11.663H321.99z"/>
<rect x="419.962" y="220.703" fill="#322200" width="20.544" height="13.161"/>
<path fill="#322200" d="M581.963,231.425c-0.685,0-1.391-0.107-2.075-0.343l-27.414-9.074c-3.445-1.134-5.329-4.858-4.173-8.303
	c1.134-3.445,4.857-5.329,8.303-4.173l27.414,9.074c3.445,1.135,5.329,4.858,4.174,8.304
	C587.292,229.691,584.725,231.425,581.963,231.425z"/>
<path fill="#322200" d="M277.093,231.425c-2.761,0-5.329-1.755-6.249-4.516c-1.134-3.445,0.728-7.169,4.173-8.304l27.414-9.074
	c3.445-1.155,7.169,0.728,8.304,4.173c1.134,3.445-0.729,7.169-4.173,8.303l-27.414,9.074
	C278.462,231.317,277.778,231.425,277.093,231.425z"/>
</svg>
