<?xml version="1.0" encoding="utf-8"?>
<!-- Generator: Adobe Illustrator 24.0.0, SVG Export Plug-In . SVG Version: 6.00 Build 0)  -->
<svg version="1.1" id="Layer_1" xmlns="http://www.w3.org/2000/svg" xmlns:xlink="http://www.w3.org/1999/xlink" x="0px" y="0px"
	 viewBox="0 0 850.4 850.4" style="enable-background:new 0 0 850.4 850.4;" xml:space="preserve">
<style type="text/css">
	.st0{fill:#FAD5BD;}
	.st1{fill:#0D0E12;}
	.st2{fill:#DADDE5;}
	.st3{fill:#F5A9A9;}
	.st4{fill:#FFBB9C;}
	.st5{fill:#FF9462;}
	.st6{fill:#F8A68B;}
	.st7{fill:#FCE1CB;}
	.st8{opacity:0.17;fill:#4B4B4B;enable-background:new    ;}
	.st9{opacity:0.65;fill:#FFBB9C;enable-background:new    ;}
	.st10{fill:#684D44;}
	.st11{fill:#94A0AF;}
	.st12{opacity:0.33;fill:#FFBB9C;enable-background:new    ;}
	.st13{opacity:0.37;fill:#FFBB9C;enable-background:new    ;}
	.st14{fill:#FCE1CC;}
</style>
<polyline class="st0" points="545.4,528.7 313.6,528.7 313.6,255.5 545.4,255.5 "/>
<path class="st1" d="M816.9,858.3l-784.6-5.9C33,742.2,15.1,506.8,199.9,506.8l451.8,3.3C842.5,510.1,817.6,748.1,816.9,858.3z"/>
<g>
	<rect x="577.5" y="681.8" class="st2" width="7.6" height="21.8"/>
	<path class="st2" d="M581.3,675.4c-1.8,0-3.7,0-5.5,0c0-1.8,0-3.6,0-5.3c0-3,2.4-5.3,5.5-5.3c3,0,5.5,2.3,5.5,5.3
		C586.7,673.1,584.3,675.4,581.3,675.4z"/>
	<path class="st2" d="M570.2,675.4c1.9,0,3.7,0,5.5,0c0,1.8,0,3.6,0,5.3c0,3-2.4,5.3-5.5,5.3c-3,0-5.5-2.3-5.5-5.3
		C564.8,677.7,567.2,675.4,570.2,675.4z"/>
	<path class="st2" d="M635.4,693.7c-1.5,2.1-4,3.5-6.8,3.5c-4.2,0-7.4-3.3-7.4-7.7c0-4.1,2.8-7.7,7.3-7.7c2.9,0,5.4,1.4,7,3.5
		C635.4,688.1,635.4,690.9,635.4,693.7z M642.9,675.4c-2.4,0-4.8,0-7.3,0c0,0.8,0,1.5,0,2.3c-2.2-1.8-5.1-2.8-8.3-2.8
		c-7.7,0-13.8,6.4-13.8,14.7c0,3.8,1.4,7.3,3.6,9.9c2.5,2.9,6.4,4.8,10.6,4.8c2.8,0,5.5-0.9,7.8-2.8c0,0.8,0,1.5,0,2.3
		c2.4,0,4.8,0,7.3,0C642.9,694.2,642.9,684.8,642.9,675.4z"/>
	<path class="st2" d="M611.2,668.7c-0.6-0.2-1.6-0.3-2.3-0.3c-1.9,0-3.3,0.5-4.2,1.6c-0.6,0.8-1,1.9-1,4.5c0,0.3,0,0.6,0,0.9
		c2.9,0,5.8,0,8.7,0c0,2.1,0,4.3,0,6.4c-2.9,0-5.8,0-8.7,0c0,7.3,0,14.5,0,21.8c-2.5,0-5,0-7.6,0c0-7.3,0-14.5,0-21.8
		c-2.4,0-4.8,0-7.3,0c0-2.1,0-4.3,0-6.4c2.4,0,4.8,0,7.3,0c0-0.4,0-0.8,0-1.2c0-4.5,1-7.3,3-9.2s4.9-3.3,8.8-3.3
		c1.5,0,2.9,0.1,4.5,0.5C612,664.4,611.6,666.6,611.2,668.7z"/>
	<path class="st2" d="M531.5,685.9c0.3-2.6,2.9-4.9,6-4.9s5.3,2.4,5.6,4.9C539.2,685.9,535.3,685.9,531.5,685.9z M545.8,694.8
		c-1.3,1.5-3.9,3.3-7.1,3.3c-4,0-7.2-2.7-7.6-6.7c6.5,0,13,0,19.5,0c0.1-0.6,0.2-1.4,0.2-2.1c0-7.8-5.5-14.4-13.3-14.4
		c-8.4,0-13.7,6.9-13.7,14.7c0,8.8,6.3,14.6,14.8,14.6c4.4,0,8.8-1.8,11.6-5.1C548.7,697.7,547.2,696.2,545.8,694.8z"/>
	<polygon class="st2" points="508.2,692.6 515.9,675.4 523.8,675.4 510.8,703.6 505.6,703.6 492.6,675.4 500.5,675.4 	"/>
	<rect x="555.5" y="675.4" class="st2" width="7.6" height="28.2"/>
</g>
<ellipse class="st0" cx="429.5" cy="506.2" rx="115.9" ry="39.5"/>
<path class="st3" d="M431.8,423.2c-1,0-1.6-0.8-1.6-1.6v-35.8c0-1,0.8-1.6,1.6-1.6c1,0,1.6,0.8,1.6,1.6v35.8
	C433.6,422.6,432.8,423.2,431.8,423.2z"/>
<path class="st4" d="M335.9,278.3c-0.1,35.2-16.3,63.8-36.2,63.8c-19.9,0-36.1-28.6-36-63.9c0.1-35.2,16.3-63.8,36.2-63.8
	C319.9,214.5,336,243.1,335.9,278.3z"/>
<path class="st5" d="M318.5,278.3c0,18.3-8.4,33.1-18.8,33.1c-10.3,0-18.7-14.9-18.7-33.1c0-18.3,8.4-33.1,18.8-33.1
	C310.2,245.2,318.6,260,318.5,278.3z"/>
<path class="st4" d="M592.1,274.3c-0.1,35.2-16.3,63.8-36.2,63.8s-36.1-28.6-36-63.9c0.1-35.2,16.3-63.8,36.2-63.8
	C576,210.5,592.2,239.1,592.1,274.3z"/>
<path class="st5" d="M574.7,274.3c0,18.3-8.4,33.1-18.8,33.1c-10.3,0-18.7-14.9-18.7-33.1c0-18.3,8.4-33.1,18.8-33.1
	C566.4,241.2,574.8,256,574.7,274.3z"/>
<path class="st6" d="M315.8,95.3c-27,43.7-36.7,83.4-33.7,128.6c1.8,27.1,4.1,127.5,27.4,173.2c18.9,36.9,68.8,73.2,86.2,77.3
	c17.4,4.1,63.2,5.4,81.1-2.2s51-38.9,66.7-74.3s24.6-98.8,26.2-140.7s5.6-104.6-18.2-148.4s-65.8-74.1-123.2-73.2
	C370.8,36.4,329.5,73.2,315.8,95.3z"/>
<path class="st7" d="M315.8,95.3c-27,43.7-36.7,83.4-33.7,128.6c1.8,27.1,4.1,127.5,27.4,173.2c18.9,36.9,68.8,73.2,86.2,77.3
	c17.4,4.1,63.2,5.4,81.1-2.2s51-38.9,66.7-74.3s24.6-98.8,26.2-140.7s5.6-104.6-18.2-148.4s-65.8-74.1-123.2-73.2
	C370.8,36.4,329.5,73.2,315.8,95.3z"/>
<polygon class="st8" points="408.7,302.3 442.8,326.2 447.6,301 "/>
<polygon class="st9" points="422.2,219.8 408.7,302.3 467.4,301.4 "/>
<path class="st9" d="M433.3,301.4c0.2-4.2-2.9-7.7-6.9-7.8c-4-0.2-7.3,3.1-7.5,7.2c0,0.5,0,0.9,0.1,1.3l14.2-0.2
	C433.2,301.8,433.3,301.6,433.3,301.4z"/>
<path class="st10" d="M428.3,35.5c-57.5,0.9-98.8,37.7-112.4,59.8c-27,43.7-36.7,83.4-33.7,128.6c0.5,7.9,1.1,22,2.2,39.2
	c8.3-1,11-4.5,11.1-21.4c0.1-18.2-2-31.5,7.9-40.6c9.9-9,3.5-44.5,8.7-69.5c5.1-24.9,25.1-46.1,25.1-46.1s37.9-43.5,96.1-43.3
	c50.4,0.1,95.2,55.7,95.2,55.7s12.1,25.6,12.8,47.3c1.1,34,19.6,40.3,18.8,60.4c-0.5,12.1-0.7,27.3-0.8,37.5
	c-0.1,6.3,4.5,11.5,10.5,11.9c1.7-41.9,5.1-103.2-18.3-146.3C527.7,64.9,485.7,34.6,428.3,35.5z"/>
<path class="st11" d="M374.3,243.6c-0.1,3.3-2.8,5.9-5.9,5.7c-3.1-0.1-5.6-2.9-5.4-6.2s2.8-5.9,5.9-5.7S374.4,240.3,374.3,243.6z"/>
<path class="st11" d="M492.4,243c-0.1,3.3-2.8,5.9-5.9,5.7c-3.1-0.1-5.6-2.9-5.4-6.2s2.8-5.9,5.9-5.7
	C490.1,236.9,492.5,239.7,492.4,243z"/>
<ellipse class="st12" cx="358" cy="311.3" rx="32.9" ry="34.6"/>
<ellipse class="st12" cx="503.4" cy="313.6" rx="32.9" ry="34.6"/>
<path class="st10" d="M316.1,223.8c7.6-10.2,20.6-18.1,34.7-22.5c14.1-4.3,29.4-5.4,42.8-2.6l6.4,14.8c-13.3,1.4-30.2,1.5-46.4-2.4
	C341.1,213.7,329,218,316.1,223.8z"/>
<path class="st10" d="M537,223.8c-7.6-10.2-20.6-18.1-34.7-22.5c-14.1-4.3-29.4-5.4-42.8-2.6l-6.4,14.8c13.3,1.4,30.2,1.5,46.4-2.4
	C512,213.7,524,218,537,223.8z"/>
<path class="st13" d="M331.8,254.9c0,0,1.7-5.5,38.8-5.5s37.5,5.5,37.5,5.5s-10.5,2.7-36,2.7C346.6,257.7,331.8,254.9,331.8,254.9z"
	/>
<path class="st13" d="M450.1,252.4c0,0,1.6-4.3,37.2-4.3s35.9,4.3,35.9,4.3s-10,2.1-34.5,2.1S450.1,252.4,450.1,252.4z"/>
<path class="st10" d="M453.6,514.5l-51.9-1.3c-47.2-1.2-84.7-38-83.4-81.9l0.4-13c1.3-43.9,40.9-78.7,88.1-77.5l51.9,1.3
	c47.2,1.2,84.7,38,83.4,81.9l-0.4,13C540.4,480.7,500.8,515.7,453.6,514.5z"/>
<ellipse class="st14" cx="432" cy="403.9" rx="70.7" ry="33.3"/>
<ellipse class="st10" cx="431.2" cy="434.2" rx="25.9" ry="32.6"/>
<path class="st4" d="M378.3,389.3c0,0,20.4-4.4,55-5.4c27.5-0.8,50.6,5.9,50.6,5.9S468.8,409,431.3,409S378.3,389.3,378.3,389.3z"/>
<path class="st5" d="M433.7,393.6c15.1,0.2,50.2-3.9,50.2-3.9s-23.1-6.7-50.6-5.9c-34.6,1-55,5.4-55,5.4
	C407,395.4,418.5,393.4,433.7,393.6z"/>
<path class="st10" d="M318.3,432.8c4.2,10.1-7.3,11.4-25.5-36.4c-14.4-37.9-7-118.6-7.6-135.2s8.4-19.9,10.7-5.1
	c2.4,14.8,7,87.4,19.5,114.4s24.6,21.9,31.6,26.4"/>
<path class="st10" d="M535.1,432.8c-4.2,10.1,7.3,11.4,25.5-36.4c14.4-37.9,7-118.6,7.6-135.2s-8.4-19.9-10.7-5.1
	c-2.4,14.8-7,87.4-19.5,114.4s-24.6,21.9-31.6,26.4"/>
</svg>
