<?xml version="1.0" encoding="utf-8"?>
<!-- Generator: Adobe Illustrator 16.0.0, SVG Export Plug-In . SVG Version: 6.00 Build 0)  -->
<!DOCTYPE svg PUBLIC "-//W3C//DTD SVG 1.1//EN" "http://www.w3.org/Graphics/SVG/1.1/DTD/svg11.dtd">
<svg version="1.1" id="Layer_1" xmlns="http://www.w3.org/2000/svg" xmlns:xlink="http://www.w3.org/1999/xlink" x="0px" y="0px"
	 width="850.389px" height="850.391px" viewBox="0 0 850.389 850.391" enable-background="new 0 0 850.389 850.391"
	 xml:space="preserve">
<g>
	<path fill="#BE8757" d="M322.597,323.064c-28.744,5.057-45.484-2.118-55.734-48.537c-9.885-44.916,2.255-58.741,30.999-63.797
		L322.597,323.064z"/>
	<path fill="#966235" d="M315.855,292.361c-16.08,2.824-25.555-1.116-31.317-27.195c-5.558-25.282,1.253-32.935,17.424-35.782
		L315.855,292.361z"/>
</g>
<g>
	<path fill="#BE8757" d="M556.035,210.707c28.744,5.057,40.884,18.905,30.999,63.82c-10.227,46.441-26.99,53.594-55.734,48.56
		L556.035,210.707z"/>
	<path fill="#966235" d="M551.912,229.361c16.172,2.847,23.005,10.5,17.425,35.805c-5.74,26.057-15.215,30.02-31.318,27.195
		L551.912,229.361z"/>
</g>
<polyline fill="#9D7148" points="522.144,530.605 335.193,530.605 335.193,310.332 522.144,310.332 "/>
<path fill="#0D0E12" d="M816.851,858.316l-784.61-5.854C33.037,742.246,15.067,506.781,199.9,506.781l451.843,3.325
	C842.52,510.106,817.649,748.077,816.851,858.316z"/>
<ellipse fill="#9D7148" cx="428.668" cy="510.015" rx="93.476" ry="36.169"/>
<path fill="#BE8757" d="M558.176,154.357c0-2.619-0.479-5.58-1.366-8.792c-7.357-51.02-62.613-90.651-129.69-90.651
	c-46.487,0-87.258,19.064-110.398,47.694c-8.838,9.248-13.985,20.066-16.946,32.047c-1.913,6.628-2.983,13.506-3.143,20.567
	c-1.526,19.52,0,40.975-0.296,62.955c-0.866,75.026,4.669,123.928,30.292,193.078c25.624,69.15,66.485,71.678,66.485,71.678
	s51.248,0.729,68.558-0.068C529.524,472.662,564.827,261.135,558.176,154.357z"/>
<polygon opacity="0.65" fill="#9D7148" enable-background="new    " points="421.242,223.485 462.401,324.454 408.488,323.338 "/>
<circle opacity="0.55" fill="#9D7148" enable-background="new    " cx="349.815" cy="309.922" r="30.566"/>
<ellipse opacity="0.55" fill="#9D7148" enable-background="new    " cx="504.013" cy="309.922" rx="30.566" ry="30.566"/>
<path fill="#BE8757" d="M454.246,469.678h-47.011c-14.987,0-27.241-12.254-27.241-27.24v-48.629
	c0-14.987,12.254-27.241,27.241-27.241h47.011c14.987,0,27.241,12.254,27.241,27.241v48.629
	C481.51,457.401,469.234,469.678,454.246,469.678z"/>
<path opacity="0.37" fill="#69452D" enable-background="new    " d="M322.233,254.21c0,0,1.571-9.202,36.056-9.202
	c34.483,0,34.825,9.202,34.825,9.202s-9.703,4.419-33.413,4.419C336.013,258.812,322.233,254.21,322.233,254.21z"/>
<path opacity="0.37" fill="#69452D" enable-background="new    " d="M461.671,254.21c0,0,1.572-9.202,36.056-9.202
	c34.484,0,34.825,9.202,34.825,9.202s-9.702,4.419-33.413,4.419C475.292,258.812,461.671,254.21,461.671,254.21z"/>
<path fill="#3E322F" d="M312.37,213.554c4.942-5.694,6.013-10.819,13.188-13.848c7.175-3.212,25.692-4.761,33.915-5.284
	c8.29-0.501,36.101-3.553,43.891-1.025c7.311,2.437,10.227,17.925,3.416,17.378c-0.41-0.023-4.556,0.433-4.965,0.41
	c-7.858-0.046-13.689-2.733-20.294-2.893c-6.97-0.342-13.689-0.183-20.591,0.136c-6.719,0.501-13.461,1.298-20.521,2.187
	C333.074,211.391,320.615,213.03,312.37,213.554z"/>
<path fill="#3E322F" d="M511.143,210.98c-6.72-0.888-13.12-1.731-19.52-2.255c-6.561-0.342-12.961-0.524-19.589-0.228
	c-6.286,0.137-11.82,2.802-19.291,2.825c-0.388,0.022-4.328-0.433-4.738-0.41c-6.491,0.546-3.712-14.964,3.212-17.356
	c7.448-2.46,33.846,0.683,41.727,1.207c7.858,0.57,25.441,2.187,32.252,5.421c6.833,3.075,7.858,8.177,12.573,13.894
	C529.956,213.531,518.089,211.846,511.143,210.98z"/>
<polygon opacity="0.37" fill="#966235" enable-background="new    " points="408.989,323.497 429.306,348.142 433.725,323.497 "/>
<path opacity="0.37" fill="#69452D" enable-background="new    " d="M431.219,322.153c0-4.077-2.756-6.172-8.018-6.172
	s-8.018,2.118-8.018,6.172c0,0.888,0.229,1.23,0.434,2.118l14.918,0.182C431.219,323.588,431.219,323.042,431.219,322.153z"/>
<path opacity="0.55" fill="#9D7148" enable-background="new    " d="M489.299,161.669c-6.9,0-9.384-1.663-11.524-3.029
	c-1.959-1.253-3.53-2.346-8.678-2.346s-6.72,1.093-8.679,2.346c-2.118,1.458-4.601,3.029-11.524,3.029s-9.384-1.663-11.525-3.029
	c-1.958-1.253-3.53-2.346-8.678-2.346s-6.719,1.093-8.678,2.346c-2.118,1.458-4.601,3.029-11.525,3.029
	c-6.901,0-9.384-1.663-11.524-3.029c-1.959-1.253-3.53-2.346-8.678-2.346s-6.72,1.093-8.679,2.346
	c-2.118,1.458-4.601,3.029-11.524,3.029c-1.07,0-1.776-0.501-1.776-0.979c0-0.592,0.888-0.979,1.776-0.979
	c5.147,0,6.719-1.093,8.678-2.346c2.118-1.458,4.601-3.029,11.525-3.029c6.924,0,9.384,1.663,11.524,3.029
	c1.959,1.252,3.53,2.346,8.678,2.346s6.72-1.093,8.679-2.346c2.118-1.458,4.601-3.029,11.524-3.029s9.384,1.663,11.525,3.029
	c1.959,1.252,3.53,2.346,8.678,2.346s6.719-0.979,8.678-2.346c2.118-1.458,4.601-3.029,11.525-3.029
	c6.924,0,9.384,1.663,11.524,3.029c1.959,1.252,3.53,2.346,8.678,2.346c1.071,0,1.777,0.501,1.777,0.979
	C491.076,161.19,490.37,161.669,489.299,161.669z"/>
<path opacity="0.12" fill="#846323" enable-background="new    " d="M291.324,215.331c0.023-1.48,0.023-2.938,0.023-4.418
	C291.256,213.736,291.324,215.331,291.324,215.331z"/>
<path opacity="0.12" fill="#846323" enable-background="new    " d="M564.896,209.705c0,0.159,0,0.296,0,0.41
	C564.896,210.001,564.896,209.864,564.896,209.705z"/>
<path opacity="0.12" fill="#846323" enable-background="new    " d="M564.896,210.138c0,0.364,0,0.569,0,0.569
	C564.941,210.593,564.896,210.411,564.896,210.138z"/>
<circle fill="#0D0C10" cx="355.805" cy="243.574" r="6.013"/>
<path fill="#0D0C10" d="M504.992,242.503c0,4.077-2.118,6.013-6.013,6.013c-4.077,0-6.013-2.119-6.013-6.013
	c0-3.872,2.118-6.013,6.013-6.013C502.874,236.308,504.992,238.426,504.992,242.503z"/>
<path fill="#BE8757" d="M456.684,483.686h-56.031c-14.646,0-26.626-11.98-26.626-26.626v-12.3c0-14.645,11.98-26.625,26.626-26.625
	h56.031c14.645,0,26.625,11.98,26.625,26.625v12.3C483.332,471.705,471.328,483.686,456.684,483.686z"/>
<path fill="#3E322F" d="M296.723,242.48c0,0-4.896-99.375-3.689-101.174s-9.316-44.961,14.645-70.334
	c13.553-14.327,27.515-16.058,27.515-16.058s14.235-14.486,45.188-16.65c34.803-2.437,85.003,17.014,131.148,26.876
	s52.592,30.02,53.435,62.271c0.843,32.252-0.046,26.899-0.046,26.899l0,0l-1.867,65.825l-5.694-8.45l-0.524-66.144
	c0,0-47.079-33.823-107.118-33.368c-60.04,0.456-129.531,10.75-136.66,30.452c-7.129,19.702-10.728,98.555-10.728,98.555
	L296.723,242.48z"/>
<path fill="#3E322F" d="M341.73,72.771c0,0-14.076,31.363-19.133,43.002c-5.057,11.639,2.118,33.8,24.963,42.205
	c22.846,8.405,20.522,3.667,20.522,3.667s-36.238-35.122,0.068-61.565C404.456,73.637,341.73,72.771,341.73,72.771z"/>
<path fill="#3E322F" d="M349.792,105.935c0.911,0.888-2.961,19.565,85.663,17.401c88.624-2.164,97.097-12.915,97.097-12.915
	L349.792,105.935z"/>
<path fill="#3E322F" d="M504.992,103.247c0.706,1.344-25.464-1.23-3.416,16.627s52.637,38.014,59.287,30.863
	c6.651-7.175-3.439-27.4-3.439-27.4L504.992,103.247z"/>
<path opacity="0.41" fill="#D29B98" enable-background="new    " d="M499.936,387.773c0,6.491-35.69,25.487-68.262,25.487
	c-32.57,0-69.172-18.996-69.172-25.487s36.579,8.359,69.172,8.359C464.268,396.132,499.936,381.282,499.936,387.773z"/>
<path fill="#F2EAE7" d="M369.062,387.705c0,0,28.312,12.299,59.629,11.981c31.318-0.319,62.386-13.553,62.386-13.553
	L369.062,387.705z"/>
<path fill="#9D7148" d="M362.024,386.384c0-4.578,36.579-6.287,69.173-6.287c32.593,0,68.262,1.754,68.262,6.287
	c0,4.578-35.691,5.762-68.262,5.762C398.625,392.146,362.024,391.007,362.024,386.384z"/>
<g>
	<g>
		<g>
			<g>
				<path d="M428.326,211.755C428.326,211.755,428.304,211.755,428.326,211.755c-15.921,0-39.062-5.353-78.967-5.353
					c-27.901,0-66.098,4.464-66.098,4.464c-1.07,0.114-1.845,0.82-1.731,1.548c0,0,1.731,10.204,1.937,11.001
					c0.205,0.774,1.207,0.979,1.663,1.048c13.438,1.663,5.056,37.035,14.531,44.551c7.972,6.332,26.397,7.015,51.589,7.015
					c31.888,0,48.036,0.296,56.577-7.334c15.853-14.167,5.375-41.636,20.499-41.636V211.755L428.326,211.755z M354.917,272.979
					c-14.76,0.114-44.347,0.045-51.771-4.624c-7.744-5.307-6.423-18.768-6.423-34.894c0-6.924,3.052-15.739,9.977-18.518
					c6.9-2.778,26.033-3.439,42.66-3.439c50.929,0,64.982,7.767,64.982,14.463c0,10.796,2.3,32.457-12.277,42.091
					C394.071,273.389,378.514,272.773,354.917,272.979z"/>
			</g>
		</g>
		<path d="M281.531,212.415l2.096,18.153c0,0,2.438,7.22,13.097,2.893v-21.957L281.531,212.415z"/>
	</g>
	<g>
		<g>
			<g>
				<path d="M425.752,211.96v15.306c15.124,0,4.646,27.446,20.499,41.636c8.542,7.63,24.69,7.334,56.577,7.334
					c25.191,0,43.641-0.683,51.59-7.015c9.475-7.516,1.093-42.888,14.531-44.551c0.456-0.068,1.458-0.273,1.663-1.047
					c0.205-0.797,1.936-11.001,1.936-11.001c0.114-0.729-0.66-1.435-1.73-1.549c0,0-38.197-4.464-66.099-4.464
					C464.815,206.607,441.673,211.96,425.752,211.96C425.776,211.96,425.752,211.96,425.752,211.96L425.752,211.96z
					 M451.991,268.264c-14.577-9.634-12.276-31.295-12.276-42.091c0-6.696,14.053-14.463,64.981-14.463
					c16.627,0,35.76,0.684,42.661,3.439c6.924,2.779,9.976,11.593,9.976,18.518c0,16.103,1.299,29.564-6.423,34.894
					c-7.425,4.646-37.012,4.738-51.771,4.624C475.542,272.979,459.986,273.594,451.991,268.264z"/>
			</g>
		</g>
		<path d="M572.548,212.62l-2.095,18.153c0,0-2.438,7.22-13.097,2.893v-21.957L572.548,212.62z"/>
	</g>
</g>
<path fill="#FD9CAD" d="M-188.691,140.093c0-15.868-7.654-29.768-19.213-37.609c-6.355-4.312-9.701-12.488-8.139-20.477
	c0.445-2.23,0.668-4.535,0.668-6.912c0-15.795-10.184-28.988-23.783-32.296c-3.605-0.854-6.021-4.534-5.688-8.511
	c0.15-1.784,0.223-3.493,0.039-4.869c-1.08-9.143-5.836-14.122-12.674-18.211c-3.531-2.08-5.242-6.503-4.238-10.74
	c0.482-2.081,0.781-4.273,0.82-6.503c0.406-16.873-7.92-23.822-13.715-26.943c-2.826-1.524-4.908-4.349-5.725-7.656
	c-2.266-9.031-10.07-15.535-19.213-14.865c-8.92,0.631-16.24,8.287-17.207,17.95c0,0.074,0,0.147-0.037,0.224
	c-0.297,3.307-2.898,5.76-5.984,5.574c-1.002-0.037-2.006-0.037-3.047,0.075c-11.334,1.003-20.402,10.999-21.184,23.338
	c-0.111,1.971-0.037,3.864,0.225,5.723c0.631,4.274-1.115,8.512-4.459,10.814c-6.355,4.387-11.299,10.965-13.9,18.807
	c-1.002,3.01-3.344,5.313-6.17,6.205c-12.746,3.864-22.074,16.576-22.074,31.627c0,4.051,0.668,7.953,1.932,11.52
	c1.934,5.539-0.557,11.669-5.576,13.973c-13.527,6.133-23.003,20.627-23.003,37.574c0,6.836,1.562,13.303,4.312,18.99
	c4.162,8.584,2.602,19.177-4.013,25.681c-9.366,9.179-15.238,22.483-15.238,37.275v18.322h250.189v-18.321
	c0-7.396-4.311-14.457-9.402-20.775c-5.537-6.875-5.91-16.945-1.264-24.564C-191.181,157.561-188.691,149.124-188.691,140.093z"/>
<path fill="#CCECEF" d="M-255.437,374.71l-537.575-6.062c-11.298,0-16.947-13.638-8.957-21.629l113.979-82.722
	c20.552-20.553,48.462-32.11,77.525-32.11h512.381c11.297,0,16.943,13.639,8.955,21.628l-88.787,88.786
	C-198.465,363.153-226.34,374.71-255.437,374.71z"/>
<path fill="#AD9DE3" d="M-442.113,168.45c4.312,7.024,3.938,16.313-1.152,22.671c-4.72,5.834-8.658,12.337-8.658,19.213v16.908
	h231.16V210.37c0-13.676-5.426-25.939-14.047-34.451c-6.133-6.021-7.547-15.795-3.719-23.711c2.527-5.24,3.979-11.186,3.979-17.541
	c0-15.646-8.771-29.062-21.26-34.711c-4.645-2.119-6.912-7.768-5.164-12.896c1.15-3.308,1.783-6.913,1.783-10.667
	c0-13.936-8.621-25.68-20.402-29.247c-2.639-0.78-4.795-2.937-5.723-5.724c-2.416-7.248-6.951-13.342-12.859-17.393
	c-3.086-2.118-4.719-6.059-4.125-9.997c0.26-1.71,0.332-3.493,0.223-5.278c-0.742-11.409-9.104-20.625-19.584-21.555
	c-0.967-0.074-1.896-0.111-2.826-0.036c-2.824,0.148-5.238-2.119-5.537-5.165c0-0.075,0-0.149-0.037-0.224
	c-0.893-8.957-7.656-16.019-15.906-16.613c-8.438-0.595-15.684,5.427-17.764,13.751c-0.781,3.086-2.678,5.686-5.277,7.062
	c-5.352,2.898-13.082,9.29-12.674,24.899c0.037,2.082,0.297,4.088,0.744,6.021c0.928,3.901-0.672,7.99-3.902,9.922
	c-6.316,3.755-10.703,8.363-11.707,16.836c-0.148,1.301-0.111,2.861,0.037,4.496c0.334,3.68-1.932,7.061-5.238,7.879
	c-12.563,3.048-21.966,15.237-21.966,29.842c0,2.193,0.223,4.312,0.633,6.394c1.448,7.358-1.636,14.94-7.545,18.915
	c-10.666,7.211-17.726,20.069-17.726,34.748C-448.357,154.215-446.052,161.983-442.113,168.45z"/>
<path fill="#CCECEF" d="M-366.334,147.079c0-16.688-8.064-31.33-20.182-39.541c-6.689-4.535-10.219-13.12-8.584-21.52
	c0.445-2.342,0.707-4.795,0.707-7.285c0-16.611-10.703-30.511-25.013-33.967c-3.79-0.93-6.355-4.756-5.983-8.957
	c0.149-1.857,0.224-3.68,0.038-5.127c-1.152-9.627-6.133-14.866-13.305-19.178c-3.68-2.191-5.501-6.837-4.459-11.297
	c0.52-2.193,0.817-4.496,0.855-6.838c0.445-17.728-8.363-25.05-14.458-28.319c-2.973-1.598-5.166-4.57-6.021-8.064
	c-2.378-9.477-10.592-16.314-20.218-15.646c-9.401,0.669-17.094,8.733-18.098,18.88c0,0.073,0,0.148-0.036,0.223
	c-0.298,3.494-3.048,6.059-6.282,5.871c-1.04-0.037-2.117-0.037-3.196,0.074c-11.929,1.078-21.48,11.597-22.298,24.566
	c-0.149,2.081-0.038,4.087,0.224,6.021c0.632,4.496-1.19,8.957-4.72,11.373c-6.69,4.607-11.894,11.557-14.643,19.771
	c-1.041,3.196-3.493,5.611-6.503,6.503c-13.38,4.051-23.228,17.43-23.228,33.3c0,4.274,0.706,8.361,2.006,12.151
	c2.008,5.836-0.595,12.303-5.872,14.681c-14.234,6.429-24.231,21.703-24.231,39.506c0,7.21,1.635,14.011,4.533,19.956
	c4.386,9.032,2.75,20.181-4.2,27.018c-9.848,9.663-16.017,23.675-16.017,39.209v19.25h263.158v-19.25
	c0-7.804-4.533-15.2-9.885-21.852c-5.834-7.247-6.207-17.803-1.338-25.83C-368.972,165.439-366.334,156.595-366.334,147.079z"/>
<path fill="#C4D0DE" d="M-255.437,370.399l-537.575-6.062c-11.298,0-16.947-13.641-8.957-21.63l113.979-82.724
	c20.552-20.551,48.462-32.111,77.525-32.111h512.381c11.297,0,16.943,13.642,8.955,21.63l-88.787,88.787
	C-198.465,358.841-226.34,370.399-255.437,370.399z"/>
<g>
	<path fill="#CCECEF" d="M-201.773,228.284c-3.158-8.92-5.314-19.102-5.314-25.384c0-10.368-0.557-24.156-3.344-29.322
		c-2.787-5.165-3.717-11.336-2.973-15.795c0.742-4.422-0.744-10.592-1.674-16.276c-0.928-5.687,0.188-9.365,0.188-9.365
		c1.299,3.679,2.416,3.939,5.016,8.621c2.604,4.682,1.488,6.912,5.205,14.309s7.061,15.052,8.361,24.157
		c1.301,9.104,6.504,18.729,10.963,27.352c3.123,6.061,5.166,13.603,6.355,21.667h-22.781v0.037H-201.773z"/>
	<g>
		<g>
			<g>
				<defs>
					<polygon id="SVGID_1_" points="-620.197,-51.109 -619.824,-51.109 -620.197,-50.737 					"/>
				</defs>
				<clipPath id="SVGID_2_">
					<use xlink:href="#SVGID_1_"  overflow="visible"/>
				</clipPath>
			</g>
			<g>
				<defs>
					<polygon id="SVGID_3_" points="-620.197,-51.109 -619.824,-51.109 -620.197,-50.737 					"/>
				</defs>
				<defs>
					<polygon id="SVGID_4_" points="-620.941,-51.854 -621.312,-51.854 -620.941,-52.225 					"/>
				</defs>
				<clipPath id="SVGID_5_">
					<use xlink:href="#SVGID_3_"  overflow="visible"/>
				</clipPath>
				<clipPath id="SVGID_6_" clip-path="url(#SVGID_5_)">
					<use xlink:href="#SVGID_4_"  overflow="visible"/>
				</clipPath>
				
					<linearGradient id="SVGID_7_" gradientUnits="userSpaceOnUse" x1="6688.5186" y1="737.7471" x2="6706.7573" y2="745.0423" gradientTransform="matrix(-0.4712 0 0 0.4429 3121.3259 59.0073)">
					<stop  offset="0" style="stop-color:#FFFFFF"/>
					<stop  offset="1" style="stop-color:#000000"/>
				</linearGradient>
				<path clip-path="url(#SVGID_6_)" fill="url(#SVGID_7_)" d="M-33.117,434.699c-3.158-8.92-5.314-19.102-5.314-25.384
					c0-10.369-0.557-24.156-3.344-29.322c-2.787-5.165-3.717-11.335-2.973-15.795c0.742-4.422-0.744-10.592-1.674-16.276
					c-0.928-5.686,0.188-9.366,0.188-9.366c1.041,12.228,4.531,11.075,5.127,18.322c0.633,7.248,0.633,12.151,3.346,17.095
					c2.713,4.944,2.488,11.337,6.205,23.155c3.717,11.817,10.518,22.854,11.781,30.884c0.262,1.636,0.52,3.938,0.855,6.652h-14.197
					V434.699L-33.117,434.699z"/>
			</g>
		</g>
	</g>
	<path fill="#CCECEF" d="M-201.773,228.284c-3.158-8.92-5.314-19.102-5.314-25.384c0-10.368-0.557-24.156-3.344-29.322
		c-2.787-5.165-3.717-11.336-2.973-15.795c0.742-4.422-0.744-10.592-1.674-16.276c-0.928-5.687,0.188-9.365,0.188-9.365
		c1.041,12.227,4.533,11.074,5.129,18.322c0.631,7.247,0.631,12.151,3.344,17.094c2.713,4.943,2.488,11.336,6.205,23.153
		s10.518,22.855,11.781,30.886c0.262,1.636,0.52,3.937,0.855,6.652h-14.197V228.284L-201.773,228.284z"/>
</g>
<rect x="-434.493" y="259.242" fill="#AD9DE3" width="29.916" height="46.156"/>
<path fill="#AD9DE3" d="M-404.578,305.398c0,2.157-6.69,3.902-14.977,3.902c-8.288,0-14.979-1.745-14.979-3.902
	c0-2.155,6.69-3.902,14.979-3.902C-411.268,301.496-404.578,303.281-404.578,305.398z"/>
<path fill="#CCECEF" d="M-359.164,13.03c5.428,15.497,7.213,33.894,6.135,44.188c-1.078,10.295-43.482-1.264-43.482-1.264
	l-1.449-33.894L-359.164,13.03z"/>
<path fill="#0D0E12" d="M-397.48-33.5c9.293-1.933,21.334-0.37,28.543,7.953c5.984,6.876,9.738,38.615,9.738,38.615
	s-9.479,5.686-21.629,6.912C-392.982,21.206-398,20.389-398,20.389s-7.99-21.108-11.372-27.464c0,0-11.892,11.223-16.091,17.876
	c-4.2,6.616-9.998,16.239-9.998,16.239s-13.268,10.146-12.859,9.59c0.41-0.557,5.277-19.213,13.937-34.08
	C-425.724-12.391-413.831-30.118-397.48-33.5z"/>
<g>
	<polygon fill="#0D0E12" points="-432.152,195.17 -457.684,220.739 -406.621,220.739 -381.09,195.17 	"/>
	<polygon fill="#0D0E12" points="-432.152,195.17 -457.684,220.739 -406.621,220.739 -381.09,195.17 	"/>
	<path fill="#0D0E12" d="M-406.658,220.739h-51.063v51.063h49.057c0.705,0,1.375-0.147,1.969-0.446v-50.617H-406.658
		L-406.658,220.739z"/>
	<path fill="#0D0E12" d="M-405.431,270.576l24.305-24.306v-51.137l-25.531,25.605v50.617
		C-406.213,271.172-405.802,270.875-405.431,270.576z"/>
	<path fill="#0D0E12" d="M-405.431,270.576l24.305-24.306v-51.137l-25.531,25.605v50.617
		C-406.213,271.172-405.802,270.875-405.431,270.576z"/>
	<circle fill="#0D0E12" cx="-432.191" cy="246.271" r="10.071"/>
	<path fill="#0D0E12" d="M-417.696,213.344c6.206-1.933,10.481-5.946,9.514-8.919c-0.93-2.973-6.727-3.828-12.933-1.858
		c-6.205,1.933-10.479,5.945-9.515,8.92C-429.662,214.459-423.903,215.313-417.696,213.344z"/>
	<path fill="#0D0E12" d="M-399.785,232.855c-0.443,6.467,1.748,11.893,4.871,12.114c3.121,0.223,5.982-4.869,6.428-11.374
		c0.445-6.465-1.746-11.891-4.867-12.114C-396.474,221.297-399.336,226.389-399.785,232.855z"/>
</g>
<g>
	<polygon fill="#FD9CAD" points="-518.373,111.478 -543.905,137.045 -492.842,137.045 -467.31,111.478 	"/>
	<path fill="#AD9DE3" d="M-492.879,137.045h-51.063v51.064h49.057c0.706,0,1.376-0.149,1.971-0.446v-50.618H-492.879z"/>
	<path fill="#6F6F6F" d="M-491.652,186.882l24.306-24.304V111.44l-25.533,25.605v50.618
		C-492.434,187.478-492.024,187.181-491.652,186.882z"/>
	<path opacity="0.4" fill="#6F6F6F" enable-background="new    " d="M-491.652,186.882l24.306-24.304V111.44l-25.533,25.605v50.618
		C-492.434,187.478-492.024,187.181-491.652,186.882z"/>
	<path fill="#E3E3E3" d="M-491.652,186.882l24.306-24.304V111.44l-25.533,25.605v50.618
		C-492.434,187.478-492.024,187.181-491.652,186.882z"/>
	<circle fill="#CCECEF" cx="-518.41" cy="162.577" r="10.072"/>
	
		<linearGradient id="SVGID_8_" gradientUnits="userSpaceOnUse" x1="4624.2324" y1="6453.3242" x2="4607.7402" y2="6431.9453" gradientTransform="matrix(0 -0.4429 -0.4429 0 2347.3635 2168.3247)">
		<stop  offset="0" style="stop-color:#646464"/>
		<stop  offset="1" style="stop-color:#2F2F2F"/>
	</linearGradient>
	<path fill="url(#SVGID_8_)" d="M-503.917,129.651c6.206-1.934,10.48-5.948,9.515-8.921c-0.928-2.973-6.728-3.827-12.934-1.858
		c-6.206,1.934-10.479,5.947-9.514,8.92C-515.884,130.765-510.123,131.621-503.917,129.651z"/>
	
		<linearGradient id="SVGID_9_" gradientUnits="userSpaceOnUse" x1="4561.0391" y1="6371.333" x2="4554.9302" y2="6399.0273" gradientTransform="matrix(0 -0.4429 -0.4429 0 2347.3635 2168.3247)">
		<stop  offset="0" style="stop-color:#646464"/>
		<stop  offset="1" style="stop-color:#2F2F2F"/>
	</linearGradient>
	<path fill="url(#SVGID_9_)" d="M-486.003,149.161c-0.447,6.467,1.745,11.893,4.868,12.115c3.122,0.223,5.983-4.869,6.428-11.371
		c0.447-6.467-1.746-11.895-4.868-12.116C-482.696,137.567-485.557,142.694-486.003,149.161z"/>
</g>
<g>
	<rect x="-523.131" y="115.304" fill="#AD9DE3" width="137.99" height="137.991"/>
	<rect x="-479.685" y="158.788" fill="#FD9CAD" width="51.062" height="51.062"/>
</g>
<path fill="#F39797" d="M-316.052,184.208l-69.088,69.125V115.229l69.088-68.976V184.208z M-337.832,111.402l-25.568,25.532v51.063
	l25.568-25.531V111.402z"/>
<path fill="#0D0E12" d="M-316.052,184.208l-69.088,69.125V115.229l69.088-68.976V184.208z M-337.832,111.402l-25.568,25.532v51.063
	l25.568-25.531V111.402z"/>
<polygon fill="#FD9CAD" points="-454.154,46.217 -523.131,115.269 -385.14,115.269 -316.164,46.217 "/>
<polygon fill="#929292" points="-432.412,67.995 -457.944,93.527 -406.883,93.527 -381.349,67.995 "/>
<polygon fill="#F79575" points="-454.154,184.319 -454.154,158.788 -479.685,158.788 -479.685,209.851 "/>
<polygon fill="#0D0E12" points="-454.154,184.319 -454.154,158.788 -479.685,158.788 -479.685,209.851 "/>
<rect x="-454.154" y="158.788" fill="#8F8479" width="25.532" height="25.532"/>
<polygon fill="#FD9CAD" points="-432.115,17.897 -457.648,43.43 -406.584,43.43 -381.051,17.897 "/>
<path fill="#AD9DE3" d="M-406.621,43.43h-51.063v51.062h49.056c0.707,0,1.375-0.149,1.971-0.446V43.43H-406.621z"/>
<path fill="#A8BDD1" d="M-405.394,93.267l24.305-24.305V17.824l-25.531,25.606v50.617
	C-406.176,93.862-405.767,93.601-405.394,93.267z"/>
<path fill="#0D0E12" d="M-405.394,93.267l24.305-24.305V17.824l-25.531,25.606v50.617
	C-406.176,93.862-405.767,93.601-405.394,93.267z"/>
<polygon fill="#929292" points="-337.793,162.467 -363.324,187.998 -363.324,136.935 -337.793,111.402 "/>
<polygon fill="#0D0E12" points="-287.697,162.169 -313.228,187.7 -313.228,136.638 -287.697,111.105 "/>
<polygon fill="#0D0E12" points="-287.697,162.169 -313.228,187.7 -313.228,136.638 -287.697,111.105 "/>
<path fill="#AD9DE3" d="M-313.228,136.675V187.7h-51.062v-49.056c0-0.706,0.15-1.375,0.445-1.97H-313.228z"/>
<path fill="#A8BDD1" d="M-363.064,135.411l24.305-24.306h51.1l-25.605,25.532h-50.617
	C-363.66,136.191-363.4,135.782-363.064,135.411z"/>
<path fill="#FD9CAD" d="M-363.064,135.411l24.305-24.306h51.1l-25.605,25.532h-50.617
	C-363.66,136.191-363.4,135.782-363.064,135.411z"/>
<circle fill="#CCECEF" cx="-338.76" cy="162.169" r="10.072"/>
<path fill="#CCECEF" d="M-305.869,147.712c1.934-6.206,5.947-10.48,8.92-9.516c2.973,0.93,3.826,6.729,1.857,12.934
	c-1.934,6.207-5.947,10.48-8.92,9.514C-306.984,159.679-307.802,153.919-305.869,147.712z"/>
<path fill="#CCECEF" d="M-325.381,129.798c-6.467,0.447-11.893-1.744-12.115-4.867c-0.223-3.122,4.869-5.983,11.371-6.429
	c6.467-0.447,11.895,1.745,12.117,4.868C-313.785,126.453-318.879,129.353-325.381,129.798z"/>
<circle fill="#CCECEF" cx="-432.375" cy="68.553" r="10.071"/>
<path fill="#CCECEF" d="M-399.484,54.095c1.932-6.205,5.945-10.479,8.918-9.513c2.973,0.929,3.828,6.727,1.857,12.933
	c-1.932,6.207-5.945,10.48-8.918,9.515C-400.601,66.062-401.418,60.302-399.484,54.095z"/>
<path fill="#CCECEF" d="M-418.997,36.183c-6.465,0.445-11.891-1.747-12.115-4.869c-0.223-3.123,4.868-5.984,11.373-6.43
	c6.467-0.445,11.892,1.748,12.115,4.869C-407.402,32.838-412.492,35.737-418.997,36.183z"/>
<path fill="#F9C9C9" d="M-387.222,39.75c0,0-1.746-0.187-3.455,0.149c-1.709,0.334-2.451,0.148-4.088,0.408
	c-0.262,2.824,3.457,1.858,4.236,2.08c-0.074,0.744,0.15,1.896-1.264,2.082c-1.412,0.186-3.383,1.709-2.861,2.341
	c0.52,0.632,0,0.966,0.707,1.561s0.482,1.003,1.152,1.524c0.631,0.519,3.715,1.448,6.096,0.965c2.414-0.483,7.023-6.17,7.023-6.17
	l-6.096-6.615L-387.222,39.75z"/>
<path fill="#0D0E12" d="M-380.756-18.412c2.826,11.633,6.17,24.009,5.129,32.297c-2.154,8.437-11.225,24.788-11.225,24.788
	s0.893,2.638,2.9,4.459c2.006,1.858,4.387,2.229,4.387,2.229s11.631-10.629,15.793-26.796c4.162-16.166,0.707-32.593-1.377-38.577
	c-2.117-5.982-6.986-8.881-10.33-8.138C-378.785-27.368-381.834-22.908-380.756-18.412z"/>
<path fill="#F9C9C9" d="M-386.701,50.862c-0.188-0.111-0.41-0.186-0.67-0.297c-0.742-0.224-0.148-1.078-0.559-1.598
	c-0.406-0.521-1.15-0.075-1.783-0.744c-0.668-0.669,0.336-1.412-0.555-1.746c-0.82-0.335-1.266-1.227-1.229-2.081
	c-0.074,0-0.148,0.036-0.26,0.036c-1.412,0.188-3.754,2.082-3.271,2.788c0.447,0.669,0.299,0.706,1.004,1.302
	c0.705,0.594,0.594,0.854,1.264,1.375C-392.127,50.416-389.117,51.309-386.701,50.862z"/>
<path fill="#0D0E12" d="M-334.82,342.304c-3.828-2.973-6.281-7.619-6.281-12.822c0-8.994,7.285-16.241,16.24-16.241
	c1.041,0,2.045,0.111,3.01,0.299c1.934-7.062,8.363-12.266,16.057-12.266c9.18,0,16.648,7.434,16.648,16.65
	c0,1.561-0.223,3.085-0.631,4.533c1.078-0.297,2.23-0.445,3.42-0.445c7.172,0,12.969,5.798,12.969,12.97
	c0,2.751-0.855,5.278-2.303,7.396h-59.129V342.304z"/>
<g>
	<path fill="#575756" d="M-531.454,330.521c3.68,0.41,6.317-1.226,11.63-1.188c4.274,0.036,5.613,2.043,6.208,3.753
		c0.593,1.709-0.707,4.051-0.707,4.051l-22.04,0.595L-531.454,330.521z"/>
	<path fill="#F5F5F6" d="M-525.992,331.935c7.321-3.161,12.488-0.706,12.636,2.861c0.111,3.568-3.234,6.058-8.696,7.692
		c-5.464,1.635-18.953,4.608-20.032,0.596c-1.113-4.014,0.186-6.766,4.386-7.433C-533.499,334.981-533.611,335.206-525.992,331.935z
		"/>
	<path fill="#C6C6C6" d="M-536.88,343.604c-0.261,0-0.483-0.188-0.521-0.447l-0.928-4.682c-0.074-0.299,0.149-0.596,0.41-0.631
		c0.297-0.076,0.595,0.147,0.631,0.407l0.929,4.681c0.075,0.299-0.147,0.595-0.407,0.635
		C-536.806,343.604-536.843,343.604-536.88,343.604z M-533.573,343.604c-0.262,0-0.483-0.188-0.52-0.447l-1.264-6.02
		c-0.075-0.298,0.111-0.595,0.408-0.633c0.296-0.075,0.595,0.112,0.632,0.408l1.264,6.02c0.074,0.299-0.111,0.595-0.41,0.635
		C-533.499,343.604-533.535,343.604-533.573,343.604z M-530.302,343.157c-0.261,0-0.482-0.147-0.521-0.408l-1.56-6.355
		c-0.075-0.296,0.111-0.595,0.408-0.668c0.296-0.074,0.595,0.111,0.668,0.408l1.561,6.354c0.075,0.297-0.111,0.596-0.409,0.669
		C-530.228,343.121-530.267,343.157-530.302,343.157z M-526.884,342.266c-0.223,0-0.445-0.148-0.521-0.408l-1.783-6.615
		c-0.074-0.297,0.112-0.596,0.372-0.669c0.297-0.074,0.593,0.111,0.669,0.372l1.783,6.614c0.076,0.298-0.111,0.595-0.37,0.669
		C-526.772,342.266-526.81,342.266-526.884,342.266z M-523.65,341.412c-0.224,0-0.446-0.149-0.521-0.41l-2.007-7.247
		c-0.075-0.298,0.075-0.595,0.371-0.668c0.298-0.074,0.595,0.073,0.67,0.37l2.006,7.249c0.076,0.296-0.074,0.595-0.372,0.668
		C-523.576,341.412-523.614,341.412-523.65,341.412z M-520.381,340.965c-0.223,0-0.445-0.147-0.52-0.408l-2.118-8.139
		c-0.074-0.298,0.112-0.595,0.372-0.669c0.297-0.075,0.595,0.112,0.669,0.371l2.119,8.14c0.074,0.297-0.112,0.594-0.372,0.669
		C-520.269,340.965-520.343,340.965-520.381,340.965z M-517.667,339.516c-0.261,0-0.446-0.15-0.521-0.408l-1.709-6.801
		c-0.074-0.298,0.112-0.595,0.41-0.67c0.297-0.074,0.594,0.112,0.669,0.409l1.709,6.802c0.074,0.296-0.111,0.595-0.41,0.668
		C-517.593,339.479-517.631,339.516-517.667,339.516z M-515.511,337.249c-0.224,0-0.446-0.148-0.52-0.409l-0.929-3.419
		c-0.075-0.297,0.074-0.595,0.37-0.669c0.298-0.075,0.595,0.074,0.67,0.372l0.929,3.419c0.074,0.297-0.076,0.595-0.372,0.669
		C-515.438,337.212-515.474,337.249-515.511,337.249z"/>
</g>
<path fill="#CCECEF" d="M-551.263,299.676c0,0,9.364,10.295,13.155,16.613c3.793,6.317-18.023,6.317-18.023,6.317L-551.263,299.676z
	"/>
<path fill="#CCECEF" d="M-596.381,321.492c-0.707,10.293-0.632,20.736,12.896,23.822c13.527,3.084,29.583,4.793,50.58-10.556
	c19.66-14.346,38.056-25.717,33.188-34.191c-4.869-8.473-15.499-6.837-27.055,0.706c-11.558,7.581-26.684,17.877-26.684,17.877
	L-596.381,321.492z"/>
<path fill="#432918" d="M-596.381,321.492c-0.074,1.3-0.186,2.562-0.223,3.864c5.092,4.2,17.06,6.764,24.863,5.09
	c8.101-1.747,16.241-6.764,19.475-10.814c0.334-0.41,0.26-0.817-0.112-1.189c-0.706,0.483-1.116,0.744-1.116,0.744L-596.381,321.492
	z"/>
<path fill="#683C11" d="M-524.43,291.834c7.284,6.467,15.087,5.947,19.065,3.978c3.975-1.972,4.757-15.463-2.899-26.982
	c-7.655-11.521-23.302-31.403-23.302-31.403s2.897-1.45,3.976-3.418c0.372-0.707,0.78-1.933,0.744-2.527
	c-0.075-0.857-1.189-0.708-1.822-0.113c-1.077,1.077-2.192,1.783-3.38,2.378c0,0,1.411-1.001,2.043-2.675
	c0.78-2.045,1.337-4.198-1.97-5.76c-2.712-1.264-9.179,9.626-7.879,13.862c1.338,4.236,19.065,39.691,19.065,39.691L-524.43,291.834
	z"/>
<path fill="#7D4E24" d="M-592.404,263.033c-5.538,7.581-12.896,23.97-12.301,30.028c1.635,16.5,18.657,3.381,18.657,3.381
	l8.809-27.613l-8.512-5.834h-6.652V263.033z"/>
<polygon fill="#432918" points="-538.999,215.313 -532.867,217.47 -535.728,220.889 "/>
<path fill="#7D4E24" d="M-549.108,206.914c5.315,0,8.659,5.427,10.999,8.845c2.342,3.421,7.323,9.85,5.315,13.789
	c-1.97,3.977-6.057,5.239-6.057,5.239s-2.788,12.711-3.865,12.19c-1.077-0.558-16.315-2.155-16.315-2.155l5.872-13.603
	c0,0-8.027-6.206-6.206-15.236C-557.58,206.914-552.341,206.914-549.108,206.914z"/>
<circle fill="#432918" cx="-538.59" cy="221.52" r="3.122"/>
<path fill="#432918" d="M-596.454,301.312c0.037-0.261,0.074-0.52,0.074-0.78c0-2.23-1.784-4.014-4.013-4.014
	c-1.227,0-2.341,0.558-3.048,1.449C-601.881,301.015-599.241,301.684-596.454,301.312z"/>
<path fill="#AD9DE3" d="M-539.817,216.541c0,0.37-0.296,0.668-0.668,0.668c-0.371,0-0.669-0.298-0.669-0.668
	c0-0.372,0.298-0.671,0.669-0.671C-540.114,215.87-539.817,216.169-539.817,216.541z"/>
<path fill="#AD9DE3" d="M-544.053,217.433c-0.074-1.079,0.521-2.082,1.301-2.75c0.781-0.669,1.783-1.116,2.861-1.041
	c-0.744,0.742-1.449,1.264-2.118,1.858C-542.715,216.095-543.309,216.688-544.053,217.433z"/>
<path fill="#AD9DE3" d="M-545.168,220.666c0,0-3.755-6.06-3.16-7.88c0.595-1.82,4.089-2.229,4.572-5.351
	c0.481-3.122-0.41-4.796-2.492-5.277c-2.08-0.483-3.455,1.411-3.455,1.411s-1.822-2.563-5.018-1.411s-2.825,4.683-2.825,4.683
	s-2.639-0.074-4.125,2.898c-1.188,2.341,0.149,4.867,0.149,4.867s-2.489,5.353,1.302,10.48c3.791,5.128,7.321,6.432,7.321,6.432
	s3.902-2.157,3.976-4.721c0.076-2.566-0.147-3.531-0.147-3.531L-545.168,220.666z"/>
<path fill="#7D4E24" d="M-502.319,288.453c-1.041-5.092-5.425-8.548-9.664-11.595l-9.885,4.384l-2.935,10.48
	c7.431,6.616,15.423,6.095,19.474,4.051C-503.657,294.956-502.542,292.206-502.319,288.453z"/>
<g>
	<path fill="#683C11" d="M-548.736,218.361l5.314,8.325c0,0-5.39,3.158-8.028-2.156
		C-553.493,220.442-548.736,218.361-548.736,218.361z"/>
	<path fill="#432918" d="M-547.398,220.517l2.603,4.089c0,0-2.639,1.521-3.939-1.078
		C-549.739,221.52-547.398,220.517-547.398,220.517z"/>
</g>
<path fill="#432918" d="M-502.727,291.464c-0.707-0.521-1.56-0.855-2.489-0.855c-2.305,0-4.163,1.858-4.163,4.162
	c0,0.78,0.223,1.522,0.631,2.153c1.339-0.223,2.527-0.631,3.494-1.112C-504.102,295.217-503.248,293.656-502.727,291.464z"/>
<path fill="#0D0E12" d="M-592.404,263.033c0,0,7.692-10.703,17.319-16.353c8.659-5.13,14.456-8.214,25.827-4.869
	c16.094,4.72,30.995,28.356,37.647,34.786c0,0-0.372,5.761-3.605,9.364c-3.232,3.605-9.551,5.761-9.551,5.761l-12.079-10.48
	c0,0-5.424,8.475-8.473,16.056c-3.084,7.581-5.574,20.738-5.574,20.738s-6.133,8.101-21.11,9.364
	c-14.978,1.263-24.342-5.946-24.342-5.946s-0.187-17.504,3.975-30.474c4.163-12.972,8.808-23.377,8.808-23.377
	s-1.115-1.562-3.53-3.122C-589.431,263.033-592.404,263.033-592.404,263.033z"/>
<path fill="#0D0E12" d="M-575.085,246.681c-9.59,5.686-17.319,16.353-17.319,16.353s2.973,0,5.277,1.486
	c2.379,1.559,3.531,3.122,3.531,3.122c3.047-7.1,9.625-18.211,13.676-23.934C-571.555,244.6-573.226,245.564-575.085,246.681z"/>
<path fill="#F8C2C2" d="M-173.9,303.207l-1.152-12.971l-12.971,1.228l2.082,11.929c-2.416,2.712-5.539,5.462-9.18,7.508
	c-3.828,2.117-6.43,5.165-5.314,6.354c0.668,0.744,7.285,1.078,12.896-1.522c5.611-2.603,7.283-4.423,9.996-5.13
	c1.598-0.408,3.16-1.151,4.125-1.709c0.67-0.372,0.967-1.114,0.744-1.82L-173.9,303.207z"/>
<path fill="#F8C2C2" d="M-212.142,295.105l-0.52-13.527l-13.527,0.557l2.08,13.044c-2.453,2.714-5.574,5.538-9.291,7.619
	c-3.826,2.119-5.908,5.389-4.906,6.728c1.004,1.3,7.73,0.111,13.342-2.491c5.613-2.601,6.689-4.459,9.439-5.202
	c1.375-0.372,2.639-0.855,3.533-1.265c0.814-0.37,1.225-1.3,0.928-2.191L-212.142,295.105z"/>
<path fill="#053D40" d="M-212.662,281.578l-13.527,0.556l0.371,2.378c4.311,0.67,11.148-0.928,13.193-1.449L-212.662,281.578z"/>
<path fill="#053D40" d="M-175.052,290.236l-8.957,0.855l-3.863,1.337l0.744,4.274c1.039,0.073,3.195,0.148,5.982-0.446
	c2.824-0.595,5.24-1.932,6.393-2.674L-175.052,290.236z"/>
<path fill="#CCECEF" d="M-224.219,163.172c-5.613,27.688-11.744,61.581-7.77,91.757c3.979,30.18,4.312,27.13,4.312,27.13
	c3.902,1.414,13.49,0.595,16.611-0.669c0,0,0-29.508,0.707-47.123c0.707-17.616,6.764-42.033,6.764-42.033
	s1.709,29.173,4.609,48.498c2.896,19.325,9.736,52.364,9.736,52.364c3.939,0.817,14.42-0.147,17.133-2.192
	c0,0-3.605-31.698-4.684-58.159c-1.076-26.461,1.971-36.941-0.705-57.122c-1.637-12.19-2.676-16.427-2.676-16.427L-224.219,163.172z
	"/>
<path fill="#0D0E12" d="M-223.031,63.164c-4.979-0.187-6.465,3.938-5.613,6.8c1.414,4.721-3.268,6.912-3.268,6.912
	s7.061,3.532,9.029,0.334c2.045-3.269,1.709-11.668,1.709-11.742C-221.174,65.356-223.031,63.164-223.031,63.164z"/>
<path fill="#F8C4C4" d="M-185.941,113.744c-5.982-14.903-14.383-19.028-21.963-19.624c-0.113-0.631-1.191-7.916-1.711-10.889
	c-0.557-3.383,5.166-9.736,2.936-16.909c-2.229-7.173-8.25-5.797-10.926-4.981c-4.014,1.229-8.695,7.062-7.953,11.782
	c0.744,4.72-2.785,9.217-0.408,12.264c2.379,3.048,4.98,3.233,4.98,3.233l-0.445,7.285c-5.018,1.747-9.662,5.018-15.199,11.188
	c-8.66,9.662-18.619,26.348-24.045,29.656c-5.428,3.344-28.135,9.551-34.191,10.554c-6.059,1.004-11.188,3.086-11.188,3.086
	c-0.705,3.864,0,5.536,0,5.536s0,0,2.973-1.076c2.973-1.078,6.617,0.261,6.617,0.261s-4.719,2.823-3.645,3.791
	c1.08,0.927,10.557-2.975,12.711-3.791c2.156-0.817,17.318-2.046,29.77-6.097c12.449-4.049,25.42-19.622,25.42-19.622
	c2.156,5.687,7.99,33.15,7.99,33.968s42.887-3.531,42.887-3.531S-177.951,133.664-185.941,113.744z"/>
<path fill="#F39797" d="M-216.082,78.29c0.111,1.485-0.967,2.822-2.488,2.937c-1.486,0.111-2.826-0.968-2.938-2.491
	c-0.111-1.525,0.967-2.824,2.492-2.936C-217.531,75.688-216.23,76.804-216.082,78.29z"/>
<path fill="#AD9DE3" d="M-219.722,73.719c0.035,0.298-0.188,0.558-0.484,0.595c-0.295,0.036-0.557-0.187-0.594-0.482
	c-0.037-0.299,0.186-0.558,0.482-0.596C-220.021,73.198-219.761,73.42-219.722,73.719z"/>
<path fill="#AD9DE3" d="M-222.734,71.6c0.557-0.706,1.525-1.04,2.416-1.003c0.445,0.037,0.891,0.111,1.303,0.26
	c0.408,0.187,0.779,0.409,1.076,0.781c-0.893,0-1.635-0.037-2.379-0.037C-221.135,71.6-221.842,71.638-222.734,71.6z"/>
<path fill="#AD9DE3" d="M-224.332,71.6c-0.26-0.371-0.668-0.632-1.078-0.78c-0.072-0.038-0.148-0.038-0.184-0.075
	c-0.076,0.261-0.113,0.558-0.15,0.818C-225.299,71.562-224.814,71.6-224.332,71.6z"/>
<path fill="#F5F5F6" d="M-223.068,79.925c0.074-1.078-1.189-0.262-2.713-0.334c-0.186,0-0.334-0.037-0.48-0.075
	c-0.188,0.706-0.336,1.375-0.447,2.046c0.26,0.073,0.52,0.111,0.781,0.147C-224.406,81.784-223.105,81.001-223.068,79.925z"/>
<path fill="#0D0E12" d="M-223.105,65.394c-0.297-0.669-1.561-2.973,0.371-4.682c2.713-2.379,7.174-1.486,12.301,0.407
	c3.754,1.375,8.289,5.501,8.4,9.589c0.148,6.096-4.164,9.625-7.098,12.301c-0.225,0.186-0.818,0.52-1.004,0.298
	c-0.67-0.78-1.635-4.198-1.971-5.761l-2.414,0.261c0,0,1.152-4.05,1.152-6.577s-1.34-5.24-3.828-5.723
	C-219.687,64.985-223.105,65.394-223.105,65.394z"/>
<g>
	<path fill="#F6ADAD" d="M-211.138,72.231c2.826,0.52,4.869,2.453,4.273,5.686c-0.594,3.16-3.195,4.312-6.02,3.791L-211.138,72.231z
		"/>
	<path fill="#F39797" d="M-211.547,74.536c1.598,0.297,2.75,1.264,2.451,2.897c-0.297,1.562-1.744,2.118-3.344,1.822
		L-211.547,74.536z"/>
</g>
<polygon fill="#053D40" points="-224.814,77.583 -226.189,79.034 -226.004,77.36 "/>
<polygon fill="#F39797" points="-225.076,73.235 -228.123,77.1 -224.814,77.583 "/>
<path fill="#0D0E12" d="M-185.941,113.744c-5.611-13.974-13.342-18.472-20.551-19.474c-0.297,4.312-2.043,15.385-8.994,15.756
	c-7.432,0.373-9.402-5.574-11.225-11.631c-3.158,1.934-6.391,4.719-9.959,8.696c-7.805,8.733-16.725,23.19-22.336,28.355
	c1.451,0.817,3.084,2.156,4.273,4.312c1.637,2.899,1.934,5.538,1.934,7.174c10.779-5.725,20.627-17.504,20.627-17.504
	c2.154,5.684,7.988,33.15,7.988,33.968c0,0.407,11.076,2.302,21.816,1.337c10.74-0.966,23.189-5.054,23.189-5.054
	S-177.951,133.664-185.941,113.744z"/>
<g>
	<g>
		<g>
			<g>
				<defs>
					<polygon id="SVGID_10_" points="-620.197,-51.109 -619.824,-51.109 -620.197,-50.737 					"/>
				</defs>
				<use xlink:href="#SVGID_10_"  overflow="visible" fill="#0D0E12"/>
				<clipPath id="SVGID_11_">
					<use xlink:href="#SVGID_10_"  overflow="visible"/>
				</clipPath>
			</g>
			<g>
				<defs>
					<polygon id="SVGID_12_" points="-620.197,-51.109 -619.824,-51.109 -620.197,-50.737 					"/>
				</defs>
				<defs>
					<polygon id="SVGID_13_" points="-620.941,-51.854 -621.312,-51.854 -620.941,-52.225 					"/>
				</defs>
				<use xlink:href="#SVGID_12_"  overflow="visible" fill="#0D0E12"/>
				<use xlink:href="#SVGID_13_"  overflow="visible" fill="#0D0E12"/>
				<clipPath id="SVGID_14_">
					<use xlink:href="#SVGID_12_"  overflow="visible"/>
				</clipPath>
				<clipPath id="SVGID_15_" clip-path="url(#SVGID_14_)">
					<use xlink:href="#SVGID_13_"  overflow="visible"/>
				</clipPath>
				<path clip-path="url(#SVGID_15_)" fill="#0D0E12" d="M-26.017,369.997c7.469-1.487,13.303-3.68,13.303-3.68
					s1.004-7.656,0.633-17.876l-20.182-26.461c2.455,8.398-6.205,49.057-6.205,49.057L-26.017,369.997z"/>
			</g>
		</g>
	</g>
	<path fill="#0D0E12" d="M-194.674,163.582c7.469-1.486,13.303-3.68,13.303-3.68s1.004-7.657,0.633-17.877l-20.182-26.46
		c2.455,8.398-6.205,49.057-6.205,49.057L-194.674,163.582z"/>
</g>
<path fill="#F8C1C1" d="M-198.019,97.43c6.689,3.345,21.592,22.967,23.598,39.468c1.971,16.5-12.004,24.418-22.67,30.548
	c-10.293,5.947-16.24,6.764-20.291,7.582c-4.051,0.817-10.666,0.371-11.484-0.371c-0.816-0.744-0.816-0.744-0.816-0.744
	s-1.412-0.892-1.227-1.412c0.15-0.482,0.408-0.854,0.408-0.854s-0.965-0.224-0.781-0.446c0.15-0.261,1.525-0.595,1.525-0.595
	s-1.449,0-1.227-0.521c0.223-0.519,4.014-0.296,5.76-0.48c0,0-1.523-0.262-2.23-0.707c-0.705-0.445-0.482-1.078-0.371-1.152
	c0.111-0.075,1.523,0.408,2.938,0.224c1.41-0.224,3.307,0.147,4.756,0.224c1.449,0.036,29.805-17.209,32.443-24.156
	c0.223-6.355-8.1-19.363-11.744-24.828c-3.641-5.462-5.611-11.408-3.641-16.203C-201.177,98.136-198.019,97.43-198.019,97.43z"/>
<path fill="#0D0E12" d="M-174.459,136.897c-1.969-16.501-16.871-36.123-23.6-39.468c0,0-3.158,0.706-5.127,5.5
	s0,10.741,3.643,16.204c3.643,5.464,11.967,18.434,11.744,24.789c4.311,0.035,9.514,2.229,11.893,4.348
	C-174.531,144.999-173.937,141.245-174.459,136.897z"/>
<path fill="#5B5B5B" d="M-218.496,175.511c-0.039,0-0.039,0-0.074,0c-0.225-0.036-0.373-0.262-0.334-0.483
	c0.334-1.857-0.447-4.98-1.674-6.688c-0.148-0.188-0.074-0.447,0.076-0.56c0.186-0.147,0.445-0.073,0.557,0.076
	c1.338,1.858,2.193,5.201,1.783,7.32C-218.125,175.398-218.273,175.511-218.496,175.511z"/>
<path fill="#0D0E12" d="M-101.986,21.614c7.988,0,14.457-6.466,14.457-14.457c0-7.989-6.467-14.456-14.457-14.456
	c-1.748,0-3.383,0.334-4.943,0.892c-2.527-9.59-11.225-16.649-21.629-16.649c-10.035,0-18.545,6.614-21.334,15.72
	c-2.342-1.376-5.053-2.193-7.953-2.193c-8.621,0-15.572,6.987-15.572,15.572c0,8.622,6.988,15.572,15.572,15.572H-101.986z"/>
<path fill="#F9CECE" d="M-627.449,152.692c7.21-0.297,15.683-1.711,18.024-2.676c2.341-0.928,8.138-3.456,9.253-2.676
	c1.115,0.781-2.824,2.342-2.824,2.342s9.514-1.598,9.626-0.482c0.111,1.113-6.17,2.23-6.17,2.23s7.359-1.562,7.693-0.633
	c0.297,0.928-7.209,2.342-7.209,2.342s5.648-1.116,5.648-0.484s-5.315,1.71-5.315,1.71s3.755-0.483,3.755,0
	s-1.115,1.56-10.183,3.122c-9.106,1.561-21.482,3.753-21.482,3.753L-627.449,152.692z"/>
<path fill="#F9CCCC" d="M-623.436,177.741l-15.72,3.455c0.037-0.482,0.037-0.744,0.037-0.744l-23.079,1.821
	c-3.084,11.074-0.892,20.851,0.333,33.188c1.228,12.339,3.234,26.349,3.234,26.349s-6.132,15.497-10.815,30.289
	c-2.899,9.18-6.875,25.197-8.25,31.219c-0.408,1.783,0.855,3.492,2.639,3.643l20.217,1.858c0,0,1.636-2.676-4.311-4.868
	c-4.422-1.599-6.503-2.713-6.503-2.713s18.21-41.772,21.481-59.426c2.267-12.375,3.865-38.242,4.608-52.104
	c0.966,3.345,2.416,7.842,4.608,13.676c5.761,15.497,14.792,35.716,14.792,35.716s-1.45,8.287-4.312,21.295
	c-2.341,10.554-6.838,33.039-8.436,41.064c-0.297,1.524,0.855,2.861,2.416,2.823h20.626l0.037-0.223
	c0.186-1.561-0.781-3.084-2.304-3.53l-8.733-2.639c0,0,13.713-43.296,14.792-59.165
	C-605.039,222.82-617.304,186.734-623.436,177.741z"/>
<path fill="#0D0E12" d="M-639.156,181.197c0.037-0.482,0.037-0.744,0.037-0.744l-23.079,1.82
	c-3.084,11.076-0.892,20.851,0.333,33.188c1.228,12.339,3.234,26.35,3.234,26.35s-1.821,4.608-4.236,11.187
	c4.571,2.75,9.96,3.568,14.642,3.419c1.822-5.5,3.307-10.592,4.05-14.605c2.267-12.375,5.054-32.853,5.761-46.715
	c0.966,3.345,1.264,2.453,3.418,8.287c5.761,15.497,14.792,35.716,14.792,35.716s-0.929,5.312-2.75,14.046
	c2.118,0.188,4.683,0.261,7.805,0.188c2.64-0.074,4.832-0.263,6.653-0.521c1.226-5.538,2.119-10.517,2.341-14.084
	c1.078-15.869-11.187-51.957-17.318-60.949L-639.156,181.197z"/>
<path fill="#CCECEF" d="M-623.436,177.741l-15.72,3.455c0.037-0.482,0.037-0.744,0.037-0.744l-23.079,1.821
	c-0.892,3.16-1.338,6.243-1.486,9.291c3.717,0.854,7.024,0.408,10.109,1.264c3.531,0.93,2.602,1.3,10.703,2.117
	c8.101,0.818,11.632-5.722,17.578-3.715c3.382,1.152,7.173,3.158,9.179,2.452C-618.753,186.548-621.429,180.676-623.436,177.741z"/>
<path fill="#F9C9C9" d="M-635.588,90.628c-0.707,6.206-6.876,20.516-8.474,23.971c-2.045,4.385-4.423,7.805-5.984,14.53
	c-1.56,6.69,23.97,5.203,23.97,5.203l-3.902-19.847c0,0,3.234-13.266,3.94-17.02C-625.332,93.712-635.588,90.628-635.588,90.628z"/>
<g>
	<path fill="#F9C9C9" d="M-625.852,76.469c5.055,0.706,5.687,6.429,5.687,10.331c0,3.901,0.408,10.74-3.16,12.338
		c-3.679-0.148-6.578-1.746-9.959-4.348c-3.567-2.714-5.463-7.023-3.122-12.414C-634.101,76.988-630.014,75.874-625.852,76.469z"/>
	<polygon fill="#F39797" points="-620.276,87.022 -618.157,89.699 -620.276,90.553 	"/>
	<path fill="#F39797" d="M-622.99,89.884c0,1.302-1.077,2.38-2.378,2.38c-1.301,0-2.379-1.078-2.379-2.38
		c0-1.299,1.078-2.378,2.379-2.378C-624.03,87.506-622.99,88.548-622.99,89.884z"/>
	<circle fill="#AD9DE3" cx="-623.436" cy="86.726" r="0.408"/>
	<path fill="#F39797" d="M-625.554,85.054c0.483-0.558,1.227-0.854,1.933-0.93c0.705-0.073,1.486,0.038,2.08,0.521l-2.007,0.223
		C-624.217,84.905-624.811,85.018-625.554,85.054z"/>
	<path fill="#F5F5F6" d="M-620.536,92.376c-1.19,0-2.193-0.707-2.193,0.146c0,0.856,0.965,1.523,2.193,1.523
		c0.037,0,0.075,0,0.111,0c0.075-0.557,0.149-1.113,0.186-1.67C-620.35,92.338-620.462,92.376-620.536,92.376z"/>
	<path fill="#FD9CAD" d="M-632.169,87.47c1.45,0.706,3.011,0.297,3.939-3.457c0.744-2.973,1.115-4.682,3.011-5.238
		c1.858-0.558,2.936-0.373,2.936-0.373s2.861-4.942-2.453-4.422c-5.426,0.52-8.883-2.193-14.197,4.199
		c-3.307,3.976-2.379,10.814,1.264,14.197C-634.064,95.72-632.169,87.47-632.169,87.47z"/>
	<g>
		<path fill="#F7B8B8" d="M-631.278,93.007c-2.527,0-4.608-1.338-4.608-4.237c0-2.823,2.082-4.236,4.608-4.236V93.007z"/>
		<path fill="#F39797" d="M-631.278,90.963c-1.413,0-2.602-0.669-2.602-2.118c0-1.412,1.152-2.117,2.602-2.117V90.963z"/>
	</g>
	<ellipse fill="#FD9CAD" cx="-641.795" cy="74.35" rx="8.474" ry="7.841"/>
</g>
<path fill="#053D40" d="M-631.984,94.085c1.561,3.791,5.612,4.682,5.612,4.682l-0.929,4.459c0,0-1.747-1.709-3.047-3.716
	C-631.649,97.466-631.984,94.085-631.984,94.085z"/>
<path fill="#0D0E12" d="M-646.107,118.167c0,0,1.747,1.895,5.129,0.928c3.383-0.928,5.426-1.635,8.808-0.928
	c3.381,0.668,3.122,1.895,3.122,1.895s10.406,12.451,9.067,18.656c-0.817,3.791-3.791,5.018-3.791,5.018s5.129,20.699,7.581,30.177
	c2.454,9.478,2.712,14.457,2.712,14.457s-5.016,3.383-10.962,1.339c-5.946-2.043-10.146,1.895-18.248,1.077
	c-8.102-0.817-7.024-2.305-10.555-3.232c-3.53-0.929-7.581,1.226-11.892-0.671c0,0,2.156-10.962,4.72-21.107
	c2.565-10.146,6.206-23.674,6.206-23.674s0.707-4.35,2.565-10.963C-649.488,123.444-646.107,118.167-646.107,118.167z"/>
<path fill="#F9CECE" d="M-636.183,120.024c3.754-4.125,13.751,4.2,23.004,10.221c8.696,5.647,15.684,6.801,15.684,6.801
	s8.212-2.007,14.754-3.68c6.541-1.672,16.762-4.272,18.099-4.979c1.301-0.745,0.818-3.756,3.977-4.981
	c3.343-1.302,2.862,0.334,2.08,0.744c-2.452,1.376-1.895,2.601-1.895,2.601s5.128-0.779,6.764-3.9
	c1.673-3.123,2.527-3.902,3.196-3.494c0.67,0.409-0.52,2.154-0.52,2.154s0.854-0.965,1.003-0.036s-0.483,6.095-5.128,9.81
	c-4.646,3.717-15.125,8.064-20.775,10.296c-5.649,2.231-16.538,6.133-25.829,4.831c-9.291-1.301-19.623-5.611-26.758-10.22
	C-635.699,131.657-641.238,125.638-636.183,120.024z"/>
<path fill="#CCECEF" d="M-633.432,137.64c6.429-0.445,11.111-7.73,12.227-12.338c1.114-4.607-13.973-12.449-18.991-8.027
	c-5.053,4.461-6.43,9.477-2.899,14.717C-639.304,137.715-633.432,137.64-633.432,137.64z"/>
<path fill="#AD9DE3" d="M-659.151,303.912c-2.23-0.816-3.865-1.486-4.943-1.968c-0.261,0.815-0.855,2.19-2.082,2.861
	c-1.82,1.003-5.574-0.263-5.574-0.263s-2.75-3.381-5.277-4.05c-0.261,1.077-0.483,2.008-0.669,2.786
	c-0.408,1.783,0.855,3.494,2.64,3.642l20.217,1.86C-654.802,308.781-653.167,306.069-659.151,303.912z"/>
<path fill="#AD9DE3" d="M-612.174,300.493l-7.508-2.267c-0.409,0.854-1.598,1.747-2.713,2.154c-2.08,0.745-5.09,0.262-5.09,0.262
	s-2.008-2.23-4.794-2.899c-0.187,1.003-0.557,2.899-0.707,3.68c-0.297,1.524-0.112,2.861,1.45,2.825h21.592l0.038-0.227
	C-609.685,302.426-610.652,300.939-612.174,300.493z"/>
<path fill="#CCECEF" d="M-631.499,304.248h21.591l0.038-0.225c0.037-0.298,0.037-0.593-0.038-0.892
	c-0.891,0.075-3.16,0.261-5.464,0.299c-2.936,0.036-8.288-0.263-11.186-0.299c-2.899-0.036-4.459-1.523-6.393-1.672
	C-633.246,302.947-633.061,304.248-631.499,304.248z"/>
<path fill="#CCECEF" d="M-660.636,307.591c-2.156-0.187-8.733-0.855-10.964-1.339c-2.081-0.481-3.642-2.153-6.095-2.898
	c-0.334,1.747-0.408,3.197,1.376,3.382l21.518,2.046c0,0,0.186-0.335,0.186-0.892C-655.992,307.852-659.002,307.74-660.636,307.591z
	"/>
<path fill="#F5F5F6" d="M-177.543,310.565c1.598-0.409,3.16-1.151,4.125-1.711c0.672-0.37,0.967-1.114,0.744-1.82l-1.189-3.792
	c-2.117,0.819-2.488,3.493-4.607,4.684c-2.266,1.264-4.014,0.817-4.275,0.78c-1.709-0.297-3.047-2.603-5.164-3.27
	c-2.045,2.007-4.459,3.939-7.211,5.464c-3.826,2.117-6.428,5.165-5.314,6.354c0.67,0.744,7.285,1.078,12.896-1.522
	C-181.927,313.093-180.256,311.309-177.543,310.565z"/>
<path fill="#F5F5F6" d="M-224.926,306.998c5.611-2.604,6.689-4.461,9.439-5.203c1.375-0.372,2.639-0.857,3.529-1.264
	c0.818-0.372,1.229-1.303,0.93-2.192l-1.078-3.16c-3.232,1.077-3.455,3.605-4.906,4.645c-1.672,1.228-4.422,1.041-4.422,1.041
	c-1.15-1.302-2.975-2.267-5.537-2.826c-1.896,1.747-4.053,3.383-6.43,4.721c-3.828,2.118-5.91,5.392-4.906,6.729
	C-237.265,310.789-230.574,309.599-224.926,306.998z"/>
<path fill="#0D0E12" d="M-215.523,301.795c1.375-0.372,2.639-0.857,3.531-1.264c0.705-0.334,1.115-1.078,1.002-1.821
	c-0.633,0.558-1.932,1.521-3.01,1.895c-1.523,0.484-3.086,0.818-4.943,1.971c-1.896,1.189-6.801,3.828-9.291,4.831
	c-2.416,0.967-7.172,2.119-10.295,1.524c0.037,0.185,0.111,0.371,0.223,0.557c1.004,1.302,7.73,0.111,13.342-2.489
	C-219.316,304.396-218.236,302.537-215.523,301.795z"/>
<path fill="#0D0E12" d="M-182.597,312.126c-1.932,1.264-5.5,2.899-8.064,3.791c-2.488,0.892-6.354,1.04-10.033,0.706
	c0,0.261,0.074,0.483,0.26,0.669c0.67,0.744,7.285,1.078,12.896-1.524c5.611-2.601,7.285-4.422,9.996-5.126
	c1.598-0.408,3.16-1.152,4.125-1.71c0.672-0.372,0.967-1.114,0.744-1.82l-0.072-0.299c-0.967,0.669-2.975,1.971-4.572,2.454
	C-179.549,309.896-180.664,310.862-182.597,312.126z"/>
<g>
	<rect x="577.538" y="681.794" fill="#DADDE5" width="7.553" height="21.787"/>
	<path fill="#DADDE5" d="M581.315,675.417c-1.85,0-3.699,0-5.549,0c0-1.776,0-3.553,0-5.329c0-3.02,2.439-5.331,5.46-5.331
		c3.019,0,5.459,2.312,5.459,5.331C586.685,673.076,584.292,675.372,581.315,675.417z"/>
	<path fill="#DADDE5" d="M570.185,675.401c1.851,0,3.7,0,5.55,0c0,1.776,0,3.552,0,5.329c0,3.019-2.439,5.331-5.46,5.331
		c-3.019,0-5.459-2.312-5.459-5.331C564.816,677.741,567.208,675.446,570.185,675.401z"/>
	<path fill="#DADDE5" d="M635.356,693.704c-1.454,2.092-3.952,3.486-6.799,3.486c-4.242,0-7.438-3.254-7.438-7.669
		c0-4.068,2.848-7.728,7.264-7.728c2.904,0,5.403,1.394,6.973,3.485C635.356,688.088,635.356,690.896,635.356,693.704z
		 M642.908,675.402c-2.421,0-4.843,0-7.263,0c0,0.755,0,1.511,0,2.266c-2.208-1.801-5.055-2.846-8.251-2.846
		c-7.669,0-13.828,6.39-13.828,14.699c0,3.834,1.396,7.32,3.603,9.877c2.498,2.905,6.449,4.764,10.634,4.764
		c2.846,0,5.519-0.871,7.843-2.846c0,0.755,0,1.51,0,2.265c2.42,0,4.842,0,7.263,0C642.908,694.188,642.908,684.796,642.908,675.402
		z"/>
	<path fill="#DADDE5" d="M611.24,668.721c-0.64-0.174-1.567-0.291-2.266-0.291c-1.859,0-3.312,0.524-4.242,1.628
		c-0.64,0.812-1.045,1.859-1.045,4.473c0,0.291,0,0.581,0,0.872c2.905,0,5.811,0,8.715,0c0,2.13,0,4.261,0,6.391
		c-2.904,0-5.81,0-8.715,0c0,7.264,0,14.525,0,21.789c-2.518,0-5.035,0-7.553,0c0-7.264,0-14.525,0-21.789c-2.422,0-4.843,0-7.264,0
		c0-2.13,0-4.261,0-6.391c2.421,0,4.842,0,7.264,0c0-0.388,0-0.774,0-1.162c0-4.532,1.045-7.263,3.021-9.18s4.938-3.312,8.773-3.312
		c1.511,0,2.904,0.115,4.474,0.522C612.015,664.421,611.627,666.57,611.24,668.721z"/>
	<path fill="#DADDE5" d="M531.459,685.86c0.348-2.557,2.904-4.938,6.043-4.938c3.079,0,5.345,2.439,5.578,4.938
		C539.206,685.86,535.333,685.86,531.459,685.86z M545.811,694.808c-1.337,1.453-3.894,3.254-7.089,3.254
		c-4.009,0-7.204-2.729-7.611-6.682c6.507,0,13.015,0,19.522,0c0.116-0.639,0.174-1.395,0.174-2.149
		c0-7.844-5.52-14.408-13.305-14.408c-8.366,0-13.712,6.855-13.712,14.698c0,8.832,6.332,14.642,14.758,14.642
		c4.357,0,8.831-1.801,11.562-5.054C548.677,697.675,547.243,696.241,545.811,694.808z"/>
	<polygon fill="#DADDE5" points="508.215,692.601 515.944,675.402 523.786,675.402 510.829,703.581 505.601,703.581 
		492.645,675.402 500.488,675.402 	"/>
	<rect x="555.457" y="675.401" fill="#DADDE5" width="7.554" height="28.18"/>
</g>
</svg>
