<?xml version="1.0" encoding="utf-8"?>
<!-- Generator: Adobe Illustrator 24.0.0, SVG Export Plug-In . SVG Version: 6.00 Build 0)  -->
<svg version="1.1" id="Layer_1" xmlns="http://www.w3.org/2000/svg" xmlns:xlink="http://www.w3.org/1999/xlink" x="0px" y="0px"
	 viewBox="0 0 850.4 850.4" style="enable-background:new 0 0 850.4 850.4;" xml:space="preserve">
<style type="text/css">
	.st0{fill:#FAD5BC;}
	.st1{fill:#0D0E12;}
	.st2{fill:#DADDE5;}
	.st3{fill:#FCE1CC;}
	.st4{opacity:0.65;fill:#F8B99D;enable-background:new    ;}
	.st5{opacity:0.65;fill:#EFB097;enable-background:new    ;}
	.st6{opacity:0.37;fill:#F8B99D;enable-background:new    ;}
	.st7{fill:#F8B99D;}
	.st8{fill:#F29265;}
	.st9{fill:#517AA3;}
	.st10{fill:#C6B6A5;}
	.st11{fill:#604D46;}
	.st12{opacity:0.39;fill:#FFFFFF;enable-background:new    ;}
	.st13{fill:#2C2221;}
</style>
<polyline class="st0" points="525.7,536.3 317.4,536.3 317.4,290.9 525.7,290.9 "/>
<path class="st1" d="M786.5,850.4l-716.8,2C70.4,750.4,38.1,525,210.6,525l421.8,3.1C810.4,528.1,787.2,748.3,786.5,850.4z"/>
<g>
	<rect x="563.1" y="688.3" class="st2" width="7" height="20.3"/>
	<path class="st2" d="M566.6,682.4c-1.7,0-3.5,0-5.2,0c0-1.6,0-3.3,0-5c0-2.8,2.3-5,5.1-5c2.8,0,5.1,2.2,5.1,5
		C571.6,680.2,569.4,682.3,566.6,682.4z"/>
	<path class="st2" d="M556.2,682.4c1.7,0,3.5,0,5.2,0c0,1.6,0,3.3,0,5c0,2.8-2.3,5-5.1,5c-2.8,0-5.1-2.2-5.1-5
		C551.2,684.6,553.4,682.4,556.2,682.4z"/>
	<path class="st2" d="M617,699.5c-1.4,2-3.7,3.3-6.4,3.3c-4,0-6.9-3-6.9-7.2c0-3.8,2.7-7.2,6.8-7.2c2.7,0,5,1.3,6.5,3.3
		C617,694.2,617,696.8,617,699.5z M624.1,682.4c-2.3,0-4.5,0-6.8,0c0,0.7,0,1.4,0,2.1c-2.1-1.7-4.7-2.7-7.7-2.7
		c-7.2,0-12.9,6-12.9,13.7c0,3.6,1.3,6.8,3.4,9.2c2.3,2.7,6,4.5,9.9,4.5c2.7,0,5.1-0.8,7.3-2.7c0,0.7,0,1.4,0,2.1c2.3,0,4.5,0,6.8,0
		C624.1,699.9,624.1,691.2,624.1,682.4z"/>
	<path class="st2" d="M594.5,676.1c-0.6-0.2-1.5-0.3-2.1-0.3c-1.7,0-3.1,0.5-4,1.5c-0.6,0.8-1,1.7-1,4.2c0,0.3,0,0.5,0,0.8
		c2.7,0,5.4,0,8.1,0c0,2,0,4,0,6c-2.7,0-5.4,0-8.1,0c0,6.8,0,13.6,0,20.3c-2.3,0-4.7,0-7,0c0-6.8,0-13.6,0-20.3c-2.3,0-4.5,0-6.8,0
		c0-2,0-4,0-6c2.3,0,4.5,0,6.8,0c0-0.4,0-0.7,0-1.1c0-4.2,1-6.8,2.8-8.6c1.9-1.8,4.6-3.1,8.2-3.1c1.4,0,2.7,0.1,4.2,0.5
		C595.3,672.1,594.9,674.1,594.5,676.1z"/>
	<path class="st2" d="M520.1,692.1c0.3-2.4,2.7-4.6,5.6-4.6c2.9,0,5,2.3,5.2,4.6C527.3,692.1,523.7,692.1,520.1,692.1z M533.5,700.5
		c-1.2,1.4-3.6,3-6.6,3c-3.7,0-6.7-2.5-7.1-6.2c6.1,0,12.1,0,18.2,0c0.1-0.6,0.2-1.3,0.2-2c0-7.3-5.1-13.4-12.4-13.4
		c-7.8,0-12.8,6.4-12.8,13.7c0,8.2,5.9,13.7,13.8,13.7c4.1,0,8.2-1.7,10.8-4.7C536.1,703.2,534.8,701.8,533.5,700.5z"/>
	<polygon class="st2" points="498.4,698.4 505.6,682.4 512.9,682.4 500.8,708.7 495.9,708.7 483.8,682.4 491.2,682.4 	"/>
	<rect x="542.5" y="682.4" class="st2" width="7" height="26.3"/>
</g>
<path class="st3" d="M555.4,139.6c0-2.7-0.5-5.8-1.4-9C546.3,78,489.3,37.2,420,37.2c-48,0-90.1,19.6-114,49.1
	c-9.1,9.5-14.4,20.7-17.5,33c-2,6.8-3.1,13.9-3.3,21.2c-1.6,20.1,0,42.2-0.3,64.8c-0.9,77.2-8.5,114.8,18,186
	c26.5,71.2,73.7,76.3,121.7,77.2c48,0.8,69.5-1.4,97.2-39.4C565.1,369.8,562.3,249.6,555.4,139.6z"/>
<polygon class="st4" points="421.5,226.9 452,291.4 412.1,290.7 "/>
<circle class="st5" cx="348.6" cy="290.1" r="27.7"/>
<ellipse class="st5" cx="490.8" cy="289" rx="27.7" ry="27.7"/>
<path class="st6" d="M325.1,249.4c0,0,1.4-8.3,32.6-8.3s31.5,8.3,31.5,8.3s-8.8,4-30.2,4C337.5,253.6,325.1,249.4,325.1,249.4z"/>
<path class="st6" d="M451.3,249.4c0,0,1.4-8.3,32.6-8.3c31.2,0,31.5,8.3,31.5,8.3s-8.8,4-30.2,4
	C463.6,253.6,451.3,249.4,451.3,249.4z"/>
<polygon class="st6" points="412.1,290.7 430.5,318.2 434.5,290.7 "/>
<g>
	<path class="st7" d="M294.5,325c-26.5,0-40-11.4-40-65.4c0-52.3,13.5-65.4,40-65.4V325z"/>
	<path class="st8" d="M294.5,293.3c-14.8,0-22.5-5.6-22.5-32.5c0-26.1,7.6-32.5,22.5-32.5V293.3z"/>
</g>
<g>
	<path class="st7" d="M548.4,325c26.5,0,40-11.4,40-65.4c0-52.3-13.5-65.4-40-65.4V325z"/>
	<path class="st8" d="M548.4,293.3c14.8,0,22.5-5.6,22.5-32.5c0-26.1-7.6-32.5-22.5-32.5V293.3z"/>
</g>
<path class="st8" d="M429.7,289c0-3.7-1.9-5.6-5.6-5.6c-3.7,0-5.6,1.9-5.6,5.6c0,0.8,0.2,1.1,0.3,1.9l10.4,0.2
	C429.7,290.2,429.7,289.8,429.7,289z"/>
<circle class="st9" cx="357.4" cy="233.3" r="5.4"/>
<path class="st9" d="M492,232.4c0,3.7-1.9,5.4-5.4,5.4c-3.7,0-5.4-1.9-5.4-5.4s1.9-5.4,5.4-5.4C490,226.8,492,228.7,492,232.4z"/>
<path class="st10" d="M442.9,481.2l-51.9-1.4c-47.2-1.3-84.7-40.9-83.4-88.1l0.4-14c1.3-47.2,40.9-84.7,88.1-83.4l51.9,1.4
	c47.2,1.3,84.7,40.9,83.4,88.1l-0.4,14C529.7,444.9,490.1,482.5,442.9,481.2z"/>
<path class="st11" d="M518.3,210.2c-3.5-4.5-8-8-13-10.8c-5-2.8-10.6-4.7-16.3-5.7c-5.7-1-11.6-1.1-17.3-0.3
	c-5.7,0.8-11.3,2.4-16.3,5l2.1,7.1c5.3-0.4,10.3-1.1,15.3-1.4c5-0.3,10-0.4,15-0.1c5,0.3,10,0.9,15,2
	C507.9,207,512.9,208.5,518.3,210.2z"/>
<path class="st11" d="M393.3,200.8c-5.4-3-11.3-5.4-17.7-7c-6.4-1.6-13.3-2-19.9-1c-6.6,1-12.9,3.2-18.5,6.3
	c-5.6,3.1-10.7,7-15.1,11.5c6.1-1.7,11.9-3.6,17.6-5c5.8-1.4,11.4-2.2,17-2.4c5.6-0.2,11,0.3,16.6,1.4c5.6,1.1,11.2,2.6,17.3,3.8
	L393.3,200.8z"/>
<ellipse class="st3" cx="421.3" cy="357.4" rx="70.7" ry="33.3"/>
<path class="st7" d="M372.8,336.2c0,0,18.8-3.3,50.8-4c25.4-0.6,46.7,4.3,46.7,4.3s-14,14.2-48.6,14.2S372.8,336.2,372.8,336.2z"/>
<path class="st8" d="M423.9,339.8c14,0.2,46.4-2.8,46.4-2.8s-21.3-4.9-46.7-4.3c-32,0.7-50.8,4-50.8,4
	C399.3,341.2,410,339.6,423.9,339.8z"/>
<circle class="st10" cx="425.9" cy="397.6" r="32.6"/>
<g>
	<path class="st12" d="M391.2,260h-56.4c-10.3,0-18.7-8.4-18.7-18.7v-20.7c0-10.3,8.4-18.7,18.7-18.7h56.4
		c10.3,0,18.7,8.4,18.7,18.7v20.7C409.8,251.6,401.4,260,391.2,260z"/>
	<path class="st12" d="M514,260h-56.8c-10.2,0-18.5-8.3-18.5-18.5v-21.1c0-10.2,8.3-18.5,18.5-18.5H514c10.2,0,18.5,8.3,18.5,18.5
		v21.1C532.5,251.6,524.2,260,514,260z"/>
	<path class="st13" d="M409.8,221.8c-1.2,0-2.1-0.9-2.1-2.1c0-8.7-7.1-15.7-15.7-15.7h-58.1c-8.7,0-15.7,7.1-15.7,15.7
		c0,1.2-0.9,2.1-2.1,2.1c-1.2,0-2.1-0.9-2.1-2.1c0-11,9-19.9,19.9-19.9H392c11,0,19.9,9,19.9,19.9C412,220.9,411,221.8,409.8,221.8z
		"/>
	<path class="st13" d="M532.5,221.8c-1.2,0-2.1-0.9-2.1-2.1c0-8.7-7.1-15.7-15.7-15.7h-58.1c-8.7,0-15.7,7.1-15.7,15.7
		c0,1.2-0.9,2.1-2.1,2.1c-1.2,0-2.1-0.9-2.1-2.1c0-11,9-19.9,19.9-19.9h58.1c11,0,19.9,9,19.9,19.9
		C534.6,220.9,533.7,221.8,532.5,221.8z"/>
	<g>
		<path class="st13" d="M438.8,225.7c-1.2,0-2.1-0.9-2.1-2.1c0-6.8-5.5-12.3-12.3-12.3c-6.8,0-12.3,5.5-12.3,12.3
			c0,1.2-0.9,2.1-2.1,2.1c-1.2,0-2.1-0.9-2.1-2.1c0-9.1,7.4-16.6,16.6-16.6c9.1,0,16.6,7.4,16.6,16.6
			C440.9,224.8,439.9,225.7,438.8,225.7z"/>
	</g>
	<path class="st13" d="M286.2,185c10.9,7.2,21.8,14.4,32.7,21.6l-3.3,11.3c-9.9-7.2-19.7-14.3-29.5-21.5
		C286.1,192.6,286.2,188.8,286.2,185z"/>
	<path class="st13" d="M558.9,185.5c-9.9,7.3-19.7,14.5-29.5,21.8l3.1,11.3c9-6.9,17.9-13.7,26.9-20.6
		C559.2,193.8,559.1,189.7,558.9,185.5z"/>
</g>
<path class="st6" d="M485.8,161.9H373.6c-1.4,0-2.5-1.1-2.5-2.5c0-1.4,1.1-2.5,2.5-2.5h112.1c1.4,0,2.5,1.1,2.5,2.5
	C488.3,160.8,487.2,161.9,485.8,161.9z"/>
<path class="st6" d="M485.8,147.9H373.6c-1.4,0-2.5-1.1-2.5-2.5s1.1-2.5,2.5-2.5h112.1c1.4,0,2.5,1.1,2.5,2.5
	C488.3,146.7,487.2,147.9,485.8,147.9z"/>
<ellipse class="st0" cx="421.5" cy="516.1" rx="104.2" ry="35.5"/>
</svg>
