<?xml version="1.0" encoding="utf-8"?>
<!-- Generator: Adobe Illustrator 16.0.0, SVG Export Plug-In . SVG Version: 6.00 Build 0)  -->
<!DOCTYPE svg PUBLIC "-//W3C//DTD SVG 1.1//EN" "http://www.w3.org/Graphics/SVG/1.1/DTD/svg11.dtd">
<svg version="1.1" id="Layer_1" xmlns="http://www.w3.org/2000/svg" xmlns:xlink="http://www.w3.org/1999/xlink" x="0px" y="0px"
	 width="850.389px" height="850.391px" viewBox="0 0 850.389 850.391" enable-background="new 0 0 850.389 850.391"
	 xml:space="preserve">
<path fill="#422D0E" d="M450.147,17.105c0,0,1.822,0,30.885,0c85.937,0,127.276,56.167,138.505,116.412
	c22.344,119.987-15.807,392.601-52.546,429.135c-36.762,36.534-128.938,8.678-128.938,8.678l-6.218-413.784"/>
<path fill="#1E1406" d="M478.071,502.226l-166.27,60.244c-1.526,0.569-3.188-0.159-3.667-1.571l-80.538-243.141
	c-0.479-1.412,0.387-3.052,1.936-3.622l166.27-60.244c1.526-0.569,3.189,0.159,3.667,1.572l80.539,243.141
	C480.485,500.039,479.619,501.679,478.071,502.226z"/>
<path fill="#1E1406" d="M422.473,518.853l158.525,33.869c1.458,0.319,2.938-0.638,3.257-2.096l53.389-249.86
	c0.319-1.458-0.638-2.938-2.095-3.257L477.023,263.64c-1.458-0.319-2.938,0.638-3.257,2.095l-53.389,249.86
	C420.059,517.076,420.969,518.534,422.473,518.853z"/>
<path fill="#0D0E12" d="M816.851,858.316l-784.61-5.854C33.037,742.246,15.067,506.781,199.9,506.781l451.843,3.325
	C842.52,510.106,817.649,748.077,816.851,858.316z"/>
<g>
	<rect x="577.538" y="681.794" fill="#DADDE5" width="7.553" height="21.787"/>
	<path fill="#DADDE5" d="M581.315,675.417c-1.85,0-3.699,0-5.549,0c0-1.776,0-3.553,0-5.329c0-3.02,2.439-5.331,5.46-5.331
		c3.019,0,5.459,2.312,5.459,5.331C586.685,673.076,584.292,675.372,581.315,675.417z"/>
	<path fill="#DADDE5" d="M570.185,675.401c1.851,0,3.7,0,5.55,0c0,1.776,0,3.552,0,5.329c0,3.019-2.439,5.331-5.46,5.331
		c-3.019,0-5.459-2.312-5.459-5.331C564.816,677.741,567.208,675.446,570.185,675.401z"/>
	<path fill="#DADDE5" d="M635.356,693.704c-1.454,2.092-3.952,3.486-6.799,3.486c-4.242,0-7.438-3.254-7.438-7.669
		c0-4.068,2.848-7.728,7.264-7.728c2.904,0,5.403,1.394,6.973,3.485C635.356,688.088,635.356,690.896,635.356,693.704z
		 M642.908,675.402c-2.421,0-4.843,0-7.263,0c0,0.755,0,1.511,0,2.266c-2.208-1.801-5.055-2.846-8.251-2.846
		c-7.669,0-13.828,6.39-13.828,14.699c0,3.834,1.396,7.32,3.603,9.877c2.498,2.905,6.449,4.764,10.634,4.764
		c2.846,0,5.519-0.871,7.843-2.846c0,0.755,0,1.51,0,2.265c2.42,0,4.842,0,7.263,0C642.908,694.188,642.908,684.796,642.908,675.402
		z"/>
	<path fill="#DADDE5" d="M611.24,668.721c-0.64-0.174-1.567-0.291-2.266-0.291c-1.859,0-3.312,0.524-4.242,1.628
		c-0.64,0.812-1.045,1.859-1.045,4.473c0,0.291,0,0.581,0,0.872c2.905,0,5.811,0,8.715,0c0,2.13,0,4.261,0,6.391
		c-2.904,0-5.81,0-8.715,0c0,7.264,0,14.525,0,21.789c-2.518,0-5.035,0-7.553,0c0-7.264,0-14.525,0-21.789c-2.422,0-4.843,0-7.264,0
		c0-2.13,0-4.261,0-6.391c2.421,0,4.842,0,7.264,0c0-0.388,0-0.774,0-1.162c0-4.532,1.045-7.263,3.021-9.18s4.938-3.312,8.773-3.312
		c1.511,0,2.904,0.115,4.474,0.522C612.015,664.421,611.627,666.57,611.24,668.721z"/>
	<path fill="#DADDE5" d="M531.459,685.86c0.348-2.557,2.904-4.938,6.043-4.938c3.079,0,5.345,2.439,5.578,4.938
		C539.206,685.86,535.333,685.86,531.459,685.86z M545.811,694.808c-1.337,1.453-3.894,3.254-7.089,3.254
		c-4.009,0-7.204-2.729-7.611-6.682c6.507,0,13.015,0,19.522,0c0.116-0.639,0.174-1.395,0.174-2.149
		c0-7.844-5.52-14.408-13.305-14.408c-8.366,0-13.712,6.855-13.712,14.698c0,8.832,6.332,14.642,14.758,14.642
		c4.357,0,8.831-1.801,11.562-5.054C548.677,697.675,547.243,696.241,545.811,694.808z"/>
	<polygon fill="#DADDE5" points="508.215,692.601 515.944,675.402 523.786,675.402 510.829,703.581 505.601,703.581 
		492.645,675.402 500.488,675.402 	"/>
	<rect x="555.457" y="675.401" fill="#DADDE5" width="7.554" height="28.18"/>
</g>
<path fill="#35260D" d="M362.957,26.307c0,0-112.38-5.33-137.047,176.155c-20.454,150.395,72.179,283.433,72.179,283.433
	s-65.46-61.109,11.502-113.2c76.963-52.09,158.937-224.646,147.594-260.087C445.842,77.19,362.957,26.307,362.957,26.307z"/>
<path fill="#35260D" d="M250.418,112.722c0,0-51.727,152.012-37.81,251.546S335.921,594.13,335.921,594.13
	s-54.049-84.16-40.2-152.786c13.848-68.626,40.2-77.054,40.2-77.054l-47.397-202.917L250.418,112.722z"/>
<polyline fill="#FAD5BD" points="517.224,515.801 341.821,515.801 341.821,326.162 517.224,326.162 "/>
<ellipse fill="#FAD5BD" cx="429.511" cy="515.8" rx="87.713" ry="29.906"/>
<path fill="#F5A9A9" d="M431.811,423.19c-0.979,0-1.64-0.819-1.64-1.64v-35.805c0-0.979,0.82-1.64,1.64-1.64
	c0.979,0,1.641,0.82,1.641,1.64v35.805C433.611,422.553,432.79,423.19,431.811,423.19z"/>
<path fill="#FF9462" d="M318.543,278.286c-0.023,18.29-8.428,33.094-18.769,33.072c-10.34-0.023-18.699-14.851-18.677-33.14
	c0.023-18.29,8.428-33.095,18.769-33.072C310.206,245.168,318.566,259.996,318.543,278.286z"/>
<path fill="#FFBB9C" d="M592.091,274.345c-0.068,35.235-16.263,63.774-36.192,63.752c-19.93-0.046-36.056-28.63-35.987-63.889
	c0.068-35.235,16.263-63.775,36.192-63.752C576.033,210.502,592.159,239.109,592.091,274.345z"/>
<path fill="#FF9462" d="M574.712,274.322c-0.022,18.29-8.428,33.095-18.769,33.072c-10.34-0.023-18.699-14.85-18.677-33.14
	c0.023-18.29,8.428-33.094,18.769-33.072C566.399,241.205,574.758,256.033,574.712,274.322z"/>
<path fill="#FCE1CB" d="M315.832,91.243c-26.99,40.793-36.738,77.76-33.687,119.942c1.822,25.259,4.055,118.894,27.423,161.509
	c8.975,50.496,69.378,96.915,86.779,100.741c17.401,3.827,56.896,4.761,74.753-2.346c17.857-7.106,57.261-39.562,72.453-97.644
	c15.738-33.003,24.553-92.132,26.17-131.193c1.617-39.062,5.626-97.598-18.198-138.437c-23.848-40.838-65.757-69.127-123.245-68.284
	C370.77,36.306,329.452,70.653,315.832,91.243z"/>
<path opacity="0.17" fill="#4B4B4B" enable-background="new    " d="M408.693,317.735l33.004,20.59
	c0.479,0.296,1.275,0.114,1.366-0.341l4.556-21.114L408.693,317.735z"/>
<polygon opacity="0.65" fill="#FFBB9C" enable-background="new    " points="420.309,192.463 408.693,317.803 453.062,317.074 "/>
<path opacity="0.65" fill="#FFBB9C" enable-background="new    " d="M433.269,317.735c0.159-4.168-2.915-7.676-6.878-7.835
	c-3.964-0.159-7.312,3.075-7.472,7.243c-0.022,0.456,0.023,0.865,0.068,1.298l14.19-0.205
	C433.223,318.054,433.269,317.917,433.269,317.735z"/>
<path fill="#FFBB9C" d="M365.258,360.304c0,0,23.847-0.341,66.553-1.708c33.915-1.071,63.684,2.414,63.684,2.414
	s-18.267,42.616-64.48,42.616S365.258,360.304,365.258,360.304z"/>
<ellipse opacity="0.33" fill="#FFBB9C" enable-background="new    " cx="355.988" cy="302.292" rx="24.872" ry="26.148"/>
<ellipse opacity="0.33" fill="#FFBB9C" enable-background="new    " cx="431.811" cy="430.798" rx="39.177" ry="11.411"/>
<ellipse opacity="0.33" fill="#FFBB9C" enable-background="new    " cx="498.387" cy="302.156" rx="24.873" ry="26.148"/>
<path fill="#35260D" d="M316.083,211.117c7.584-9.749,20.612-17.242,34.711-21.433c14.145-4.1,29.405-5.147,42.775-2.482
	l6.445,14.144c-13.324,1.275-30.156,1.458-46.419-2.323C341.069,201.505,329.043,205.65,316.083,211.117z"/>
<path fill="#35260D" d="M536.994,211.117c-7.585-9.749-20.613-17.242-34.712-21.433c-14.145-4.1-29.405-5.147-42.774-2.482
	l-6.446,14.144c13.324,1.275,30.156,1.458,46.419-2.323C511.985,201.505,524.033,205.65,536.994,211.117z"/>
<path opacity="0.37" fill="#FFBB9C" enable-background="new    " d="M331.799,254.917c0,0,1.708-5.535,38.812-5.535
	c37.103,0,37.49,5.535,37.49,5.535s-10.478,2.665-35.965,2.665C346.65,257.673,331.799,254.917,331.799,254.917z"/>
<path opacity="0.37" fill="#FFBB9C" enable-background="new    " d="M450.147,252.366c0,0,1.64-4.259,37.194-4.259
	c35.554,0,35.919,4.259,35.919,4.259s-10.022,2.05-34.462,2.05C464.177,254.507,450.147,252.366,450.147,252.366z"/>
<path opacity="0.33" fill="#FFBB9C" enable-background="new    " d="M299.935,214.42c0,0-0.114-56.851,54.254-76.211
	c81.723-29.109,163.399-25.305,118.529-51.885c-44.87-26.581-176.997-4.328-176.997-4.328L299.935,214.42z"/>
<path fill="#FFFFFF" d="M365.258,360.441c0,0,29.655,36.83,67.646,33.573s62.59-32.89,62.59-32.89l-82.656-1.298L365.258,360.441z"
	/>
<path fill="#FF9462" d="M433.588,363.926c18.677,0.205,61.906-3.211,61.906-3.211s-20.431-7.448-51.999-7.425
	c-1.73,0-4.441,2.323-6.195,2.369c-2.3,0.046-8.792,0.023-11.001,0.068c-2.027,0.046-5.466-2.505-7.402-2.437
	c-34.939,1.185-53.639,6.993-53.639,6.993C400.63,365.429,414.91,363.721,433.588,363.926z"/>
<path fill="#422D0E" d="M470.988,21.638c0,0-189.389-74.115-207.245,148.572c-20.431,254.644,72.179,283.434,72.179,283.434
	s-81.062-251.387-4.122-303.477s177.932,2.323,166.588-33.117C487.045,81.654,470.988,21.638,470.988,21.638z"/>
<path fill="#35260D" d="M517.224,91.767c0,0,70.152,57.921,78.124,210.388s-28.38,260.497-28.38,260.497
	s73.341-145.748,78.397-283.638S528.999,26.307,528.999,26.307L517.224,91.767z"/>
<path fill="#422D0E" d="M393.409,49.334c0,0,5.945-22.321,32.274-22.321c26.33,0,124.885-33.823,149.028,58.422
	c24.144,92.245,7.653,250.088-2.277,280.7s-56.532,129.667-56.532,129.667s50.633-222.027,15.943-306.825
	c-34.688-84.797-67.122-88.351-67.122-88.351s-40.087-21.979-41.203-41.385"/>
<circle fill="#467711" cx="361.386" cy="245.646" r="5.535"/>
<path fill="#467711" d="M498.889,244.667c0,3.758-1.959,5.535-5.535,5.535c-3.758,0-5.535-1.958-5.535-5.535
	c0-3.576,1.959-5.535,5.535-5.535C496.93,238.95,498.889,240.909,498.889,244.667z"/>
</svg>
