<?xml version="1.0" encoding="utf-8"?>
<!-- Generator: Adobe Illustrator 16.0.0, SVG Export Plug-In . SVG Version: 6.00 Build 0)  -->
<!DOCTYPE svg PUBLIC "-//W3C//DTD SVG 1.1//EN" "http://www.w3.org/Graphics/SVG/1.1/DTD/svg11.dtd">
<svg version="1.1" id="Layer_1" xmlns="http://www.w3.org/2000/svg" xmlns:xlink="http://www.w3.org/1999/xlink" x="0px" y="0px"
	 width="850.389px" height="850.391px" viewBox="0 0 850.389 850.391" enable-background="new 0 0 850.389 850.391"
	 xml:space="preserve">
<path fill="#FFAE56" d="M400.904,582.946l-160.074-25.51c-1.48-0.228-2.506-1.64-2.278-3.12l40.224-252.32
	c0.229-1.48,1.641-2.505,3.121-2.278l160.074,25.51c1.48,0.228,2.505,1.64,2.277,3.121l-40.224,252.32
	C403.796,582.172,402.384,583.197,400.904,582.946z"/>
<path fill="#FFAE56" d="M457.139,582.946l160.074-25.51c1.48-0.228,2.506-1.64,2.278-3.12l-40.224-252.32
	c-0.229-1.48-1.641-2.505-3.121-2.278l-160.074,25.51c-1.48,0.228-2.506,1.64-2.277,3.121l40.224,252.32
	C454.246,582.172,455.636,583.197,457.139,582.946z"/>
<path fill="#0D0E12" d="M816.851,858.316l-784.61-5.854C33.037,742.246,15.067,506.781,199.9,506.781l451.843,3.325
	C842.52,510.106,817.649,748.077,816.851,858.316z"/>
<g>
	<rect x="577.538" y="681.794" fill="#DADDE5" width="7.553" height="21.787"/>
	<path fill="#DADDE5" d="M581.315,675.417c-1.85,0-3.699,0-5.549,0c0-1.776,0-3.553,0-5.329c0-3.02,2.439-5.331,5.46-5.331
		c3.019,0,5.459,2.312,5.459,5.331C586.685,673.076,584.292,675.372,581.315,675.417z"/>
	<path fill="#DADDE5" d="M570.185,675.401c1.851,0,3.7,0,5.55,0c0,1.776,0,3.552,0,5.329c0,3.019-2.439,5.331-5.46,5.331
		c-3.019,0-5.459-2.312-5.459-5.331C564.816,677.741,567.208,675.446,570.185,675.401z"/>
	<path fill="#DADDE5" d="M635.356,693.704c-1.454,2.092-3.952,3.486-6.799,3.486c-4.242,0-7.438-3.254-7.438-7.669
		c0-4.068,2.848-7.728,7.264-7.728c2.904,0,5.403,1.394,6.973,3.485C635.356,688.088,635.356,690.896,635.356,693.704z
		 M642.908,675.402c-2.421,0-4.843,0-7.263,0c0,0.755,0,1.511,0,2.266c-2.208-1.801-5.055-2.846-8.251-2.846
		c-7.669,0-13.828,6.39-13.828,14.699c0,3.834,1.396,7.32,3.603,9.877c2.498,2.905,6.449,4.764,10.634,4.764
		c2.846,0,5.519-0.871,7.843-2.846c0,0.755,0,1.51,0,2.265c2.42,0,4.842,0,7.263,0C642.908,694.188,642.908,684.796,642.908,675.402
		z"/>
	<path fill="#DADDE5" d="M611.24,668.721c-0.64-0.174-1.567-0.291-2.266-0.291c-1.859,0-3.312,0.524-4.242,1.628
		c-0.64,0.812-1.045,1.859-1.045,4.473c0,0.291,0,0.581,0,0.872c2.905,0,5.811,0,8.715,0c0,2.13,0,4.261,0,6.391
		c-2.904,0-5.81,0-8.715,0c0,7.264,0,14.525,0,21.789c-2.518,0-5.035,0-7.553,0c0-7.264,0-14.525,0-21.789c-2.422,0-4.843,0-7.264,0
		c0-2.13,0-4.261,0-6.391c2.421,0,4.842,0,7.264,0c0-0.388,0-0.774,0-1.162c0-4.532,1.045-7.263,3.021-9.18s4.938-3.312,8.773-3.312
		c1.511,0,2.904,0.115,4.474,0.522C612.015,664.421,611.627,666.57,611.24,668.721z"/>
	<path fill="#DADDE5" d="M531.459,685.86c0.348-2.557,2.904-4.938,6.043-4.938c3.079,0,5.345,2.439,5.578,4.938
		C539.206,685.86,535.333,685.86,531.459,685.86z M545.811,694.808c-1.337,1.453-3.894,3.254-7.089,3.254
		c-4.009,0-7.204-2.729-7.611-6.682c6.507,0,13.015,0,19.522,0c0.116-0.639,0.174-1.395,0.174-2.149
		c0-7.844-5.52-14.408-13.305-14.408c-8.366,0-13.712,6.855-13.712,14.698c0,8.832,6.332,14.642,14.758,14.642
		c4.357,0,8.831-1.801,11.562-5.054C548.677,697.675,547.243,696.241,545.811,694.808z"/>
	<polygon fill="#DADDE5" points="508.215,692.601 515.944,675.402 523.786,675.402 510.829,703.581 505.601,703.581 
		492.645,675.402 500.488,675.402 	"/>
	<rect x="555.457" y="675.401" fill="#DADDE5" width="7.554" height="28.18"/>
</g>
<polyline fill="#FAD5BD" points="517.224,515.801 341.821,515.801 341.821,326.162 517.224,326.162 "/>
<ellipse fill="#FAD5BD" cx="429.511" cy="515.8" rx="87.713" ry="29.906"/>
<path fill="#F5A9A9" d="M431.811,423.19c-0.979,0-1.64-0.819-1.64-1.64v-35.805c0-0.979,0.82-1.64,1.64-1.64
	c0.979,0,1.641,0.82,1.641,1.64v35.805C433.611,422.553,432.79,423.19,431.811,423.19z"/>
<path fill="#FFBB9C" d="M335.921,278.308c-0.068,35.236-16.263,63.775-36.191,63.752c-19.93-0.045-36.056-28.63-35.987-63.888
	c0.068-35.236,16.263-63.775,36.192-63.752C319.864,214.465,335.967,243.073,335.921,278.308z"/>
<path fill="#FF9462" d="M318.543,278.286c-0.023,18.29-8.428,33.094-18.769,33.072c-10.34-0.023-18.699-14.851-18.677-33.14
	c0.023-18.29,8.428-33.095,18.769-33.072C310.206,245.168,318.566,259.996,318.543,278.286z"/>
<path fill="#FFBB9C" d="M592.091,274.345c-0.068,35.235-16.263,63.774-36.192,63.752c-19.93-0.046-36.056-28.63-35.987-63.889
	c0.068-35.235,16.263-63.775,36.192-63.752C576.033,210.502,592.159,239.109,592.091,274.345z"/>
<path fill="#FF9462" d="M574.712,274.322c-0.022,18.29-8.428,33.095-18.769,33.072c-10.34-0.023-18.699-14.85-18.677-33.14
	c0.023-18.29,8.428-33.094,18.769-33.072C566.399,241.205,574.758,256.033,574.712,274.322z"/>
<path fill="#FCE1CB" d="M315.832,91.243c-26.99,40.793-36.738,77.76-33.687,119.942c1.822,25.259,4.055,118.894,27.423,161.509
	c18.882,34.438,68.786,86.939,86.188,90.765s63.228,5.057,81.085-2.05c17.856-7.106,50.974-54.96,66.713-87.986
	c15.738-33.003,24.553-92.132,26.17-131.194s5.626-97.598-18.198-138.437c-23.848-40.839-65.757-69.127-123.245-68.285
	C370.77,36.306,329.452,70.653,315.832,91.243z"/>
<polygon opacity="0.17" fill="#4B4B4B" enable-background="new    " points="408.693,302.292 442.835,326.162 447.618,301.017 "/>
<polygon opacity="0.65" fill="#FFBB9C" enable-background="new    " points="422.245,219.818 408.693,302.292 467.389,301.449 "/>
<path opacity="0.65" fill="#FFBB9C" enable-background="new    " d="M433.269,301.449c0.159-4.168-2.915-7.676-6.878-7.835
	c-3.964-0.16-7.312,3.075-7.472,7.243c-0.022,0.455,0.023,0.865,0.068,1.298l14.19-0.205
	C433.223,301.768,433.269,301.632,433.269,301.449z"/>
<path fill="#4F97D0" d="M374.3,243.642c-0.137,3.303-2.778,5.854-5.899,5.717c-3.143-0.136-5.58-2.915-5.443-6.218
	s2.778-5.854,5.899-5.717C371.999,237.561,374.437,240.339,374.3,243.642z"/>
<path fill="#4F97D0" d="M492.374,242.981c-0.137,3.303-2.778,5.854-5.899,5.717c-3.143-0.137-5.58-2.916-5.443-6.218
	s2.779-5.854,5.899-5.717C490.074,236.9,492.511,239.679,492.374,242.981z"/>
<path fill="#FFBB9C" d="M362.251,371.237c0,0,27.195-5.649,73.455-6.879c36.738-0.979,67.601,7.539,67.601,7.539
	s-19.793,38.721-69.833,38.721S362.251,371.237,362.251,371.237z"/>
<ellipse opacity="0.33" fill="#FFBB9C" enable-background="new    " cx="358.037" cy="311.334" rx="32.89" ry="34.575"/>
<ellipse opacity="0.33" fill="#FFBB9C" enable-background="new    " cx="503.444" cy="313.589" rx="32.89" ry="34.575"/>
<path fill="#FFC765" d="M316.083,211.117c7.584-5.353,20.612-9.475,34.711-11.776c14.145-2.255,29.405-2.824,42.775-1.366
	l6.445,7.767c-13.324,0.706-30.156,0.797-46.419-1.275C341.069,205.833,329.043,208.11,316.083,211.117z"/>
<path fill="#FFC765" d="M536.994,211.117c-7.585-5.353-20.613-9.475-34.712-11.776c-14.145-2.255-29.405-2.824-42.774-1.366
	l-6.446,7.767c13.324,0.706,30.156,0.797,46.419-1.275C511.985,205.833,524.033,208.11,536.994,211.117z"/>
<path opacity="0.37" fill="#FFBB9C" enable-background="new    " d="M331.799,254.917c0,0,1.708-5.535,38.812-5.535
	c37.103,0,37.49,5.535,37.49,5.535s-10.478,2.665-35.965,2.665C346.65,257.673,331.799,254.917,331.799,254.917z"/>
<path opacity="0.37" fill="#FFBB9C" enable-background="new    " d="M450.147,252.366c0,0,1.64-4.259,37.194-4.259
	c35.554,0,35.919,4.259,35.919,4.259s-10.022,2.05-34.462,2.05C464.177,254.507,450.147,252.366,450.147,252.366z"/>
<path opacity="0.33" fill="#FFBB9C" enable-background="new    " d="M299.935,214.42c0,0-0.114-56.851,54.254-76.211
	c81.723-29.109,163.399-25.305,118.529-51.885c-44.87-26.581-176.997-4.328-176.997-4.328L299.935,214.42z"/>
<path fill="#FFFFFF" d="M362.251,371.191c0,0,30.065,27.879,71.223,24.735c41.157-3.143,69.833-24.075,69.833-24.075l-89.535-1.253
	L362.251,371.191z"/>
<path fill="#FF9462" d="M436.252,376.794c20.227,0.319,67.055-4.919,67.055-4.919s-30.862-8.496-67.601-7.539
	c-46.26,1.23-73.455,6.878-73.455,6.878C400.562,379.095,416.027,376.476,436.252,376.794z"/>
<path fill="#FFC765" d="M480.804,31.295c0,0-68.672-7.129-54.345,30.271c14.326,37.399,74.502,35.623,98.281,68.558
	c23.778,32.958,51.589,86.756,51.384,130.92c-0.183,44.164-14.122,180.3,1.139,224.829s46.055,59.22,130.647,77.03
	c84.592,17.812,83.704,2.665,81.928,0c-1.777-2.664,5.353-32.866-62.34-47.102s-66.781-188.819-86.369-262.319
	c-19.588-73.478-73.91-188.34-109.533-206.151C496.019,29.519,480.804,31.295,480.804,31.295z"/>
<path fill="#FFC765" d="M194.137,545.706c0,0,74.389,4.715,81.723-51.384S283.33,175.54,335.921,131.9
	c52.592-43.64,99.534-24.052,140.487-25.829c40.952-1.776,84.455-53.434,4.396-74.798C400.743,9.908,315.969,50.86,289.252,87.371
	c-26.717,36.511-37.513,56.668-50.724,193.511c-13.211,136.843,12.618,153.766-31.91,208.977
	c-44.528,55.21-69.446,60.54-69.446,60.54L194.137,545.706z"/>
<path fill="#FFC765" d="M285.539,348.164c0,0,1.207,211.276-39.745,234.828c-40.952,23.551-256.67-5.763-129.349-67.191
	s114.156-133.449,124.429-258.219s44.984-119.441,53.002-116.753C301.893,143.493,285.539,348.164,285.539,348.164z"/>
</svg>
