<?xml version="1.0" encoding="utf-8"?>
<!-- Generator: Adobe Illustrator 16.0.0, SVG Export Plug-In . SVG Version: 6.00 Build 0)  -->
<!DOCTYPE svg PUBLIC "-//W3C//DTD SVG 1.1//EN" "http://www.w3.org/Graphics/SVG/1.1/DTD/svg11.dtd">
<svg version="1.1" id="Layer_1" xmlns="http://www.w3.org/2000/svg" xmlns:xlink="http://www.w3.org/1999/xlink" x="0px" y="0px"
	 width="850.389px" height="850.391px" viewBox="0 0 850.389 850.391" enable-background="new 0 0 850.389 850.391"
	 xml:space="preserve">
<polyline fill="#FAD5D5" points="543.128,531.969 316.131,531.969 316.131,264.532 543.128,264.532 "/>
<path fill="#0D0E12" d="M816.851,858.316l-784.61-5.854C33.037,742.246,15.067,506.781,199.9,506.781l451.843,3.325
	C842.52,510.106,817.649,748.077,816.851,858.316z"/>
<g>
	<rect x="577.538" y="681.794" fill="#DADDE5" width="7.553" height="21.787"/>
	<path fill="#DADDE5" d="M581.315,675.417c-1.85,0-3.699,0-5.549,0c0-1.776,0-3.553,0-5.329c0-3.02,2.439-5.331,5.46-5.331
		c3.019,0,5.459,2.312,5.459,5.331C586.685,673.076,584.292,675.372,581.315,675.417z"/>
	<path fill="#DADDE5" d="M570.185,675.401c1.851,0,3.7,0,5.55,0c0,1.776,0,3.552,0,5.329c0,3.019-2.439,5.331-5.46,5.331
		c-3.019,0-5.459-2.312-5.459-5.331C564.816,677.741,567.208,675.446,570.185,675.401z"/>
	<path fill="#DADDE5" d="M635.356,693.704c-1.454,2.092-3.952,3.486-6.799,3.486c-4.242,0-7.438-3.254-7.438-7.669
		c0-4.068,2.848-7.728,7.264-7.728c2.904,0,5.403,1.394,6.973,3.485C635.356,688.088,635.356,690.896,635.356,693.704z
		 M642.908,675.402c-2.421,0-4.843,0-7.263,0c0,0.755,0,1.511,0,2.266c-2.208-1.801-5.055-2.846-8.251-2.846
		c-7.669,0-13.828,6.39-13.828,14.699c0,3.834,1.396,7.32,3.603,9.877c2.498,2.905,6.449,4.764,10.634,4.764
		c2.846,0,5.519-0.871,7.843-2.846c0,0.755,0,1.51,0,2.265c2.42,0,4.842,0,7.263,0C642.908,694.188,642.908,684.796,642.908,675.402
		z"/>
	<path fill="#DADDE5" d="M611.24,668.721c-0.64-0.174-1.567-0.291-2.266-0.291c-1.859,0-3.312,0.524-4.242,1.628
		c-0.64,0.812-1.045,1.859-1.045,4.473c0,0.291,0,0.581,0,0.872c2.905,0,5.811,0,8.715,0c0,2.13,0,4.261,0,6.391
		c-2.904,0-5.81,0-8.715,0c0,7.264,0,14.525,0,21.789c-2.518,0-5.035,0-7.553,0c0-7.264,0-14.525,0-21.789c-2.422,0-4.843,0-7.264,0
		c0-2.13,0-4.261,0-6.391c2.421,0,4.842,0,7.264,0c0-0.388,0-0.774,0-1.162c0-4.532,1.045-7.263,3.021-9.18s4.938-3.312,8.773-3.312
		c1.511,0,2.904,0.115,4.474,0.522C612.015,664.421,611.627,666.57,611.24,668.721z"/>
	<path fill="#DADDE5" d="M531.459,685.86c0.348-2.557,2.904-4.938,6.043-4.938c3.079,0,5.345,2.439,5.578,4.938
		C539.206,685.86,535.333,685.86,531.459,685.86z M545.811,694.808c-1.337,1.453-3.894,3.254-7.089,3.254
		c-4.009,0-7.204-2.729-7.611-6.682c6.507,0,13.015,0,19.522,0c0.116-0.639,0.174-1.395,0.174-2.149
		c0-7.844-5.52-14.408-13.305-14.408c-8.366,0-13.712,6.855-13.712,14.698c0,8.832,6.332,14.642,14.758,14.642
		c4.357,0,8.831-1.801,11.562-5.054C548.677,697.675,547.243,696.241,545.811,694.808z"/>
	<polygon fill="#DADDE5" points="508.215,692.601 515.944,675.402 523.786,675.402 510.829,703.581 505.601,703.581 
		492.645,675.402 500.488,675.402 	"/>
	<rect x="555.457" y="675.401" fill="#DADDE5" width="7.554" height="28.18"/>
</g>
<g>
	<path fill="#FFB8B2" d="M316.131,321.907c-26.521,0-49.153-11.372-49.153-65.485c0-52.348,13.495-65.485,40.016-65.485
		L316.131,321.907z"/>
	<path fill="#F39797" d="M306.993,290.203c-14.836,0-22.477-5.608-22.477-32.508c0-26.096,7.552-32.508,22.477-32.508V290.203z"/>
</g>
<g>
	<path fill="#FFB8B2" d="M534.705,321.907c26.52,0,55.342-11.372,55.342-65.485c0-52.348-13.495-65.485-40.016-65.485
		L534.705,321.907z"/>
	<path fill="#F39797" d="M550.009,290.203c14.836,0,22.477-5.608,22.477-32.508c0-26.096-7.552-32.508-22.477-32.508V290.203z"/>
</g>
<ellipse fill="#FAD5D5" cx="429.629" cy="509.917" rx="113.499" ry="38.719"/>
<path fill="#FCE1E1" d="M431.864,50.069c75.562-1.787,112.382,12.11,118.615,118.481c6.233,106.528-2.682,183.876-41.892,241.318
	c-25.135,36.798-33.179,43.679-76.724,42.942c-43.545-0.895-74.757-5.832-98.774-74.802
	c-24.019-68.971-28.821-105.321-28.018-180.123C306.032,122.771,286.819,53.354,431.864,50.069z"/>
<path opacity="0.29" fill="#F29D9D" enable-background="new    " d="M502.465,75.852c-32.664,21.292-57.151,30.408-91.245,34.429
	c-34.095,4.021-53.957,0.469-53.957,0.469l4.96-15.528c0,0-10.567,0.961-23.861,8.959c-13.294,7.999-16.646,10.077-16.646,10.077
	l11.037-38.429l64.681-16.176l103.423,5.608L502.465,75.852z"/>
<polygon opacity="0.56" fill="#F29D9D" enable-background="new    " points="429.629,229.522 460.037,288.282 420.179,287.634 "/>
<circle opacity="0.56" fill="#F29D9D" enable-background="new    " cx="356.637" cy="287.008" r="27.705"/>
<ellipse opacity="0.56" fill="#F29D9D" enable-background="new    " cx="498.935" cy="285.891" rx="27.704" ry="27.704"/>
<path fill="#FAD5D5" d="M333.089,246.346c0,0,1.43-8.334,32.664-8.334s31.547,8.334,31.547,8.334s-8.803,3.999-30.251,3.999
	C345.578,250.501,333.089,246.346,333.089,246.346z"/>
<path fill="#FAD5D5" d="M459.411,246.346c0,0,1.431-8.334,32.665-8.334c31.212,0,31.547,8.334,31.547,8.334
	s-8.803,3.999-30.251,3.999C471.722,250.501,459.411,246.346,459.411,246.346z"/>
<circle fill="#4F79A2" cx="363.519" cy="232.583" r="5.451"/>
<path fill="#FFCD3B" d="M329.894,219.133c4.312-5.273,9.607-9.451,15.685-12.177c6.077-2.882,12.802-4.647,19.684-4.96
	c6.881-0.312,13.763,0.804,20.175,3.352c6.233,2.569,11.841,6.412,16.332,11.685c-6.882-0.156-12.959-1.117-18.723-1.43
	c-5.765-0.469-11.372-0.469-17.137-0.313c-5.607,0.313-11.216,0.961-17.137,1.609C342.696,217.524,336.776,218.797,329.894,219.133z
	"/>
<path fill="#4F79A2" d="M498.622,231.622c0,3.687-1.922,5.451-5.451,5.451c-3.687,0-5.452-1.921-5.452-5.451
	c0-3.53,1.922-5.452,5.452-5.452C496.701,226.014,498.622,227.936,498.622,231.622z"/>
<path fill="#FFCD3B" d="M454.273,219.133c4.312-5.273,9.607-9.451,15.685-12.177c6.077-2.882,12.802-4.647,19.684-4.96
	c6.881-0.312,13.763,0.804,20.175,3.352c6.233,2.569,11.842,6.412,16.332,11.685c-6.881-0.156-12.958-1.117-18.723-1.43
	c-5.765-0.469-11.372-0.469-17.137-0.313c-5.607,0.313-11.216,0.961-17.136,1.609C467.098,217.524,461.155,218.797,454.273,219.133z
	"/>
<path fill="#FFFFFF" d="M472.058,342.708c0.156,19.684-14.099,29.782-42.272,30.095c-28.173,0.156-42.584-9.764-42.74-29.447
	s14.88-3.039,43.054-3.195C458.272,340.004,471.879,323.024,472.058,342.708z"/>
<path fill="#4F79A2" d="M471.253,348.628c-11.037,0.156-19.371-1.43-40.171,2.882c-20.332,4.156-31.548-2.391-43.054-2.234
	c0.804,2.391,1.273,3.687,2.726,5.92c11.372,1.609,20.331,2.078,39.054,1.921c18.724-0.156,27.705-0.804,39.055-2.569
	C469.957,352.314,470.448,351.041,471.253,348.628z"/>
<polygon fill="#FAD5D5" points="420.179,287.634 438.589,315.182 442.588,287.634 "/>
<path fill="#FFE03B" d="M302.346,270.989l18.879,6.725c0,0-10.076-73.171-2.726-95.088c7.373-22.097,13.606-40.35,8.334-75.718
	c10.724-26.744,19.84-30.251,93.971-28.978c74.132,1.273,81.795-2.234,81.795-2.234s0.648,64.346,33.29,85.169
	c0,0,3.53,71.718,2.727,118.458l15.527-11.037c0,0,7.842-156.396-12.177-205.861C521.948,12.958,344.26,2.391,315.595,75.227
	C286.93,148.062,302.346,270.989,302.346,270.989z"/>
<path fill="#FFE03B" d="M500.387,42.383c-15.371-33.29-32.508-30.408-81.169-28.33S338.54,31.346,338.54,31.346l55.543,13.919
	L500.387,42.383z"/>
<path fill="#F36839" d="M437.784,285.891c0-3.687-1.921-5.608-5.608-5.608c-3.686,0-5.607,1.921-5.607,5.608
	c0,0.804,0.156,1.117,0.312,1.921l10.412,0.157C437.784,287.165,437.784,286.673,437.784,285.891z"/>
<path fill="#F5A9A9" d="M480.861,159.725c-6.233,0-8.49-2.726-10.412-4.96c-1.765-2.078-3.194-3.843-7.842-3.843
	s-6.077,1.765-7.842,3.843c-1.922,2.391-4.156,4.96-10.412,4.96s-8.489-2.726-10.411-4.96c-1.766-2.078-3.195-3.843-7.842-3.843
	c-4.647,0-6.077,1.765-7.843,3.843c-1.921,2.391-4.155,4.96-10.411,4.96c-6.233,0-8.49-2.726-10.411-4.96
	c-1.766-2.078-3.195-3.843-7.843-3.843c-4.646,0-6.077,1.765-7.842,3.843c-1.922,2.391-4.155,4.96-10.411,4.96
	c-0.961,0-1.609-0.804-1.609-1.608c0-0.961,0.805-1.609,1.609-1.609c4.646,0,6.077-1.765,7.842-3.843
	c1.921-2.391,4.155-4.96,10.411-4.96s8.49,2.726,10.412,4.96c1.765,2.078,3.194,3.843,7.842,3.843s6.077-1.765,7.842-3.843
	c1.922-2.391,4.156-4.96,10.412-4.96s8.489,2.726,10.411,4.96c1.765,2.078,3.195,3.843,7.842,3.843c4.647,0,6.077-1.609,7.843-3.843
	c1.921-2.391,4.155-4.96,10.411-4.96s8.49,2.726,10.411,4.96c1.766,2.078,3.195,3.843,7.843,3.843c0.96,0,1.608,0.804,1.608,1.609
	C482.447,158.942,481.821,159.725,480.861,159.725z"/>
<path fill="#F5A9A9" d="M480.861,141.962c-6.233,0-8.49-2.726-10.412-4.96c-1.765-2.078-3.194-3.843-7.842-3.843
	s-6.077,1.609-7.842,3.843c-1.922,2.391-4.156,4.96-10.412,4.96s-8.489-2.726-10.411-4.96c-1.766-2.078-3.195-3.843-7.842-3.843
	c-4.647,0-6.077,1.765-7.843,3.843c-1.921,2.391-4.155,4.96-10.411,4.96c-6.233,0-8.49-2.726-10.411-4.96
	c-1.766-2.078-3.195-3.843-7.843-3.843c-4.646,0-6.077,1.765-7.842,3.843c-1.922,2.391-4.155,4.96-10.411,4.96
	c-0.961,0-1.609-0.804-1.609-1.608c0-0.961,0.805-1.609,1.609-1.609c4.646,0,6.077-1.765,7.842-3.843
	c1.921-2.391,4.155-4.96,10.411-4.96s8.49,2.726,10.412,4.96c1.765,2.078,3.194,3.843,7.842,3.843s6.077-1.765,7.842-3.843
	c1.922-2.391,4.156-4.96,10.412-4.96s8.489,2.726,10.411,4.96c1.765,2.078,3.195,3.843,7.842,3.843c4.647,0,6.077-1.765,7.843-3.843
	c1.921-2.391,4.155-4.96,10.411-4.96s8.49,2.726,10.411,4.96c1.766,2.078,3.195,3.843,7.843,3.843c0.96,0,1.608,0.805,1.608,1.609
	C482.447,141.158,481.821,141.962,480.861,141.962z"/>
<path fill="#F5A9A9" d="M431.864,428.681c-0.961,0-1.608-0.805-1.608-1.608v-35.056c0-0.96,0.805-1.608,1.608-1.608
	c0.961,0,1.608,0.804,1.608,1.608v35.056C433.629,428.032,432.824,428.681,431.864,428.681z"/>
</svg>
