<?xml version="1.0" encoding="utf-8"?>
<!-- Generator: Adobe Illustrator 24.0.0, SVG Export Plug-In . SVG Version: 6.00 Build 0)  -->
<svg version="1.1" id="Layer_1" xmlns="http://www.w3.org/2000/svg" xmlns:xlink="http://www.w3.org/1999/xlink" x="0px" y="0px"
	 viewBox="0 0 850.4 850.4" style="enable-background:new 0 0 850.4 850.4;" xml:space="preserve">
<style type="text/css">
	.st0{fill:#FAD5BD;}
	.st1{fill:#0D0E12;}
	.st2{fill:#DADDE5;}
	.st3{fill:#F5A9A9;}
	.st4{fill:#FFBB9C;}
	.st5{fill:#FF9462;}
	.st6{fill:#F8A68B;}
	.st7{fill:#FCE1CB;}
	.st8{opacity:0.65;fill:#FFBB9C;enable-background:new    ;}
	.st9{fill:#573D2E;}
	.st10{opacity:0.33;fill:#FFBB9C;enable-background:new    ;}
	.st11{opacity:0.37;fill:#FFBB9C;enable-background:new    ;}
	.st12{fill:#684432;}
	.st13{fill:#604D46;}
	.st14{fill:#4F3323;}
	.st15{opacity:0.37;fill:#F8B99D;enable-background:new    ;}
	.st16{fill:#322200;}
	.st17{fill:#B8BFC4;}
	.st18{fill:#F0F9FF;}
	.st19{fill:#FFFFFF;}
</style>
<polyline class="st0" points="545.4,528.7 313.6,528.7 313.6,255.5 545.4,255.5 "/>
<path class="st1" d="M816.9,858.3l-784.6-5.9C33,742.2,15.1,506.8,199.9,506.8l451.8,3.3C842.5,510.1,817.6,748.1,816.9,858.3z"/>
<g>
	<rect x="577.5" y="681.8" class="st2" width="7.6" height="21.8"/>
	<path class="st2" d="M581.3,675.4c-1.8,0-3.7,0-5.5,0c0-1.8,0-3.6,0-5.3c0-3,2.4-5.3,5.5-5.3c3,0,5.5,2.3,5.5,5.3
		C586.7,673.1,584.3,675.4,581.3,675.4z"/>
	<path class="st2" d="M570.2,675.4c1.9,0,3.7,0,5.5,0c0,1.8,0,3.6,0,5.3c0,3-2.4,5.3-5.5,5.3c-3,0-5.5-2.3-5.5-5.3
		C564.8,677.7,567.2,675.4,570.2,675.4z"/>
	<path class="st2" d="M635.4,693.7c-1.5,2.1-4,3.5-6.8,3.5c-4.2,0-7.4-3.3-7.4-7.7c0-4.1,2.8-7.7,7.3-7.7c2.9,0,5.4,1.4,7,3.5
		C635.4,688.1,635.4,690.9,635.4,693.7z M642.9,675.4c-2.4,0-4.8,0-7.3,0c0,0.8,0,1.5,0,2.3c-2.2-1.8-5.1-2.8-8.3-2.8
		c-7.7,0-13.8,6.4-13.8,14.7c0,3.8,1.4,7.3,3.6,9.9c2.5,2.9,6.4,4.8,10.6,4.8c2.8,0,5.5-0.9,7.8-2.8c0,0.8,0,1.5,0,2.3
		c2.4,0,4.8,0,7.3,0C642.9,694.2,642.9,684.8,642.9,675.4z"/>
	<path class="st2" d="M611.2,668.7c-0.6-0.2-1.6-0.3-2.3-0.3c-1.9,0-3.3,0.5-4.2,1.6c-0.6,0.8-1,1.9-1,4.5c0,0.3,0,0.6,0,0.9
		c2.9,0,5.8,0,8.7,0c0,2.1,0,4.3,0,6.4c-2.9,0-5.8,0-8.7,0c0,7.3,0,14.5,0,21.8c-2.5,0-5,0-7.6,0c0-7.3,0-14.5,0-21.8
		c-2.4,0-4.8,0-7.3,0c0-2.1,0-4.3,0-6.4c2.4,0,4.8,0,7.3,0c0-0.4,0-0.8,0-1.2c0-4.5,1-7.3,3-9.2s4.9-3.3,8.8-3.3
		c1.5,0,2.9,0.1,4.5,0.5C612,664.4,611.6,666.6,611.2,668.7z"/>
	<path class="st2" d="M531.5,685.9c0.3-2.6,2.9-4.9,6-4.9s5.3,2.4,5.6,4.9C539.2,685.9,535.3,685.9,531.5,685.9z M545.8,694.8
		c-1.3,1.5-3.9,3.3-7.1,3.3c-4,0-7.2-2.7-7.6-6.7c6.5,0,13,0,19.5,0c0.1-0.6,0.2-1.4,0.2-2.1c0-7.8-5.5-14.4-13.3-14.4
		c-8.4,0-13.7,6.9-13.7,14.7c0,8.8,6.3,14.6,14.8,14.6c4.4,0,8.8-1.8,11.6-5.1C548.7,697.7,547.2,696.2,545.8,694.8z"/>
	<polygon class="st2" points="508.2,692.6 515.9,675.4 523.8,675.4 510.8,703.6 505.6,703.6 492.6,675.4 500.5,675.4 	"/>
	<rect x="555.5" y="675.4" class="st2" width="7.6" height="28.2"/>
</g>
<ellipse class="st0" cx="429.5" cy="506.2" rx="115.9" ry="39.5"/>
<path class="st3" d="M431.8,423.2c-1,0-1.6-0.8-1.6-1.6v-35.8c0-1,0.8-1.6,1.6-1.6c1,0,1.6,0.8,1.6,1.6v35.8
	C433.6,422.6,432.8,423.2,431.8,423.2z"/>
<path class="st4" d="M335.9,278.3c-0.1,35.2-16.3,63.8-36.2,63.8c-19.9,0-36.1-28.6-36-63.9c0.1-35.2,16.3-63.8,36.2-63.8
	C319.9,214.5,336,243.1,335.9,278.3z"/>
<path class="st5" d="M318.5,278.3c0,18.3-8.4,33.1-18.8,33.1c-10.3,0-18.7-14.9-18.7-33.1c0-18.3,8.4-33.1,18.8-33.1
	C310.2,245.2,318.6,260,318.5,278.3z"/>
<path class="st4" d="M592.1,274.3c-0.1,35.2-16.3,63.8-36.2,63.8s-36.1-28.6-36-63.9c0.1-35.2,16.3-63.8,36.2-63.8
	C576,210.5,592.2,239.1,592.1,274.3z"/>
<path class="st5" d="M574.7,274.3c0,18.3-8.4,33.1-18.8,33.1c-10.3,0-18.7-14.9-18.7-33.1c0-18.3,8.4-33.1,18.8-33.1
	C566.4,241.2,574.8,256,574.7,274.3z"/>
<path class="st6" d="M315.8,95.3c-27,43.7-36.7,83.4-33.7,128.6c1.8,27.1,4.1,127.5,27.4,173.2c18.9,36.9,68.8,73.2,86.2,77.3
	c17.4,4.1,63.2,5.4,81.1-2.2s51-38.9,66.7-74.3s24.6-98.8,26.2-140.7s5.6-104.6-18.2-148.4s-65.8-74.1-123.2-73.2
	C370.8,36.4,329.5,73.2,315.8,95.3z"/>
<path class="st7" d="M314.7,93.5c-27,43.7-36.7,83.4-33.7,128.6c1.8,27.1,4.1,127.5,27.4,173.2c18.9,36.9,68.8,73.2,86.2,77.3
	c17.4,4.1,63.2,5.4,81.1-2.2s51-38.9,66.7-74.3s24.6-98.8,26.2-140.7s5.6-104.6-18.2-148.4s-65.8-74.1-123.2-73.2
	C369.7,34.6,328.4,71.4,314.7,93.5z"/>
<polygon class="st8" points="430,214.4 402.7,322.3 461.4,321.1 "/>
<path class="st9" d="M374.3,243.6c-0.1,3.3-2.8,5.9-5.9,5.7c-3.1-0.1-5.6-2.9-5.4-6.2s2.8-5.9,5.9-5.7S374.4,240.3,374.3,243.6z"/>
<path class="st9" d="M492.4,243c-0.1,3.3-2.8,5.9-5.9,5.7c-3.1-0.1-5.6-2.9-5.4-6.2s2.8-5.9,5.9-5.7
	C490.1,236.9,492.5,239.7,492.4,243z"/>
<ellipse class="st10" cx="358" cy="311.3" rx="32.9" ry="34.6"/>
<ellipse class="st10" cx="503.4" cy="313.6" rx="32.9" ry="34.6"/>
<path class="st11" d="M331.8,254.9c0,0,1.7-5.5,38.8-5.5s37.5,5.5,37.5,5.5s-10.5,2.7-36,2.7C346.6,257.7,331.8,254.9,331.8,254.9z"
	/>
<path class="st11" d="M450.1,252.4c0,0,1.6-4.3,37.2-4.3s35.9,4.3,35.9,4.3s-10,2.1-34.5,2.1S450.1,252.4,450.1,252.4z"/>
<path class="st12" d="M453.6,514.5l-51.9-1.3c-47.2-1.2-84.7-38-83.4-81.9l0.4-13c1.3-43.9,40.8-89.4,87.4-89.4l51.9,1.3
	c47.2,1.2,85.4,49.9,84.1,93.8l-0.4,13C540.4,480.7,500.8,515.7,453.6,514.5z"/>
<path class="st7" d="M430.2,368.5c39,0,72.1-1,72.5,17.4c0.7,34.5-33.4,51.1-72.5,51.1s-68.9-18-68.9-51.1
	C361.3,367.5,391.2,368.5,430.2,368.5z"/>
<ellipse class="st12" cx="431.2" cy="445" rx="25.9" ry="21.8"/>
<path class="st12" d="M327.8,444.1c4.2,10.1-18.8,0.1-37-47.7c-14.4-37.9-7-118.6-7.6-135.2s8.4-19.9,10.7-5.1
	c2.4,14.8,7,87.4,19.5,114.4s24.6,21.9,31.6,26.4"/>
<path class="st12" d="M531.5,445.2c-4.2,10.1,14.9-1,33.1-48.8c14.4-37.9,7-118.6,7.6-135.2s-8.4-19.9-10.7-5.1
	c-2.4,14.8-7,87.4-19.5,114.4s-24.6,21.9-31.6,26.4"/>
<path class="st13" d="M518.3,200.2c-3.5-4.5-8-8-13-10.8s-10.6-4.7-16.3-5.7c-5.7-1-11.6-1.1-17.3-0.3c-5.7,0.8-11.3,2.4-16.3,5
	l2.1,7.1c5.3-0.4,10.3-1.1,15.3-1.4c5-0.3,10-0.4,15-0.1c5,0.3,10,0.9,15,2C507.9,197,512.9,198.5,518.3,200.2z"/>
<path class="st14" d="M393.3,190.8c-5.4-3-11.3-5.4-17.7-7c-6.4-1.6-13.3-2-19.9-1s-12.9,3.2-18.5,6.3s-10.7,7-15.1,11.5
	c6.1-1.7,11.9-3.6,17.6-5c5.8-1.4,11.4-2.2,17-2.4s11,0.3,16.6,1.4c5.6,1.1,11.2,2.6,17.3,3.8L393.3,190.8z"/>
<path class="st15" d="M485.8,161.9H373.6c-1.4,0-2.5-1.1-2.5-2.5s1.1-2.5,2.5-2.5h112.1c1.4,0,2.5,1.1,2.5,2.5
	C488.3,160.8,487.2,161.9,485.8,161.9z"/>
<path class="st15" d="M485.8,147.9H373.6c-1.4,0-2.5-1.1-2.5-2.5s1.1-2.5,2.5-2.5h112.1c1.4,0,2.5,1.1,2.5,2.5
	C488.3,146.7,487.2,147.9,485.8,147.9z"/>
<path class="st15" d="M485.8,161.9H373.6c-1.4,0-2.5-1.1-2.5-2.5s1.1-2.5,2.5-2.5h112.1c1.4,0,2.5,1.1,2.5,2.5
	C488.3,160.8,487.2,161.9,485.8,161.9z"/>
<path class="st15" d="M485.8,147.9H373.6c-1.4,0-2.5-1.1-2.5-2.5s1.1-2.5,2.5-2.5h112.1c1.4,0,2.5,1.1,2.5,2.5
	C488.3,146.7,487.2,147.9,485.8,147.9z"/>
<path class="st16" d="M538.5,295.7h-70.1c-14.4,0-31-21.3-31.3-35.4l-3.1-30.7c0-15.1,11.3-27.4,25.1-27.4h79.4
	c13.9,0,25.1,12.3,25.1,27.4v38.7C563.6,283.4,552.4,295.7,538.5,295.7z M447.1,229.2l3.1,30.6c0,7.5,11.9,21.5,18.2,21.5h70.1
	c6.6,0,12-5.9,12-13.1v-38.7c0-7.2-5.4-13.1-12-13.1h-79.4C452.6,216.5,447.3,222.2,447.1,229.2z"/>
<path class="st16" d="M392.1,295.7H322c-13.9,0-25.1-12.3-25.1-27.4v-38.7c0-15.1,11.3-27.4,25.1-27.4h79.4
	c13.9,0,25.1,12.3,25.1,27.4l0,0.8l-3.1,29.9C423.1,274.5,406.5,295.7,392.1,295.7z M322,216.5c-6.6,0-12,5.9-12,13.1v38.7
	c0,7.2,5.4,13.1,12,13.1h70.1c6.3,0,18.2-14.1,18.2-21.5l0-0.8l3-29.8c-0.2-7.1-5.5-12.7-12-12.7L322,216.5L322,216.5z"/>
<rect x="420" y="220.7" class="st16" width="20.5" height="13.2"/>
<path class="st16" d="M582,231.4c-0.7,0-1.4-0.1-2.1-0.3l-27.4-9.1c-3.4-1.1-5.3-4.9-4.2-8.3c1.1-3.4,4.9-5.3,8.3-4.2l27.4,9.1
	c3.4,1.1,5.3,4.9,4.2,8.3C587.3,229.7,584.7,231.4,582,231.4z"/>
<path class="st16" d="M277.1,231.4c-2.8,0-5.3-1.8-6.2-4.5c-1.1-3.4,0.7-7.2,4.2-8.3l27.4-9.1c3.4-1.2,7.2,0.7,8.3,4.2
	c1.1,3.4-0.7,7.2-4.2,8.3l-27.4,9.1C278.5,231.3,277.8,231.4,277.1,231.4z"/>
<g>
	<g>
		<path class="st17" d="M440.1,342.2l4.1,4.4c4.2-3.6,6.8-9,6.8-15c0-3.4-0.8-6.5-2.3-9.3h-7.3c2.2,2.5,3.6,5.7,3.6,9.3
			C445.1,335.8,443.1,339.6,440.1,342.2z"/>
		<path class="st17" d="M417.8,346.2l4.2-4.3c-2.9-2.5-4.7-6.2-4.7-10.4c0-3.6,1.4-6.8,3.6-9.3h-7.3c-1.5,2.8-2.3,5.9-2.3,9.3
			C411.3,337.4,413.8,342.6,417.8,346.2z"/>
	</g>
	<circle class="st17" cx="421" cy="344.8" r="5.4"/>
	<circle class="st17" cx="442.5" cy="344.8" r="5.4"/>
	<circle class="st18" cx="422.8" cy="346.2" r="2.3"/>
	<circle class="st18" cx="444.2" cy="345.8" r="2.3"/>
</g>
<path class="st19" d="M485.4,389.2c0.2,7.9-17.9,25.5-53.6,25.7c-35.8,0.1-54-17.5-54.2-25.4c-0.2-7.9,18.9-1.2,54.6-1.3
	C467.9,388.1,485.1,381.3,485.4,389.2z"/>
</svg>
