<?xml version="1.0" encoding="utf-8"?>
<!-- Generator: Adobe Illustrator 24.0.0, SVG Export Plug-In . SVG Version: 6.00 Build 0)  -->
<svg version="1.1" id="Layer_1" xmlns="http://www.w3.org/2000/svg" xmlns:xlink="http://www.w3.org/1999/xlink" x="0px" y="0px"
	 viewBox="0 0 850.4 850.4" style="enable-background:new 0 0 850.4 850.4;" xml:space="preserve">
<style type="text/css">
	.st0{fill:#0D0E12;}
	.st1{fill:#DADDE5;}
	.st2{fill:#F8B99D;}
	.st3{fill:#F29265;}
	.st4{fill:#FAD5BC;}
	.st5{fill:#FCE1CC;}
	.st6{opacity:0.65;fill:#F8B99D;enable-background:new    ;}
	.st7{opacity:0.47;fill:#F8B99D;enable-background:new    ;}
	.st8{fill:#BD7713;}
	.st9{opacity:0.37;fill:#F8B99D;enable-background:new    ;}
	.st10{fill:#337145;}
	
		.st11{opacity:0.37;fill:none;stroke:#F8B99D;stroke-width:4;stroke-linecap:round;stroke-miterlimit:10;enable-background:new    ;}
</style>
<path class="st0" d="M829.8,850.4H21.7c0.8-97.1-24.9-309.7,167.1-309.7l469.4,2.9C856.5,543.6,830.6,753.3,829.8,850.4z"/>
<g>
	<rect x="581.2" y="722.5" class="st1" width="7.8" height="22.6"/>
	<path class="st1" d="M585.1,715.8c-1.9,0-3.8,0-5.8,0c0-1.8,0-3.7,0-5.5c0-3.1,2.5-5.5,5.7-5.5c3.1,0,5.7,2.4,5.7,5.5
		C590.7,713.4,588.2,715.8,585.1,715.8z"/>
	<path class="st1" d="M573.5,715.8c1.9,0,3.8,0,5.8,0c0,1.8,0,3.7,0,5.5c0,3.1-2.5,5.5-5.7,5.5c-3.1,0-5.7-2.4-5.7-5.5
		C568,718.3,570.5,715.9,573.5,715.8z"/>
	<path class="st1" d="M641.3,734.9c-1.5,2.2-4.1,3.6-7.1,3.6c-4.4,0-7.7-3.4-7.7-8c0-4.2,3-8,7.5-8c3,0,5.6,1.5,7.2,3.6
		C641.3,729,641.3,731.9,641.3,734.9z M649.1,715.8c-2.5,0-5,0-7.5,0c0,0.8,0,1.6,0,2.3c-2.3-1.9-5.2-3-8.6-3
		c-8,0-14.4,6.6-14.4,15.3c0,4,1.5,7.6,3.7,10.3c2.6,3,6.7,5,11.1,5c3,0,5.7-0.9,8.2-3c0,0.8,0,1.6,0,2.3c2.5,0,5,0,7.5,0
		C649.1,735.4,649.1,725.6,649.1,715.8z"/>
	<path class="st1" d="M616.2,708.9c-0.7-0.2-1.6-0.3-2.3-0.3c-1.9,0-3.4,0.6-4.4,1.7c-0.7,0.8-1.1,1.9-1.1,4.6c0,0.3,0,0.6,0,0.9
		c3,0,6,0,9,0c0,2.2,0,4.4,0,6.6c-3,0-6,0-9,0c0,7.5,0,15.1,0,22.6c-2.6,0-5.2,0-7.8,0c0-7.5,0-15.1,0-22.6c-2.5,0-5,0-7.5,0
		c0-2.2,0-4.4,0-6.6c2.5,0,5,0,7.5,0c0-0.4,0-0.8,0-1.2c0-4.7,1.1-7.5,3.1-9.5c2.1-2,5.1-3.4,9.1-3.4c1.6,0,3,0.1,4.6,0.5
		C617,704.4,616.6,706.7,616.2,708.9z"/>
	<path class="st1" d="M533.3,726.7c0.4-2.7,3-5.1,6.3-5.1c3.2,0,5.6,2.5,5.8,5.1C541.3,726.7,537.3,726.7,533.3,726.7z M548.2,736
		c-1.4,1.5-4,3.4-7.4,3.4c-4.2,0-7.5-2.8-7.9-6.9c6.7,0,13.5,0,20.3,0c0.1-0.7,0.2-1.5,0.2-2.2c0-8.2-5.7-15-13.8-15
		c-8.7,0-14.2,7.1-14.2,15.3c0,9.2,6.6,15.2,15.3,15.2c4.5,0,9.2-1.9,12-5.2C551.2,739,549.7,737.5,548.2,736z"/>
	<polygon class="st1" points="509.2,733.7 517.2,715.8 525.3,715.8 511.9,745.1 506.4,745.1 493,715.8 501.1,715.8 	"/>
	<rect x="558.2" y="715.8" class="st1" width="7.8" height="29.3"/>
</g>
<g>
	<path class="st2" d="M293.1,358.8c-22.4,0.9-34.1-8.2-36-53.8c-1.8-44.1,9-55.6,31.4-56.6L293.1,358.8z"/>
	<path class="st3" d="M292,332.1c-12.5,0.5-19.1-3.9-20.1-26.6c-0.9-22,5.2-27.7,17.8-28.2L292,332.1z"/>
</g>
<g>
	<path class="st2" d="M561.6,367.2c24,1.4,36.8-8.3,39.6-57.3c2.7-47.4-8.9-60-32.9-61.4L561.6,367.2z"/>
	<path class="st3" d="M563.2,338.5c13.5,0.7,20.7-3.9,22-28.3c1.3-23.6-5.2-29.8-18.7-30.6L563.2,338.5z"/>
</g>
<polyline class="st4" points="504.4,549.8 352,549.8 352,385 504.4,385 "/>
<ellipse class="st4" cx="428.2" cy="549.8" rx="76.2" ry="23"/>
<path class="st5" d="M564.6,187.1c0-2.6-0.5-5.5-1.5-8.6c-7.8-49.9-66.2-88.7-137.2-88.7c-49.2,0-92.3,18.6-116.8,46.7
	c-9.3,9-14.8,19.6-17.9,31.4c-2,6.5-3.1,13.2-3.3,20.1c-1.6,19.1,0,40.1-0.3,61.6c-0.9,73.3-8.7,109,18.4,176.6
	c27.1,67.6,75.6,72.5,124.7,73.3c49.2,0.7,71.2-1.3,99.6-37.4C574.6,405.8,571.7,291.6,564.6,187.1z"/>
<circle class="st6" cx="355.8" cy="349.5" r="31.3"/>
<ellipse class="st6" cx="506.4" cy="348.3" rx="31.3" ry="31.3"/>
<path class="st7" d="M524,128.5c-4.8,0.9-39.2,68.2-166.6,36.9c0,0,66.9-5.8,27.1-20.2l-60.4-16l100.3-31.1L524,128.5z"/>
<g>
	<path class="st8" d="M302.2,93.2c7.9-12.1,28.4-39.8,65.9-55.3c60.7-25.1,116.4,2.3,125,6.7c-5.4-3.3-11.7-6.8-18.7-10
		c-8.8-4.1-17.1-7-24.4-9.1c10.6,0.8,26.2,3.3,43.5,10.9c40,17.7,59.9,50.8,71.9,70.7c9.6,15.9,20.6,34.1,24.6,61.3
		c5,34-3.9,61.5-9.4,75c-1.8,3.6-12.7,68.5-12.7,68.5l-6.2-74.8c3.4-8.3,5.2-17.1,5.2-26.2c0-52-59-94.1-131.8-94.1
		s-131.8,42.1-131.8,94.1c0,3.3,0.2,6.5,0.7,9.7c-7.8,25.9-15.7,78.3-15.7,78.3l-7.7-61c-2.1-6.7-20.1-67.2,16-110.7
		c10.5-12.6,22.6-20.4,32.9-25.3c1-4.6-0.2-7.1-0.8-8.1C325.1,88.6,314.2,87.4,302.2,93.2z"/>
	<path class="st8" d="M261.6,75.8c-0.3,1-0.3,1.6-0.3,1.6S260.7,76.7,261.6,75.8z"/>
</g>
<path class="st8" d="M469.8,254.7c3.5-4.2,7.7-7.5,12.5-9.7c4.9-2.3,10.2-3.7,15.7-4c5.5-0.3,11,0.6,16.1,2.7
	c5,2.1,9.5,5.1,13.1,9.3c-5.5-0.1-10.4-0.9-15-1.2c-4.6-0.4-9.1-0.4-13.7-0.3c-4.5,0.3-9,0.8-13.7,1.3
	C480,253.5,475.3,254.5,469.8,254.7z"/>
<path class="st8" d="M333.4,256c3.8-4.6,8.4-8.2,13.7-10.6c5.3-2.5,11.2-4,17.2-4.3c6-0.3,12,0.7,17.6,2.9
	c5.4,2.2,10.3,5.6,14.2,10.2c-6-0.1-11.3-1-16.3-1.3c-5-0.4-9.9-0.4-15-0.3c-4.9,0.3-9.8,0.8-15,1.4
	C344.5,254.6,339.4,255.7,333.4,256z"/>
<path class="st9" d="M327.6,303.6c0,0,1.6-9.4,36.9-9.4s35.6,9.4,35.6,9.4s-9.9,4.5-34.2,4.5C341.7,308.4,327.6,303.6,327.6,303.6z"
	/>
<circle class="st10" cx="361.9" cy="288.1" r="6.1"/>
<polygon class="st6" points="428.2,284.7 462.5,351 417.5,350.3 "/>
<polygon class="st9" points="417.5,350.3 438.3,381.4 442.8,350.3 "/>
<path class="st3" d="M437.4,348.3c0-4.2-2.2-6.3-6.3-6.3c-4.2,0-6.3,2.2-6.3,6.3c0,0.9,0.2,1.3,0.4,2.2l11.8,0.2
	C437.4,349.7,437.4,349.2,437.4,348.3z"/>
<path class="st9" d="M459.5,303.6c0,0,1.6-9.4,36.9-9.4s35.6,9.4,35.6,9.4s-9.9,4.5-34.2,4.5C473.4,308.4,459.5,303.6,459.5,303.6z"
	/>
<path class="st10" d="M503.8,287c0,4.2-2.2,6.1-6.1,6.1c-4.2,0-6.1-2.2-6.1-6.1c0-4,2.2-6.1,6.1-6.1
	C501.6,280.7,503.8,282.9,503.8,287z"/>
<path class="st8" d="M521.6,116.8c-4.9,0.8-39.7,60.6-168.7,32.8c0,0,67.8-5.2,27.4-18l-61.2-14.2l101.6-27.6L521.6,116.8z"/>
<path class="st8" d="M564.1,367.3c-0.8,18.2-4.9,47.3-22.3,77.1c-5.6,9.6-15.4,25.9-34.4,40.6c-9,6.9-36.7,26.4-76.6,26.7
	c-40.3,0.3-68.1-19-78.6-26.5c-58.8-42-63.6-115-64.2-126.3c4.4,18,15.4,50.1,44.3,75.2c13.1,11.3,27.7,24,47.1,23.6
	c23.2-0.5,28.9-19.1,53.7-20.7c23.4-1.5,31.4,14.2,49,15.4C500.2,453.6,527.1,439.5,564.1,367.3z"/>
<path class="st8" d="M359.1,384.3c1.6,1.2,4.2,3,7.8,4.1c0,0,5.1,1.7,10.9,1.4c14.9-0.9,23.7-19.3,41.4-22.6
	c10.6-2,17,5.5,11.7,14.8c-7.4,13.1-25.5,21.7-42.3,20.8c-4.5-0.3-12-0.8-19.4-6.2C363.5,392.5,360.5,387.3,359.1,384.3z"/>
<path class="st8" d="M506.4,384.3c-1.5,1.6-4.3,4-8.4,5.3c-0.9,0.3-4.8,1.4-10.2,0.2c-15.9-3.3-24.8-19.5-41.4-22.6
	c-10.6-2-17,5.5-11.7,14.8c7.2,12.6,24.7,23.2,42.3,20.8c9.5-1.4,16.5-6,18.9-7.7C501,391.3,504.4,387.2,506.4,384.3z"/>
<path class="st2" d="M385,409.8c0,0,18.4-4,49.7-4.9c24.8-0.7,45.7,5.3,45.7,5.3s-13.7,17.3-47.5,17.3S385,409.8,385,409.8z"/>
<path class="st3" d="M435.1,413.7c13.7,0.2,45.4-3.5,45.4-3.5s-20.9-6-45.7-5.3c-31.3,0.9-49.7,4.9-49.7,4.9
	C411,415.4,421.4,413.5,435.1,413.7z"/>
<line class="st11" x1="381.1" y1="219.5" x2="484.5" y2="219.5"/>
<line class="st11" x1="381.1" y1="206.6" x2="484.5" y2="206.6"/>
</svg>
