<?xml version="1.0" encoding="utf-8"?>
<!-- Generator: Adobe Illustrator 16.0.0, SVG Export Plug-In . SVG Version: 6.00 Build 0)  -->
<!DOCTYPE svg PUBLIC "-//W3C//DTD SVG 1.1//EN" "http://www.w3.org/Graphics/SVG/1.1/DTD/svg11.dtd">
<svg version="1.1" id="Layer_1" xmlns="http://www.w3.org/2000/svg" xmlns:xlink="http://www.w3.org/1999/xlink" x="0px" y="0px"
	 width="850.389px" height="850.391px" viewBox="0 0 850.389 850.391" enable-background="new 0 0 850.389 850.391"
	 xml:space="preserve">
<path fill="#0D0E12" d="M816.851,858.316l-784.61-5.854C33.037,742.246,15.067,506.781,199.9,506.781l451.843,3.325
	C842.52,510.106,817.649,748.077,816.851,858.316z"/>
<g>
	<rect x="577.538" y="681.794" fill="#DADDE5" width="7.553" height="21.787"/>
	<path fill="#DADDE5" d="M581.315,675.417c-1.85,0-3.699,0-5.549,0c0-1.776,0-3.553,0-5.329c0-3.02,2.439-5.331,5.46-5.331
		c3.019,0,5.459,2.312,5.459,5.331C586.685,673.076,584.292,675.372,581.315,675.417z"/>
	<path fill="#DADDE5" d="M570.185,675.401c1.851,0,3.7,0,5.55,0c0,1.776,0,3.552,0,5.329c0,3.019-2.439,5.331-5.46,5.331
		c-3.019,0-5.459-2.312-5.459-5.331C564.816,677.741,567.208,675.446,570.185,675.401z"/>
	<path fill="#DADDE5" d="M635.356,693.704c-1.454,2.092-3.952,3.486-6.799,3.486c-4.242,0-7.438-3.254-7.438-7.669
		c0-4.068,2.848-7.728,7.264-7.728c2.904,0,5.403,1.394,6.973,3.485C635.356,688.088,635.356,690.896,635.356,693.704z
		 M642.908,675.402c-2.421,0-4.843,0-7.263,0c0,0.755,0,1.511,0,2.266c-2.208-1.801-5.055-2.846-8.251-2.846
		c-7.669,0-13.828,6.39-13.828,14.699c0,3.834,1.396,7.32,3.603,9.877c2.498,2.905,6.449,4.764,10.634,4.764
		c2.846,0,5.519-0.871,7.843-2.846c0,0.755,0,1.51,0,2.265c2.42,0,4.842,0,7.263,0C642.908,694.188,642.908,684.796,642.908,675.402
		z"/>
	<path fill="#DADDE5" d="M611.24,668.721c-0.64-0.174-1.567-0.291-2.266-0.291c-1.859,0-3.312,0.524-4.242,1.628
		c-0.64,0.812-1.045,1.859-1.045,4.473c0,0.291,0,0.581,0,0.872c2.905,0,5.811,0,8.715,0c0,2.13,0,4.261,0,6.391
		c-2.904,0-5.81,0-8.715,0c0,7.264,0,14.525,0,21.789c-2.518,0-5.035,0-7.553,0c0-7.264,0-14.525,0-21.789c-2.422,0-4.843,0-7.264,0
		c0-2.13,0-4.261,0-6.391c2.421,0,4.842,0,7.264,0c0-0.388,0-0.774,0-1.162c0-4.532,1.045-7.263,3.021-9.18s4.938-3.312,8.773-3.312
		c1.511,0,2.904,0.115,4.474,0.522C612.015,664.421,611.627,666.57,611.24,668.721z"/>
	<path fill="#DADDE5" d="M531.459,685.86c0.348-2.557,2.904-4.938,6.043-4.938c3.079,0,5.345,2.439,5.578,4.938
		C539.206,685.86,535.333,685.86,531.459,685.86z M545.811,694.808c-1.337,1.453-3.894,3.254-7.089,3.254
		c-4.009,0-7.204-2.729-7.611-6.682c6.507,0,13.015,0,19.522,0c0.116-0.639,0.174-1.395,0.174-2.149
		c0-7.844-5.52-14.408-13.305-14.408c-8.366,0-13.712,6.855-13.712,14.698c0,8.832,6.332,14.642,14.758,14.642
		c4.357,0,8.831-1.801,11.562-5.054C548.677,697.675,547.243,696.241,545.811,694.808z"/>
	<polygon fill="#DADDE5" points="508.215,692.601 515.944,675.402 523.786,675.402 510.829,703.581 505.601,703.581 
		492.645,675.402 500.488,675.402 	"/>
	<rect x="555.457" y="675.401" fill="#DADDE5" width="7.554" height="28.18"/>
</g>
<path fill="#E3C592" d="M349.223,66.326c0,0,87.6-88.943,175.198-51.225c87.599,37.741,84.911,97.712,82.884,124.657
	c-2.026,26.945,0.684,50.542,15.488,84.228c14.828,33.687,17.516,85.572,2.027,122.652c-15.488,37.058-28.972,50.542-23.597,70.767
	c5.398,20.226,18.198,54.573-37.058,79.514s-128.711-19.543-128.711-19.543s-56.6,37.741-109.169,38.402
	c-52.568,0.683-74.138-13.484-80.196-39.769s16.855-43.8,16.855-43.8s-10.773-44.482-37.741-105.114
	c-26.968-60.631-18.199-137.48,6.741-183.284C256.909,97.985,295.994,62.955,349.223,66.326z"/>
<polyline fill="#FAD5D5" points="525.674,533.385 338.769,533.385 338.769,313.179 525.674,313.179 "/>
<ellipse fill="#FAD5D5" cx="432.221" cy="533.384" rx="93.453" ry="31.865"/>
<g>
	
		<ellipse transform="matrix(-0.9771 -0.2127 0.2127 -0.9771 1024.4912 738.3643)" fill="#FABEAB" cx="551.963" cy="314.073" rx="52.522" ry="67.076"/>
	<path fill="#F8A488" d="M525.355,308.282c-4.077,18.768,4.51,36.58,19.224,39.791s29.929-9.43,34.028-28.198
		c4.077-18.768-4.51-36.579-19.224-39.791C544.67,276.896,529.432,289.515,525.355,308.282z"/>
</g>
<g>
	
		<ellipse transform="matrix(-0.2127 -0.9771 0.9771 -0.2127 56.7763 690.1125)" fill="#FABEAB" cx="306.413" cy="322.183" rx="67.076" ry="52.522"/>
	<path fill="#F8A488" d="M333.051,316.368c4.077,18.768-4.51,36.579-19.223,39.791c-14.714,3.211-29.929-9.43-34.028-28.198
		c-4.077-18.768,4.51-36.58,19.224-39.791C313.714,284.982,328.951,297.6,333.051,316.368z"/>
</g>
<path fill="#004A6E" d="M574.302,371.351c0,8.564-6.946,15.488-15.488,15.488c-8.563,0-15.488-6.947-15.488-15.488
	c0-8.564,6.947-15.488,15.488-15.488C567.378,355.863,574.302,362.81,574.302,371.351z"/>
<path fill="#004A6E" d="M324.966,380.12c0,8.564-6.947,15.488-15.488,15.488c-8.563,0-15.488-6.947-15.488-15.488
	c0-8.542,6.947-15.488,15.488-15.488C318.041,364.632,324.966,371.556,324.966,380.12z"/>
<path fill="#FCDFD6" d="M340.477,168.069c0,0,67.396,35.03,124.656,31.682c57.284-3.371,92.314-20.226,92.314-20.226
	s21.569,92.314,5.398,157.683c-16.172,65.369-36.397,142.855-120.626,142.855c-84.228,0-128.711-80.857-142.194-142.195
	c-13.483-61.314-12.14-79.513-12.14-79.513c-2.164,2.209,13.529-7.448,35.03-40.429
	C343.985,185.698,340.477,168.069,340.477,168.069z"/>
<polygon opacity="0.13" fill="#4B4B4B" enable-background="new    " points="434.818,330.49 465.589,346.866 464.7,328.462 "/>
<polygon fill="#F79575" points="438.189,268.492 434.818,330.49 479.961,328.462 "/>
<ellipse opacity="0.66" fill="#FABDA9" enable-background="new    " cx="368.448" cy="332.167" rx="27.97" ry="27.97"/>
<ellipse opacity="0.66" fill="#FABDA9" enable-background="new    " cx="516.712" cy="332.199" rx="27.969" ry="27.969"/>
<path fill="#4F97D0" d="M388.763,273.434c0,3.348-2.71,6.059-6.059,6.059c-3.348,0-6.059-2.71-6.059-6.059s2.711-6.059,6.059-6.059
	C386.053,267.353,388.763,270.086,388.763,273.434z"/>
<circle fill="#4F97D0" cx="500.414" cy="269.835" r="6.059"/>
<path fill="#E3C592" d="M342.504,248.494c3.712-5.922,8.177-11.548,13.984-15.875c5.785-4.441,13.074-6.765,20.181-7.516
	c7.197-0.797,14.668,0.091,21.342,2.916c6.582,2.756,12.914,7.243,15.897,13.757c-4.373-5.489-10.591-8.792-16.969-10.819
	c-6.445-1.959-13.188-2.642-19.838-1.822c-6.72,0.638-13.143,2.574-18.905,6.082C352.457,238.677,347.515,243.597,342.504,248.494z"
	/>
<path fill="#E3C592" d="M463.698,244.303c4.031-5.717,8.77-11.092,14.828-15.101c6.013-4.123,13.415-6.059,20.567-6.423
	c7.22-0.41,14.645,0.865,21.159,4.077c6.423,3.098,12.504,7.927,15.146,14.577c-4.077-5.717-10.113-9.361-16.354-11.73
	c-6.332-2.3-13.028-3.348-19.702-2.893c-6.742,0.273-13.279,1.868-19.201,5.057C474.198,235.033,468.983,239.702,463.698,244.303z"
	/>
<path fill="#F79575" d="M390.335,396.359c10.841-1.184,20.476-1.458,29.951-1.822c9.43-0.273,18.54-0.41,27.605-0.501l27.309-0.205
	c9.316,0,18.677-0.137,29.679,0.045c-6.515,5.467-15.898,8.997-25.692,11.457c-9.885,2.392-20.408,3.553-30.886,3.645
	c-10.477,0.091-20.908-0.866-30.816-2.848C407.622,404.035,398.148,401.098,390.335,396.359z"/>
<path opacity="0.29" fill="#F29D9D" enable-background="new    " d="M470.076,233.666c40.041,4.692,77.623-1.139,95.206-7.881
	c-3.348-27.059-7.812-46.259-7.812-46.259s-35.03,16.854-92.313,20.226s-124.657-31.682-124.657-31.682
	C370.36,203.555,433.862,229.43,470.076,233.666z"/>
<path d="M454.816,328.462c0-3.712-3.007-6.742-6.742-6.742c-3.712,0-6.741,3.006-6.741,6.742c0,0.615,0.205,1.162,0.341,1.708
	l12.892-0.569C454.656,329.214,454.816,328.85,454.816,328.462z"/>
<path opacity="0.46" fill="#FABDA9" enable-background="new    " d="M457.412,432.415c0,5.648-4.373,10.25-9.794,10.25
	s-9.794-4.578-9.794-10.25c0-5.648,4.396-10.249,9.794-10.249C453.016,422.166,457.412,426.744,457.412,432.415z"/>
<g opacity="0.18">
	<path fill="#A8BDD1" d="M345.192,124.953c19.063,7.79,38.812,13.552,58.786,18.176c19.998,4.51,40.224,8.108,60.609,9.794
		c10.181,0.888,20.407,1.412,30.543,0.911c10.159-0.524,20.317-2.05,30.452-3.53c20.249-3.211,40.361-7.562,60.404-12.322
		c-19.588,6.377-39.586,11.502-59.857,15.375c-10.136,1.981-20.385,3.417-30.771,4.146c-10.408,0.638-20.795,0.25-31.112-0.547
		c-20.613-2.05-40.998-5.626-60.996-10.819C383.297,140.851,363.595,134.269,345.192,124.953z"/>
</g>
<g opacity="0.18">
	<path fill="#A8BDD1" d="M358.675,100.696c18.244,4.533,36.625,8.245,55.143,11.092c18.518,2.756,37.126,4.942,55.803,5.512
		c18.608,0.433,37.65,0.843,56.327,2.619c18.745,1.617,37.422,3.645,56.03,6.378c0,0-74.958-4.305-84.319-4.556
		c-9.338-0.364-18.677-0.114-28.175-0.433c-18.858-0.911-37.627-3.052-56.167-6.491
		C394.777,111.333,376.441,106.823,358.675,100.696z"/>
</g>
<g opacity="0.18">
	<path fill="#A8BDD1" d="M365.85,77.327c18.472-1.981,37.035-3.325,55.598-4.1c18.586-0.774,37.218-0.797,55.871,0.319
		c9.316,0.751,18.654,1.731,27.856,4.054c9.11,2.392,17.948,5.489,26.534,9.133c17.197,7.243,33.824,15.67,49.79,25.191
		c-16.764-8.018-33.664-15.716-50.929-22.299c-8.678-3.166-17.355-6.309-26.262-8.45c-8.859-2.119-18.062-2.961-27.264-3.599
		c-18.403-1.435-36.966-1.344-55.506-1.252C402.998,76.438,384.436,76.985,365.85,77.327z"/>
</g>
<g opacity="0.18">
	<path fill="#A8BDD1" d="M388.308,56.668c16.422-7.289,33.938-12.117,51.726-15.078c17.789-2.87,35.987-3.849,54.072-2.027
		c9.02,1.071,18.016,2.847,26.603,6.082c8.564,3.28,16.582,7.721,23.938,13.005c14.76,10.5,27.833,23.119,39.085,37.126
		c-12.481-12.846-25.966-24.781-40.815-34.529c-7.471-4.76-15.215-9.156-23.483-12.117c-8.245-2.984-16.991-4.578-25.783-5.512
		c-17.606-2.118-35.509-1.116-53.184,1.071C422.815,46.943,405.322,50.929,388.308,56.668z"/>
</g>
<g opacity="0.18">
	<path fill="#A8BDD1" d="M317.335,95.298c-20.498,6.036-39.243,17.697-52.271,34.301c-13.165,16.468-21.068,36.762-25.146,57.329
		c-3.759,20.75-3.417,42.25-2.392,63.433c0.569,10.637,1.662,21.228,3.279,31.75c1.549,10.523,3.645,21.023,7.334,31.045
		c-8.678-19.679-11.57-41.34-13.711-62.59c-1.686-21.365-2.027-42.979,1.503-64.413c4.532-21.091,12.573-41.909,26.717-58.559
		c7.038-8.268,15.397-15.374,24.713-20.84C296.723,101.425,306.881,97.553,317.335,95.298z"/>
</g>
<g opacity="0.18">
	<path fill="#A8BDD1" d="M317.335,125.841c-12.276,6.537-22.821,15.761-30.885,26.785c-8.086,11.024-14.235,23.415-18.677,36.397
		c-4.76,12.823-7.334,26.421-9.225,40.087c-1.845,13.666-2.824,27.515-3.211,41.386c-1.299-13.849-1.116-27.833,0.113-41.75
		c1.275-13.894,3.895-27.765,8.496-41.089c4.852-13.12,11.138-25.943,20.043-36.921C292.828,139.758,304.33,130.875,317.335,125.841
		z"/>
</g>
<g opacity="0.18">
	<path fill="#A8BDD1" d="M326.765,154.152c-7.015,7.403-11.844,16.263-15.511,25.601c-3.735,9.316-6.946,18.95-11.069,28.38
		c-4.373,9.452-10.522,17.766-16.171,26.057c-5.809,8.313-11.662,16.582-17.902,24.644c4.828-8.951,10.044-17.652,15.306-26.33
		c5.216-8.814,11.229-16.9,15.101-26.034c4.328-9.02,7.471-18.677,11.912-27.947C312.735,169.253,318.612,160.325,326.765,154.152z"
		/>
</g>
<path fill="#E3C592" d="M262.968,432.233c0,0-127.481,134.997-64.208,148.504c63.274,13.506,97.143,76.051,118.575,14.349
	c21.434-61.701,21.434-83.157,21.434-83.157l-42.319-83.066L262.968,432.233z"/>
<path fill="#E3C592" d="M601.27,417.405c0,0,53.936,135.476,42.957,167.546c-10.979,32.069-100.924,10.978-100.924,10.978
	s-24.826-70.471-17.652-120.647C532.871,425.081,601.27,417.405,601.27,417.405z"/>
</svg>
