<?xml version="1.0" encoding="utf-8"?>
<!-- Generator: Adobe Illustrator 24.0.0, SVG Export Plug-In . SVG Version: 6.00 Build 0)  -->
<svg version="1.1" id="Layer_1" xmlns="http://www.w3.org/2000/svg" xmlns:xlink="http://www.w3.org/1999/xlink" x="0px" y="0px"
	 viewBox="0 0 850.4 850.4" style="enable-background:new 0 0 850.4 850.4;" xml:space="preserve">
<style type="text/css">
	.st0{fill:#AF8933;}
	.st1{fill:#0D0E12;}
	.st2{fill:#DADDE5;}
	.st3{fill:#FAD5BD;}
	.st4{fill:#F5A9A9;}
	.st5{fill:#FF9462;}
	.st6{fill:#FFBB9C;}
	.st7{fill:#FCE1CB;}
	.st8{opacity:0.17;fill:#4B4B4B;enable-background:new    ;}
	.st9{opacity:0.65;fill:#FFBB9C;enable-background:new    ;}
	.st10{opacity:0.33;fill:#FFBB9C;enable-background:new    ;}
	.st11{opacity:0.37;fill:#FFBB9C;enable-background:new    ;}
	.st12{fill:#079FAA;}
	.st13{opacity:0.33;fill:#BF8C75;enable-background:new    ;}
	.st14{fill:#FFFFFF;}
	.st15{opacity:0.33;enable-background:new    ;}
	.st16{fill:#BF8C75;}
</style>
<path class="st0" d="M571.7,448.1c-37.3-5.6-68.1-40.5-68.8-78.3c13.1,17.5,35.1,28,57,27c-23.3-8.7-36.6-33.9-40.4-58.5
	c13.3,17.6,38.7,19.1,60.8,19c-23.4-14.2-39.8-39.6-43.1-66.8c1.7,1.8,3.5,3.6,5.2,5.4c-9.5-16.1-31.1-19.5-49.7-20.5
	c-57.9-3.1-116.1-0.2-173.4,8.6c-3.5,0.5-7.1,1.1-10.3,2.7c-7.3,3.6-11.1,11.8-13.5,19.5c-2.4,7.8-4,16.1-9,22.5
	c-5,6.4-14.8,10.1-21.4,5.4c19.6,9.4,45.6,2.3,57.8-15.7c2.5,12.4-0.9,26-9,35.7c-8.1,9.8-20.7,15.6-33.4,15.5
	c9.6,6.2,22.5,6.8,32.7,1.6c10.2-5.2,17.2-16.1,17.7-27.5c0.7,13.7-1.9,27.9-9.1,39.6c-7.2,11.7-19.3,20.7-32.9,22.5
	c26,5.2,54.7-10.3,64.6-34.9c1.7,15.6-5.6,31.2-16.6,42.4s-25.2,18.6-39.7,24.7c13.9,3.5,29.3,0.7,41-7.4c3.3-2.3,6.3-4.9,9.8-6.7
	c4.4-2.2,9.3-2.9,14.2-3.6c21-2.8,42.2-4.3,63.3-4.6c19.9-0.3,45.4-2.7,64.7,2.8c13.2,3.7,21,19.4,34.8,25.8
	C539.5,451.2,556.4,452.9,571.7,448.1z"/>
<path class="st1" d="M816.9,858.3l-784.6-5.9C33,742.2,15.1,506.8,199.9,506.8l451.8,3.3C842.5,510.1,817.6,748.1,816.9,858.3z"/>
<g>
	<rect x="577.5" y="681.8" class="st2" width="7.6" height="21.8"/>
	<path class="st2" d="M581.3,675.4c-1.8,0-3.7,0-5.5,0c0-1.8,0-3.6,0-5.3c0-3,2.4-5.3,5.5-5.3c3,0,5.5,2.3,5.5,5.3
		C586.7,673.1,584.3,675.4,581.3,675.4z"/>
	<path class="st2" d="M570.2,675.4c1.9,0,3.7,0,5.5,0c0,1.8,0,3.6,0,5.3c0,3-2.4,5.3-5.5,5.3c-3,0-5.5-2.3-5.5-5.3
		C564.8,677.7,567.2,675.4,570.2,675.4z"/>
	<path class="st2" d="M635.4,693.7c-1.5,2.1-4,3.5-6.8,3.5c-4.2,0-7.4-3.3-7.4-7.7c0-4.1,2.8-7.7,7.3-7.7c2.9,0,5.4,1.4,7,3.5
		C635.4,688.1,635.4,690.9,635.4,693.7z M642.9,675.4c-2.4,0-4.8,0-7.3,0c0,0.8,0,1.5,0,2.3c-2.2-1.8-5.1-2.8-8.3-2.8
		c-7.7,0-13.8,6.4-13.8,14.7c0,3.8,1.4,7.3,3.6,9.9c2.5,2.9,6.4,4.8,10.6,4.8c2.8,0,5.5-0.9,7.8-2.8c0,0.8,0,1.5,0,2.3
		c2.4,0,4.8,0,7.3,0C642.9,694.2,642.9,684.8,642.9,675.4z"/>
	<path class="st2" d="M611.2,668.7c-0.6-0.2-1.6-0.3-2.3-0.3c-1.9,0-3.3,0.5-4.2,1.6c-0.6,0.8-1,1.9-1,4.5c0,0.3,0,0.6,0,0.9
		c2.9,0,5.8,0,8.7,0c0,2.1,0,4.3,0,6.4c-2.9,0-5.8,0-8.7,0c0,7.3,0,14.5,0,21.8c-2.5,0-5,0-7.6,0c0-7.3,0-14.5,0-21.8
		c-2.4,0-4.8,0-7.3,0c0-2.1,0-4.3,0-6.4c2.4,0,4.8,0,7.3,0c0-0.4,0-0.8,0-1.2c0-4.5,1-7.3,3-9.2s4.9-3.3,8.8-3.3
		c1.5,0,2.9,0.1,4.5,0.5C612,664.4,611.6,666.6,611.2,668.7z"/>
	<path class="st2" d="M531.5,685.9c0.3-2.6,2.9-4.9,6-4.9c3.1,0,5.3,2.4,5.6,4.9C539.2,685.9,535.3,685.9,531.5,685.9z M545.8,694.8
		c-1.3,1.5-3.9,3.3-7.1,3.3c-4,0-7.2-2.7-7.6-6.7c6.5,0,13,0,19.5,0c0.1-0.6,0.2-1.4,0.2-2.1c0-7.8-5.5-14.4-13.3-14.4
		c-8.4,0-13.7,6.9-13.7,14.7c0,8.8,6.3,14.6,14.8,14.6c4.4,0,8.8-1.8,11.6-5.1C548.7,697.7,547.2,696.2,545.8,694.8z"/>
	<polygon class="st2" points="508.2,692.6 515.9,675.4 523.8,675.4 510.8,703.6 505.6,703.6 492.6,675.4 500.5,675.4 	"/>
	<rect x="555.5" y="675.4" class="st2" width="7.6" height="28.2"/>
</g>
<polyline class="st3" points="517.2,515.8 341.8,515.8 341.8,326.2 517.2,326.2 "/>
<ellipse class="st3" cx="429.5" cy="515.8" rx="87.7" ry="29.9"/>
<path class="st4" d="M431.8,423.2c-1,0-1.6-0.8-1.6-1.6v-35.8c0-1,0.8-1.6,1.6-1.6c1,0,1.6,0.8,1.6,1.6v35.8
	C433.6,422.6,432.8,423.2,431.8,423.2z"/>
<path class="st5" d="M318.5,278.3c0,18.3-8.4,33.1-18.8,33.1c-10.3,0-18.7-14.9-18.7-33.1c0-18.3,8.4-33.1,18.8-33.1
	C310.2,245.2,318.6,260,318.5,278.3z"/>
<path class="st6" d="M586.1,274.3c-0.1,35.2-16.3,63.8-36.2,63.8c-19.9,0-36.1-28.6-36-63.9c0.1-35.2,16.3-63.8,36.2-63.8
	C570,210.5,586.2,239.1,586.1,274.3z"/>
<path class="st5" d="M568.7,274.3c0,18.3-8.4,33.1-18.8,33.1c-10.3,0-18.7-14.9-18.7-33.1c0-18.3,8.4-33.1,18.8-33.1
	C560.4,241.2,568.8,256,568.7,274.3z"/>
<path class="st7" d="M315.8,91.2c-27,40.8-36.7,77.8-33.7,119.9c1.8,25.3,4.1,118.9,27.4,161.5c9,50.5,69.4,96.9,86.8,100.7
	c17.4,3.8,56.9,4.8,74.8-2.3c17.9-7.1,57.3-39.6,72.5-97.6c15.7-33,24.6-92.1,26.2-131.2c1.6-39.1,5.6-97.6-18.2-138.4
	C527.7,63,485.8,34.7,428.3,35.5C370.8,36.3,329.5,70.7,315.8,91.2z"/>
<path class="st8" d="M408.7,317.7l33,20.6c0.5,0.3,1.3,0.1,1.4-0.3l4.6-21.1L408.7,317.7z"/>
<polygon class="st9" points="420.3,192.5 408.7,317.8 453.1,317.1 "/>
<path class="st9" d="M433.3,317.7c0.2-4.2-2.9-7.7-6.9-7.8c-4-0.2-7.3,3.1-7.5,7.2c0,0.5,0,0.9,0.1,1.3l14.2-0.2
	C433.2,318.1,433.3,317.9,433.3,317.7z"/>
<ellipse class="st10" cx="346" cy="312.3" rx="24.9" ry="26.1"/>
<ellipse class="st10" cx="431.8" cy="425.9" rx="39.2" ry="8.5"/>
<ellipse class="st10" cx="508.4" cy="312.2" rx="24.9" ry="26.1"/>
<path class="st0" d="M316.1,211.1c7.6-9.7,20.6-17.2,34.7-21.4c14.1-4.1,29.4-5.1,42.8-2.5l6.4,14.1c-13.3,1.3-30.2,1.5-46.4-2.3
	C341.1,201.5,329,205.6,316.1,211.1z"/>
<path class="st0" d="M537,211.1c-7.6-9.7-20.6-17.2-34.7-21.4c-14.1-4.1-29.4-5.1-42.8-2.5l-6.4,14.1c13.3,1.3,30.2,1.5,46.4-2.3
	C512,201.5,524,205.6,537,211.1z"/>
<path class="st11" d="M331.8,254.9c0,0,1.7-5.5,38.8-5.5c37.1,0,37.5,5.5,37.5,5.5s-10.5,2.7-36,2.7
	C346.6,257.7,331.8,254.9,331.8,254.9z"/>
<path class="st11" d="M450.1,252.4c0,0,1.6-4.3,37.2-4.3s35.9,4.3,35.9,4.3s-10,2.1-34.5,2.1C464.2,254.5,450.1,252.4,450.1,252.4z"
	/>
<path class="st10" d="M304.7,175.7c0,0-0.1-56.9,62.9-76.2c94.8-29.1,189.5-25.3,137.5-51.9c-52-26.6-192.3,5.4-192.3,5.4
	L304.7,175.7z"/>
<circle class="st12" cx="361.4" cy="245.6" r="5.5"/>
<circle class="st12" cx="493.4" cy="245.6" r="5.5"/>
<path class="st13" d="M480.9,159.7c-6.2,0-8.5-2.7-10.4-5c-1.8-2.1-3.2-3.8-7.8-3.8s-6.1,1.8-7.8,3.8c-1.9,2.4-4.2,5-10.4,5
	s-8.5-2.7-10.4-5c-1.8-2.1-3.2-3.8-7.8-3.8s-6.1,1.8-7.8,3.8c-1.9,2.4-4.2,5-10.4,5c-6.2,0-8.5-2.7-10.4-5c-1.8-2.1-3.2-3.8-7.8-3.8
	c-4.6,0-6.1,1.8-7.8,3.8c-1.9,2.4-4.2,5-10.4,5c-1,0-1.6-0.8-1.6-1.6c0-1,0.8-1.6,1.6-1.6c4.6,0,6.1-1.8,7.8-3.8
	c1.9-2.4,4.2-5,10.4-5s8.5,2.7,10.4,5c1.8,2.1,3.2,3.8,7.8,3.8s6.1-1.8,7.8-3.8c1.9-2.4,4.2-5,10.4-5s8.5,2.7,10.4,5
	c1.8,2.1,3.2,3.8,7.8,3.8s6.1-1.6,7.8-3.8c1.9-2.4,4.2-5,10.4-5s8.5,2.7,10.4,5c1.8,2.1,3.2,3.8,7.8,3.8c1,0,1.6,0.8,1.6,1.6
	C482.4,158.9,481.8,159.7,480.9,159.7z"/>
<path class="st13" d="M480.9,142c-6.2,0-8.5-2.7-10.4-5c-1.8-2.1-3.2-3.8-7.8-3.8s-6.1,1.6-7.8,3.8c-1.9,2.4-4.2,5-10.4,5
	s-8.5-2.7-10.4-5c-1.8-2.1-3.2-3.8-7.8-3.8s-6.1,1.8-7.8,3.8c-1.9,2.4-4.2,5-10.4,5c-6.2,0-8.5-2.7-10.4-5c-1.8-2.1-3.2-3.8-7.8-3.8
	c-4.6,0-6.1,1.8-7.8,3.8c-1.9,2.4-4.2,5-10.4,5c-1,0-1.6-0.8-1.6-1.6c0-1,0.8-1.6,1.6-1.6c4.6,0,6.1-1.8,7.8-3.8
	c1.9-2.4,4.2-5,10.4-5s8.5,2.7,10.4,5c1.8,2.1,3.2,3.8,7.8,3.8s6.1-1.8,7.8-3.8c1.9-2.4,4.2-5,10.4-5s8.5,2.7,10.4,5
	c1.8,2.1,3.2,3.8,7.8,3.8s6.1-1.8,7.8-3.8c1.9-2.4,4.2-5,10.4-5s8.5,2.7,10.4,5c1.8,2.1,3.2,3.8,7.8,3.8c1,0,1.6,0.8,1.6,1.6
	C482.4,141.2,481.8,142,480.9,142z"/>
<path class="st14" d="M484.3,374.2c0.2,7.9-16.7,21.5-52.5,21.6c-35.8,0.1-57.5-25.5-57.7-33.4c-0.2-7.9,22.4,6.7,58.1,6.7
	C467.9,369,484.1,366.3,484.3,374.2z"/>
<g class="st15">
	<path class="st16" d="M358.7,375.4c-5.9-6.5-13.9-15.3,2.6-32.3c0.8-0.8,2-0.8,2.8,0c0.8,0.8,0.8,2,0,2.8
		c-13.9,14.2-8.1,20.6-2.5,26.8L358.7,375.4z"/>
</g>
<path class="st0" d="M299.8,298.7c0-53.5-17.2-116.6,0-156.7c26.4-61.6,61.8-89.4,128.3-88.6c69.9,0.8,75.9,23.8,91.8,39.2
	c24.4,23.7,28.5,42.9,30.9,67.2s6,59.9,5.2,91.5s-0.1,56.2-0.1,56.2h8.9c0,0,5.1-30.8,5.5-78c0.4-47.3,29.4-33.8,0-121.2
	c-19.5-57.9-50.4-89.8-144-86.8s-131,69.6-145.2,108.6c-14.2,39-12.2,59-8.3,87.9c4,28.9,14,105.1,15,106.4S299.8,298.7,299.8,298.7
	z"/>
<path class="st0" d="M436,28.8c-17.5-9-38.2-10.3-57.7-7.1c-19.4,3.2-37.9,10.6-56,18.4c-7.7,3.3-14.4,10.1-20.6,15.8
	c-8.5,7.8-14.2,15.7-17.7,26.7c-23.9,75-7.7,156-0.8,234.4c0.9,10.3,1.7,20.8-0.3,31c-5.1,26.9-29.1,47.6-55.6,54.3
	c15.1,7.1,33.8-0.3,44.7-12.9c10.9-12.6,15.7-29.2,19.7-45.3c3.8-15.1,7.3-30.3,8-45.9c0.6-11.8-0.4-23.6-1.2-35.4
	c-2-28.9-2.9-58.2,1.9-86.8c4.8-28.6,11.7-66.3,31.1-87.9c13.2-14.6,30.6-21.9,47.9-31.3c8.9-4.9,21.7-3.7,28.4-11.3
	s15.1-10.6,10-19.3"/>
<path class="st0" d="M569.7,153.3c3.8,29.1,0.4,58.6-0.8,88c-0.8,18.8-0.7,37.7,0.3,56.5c0.8,15.6,2.2,31.4,8.2,45.8
	c6,14.4,17.2,27.4,32,32c-7.1,3.2-15.5-0.6-21.6-5.5c-19.7-15.9-27.1-42.9-27.2-68.2c-0.1-25.3,5.8-50.3,7.4-75.6
	c4.2-67.6-24.7-136.5-75.9-180.9c0,0,15.4-1.7,18-1.1c4.2,1.1,7.5,2.5,10.8,5.2c7.9,6.7,14.7,18.4,20.3,27
	C556.3,99.6,566.2,126,569.7,153.3z"/>
<path class="st0" d="M309.4,270c0.7,59.8-14.9,122.1-47.7,158.3c5.8-26.3,11.1-52.9,15.7-79.7c2.6-15.2,5.1-30.6,4.9-46.3
	c-0.1-16.9-3.2-33.5-4.5-50.4c-1.4-18.6-0.4-37.3,0.5-55.9c1.7-33.5,2.3-67.5,5-100.8c3.2-39.3,17.4-5.2,17.4,16.9
	c0,21.7-3.2,39.7-0.5,61.9C304.2,205.9,309.1,237.5,309.4,270z"/>
<path class="st0" d="M536,285.3c-0.7,59.8,14.9,122.1,47.7,158.3c-5.8-26.3-11.1-52.9-15.7-79.7c-2.6-15.2-5.1-30.6-4.9-46.3
	c0.1-16.9,3.2-33.5,4.5-50.4c1.4-18.6,0.4-37.3-0.5-55.9c-1.7-33.5-2.3-67.5-5-100.8c-3.2-39.3-17.4-5.2-17.4,16.9
	c0,21.7,3.2,39.7,0.5,61.9C541.2,221.3,536.3,252.8,536,285.3z"/>
</svg>
