<?xml version="1.0" encoding="utf-8"?>
<!-- Generator: Adobe Illustrator 24.0.0, SVG Export Plug-In . SVG Version: 6.00 Build 0)  -->
<svg version="1.1" id="Layer_1" xmlns="http://www.w3.org/2000/svg" xmlns:xlink="http://www.w3.org/1999/xlink" x="0px" y="0px"
	 viewBox="0 0 850.4 850.4" style="enable-background:new 0 0 850.4 850.4;" xml:space="preserve">
<style type="text/css">
	.st0{fill:#4F3323;}
	.st1{fill:#FAD5BD;}
	.st2{fill:#0D0E12;}
	.st3{fill:#DADDE5;}
	.st4{fill:#F5A9A9;}
	.st5{fill:#FFBB9C;}
	.st6{fill:#FF9462;}
	.st7{fill:#FCE1CB;}
	.st8{opacity:0.65;fill:#FFBB9C;enable-background:new    ;}
	.st9{fill:#573D2E;}
	.st10{opacity:0.33;fill:#FFBB9C;enable-background:new    ;}
	.st11{opacity:0.37;fill:#FFBB9C;enable-background:new    ;}
	.st12{fill:#604D46;}
	.st13{opacity:0.37;fill:#F8B99D;enable-background:new    ;}
	.st14{fill:#FFFFFF;}
</style>
<ellipse class="st0" cx="428.4" cy="201.4" rx="172.3" ry="179.1"/>
<polyline class="st1" points="545.4,528.7 313.6,528.7 313.6,255.5 545.4,255.5 "/>
<path class="st2" d="M816.9,858.3l-784.6-5.9C33,742.2,15.1,506.8,199.9,506.8l451.8,3.3C842.5,510.1,817.6,748.1,816.9,858.3z"/>
<g>
	<rect x="577.5" y="681.8" class="st3" width="7.6" height="21.8"/>
	<path class="st3" d="M581.3,675.4c-1.8,0-3.7,0-5.5,0c0-1.8,0-3.6,0-5.3c0-3,2.4-5.3,5.5-5.3c3,0,5.5,2.3,5.5,5.3
		C586.7,673.1,584.3,675.4,581.3,675.4z"/>
	<path class="st3" d="M570.2,675.4c1.9,0,3.7,0,5.5,0c0,1.8,0,3.6,0,5.3c0,3-2.4,5.3-5.5,5.3c-3,0-5.5-2.3-5.5-5.3
		C564.8,677.7,567.2,675.4,570.2,675.4z"/>
	<path class="st3" d="M635.4,693.7c-1.5,2.1-4,3.5-6.8,3.5c-4.2,0-7.4-3.3-7.4-7.7c0-4.1,2.8-7.7,7.3-7.7c2.9,0,5.4,1.4,7,3.5
		C635.4,688.1,635.4,690.9,635.4,693.7z M642.9,675.4c-2.4,0-4.8,0-7.3,0c0,0.8,0,1.5,0,2.3c-2.2-1.8-5.1-2.8-8.3-2.8
		c-7.7,0-13.8,6.4-13.8,14.7c0,3.8,1.4,7.3,3.6,9.9c2.5,2.9,6.4,4.8,10.6,4.8c2.8,0,5.5-0.9,7.8-2.8c0,0.8,0,1.5,0,2.3
		c2.4,0,4.8,0,7.3,0C642.9,694.2,642.9,684.8,642.9,675.4z"/>
	<path class="st3" d="M611.2,668.7c-0.6-0.2-1.6-0.3-2.3-0.3c-1.9,0-3.3,0.5-4.2,1.6c-0.6,0.8-1,1.9-1,4.5c0,0.3,0,0.6,0,0.9
		c2.9,0,5.8,0,8.7,0c0,2.1,0,4.3,0,6.4c-2.9,0-5.8,0-8.7,0c0,7.3,0,14.5,0,21.8c-2.5,0-5,0-7.6,0c0-7.3,0-14.5,0-21.8
		c-2.4,0-4.8,0-7.3,0c0-2.1,0-4.3,0-6.4c2.4,0,4.8,0,7.3,0c0-0.4,0-0.8,0-1.2c0-4.5,1-7.3,3-9.2s4.9-3.3,8.8-3.3
		c1.5,0,2.9,0.1,4.5,0.5C612,664.4,611.6,666.6,611.2,668.7z"/>
	<path class="st3" d="M531.5,685.9c0.3-2.6,2.9-4.9,6-4.9s5.3,2.4,5.6,4.9C539.2,685.9,535.3,685.9,531.5,685.9z M545.8,694.8
		c-1.3,1.5-3.9,3.3-7.1,3.3c-4,0-7.2-2.7-7.6-6.7c6.5,0,13,0,19.5,0c0.1-0.6,0.2-1.4,0.2-2.1c0-7.8-5.5-14.4-13.3-14.4
		c-8.4,0-13.7,6.9-13.7,14.7c0,8.8,6.3,14.6,14.8,14.6c4.4,0,8.8-1.8,11.6-5.1C548.7,697.7,547.2,696.2,545.8,694.8z"/>
	<polygon class="st3" points="508.2,692.6 515.9,675.4 523.8,675.4 510.8,703.6 505.6,703.6 492.6,675.4 500.5,675.4 	"/>
	<rect x="555.5" y="675.4" class="st3" width="7.6" height="28.2"/>
</g>
<ellipse class="st1" cx="429.5" cy="506.2" rx="115.9" ry="39.5"/>
<path class="st4" d="M431.8,423.2c-1,0-1.6-0.8-1.6-1.6v-35.8c0-1,0.8-1.6,1.6-1.6c1,0,1.6,0.8,1.6,1.6v35.8
	C433.6,422.6,432.8,423.2,431.8,423.2z"/>
<path class="st5" d="M335.9,278.3c-0.1,35.2-16.3,63.8-36.2,63.8c-19.9,0-36.1-28.6-36-63.9c0.1-35.2,16.3-63.8,36.2-63.8
	C319.9,214.5,336,243.1,335.9,278.3z"/>
<path class="st6" d="M318.5,278.3c0,18.3-8.4,33.1-18.8,33.1c-10.3,0-18.7-14.9-18.7-33.1c0-18.3,8.4-33.1,18.8-33.1
	C310.2,245.2,318.6,260,318.5,278.3z"/>
<path class="st5" d="M592.1,274.3c-0.1,35.2-16.3,63.8-36.2,63.8s-36.1-28.6-36-63.9c0.1-35.2,16.3-63.8,36.2-63.8
	C576,210.5,592.2,239.1,592.1,274.3z"/>
<path class="st6" d="M574.7,274.3c0,18.3-8.4,33.1-18.8,33.1c-10.3,0-18.7-14.9-18.7-33.1c0-18.3,8.4-33.1,18.8-33.1
	C566.4,241.2,574.8,256,574.7,274.3z"/>
<path class="st7" d="M314.7,93.5c-27,43.7-36.7,83.4-33.7,128.6c1.8,27.1,4.1,127.5,27.4,173.2c18.9,36.9,68.8,73.2,86.2,77.3
	c17.4,4.1,63.2,5.4,81.1-2.2s51-38.9,66.7-74.3s24.6-98.8,26.2-140.7s5.6-104.6-18.2-148.4s-65.8-74.1-123.2-73.2
	C369.7,34.6,328.4,71.4,314.7,93.5z"/>
<polygon class="st8" points="430,214.4 402.7,322.3 461.4,321.1 "/>
<path class="st9" d="M374.3,243.6c-0.1,3.3-2.8,5.9-5.9,5.7c-3.1-0.1-5.6-2.9-5.4-6.2s2.8-5.9,5.9-5.7S374.4,240.3,374.3,243.6z"/>
<path class="st9" d="M492.4,243c-0.1,3.3-2.8,5.9-5.9,5.7c-3.1-0.1-5.6-2.9-5.4-6.2s2.8-5.9,5.9-5.7
	C490.1,236.9,492.5,239.7,492.4,243z"/>
<ellipse class="st10" cx="358" cy="311.3" rx="32.9" ry="34.6"/>
<ellipse class="st10" cx="503.4" cy="313.6" rx="32.9" ry="34.6"/>
<path class="st11" d="M318.8,254.9c0,0,1.9-5.5,43.3-5.5s41.8,5.5,41.8,5.5s-11.7,2.7-40.2,2.7C335.3,257.7,318.8,254.9,318.8,254.9
	z"/>
<path class="st11" d="M450.8,252.4c0,0,1.8-4.3,41.5-4.3s40.1,4.3,40.1,4.3s-11.2,2.1-38.5,2.1S450.8,252.4,450.8,252.4z"/>
<path class="st7" d="M430.2,368.5c39,0,72.1-1,72.5,17.4c0.7,34.5-33.4,51.1-72.5,51.1s-68.9-18-68.9-51.1
	C361.3,367.5,391.2,368.5,430.2,368.5z"/>
<path class="st12" d="M539.2,210.2c-4-4.5-9.2-8-14.9-10.8s-12.2-4.7-18.7-5.7c-6.6-1-13.3-1.1-19.9-0.3s-13,2.4-18.7,5l2.4,7.1
	c6.1-0.4,11.8-1.1,17.6-1.4c5.7-0.3,11.5-0.4,17.2-0.1c5.7,0.3,11.5,0.9,17.2,2C527.3,207,533,208.5,539.2,210.2z"/>
<path class="st0" d="M395.6,200.8c-6.2-3-13-5.4-20.3-7s-15.3-2-22.9-1s-14.8,3.2-21.3,6.3s-12.3,7-17.4,11.5c7-1.7,13.7-3.6,20.2-5
	c6.7-1.4,13.1-2.2,19.5-2.4s12.6,0.3,19.1,1.4c6.4,1.1,12.9,2.6,19.9,3.8L395.6,200.8z"/>
<path class="st13" d="M485.8,161.9H373.6c-1.4,0-2.5-1.1-2.5-2.5s1.1-2.5,2.5-2.5h112.1c1.4,0,2.5,1.1,2.5,2.5
	C488.3,160.8,487.2,161.9,485.8,161.9z"/>
<path class="st13" d="M485.8,147.9H373.6c-1.4,0-2.5-1.1-2.5-2.5s1.1-2.5,2.5-2.5h112.1c1.4,0,2.5,1.1,2.5,2.5
	C488.3,146.7,487.2,147.9,485.8,147.9z"/>
<path class="st13" d="M485.8,161.9H373.6c-1.4,0-2.5-1.1-2.5-2.5s1.1-2.5,2.5-2.5h112.1c1.4,0,2.5,1.1,2.5,2.5
	C488.3,160.8,487.2,161.9,485.8,161.9z"/>
<path class="st13" d="M485.8,147.9H373.6c-1.4,0-2.5-1.1-2.5-2.5s1.1-2.5,2.5-2.5h112.1c1.4,0,2.5,1.1,2.5,2.5
	C488.3,146.7,487.2,147.9,485.8,147.9z"/>
<path class="st14" d="M485.4,389.2c0.2,7.9-17.9,25.5-53.6,25.7c-35.8,0.1-54-17.5-54.2-25.4s18.9-1.2,54.6-1.3
	C467.9,388.1,485.1,381.3,485.4,389.2z"/>
<path class="st0" d="M345,373c6.2-9.2,14.8-14.1,19.9-17.1c19.2-10.8,44.3-13.9,58.9-6.6c10.4,5.1,6.3,15.6-7,20.1
	c-22.2,7.6-40.8-3.6-58.7,4.4c-6.9,3.2-12.1,7.7-12.1,7.7"/>
<path class="st0" d="M513.3,380.4c0,0-5.2-4.5-12.1-7.7c-17.8-8-36.5,3.1-58.7-4.4c-13.3-4.5-17.4-15-7-20.1
	c14.6-7.3,39.7-4.2,58.9,6.6c5.1,2.9,13.7,7.8,19.9,17.1"/>
<g>
	<path class="st0" d="M430.6,478.2c-38.1-0.1-48.1-9.5-62.7-24.9c-16.2-17-16.7-21.1-16.7-21.1s13,4.5,29.5,12.3
		c21.6,10.1,18.4-13.8,49.2-14.5"/>
	<path class="st0" d="M430.4,478.2c38.1-0.1,48.1-9.5,62.7-24.9c16.2-17,16.7-21.1,16.7-21.1s-13,4.5-29.5,12.3
		c-21.6,10.1-19.6-13.8-50.5-14.5"/>
</g>
<path class="st0" d="M428.4,22.3c20.6-12.7,75-19.9,103.5-5.7c38.4,19.2,62.7,50.1,61.8,83.3c-0.9,33.2-10.1,69.1-18.4,85.7
	c-8.3,16.6,0.9-25.8-16.6-59.9S501.5,59.3,475.7,51s-48.5-17.2-48.5-17.2L428.4,22.3z"/>
<path class="st0" d="M443,28.8c14-9.3,44.5-14.6,63.2-3.2C525,37,555.5,61.2,554.9,85.4c-0.6,24.2-6.9,50.4-12.5,62.5
	s0.6-18.8-11.2-43.6s-38.7-48.3-56.1-54.4s-32.8-12.6-32.8-12.6L443,28.8z"/>
<path class="st0" d="M440.5,19.5c-20.6-12.7-70.9-17.9-100-5.2c-42.2,18.4-66.1,49.6-65.2,82.8c0.9,33.2,10.1,69.1,18.4,85.7
	c8.3,16.6-0.9-25.8,16.6-59.9s57.1-66.3,82.9-74.6C418.9,40,441.6,31,441.6,31L440.5,19.5z"/>
<path class="st0" d="M419.3,26.1c-14-9.3-44.5-14.6-63.2-3.2c-18.7,11.4-49.3,35.6-48.7,59.8c0.6,24.2,6.9,50.4,12.5,62.5
	c5.6,12.1-0.6-18.8,11.2-43.6s38.7-48.3,56.1-54.4s32.8-12.6,32.8-12.6L419.3,26.1z"/>
<path class="st0" d="M506.5,54.2c3.9,1,7.8,2.1,10.7,3.9c4.2,2.5,6,6,8.2,9.3c3,4.6,7,9,9.2,13.8c6.7,14.3-2.8,29.5-15.8,42.3
	c-7.4-20.1-31.4-37.8-63-46.3c-8.8-2.4-18.6-4.3-24.5-8.9c-6.1-4.8-5.9-12,0.3-16.7C447.9,39.2,488.3,49.4,506.5,54.2z"/>
<path class="st0" d="M357.1,50.2c-3.9,1.1-7.7,2.2-10.7,4c-4.2,2.6-6,6.1-8.1,9.4c-3,4.6-6.9,9.1-9.1,13.9
	c-6.6,14.4,3.2,29.5,16.3,42.1c7.1-20.2,31-38.1,62.4-47.1c8.8-2.5,18.6-4.6,24.4-9.2c6-4.9,5.8-12.1-0.5-16.7
	C415.5,34.6,375.3,45.3,357.1,50.2z"/>
<path class="st0" d="M600.2,147.6c6.6,10.7,16,20.2,27.9,24.3c-15,1.7-30.7-5-39.9-16.9c-0.3,9.1,4.5,17.9,11.2,24.2
	c6.6,6.3,15,10.4,23.4,14c-10.9,4.9-24,4.3-34.4-1.6c3,7.4,6,14.9,10.7,21.4c4.7,6.5,11.3,11.9,19.1,13.6
	c-5.5,3.1-12.6,2.2-18.2-0.7c-5.6-2.9-10.1-7.5-14.5-12.1c3,10.9,7.1,23.1,17.4,28c-4.1,0.3-7.9-2.2-10.4-5.5
	c-2.4-3.3-3.6-7.3-4.7-11.2c-4.9-17.8-7.5-36.2-8-54.7c-0.2-9.4,0.1-18.9,1-28.3c0.5-5.4,0.2-21.9,5.6-24.4c3.1,3.3,4.2,10.3,6,14.7
	C594.7,137.5,597.1,142.7,600.2,147.6z"/>
<path class="st0" d="M266.4,134.7c-8.5,9.3-19.5,16.8-32,18.6c14.4,4.4,31.1,0.8,42.4-9.2c-1.4,9-7.8,16.7-15.5,21.7
	s-16.7,7.4-25.6,9.3c9.8,6.8,22.8,8.7,34.1,4.8c-4.3,6.7-8.7,13.5-14.5,19s-13.3,9.6-21.3,9.7c4.8,4.1,11.9,4.5,18,2.7
	s11.3-5.5,16.5-9.2c-5,10.2-11.3,21.4-22.3,24.2c3.9,1,8.2-0.7,11.2-3.5c3-2.8,4.9-6.5,6.7-10.1c8.1-16.6,14.2-34.2,18.1-52.2
	c2-9.2,3.4-18.6,4.3-28c0.5-5.4,3.9-21.6-1-25c-3.6,2.7-6,9.4-8.6,13.3C273.7,125.7,270.3,130.4,266.4,134.7z"/>
<ellipse class="st0" cx="430.1" cy="45.2" rx="49" ry="14.3"/>
</svg>
