<?xml version="1.0" encoding="utf-8"?>
<!-- Generator: Adobe Illustrator 16.0.0, SVG Export Plug-In . SVG Version: 6.00 Build 0)  -->
<svg version="1.1" id="Livello_1" xmlns="http://www.w3.org/2000/svg" xmlns:xlink="http://www.w3.org/1999/xlink" x="0px" y="0px" width="529.645px" height="381.277px" viewBox="0 0 529.645 381.277" enable-background="new 0 0 529.645 381.277" xml:space="preserve">
	<g>
		<path fill="#0D0E12" d="M476.912,104.688c-18.162,0-36.332,0-54.5,0c0-17.445,0-34.888,0-52.334
		C422.412,22.697,446.369,0,476.035,0c29.643,0,53.609,22.697,53.609,52.354C529.645,81.701,506.15,104.246,476.912,104.688z" />
		<path fill="#0D0E12" d="M367.611,104.529c18.169,0,36.332,0,54.5,0c0,17.446,0,34.889,0,52.335
		c0,29.646-23.959,52.353-53.621,52.353c-29.64,0-53.611-22.706-53.611-52.353C314.879,127.516,338.375,104.972,367.611,104.529z" />
		<polygon fill="#0D0E12" points="152.907,273.434 228.8,104.543 305.822,104.543 178.584,381.277 127.229,381.277 0,104.543 
		77.022,104.543 	" />
	</g>
</svg>