<?xml version="1.0" encoding="utf-8"?>
<!-- Generator: Adobe Illustrator 24.0.0, SVG Export Plug-In . SVG Version: 6.00 Build 0)  -->
<svg version="1.1" id="Layer_1" xmlns="http://www.w3.org/2000/svg" xmlns:xlink="http://www.w3.org/1999/xlink" x="0px" y="0px"
	 viewBox="0 0 850.4 850.4" style="enable-background:new 0 0 850.4 850.4;" xml:space="preserve">
<style type="text/css">
	.st0{fill:#0D0E12;}
	.st1{fill:#DADDE5;}
	.st2{fill:#FAD5BD;}
	.st3{fill:#F5A9A9;}
	.st4{fill:#FFBB9C;}
	.st5{fill:#FF9462;}
	.st6{fill:#FCE1CB;}
	.st7{opacity:0.17;fill:#4B4B4B;enable-background:new    ;}
	.st8{opacity:0.65;fill:#FFBB9C;enable-background:new    ;}
	.st9{fill:#A37D5B;}
	.st10{opacity:0.33;fill:#FFBB9C;enable-background:new    ;}
	.st11{opacity:0.37;fill:#FFBB9C;enable-background:new    ;}
	.st12{fill:#FFFFFF;}
	.st13{opacity:0.47;fill:#F8B99D;enable-background:new    ;}
	
		.st14{opacity:0.37;fill:none;stroke:#F8B99D;stroke-width:4;stroke-linecap:round;stroke-miterlimit:10;enable-background:new    ;}
</style>
<path class="st0" d="M816.9,858.3l-784.6-5.9C33,742.2,15.1,506.8,199.9,506.8l451.8,3.3C842.5,510.1,817.6,748.1,816.9,858.3z"/>
<g>
	<rect x="577.5" y="681.8" class="st1" width="7.6" height="21.8"/>
	<path class="st1" d="M581.3,675.4c-1.8,0-3.7,0-5.5,0c0-1.8,0-3.6,0-5.3c0-3,2.4-5.3,5.5-5.3c3,0,5.5,2.3,5.5,5.3
		C586.7,673.1,584.3,675.4,581.3,675.4z"/>
	<path class="st1" d="M570.2,675.4c1.9,0,3.7,0,5.5,0c0,1.8,0,3.6,0,5.3c0,3-2.4,5.3-5.5,5.3c-3,0-5.5-2.3-5.5-5.3
		C564.8,677.7,567.2,675.4,570.2,675.4z"/>
	<path class="st1" d="M635.4,693.7c-1.5,2.1-4,3.5-6.8,3.5c-4.2,0-7.4-3.3-7.4-7.7c0-4.1,2.8-7.7,7.3-7.7c2.9,0,5.4,1.4,7,3.5
		C635.4,688.1,635.4,690.9,635.4,693.7z M642.9,675.4c-2.4,0-4.8,0-7.3,0c0,0.8,0,1.5,0,2.3c-2.2-1.8-5.1-2.8-8.3-2.8
		c-7.7,0-13.8,6.4-13.8,14.7c0,3.8,1.4,7.3,3.6,9.9c2.5,2.9,6.4,4.8,10.6,4.8c2.8,0,5.5-0.9,7.8-2.8c0,0.8,0,1.5,0,2.3
		c2.4,0,4.8,0,7.3,0C642.9,694.2,642.9,684.8,642.9,675.4z"/>
	<path class="st1" d="M611.2,668.7c-0.6-0.2-1.6-0.3-2.3-0.3c-1.9,0-3.3,0.5-4.2,1.6c-0.6,0.8-1,1.9-1,4.5c0,0.3,0,0.6,0,0.9
		c2.9,0,5.8,0,8.7,0c0,2.1,0,4.3,0,6.4c-2.9,0-5.8,0-8.7,0c0,7.3,0,14.5,0,21.8c-2.5,0-5,0-7.6,0c0-7.3,0-14.5,0-21.8
		c-2.4,0-4.8,0-7.3,0c0-2.1,0-4.3,0-6.4c2.4,0,4.8,0,7.3,0c0-0.4,0-0.8,0-1.2c0-4.5,1-7.3,3-9.2s4.9-3.3,8.8-3.3
		c1.5,0,2.9,0.1,4.5,0.5C612,664.4,611.6,666.6,611.2,668.7z"/>
	<path class="st1" d="M531.5,685.9c0.3-2.6,2.9-4.9,6-4.9c3.1,0,5.3,2.4,5.6,4.9C539.2,685.9,535.3,685.9,531.5,685.9z M545.8,694.8
		c-1.3,1.5-3.9,3.3-7.1,3.3c-4,0-7.2-2.7-7.6-6.7c6.5,0,13,0,19.5,0c0.1-0.6,0.2-1.4,0.2-2.1c0-7.8-5.5-14.4-13.3-14.4
		c-8.4,0-13.7,6.9-13.7,14.7c0,8.8,6.3,14.6,14.8,14.6c4.4,0,8.8-1.8,11.6-5.1C548.7,697.7,547.2,696.2,545.8,694.8z"/>
	<polygon class="st1" points="508.2,692.6 515.9,675.4 523.8,675.4 510.8,703.6 505.6,703.6 492.6,675.4 500.5,675.4 	"/>
	<rect x="555.5" y="675.4" class="st1" width="7.6" height="28.2"/>
</g>
<polyline class="st2" points="517.2,515.8 341.8,515.8 341.8,326.2 517.2,326.2 "/>
<ellipse class="st2" cx="429.5" cy="515.8" rx="87.7" ry="29.9"/>
<path class="st3" d="M431.8,423.2c-1,0-1.6-0.8-1.6-1.6v-35.8c0-1,0.8-1.6,1.6-1.6c1,0,1.6,0.8,1.6,1.6v35.8
	C433.6,422.6,432.8,423.2,431.8,423.2z"/>
<path class="st4" d="M335.9,278.3c-0.1,35.2-16.3,63.8-36.2,63.8c-19.9,0-36.1-28.6-36-63.9c0.1-35.2,16.3-63.8,36.2-63.8
	C319.9,214.5,336,243.1,335.9,278.3z"/>
<path class="st5" d="M318.5,278.3c0,18.3-8.4,33.1-18.8,33.1c-10.3,0-18.7-14.9-18.7-33.1c0-18.3,8.4-33.1,18.8-33.1
	C310.2,245.2,318.6,260,318.5,278.3z"/>
<path class="st4" d="M592.1,274.3c-0.1,35.2-16.3,63.8-36.2,63.8c-19.9,0-36.1-28.6-36-63.9c0.1-35.2,16.3-63.8,36.2-63.8
	C576,210.5,592.2,239.1,592.1,274.3z"/>
<path class="st5" d="M574.7,274.3c0,18.3-8.4,33.1-18.8,33.1c-10.3,0-18.7-14.9-18.7-33.1c0-18.3,8.4-33.1,18.8-33.1
	C566.4,241.2,574.8,256,574.7,274.3z"/>
<path class="st6" d="M315.1,108.8c-27,40.8-36,60.2-32.9,102.4c1.8,25.3,4.1,118.9,27.4,161.5c18.9,34.4,68.8,86.9,86.2,90.8
	s63.2,5.1,81.1-2c17.9-7.1,51-55,66.7-88c15.7-33,24.6-92.1,26.2-131.2s5.6-97.6-18.2-138.4c-23.8-40.8-57.5,9.5-115,10.4
	C379,115,328.7,88.2,315.1,108.8z"/>
<polygon class="st7" points="408.7,302.3 442.8,326.2 447.6,301 "/>
<polygon class="st8" points="422.2,219.8 408.7,302.3 467.4,301.4 "/>
<path class="st8" d="M433.3,301.4c0.2-4.2-2.9-7.7-6.9-7.8c-4-0.2-7.3,3.1-7.5,7.2c0,0.5,0,0.9,0.1,1.3l14.2-0.2
	C433.2,301.8,433.3,301.6,433.3,301.4z"/>
<path class="st9" d="M374.3,243.6c-0.1,3.3-2.8,5.9-5.9,5.7c-3.1-0.1-5.6-2.9-5.4-6.2s2.8-5.9,5.9-5.7
	C372,237.6,374.4,240.3,374.3,243.6z"/>
<path class="st9" d="M492.4,243c-0.1,3.3-2.8,5.9-5.9,5.7c-3.1-0.1-5.6-2.9-5.4-6.2s2.8-5.9,5.9-5.7
	C490.1,236.9,492.5,239.7,492.4,243z"/>
<path class="st4" d="M362.3,371.2c0,0,27.2-5.6,73.5-6.9c36.7-1,67.6,7.5,67.6,7.5s-19.8,38.7-69.8,38.7S362.3,371.2,362.3,371.2z"
	/>
<ellipse class="st10" cx="358" cy="311.3" rx="32.9" ry="34.6"/>
<ellipse class="st10" cx="503.4" cy="313.6" rx="32.9" ry="34.6"/>
<path class="st9" d="M315.8,219.2c7.8-5,21-8.5,35.2-10.2c14.2-1.6,29.5-1.5,42.8,0.6l6.1,8.1c-13.3,0.1-30.2-0.6-46.3-3.4
	C341,215.1,328.9,216.8,315.8,219.2z"/>
<path class="st9" d="M537.4,218c-8-4.8-21.3-7.9-35.5-9.2c-14.3-1.2-29.5-0.7-42.8,1.8l-5.9,8.2c13.3-0.3,30.1-1.4,46.2-4.7
	C512.1,214.6,524.2,216,537.4,218z"/>
<path class="st11" d="M331.8,254.9c0,0,1.7-5.5,38.8-5.5c37.1,0,37.5,5.5,37.5,5.5s-10.5,2.7-36,2.7
	C346.6,257.7,331.8,254.9,331.8,254.9z"/>
<path class="st11" d="M450.1,252.4c0,0,1.6-4.3,37.2-4.3s35.9,4.3,35.9,4.3s-10,2.1-34.5,2.1C464.2,254.5,450.1,252.4,450.1,252.4z"
	/>
<path class="st12" d="M362.3,371.2c0,0,30.1,27.9,71.2,24.7c41.2-3.1,69.8-24.1,69.8-24.1l-89.5-1.3L362.3,371.2z"/>
<path class="st5" d="M436.3,376.8c20.2,0.3,67.1-4.9,67.1-4.9s-30.9-8.5-67.6-7.5c-46.3,1.2-73.5,6.9-73.5,6.9
	C400.6,379.1,416,376.5,436.3,376.8z"/>
<path class="st13" d="M524,118.5c-4.8,0.9-39.2,68.2-166.6,36.9c0,0,66.9-5.8,27.1-20.2l-60.4-16l100.3-31.1L524,118.5z"/>
<g>
	<path class="st9" d="M302.2,83.2c7.9-12.1,28.4-39.8,65.9-55.3c60.7-25.1,116.4,2.3,125,6.7c-5.4-3.3-11.7-6.8-18.7-10
		c-8.8-4.1-17.1-7-24.4-9.1c10.6,0.8,26.2,3.3,43.5,10.9c40,17.7,59.9,50.8,71.9,70.7C575,113,586,131.2,590,158.4
		c5,34-3.9,61.5-9.4,75c-1.8,3.6-12.7,68.5-12.7,68.5l-6.2-74.8c3.4-8.3,5.2-17.1,5.2-26.2c0-52-59-94.1-131.8-94.1
		s-131.8,42.1-131.8,94.1c0,3.3,0.2,6.5,0.7,9.7c-7.8,25.9-15.7,78.3-15.7,78.3l-7.7-61c-2.1-6.7-20.1-67.2,16-110.7
		c10.5-12.6,22.6-20.4,32.9-25.3c1-4.6-0.2-7.1-0.8-8.1C325.1,78.6,314.2,77.4,302.2,83.2z"/>
	<path class="st9" d="M261.6,65.8c-0.3,1-0.3,1.6-0.3,1.6S260.7,66.7,261.6,65.8z"/>
</g>
<path class="st9" d="M521.6,106.8c-4.9,0.8-39.7,60.6-168.7,32.8c0,0,67.8-5.2,27.4-18l-61.2-14.2l101.6-27.6L521.6,106.8z"/>
<path class="st9" d="M336.8,411.1c14.9,19.2,44.7,60.3,94.2,59c39.7-1,55.3-8.9,67.9-25.5c12.6-16.6,27.5-41,27.5-41
	s-6.8,12.1-25.2,25.2c-33.4,23.7-35,6.9-67.1,7c-30.9,0.1-33.3,18.7-62.2-0.4"/>
<line class="st14" x1="381.1" y1="199.5" x2="484.5" y2="199.5"/>
<line class="st14" x1="381.1" y1="186.6" x2="484.5" y2="186.6"/>
</svg>
