<?xml version="1.0" encoding="utf-8"?>
<!-- Generator: Adobe Illustrator 24.2.3, SVG Export Plug-In . SVG Version: 6.00 Build 0)  -->
<svg version="1.1" id="Layer_1" xmlns="http://www.w3.org/2000/svg" xmlns:xlink="http://www.w3.org/1999/xlink" x="0px" y="0px"
	 viewBox="0 0 1920 1080" style="enable-background:new 0 0 1920 1080;" xml:space="preserve">
<style type="text/css">
	.st0{fill:#EDF9FD;}
	.st1{fill:#1DA1F2;}
	.st2{fill:none;stroke:#FACB36;stroke-width:11.3386;stroke-linecap:round;stroke-miterlimit:10;stroke-dasharray:56.6929;}
	.st3{fill:none;stroke:#FC7735;stroke-width:11.3386;stroke-linecap:round;stroke-miterlimit:10;stroke-dasharray:3.2076,3.2076;}
	.st4{fill:none;stroke:#FBD51E;stroke-width:11.3386;stroke-linecap:round;stroke-miterlimit:10;}
	.st5{fill:none;stroke:#FBD51E;stroke-width:11.3386;stroke-linecap:round;stroke-miterlimit:10;stroke-dasharray:56.6929;}
	.st6{fill:#044267;}
	.st7{fill:#B9EDFF;}
	.st8{fill:#288CC0;}
	.st9{fill:none;stroke:#044267;stroke-width:1.0266;stroke-miterlimit:10;}
	.st10{fill:none;stroke:#FFFFFF;stroke-width:1.2074;stroke-linecap:round;stroke-miterlimit:10;}
</style>
<rect id="Rectangle_1180_12_" x="2.8" class="st0" width="1920" height="1080"/>
<path class="st1" d="M851.1,679.8c289.1,0,447.2-239.5,447.2-447.2c0-6.8-0.1-13.6-0.4-20.3c30.7-22.2,57.4-49.9,78.4-81.4
	c-28.2,12.5-58.5,20.9-90.3,24.7c32.4-19.5,57.4-50.2,69.1-86.9c-30.4,18-64,31.1-99.8,38.1c-28.7-30.5-69.5-49.7-114.7-49.7
	c-86.8,0-157.2,70.4-157.2,157.2c0,12.3,1.4,24.3,4.1,35.8C856.8,243.6,741,181.1,663.5,86c-13.5,23.2-21.3,50.2-21.3,79
	c0,54.5,27.7,102.7,69.9,130.8c-25.8-0.8-50-7.9-71.2-19.7c0,0.7,0,1.3,0,2c0,76.1,54.2,139.7,126.1,154.1
	c-13.2,3.6-27.1,5.5-41.4,5.5c-10.1,0-20-1-29.5-2.8c20,62.4,78,107.9,146.8,109.2c-53.8,42.2-121.6,67.3-195.2,67.3
	c-12.7,0-25.2-0.7-37.5-2.2C679.7,653.8,762.3,679.8,851.1,679.8"/>
<g>
	<g>
		<g>
			
				<ellipse transform="matrix(0.7071 -0.7071 0.7071 0.7071 45.6823 803.8394)" class="st2" cx="993.2" cy="346.8" rx="124.7" ry="124.7"/>
		</g>
		<g>
			<path class="st3" d="M1057.3,346.8c0,35.4-28.7,64.2-64.2,64.2c-35.4,0-64.2-28.7-64.2-64.2s28.7-64.2,64.2-64.2
				C1028.6,282.6,1057.3,311.3,1057.3,346.8z"/>
		</g>
		<g>
			<g>
				<path class="st4" d="M993.2,595.1c-12.5,0-24.7-0.9-36.7-2.7"/>
				<path class="st5" d="M888.9,572.2c-85-39.4-144-125.5-144-225.4c0-137.1,111.2-248.3,248.3-248.3s248.3,111.2,248.3,248.3
					c0,112.4-74.6,207.3-177,237.9"/>
				<path class="st4" d="M1029.9,592.4c-12,1.8-24.2,2.7-36.7,2.7"/>
			</g>
		</g>
	</g>
	<g>
		<rect x="966" y="403.4" class="st6" width="54.3" height="23.7"/>
		<polygon class="st6" points="996,962.6 824.6,962.6 806.2,885.3 1014.4,885.3 		"/>
		<g>
			<polygon class="st7" points="1029.8,600.6 725.2,600.6 780.8,901.7 1029.8,901.7 			"/>
		</g>
		<polygon class="st8" points="996,962.6 824.6,962.6 789.5,1029.7 1030.9,1029.7 		"/>
		<polygon class="st7" points="1030.9,1029.7 789.5,1029.7 789.4,1029.8 703.9,1608.4 1030.9,1608.4 		"/>
		<polygon class="st8" points="1029.8,901.7 1155.9,805.4 1155.9,724.4 1029.8,768.8 		"/>
		<polygon class="st6" points="1029.8,901.7 1051.7,885 1029.8,770.6 		"/>
		<path class="st8" d="M1155.9,805.4V610.5l-25.3,17c-23.6,15.9-37.8,42.4-37.8,70.9v48.2L1155.9,805.4z"/>
		<polygon class="st6" points="1155.9,805.4 1155.9,760.7 1092.9,746.6 		"/>
		<rect x="956.5" y="503.7" class="st8" width="73.3" height="96.9"/>
		
			<rect x="962.8" y="425.4" transform="matrix(-1 -1.224647e-16 1.224647e-16 -1 1986.3221 929.1472)" class="st8" width="60.6" height="78.3"/>
		
			<rect x="962.8" y="488.5" transform="matrix(-1 -1.224647e-16 1.224647e-16 -1 1986.3221 992.2448)" class="st6" width="60.6" height="15.2"/>
		<path class="st8" d="M1020.3,412.7H966v-54.4c0-1.2,1-2.2,2.2-2.2h49.9c1.2,0,2.2,1,2.2,2.2V412.7z"/>
		<rect x="956.5" y="583.5" class="st6" width="73.3" height="17.1"/>
		<g>
			<path class="st8" d="M875.4,532.1h70.9c0.7,0,1.2,0.5,1.2,1.2v67.3h-73.3v-67.3C874.2,532.6,874.7,532.1,875.4,532.1z"/>
			<rect x="874.2" y="583.5" class="st6" width="73.3" height="17.1"/>
		</g>
		<g>
			<path class="st8" d="M796.4,553.8h68c0.6,0,1,0.5,1,1v45.8h-70v-45.8C795.3,554.3,795.8,553.8,796.4,553.8z"/>
			<rect x="795.3" y="583.5" class="st6" width="70" height="17.1"/>
		</g>
		<g>
			<path class="st8" d="M726.1,566.4h59.3c0.5,0,1,0.4,1,1v33.3h-61.2v-33.3C725.2,566.8,725.6,566.4,726.1,566.4z"/>
			<rect x="725.2" y="583.5" class="st6" width="61.2" height="17.1"/>
		</g>
		<circle class="st6" cx="973.6" cy="730.1" r="10.8"/>
		<circle class="st6" cx="890.1" cy="679.8" r="10.8"/>
		<circle class="st6" cx="806.2" cy="728.3" r="10.8"/>
		<line class="st9" x1="858.1" y1="910.5" x2="811.7" y2="746.6"/>
		<line class="st9" x1="919.3" y1="910.5" x2="965.7" y2="746.6"/>
		<line class="st9" x1="890.1" y1="910.5" x2="890.1" y2="702"/>
	</g>
	<line class="st10" x1="984.4" y1="1214" x2="984.4" y2="1459.3"/>
	<line class="st10" x1="984.4" y1="1094.2" x2="984.4" y2="1137.9"/>
</g>
</svg>
