<?xml version="1.0" encoding="utf-8"?>
<!-- Generator: Adobe Illustrator 24.0.0, SVG Export Plug-In . SVG Version: 6.00 Build 0)  -->
<svg version="1.1"
	 id="svg8159" xmlns:cc="http://creativecommons.org/ns#" xmlns:dc="http://purl.org/dc/elements/1.1/" xmlns:inkscape="http://www.inkscape.org/namespaces/inkscape" xmlns:rdf="http://www.w3.org/1999/02/22-rdf-syntax-ns#" xmlns:sodipodi="http://sodipodi.sourceforge.net/DTD/sodipodi-0.dtd" xmlns:svg="http://www.w3.org/2000/svg"
	 xmlns="http://www.w3.org/2000/svg" xmlns:xlink="http://www.w3.org/1999/xlink" x="0px" y="0px" viewBox="0 0 800 232.2"
	 style="enable-background:new 0 0 800 232.2;" xml:space="preserve">
<style type="text/css">
	.st0{fill-rule:evenodd;clip-rule:evenodd;fill:#FFFFFF;}
	.st1{fill:#FFFFFF;}
</style>
<sodipodi:namedview  bordercolor="#666666" borderopacity="1" fit-margin-bottom="0" fit-margin-left="0" fit-margin-right="0" fit-margin-top="0" gridtolerance="10" guidetolerance="10" id="namedview6700" inkscape:current-layer="svg8159" inkscape:cx="564.20323" inkscape:cy="6.4581045" inkscape:pageopacity="0" inkscape:pageshadow="2" inkscape:window-height="705" inkscape:window-maximized="1" inkscape:window-width="1366" inkscape:window-x="-8" inkscape:window-y="-8" inkscape:zoom="0.77432601" objecttolerance="10" pagecolor="#ffffff" showgrid="false">
	</sodipodi:namedview>
<path id="path7291" inkscape:connector-curvature="0" class="st0" d="M184.8,35l-44,88.7l77.5,89.8L74.4,229.8l223.2,2.3L184.8,35
	L184.8,35z"/>
<path id="path7293" inkscape:connector-curvature="0" class="st0" d="M176.1,0L75,84.6L0,211.2l63.9-6.4L176.1,0z"/>
<path id="text7295" inkscape:connector-curvature="0" class="st1" d="M382,89.5l-48.3,118.5h16.4l12.6-33.2h53.4l13.4,33.2h16.3
	L397.3,89.5H382L382,89.5z M389.2,103.9h0.4c0.6,3.6,1.3,6.3,1.9,7.9l19.8,50.5h-43.7l19.6-50.5C388,109.9,388.6,107.3,389.2,103.9
	L389.2,103.9z M763,121.4c-11.8,0-21.7,4.2-29.6,12.5c-7.9,8.3-11.9,19-11.9,32.2c0,13.9,3.6,24.8,10.9,32.5
	c7.3,7.7,17.3,11.5,30,11.5c13,0,23.5-2.7,31.4-8.1v-12.7c-8.5,6.3-17.8,9.4-27.9,9.4c-9,0-16.1-2.6-21.3-7.7
	c-5.2-5.1-7.9-12.4-8.1-21.8H800V162c0-12.7-3.2-22.7-9.7-29.8C783.9,125,774.8,121.4,763,121.4L763,121.4z M698.6,121.9
	c-5.2,0-9.9,1.7-14.2,5c-4.2,3.3-7.4,7.9-9.4,13.9h-0.4v-17.4h-14.4v84.6h14.4v-43.2c0-9.4,2.1-16.9,6.2-22.3
	c4.2-5.5,9.3-8.2,15.5-8.2c4.7,0,8.4,0.9,10.9,2.7v-14.1C705.2,122.3,702.3,121.9,698.6,121.9z M460.5,123.4V135h48.3l-53.3,68.9
	v4.2h73.9v-11.6h-52.7l53.3-69.2v-3.9L460.5,123.4L460.5,123.4z M551.6,123.4V174c0,24,10.7,36,32.2,36c12.5,0,21.8-5.1,27.8-15.4
	h0.4v13.4h14.4v-84.6h-14.4v48.8c0,7.9-2.3,14.3-6.9,19.2c-4.5,4.8-10.3,7.3-17.3,7.3c-14.5,0-21.8-8.9-21.8-26.8v-48.4L551.6,123.4
	L551.6,123.4z M762.7,132.8c7,0,12.5,2.2,16.4,6.5c4,4.4,6,10.4,6.1,18.3h-48.6c1.1-7.4,4-13.4,8.8-17.9
	C750.2,135.1,755.9,132.8,762.7,132.8z"/>
</svg>
