<?xml version="1.0" encoding="utf-8"?>
<!-- Generator: Adobe Illustrator 24.0.0, SVG Export Plug-In . SVG Version: 6.00 Build 0)  -->
<svg version="1.1" id="Layer_1" xmlns="http://www.w3.org/2000/svg" xmlns:xlink="http://www.w3.org/1999/xlink" x="0px" y="0px"
	 viewBox="0 0 120 60" style="enable-background:new 0 0 120 60;" xml:space="preserve">
<style type="text/css">
	.st0{fill:#FFFFFF;}
</style>
<path class="st0" d="M64.9,11.6l1.1,0l3.1-3.1l0.2-1.3C66.8,5,63.6,3.6,60,3.6C53.6,3.6,48.1,8,46.5,14c0.3-0.2,1.1-0.1,1.1-0.1
	l6.2-1c0,0,0.3-0.5,0.5-0.5C57,9.3,61.7,9,64.9,11.6L64.9,11.6z"/>
<path class="st0" d="M73.5,14c-0.7-2.6-2.2-5-4.2-6.8l-4.4,4.4c1.8,1.5,2.9,3.7,2.9,6v0.8c2.1,0,3.9,1.7,3.9,3.9s-1.7,3.9-3.9,3.9
	H60l-0.8,0.8v4.7l0.8,0.8h7.8c5.6,0,10.1-4.5,10.1-10.1C77.9,18.8,76.1,15.8,73.5,14L73.5,14z"/>
<path class="st0" d="M52.2,32.4H60v-6.2h-7.8c-0.6,0-1.1-0.1-1.6-0.3l-1.1,0.3l-3.1,3.1l-0.3,1C47.9,31.6,50,32.4,52.2,32.4
	L52.2,32.4z"/>
<path class="st0" d="M52.2,12.2c-5.6,0-10.1,4.5-10.1,10.1c0,3.2,1.5,6.1,4,8l4.5-4.5c-1.4-0.6-2.3-2-2.3-3.5c0-2.1,1.7-3.9,3.9-3.9
	c1.5,0,2.9,0.9,3.5,2.3l4.5-4.5C58.4,13.7,55.5,12.2,52.2,12.2L52.2,12.2z"/>
<path class="st0" d="M12,51.9c-2.1,0-3.9-0.8-5.5-2.2s-2.3-3.3-2.3-5.4s0.8-3.9,2.3-5.4s3.4-2.3,5.5-2.3c2,0,3.9,0.7,5.2,2.1
	l-1.5,1.5c-1-1-2.4-1.5-3.8-1.5c-1.5,0-2.8,0.5-3.9,1.6c-1,1-1.6,2.5-1.6,3.9c0,1.5,0.5,2.9,1.6,3.9c1,1.1,2.4,1.7,3.9,1.6
	c1.6,0,2.8-0.5,3.9-1.5c0.6-0.6,1-1.5,1.1-2.6h-5v-2.1h7c0.1,0.4,0.1,0.8,0.1,1.3c0,2.1-0.6,3.7-1.8,4.9C16,51.2,14.2,51.9,12,51.9
	L12,51.9z M28.4,50.5c-1,0.9-2.1,1.4-3.5,1.4s-2.6-0.5-3.5-1.4s-1.4-2.1-1.4-3.5s0.5-2.6,1.4-3.5s2.1-1.4,3.5-1.4s2.6,0.5,3.5,1.4
	s1.4,2.1,1.4,3.5S29.3,49.6,28.4,50.5z M22.9,49.2c0.5,0.5,1.2,0.9,2,0.8c0.8,0,1.4-0.3,2-0.8s0.8-1.3,0.8-2.1
	c0-0.9-0.3-1.6-0.8-2.2s-1.2-0.8-2-0.8c-0.7,0-1.5,0.3-2,0.8c-0.5,0.6-0.8,1.3-0.8,2.2C22.1,47.9,22.3,48.6,22.9,49.2L22.9,49.2z
	 M39.2,50.5c-1,0.9-2.1,1.4-3.5,1.4s-2.6-0.5-3.5-1.4s-1.4-2.1-1.4-3.5s0.5-2.6,1.4-3.5s2.1-1.4,3.5-1.4s2.6,0.5,3.5,1.4
	s1.4,2.1,1.4,3.5S40.1,49.6,39.2,50.5z M33.7,49.2c0.5,0.5,1.2,0.9,2,0.8c0.8,0,1.4-0.3,2-0.8s0.8-1.3,0.8-2.1
	c0-0.9-0.3-1.6-0.8-2.2s-1.2-0.8-2-0.8c-0.7,0-1.5,0.3-2,0.8c-0.5,0.6-0.8,1.3-0.8,2.2C32.9,47.9,33.1,48.6,33.7,49.2L33.7,49.2z
	 M46.3,56.4c-1.1,0-2-0.3-2.8-0.9s-1.3-1.3-1.6-2l1.9-0.8c0.2,0.5,0.5,0.9,0.9,1.2s0.9,0.5,1.6,0.5c0.8,0,1.5-0.2,1.9-0.7
	s0.7-1.2,0.7-2.2v-0.7h-0.1c-0.6,0.7-1.5,1.1-2.6,1.1c-1.3,0-2.4-0.5-3.3-1.4c-0.9-0.9-1.4-2.2-1.4-3.5c0-1.3,0.5-2.6,1.4-3.5
	c0.9-1,2-1.4,3.3-1.4c0.6,0,1.1,0.1,1.5,0.3s0.8,0.5,1.1,0.8h0.1v-0.8H51v8.9c0,1.7-0.4,3-1.3,3.9C48.8,56,47.6,56.4,46.3,56.4
	L46.3,56.4z M46.4,50c0.7,0,1.4-0.3,1.9-0.8c0.5-0.6,0.8-1.3,0.8-2.1c0-0.9-0.3-1.6-0.8-2.2c-0.5-0.6-1.2-0.9-1.9-0.9
	c-0.8,0-1.4,0.3-1.9,0.9s-0.8,1.3-0.8,2.2c0,0.8,0.3,1.6,0.8,2.1S45.7,50,46.4,50L46.4,50z M54.6,37.1v14.5h-2.2V37.1H54.6z
	 M60.6,51.9c-1.4,0-2.6-0.5-3.5-1.4s-1.4-2.1-1.4-3.5c0-1.4,0.5-2.6,1.4-3.5c0.9-0.9,2.1-1.4,3.3-1.4c0.6,0,1.2,0.1,1.7,0.3
	c0.5,0.2,0.9,0.5,1.3,0.8c0.3,0.3,0.6,0.6,0.8,1c0.2,0.3,0.4,0.6,0.5,1l0.2,0.6l-6.6,2.7c0.5,1,1.3,1.5,2.4,1.5c1,0,1.8-0.5,2.4-1.4
	l1.7,1.1c-0.4,0.6-0.9,1.1-1.6,1.5S61.6,51.9,60.6,51.9L60.6,51.9z M57.8,46.9l4.4-1.8c-0.1-0.3-0.4-0.6-0.7-0.8
	c-0.3-0.2-0.7-0.3-1.1-0.3c-0.6,0-1.2,0.3-1.8,0.8S57.8,46,57.8,46.9L57.8,46.9z M76.1,51.9c-2,0-3.6-0.7-5-2s-2-3-2-5s0.7-3.7,2-5
	s3-2,5-2c2,0,3.7,0.7,4.9,2.2l-1.2,1.2c-0.9-1.1-2.2-1.7-3.7-1.7c-1.5,0-2.7,0.5-3.7,1.5s-1.5,2.3-1.5,3.9s0.5,2.9,1.5,3.9
	s2.2,1.5,3.7,1.5c1.6,0,3-0.6,4.1-1.9l1.2,1.2c-0.6,0.7-1.4,1.3-2.3,1.7C78.2,51.7,77.2,51.9,76.1,51.9L76.1,51.9z M84.7,51.6H83
	V38.3h1.7V51.6z M87.5,43.6c0.9-0.9,2-1.4,3.4-1.4s2.5,0.5,3.4,1.4s1.3,2.1,1.3,3.5s-0.4,2.6-1.3,3.5s-2,1.4-3.4,1.4
	s-2.5-0.5-3.4-1.4s-1.3-2.1-1.3-3.5S86.6,44.5,87.5,43.6z M88.8,49.5c0.6,0.6,1.3,0.9,2.1,0.9s1.5-0.3,2.1-0.9s0.9-1.4,0.9-2.4
	s-0.3-1.8-0.9-2.4s-1.3-0.9-2.1-0.9s-1.5,0.3-2.1,0.9s-0.9,1.4-0.9,2.4S88.2,48.9,88.8,49.5z M105.1,51.6h-1.6v-1.3h-0.1
	c-0.3,0.4-0.7,0.8-1.2,1.1s-1.1,0.5-1.7,0.5c-1.1,0-2-0.3-2.6-1S97,49.2,97,48.1v-5.6h1.7v5.3c0,1.7,0.8,2.6,2.3,2.6
	c0.7,0,1.3-0.3,1.7-0.9c0.4-0.6,0.7-1.3,0.7-2v-5h1.7L105.1,51.6L105.1,51.6z M110.9,51.9c-1.2,0-2.2-0.5-3.1-1.4s-1.3-2.1-1.3-3.5
	s0.4-2.5,1.3-3.5s1.9-1.4,3.1-1.4c0.7,0,1.3,0.2,1.9,0.4s1,0.7,1.2,1.1h0.1l-0.1-1.3v-4.2h1.7v13.4h-1.6v-1.3h-0.1
	c-0.3,0.4-0.7,0.8-1.2,1.1C112.3,51.8,111.6,51.9,110.9,51.9L110.9,51.9z M111.2,50.4c0.8,0,1.5-0.3,2.1-0.9
	c0.6-0.6,0.8-1.4,0.8-2.4s-0.3-1.8-0.8-2.4c-0.5-0.6-1.3-0.9-2.1-0.9c-0.8,0-1.5,0.3-2.1,0.9s-0.9,1.4-0.9,2.4s0.3,1.8,0.9,2.4
	C109.7,50.1,110.4,50.4,111.2,50.4L111.2,50.4z"/>
</svg>
