<svg id="Layer_1" data-name="Layer 1" xmlns="http://www.w3.org/2000/svg" viewBox="0 0 111.55 52.76"><defs><style>.cls-1{fill:#fff;}</style></defs><title>google-cloud-white</title><path class="cls-1" d="M60.64,7.94l1.15,0L64.9,4.85l.15-1.32a14,14,0,0,0-22.77,6.79c.34-.24,1.07-.06,1.07-.06l6.21-1s.32-.53.48-.5a7.76,7.76,0,0,1,10.61-.8Z"/><path class="cls-1" d="M69.27,10.33a14,14,0,0,0-4.21-6.8l-4.4,4.4a7.77,7.77,0,0,1,2.89,6v.78a3.88,3.88,0,1,1,0,7.76H55.79l-.78.78V28l.78.77h7.76a10.08,10.08,0,0,0,5.71-18.39Z"/><path class="cls-1" d="M48,28.73h7.76V22.52H48a3.84,3.84,0,0,1-1.6-.35l-1.12.34-3.11,3.11-.27,1.05A10,10,0,0,0,48,28.73Z"/><path class="cls-1" d="M48,8.54a10.09,10.09,0,0,0-6.1,18.14l4.5-4.5a3.88,3.88,0,1,1,5.13-5.13l4.5-4.5a10.07,10.07,0,0,0-8-4Z"/><path class="cls-1" d="M7.77,48.3A7.54,7.54,0,0,1,2.3,46.05a7.5,7.5,0,0,1,0-10.81A7.57,7.57,0,0,1,7.77,33,7.29,7.29,0,0,1,13,35.1l-1.47,1.47a5.35,5.35,0,0,0-3.78-1.49,5.22,5.22,0,0,0-3.89,1.63,5.65,5.65,0,0,0,0,7.88,5.22,5.22,0,0,0,3.89,1.62,5.21,5.21,0,0,0,3.87-1.53A4.42,4.42,0,0,0,12.78,42h-5V40h7a6.3,6.3,0,0,1,.1,1.3,6.61,6.61,0,0,1-1.81,4.9A7.07,7.07,0,0,1,7.76,48.3Zm16.37-1.4a4.82,4.82,0,0,1-3.51,1.4,4.86,4.86,0,0,1-3.51-1.4,5,5,0,0,1,0-7,4.82,4.82,0,0,1,3.51-1.4,4.84,4.84,0,0,1,3.51,1.4,5,5,0,0,1,0,7Zm-5.47-1.38a2.61,2.61,0,0,0,2,.85,2.64,2.64,0,0,0,2-.85,3,3,0,0,0,.82-2.14,2.94,2.94,0,0,0-.82-2.15,2.62,2.62,0,0,0-2-.84,2.68,2.68,0,0,0-2,.84,3,3,0,0,0-.81,2.15,2.93,2.93,0,0,0,.82,2.14ZM34.94,46.9a5.1,5.1,0,0,1-7,0,5,5,0,0,1,0-7,5.1,5.1,0,0,1,7,0,5,5,0,0,1,0,7Zm-5.47-1.38a2.61,2.61,0,0,0,2,.85,2.64,2.64,0,0,0,2-.85,3,3,0,0,0,.82-2.14,2.94,2.94,0,0,0-.82-2.15,2.62,2.62,0,0,0-2-.84,2.68,2.68,0,0,0-2,.84,3,3,0,0,0-.81,2.15,2.93,2.93,0,0,0,.82,2.14ZM42,52.74a4.3,4.3,0,0,1-2.76-.88,5.08,5.08,0,0,1-1.61-2L39.56,49a3.1,3.1,0,0,0,.93,1.24A2.38,2.38,0,0,0,42,50.8,2.52,2.52,0,0,0,44,50.05a3.06,3.06,0,0,0,.7-2.15v-.7H44.6A3.13,3.13,0,0,1,42,48.32a4.54,4.54,0,0,1-3.31-1.43,5,5,0,0,1,0-7A4.47,4.47,0,0,1,42,38.46a3.45,3.45,0,0,1,1.52.32,3.06,3.06,0,0,1,1.07.78h.08v-.79h2v8.85a5.14,5.14,0,0,1-1.31,3.86A4.67,4.67,0,0,1,42,52.76Zm.15-6.37a2.43,2.43,0,0,0,1.88-.85,3,3,0,0,0,.76-2.12,3.11,3.11,0,0,0-.76-2.15,2.41,2.41,0,0,0-1.88-.86,2.56,2.56,0,0,0-1.94.86,3,3,0,0,0-.8,2.15,2.93,2.93,0,0,0,.8,2.12,2.56,2.56,0,0,0,1.94.85Zm8.2-12.86V48H48.23V33.51ZM56.33,48.3a4.69,4.69,0,0,1-3.49-1.42,4.8,4.8,0,0,1-1.4-3.51,4.87,4.87,0,0,1,1.35-3.55,4.47,4.47,0,0,1,3.3-1.38,4.31,4.31,0,0,1,1.66.32A3.91,3.91,0,0,1,59,39.6a5.91,5.91,0,0,1,.81,1,6.24,6.24,0,0,1,.48,1l.23.57-6.6,2.73a2.51,2.51,0,0,0,2.4,1.49A2.82,2.82,0,0,0,58.76,45l1.68,1.12a5.33,5.33,0,0,1-1.58,1.51,4.52,4.52,0,0,1-2.53.67Zm-2.74-5.08L58,41.39a1.53,1.53,0,0,0-.7-.75,2.18,2.18,0,0,0-1.14-.29,2.59,2.59,0,0,0-1.79.78,2.65,2.65,0,0,0-.79,2.09ZM71.92,48.3a6.83,6.83,0,0,1-7-7,6.83,6.83,0,0,1,7-7,6.21,6.21,0,0,1,4.91,2.18l-1.19,1.16A4.51,4.51,0,0,0,71.92,36a5.12,5.12,0,0,0-5.21,5.35,5.18,5.18,0,0,0,1.51,3.87,5.08,5.08,0,0,0,3.7,1.47A5.27,5.27,0,0,0,76,44.72l1.19,1.19a6.47,6.47,0,0,1-2.3,1.75,6.92,6.92,0,0,1-3,.64ZM80.47,48H78.75V34.63h1.72ZM83.28,40A4.78,4.78,0,0,1,90,40a5.23,5.23,0,0,1,0,7,4.8,4.8,0,0,1-6.76,0,5.23,5.23,0,0,1,0-7Zm1.28,5.88a2.88,2.88,0,0,0,4.2,0,3.71,3.71,0,0,0,0-4.8,2.88,2.88,0,0,0-4.2,0,3.24,3.24,0,0,0-.89,2.4A3.29,3.29,0,0,0,84.56,45.83ZM100.88,48H99.23V46.74h-.07a3.14,3.14,0,0,1-1.2,1.1,3.52,3.52,0,0,1-1.7.46,3.21,3.21,0,0,1-2.6-1,4.2,4.2,0,0,1-.89-2.8V38.84h1.72v5.32c0,1.71.75,2.56,2.26,2.56a2.1,2.1,0,0,0,1.74-.85,3.18,3.18,0,0,0,.67-2v-5h1.72V48Zm5.82.29a4,4,0,0,1-3.06-1.4,5.33,5.33,0,0,1,0-6.95,4,4,0,0,1,3.06-1.4,4,4,0,0,1,1.88.44,3.21,3.21,0,0,1,1.25,1.13h.07l-.07-1.27V34.63h1.72V48H109.9V46.74h-.07a3.24,3.24,0,0,1-1.24,1.12,4,4,0,0,1-1.88.44Zm.28-1.57a2.75,2.75,0,0,0,2.07-.89,3.35,3.35,0,0,0,.85-2.4,3.31,3.31,0,0,0-.85-2.4,2.75,2.75,0,0,0-2.07-.9,2.71,2.71,0,0,0-2,.91,3.78,3.78,0,0,0,0,4.8,2.71,2.71,0,0,0,2,.9Z"/></svg>