<?xml version="1.0" encoding="utf-8"?>
<!-- Generator: Adobe Illustrator 24.0.0, SVG Export Plug-In . SVG Version: 6.00 Build 0)  -->
<svg version="1.1" id="Layer_1" xmlns="http://www.w3.org/2000/svg" xmlns:xlink="http://www.w3.org/1999/xlink" x="0px" y="0px"
	 viewBox="0 0 110.8 82" style="enable-background:new 0 0 110.8 82;" xml:space="preserve">
<style type="text/css">
	.st0{fill:#FFFFFF;}
</style>
<g>
	<path class="st0" d="M102.1,26.6c4.8,0,8.7,4,8.7,8.7s-4,8.7-8.7,8.7H40V21.3h4.1v18.5h58.1c2.5,0,4.6-2.1,4.6-4.6
		s-2.2-4.6-4.8-4.6H48v-4.1L102.1,26.6L102.1,26.6z"/>
	<path class="st0" d="M62,0H40v9.2h4.1V4h18c2.5,0,4.6,2.1,4.6,4.6s-2.2,4.7-4.7,4.7H8.7c-4.8,0-8.7,4-8.7,8.7s4,8.7,8.7,8.7h27.2
		v-4.1H8.7c-2.5,0-4.6-2.1-4.6-4.6s2-4.6,4.6-4.6h53.4c4.8,0,8.7-4,8.7-8.7S66.8,0,62,0L62,0z"/>
</g>
<g>
	<path class="st0" d="M10.6,72.7V61h2.1v11.3c0,2.9,1.7,4.2,4.5,4.2c2.7,0,4.3-1.2,4.3-4.2V61h2.2v11.6c0,4.1-2.9,5.8-6.6,5.8
		C13.4,78.4,10.6,76.8,10.6,72.7z"/>
	<g>
		<path class="st0" d="M32.9,65.4c-1.8,0-3,0.8-4,2h-0.1v-1.7h-1.9V82h1.9v-5.4h0.1c1,1.3,2.2,1.8,3.9,1.8c3.4,0,5.4-2.5,5.4-6.5
			C38.2,67.8,36,65.4,32.9,65.4z M32.7,76.8c-2.9,0-3.9-2.2-3.9-4.9c0-2.7,1.3-4.9,4-4.9c2.4,0,3.5,2.1,3.5,4.9
			C36.2,74.8,35,76.8,32.7,76.8z"/>
	</g>
	<path class="st0" d="M40.3,69.5c0-5,3-8.9,8.1-8.9c4,0,6.4,2.3,6.9,5.5h-2.1c-0.4-2.1-2.1-3.6-4.8-3.6c-3.8,0-5.9,3-5.9,7.1
		c0,4.2,2.3,7,5.9,7c3.2,0,4.8-2.2,5-4.7h2.1c0,1.7-0.8,3.6-2.1,4.8c-1.2,1.2-3,1.8-5.1,1.8C43.4,78.4,40.3,74.8,40.3,69.5
		L40.3,69.5z"/>
	<rect x="58.1" y="61" class="st0" width="1.9" height="17.1"/>
	<g>
		<path class="st0" d="M68.4,65.4c-3.7,0-6,2.9-6,6.5s2.3,6.5,6,6.5s6-2.9,6-6.5S72.1,65.4,68.4,65.4z M68.4,76.8
			c-2.6,0-4-2.1-4-4.9s1.4-4.9,4-4.9s4,2.2,4,4.9S71,76.8,68.4,76.8z"/>
	</g>
	<path class="st0" d="M84.6,78.2v-1.7h-0.1c-0.9,1.2-1.9,2-3.7,2c-2.5,0-4.2-1.5-4.2-4.1v-8.6h1.9v8.5c0,1.6,1,2.5,2.8,2.5
		c2,0,3.2-1.5,3.2-3.4v-7.6h1.9v12.4H84.6L84.6,78.2z"/>
	<g>
		<path class="st0" d="M98.2,61v6.5l0,0c-0.9-1.3-2.3-2.1-3.9-2c-3.1,0-5.4,2.4-5.4,6.5c0,4,2.1,6.5,5.5,6.5c1.7,0,2.9-0.7,3.8-1.9
			l0,0v1.5h1.9V61H98.2z M94.4,76.8c-2.4,0-3.6-2.1-3.6-4.9S92,67,94.4,67c2.6,0,4,2,4,4.9S97.2,76.8,94.4,76.8z"/>
	</g>
</g>
<path class="st0" d="M0,22"/>
<path class="st0" d="M110.8,35.2"/>
</svg>
