<?xml version="1.0" encoding="utf-8"?>
<!-- Generator: Adobe Illustrator 24.2.3, SVG Export Plug-In . SVG Version: 6.00 Build 0)  -->
<svg version="1.1" id="Layer_1" xmlns="http://www.w3.org/2000/svg" xmlns:xlink="http://www.w3.org/1999/xlink" x="0px" y="0px"
	 viewBox="0 0 1920 1080" style="enable-background:new 0 0 1920 1080;" xml:space="preserve">
<style type="text/css">
	.blue_x0020_shade_x0020_38{opacity:0.17;fill:#134C83;}
	.st0{fill:#007EC3;}
	.st1{fill:#6CC3F1;}
	.st2{fill:#339EDB;}
	.st3{fill:#EDF9FD;}
	.st4{fill:#FF6200;}
	.st5{fill:#F9C8C8;}
	.st6{filter:url(#Adobe_OpacityMaskFilter);}
	.st7{filter:url(#Adobe_OpacityMaskFilter_1_);}
	.st8{mask:url(#SVGID_1_);fill:url(#SVGID_2_);}
	.st9{opacity:0.55;fill:url(#SVGID_3_);}
	.st10{filter:url(#Adobe_OpacityMaskFilter_2_);}
	.st11{filter:url(#Adobe_OpacityMaskFilter_3_);}
	.st12{mask:url(#SVGID_4_);fill:url(#SVGID_5_);}
	.st13{opacity:0.55;fill:url(#SVGID_6_);}
	.st14{fill:#F6B1B1;}
	.st15{fill:#242638;}
	.st16{fill:#F9C9C9;}
	.st17{opacity:0.18;}
	.st18{fill:#134C83;}
	.st19{fill:#4B4B4B;}
</style>
<rect id="Rectangle_1180_10_" x="-1" y="-1.3" class="st0" width="1920" height="1080"/>
<g>
	<path class="st1" d="M910.7,743.7C789.6,834.6,682.3,935,494.1,935c-327.1,0-483-287.2-251.9-448.3c65-45.3,154.1-73.3,251.9-73.3
		c206.9,0,340.1,139.4,481.1,237.7c134,93.4,263.5,227.3,448.8,227.3c265.1,0,407.2-214.6,219.6-345.5
		c-55.7-38.9-133.3-62.9-219.6-62.9c-146.6,0-283.5,68.5-378.9,154.6l-42.5-29.5c105.2-95,259.5-181.8,421.4-181.8
		c327.1,0,483,287.2,251.9,448.3c-64.9,45.3-154,73.3-251.9,73.3c-206.9,0-340.1-139.4-481.1-237.7C808.8,603.8,679.3,470,494.1,470
		c-265.1,0-407.2,214.6-219.6,345.5c55.7,38.9,133.4,62.9,219.6,62.9c168.1,0,260.7-90.5,373.3-175.1L910.7,743.7z"/>
	<path class="st2" d="M910.7,652.2c-121.1,90.9-228.4,191.3-416.6,191.3c-327.1,0-483-287.2-251.9-448.3
		c65-45.3,154.1-73.3,251.9-73.3c206.9,0,340.1,139.4,481.1,237.7c134,93.5,263.5,227.3,448.8,227.3
		c265.1,0,407.2-214.6,219.6-345.4c-55.7-38.9-133.3-62.9-219.6-62.9c-146.6,0-283.5,68.5-378.9,154.6l-42.5-29.5
		c105.2-95,259.5-181.8,421.4-181.8c327.1,0,483,287.2,251.9,448.3c-64.9,45.3-154,73.3-251.9,73.3
		c-206.9,0-340.1-139.4-481.1-237.7c-134-93.5-263.5-227.3-448.8-227.3c-265.1,0-407.2,214.7-219.6,345.5
		c55.7,38.9,133.4,62.9,219.6,62.9c168.1,0,260.7-90.5,373.3-175.1L910.7,652.2z"/>
	<path class="st3" d="M910.7,560.7C789.6,651.6,682.3,752,494.1,752c-327.1,0-483-287.2-251.9-448.3c65-45.3,154.1-73.3,251.9-73.3
		c206.9,0,340.1,139.4,481.1,237.7c134,93.5,263.5,227.3,448.8,227.3c265.1,0,407.2-214.6,219.6-345.5
		c-55.7-38.9-133.3-62.9-219.6-62.9c-146.6,0-283.5,68.5-378.9,154.6l-42.5-29.5c105.2-94.9,259.5-181.8,421.4-181.8
		c327.1,0,483,287.2,251.9,448.3c-64.9,45.3-154,73.3-251.9,73.3c-206.9,0-340.1-139.4-481.1-237.7C808.8,420.9,679.3,287,494.1,287
		c-265.1,0-407.2,214.6-219.6,345.5c55.7,38.9,133.4,62.9,219.6,62.9c168.1,0,260.7-90.6,373.3-175.1L910.7,560.7z"/>
	<path class="st4" d="M910.7,469.2c-121.1,90.9-228.4,191.3-416.6,191.3c-327.1,0-483-287.2-251.9-448.3
		c65-45.3,154.1-73.3,251.9-73.3c206.9,0,340.1,139.4,481.1,237.7c134,93.4,263.5,227.3,448.8,227.3
		c265.1,0,407.2-214.6,219.6-345.5c-55.7-38.8-133.3-62.9-219.6-62.9c-146.6,0-283.5,68.5-378.9,154.6l-42.5-29.5
		c105.2-95,259.5-181.8,421.4-181.8c327.1,0,483,287.2,251.9,448.3c-64.9,45.3-154,73.3-251.9,73.3
		c-206.9,0-340.1-139.4-481.1-237.7c-134-93.5-263.5-227.3-448.8-227.3c-265.1,0-407.2,214.6-219.6,345.4
		c55.7,38.9,133.4,62.9,219.6,62.9c168.1,0,260.7-90.6,373.3-175.1L910.7,469.2z"/>
</g>
<g>
	<path class="st4" d="M1543.3,1080.3h-150.7c0,0-0.6-129.6-5.6-168.2c32.3-17.6,65.3-24,89.7-22.5c11,0.7,22,4.4,31.2,8.6
		C1517.3,944.1,1543.3,1080.3,1543.3,1080.3z"/>
	<g>
		<path class="st5" d="M1506.7,898.1c-9-4.2-19.7-7.9-30.3-8.6c-23.8-1.5-55.9,4.9-87.2,22.5c-0.3-2.7-0.7-4.9-1-6.6
			c-5.8-26.8-20.3-25.4-44.2-69.6c-23.9-44.3-37.2-85.1-29.5-98.6c6.7-12.1,16.8-13.1,16.8-13.1s0.6-71.3,1.6-87.5
			c1.1-16.4,4.4-69.1,16.4-69.6c11.9-0.6,14.7,21.2,15.2,42.4c0.5,21.2,3.8,55.5,3.8,55.5s7.6-3.3,15.2-1.7
			c7.6,1.7,8.1,11.4,14.7,11.4c6.5,0,9.8-3.2,17.4-0.5c7.7,2.7,7.7,10.4,11.4,11.4c3.8,1.1,14.7,0.6,20.7,11.4
			c6,10.9,24.5,44.6,32.6,79.9c8.2,35.4,17.4,76.4,25.4,115.5C1505.9,894.1,1506.3,896,1506.7,898.1z"/>
		<defs>
			<filter id="Adobe_OpacityMaskFilter" filterUnits="userSpaceOnUse" x="1312.1" y="724.2" width="29.1" height="47.9">
				<feFlood  style="flood-color:white;flood-opacity:1" result="back"/>
				<feBlend  in="SourceGraphic" in2="back" mode="normal"/>
			</filter>
		</defs>
		<mask maskUnits="userSpaceOnUse" x="1312.1" y="724.2" width="29.1" height="47.9" id="SVGID_1_">
			<g class="st6">
				<defs>
					<filter id="Adobe_OpacityMaskFilter_1_" filterUnits="userSpaceOnUse" x="1312.1" y="724.2" width="29.1" height="47.9">
						<feFlood  style="flood-color:white;flood-opacity:1" result="back"/>
						<feBlend  in="SourceGraphic" in2="back" mode="normal"/>
					</filter>
				</defs>
				<mask maskUnits="userSpaceOnUse" x="1312.1" y="724.2" width="29.1" height="47.9" id="SVGID_1_">
					<g class="st7">
					</g>
				</mask>
				<linearGradient id="SVGID_2_" gradientUnits="userSpaceOnUse" x1="1318.557" y1="757.8202" x2="1336.9843" y2="746.8846">
					<stop  offset="0" style="stop-color:#000000"/>
					<stop  offset="0.9974" style="stop-color:#FFFFFF"/>
				</linearGradient>
				<path class="st8" d="M1314.3,737.2c-3.2,5.7-2.7,16.3,0.8,30l26.2,4.8c0,0-9.4-27.9-10.2-47.9
					C1331.1,724.2,1321,725.1,1314.3,737.2z"/>
			</g>
		</mask>
		<linearGradient id="SVGID_3_" gradientUnits="userSpaceOnUse" x1="1318.557" y1="757.8202" x2="1336.9843" y2="746.8846">
			<stop  offset="0" style="stop-color:#FFFFFF"/>
			<stop  offset="0.9974" style="stop-color:#F8C0C0"/>
		</linearGradient>
		<path class="st9" d="M1314.3,737.2c-3.2,5.7-2.7,16.3,0.8,30l26.2,4.8c0,0-9.4-27.9-10.2-47.9
			C1331.1,724.2,1321,725.1,1314.3,737.2z"/>
		<defs>
			<filter id="Adobe_OpacityMaskFilter_2_" filterUnits="userSpaceOnUse" x="1368.1" y="662.8" width="23.3" height="28.7">
				<feFlood  style="flood-color:white;flood-opacity:1" result="back"/>
				<feBlend  in="SourceGraphic" in2="back" mode="normal"/>
			</filter>
		</defs>
		<mask maskUnits="userSpaceOnUse" x="1368.1" y="662.8" width="23.3" height="28.7" id="SVGID_4_">
			<g class="st10">
				<defs>
					<filter id="Adobe_OpacityMaskFilter_3_" filterUnits="userSpaceOnUse" x="1368.1" y="662.8" width="23.3" height="28.7">
						<feFlood  style="flood-color:white;flood-opacity:1" result="back"/>
						<feBlend  in="SourceGraphic" in2="back" mode="normal"/>
					</filter>
				</defs>
				<mask maskUnits="userSpaceOnUse" x="1368.1" y="662.8" width="23.3" height="28.7" id="SVGID_4_">
					<g class="st11">
					</g>
				</mask>
				<linearGradient id="SVGID_5_" gradientUnits="userSpaceOnUse" x1="1381.3224" y1="679.4" x2="1368.5325" y2="673.9186">
					<stop  offset="0" style="stop-color:#000000"/>
					<stop  offset="0.9974" style="stop-color:#FFFFFF"/>
				</linearGradient>
				<path class="st12" d="M1391.4,670c-2-2.8-4-5.9-8.1-6.7c-7.6-1.7-15.2,1.7-15.2,1.7c1.5,17.2,1.5,26.6,1.5,26.6L1391.4,670z"/>
			</g>
		</mask>
		<linearGradient id="SVGID_6_" gradientUnits="userSpaceOnUse" x1="1381.3224" y1="679.4" x2="1368.5325" y2="673.9186">
			<stop  offset="0" style="stop-color:#FFFFFF"/>
			<stop  offset="0.9974" style="stop-color:#F8C0C0"/>
		</linearGradient>
		<path class="st13" d="M1391.4,670c-2-2.8-4-5.9-8.1-6.7c-7.6-1.7-15.2,1.7-15.2,1.7c1.5,17.2,1.5,26.6,1.5,26.6L1391.4,670z"/>
	</g>
</g>
<g>
	<path class="st14" d="M1115.1,373.2c30.6,0,50.4,21,48.6,72.5c-1.8,51.5-40.5,64.1-61.1,61L1115.1,373.2z"/>
	<path class="st14" d="M837.8,373.2c-30.6,0-50.4,21-48.6,72.5s40.5,64.1,61.1,61L837.8,373.2z"/>
	<path class="st15" d="M844.4,463.2c1.8,58.4-12.6,103.4-0.9,130.4c11.7,27,48.6,50.4,143.9,48.6c95.3-1.8,121.4-22.5,125-55.7
		s-17.1-118.7-17.1-118.7L844.4,463.2z"/>
	<path class="st16" d="M1138.5,747.2c-43.8-11.5-101.5-17.4-152-16.1c-59.2,1.6-117,6-184.8,31.1c29.3-26.4,47.8-50,52.6-63.4
		c9.9-27.9,5.4-137.6-2.7-197.8l233.8,34.2c0,0,5.4,62.9,9,118.7C1096.5,686,1111.1,717,1138.5,747.2z"/>
	<path class="st15" d="M860.6,259.9c37.8-68.1,89.9-64.7,105.2-79.1c15.3-14.4,30.6-36,61.1-43.2c30.6-7.2,51.3-20.7,60.2-12.6
		c9,8.1,7.2,21.6,19.8,20.7c12.6-0.9,24.3,4.5,28.8,16.2s-2.7,29.7,0,45c2.7,15.3,12.6,6.3,9.9,32.4c-2.7,26.1-18,31.5-23.4,52.2
		c-5.4,20.7,5.4,76.4-0.9,143.9c-6.3,67.4-45,175.3-73.7,184.3c-28.8,9-113.3,19.8-134-1.8c-20.7-21.6-66.5-85.4-75.5-161.9
		C829.1,379.5,838.1,300.4,860.6,259.9z"/>
	<g class="st17">
		<g>
			<path class="st18" d="M956.4,227.1c16.4-26.5,30.4-29.9,50-30.3c41.3-0.9,20.3-43.3,82.6-36.7c-11.1,3-25.8,6.9-35.2,13.4
				c-8.7,6.8-11.6,28.1-36.7,32.8C992.8,210.9,996.1,196.5,956.4,227.1z"/>
		</g>
		<g>
			<path class="st18" d="M956.4,227.1c16.4-26.5,30.4-29.9,50-30.3c41.3-0.9,20.3-43.3,82.6-36.7c-11.1,3-25.8,6.9-35.2,13.4
				c-8.7,6.8-11.6,28.1-36.7,32.8C992.8,210.9,996.1,196.5,956.4,227.1z"/>
		</g>
	</g>
	<g class="st17">
		<g>
			<path class="st18" d="M998.2,254.5c5.6-21.5,22.1-26.3,43.5-24.1c30.2,3,25.2-5.4,38.4-18c9.7-9.2,20.9-12.8,33.6-9.6
				c-16.3,2.6-23.6,8.1-31.8,21.8C1057.8,264.8,1028.2,216.7,998.2,254.5z"/>
		</g>
		<g>
			<path class="st18" d="M998.2,254.5c5.6-21.5,22.1-26.3,43.5-24.1c30.2,3,25.2-5.4,38.4-18c9.7-9.2,20.9-12.8,33.6-9.6
				c-16.3,2.6-23.6,8.1-31.8,21.8C1057.8,264.8,1028.2,216.7,998.2,254.5z"/>
		</g>
	</g>
	<path class="blue_x0020_shade_x0020_38" d="M1028.1,581.4c-26.3-9.4-49.2-31.7-79.6-62.7c-28-28.6-92.2-142.4-101.4-224.4
		c-12.2,43.1-15.9,103.2-9,161.7c9,76.4,54.8,140.3,75.5,161.9c20.7,21.6,105.2,10.8,134,1.8c8.3-2.6,17.4-13.4,26.3-29
		C1061.5,589.4,1043.4,586.9,1028.1,581.4z"/>
	<path class="blue_x0020_shade_x0020_38" d="M1121.4,435.3c6.3-67.4-4.5-123.2,0.9-143.9c5.4-20.7,20.7-26.1,23.4-52.2
		c2.7-26.1-7.2-17.1-9.9-32.4c-1.5-8.3,0-17.5,0.9-25.9c-2.9,3.6-6,7.4-8.8,10.6c-8.1,9.4,6.1,31-13.5,42.5
		c-19.6,11.5-11.5,25.6-35.1,31.7c-23.6,6.1-29.7,5.4-41.1,20.9c0,0,58.7,36.4,65.4,97.1c5.9,52.7-12.7,156.2-17.7,182.5
		C1103.1,527.2,1117.7,474.4,1121.4,435.3z"/>
	<path class="st4" d="M1450.5,1078.2H477.5c10.8-106.1,89.9-184.8,192.4-235.1c52.9-26,98.5-55.3,131.7-80.9
		c67.8-25,125.5-29.5,184.8-31.1c50.5-1.3,108.3,4.5,152,16.1c19.9,22,53.7,39.6,87.1,60.8c79.1,50.3,147.4,74.2,188.8,140.7
		C1455.9,1015.3,1450.5,1078.2,1450.5,1078.2z"/>
	<g class="st17">
		<g>
			<path class="st18" d="M622.3,1076.4c17.9-36.1,39.3-46.8,74.4-60.4c25.6-9.9,25.8-20.7,42.2-42.3c27.4-35.9,66.9-20.5,89.3-37.6
				c-7.3,8.7-18.1,11.9-28.8,14.9c-57,15.8-45.7,26.1-70.5,55.7C702,1038.9,670.7,1016.8,622.3,1076.4z"/>
		</g>
		<g>
			<path class="st19" d="M622.3,1076.4c17.9-36.1,39.3-46.8,74.4-60.4c25.6-9.9,25.8-20.7,42.2-42.3c27.4-35.9,66.9-20.5,89.3-37.6
				c-7.3,8.7-18.1,11.9-28.8,14.9c-57,15.8-45.7,26.1-70.5,55.7C702,1038.9,670.7,1016.8,622.3,1076.4z"/>
		</g>
	</g>
	<g class="st17">
		<g>
			<path class="st18" d="M1052.4,931.2c40,4.9,57.2,21.5,81.7,50.1c17.8,20.8,28.1,17.4,54,25.7c42.5,13.7,41.9,56.4,65.1,71.7
				c-10.6-4-17.3-13.1-23.6-22.2c-33.9-48.5-39.8-34.4-76-48C1114.4,993.8,1124.7,956.9,1052.4,931.2z"/>
		</g>
		<g>
			<path class="st19" d="M1052.4,931.2c40,4.9,57.2,21.5,81.7,50.1c17.8,20.8,28.1,17.4,54,25.7c42.5,13.7,41.9,56.4,65.1,71.7
				c-10.6-4-17.3-13.1-23.6-22.2c-33.9-48.5-39.8-34.4-76-48C1114.4,993.8,1124.7,956.9,1052.4,931.2z"/>
		</g>
	</g>
	<g class="st17">
		<g>
			<path class="st18" d="M993.7,973.4c-4.8,58.2,8.8,77.3-17.1,104.3C992.9,1019.3,969.4,1011.2,993.7,973.4z"/>
		</g>
		<g>
			<path class="st19" d="M993.7,973.4c-4.8,58.2,8.8,77.3-17.1,104.3C992.9,1019.3,969.4,1011.2,993.7,973.4z"/>
		</g>
	</g>
	<g class="st17">
		<g>
			<path class="st18" d="M941.5,993.2c6,25.5,16.5,36.4,15.7,48.6c-0.8,12.2-10.6,27.1-21.1,35c3.9-11.2,10.6-27.5,10.5-35.2
				C947.3,1032.8,933.7,1013.9,941.5,993.2z"/>
		</g>
		<g>
			<path class="st19" d="M941.5,993.2c6,25.5,16.5,36.4,15.7,48.6c-0.8,12.2-10.6,27.1-21.1,35c3.9-11.2,10.6-27.5,10.5-35.2
				C947.3,1032.8,933.7,1013.9,941.5,993.2z"/>
		</g>
	</g>
</g>
</svg>
