<?xml version="1.0" encoding="utf-8"?>
<!-- Generator: Adobe Illustrator 16.0.0, SVG Export Plug-In . SVG Version: 6.00 Build 0)  -->
<!DOCTYPE svg PUBLIC "-//W3C//DTD SVG 1.1//EN" "http://www.w3.org/Graphics/SVG/1.1/DTD/svg11.dtd">
<svg version="1.1" id="Ebene_1" xmlns="http://www.w3.org/2000/svg" xmlns:xlink="http://www.w3.org/1999/xlink" x="0px" y="0px"
	 width="850.389px" height="325.555px" viewBox="0 262.417 850.389 325.555" enable-background="new 0 262.417 850.389 325.555"
	 xml:space="preserve">
<g>
	<path fill="#F9FAFB" d="M463.669,587.973h19.73l0,0c59.192-2.96,100.626-49.326,100.626-104.572
		c0-18.744-3.945-37.488-12.824-52.286H463.669V587.973z"/>
	<rect x="355.151" y="430.128" fill="#F9FAFB" width="98.653" height="157.845"/>
	<path fill="#F9FAFB" d="M565.281,420.263c-9.865-13.812-23.676-24.664-38.475-32.556c17.758-12.825,29.597-33.542,29.597-56.232
		c0-38.475-30.583-69.057-69.058-69.057h-23.677v157.845H565.281z"/>
	<rect x="355.151" y="262.417" fill="#F9FAFB" width="98.653" height="157.845"/>
	<path fill="#F9FAFB" d="M730.032,587.973h19.73l0,0c59.192-2.96,100.626-49.326,100.626-104.572
		c0-18.744-3.945-37.488-12.824-52.286H730.032V587.973z"/>
	<rect x="621.514" y="430.128" fill="#F9FAFB" width="98.653" height="157.845"/>
	<path fill="#F9FAFB" d="M831.646,420.263c-9.865-13.812-23.677-24.664-38.476-32.556c17.758-12.825,29.597-33.542,29.597-56.232
		c0-38.475-30.583-69.057-69.058-69.057h-23.677v157.845H831.646z"/>
	<rect x="621.514" y="262.417" fill="#F9FAFB" width="98.653" height="157.845"/>
	<polygon fill="#F9FAFB" points="56.233,430.128 0,587.973 81.882,587.973 105.559,518.916 157.845,518.916 157.845,430.128 	"/>
	<polygon fill="#F9FAFB" points="157.845,262.417 115.424,262.417 59.192,420.263 157.845,420.263 	"/>
	<polygon fill="#F9FAFB" points="167.71,518.916 219.996,518.916 243.673,587.973 325.555,587.973 269.323,430.128 167.71,430.128 	
		"/>
	<polygon fill="#F9FAFB" points="266.364,420.263 210.131,262.417 167.71,262.417 167.71,420.263 	"/>
</g>
</svg>
