<svg xmlns="http://www.w3.org/2000/svg" xmlns:xlink="http://www.w3.org/1999/xlink" xmlns:serif="http://www.serif.com/" version="1.1" xml:space="preserve" style="fill-rule:evenodd;clip-rule:evenodd;stroke-linejoin:round;stroke-miterlimit:2;" viewBox="617.7 395.02 3027.74 716.53"><path id="path463" d="M2306.12,581.821c7.07,0 12.373,-5.303 12.373,-12.373l0,-27.399c0,-7.071 -5.303,-12.374 -12.373,-12.374c-201.512,0 -201.512,45.075 -201.512,68.055l0,231.562c0,7.07 5.303,12.373 12.374,12.373l80.427,0c7.071,0 12.374,-5.303 12.374,-12.373l0,-214.769c-0.884,-9.723 -0.884,-32.702 96.337,-32.702Zm-789.255,198.86l0,-182.951c0,-22.98 0,-68.055 -201.511,-68.055c-194.442,0 -194.442,45.075 -194.442,68.055l0,16.793c0,7.07 5.303,12.373 12.374,12.373l80.428,0c7.07,0 12.373,-5.303 12.373,-12.373c0,-9.723 0,-32.702 90.15,-32.702c97.221,0 97.221,22.979 97.221,32.702l-0,49.494c-25.631,-2.652 -57.449,-4.419 -97.221,-4.419c-201.511,-0 -201.511,45.075 -201.511,68.054l-0,53.029c-0,22.98 -0,68.055 201.511,68.055c200.628,-0 200.628,-45.075 200.628,-68.055Zm-105.175,-17.676c0,9.722 0,32.701 -97.22,32.701c-97.221,0 -97.221,-22.979 -97.221,-32.701l0,-18.56c0,-9.722 0,-33.586 97.221,-33.586c97.22,0 97.22,22.98 97.22,33.586l0,18.56Zm600.117,16.793l-0,-182.068c-0,-22.98 -0,-68.055 -201.512,-68.055c-39.772,0 -71.59,1.768 -97.221,4.42l0,-122.852c0,-7.07 -5.303,-12.373 -12.373,-12.373l-80.428,-0c-7.071,-0 -12.374,5.303 -12.374,12.373l0,368.555c0,22.979 0,68.054 201.512,68.054c202.396,0.884 202.396,-45.075 202.396,-68.054Zm-297.849,-16.793l-0,-148.482c-0,-9.723 -0,-32.702 97.221,-32.702c97.22,0 97.22,22.979 97.22,32.702l0,148.482c0,9.722 0,32.701 -97.22,32.701c-97.221,0 -97.221,-22.979 -97.221,-32.701Zm839.632,85.731c201.512,-0 201.512,-45.075 201.512,-68.055l0,-182.951c0,-22.98 0,-68.055 -201.512,-68.055c-194.441,0 -194.441,45.075 -194.441,68.055l0,16.793c0,7.07 5.303,12.373 12.374,12.373l80.428,0c7.07,0 12.373,-5.303 12.373,-12.373c0,-9.723 0,-32.702 89.266,-32.702c97.221,0 97.221,22.979 97.221,32.702l-0,49.494c-25.631,-2.652 -57.449,-4.419 -97.221,-4.419c-201.511,-0 -201.511,45.075 -201.511,68.054l-0,53.029c-0.884,22.98 -0.884,68.055 201.511,68.055Zm-97.22,-104.291c-0,-9.722 -0,-33.586 97.22,-33.586c97.221,0 97.221,22.98 97.221,33.586l-0,18.56c-0,9.722 -0,32.701 -97.221,32.701c-97.22,0 -97.22,-22.979 -97.22,-32.701l-0,-18.56Zm-1444.17,-344.692l-80.428,0c-7.07,0 -12.373,5.303 -12.373,12.374l-0,351.762c-0,9.722 -0,32.701 -97.221,32.701c-92.801,0 -96.337,-21.212 -97.221,-31.817l0,-15.909c0,-7.071 -5.303,-12.374 -12.373,-12.374l-80.428,0c-7.071,0 -12.374,5.303 -12.374,12.374l0,30.934c0,22.979 0,68.054 201.512,68.054c201.512,-0 201.512,-45.075 201.512,-68.054l-0,-368.555c2.651,-6.187 -3.535,-11.49 -10.606,-11.49Zm-353.529,620.445l-30.05,-0c-4.419,-0 -7.071,3.535 -7.071,7.07l0,74.241c0,4.419 3.535,7.071 7.071,7.071l30.05,-0c4.419,-0 7.07,-3.535 7.07,-7.071l0,-74.241c0.884,-3.535 -2.651,-7.07 -7.07,-7.07Zm150.25,-0l-34.469,-0c-4.42,-0 -7.955,3.535 -7.955,7.954l0,73.357c0,4.419 3.535,7.955 7.955,7.955l34.469,-0c4.419,-0 7.954,-3.536 7.954,-7.955l0,-73.357c-0.884,-4.419 -4.419,-7.954 -7.954,-7.954Zm149.366,-0l-39.772,-0c-4.419,-0 -7.955,3.535 -7.955,7.954l0,72.474c0,4.419 3.536,7.954 7.955,7.954l39.772,-0c4.419,-0 7.954,-3.535 7.954,-7.954l0,-72.474c0,-4.419 -3.535,-7.954 -7.954,-7.954Zm149.366,-0l-44.191,-0c-4.419,-0 -7.955,3.535 -7.955,7.954l0,72.474c0,4.419 3.536,7.954 7.955,7.954l44.191,-0c4.419,-0 7.954,-3.535 7.954,-7.954l0,-72.474c0.884,-4.419 -3.535,-7.954 -7.954,-7.954Zm150.25,-0l-49.494,-0c-4.419,-0 -8.838,3.535 -8.838,8.838l-0,71.59c-0,4.419 3.535,8.838 8.838,8.838l49.494,-0c4.419,-0 8.838,-3.536 8.838,-8.838l0,-71.59c-0.884,-4.419 -4.419,-8.838 -8.838,-8.838Zm149.366,-0l-53.913,-0c-5.303,-0 -8.838,4.419 -8.838,8.838l-0,70.706c-0,5.303 4.419,8.838 8.838,8.838l53.913,-0c5.303,-0 8.838,-4.419 8.838,-8.838l0,-70.706c0,-4.419 -4.419,-8.838 -8.838,-8.838Zm149.366,-0l-59.216,-0c-5.303,-0 -9.722,4.419 -9.722,9.722l0,69.822c0,5.303 4.419,9.722 9.722,9.722l59.216,-0c5.303,-0 9.722,-4.419 9.722,-9.722l0,-69.822c0,-5.303 -4.419,-9.722 -9.722,-9.722Zm149.367,-0l-63.636,-0c-5.303,-0 -9.722,4.419 -9.722,9.722l0,69.822c0,5.303 4.419,9.722 9.722,9.722l63.636,-0c5.303,-0 9.722,-4.419 9.722,-9.722l-0,-69.822c-0,-5.303 -3.536,-9.722 -9.722,-9.722Zm150.25,-0l-68.939,-0c-5.303,-0 -9.722,4.419 -9.722,9.722l0,68.938c0,5.303 4.419,9.722 9.722,9.722l68.939,-0c5.303,-0 9.722,-4.419 9.722,-9.722l-0,-68.938c-0,-5.303 -4.419,-9.722 -9.722,-9.722Zm149.366,-0l-73.358,-0c-6.186,-0 -10.605,4.419 -10.605,10.605l-0,68.055c-0,6.187 4.419,10.606 10.605,10.606l73.358,-0c6.187,-0 10.606,-4.419 10.606,-10.606l-0,-68.055c-0,-5.302 -4.419,-10.605 -10.606,-10.605Zm149.366,-0l-77.777,-0c-6.186,-0 -10.605,4.419 -10.605,10.605l-0,67.171c-0,6.187 4.419,10.606 10.605,10.606l77.777,-0c6.187,-0 10.606,-4.419 10.606,-10.606l-0,-67.171c0.884,-5.302 -4.419,-10.605 -10.606,-10.605Zm1108.32,-0l-1033.19,-0c-10.606,-0 -19.444,8.838 -19.444,19.444l-0,49.494c-0,10.606 8.838,19.444 19.444,19.444l1033.19,-0c10.606,-0 19.444,-8.838 19.444,-19.444l-0,-49.494c-0,-10.606 -8.838,-19.444 -19.444,-19.444Zm353.529,-623.096c-14.141,-0 -24.747,12.373 -24.747,26.515l0,182.067c0,4.419 -5.303,6.187 -7.954,3.536l-205.931,-204.164c-7.955,-7.954 -21.212,-9.722 -31.818,-3.535c-7.954,4.419 -12.373,13.257 -12.373,22.096l-0,256.308c-0,14.142 11.489,25.631 26.514,25.631c14.142,0 25.631,-12.373 25.631,-26.514l0,-182.068c0,-4.419 5.303,-6.187 7.955,-3.535l205.047,205.047c5.303,5.303 11.489,7.954 18.56,7.954c4.419,0 8.838,-0.884 13.257,-3.535c7.955,-4.419 12.374,-13.257 12.374,-22.98l-0,-257.192c-0.884,-14.141 -12.374,-25.631 -26.515,-25.631Zm-359.716,129.038l-76.009,0c-14.141,0 -26.515,11.49 -26.515,25.631c0,14.141 11.49,26.515 25.631,26.515l45.075,-0c3.536,-0 6.187,2.651 6.187,6.187l0,64.519c0,3.535 -2.651,6.186 -6.187,6.186l-94.569,0c-60.1,0 -107.826,-48.61 -104.291,-108.71c2.651,-53.913 47.726,-97.22 102.524,-97.22l127.27,-0c14.141,-0 26.515,-11.49 26.515,-25.631c-0,-14.142 -11.49,-26.515 -25.631,-26.515l-126.387,-0c-82.195,-0 -152.017,64.519 -156.437,146.715c-4.419,88.382 66.287,161.739 153.786,161.739l128.154,0c14.141,0 25.631,-11.489 25.631,-25.631l0,-128.154c1.768,-14.141 -9.722,-25.631 -24.747,-25.631Z" style="fill:#fff;fill-rule:nonzero;stroke:#fff;stroke-width:4.17px;"></path></svg>