<?xml version="1.0" encoding="utf-8"?>
<!-- Generator: Adobe Illustrator 16.0.0, SVG Export Plug-In . SVG Version: 6.00 Build 0)  -->
<!DOCTYPE svg PUBLIC "-//W3C//DTD SVG 1.1//EN" "http://www.w3.org/Graphics/SVG/1.1/DTD/svg11.dtd">
<svg version="1.1" id="Layer_1" xmlns="http://www.w3.org/2000/svg" xmlns:xlink="http://www.w3.org/1999/xlink" x="0px" y="0px"
	 width="792.392px" height="126.138px" viewBox="26.999 361.412 792.392 126.138"
	 enable-background="new 26.999 361.412 792.392 126.138" xml:space="preserve">
<g id="Ebene_x0020_1">
	<path fill="#F9FAFB" d="M810.391,365.841v23.57c-12.285-4.571-23.142-7-32.713-7c-5.714,0-10.142,1-13.57,3
		s-5.143,4.571-5.143,7.571c0,4,3.857,7.428,11.428,10.57l22.143,10.857c17.999,8.57,26.855,19.855,26.855,34.141
		c0,11.857-4.714,21.285-14.285,28.285c-9.428,7.143-22.142,10.57-37.998,10.57c-7.285,0-13.856-0.285-19.714-1
		c-5.856-0.571-12.57-1.856-19.999-3.714v-24.57c13.571,4.571,25.999,7,37.284,7c13.285,0,19.999-3.857,19.999-11.714
		c0-3.857-2.714-7-8.285-9.429l-24.713-10.57c-9.143-4.143-15.856-9.143-20.285-14.999c-4.285-6-6.571-12.857-6.571-20.571
		c0-10.856,4.571-19.713,13.714-26.427c9.143-6.571,21.285-10,36.427-10c4.857,0,10.571,0.429,16.856,1.286
		C798.392,363.555,804.534,364.555,810.391,365.841L810.391,365.841z"/>
	<path fill="#F9FAFB" d="M112.281,365.841v23.57c-12.285-4.571-23.142-6.857-32.713-6.857c-5.714,0-10.143,1-13.57,3
		c-3.429,2-5.143,4.571-5.143,7.571c0,4,3.856,7.429,11.57,10.571l22.142,10.856c17.856,8.571,26.856,19.856,26.856,34.142
		c0,11.856-4.714,21.284-14.143,28.284c-9.57,7.143-22.142,10.571-38.141,10.571c-7.285,0-13.856-0.286-19.714-1
		c-5.856-0.572-12.428-1.857-19.999-3.715v-24.713c13.714,4.571,26.142,7,37.284,7c13.285,0,19.999-3.857,19.999-11.714
		c0-3.857-2.714-7-8.143-9.429l-24.713-10.57c-9.143-4.143-15.856-9.143-20.285-14.999c-4.428-6-6.57-12.857-6.57-20.571
		c0-10.856,4.57-19.713,13.713-26.427c9.143-6.571,21.285-10,36.427-10c5,0,10.571,0.429,16.856,1.286
		C100.281,363.555,106.424,364.555,112.281,365.841z"/>
	<polygon fill="#F9FAFB" points="137.708,363.698 173.849,363.698 173.849,485.406 137.708,485.406 	"/>
	<polygon fill="#F9FAFB" points="290.273,363.698 290.273,386.125 236.561,386.125 236.561,413.124 283.13,413.124 283.13,433.409 
		236.561,433.409 236.561,461.693 291.415,461.693 291.415,485.406 201.848,485.406 201.848,363.698 	"/>
	<polygon fill="#F9FAFB" points="458.979,363.698 458.979,485.406 425.266,485.406 425.266,405.125 390.268,486.406 
		369.411,486.406 335.698,405.125 335.698,485.406 311.414,485.406 311.414,363.698 355.412,363.698 385.554,438.123 
		417.123,363.698 	"/>
	<polygon fill="#F9FAFB" points="575.402,363.698 575.402,386.125 521.976,386.125 521.976,413.124 568.545,413.124 
		568.545,433.409 521.976,433.409 521.976,461.693 576.545,461.693 576.545,485.406 486.978,485.406 486.978,363.698 	"/>
	<polygon fill="#F9FAFB" points="702.253,363.698 702.253,485.406 663.969,485.406 620.828,407.268 620.828,485.406 
		596.544,485.406 596.544,363.698 635.971,363.698 677.826,440.408 677.826,363.698 	"/>
</g>
</svg>
