<?xml version="1.0" encoding="utf-8"?>
<!-- Generator: Adobe Illustrator 24.0.0, SVG Export Plug-In . SVG Version: 6.00 Build 0)  -->
<svg version="1.1" id="Layer_1" xmlns="http://www.w3.org/2000/svg" xmlns:xlink="http://www.w3.org/1999/xlink" x="0px" y="0px"
	 viewBox="0 0 595.3 141.7" style="enable-background:new 0 0 595.3 141.7;" xml:space="preserve">
<style type="text/css">
	.st0{fill-rule:evenodd;clip-rule:evenodd;}
</style>
<g id="Ebene_x0020_1">
	<path class="st0" d="M567.3,29.3v16.5c-8.6-3.2-16.2-4.9-22.9-4.9c-4,0-7.1,0.7-9.5,2.1c-2.4,1.4-3.6,3.2-3.6,5.3
		c0,2.8,2.7,5.2,8,7.4l15.5,7.6c12.6,6,18.8,13.9,18.8,23.9c0,8.3-3.3,14.9-10,19.8c-6.6,5-15.5,7.4-26.6,7.4
		c-5.1,0-9.7-0.2-13.8-0.7c-4.1-0.4-8.8-1.3-14-2.6V93.9c9.5,3.2,18.2,4.9,26.1,4.9c9.3,0,14-2.7,14-8.2c0-2.7-1.9-4.9-5.8-6.6
		l-17.3-7.4c-6.4-2.9-11.1-6.4-14.2-10.5c-3-4.2-4.6-9-4.6-14.4c0-7.6,3.2-13.8,9.6-18.5c6.4-4.6,14.9-7,25.5-7
		c3.4,0,7.4,0.3,11.8,0.9C558.9,27.7,563.2,28.4,567.3,29.3L567.3,29.3z"/>
	<path class="st0" d="M78.6,29.3v16.5C70,42.6,62.4,41,55.7,41c-4,0-7.1,0.7-9.5,2.1c-2.4,1.4-3.6,3.2-3.6,5.3
		c0,2.8,2.7,5.2,8.1,7.4l15.5,7.6c12.5,6,18.8,13.9,18.8,23.9c0,8.3-3.3,14.9-9.9,19.8c-6.7,5-15.5,7.4-26.7,7.4
		c-5.1,0-9.7-0.2-13.8-0.7c-4.1-0.4-8.7-1.3-14-2.6V93.9c9.6,3.2,18.3,4.9,26.1,4.9c9.3,0,14-2.7,14-8.2c0-2.7-1.9-4.9-5.7-6.6
		l-17.3-7.4c-6.4-2.9-11.1-6.4-14.2-10.5c-3.1-4.2-4.6-9-4.6-14.4c0-7.6,3.2-13.8,9.6-18.5c6.4-4.6,14.9-7,25.5-7
		c3.5,0,7.4,0.3,11.8,0.9C70.2,27.7,74.5,28.4,78.6,29.3z"/>
	<polygon class="st0" points="96.4,27.8 121.7,27.8 121.7,113 96.4,113 	"/>
	<polygon class="st0" points="203.2,27.8 203.2,43.5 165.6,43.5 165.6,62.4 198.2,62.4 198.2,76.6 165.6,76.6 165.6,96.4 204,96.4 
		204,113 141.3,113 141.3,27.8 	"/>
	<polygon class="st0" points="321.3,27.8 321.3,113 297.7,113 297.7,56.8 273.2,113.7 258.6,113.7 235,56.8 235,113 218,113 
		218,27.8 248.8,27.8 269.9,79.9 292,27.8 	"/>
	<polygon class="st0" points="402.8,27.8 402.8,43.5 365.4,43.5 365.4,62.4 398,62.4 398,76.6 365.4,76.6 365.4,96.4 403.6,96.4 
		403.6,113 340.9,113 340.9,27.8 	"/>
	<polygon class="st0" points="491.6,27.8 491.6,113 464.8,113 434.6,58.3 434.6,113 417.6,113 417.6,27.8 445.2,27.8 474.5,81.5 
		474.5,27.8 	"/>
</g>
</svg>
