<svg xmlns="http://www.w3.org/2000/svg" width="217" height="50" viewBox="0 0 217 50"><defs><style>.cls-1{fill:#fff;}</style></defs><g id="Visma_Logo_Large" data-name="Visma Logo Large"><path class="cls-1" d="M197.31,5,186.22,45h9L200,25.9a42.25,42.25,0,0,0,.94-5.25,47.87,47.87,0,0,0,1.11,5.15L206.85,45h9.2L204.48,5ZM92.94,5,88.12,24.1a42.3,42.3,0,0,0-1,5.25,45.1,45.1,0,0,0-1.11-5.15L81.29,5H72.1L83.66,45h7.18L101.92,5Zm14.22,0V45h8.61V5Zm59.75,0L164,26.6,160.46,5H149.35l-3.5,40h9.2l1-25,.88,5.89L160.81,45h6.8L171,26.06l.88-6.8L173.6,45h8.82L178.23,5ZM134.37,21.51c-2-3.37-4.17-7.21-2.11-12.19A10,10,0,0,1,135.37,5H125.21s-.69,1.29-1,2c-3.29,8-.19,13.77,2.82,19.39,2.49,4.67,5.08,9.5,2.89,14.78A10,10,0,0,1,127,45h10.23s.53-1,.75-1.57c3.19-7.68,1.5-13.08-2.77-20.39C135,22.51,134.65,22,134.37,21.51Z"/><path class="cls-1" d="M23,5,43.12,35.93,5.89,8.42c-6.5,4.55-6.7,12.79.49,21,9.4,10.78,27.88,17.47,41.27,15s16.64-13.29,7.23-24.06C47.55,11.93,34.67,6,23,5Z"/></g></svg>