<?xml version="1.0" encoding="utf-8"?>
<!-- Generator: Adobe Illustrator 24.0.0, SVG Export Plug-In . SVG Version: 6.00 Build 0)  -->
<svg version="1.1" id="Layer_1" xmlns="http://www.w3.org/2000/svg" xmlns:xlink="http://www.w3.org/1999/xlink" x="0px" y="0px"
	 viewBox="0 0 1197.2 246" style="enable-background:new 0 0 1197.2 246;" xml:space="preserve">
<style type="text/css">
	.st0{fill:#121212;}
</style>
<g>
	<path class="st0" d="M646.7,44.8c-9.8,0-17.3,7.5-17.3,17.2s7.5,17.1,17.3,17.1c9.5,0,17.3-7.7,17.3-17.2S656.2,44.8,646.7,44.8z"
		/>
	<rect x="632.4" y="89.1" class="st0" width="28.9" height="113"/>
	<path class="st0" d="M811,85.8c-33,0-57,25-57,59.4c0,35.5,24.1,59.4,60.1,59.4c19.1,0,34.8-5.4,44.3-14.8l0.1-0.1v-26.5l-1,0.9
		c-11.5,10-25.6,15.8-38.7,15.8c-21.8,0-36.4-10.9-39-29.2h82.2l0.1-0.5c2.4-19.1-2.1-36-12.6-47.9C840.3,91.5,826.9,85.8,811,85.8z
		 M780.8,131.1c3.5-14.6,13.9-23.3,28-23.3c13.7,0,23.8,9.5,25,23.3H780.8z"/>
	<path class="st0" d="M938.9,85.8c-16.6,0-30.1,7.3-37.4,20.1V89.1h-28.9V246h28.9v-61.4c7.3,12.8,20.8,20.1,37.4,20.1
		c31.8,0,55.6-25.6,55.6-59.4S970.7,85.8,938.9,85.8z M965.1,145.3c0,18.8-13.7,33-31.9,33c-18.2,0-31.8-14.3-31.8-33
		s13.7-33,31.9-33C951.6,112.3,965.1,126.5,965.1,145.3z"/>
	<path class="st0" d="M1045.9,85.8c-14.6,0-29,5.1-38.8,13.4l-0.3,0.1V125l1-0.9c9.7-8.8,21.5-14.1,33.4-14.1
		c17.9,0,29.2,9.3,29.2,24.4v6.4c-7.7-5.5-18.5-8.8-29.2-8.8c-23.8,0-40.5,14.7-40.5,35.6c0,21.5,16.4,37,39,37
		c13.1,0,24.9-6.7,30.8-17.1v14.4h28.9v-69C1099.2,104.8,1077.7,85.8,1045.9,85.8z M1070.3,159v0.6c-0.4,13.1-10.2,23-22.5,23
		c-11.3,0-19.5-6.5-19.5-15.7c0-8.9,8.2-15.4,19.5-15.4C1055.6,151.6,1063.9,154.4,1070.3,159z"/>
	<path class="st0" d="M1191.8,96.4v27.1c-9.2-7.3-24.2-12.1-38.2-12.1c-9.3,0-15.2,3.8-15.2,9.8c0,4.9,3.4,8,12.3,10.2l14.4,3.4
		c23.7,5.3,32,17.9,32,34.4c0,22-16.4,34.9-46.2,34.9c-13.3,0-28.6-5.1-41.3-13.3l0.3-27.4c12.1,9.8,29.1,15.9,43.8,15.9
		c10,0,15.7-4.3,15.7-10.7c0-5.5-3.6-8.9-12.6-11l-13.3-3.1c-24.5-5.5-32.4-18.2-32.4-32.6c0-26.2,21.1-35.5,43.8-35.5
		C1169,86.5,1182.9,90.5,1191.8,96.4z"/>
	<path class="st0" d="M704.3,108.9V89.1h-28.9v113h28.9v-52.2c0-40.2,38.2-39.5,48.8-32.1V90.2C746.6,85.3,714.6,80.1,704.3,108.9z"
		/>
	<polygon class="st0" points="594.1,47.3 561.8,151 529,47.3 497.3,47.3 464.6,151 432.2,47.3 400.2,47.3 449.7,201.8 449.9,201.9 
		479.6,201.9 513.1,97 546.7,201.9 576.4,201.9 626.1,47.3 	"/>
</g>
<path class="st0" d="M245.8,201.9c-1.1-18.3,3.1-36.5,12.6-52.8l58.9-101.9L245.9,6L187,107.9c-20.5,35.4-27.9,75.7-21.6,115.5
	L245.8,201.9z"/>
<path class="st0" d="M71.4,201.9c1.1-18.3-3.1-36.5-12.6-52.8L0,47.2L71.3,6l58.9,101.9c20.5,35.4,27.9,75.7,21.6,115.5L71.4,201.9z
	"/>
</svg>
