<?xml version="1.0" encoding="utf-8"?>
<!-- Generator: Adobe Illustrator 16.0.0, SVG Export Plug-In . SVG Version: 6.00 Build 0)  -->
<!DOCTYPE svg PUBLIC "-//W3C//DTD SVG 1.1//EN" "http://www.w3.org/Graphics/SVG/1.1/DTD/svg11.dtd">
<svg version="1.1" id="Layer_1" xmlns="http://www.w3.org/2000/svg" xmlns:xlink="http://www.w3.org/1999/xlink" x="0px" y="0px"
	 width="850.318px" height="170.475px" viewBox="0 342.088 850.318 170.475" enable-background="new 0 342.088 850.318 170.475"
	 xml:space="preserve">
<g>
	<g>
		<path fill="#F9FAFB" d="M459.361,369.648c-6.961,0-12.288,5.327-12.288,12.217s5.327,12.146,12.288,12.146
			c6.748,0,12.289-5.469,12.289-12.217S466.109,369.648,459.361,369.648z"/>
		<rect x="449.203" y="401.115" fill="#F9FAFB" width="20.528" height="80.266"/>
		<path fill="#F9FAFB" d="M576.066,398.771c-23.44,0-40.488,17.758-40.488,42.192c0,25.217,17.119,42.193,42.69,42.193
			c13.566,0,24.719-3.836,31.467-10.513l0.071-0.071V453.75l-0.711,0.639c-8.168,7.104-18.184,11.224-27.489,11.224
			c-15.484,0-25.855-7.743-27.702-20.741h58.388l0.071-0.355c1.705-13.567-1.491-25.571-8.95-34.024
			C596.878,402.82,587.36,398.771,576.066,398.771z M554.615,430.948c2.485-10.37,9.873-16.55,19.889-16.55
			c9.731,0,16.905,6.748,17.758,16.55H554.615z"/>
		<path fill="#F9FAFB" d="M666.915,398.771c-11.792,0-21.381,5.186-26.566,14.277v-11.934h-20.528v111.448h20.528V468.95
			c5.186,9.093,14.774,14.277,26.566,14.277c22.588,0,39.493-18.184,39.493-42.192S689.503,398.771,666.915,398.771z
			 M685.526,441.035c0,13.354-9.731,23.44-22.659,23.44s-22.589-10.157-22.589-23.44s9.731-23.44,22.659-23.44
			C675.936,417.595,685.526,427.682,685.526,441.035z"/>
		<path fill="#F9FAFB" d="M742.918,398.771c-10.37,0-20.599,3.622-27.56,9.518l-0.213,0.071v18.255l0.71-0.639
			c6.89-6.251,15.271-10.016,23.725-10.016c12.715,0,20.741,6.605,20.741,17.332v4.546c-5.47-3.907-13.141-6.251-20.741-6.251
			c-16.905,0-28.768,10.441-28.768,25.287c0,15.271,11.648,26.282,27.702,26.282c9.305,0,17.687-4.76,21.878-12.146v10.229h20.527
			v-49.012C780.779,412.268,765.507,398.771,742.918,398.771z M760.25,450.767v0.426c-0.284,9.306-7.245,16.338-15.982,16.338
			c-8.026,0-13.851-4.617-13.851-11.152c0-6.322,5.824-10.938,13.851-10.938C749.809,445.51,755.704,447.499,760.25,450.767z"/>
		<path fill="#F9FAFB" d="M846.554,406.301v19.249c-6.535-5.185-17.189-8.595-27.134-8.595c-6.606,0-10.797,2.699-10.797,6.961
			c0,3.481,2.415,5.683,8.736,7.246l10.229,2.415c16.835,3.765,22.73,12.714,22.73,24.435c0,15.627-11.649,24.79-32.816,24.79
			c-9.447,0-20.315-3.623-29.336-9.447l0.213-19.463c8.595,6.961,20.67,11.294,31.111,11.294c7.104,0,11.152-3.054,11.152-7.6
			c0-3.907-2.557-6.322-8.95-7.814l-9.447-2.201c-17.402-3.907-23.014-12.928-23.014-23.156c0-18.61,14.987-25.217,31.111-25.217
			C830.359,399.269,840.232,402.109,846.554,406.301z"/>
		<path fill="#F9FAFB" d="M500.275,415.18v-14.064h-20.528v80.266h20.528v-37.078c0-28.555,27.135-28.058,34.664-22.802v-19.604
			C530.322,398.416,507.591,394.723,500.275,415.18z"/>
		<polygon fill="#F9FAFB" points="421.998,371.424 399.055,445.084 375.757,371.424 353.24,371.424 330.012,445.084 
			306.998,371.424 284.268,371.424 319.429,481.168 319.571,481.239 340.667,481.239 364.462,406.727 388.329,481.239 
			409.426,481.239 444.729,371.424 		"/>
	</g>
	<path fill="#F9FAFB" d="M174.596,481.239c-0.782-12.999,2.201-25.927,8.949-37.505l41.838-72.381l-50.717-29.265l-41.837,72.381
		c-14.562,25.145-19.818,53.771-15.343,82.041L174.596,481.239z"/>
	<path fill="#F9FAFB" d="M50.716,481.239c0.782-12.999-2.201-25.927-8.949-37.505L0,371.353l50.646-29.265l41.837,72.381
		c14.562,25.145,19.818,53.771,15.343,82.041L50.716,481.239z"/>
</g>
</svg>
