<?xml version="1.0" encoding="utf-8"?>
<!-- Generator: Adobe Illustrator 24.0.0, SVG Export Plug-In . SVG Version: 6.00 Build 0)  -->
<svg version="1.1"
	 id="Layer_1" xmlns:cc="http://creativecommons.org/ns#" xmlns:dc="http://purl.org/dc/elements/1.1/" xmlns:rdf="http://www.w3.org/1999/02/22-rdf-syntax-ns#" xmlns:svg="http://www.w3.org/2000/svg"
	 xmlns="http://www.w3.org/2000/svg" xmlns:xlink="http://www.w3.org/1999/xlink" x="0px" y="0px" viewBox="0 0 705 147.6"
	 style="enable-background:new 0 0 705 147.6;" xml:space="preserve">
<path id="path3_2_" d="M444.9,109.7V37.1h-14.1v19.2h-12.1c-9.6,0-16.1,1.8-21.2,8.2c-3.8,4.9-5.8,10.7-5.8,17.8
	c0,17,9.4,27.3,26,27.3L444.9,109.7L444.9,109.7L444.9,109.7z M430.8,98.3h-9.6c-10.4,0-14.6-3.7-14.6-14.9
	c0-11.5,4.8-15.5,15.7-15.5h8.5V98.3L430.8,98.3z"/>
<path id="path5_2_" d="M458.3,56.4v11h23.5c8.9,0,12.8,1.8,12.8,8.6c0,0.4,0,0.8,0,1.3H476c-14.9,0-21.3,4.7-21.3,17
	c0,9.8,5.9,15.4,16.5,15.4h37.9V76.3c0-13.2-7.4-20-22-20L458.3,56.4L458.3,56.4L458.3,56.4z M477,99c-5.2,0-7.7-0.6-7.7-5.1
	c0-4.8,2.7-6,8.7-6h16.6v11L477,99L477,99L477,99z"/>
<path id="path7_2_" d="M515.3,56.4V67h9.9v26c0,10.9,5.9,16.7,16.1,16.7h12.9V99.1h-5.8c-7.2,0-9.1-3.1-9.1-10.5V67h14.9V56.4h-14.9
	V37.2h-14.1v19.2H515.3L515.3,56.4L515.3,56.4z"/>
<path id="path9_2_" d="M578.2,109.7V56.3h-14.8v53.4H578.2L578.2,109.7z M578.2,50.4V37.1h-14.8v13.3H578.2L578.2,50.4z"/>
<path id="path11_2_" d="M643.5,83.1c0-16.6-10.9-27.7-28.3-27.7c-17.4,0-28.4,11-28.4,27.7c0,16.5,10.9,27.5,28.4,27.5
	S643.5,99.6,643.5,83.1L643.5,83.1z M601.6,83.1c0-10.3,5.3-16.1,13.5-16.1c8.4,0,13.6,5.8,13.6,16.1s-5.3,16.1-13.6,16.1
	C606.8,99.2,601.6,93.4,601.6,83.1L601.6,83.1z"/>
<path id="path13_2_" d="M652,56.4v53.4h14.1V68.2h11.3c8,0,9.3,2.1,9.3,9.5v32.1h14.1V76c0-14.2-6.5-19.5-22.3-19.5L652,56.4
	L652,56.4L652,56.4z"/>
<polygon id="polygon23_2_" points="201.5,85 217,110.6 235.5,110.6 210.1,72.9 233.8,37.1 216,37.1 200.9,60.4 185.7,37.1 
	167.6,37.1 192.5,73.9 192.5,73.9 166.7,110.6 185.1,110.6 "/>
<polygon id="polygon25_2_" points="256.3,52.8 275.8,110.6 292.2,110.6 311.1,53.4 309.9,110.6 325,110.6 325,37.1 302.4,37.1 
	283.6,93.5 264.8,37.1 242.1,37.1 242.1,37.1 242.1,110.6 257.9,110.6 "/>
<path id="path27_2_" d="M369.4,110.6H389V98.4h-18.3c-6.6,0-11-0.9-14.3-4.8c-2.5-2.9-2.6-7.3-2.6-13.3c0-0.9,0-1.8,0-2.9V37.1
	h-15.5v43.7c0,9.7,1,16.2,6.7,22.1C351.7,109.9,358.8,110.6,369.4,110.6L369.4,110.6z"/>
<path id="path29_2_" d="M0,73.9C0,46.2,15.2,22.1,37.8,9.4l45.1,64.4l-45.1,64.5C15.2,125.7,0,101.6,0,73.9L0,73.9z"/>
<path id="path31_2_" d="M122.1,129.8c-12.9,11.2-29.8,17.9-48.2,17.9c-4.4,0-8.6-0.4-12.8-1.1l36.4-52L122.1,129.8L122.1,129.8
	L122.1,129.8z"/>
<path id="path33_2_" d="M137.8,37c6.3,10.9,9.9,23.5,9.9,36.9s-3.6,26-9.9,36.9L112,73.9L137.8,37L137.8,37z"/>
<path id="path35_2_" d="M61,1.2c4.1-0.7,8.4-1.1,12.8-1.1c18.4,0,35.3,6.8,48.2,17.9L97.4,53.1L61,1.2L61,1.2z"/>
</svg>
