<?xml version="1.0" encoding="utf-8"?>
<!-- Generator: Adobe Illustrator 16.0.0, SVG Export Plug-In . SVG Version: 6.00 Build 0)  -->
<!DOCTYPE svg PUBLIC "-//W3C//DTD SVG 1.1//EN" "http://www.w3.org/Graphics/SVG/1.1/DTD/svg11.dtd">
<svg version="1.1"
	 id="Layer_1" xmlns:dc="http://purl.org/dc/elements/1.1/" xmlns:rdf="http://www.w3.org/1999/02/22-rdf-syntax-ns#" xmlns:svg="http://www.w3.org/2000/svg" xmlns:cc="http://creativecommons.org/ns#"
	 xmlns="http://www.w3.org/2000/svg" xmlns:xlink="http://www.w3.org/1999/xlink" x="0px" y="0px" width="845.323px"
	 height="178.039px" viewBox="0 336.296 845.323 178.039" enable-background="new 0 336.296 845.323 178.039" xml:space="preserve">
<g>
	<path id="path3_2_" fill="#F9FAFB" d="M536.65,468.499v-87.572h-17.008v23.159h-14.595c-11.58,0-19.421,2.171-25.572,9.892
		c-4.584,5.91-6.996,12.906-6.996,21.471c0,20.506,11.338,32.93,31.361,32.93L536.65,468.499L536.65,468.499L536.65,468.499z
		 M519.642,454.748h-11.579c-12.545,0-17.611-4.464-17.611-17.974c0-13.871,5.79-18.696,18.938-18.696h10.253V454.748
		L519.642,454.748z"/>
	<path id="path5_2_" fill="#F9FAFB" d="M552.814,404.207v13.269h28.346c10.735,0,15.44,2.171,15.44,10.373c0,0.482,0,0.965,0,1.568
		h-22.437c-17.973,0-25.692,5.669-25.692,20.506c0,11.821,7.117,18.576,19.902,18.576h45.717v-40.288
		c0-15.923-8.927-24.125-26.537-24.125L552.814,404.207L552.814,404.207L552.814,404.207z M575.369,455.592
		c-6.271,0-9.287-0.724-9.287-6.151c0-5.79,3.256-7.237,10.494-7.237H596.6v13.269L575.369,455.592L575.369,455.592L575.369,455.592
		z"/>
	<path id="path7_2_" fill="#F9FAFB" d="M621.569,404.207v12.786h11.941v31.361c0,13.148,7.116,20.145,19.42,20.145h15.561v-12.786
		h-6.996c-8.685,0-10.977-3.739-10.977-12.666v-26.054h17.973v-12.786h-17.973v-23.16H633.51v23.16H621.569L621.569,404.207
		L621.569,404.207z"/>
	<path id="path9_2_" fill="#F9FAFB" d="M697.44,468.499v-64.413h-17.852v64.413H697.44L697.44,468.499z M697.44,396.97v-16.043
		h-17.852v16.043H697.44L697.44,396.97z"/>
	<path id="path11_2_" fill="#F9FAFB" d="M776.206,436.413c0-20.023-13.147-33.413-34.136-33.413s-34.257,13.269-34.257,33.413
		c0,19.902,13.147,33.171,34.257,33.171C763.179,469.584,776.206,456.315,776.206,436.413L776.206,436.413z M725.665,436.413
		c0-12.424,6.394-19.42,16.284-19.42c10.133,0,16.404,6.996,16.404,19.42s-6.393,19.42-16.404,19.42
		S725.665,448.837,725.665,436.413L725.665,436.413z"/>
	<path id="path13_2_" fill="#F9FAFB" d="M786.459,404.207v64.412h17.008V418.44h13.631c9.649,0,11.218,2.533,11.218,11.459v38.72
		h17.008v-40.771c0-17.128-7.841-23.521-26.899-23.521L786.459,404.207L786.459,404.207L786.459,404.207z"/>
	<polygon id="polygon23_2_" fill="#F9FAFB" points="243.055,438.705 261.751,469.584 284.067,469.584 253.428,424.109 
		282.016,380.927 260.545,380.927 242.331,409.031 223.996,380.927 202.163,380.927 232.198,425.315 232.198,425.315 
		201.078,469.584 223.273,469.584 	"/>
	<polygon id="polygon25_2_" fill="#F9FAFB" points="309.156,399.864 332.677,469.584 352.459,469.584 375.257,400.588 
		373.809,469.584 392.024,469.584 392.024,380.927 364.763,380.927 342.085,448.958 319.408,380.927 292.028,380.927 
		292.028,380.927 292.028,469.584 311.085,469.584 	"/>
	<path id="path27_2_" fill="#F9FAFB" d="M445.58,469.584h23.642v-14.716h-22.074c-7.961,0-13.269-1.086-17.249-5.79
		c-3.016-3.498-3.136-8.806-3.136-16.043c0-1.085,0-2.171,0-3.498v-48.61h-18.696v52.712c0,11.7,1.206,19.541,8.081,26.657
		C424.23,468.74,432.794,469.584,445.58,469.584L445.58,469.584z"/>
	<path id="path29_2_" fill="#F9FAFB" d="M0,425.315c0-33.412,18.334-62.482,45.595-77.801l54.401,77.681l-54.401,77.802
		C18.334,487.798,0,458.729,0,425.315L0,425.315z"/>
	<path id="path31_2_" fill="#F9FAFB" d="M147.281,492.744c-15.561,13.51-35.946,21.591-58.141,21.591
		c-5.308,0-10.373-0.482-15.439-1.326l43.906-62.725L147.281,492.744L147.281,492.744L147.281,492.744z"/>
	<path id="path33_2_" fill="#F9FAFB" d="M166.218,380.806c7.6,13.148,11.941,28.347,11.941,44.51
		c0,16.164-4.342,31.362-11.941,44.51l-31.121-44.51L166.218,380.806L166.218,380.806z"/>
	<path id="path35_2_" fill="#F9FAFB" d="M73.579,337.623c4.946-0.844,10.133-1.327,15.44-1.327c22.194,0,42.579,8.202,58.14,21.591
		l-29.673,42.339L73.579,337.623L73.579,337.623z"/>
</g>
</svg>
