<?xml version="1.0" encoding="utf-8"?>
<!-- Generator: Adobe Illustrator 24.3.0, SVG Export Plug-In . SVG Version: 6.00 Build 0)  -->
<svg version="1.1" id="Layer_1" xmlns="http://www.w3.org/2000/svg" xmlns:xlink="http://www.w3.org/1999/xlink" x="0px" y="0px"
	 viewBox="0 0 1920 1080" style="enable-background:new 0 0 1920 1080;" xml:space="preserve">
<style type="text/css">
	.st0{fill:url(#Rectangle_1180_2_);}
	.st1{fill:#6CC3F1;}
	.st2{fill:#339EDB;}
	.st3{fill:#007EC3;}
	.st4{fill:#FF6200;}
	.st5{fill:#EDF9FD;}
	.st6{fill:#FFFFFF;}
	.st7{fill:#004A6E;}
	.st8{fill:#23C6FD;}
	.st9{fill:#FCDFD6;}
	.st10{fill:#F5CFBF;}
</style>
<linearGradient id="Rectangle_1180_2_" gradientUnits="userSpaceOnUse" x1="-50.2" y1="549.4" x2="1922.9" y2="549.4" gradientTransform="matrix(1 0 0 -1 0 1080)">
	<stop  offset="8.465609e-02" style="stop-color:#004A6E"/>
	<stop  offset="0.93" style="stop-color:#004A6E"/>
</linearGradient>
<rect id="Rectangle_1180_1_" x="-50.2" y="-21.2" class="st0" width="1973.1" height="1103.6"/>
<g id="Group_994" transform="translate(-475.714 -458.571)">
	<g>
		<g>
			<defs>
				<path id="SVGID_1_" d="M1077,917.1h1750.4c17.9,0,32.3,14.5,32.3,32.3v1017.8c0,17.9-14.5,32.3-32.3,32.3H1077
					c-17.9,0-32.3-14.5-32.3-32.3V949.5C1044.7,931.6,1059.2,917.1,1077,917.1z"/>
			</defs>
			<clipPath id="SVGID_2_">
				<use xlink:href="#SVGID_1_"  style="overflow:visible;"/>
			</clipPath>
		</g>
	</g>
</g>
<g>
	<path class="st1" d="M351.9,1149.1c-62.5,46.9-118,98.8-215.1,98.8c-168.9,0-249.4-148.3-130.1-231.5
		c33.5-23.4,79.6-37.9,130.1-37.9c106.8,0,175.6,72,248.4,122.7c69.2,48.3,136.1,117.4,231.7,117.4c136.9,0,210.3-110.8,113.4-178.4
		c-28.8-20.1-68.9-32.5-113.4-32.5c-75.7,0-146.4,35.4-195.7,79.9l-22-15.2c54.3-49,134-93.9,217.6-93.9
		c168.9,0,249.4,148.3,130.1,231.5c-33.5,23.4-79.5,37.9-130.1,37.9c-106.8,0-175.6-72-248.4-122.7
		c-69.2-48.3-136.1-117.4-231.7-117.4c-136.9,0-210.3,110.8-113.4,178.4c28.8,20.1,68.9,32.5,113.4,32.5
		c86.8,0,134.6-46.8,192.8-90.4L351.9,1149.1z"/>
	<path class="st2" d="M351.9,1101.9c-62.5,46.9-118,98.8-215.1,98.8c-168.9,0-249.4-148.3-130.1-231.5
		c33.5-23.4,79.6-37.9,130.1-37.9c106.8,0,175.6,72,248.4,122.7c69.2,48.3,136.1,117.4,231.7,117.4c136.9,0,210.3-110.8,113.4-178.4
		c-28.8-20.1-68.9-32.5-113.4-32.5c-75.7,0-146.4,35.4-195.7,79.9l-22-15.2c54.3-49,134-93.9,217.6-93.9
		c168.9,0,249.4,148.3,130.1,231.5c-33.5,23.4-79.5,37.9-130.1,37.9c-106.8,0-175.6-72-248.4-122.7
		c-69.2-48.3-136.1-117.4-231.7-117.4c-136.9,0-210.3,110.9-113.4,178.4c28.8,20.1,68.9,32.5,113.4,32.5
		c86.8,0,134.6-46.8,192.8-90.4L351.9,1101.9z"/>
	<path class="st3" d="M351.9,1054.6c-62.5,46.9-118,98.8-215.1,98.8c-168.9,0-249.4-148.3-130.1-231.5c33.5-23.4,79.5-37.9,130-37.9
		c106.8,0,175.6,72,248.4,122.7c69.2,48.3,136.1,117.4,231.7,117.4c136.9,0,210.3-110.8,113.4-178.4
		c-28.8-20.1-68.9-32.5-113.4-32.5c-75.7,0-146.4,35.4-195.7,79.9l-22-15.2c54.3-49,134-93.9,217.6-93.9
		c168.9,0,249.4,148.3,130.1,231.5c-33.5,23.4-79.5,37.9-130.1,37.9c-106.8,0-175.6-72-248.4-122.7
		c-69.2-48.3-136.1-117.4-231.7-117.4c-136.9,0-210.3,110.8-113.4,178.4c28.8,20.1,68.9,32.5,113.4,32.5
		c86.8,0,134.6-46.8,192.8-90.4L351.9,1054.6z"/>
	<path class="st4" d="M351.9,1007.4c-62.5,46.9-118,98.8-215.1,98.8c-168.9,0-249.4-148.3-130.1-231.5
		c33.5-23.4,79.6-37.9,130.1-37.9c106.8,0,175.6,72,248.4,122.7c69.2,48.3,136.1,117.4,231.7,117.4c136.9,0,210.3-110.8,113.4-178.4
		c-28.8-20.1-68.9-32.5-113.4-32.5c-75.7,0-146.4,35.4-195.7,79.8l-22-15.2c54.3-49,134-93.9,217.6-93.9
		c168.9,0,249.4,148.3,130.1,231.5c-33.5,23.4-79.5,37.9-130.1,37.9c-106.8,0-175.6-72-248.4-122.8C299.3,935.1,232.4,866,136.7,866
		C-0.2,866-73.5,976.9,23.3,1044.4c28.8,20.1,68.9,32.5,113.4,32.5c86.8,0,134.6-46.8,192.8-90.4L351.9,1007.4z"/>
</g>
<g>
	<path class="st1" d="M1547,109.2c-62.5,46.9-118,98.8-215.1,98.8c-168.9,0-249.4-148.3-130.1-231.5c33.5-23.4,79.6-37.9,130.1-37.9
		c106.8,0,175.6,72,248.4,122.7c69.2,48.3,136.1,117.4,231.7,117.4c136.9,0,210.3-110.8,113.4-178.4
		c-28.8-20.1-68.9-32.5-113.4-32.5c-75.7,0-146.4,35.4-195.7,79.9l-22-15.2c54.3-49,134-93.9,217.6-93.9
		c168.9,0,249.4,148.3,130.1,231.5c-33.5,23.4-79.5,37.9-130.1,37.9c-106.8,0-175.6-72-248.4-122.7
		c-69.1-48.3-136-117.5-231.6-117.5c-136.9,0-210.3,110.8-113.4,178.4c28.8,20.1,68.9,32.5,113.4,32.5c86.8,0,134.6-46.8,192.8-90.4
		L1547,109.2z"/>
	<path class="st2" d="M1547,61.9c-62.5,46.9-118,98.8-215.1,98.8c-168.9,0-249.4-148.3-130.1-231.5c33.5-23.4,79.6-37.9,130.1-37.9
		c106.8,0,175.6,72,248.4,122.7c69.2,48.3,136.1,117.4,231.7,117.4c136.9,0,210.3-110.8,113.4-178.4
		c-28.8-20.1-68.9-32.5-113.4-32.5c-75.7,0-146.4,35.4-195.7,79.9l-22-15.2c54.3-49,134-93.9,217.6-93.9
		c168.9,0,249.4,148.3,130.1,231.5c-33.5,23.4-79.5,37.9-130.1,37.9c-106.8,0-175.6-72-248.4-122.7
		c-69.2-48.3-136.1-117.4-231.7-117.4c-136.9,0-210.3,110.9-113.4,178.4c28.8,20.1,68.9,32.5,113.4,32.5
		c86.8,0,134.6-46.8,192.8-90.4L1547,61.9z"/>
	<path class="st3" d="M1547,14.7c-62.5,46.9-118,98.8-215.1,98.8c-168.9,0-249.4-148.3-130.1-231.5c33.5-23.4,79.6-37.9,130.1-37.9
		c106.8,0,175.6,72,248.4,122.7c69.2,48.3,136.1,117.4,231.7,117.4c136.9,0,210.3-110.8,113.4-178.4
		c-28.8-20.1-68.9-32.5-113.4-32.5c-75.7,0-146.4,35.4-195.7,79.9l-22-15.2c54.3-49,134-93.9,217.6-93.9
		c168.9,0,249.4,148.3,130.1,231.5c-33.5,23.4-79.5,37.9-130.1,37.9c-106.8,0-175.6-72-248.4-122.7
		c-69.2-48.3-136.1-117.4-231.7-117.4c-136.9,0-210.3,110.8-113.4,178.4c28.8,20.1,68.9,32.5,113.4,32.5
		c86.8,0,134.6-46.8,192.8-90.4L1547,14.7z"/>
	<path class="st4" d="M1547-32.6c-62.5,46.9-118,98.8-215.1,98.8c-168.9,0-249.4-148.3-130.1-231.5c33.5-23.4,79.6-37.9,130.1-37.9
		c106.8,0,175.6,72,248.4,122.7C1649.5-32.1,1716.4,37,1812.1,37c136.9,0,210.3-110.8,113.4-178.4c-28.8-20.1-68.9-32.5-113.4-32.5
		c-75.7,0-146.4,35.4-195.7,79.8l-22-15.2c54.3-49,134-93.9,217.6-93.9c168.9,0,249.4,148.3,130.1,231.5
		c-33.5,23.4-79.5,37.9-130.1,37.9c-106.8,0-175.6-72-248.4-122.8c-69.2-48.3-136.1-117.4-231.7-117.4
		C1195-174,1121.6-63.2,1218.5,4.4c28.8,20.1,68.9,32.5,113.4,32.5c86.8,0,134.6-46.8,192.8-90.4L1547-32.6z"/>
</g>
<g id="Group_993" transform="translate(475.714 458.571)">
	<g id="Group_992" transform="translate(19.185 -117.741)">
		<rect id="Rectangle_1245" x="453.8" y="-135.8" class="st5" width="5.2" height="289.4"/>
		<rect id="Rectangle_1246" x="361.3" y="140.9" class="st5" width="208.9" height="84.4"/>
		<rect id="Rectangle_1247" x="361.3" y="-211.6" class="st5" width="208.9" height="84.4"/>
		<rect id="Rectangle_1248" x="209" y="295.4" class="st6" width="184.5" height="84.4"/>
		<rect id="Rectangle_1249" x="61.9" y="-3.6" class="st5" width="112" height="95.8"/>
		<rect id="Rectangle_1250" x="573.7" y="-4.5" class="st7" width="297.7" height="98.4"/>
		<circle id="Ellipse_313" class="st5" cx="454.4" cy="-7.1" r="54.8"/>
		<circle id="Ellipse_314" class="st5" cx="726.9" cy="184.4" r="54.8"/>
		<circle id="Ellipse_315" class="st5" cx="727.9" cy="190.5" r="58.8"/>
		<circle id="Ellipse_316" class="st5" cx="511" cy="392.5" r="54.8"/>
		<circle id="Ellipse_317" class="st5" cx="1082.2" cy="203.4" r="58.8"/>
		<circle id="Ellipse_318" class="st4" cx="282.1" cy="-5.3" r="73.1"/>
		<path id="Path_4119" class="st5" d="M324-4.7l-62.6-36.1v72.2L324-4.7z"/>
		<circle id="Ellipse_319" class="st5" cx="-68.3" cy="175.3" r="96.6"/>
		<path id="Path_4120" class="st8" d="M-0.4,230.1c-4.9-23.5-42.8-55.5-42.8-55.5s-7.5,13.7-20.6,14c-13.1,0.4-22.1-12.4-22.1-12.4
			s-22.6,22.2-36.2,36.9c-6.2,6.6-10,19.8-12.4,32.4c38.6,36.6,99.6,34.9,136.1-3.7l0,0C1.1,237.9,0.4,234-0.4,230.1z"/>
		<path id="Path_4121" class="st8" d="M-39.2,149.2c-0.7,8.5-2,17-3.9,25.3l-0.1,0.1c0,0-7.5,13.7-20.6,14
			c-13.1,0.4-22.1-12.4-22.1-12.4s-4.6-22.9-4.3-33.3s7.5-25.1,25.2-25.1C-47.4,117.8-37.2,130.9-39.2,149.2z"/>
		<rect id="Rectangle_1251" x="456.4" y="76.1" class="st5" width="117.3" height="5.2"/>
		<rect id="Rectangle_1252" x="246.4" y="181.8" class="st5" width="114.9" height="5.2"/>
		<rect id="Rectangle_1253" x="570.2" y="180.5" class="st5" width="101.8" height="5.2"/>
		<rect id="Rectangle_1254" x="508.4" y="225.3" class="st5" width="5.2" height="112.3"/>
		<rect id="Rectangle_1255" x="633.5" y="286.5" class="st5" width="173.7" height="5.2"/>
		<rect id="Rectangle_1256" x="633.5" y="308.5" class="st5" width="173.7" height="5.2"/>
		<rect id="Rectangle_1257" x="633.1" y="321.6" class="st5" width="357.5" height="162.6"/>
		<path id="Path_4122" class="st4" d="M904.9,373.7c52.8,0,95.6-42.8,95.6-95.6s-42.8-95.6-95.6-95.6c-52.8,0-95.6,42.8-95.6,95.6
			l0,0C809.3,330.9,852.1,373.7,904.9,373.7z M904.9,246.1c17.7,0,32,14.3,32,32s-14.3,32-32,32s-32-14.3-32-32l0,0
			C872.9,260.5,887.2,246.1,904.9,246.1L904.9,246.1z"/>
		<rect id="Rectangle_1258" x="1079.4" y="172.6" class="st5" width="5.6" height="65.8"/>
		<rect id="Rectangle_1259" x="1049.3" y="202.7" class="st5" width="65.8" height="5.6"/>
		<rect id="Rectangle_1260" x="-138.1" y="296.1" class="st5" width="250.6" height="125"/>
		<rect id="Rectangle_1261" x="112.5" y="347.9" class="st5" width="96.4" height="5.2"/>
		<rect id="Rectangle_1262" x="158.1" y="223.3" class="st5" width="5.2" height="127.2"/>
		<rect id="Rectangle_1263" x="1023.4" y="41.1" class="st6" width="108.6" height="50.9"/>
		
			<rect id="Rectangle_1264" x="967.5" y="54.2" transform="matrix(0.4997 -0.8662 0.8662 0.4997 373.0669 905.4173)" class="st5" width="5.6" height="151.1"/>
		<rect id="Rectangle_1265" x="904.9" y="63.7" class="st5" width="118.5" height="5.6"/>
		<rect id="Rectangle_1266" x="61.9" y="140.9" class="st5" width="184.5" height="84.4"/>
		<rect id="Rectangle_1267" x="725.1" y="249.3" class="st5" width="5.6" height="73.5"/>
		<path id="Path_4123" class="st9" d="M690.5,1034.9c38.1-1.7,76.3-3.6,114.4-5.1c5.5-21.7,10.7-45.1,15.7-70.4
			c32.7-166.9,39-505.2,39-505.2S936,435.5,978.1,409s104.5-118.5,96.7-124.7c-3.5-2.8-16.3,4-34.1,14.8c4.2-11.5,7.9-24.5,3.9-25.7
			c-5.8-1.6-36.9,37.7-49.6,54.2l-0.8,0.5c11.6-17.1,31.3-47.8,25-49c-8.2-1.4-57.2,57.5-79.3,77.1c-46.8,14.4-96.9,0.9-96.9,0.9
			s81.1-42.1,74.8-49.9s-81.6,28.8-131,44.7c-29.1,9.4-48.9,82.1-56.7,124.2c-7.8,42.1-60,248.7-83.4,354.8
			c-9.9,44.8-8.7,77.1-4.1,99.6"/>
		<path id="Path_4124" class="st10" d="M-209.5-649.2c0,0-18.3-18.5-79.6-2.6c-46.7,12.1-60.8,33.5-60.8,33.5
			s39.2,159.2,201.2,318.8s170.5,134,222.2,196.4S189,40.9,213.3,52.1s-14.7-35.3-14.7-35.3s32.9,44.6,43.7,37.6s-29.2-47-29.2-47
			s34.4,50.7,45.6,43.4c11.2-7.3-23-42.8-31.3-56c0,0,30.8,40.6,38.8,42.1s12.3-8.7,4.8-18.1c-18.6-25.4-35.6-51.9-51.1-79.3
			c-13.3-25.1-24.1-55.6-18.8-58.1c5.3-2.6,52.5,52.4,61.7,45.8c9.2-6.5,3-22.8-40.7-72S105.2-229,38.1-302S-192.9-534-209.5-649.2z
			"/>
	</g>
</g>
</svg>
