<?xml version="1.0" encoding="utf-8"?>
<!-- Generator: Adobe Illustrator 24.2.3, SVG Export Plug-In . SVG Version: 6.00 Build 0)  -->
<svg version="1.1" id="Layer_1" xmlns="http://www.w3.org/2000/svg" xmlns:xlink="http://www.w3.org/1999/xlink" x="0px" y="0px"
	 viewBox="0 0 1920 1080" style="enable-background:new 0 0 1920 1080;" xml:space="preserve">
<style type="text/css">
	.st0{fill:#EDF9FD;}
	.st1{fill:#339EDB;}
	.st2{fill:url(#Rectangle_1180_1_);}
	.st3{fill:#FFD592;}
	.st4{fill:#E59623;}
	.st5{fill:#027EBC;}
	.st6{fill:#0289CC;}
	.st7{fill:#0277AA;}
	.st8{fill:#FF6200;}
	.st9{fill:#FFFFFF;}
	.st10{opacity:0.35;fill:#057BCC;}
	.st11{fill:#E6332A;}
	.st12{fill:#E94E1B;}
	.st13{opacity:0.5;fill:#057BCC;}
	.st14{fill:none;}
	.st15{fill:#004A6E;}
	.st16{font-family:'Montserrat-Bold';}
	.st17{font-size:34.0158px;}
</style>
<rect id="Rectangle_1180_2_" x="0" y="1.1" class="st0" width="1920" height="1080"/>
<rect id="Rectangle_1180_4_" x="0" y="2.4" class="st1" width="1920" height="980.5"/>
<linearGradient id="Rectangle_1180_1_" gradientUnits="userSpaceOnUse" x1="-1598.6295" y1="-3592.3201" x2="-1233.2241" y2="-3592.3201" gradientTransform="matrix(0 -1 1 0 4552.3203 -1233.2986)">
	<stop  offset="0" style="stop-color:#004A6E;stop-opacity:0"/>
	<stop  offset="0.93" style="stop-color:#004A6E"/>
</linearGradient>
<rect id="Rectangle_1180_7_" x="0" y="-0.1" class="st2" width="1920" height="365.4"/>
<rect id="Rectangle_1180_6_" x="0" y="329.6" class="st0" width="1920" height="129.5"/>
<rect id="Rectangle_1180_3_" x="0" y="581.9" class="st3" width="1920" height="500.5"/>
<rect id="Rectangle_1180_5_" x="0" y="367.1" class="st4" width="1920" height="221"/>
<path class="st5" d="M1137.9,819.8c-6.5-80.1-10.9-216.7-3.8-281.6c9.1-82.9,1.4-200.8-36.5-277.7c-36.3-73.5-79.1-103.3-159.9-90.5
	c-88.7,14.1-191,98.9-222.7,181.9c-32.8,86-1.6,183.9,29.4,267.4c31.3,84.3,83.8,203.3,103.1,291.7c21.2,97.2,20.4,170.3,54.8,264.3
	c26.1,71.4,78.7,126.2,155.7,122.7c80.5-3.7,138-45.8,152.1-105.3C1233.6,1094.2,1148.8,954.7,1137.9,819.8z"/>
<path class="st1" d="M712.9,496.2c-10.8-55.6-8.5-102.3,7-142.6c31.3-81.5,133.6-164.9,219.1-178.5c74.8-11.9,116.5,11.7,153.7,87
	c12.2,24.7,21.8,54.9,28.6,89.8c11.1,57.2,13.8,126.5,7.3,185.3c-7.6,68.7-2.3,210.3,3.6,284.3c1.3,16,3.6,32.5,7.1,50.5
	c8.2,42.4,21.9,86.2,32.9,121.3l1.3,4c11.9,38.1,23.2,74,29.7,107.9c7,36.2,7.6,64.4,1.8,88.7c-14,58.5-70.3,97-146.9,100.5
	c-66.6,3-121.2-40.1-149.9-118.5c-11-30-19.3-60.3-26-95.3c-4.5-23.2-7.9-45.7-11.4-69.5l-0.3-1.9c-3.4-22.8-7.2-48.7-12.5-75.8
	c-1.4-7.5-3-14.9-4.5-22.1c-14.4-65.9-46.9-148.2-75.6-220.8c-10.3-26.1-20.1-50.8-28.4-73.1C735.3,579.1,721,537.9,712.9,496.2
	L712.9,496.2z"/>
<path class="st6" d="M1115.4,965.6c-15.3,3-30.4-8.8-33.7-26.3c-3.4-17.5,6.2-34.1,21.5-37c15.3-3,30.4,8.8,33.8,26.3
	C1140.3,946.1,1130.7,962.7,1115.4,965.6z"/>
<path class="st7" d="M1085.1,938.7c-3-15.6,5.4-30.3,18.7-32.9c13.3-2.6,26.6,8,29.6,23.5c3,15.5-5.4,30.3-18.7,32.9
	C1101.4,964.8,1088.1,954.2,1085.1,938.7L1085.1,938.7z"/>
<path class="st6" d="M922.5,1011.4c-15.3,3-30.4-8.8-33.7-26.3c-3.4-17.5,6.2-34,21.5-37c15.3-3,30.4,8.8,33.7,26.3
	C947.4,991.9,937.8,1008.4,922.5,1011.4z"/>
<path class="st7" d="M892.2,984.4c-3-15.6,5.4-30.3,18.7-32.9c13.3-2.6,26.6,8,29.6,23.5c3,15.5-5.4,30.3-18.7,32.9
	C908.5,1010.5,895.2,999.9,892.2,984.4L892.2,984.4z"/>
<path class="st8" d="M1137.8,727.3c-9.2,39.5-27.9,100-35.7,140c-5.7,29.4-18.5,57.7-13.3,75.8c-2-18,9.1-43.8,14.3-70.6
	c7.7-40,26.4-100.5,35.7-140c6.8-29.1,11-53.1,4.7-83C1148.3,677.1,1144.2,699.9,1137.8,727.3z M935.8,978.3
	c-4.9-25.3-27.7-60.8-51.2-95.1c-25-36.5-77.9-108.8-96.3-149.7c-2.2-4.8-3.8-9.8-5-15.1c1.2,7.1,3.1,13.9,6,20.3
	c18.5,40.9,71.4,113.2,96.3,149.7c22.6,32.9,44.4,66.8,50.5,91.9C936,979.6,936,978.9,935.8,978.3z M825.3,466
	c24.9-37,65.8-91.4,108.5-102.8c40.1-10.7,70.3,5.1,109,39.8c36.8,33,57.8,63.1,81,108.5c17.1,33.5,33,97,43.4,150.1
	c-10.4-54.1-26.7-120.7-44.4-155.3c-23.2-45.4-44.2-75.5-81-108.5c-38.7-34.7-68.9-50.5-109-39.8c-42.7,11.4-83.6,65.8-108.5,102.8
	c-29.6,44.1-52.9,108.7-59,162.5c-4.8,41.6-6.8,104,3.8,155.5c-9.5-50.4-7.5-110.1-2.8-150.3C772.4,574.8,795.6,510.1,825.3,466z"/>
<path class="st5" d="M1435.7,934.2c6.5-80.1,10.9-216.7,3.8-281.6c-9.1-82.9-1.4-200.8,36.5-277.7c36.3-73.5,79.1-103.3,159.9-90.5
	c88.7,14.1,191,98.9,222.6,181.9c32.8,86,1.6,183.9-29.4,267.4c-31.3,84.3-83.8,203.3-103.1,291.7c-21.2,97.2-20.5,170.3-54.8,264.3
	c-26.1,71.4-78.7,126.2-155.7,122.7c-80.5-3.7-138-45.8-152.1-105.3C1340.1,1208.6,1424.8,1069.1,1435.7,934.2z"/>
<path class="st1" d="M1860.7,610.6c10.8-55.6,8.5-102.3-7-142.6c-31.2-81.5-133.6-164.9-219.1-178.5c-74.8-11.9-116.5,11.7-153.7,87
	c-12.2,24.7-21.8,54.9-28.6,89.8c-11.1,57.2-13.8,126.5-7.3,185.3c7.6,68.7,2.3,210.3-3.6,284.3c-1.3,16-3.6,32.5-7.1,50.5
	c-8.2,42.4-21.9,86.2-32.9,121.3l-1.2,4c-11.9,38.1-23.2,74-29.7,107.9c-7,36.2-7.6,64.4-1.8,88.7c14,58.5,70.3,97,146.9,100.5
	c66.6,3,121.2-40.1,149.9-118.5c11-30,19.3-60.3,26-95.3c4.5-23.2,7.9-45.7,11.4-69.5l0.3-1.9c3.4-22.8,7.3-48.7,12.5-75.8
	c1.4-7.5,3-14.9,4.5-22.1c14.4-65.9,46.9-148.2,75.6-220.8c10.3-26.1,20.1-50.8,28.4-73.1C1838.4,693.5,1852.6,652.3,1860.7,610.6
	L1860.7,610.6z"/>
<path class="st9" d="M883.9,615l103.2,107.7l-7,37.4L850.6,624.9L883.9,615 M892.1,584l-55.6,16.6l-19.1,5.7
	c-9.6,2.9-11.8,11.1-4.8,18.4l172.1,179.6c3.5,3.6,7,4.9,9.9,4.1c2.9-0.9,5.2-3.9,6.1-8.8l4.1-22.3l11.8-63.3L892.1,584L892.1,584z"
	/>
<polygon class="st9" points="1027,543.8 937.8,570.4 960.9,594.4 1011.7,579.3 1001,636.3 1026.2,662.6 1045,562.6 "/>
<path class="st9" d="M1603.2,705.2l31.6,145.8l-25.5,28.2l-39.7-183L1603.2,705.2 M1626.4,683l-56.1-15l-19.3-5.2
	c-9.7-2.6-15.9,3.3-13.7,13.1l52.7,243.1c1.1,4.9,3.4,7.9,6.3,8.6c2.9,0.8,6.4-0.6,9.8-4.3l15.2-16.8l43.2-47.7L1626.4,683
	L1626.4,683z"/>
<polygon class="st9" points="1762.4,719.4 1672.5,695.4 1679.6,728 1730.8,741.7 1691.9,784.6 1699.6,820.2 1767.9,744.8 "/>
<path class="st10" d="M849.1,732.4c35.1-59.1,56.8-98.2,84.8-128.7c30.6-33.4,46.1-39.4,61.4-30.4c20.5,12,64.2,46,88.7,69.4
	c15.2,14.5,28.9,30.2,40.7,45.9c-0.6-31.5-0.6-62.5,0.3-89.5c-13.9-19.9-29.6-37.5-50.2-56c-38.7-34.7-68.9-50.5-109-39.8
	C923.2,514.6,882.4,569,857.5,606C829,648.3,806.5,709.6,799.3,762c6.3,16.2,12.4,32.6,18.3,48.8
	C823.3,783.3,835.6,755.3,849.1,732.4z"/>
<path class="st8" d="M918.6,1003.2c-34-8.1-55.1-45.1-83.3-82.4c-29.4-39-52.3-83.5-64-131.5c-12.9-53-10.8-120.3-5.8-164.2
	c6.2-53.7,29.4-118.4,59-162.5c24.9-37,65.8-91.4,108.5-102.8c40-10.7,70.3,5.1,109,39.8c36.8,33,57.8,63.1,81,108.5
	c20,39.1,38.4,119.1,48.2,175.7c8.4,48.2,8.7,94.4-0.4,138c-9,43.1-23.9,90-42.5,125.3c-8.7,16.5-25.3,14.9-29,11
	c-23.7-14.5-4.2-50.8,3.1-89c7.7-40,26.4-100.5,35.7-140c8.7-37.2,13.2-66.1-3.2-109.8c-11.7-31.2-42.1-80.2-83.8-119.9
	c-24.5-23.4-68.2-57.4-88.7-69.4c-15.3-9-30.8-2.9-61.4,30.4c-28,30.5-49.8,69.5-84.8,128.7c-25.6,43.2-46.5,104.5-27.7,146.2
	c18.5,40.9,71.4,113.3,96.3,149.7c23.6,34.4,46.3,69.8,51.2,95.1C938,989.6,931,1006.1,918.6,1003.2z"/>
<path class="st11" d="M1051,498.1c41.6,39.7,72.1,88.7,83.8,119.9c0.1,0.2,0.1,0.3,0.2,0.5c10.8,21,18.2,42,22.4,54.3
	c5.6,16.1,10.1,33.7,13.6,51.4c-3.7-20.1-8.7-40.2-15-58.3c-4.2-12.3-11.7-33.2-22.4-54.3c-0.1-0.2-0.1-0.3-0.2-0.5
	c-11.7-31.2-42.1-80.2-83.8-119.9c-24.5-23.4-68.2-57.4-88.7-69.4c-15.3-9-30.8-2.9-61.4,30.4c-28,30.5-49.8,69.5-84.8,128.7
	c-13.9,23.4-26.4,52.3-31.9,80.4c-13.6,51.5-14.1,94.8-11.2,126.9c-0.6-2.3-1.2-4.6-1.8-6.9c-0.7-2.7-1.3-5.5-1.9-8.4
	c1,5.2,2,10.3,3.2,15.3c0.6,2.3,1.2,4.6,1.8,6.9c-2.9-32.1-2.4-75.4,11.2-126.9c5.5-28.1,18-56.9,31.9-80.4
	c35.1-59.1,56.8-98.2,84.8-128.7c30.6-33.3,46.1-39.4,61.4-30.4C982.8,440.7,1026.5,474.8,1051,498.1z"/>
<path class="st12" d="M935.7,977.8c-4.9-25.3-27.7-60.8-51.2-95.1c-25-36.5-77.9-108.7-96.3-149.7c-8.6-19.1-8.9-42.2-4.2-65.9
	c-13.6,51.5-14.1,94.8-11.2,126.9c12.1,45.4,34.2,87.5,62.2,124.6c28.2,37.3,49.3,74.3,83.3,82.4
	C930.6,1003.8,937.6,987.3,935.7,977.8z"/>
<path class="st12" d="M1157.2,671.6c-4.3-12.3-11.7-33.2-22.5-54.2c16.2,43.5,11.7,72.3,3,109.4c-9.2,39.6-27.9,100-35.7,140
	c-7.4,38.2-26.9,74.5-3.1,89c3.7,3.9,20.3,5.5,29-11c18.6-35.2,33.5-82.2,42.5-125.2c3.9-18.5,6-37.5,6.6-56.9
	C1173.6,732.5,1166.9,699.7,1157.2,671.6z"/>
<path class="st13" d="M1724,831.2c-35.1-59.1-56.8-98.2-84.8-128.7c-30.6-33.4-46.1-39.4-61.4-30.4c-20.5,12-64.2,46-88.7,69.4
	c-15.2,14.5-28.9,30.2-40.7,45.9c0.6-31.5,0.6-62.5-0.3-89.5c13.9-19.9,29.6-37.5,50.2-56c38.7-34.7,68.9-50.5,109-39.8
	c42.8,11.4,83.6,65.8,108.5,102.8c28.5,42.3,50.9,103.6,58.2,155.9c-6.3,16.2-12.4,32.6-18.3,48.8
	C1749.9,882.1,1737.6,854.1,1724,831.2z"/>
<path class="st6" d="M1458.2,1080c15.3,3,30.4-8.8,33.7-26.3c3.4-17.5-6.2-34.1-21.5-37c-15.3-3-30.4,8.8-33.8,26.3
	C1433.3,1060.5,1442.9,1077.1,1458.2,1080z"/>
<path class="st7" d="M1488.5,1053.1c3-15.6-5.4-30.3-18.7-32.9c-13.3-2.6-26.6,8-29.6,23.5c-3,15.5,5.4,30.3,18.7,32.9
	C1472.2,1079.2,1485.5,1068.6,1488.5,1053.1L1488.5,1053.1z"/>
<path class="st6" d="M1651.1,1125.8c15.3,3,30.4-8.8,33.7-26.3c3.4-17.5-6.2-34-21.5-37c-15.3-3-30.4,8.8-33.7,26.3
	C1626.3,1106.3,1635.9,1122.8,1651.1,1125.8z"/>
<path class="st7" d="M1681.4,1098.8c3-15.6-5.4-30.3-18.7-32.9c-13.3-2.6-26.6,8-29.6,23.5c-3,15.5,5.4,30.3,18.7,32.9
	C1665.1,1124.9,1678.4,1114.4,1681.4,1098.8L1681.4,1098.8z"/>
<path class="st8" d="M1655,1117.6c34-8.1,55.1-45.1,83.3-82.4c29.4-39,52.3-83.5,64-131.5c12.9-53,10.8-120.3,5.8-164.2
	c-6.2-53.7-29.4-118.4-59-162.5c-24.9-37-65.8-91.4-108.5-102.8c-40-10.7-70.3,5.1-109,39.8c-36.8,33-57.8,63.1-81,108.5
	c-20,39.1-38.4,119.1-48.2,175.7c-8.4,48.2-8.7,94.4,0.4,138c9,43.1,23.9,90,42.5,125.3c8.7,16.5,25.3,14.9,29,11
	c23.7-14.5,4.2-50.8-3.1-89c-7.7-40-26.4-100.5-35.7-140c-8.7-37.2-13.2-66.1,3.2-109.8c11.7-31.2,42.1-80.2,83.8-119.9
	c24.5-23.4,68.2-57.4,88.7-69.4c15.3-9,30.8-2.9,61.4,30.4c28,30.5,49.8,69.5,84.8,128.7c25.6,43.2,46.5,104.5,27.7,146.2
	c-18.5,40.9-71.4,113.3-96.3,149.7c-23.6,34.4-46.3,69.8-51.2,95.1C1635.6,1104,1642.6,1120.5,1655,1117.6z"/>
<path class="st8" d="M1430.1,763.9c-6.3,29.9-2,53.9,4.7,83c9.2,39.5,27.9,100,35.7,140c5.2,26.8,16.3,52.6,14.3,70.6
	c5.2-18.1-7.6-46.3-13.3-75.8c-7.7-40-26.4-100.5-35.7-140C1429.4,814.3,1425.3,791.5,1430.1,763.9z M1637.6,1094.6
	c6.1-25.1,27.9-58.9,50.5-91.9c25-36.5,77.8-108.8,96.3-149.7c2.9-6.4,4.8-13.2,6-20.3c-1.2,5.3-2.8,10.3-5,15.1
	c-18.5,40.9-71.4,113.2-96.3,149.7c-23.6,34.4-46.3,69.8-51.2,95.1C1637.7,1093.3,1637.6,1094,1637.6,1094.6z M1807.4,742.9
	c4.6,40.2,6.7,99.9-2.8,150.3c10.7-51.5,8.6-113.9,3.8-155.5c-6.2-53.7-29.4-118.4-59-162.5c-24.9-37-65.8-91.4-108.5-102.8
	c-40-10.7-70.3,5.1-109,39.8c-36.7,32.9-57.8,63.1-81,108.5c-17.7,34.6-34.1,101.2-44.4,155.3c10.4-53.1,26.3-116.6,43.4-150.1
	c23.2-45.4,44.2-75.5,81-108.5c38.7-34.6,68.9-50.5,109-39.8c42.8,11.4,83.6,65.8,108.5,102.8C1778,624.5,1801.2,689.2,1807.4,742.9
	z"/>
<path class="st12" d="M1416.5,786c4.3-12.3,11.7-33.2,22.5-54.2c-16.2,43.5-11.7,72.3-3,109.4c9.2,39.6,27.9,100,35.7,140
	c7.4,38.2,26.9,74.5,3.1,89c-3.7,3.9-20.3,5.5-29-11c-18.6-35.2-33.5-82.2-42.5-125.2c-3.9-18.5-6-37.5-6.6-56.9
	C1400,846.9,1406.7,814.1,1416.5,786z"/>
<path class="st11" d="M1522.6,612.5c-41.6,39.7-72.1,88.7-83.8,119.9c-0.1,0.2-0.1,0.3-0.2,0.5c-10.8,21-18.2,42-22.4,54.3
	c-5.6,16.1-10.1,33.7-13.6,51.4c3.7-20.1,8.7-40.2,15-58.3c4.2-12.3,11.7-33.2,22.4-54.3c0.1-0.2,0.1-0.3,0.2-0.5
	c11.7-31.2,42.1-80.2,83.8-119.9c24.5-23.4,68.2-57.4,88.7-69.4c15.3-9,30.8-2.9,61.4,30.4c28,30.5,49.8,69.5,84.8,128.7
	c13.9,23.4,26.4,52.3,31.9,80.4c13.6,51.5,14.1,94.8,11.2,126.9c0.6-2.3,1.2-4.6,1.8-6.9c0.7-2.7,1.3-5.5,1.9-8.4
	c-1,5.2-2,10.3-3.2,15.3c-0.6,2.3-1.2,4.6-1.8,6.9c2.9-32.1,2.4-75.4-11.2-126.9c-5.5-28.1-18-56.9-31.9-80.4
	c-35.1-59.1-56.8-98.2-84.8-128.7c-30.6-33.3-46.1-39.4-61.4-30.4C1590.8,555.2,1547.1,589.2,1522.6,612.5z"/>
<path class="st12" d="M1637.9,1092.2c4.9-25.3,27.7-60.8,51.2-95.1c25-36.5,77.9-108.7,96.3-149.7c8.6-19.1,8.9-42.2,4.2-65.9
	c13.6,51.5,14.1,94.8,11.2,126.9c-12.1,45.4-34.2,87.5-62.2,124.6c-28.2,37.3-49.3,74.3-83.3,82.4
	C1643,1118.2,1636.1,1101.7,1637.9,1092.2z"/>
<rect x="914.6" y="831.6" transform="matrix(0.96 -0.2802 0.2802 0.96 -206.2418 316.8346)" class="st14" width="181.1" height="96.4"/>
<text transform="matrix(0.9599 -0.2802 0.2802 0.9599 917.6774 881.4076)"><tspan x="0" y="0" class="st15 st16 st17">Veri</tspan><tspan x="71.7" y="0" class="st9 st16 st17">-Conf </tspan><tspan x="45.3" y="40.8" class="st9 st16 st17">2019</tspan></text>
<rect x="1524.5" y="910.7" transform="matrix(0.1977 -0.9803 0.9803 0.1977 280.3051 2344.9377)" class="st14" width="96.4" height="181.1"/>
<text transform="matrix(0.9803 0.1977 -0.1977 0.9803 1494.4615 962.0749)"><tspan x="0" y="0" class="st15 st16 st17">Veri</tspan><tspan x="71.7" y="0" class="st9 st16 st17">-Conf </tspan><tspan x="45.3" y="40.8" class="st9 st16 st17">2019</tspan></text>
</svg>
