<?xml version="1.0" encoding="utf-8"?>
<!-- Generator: Adobe Illustrator 24.3.0, SVG Export Plug-In . SVG Version: 6.00 Build 0)  -->
<svg version="1.1" id="Layer_1" xmlns="http://www.w3.org/2000/svg" xmlns:xlink="http://www.w3.org/1999/xlink" x="0px" y="0px"
	 viewBox="0 0 1920 1080" style="enable-background:new 0 0 1920 1080;" xml:space="preserve">
<style type="text/css">
	.st0{fill:url(#Rectangle_1180_1_);}
	.st1{fill:#B9EDFF;}
	.st2{fill:#184657;}
	.st3{fill:#F29D7E;}
	.st4{opacity:0.61;fill:#E0653D;enable-background:new    ;}
	.st5{fill:#ED6D53;}
	.st6{fill:#1B4E61;}
	.st7{fill:#236780;}
	.st8{fill:#FFFFFF;}
	.st9{fill:#E94E1B;}
	.st10{opacity:0.72;fill:#013346;enable-background:new    ;}
	.st11{fill:#035E80;}
	.st12{fill:#0D232B;}
	.st13{fill:#FCC14A;}
	.st14{opacity:0.61;fill:#BE1622;enable-background:new    ;}
	.st15{fill:#D6B88D;}
	.st16{opacity:0.2;fill:#007EC3;enable-background:new    ;}
	.st17{opacity:0.2;}
	.st18{opacity:0.41;fill:#EDF9FD;enable-background:new    ;}
	.st19{fill:#013346;}
	.st20{opacity:0.25;}
	.st21{fill:url(#SVGID_2_);}
	.st22{opacity:0.41;fill:url(#SVGID_3_);enable-background:new    ;}
	.st23{opacity:0.7;fill:#CBC7FF;enable-background:new    ;}
	.st24{clip-path:url(#SVGID_6_);}
	.st25{clip-path:url(#SVGID_7_);fill:url(#SVGID_8_);}
	.st26{opacity:0.29;fill:url(#SVGID_9_);enable-background:new    ;}
	.st27{opacity:0.56;fill:#E0653D;enable-background:new    ;}
	.st28{fill:#FF6200;}
	.st29{fill:#FAF8DC;}
	.st30{opacity:0.51;fill:#E6E5CE;enable-background:new    ;}
	.st31{opacity:0.58;fill:#E0653D;enable-background:new    ;}
	.st32{fill:#23C6FD;}
	.st33{fill:#F7CAC9;}
	.st34{fill:#E85F5B;}
	.st35{fill:#232E42;}
	.st36{fill:#936037;}
	.st37{fill:#7D4E24;}
	.st38{fill:#683C11;}
	.st39{fill:#007EC3;}
	.st40{opacity:0.17;fill:#013346;enable-background:new    ;}
	.st41{fill:#B17F4A;}
	.st42{fill:#30C9FD;}
	.st43{fill:#42966D;}
	.st44{fill:#EDEDED;}
	.st45{fill:#F5B096;}
	.st46{opacity:0.23;fill:#1B4E61;enable-background:new    ;}
	.st47{opacity:0.24;fill:#BE1622;enable-background:new    ;}
	.st48{fill:#FACB36;}
	.st49{fill:#BD422A;}
	.st50{fill:#95D4F5;}
	.st51{opacity:0.26;fill:#013346;enable-background:new    ;}
	.st52{opacity:0.49;fill:#013346;enable-background:new    ;}
	.st53{opacity:0.45;fill:#184657;enable-background:new    ;}
	.st54{fill:#3D6ACC;}
	.st55{opacity:0.26;fill:#134C83;enable-background:new    ;}
	.st56{fill:#DE4E31;}
	.st57{opacity:0.2;fill:#E6332A;enable-background:new    ;}
</style>
<linearGradient id="Rectangle_1180_1_" gradientUnits="userSpaceOnUse" x1="0" y1="540" x2="1920" y2="540" gradientTransform="matrix(1 0 0 -1 0 1080)">
	<stop  offset="8.465609e-02" style="stop-color:#004A6E"/>
	<stop  offset="0.93" style="stop-color:#004A6E"/>
</linearGradient>
<rect id="Rectangle_1180_17_" class="st0" width="1920" height="1080"/>
<rect x="1021.7" y="692.5" class="st1" width="688.2" height="56.1"/>
<g>
	<g>
		<path class="st2" d="M830,541c-3.5,2.2-4.1,4.8-4.1,4.8s-10.5-2.2-10.1-8.7c0.3-6.5,6.2-6.5,10.1-5.7c3.9,0.8,4.2,0.3,8.1-1.8
			c3.9-2.1,8-0.4,9.9,3.6c1.9,4.1,7.1,6.9,4.1,14.8C844.3,557.3,830,541,830,541z"/>
		<path class="st3" d="M870.2,551.5c0.9,1.2,1.7,2.7,2,4.2c-0.5,2-0.9,4.1-1.4,6c-1.1,1.6-2.5,2.8-4.2,3.9c-3.1,2-6.6,3.2-10.2,4.4
			c-0.7-7.3,0.9-8.4-1.6-9.7c-2.8-1.4-18.5-4.3-18.5-4.3l3.4-13.5c0,0,15.5,3.1,18.2,3.3c1.6,0.1,3.1-1.5,4.9-3.8
			C865.6,544.8,867.9,548.2,870.2,551.5z"/>
		<path class="st4" d="M846.7,556.4c-0.1,0.5-0.3,1-0.5,1.5c-5.3-1.2-10.3-2.1-10.3-2.1l5.9-12.2
			C847.5,545.3,847.8,552.1,846.7,556.4z"/>
		<g>
			<path class="st3" d="M840.4,545.9c1.4,2.1,4.2,2.6,6.3,1.2c2.1-1.4,2.6-4.2,1.2-6.3c-1.4-2.1-4.2-2.6-6.3-1.2
				C839.5,541,839,543.8,840.4,545.9z"/>
			<path class="st5" d="M842.2,544.7c0.7,1.1,2.2,1.4,3.3,0.6c1.1-0.7,1.4-2.2,0.6-3.3c-0.7-1.1-2.2-1.4-3.3-0.6
				C841.7,542.1,841.4,543.6,842.2,544.7z"/>
			<path class="st3" d="M830.1,552.8c3.6,5.2,7.1,9,12.1,5.5c4.3-3.2,5.4-9.8,1.8-15.1c-3.6-5.2-8.6-8.3-14.2-4.4
				C823.1,543.6,826.5,547.5,830.1,552.8z"/>
			<path d="M836.6,546.2c0.2,0.3,0.6,0.4,0.9,0.2c0.3-0.2,0.4-0.6,0.2-0.9c-0.2-0.3-0.6-0.4-0.9-0.2
				C836.5,545.5,836.4,545.9,836.6,546.2z"/>
			<path d="M829.9,550.7c0.2,0.3,0.5,0.3,0.8,0.1s0.3-0.5,0.1-0.8s-0.5-0.3-0.8-0.1C829.8,550.1,829.7,550.5,829.9,550.7z"/>
			<path class="st5" d="M832.7,553.2c0.5,0.8,0.4,1.8-0.2,2.5c-0.8-0.8-1.6-1.8-2.3-2.9c0-0.1-0.1-0.1-0.1-0.2
				C830.9,552.1,832.1,552.3,832.7,553.2z"/>
			<path class="st5" d="M838.6,549.2c0.6,0.9,1.8,1.1,2.7,0.5s1.1-1.8,0.5-2.7s-1.8-1.1-2.7-0.5C838.2,547,838,548.3,838.6,549.2z"
				/>
			<path class="st5" d="M833.3,547.8l0.5,4.3c0.1,0.5,0.6,0.8,1.1,0.5l2-1.3L833.3,547.8z"/>
			<path class="st6" d="M842,540.4l2,2.9l-1,0.8c-0.4-0.8-1.8-2.4-2.3-2.9L842,540.4z"/>
			<path class="st7" d="M838.2,542.1c-0.2,0-0.4,0-0.7,0c-0.2,0-0.4,0.1-0.7,0.1c-0.4,0.1-0.9,0.3-1.3,0.5c-0.4,0.2-0.8,0.5-1,0.9
				c-0.3,0.4-0.5,0.8-0.6,1.3c0,0.1,0,0.2,0.1,0.2s0.1,0,0.2-0.1l0,0c0.2-0.3,0.5-0.6,0.8-0.9c0.3-0.3,0.6-0.5,0.9-0.7
				c0.3-0.2,0.7-0.4,1.1-0.5c0.2-0.1,0.4-0.1,0.6-0.2c0.2-0.1,0.4-0.1,0.6-0.2l0,0c0.1,0,0.1-0.2,0.1-0.2
				C838.4,542.1,838.3,542.1,838.2,542.1z"/>
			<path class="st7" d="M831,546.9c-0.2,0-0.4,0-0.5,0c-0.2,0-0.4,0.1-0.5,0.1c-0.2,0.1-0.4,0.1-0.5,0.2c-0.2,0.1-0.3,0.2-0.5,0.3
				c-0.3,0.2-0.6,0.5-0.8,0.9s-0.3,0.8-0.2,1.2c0,0.1,0.1,0.2,0.2,0.1c0.1,0,0.1-0.1,0.1-0.1v-0.1c0.1-0.3,0.2-0.5,0.4-0.8
				c0.2-0.2,0.4-0.4,0.7-0.6c0.2-0.2,0.5-0.3,0.8-0.5c0.2-0.1,0.3-0.1,0.4-0.2c0.2-0.1,0.3-0.1,0.5-0.2l0,0c0.1-0.1,0.1-0.2,0.1-0.3
				C831.1,546.9,831,546.9,831,546.9z"/>
			<path class="st8" d="M839.3,552.1c0.4,0.6-0.1,1.7-1.1,2.4s-2.2,0.8-2.6,0.2c-0.4-0.6,0.7-0.7,1.8-1.4
				C838.3,552.5,838.8,551.5,839.3,552.1z"/>
			<path class="st4" d="M831,539.2l-1.7,0.2c-4.5,4.1-3.2,6.6-2.7,7.7C826.6,547.1,831,542.3,831,539.2z"/>
			<path class="st2" d="M836.3,533.4l-11.2,4.7l-1,5.8l2,2c0-0.5-0.2-1.3,0.2-2.3c1.5-0.3,2.8-1.2,3.3-1.7c0.5-0.4,1.1-1.9,1.4-2.7
				c1.5-0.6,3-0.7,3.8-0.2c3.3,2.3,3.7-0.2,6,2.1l1.2-0.7L836.3,533.4z"/>
		</g>
	</g>
	<path class="st9" d="M891.6,543c0,0,11.9-8.6,23.5-23.7c3.5-4.6,6.5-9.2,8.9-13.4c0.8-1.4,0.2-3.2-1.3-3.8
		c-2.5-1.1-4.9-2.1-7.4-3.1c-0.7-0.3-1.6,0-2,0.7c-4.9,8.2-13.5,19.5-26.8,25.4c-15.8,7-19.1,12.1-25.9,18.9c0,0,4,4,2,9.7
		s-7.1,7.2-7.1,7.2l-1.3,12.6c0,0,4.4,0.4,21.1,9.7c16.7,9.2,35.8,10.5,35.8,10.5c6.3-6.5,15.1-28.6,14.9-37.6
		C914.4,556.4,891.6,543,891.6,543z"/>
	<path class="st9" d="M854.2,573.3c-2.6,11.6-2.2,18-8.1,22.6c-5.9,4.6-17.6,4.2-17.6,4.2l1.1,10.9c0,0,21.5,0.8,29.7-8.2
		c8.1-9,11.6-28.6,11.6-28.6L854.2,573.3z"/>
	<path class="st3" d="M831.7,600.7c-7.7-1.4-12.7-2.2-19.4-5.9c-6.6-3.7-12.7,3.8-3.6,8.2c9.1,4.5,21.9,7.4,21.9,7.4
		C833.1,608.7,833.4,602.9,831.7,600.7z"/>
	<path class="st10" d="M926.1,555.9c16.7-1,54.5-9.4,63.3,2.3s9.4,26.7,9.4,26.7l-19.9,3.2l-15.2-15.2l-45.1,2.6L926.1,555.9z"/>
	<path class="st10" d="M926.1,555.9c16.7-1,54.5-9.4,63.3,2.3s9.4,26.7,9.4,26.7l-19.9,3.2l-15.2-15.2l-45.1,2.6L926.1,555.9z"/>
	<path class="st3" d="M1028.6,567.9c14.9,5.9,30.5,14.6,30.5,14.6s8.2-3.5,11-6s4.2-2.2,4.8-1c0.6,1.2-5.7,7.5-8.9,10.8
		s-4,8.1-7,8.6c-3.1,0.6-9.5-6.2-15.7-8.2s-18.5-5-18.5-5L1028.6,567.9z"/>
	<path class="st4" d="M1024.7,581.8c0,0,2.1,0.5,4.9,1.2c1.3-3.7,2-9.9,1.3-14.2c-0.8-0.3-1.6-0.7-2.4-1L1024.7,581.8z"/>
	<path class="st11" d="M911.1,593.5c22.8,4.2,48.6-3.4,65.3-8.6c15.3-4.8,35.9-2,45.5-0.2c1.6,0.3,3.1-0.5,3.8-1.9
		c2-4.2,3.5-11.5,2.9-14.9c0,0-19.3-8.2-43.9-7.3c-24.6,0.9-63,6.2-63,6.2L911.1,593.5z"/>
	<path class="st3" d="M998.7,584.9c1.6,12.3,0.1,41.4,1.9,46c1.8,4.5,9.5,7.9,12,8.1c2.5,0.1,6,1.3,6,2.5s-5.4,2.2-12.6,1.8
		c-7.2-0.4-12.9,2.8-14.5,0.1c-1.6-2.6-1.2-10.8-3.4-20.2s-6.9-23.6-7.3-35.4C984,584.6,994.8,583.8,998.7,584.9z"/>
	<g>
		<path class="st11" d="M990.1,637.5c0,0,4.8-0.5,7.6,1.3c2.9,1.8,6.7-3.7,6.7-3.7s4.4,2.7,6.9,3.1c2.5,0.4,7.4,1.1,7.5,3.1
			c0.1,2.1-4.2,2.6-7.8,2.5s-8.2,0-12.4,0.8c-4.2,0.7-6.3,0.8-7.6-0.3C989.7,643.3,990.1,637.5,990.1,637.5z"/>
		<path class="st12" d="M1018.5,640.5c-0.5,1.7-4.5,2.1-7.8,2c-3.6-0.1-8.2,0-12.4,0.8c-4.2,0.7-6.3,0.8-7.6-0.3
			c-0.2-0.2-0.4-0.5-0.5-0.9c0.1,1,0.4,1.8,0.8,2.1c1.3,1,3.4,1,7.6,0.3c4.2-0.7,8.8-0.8,12.4-0.8c3.6,0.1,8-0.4,7.8-2.5
			C1018.9,641,1018.7,640.7,1018.5,640.5z"/>
		<path class="st13" d="M1005,640l-0.8-0.3c0-0.1,0.7-2.3,1.6-3.8l0.8,0.5C1005.7,637.8,1005,639.9,1005,640z"/>
		<path class="st13" d="M1007.6,640.4l-0.8-0.3c0,0,0.5-1.7,1-3l0.8,0.3C1008.1,638.7,1007.6,640.3,1007.6,640.4z"/>
		<path class="st13" d="M1010.1,640.7l-0.9-0.1c0,0,0.2-1.1,0.6-2.7l0.8,0.2C1010.2,639.6,1010.1,640.7,1010.1,640.7z"/>
	</g>
	<g>
		<path class="st11" d="M1052.2,592.7c0,0,2.9-3.8,6.2-4.6c3.3-0.8,1.9-7.5,1.9-7.5s5-1.3,7-2.9c2-1.6,5.8-4.6,7.4-3.3
			s-1,4.8-3.6,7.4s-5.6,6-7.9,9.6c-2.3,3.5-3.8,5.1-5.4,5.4C1056.1,596.9,1052.2,592.7,1052.2,592.7z"/>
		<path class="st12" d="M1073.9,574c0.9,1.5-1.5,4.7-3.9,7c-2.5,2.6-5.6,6-7.9,9.6s-3.8,5.1-5.4,5.4c-0.3,0-0.6,0-1-0.2
			c0.8,0.6,1.6,1,2.1,0.9c1.6-0.3,3.1-1.8,5.4-5.4c2.3-3.5,5.4-7,7.9-9.6s5.1-6.1,3.6-7.4C1074.5,574.1,1074.2,574.1,1073.9,574z"/>
		<path class="st13" d="M1064.2,583.5l-0.8,0.4c0-0.1-1.2-2.1-1.7-3.8l0.8-0.2C1063.1,581.6,1064.2,583.5,1064.2,583.5z"/>
		<path class="st13" d="M1066.2,581.9l-0.8,0.4c0,0-0.9-1.5-1.5-2.8l0.8-0.4C1065.4,580.4,1066.2,581.9,1066.2,581.9z"/>
		<path class="st13" d="M1068.2,580.4l-0.7,0.5c0,0-0.7-0.9-1.6-2.3l0.8-0.5C1067.5,579.5,1068.2,580.4,1068.2,580.4z"/>
	</g>
	<path class="st3" d="M913.8,501.6c0.7-5.1,2.5-19.9,3.2-26.3c0.6-6.3,1.7-11.9,4.7-12.1c3.1-0.2,2.3,1.7,2.3,1.7s1.6-1.1,2.6-0.2
		s1.2,0.3,1.3,4.2c0,3.9-1.1,16.1-1.6,22.4s-1.7,12.8-1.7,12.8s-0.7,1.5-5.2,0.7C914.7,504,913.8,501.6,913.8,501.6z"/>
	<path class="st14" d="M891.6,543c3.7,7.1,13.5,13.5,19.5,14.1c6,0.5,11.5-1.2,11.5-1.2s-7-1.3-13.7-4.2
		C902.2,548.8,891.6,543,891.6,543z"/>
	<path class="st15" d="M920.7,596.3c-0.4,0-0.7-0.3-0.7-0.7V222.1c0-0.4,0.3-0.7,0.7-0.7s0.7,0.3,0.7,0.7v373.4
		C921.4,595.9,921.1,596.3,920.7,596.3z"/>
</g>
<rect x="350.8" y="558.7" class="st1" width="337.2" height="56.1"/>
<path class="st1" d="M678.9,615.9v-58.1c0-1.7,1.4-3.1,3.1-3.1h16.5c1.7,0,3.1,1.4,3.1,3.1v58.1c0,1.7-1.4,3.1-3.1,3.1H682
	C680.3,619,678.9,617.6,678.9,615.9z"/>
<rect x="674.4" y="558.8" class="st16" width="4.5" height="56.1"/>
<g class="st17">
	<path class="st18" d="M292.9,1010.4c3.4-18.5-1.1-36.7-11.2-51.6c-7.7-11.4-8.5-25.6-1.6-37.1c5.8-9.6,10-20.4,12.1-32
		c5.7-31.5-4.9-62.4-26.2-85.3c-11.1-12-15-28.2-9.6-42.8c1.3-3.5,2.3-7.1,3-10.8c5-27.7-8.4-54.8-32.1-70.4
		c-13.7-9-19.1-25.4-12.3-39.3c3.2-6.5,5.8-13.4,7.1-20.4c8-43.9-24.2-86.5-71.9-95.2h-0.1c-7-1.3-11.7-7.6-10.5-14
		c0-0.2,0.1-0.5,0.1-0.7c10.2-56.2-31.8-110.8-93.4-120.6C-11.6,381-68.6,418-78.3,471.1c-2.3,12.8-2,25.5,0.7,37.7
		c6,26.8-8.3,53.6-34.9,64.4c-45.9,18.6-80.8,57.3-89.8,106.8c-5.7,31.4-0.1,62.4,14.1,89.5c12.5,23.8,6.6,52-14.1,69.2
		c-20.2,16.8-34.6,39.9-39.5,66.8c-8.7,47.8,14.9,94.6,56.1,121c7.7,4.9,11.6,13.5,10,21.9c0,0.1,0,0.2,0,0.2
		c-4.5,24.7,13.6,48.8,40.5,53.7c0.2,0,0.4,0.1,0.6,0.1c3.1,0.5,5.2,3.2,4.6,6v0.1c-6.3,34.9,19.2,68.7,57.1,75.6
		c5.7,1,11.4,1.4,16.9,1.2c12.8-0.6,25.1,5.4,32.4,15.3c22.9,31.3,58.8,54.5,101.8,61.8c80.3,13.7,159.4-36.6,173.3-110.3
		c2.9-15.5,3-30.9,0.5-45.7c-3.5-21.3,3.6-42.6,19.7-57.5C282.5,1038.6,290.1,1025.5,292.9,1010.4z"/>
	<path class="st1" d="M356.7,1012c1.8-16.5-3.5-32.3-13.8-45c-7.8-9.7-9.5-22.1-4-32.7c4.7-8.9,7.7-18.6,8.9-29
		c3.1-28.1-8.7-54.8-29.7-73.8c-11-9.9-15.6-24.1-11.7-37.3c0.9-3.1,1.6-6.4,2-9.8c2.7-24.8-11.4-47.9-34-60.3
		c-13.1-7.1-19.2-21.3-13.9-34c2.5-5.9,4.4-12.2,5.1-18.4c4.3-39.3-28-75-72.1-79.8h-0.1c-6.5-0.7-11.2-6-10.5-11.8
		c0-0.2,0-0.4,0.1-0.6c5.5-50.3-36.5-96-93.4-101c-53.5-4.5-103,31.6-108.2,79.1c-1.3,11.5-0.1,22.7,3.2,33.2
		c7.3,23.3-3.9,47.9-27.5,59c-40.6,19.1-69.8,55.5-74.6,99.7c-3.1,28.1,4.1,55.2,18.9,78.2c13,20.3,9.6,45.6-8.1,62
		c-17.3,16.1-28.9,37.3-31.5,61.4c-4.7,42.7,20,82.7,59.4,103.5c7.4,3.9,11.5,11.2,10.6,18.7c0,0.1,0,0.1,0,0.2
		c-2.4,22.1,15.8,42.3,40.6,45c0.2,0,0.4,0,0.6,0.1c2.8,0.3,4.9,2.5,4.6,5l0,0c-3.4,31.2,22.2,59.5,57.2,63.4
		c5.3,0.6,10.5,0.6,15.5,0c11.6-1.3,23.3,3.3,30.6,11.6c23,26.2,57.4,44.6,97.1,48.6c74.2,7.3,142.9-41.8,150.6-107.8
		c1.6-13.9,0.6-27.5-2.6-40.4c-4.7-18.6,0.4-37.8,14-52C349.1,1037.6,355.2,1025.5,356.7,1012z"/>
</g>
<g class="st17">
	<path class="st18" d="M2389.5,802.5c6.1-33.6-2.1-66.7-20.5-93.9c-14-20.8-15.4-46.6-2.8-67.5c10.6-17.5,18.2-37.1,22-58.1
		c10.4-57.2-8.9-113.5-47.6-155.1c-20.3-21.8-27.2-51.3-17.4-77.9c2.3-6.3,4.1-12.9,5.4-19.7c9.2-50.4-15.3-99.7-58.3-128
		c-24.9-16.4-34.7-46.3-22.4-71.4c5.8-11.8,10.6-24.4,12.9-37c14.5-79.9-44-157.4-130.8-173.1h-0.3c-12.8-2.3-21.2-13.8-19-25.5
		c0.1-0.4,0.2-0.8,0.2-1.3c18.6-102.2-57.7-201.4-169.8-219.3c-105.3-16.8-208.8,50.5-226.5,147c-4.3,23.3-3.6,46.4,1.3,68.5
		c10.8,48.7-15.1,97.5-63.5,117.1c-83.4,33.8-146.9,104.2-163.2,194.1c-10.4,57.1-0.2,113.5,25.6,162.7
		c22.7,43.3,12,94.6-25.6,125.9c-36.8,30.6-63,72.5-71.9,121.5c-15.8,86.9,27.1,172,102,220c14,9,21.1,24.5,18.2,39.7
		c0,0.1-0.1,0.3-0.1,0.4c-8.2,45,24.8,88.7,73.7,97.6c0.4,0.1,0.7,0.1,1.1,0.2c5.6,0.9,9.4,5.8,8.5,10.9v0.1
		c-11.5,63.4,35,124.9,103.8,137.4c10.4,1.9,20.7,2.6,30.8,2.1c23.2-1.1,45.6,9.8,58.9,27.9c41.6,56.8,106.9,99.1,185.2,112.4
		c146,25,289.8-66.5,315.2-200.5c5.3-28.2,5.4-56.2,0.9-83.2c-6.4-38.7,6.5-77.4,35.8-104.6C2370.7,853.8,2384.5,830,2389.5,802.5z"
		/>
	<path class="st1" d="M2505.5,805.5c3.3-30-6.4-58.8-25-81.8c-14.2-17.6-17.3-40.3-7.2-59.5c8.5-16.1,14-33.8,16.1-52.7
		c5.6-51.2-15.9-99.7-54-134.2c-20-18-28.3-43.7-21.2-67.8c1.7-5.7,2.9-11.6,3.6-17.7c4.9-45.1-20.7-87.1-61.9-109.6
		c-23.8-13-34.8-38.8-25.3-61.7c4.5-10.8,8-22.2,9.2-33.5c7.8-71.4-50.9-136.4-131.1-145.2h-0.2c-11.8-1.3-20.3-10.9-19.1-21.4
		c0-0.4,0.1-0.8,0.1-1.1c10-91.4-66.4-174.5-169.8-183.6c-97.1-8.6-187.1,57.1-196.6,143.4c-2.3,20.8-0.1,41.2,5.9,60.4
		c13.2,42.4-7.1,87.1-49.9,107.3c-73.8,34.8-126.9,100.8-135.7,181.3c-5.6,51.1,7.5,100.3,34.4,142.2
		c23.6,36.9,17.4,82.9-14.8,112.8c-31.5,29.2-52.5,67.8-57.3,111.7c-8.5,77.7,36.4,150.3,108,188.3c13.4,7.1,20.9,20.4,19.3,34
		c0,0.1,0,0.3,0,0.4c-4.4,40.2,28.7,76.9,73.9,81.8c0.3,0,0.7,0.1,1,0.1c5.1,0.5,9,4.6,8.5,9.1v0.1c-6.2,56.7,40.4,108.3,104,115.2
		c9.6,1.1,19.1,1,28.2,0c21.1-2.3,42.3,5.9,55.6,21.1c41.8,47.7,104.3,81.1,176.6,88.3c134.9,13.4,259.8-76,273.8-195.9
		c2.9-25.2,1.1-49.9-4.8-73.5c-8.5-33.8,0.7-68.8,25.5-94.6C2491.9,851.9,2502.8,830.1,2505.5,805.5z"/>
</g>
<path class="st19" d="M1200.9,1015.9H95.6c-3.4,0-6.1-2.8-6.1-6.1l0,0c0-3.4,2.8-6.1,6.1-6.1h1105.3c3.4,0,6.1,2.8,6.1,6.1l0,0
	C1207,1013.1,1204.3,1015.9,1200.9,1015.9z"/>
<g>
	<path class="st1" d="M1918.2,1583.5h-428.9c-6.6,0-12-5.4-12-12V847.1c0-6.6,5.4-12,12-12h428.9c6.6,0,12,5.4,12,12v724.5
		C1930.2,1578.1,1924.8,1583.5,1918.2,1583.5z"/>
	<path class="st1" d="M1951.4,939.4h-495.3c-6.6,0-12-5.4-12-12V768c0-6.6,5.4-12,12-12h495.3c6.6,0,12,5.4,12,12v159.4
		C1963.4,934,1958,939.4,1951.4,939.4z"/>
	<rect x="1476.9" y="939.4" class="st16" width="453.7" height="36.3"/>
	<path class="st1" d="M1456.1,1564.9h495.3c6.6,0,12,5.4,12,12v159.4c0,6.6-5.4,12-12,12h-495.3c-6.6,0-12-5.4-12-12v-159.4
		C1444.1,1570.3,1449.5,1564.9,1456.1,1564.9z"/>
	<rect x="1476.9" y="1528.7" class="st16" width="453.7" height="36.3"/>
</g>
<g class="st20">
	
		<linearGradient id="SVGID_2_" gradientUnits="userSpaceOnUse" x1="1200.2" y1="-150.9773" x2="1268.1" y2="-150.9773" gradientTransform="matrix(1 0 0 -1 0 1080)">
		<stop  offset="8.465609e-02" style="stop-color:#004A6E"/>
		<stop  offset="0.93" style="stop-color:#004A6E"/>
	</linearGradient>
	<path class="st21" d="M1200.2,1227.8c2.1,4.5,18.4,7.4,37.3,6c7.9-0.6,16.3-2,24.4-4.3c2.2-0.6,4.2-1.2,6.2-1.7H1200.2z"/>
	
		<linearGradient id="SVGID_3_" gradientUnits="userSpaceOnUse" x1="1444.1001" y1="82.9437" x2="1873.2998" y2="82.9437" gradientTransform="matrix(1 0 0 -1 0 1080)">
		<stop  offset="8.465609e-02" style="stop-color:#004A6E"/>
		<stop  offset="0.93" style="stop-color:#004A6E"/>
	</linearGradient>
	<path class="st22" d="M1831.6,755.8c-4.9,3.9-10.5,9-13.2,13.8c2-4.4,3.6-9,5-13.8h-379.3V849c0.3-0.9,0.5-1.7,0.7-2.6
		c39.9,99,188.6,301.3,198,308.7c3.9,3,3,13.2,0.7,25.5l0,0c-0.3,1.5-0.6,2.9-0.9,4.4v0.1c-1.5,7.1-3.4,14.8-5.1,21.9
		c0,0.1,0,0.1,0,0.2c-0.1,0.5-0.3,1.1-0.4,1.6c0,0.1,0,0.2-0.1,0.3c-0.2,0.8-0.4,1.6-0.6,2.4c-0.1,0.3-0.1,0.6-0.2,0.9
		s-0.1,0.7-0.2,1s-0.2,0.7-0.2,1c-0.1,0.3-0.1,0.6-0.2,0.9c-0.1,0.4-0.2,0.8-0.3,1.3c-0.1,0.3-0.1,0.5-0.2,0.8
		c-0.1,0.5-0.2,1-0.3,1.6c0,0.2-0.1,0.4-0.1,0.7c-0.1,0.4-0.2,0.8-0.2,1.2c0,0.2-0.1,0.5-0.1,0.7c-0.1,0.4-0.2,0.9-0.2,1.3
		c0,0.1-0.1,0.3-0.1,0.4c-0.1,0.5-0.2,1.1-0.3,1.6c0,0.2-0.1,0.3-0.1,0.5c-0.1,0.4-0.1,0.7-0.2,1.1c0,0.2,0,0.4-0.1,0.5
		c-0.1,0.4-0.1,0.8-0.1,1.1c0,0.1,0,0.2,0,0.4c-0.1,0.5-0.1,0.9-0.1,1.4c0,0.1,0,0.2,0,0.3c0,0.3,0,0.7-0.1,1c0,0.1,0,0.3,0,0.4
		c0,0.3,0,0.6,0,0.9c0,0.1,0,0.2,0,0.3c0,0.4,0,0.7,0,1.1c0,0.1,0,0.1,0,0.2c0,0.3,0,0.5,0.1,0.8c0,0.1,0,0.2,0,0.3
		c0,0.2,0.1,0.4,0.1,0.6c0,0.1,0,0.2,0.1,0.2c0.1,0.3,0.1,0.5,0.2,0.7v0.1c0,0,0,0.1,0.1,0.1v0.1c0.1,0.1,0.1,0.2,0.2,0.3
		c0,0.1,0.1,0.1,0.1,0.2c0.1,0.1,0.1,0.2,0.2,0.2l0.1,0.1l0.1,0.1l0.1,0.1c0.1,0.1,0.2,0.2,0.4,0.2c0.1,0.1,0.3,0.1,0.5,0.1
		c9.2,1.1,53.2-68.5,65.6-88.3c2.1-3.3,3.2-5.3,3.2-5.3s-0.9-1.2-2.5-3.3l0,0c-0.8-1.1-1.7-2.4-2.8-3.9l0,0
		c-0.3-0.4-0.6-0.8-0.8-1.2c-0.1-0.1-0.1-0.1-0.2-0.2c-0.3-0.4-0.6-0.8-0.9-1.2c-0.1-0.1-0.1-0.2-0.2-0.3c-0.3-0.4-0.6-0.8-0.9-1.3
		c-0.1-0.1-0.1-0.2-0.2-0.3c-0.3-0.4-0.6-0.9-1-1.4l0,0c-0.4-0.5-0.8-1.1-1.1-1.6c-8.1-11.5-19.7-28.5-30.3-46.4
		c-19.1-32-40.8-102.2-78.9-166.3c-11.2-18.9-20.5-34.5-28-47.1l76.2,69.1c0,0,30.1-23.4,74.3-74.7c38.5-24.7,75.6-39.2,104.1-81.6
		c2.3-3.4,4.3-6.9,6.1-10.7c-0.2,0.5-0.3,1-0.4,1.6c-1.9,10.4-1,21.3,1.1,21.2s4.1-16,4.1-16s-1.4,18.7,3,18.7
		c3.2,0,3.6-9.9,3.6-15.4c0.2,4.8,1,12.7,4,13.1c2.9,0.4,3.3-7.3,3.2-12.5c0.3,4.3,1.2,10.1,3.6,10.3c3.8,0.5,5.4-16.4,5.4-16.4
		s19.5-5.1,28.6-21.1L1831.6,755.8L1831.6,755.8z"/>
</g>
<g>
	<polygon class="st13" points="1611,913.6 1441.6,760.1 1501.5,749.2 	"/>
	<polygon class="st23" points="1611,913.6 1441.6,760.1 1501.5,749.2 	"/>
	<path class="st3" d="M1385.6,711.7c-84.5,80.5-123.8,433.8-138.3,446.1s-69.1,36.3-68.8,43.4c0.3,7,33.3,10.9,61.9,2.6
		c25.9-7.5,36.6-4.5,54-9.8c9.8-15.3,29.7-93.2,54.2-156.4c24.4-63.2,63.5-174.1,76.8-224.5l165.1-92.1l-99.6-85.7L1385.6,711.7z"/>
	<path class="st3" d="M1567.7,680.7c-76,23.9-141.5,38.4-153.7,96.9c-12.2,58.6,196,343.1,207.3,351.9c11.3,8.8-17.2,78.5-7.9,83
		c9.3,4.5,69.3-93.5,69.3-93.5s-21.9-29.1-41-61.1s-40.8-102.2-78.9-166.3c-38.1-64-53.7-90.7-53.7-90.7s150.2,3.9,216.6-26.5
		C1792,744,1728.8,629.9,1567.7,680.7z"/>
	<g>
		<g>
			<defs>
				<polygon id="SVGID_4_" points="1,1 2,1 1,2 				"/>
			</defs>
			<defs>
				<polygon id="SVGID_5_" points="-1,-1 -2,-1 -1,-2 				"/>
			</defs>
			<clipPath id="SVGID_6_">
				<use xlink:href="#SVGID_4_"  style="overflow:visible;"/>
			</clipPath>
			<clipPath id="SVGID_7_" class="st24">
				<use xlink:href="#SVGID_5_"  style="overflow:visible;"/>
			</clipPath>
			
				<linearGradient id="SVGID_8_" gradientUnits="userSpaceOnUse" x1="1698.0128" y1="477.0565" x2="1799.3231" y2="204.5668" gradientTransform="matrix(0.9923 0.1236 0.1236 -0.9923 -177.0759 957.4258)">
				<stop  offset="0" style="stop-color:#FFFFFF"/>
				<stop  offset="1" style="stop-color:#000000"/>
			</linearGradient>
			<path class="st25" d="M1567.7,680.7c-76,23.9-141.5,38.4-153.7,96.9c-12.2,58.6,196,343.1,207.3,351.9c11.3,8.8-17.2,78.5-7.9,83
				c9.3,4.5,69.3-93.5,69.3-93.5s-21.9-29.1-41-61.1s-40.8-102.2-78.9-166.3c-38.1-64-53.7-90.7-53.7-90.7s150.2,3.9,216.6-26.5
				C1792,744,1728.8,629.9,1567.7,680.7z"/>
		</g>
	</g>
	
		<linearGradient id="SVGID_9_" gradientUnits="userSpaceOnUse" x1="1698.0128" y1="477.0565" x2="1799.3231" y2="204.5668" gradientTransform="matrix(0.9923 0.1236 0.1236 -0.9923 -177.0759 957.4258)">
		<stop  offset="0" style="stop-color:#FFFFFF"/>
		<stop  offset="1" style="stop-color:#F5D0BA"/>
	</linearGradient>
	<path class="st26" d="M1567.7,680.7c-76,23.9-141.5,38.4-153.7,96.9c-12.2,58.6,196,343.1,207.3,351.9c11.3,8.8-17.2,78.5-7.9,83
		c9.3,4.5,69.3-93.5,69.3-93.5s-21.9-29.1-41-61.1s-40.8-102.2-78.9-166.3c-38.1-64-53.7-90.7-53.7-90.7s150.2,3.9,216.6-26.5
		C1792,744,1728.8,629.9,1567.7,680.7z"/>
	<path class="st27" d="M1709.9,681.9c-31.2-15.7-79.2-21.1-142.2-1.2c-6,1.9-12,3.7-17.8,5.5l-52.5-45.2l-12.9-1l-98.9,71.7
		c-2.6,2.5-5.2,5.2-7.7,8.2c22.3,8.1,46,30.3,46,30.3s24.6-2.8,40.5,6.8c15.9,9.7,44.6,44,44.6,44s150.2,3.9,216.6-26.5
		c2-0.9,3.9-1.9,5.7-3L1709.9,681.9z"/>
	<path class="st28" d="M1385.6,711.7c102.9,28.2,182.7,146.9,225.5,201.9c0,0,30.1-23.4,74.3-74.7c38.5-24.7,75.6-39.2,104.1-81.6
		c33.4-49.6,19-147.8-32.2-229.8c-51.2,6.2-96.2,8.9-144-10.9c0,0-15.3,18.2-58.3,72.3C1474,637.6,1426.3,669.5,1385.6,711.7z"/>
	<path class="st29" d="M1637.8,337.1c9.8,9.1,23.7,15.1,40.3,17.2c18.6,2.3,42-3.8,55.8-22c0.5,0.4,1,0.8,1.6,1.3
		c-12.8,16.6-34.9,25.6-57.7,22.8c-17.2-2.1-31.5-8.4-41.7-17.9C1636.8,338,1637.4,337.6,1637.8,337.1z"/>
	<g>
		<path class="st29" d="M1616.8,157.3c-10.4-13.1-7.1-36.4,3.8-44.7c8.1-6.2,20.9-4.1,24.7-11.9c7.4-15.1,33.7-22.4,49.9-10.3
			c20.9,15.7,33.6,8.9,49.3-2.1c16.8-11.8,28.5-25.4,66.3-11.5c37.9,14,50.3,11.5,61-5.8s49.3-25.9,78.3,3.3s36.3,49.4,60.2,45.1
			c23.9-4.2,48.9-13,65,11.5c16,24.4-7.6,62-33.5,56.8c-25.9-5.2-18.5,28-15,47.9c3.6,19.8-20.8,44.6-51.5,27.3s-39.7-9.2-53.4,5.9
			c-13.7,15.1-41.5,9.2-53.3-3.3c-11.7-12.5-26.7-23.5-48.4-15.1c-21.6,8.4-29.4,14.7-50.5,1c-21.1-13.8-26.2-11.1-40.4-6.6
			c-14.2,4.6-38.4-10-38.4-10L1616.8,157.3z"/>
		<path class="st30" d="M1664,200.9l2-20.3l69.5,10.4c39.8-9.3,46.7-2.4,69.6,8.3s25-18.4,51.8-22.3c26.9-3.9,27.6,19.6,51,23.2
			c23.4,3.6,20.7-20.7,50-13.5c27.7,6.8,27.2,28.4,66.5,35c0.7,4.9,1.7,9.7,2.4,13.9c3.6,19.8-20.8,44.6-51.5,27.3
			s-39.7-9.2-53.4,5.9c-13.7,15.1-41.5,9.2-53.3-3.3c-11.7-12.5-26.7-23.5-48.4-15.1c-21.6,8.4-29.4,14.7-50.5,1
			c-21.1-13.8-25.1-12.2-39.3-7.6c-14.2,4.6-38.4-6.2-38.4-6.2L1664,200.9z"/>
		<path class="st3" d="M1740.5,339c-6.7,17.9-32.7,45.1-60.1,41c-29.4-4.4-43.5-21.7-48.2-37.9c5.1-2.2,11.7-5.9,13.1-13.4
			c3.5-18.6-3.7-120.3-3.7-120.3l71.6-3.7c0,0,5.7,100.5,8.4,116.4C1722.7,327.1,1732.7,335.6,1740.5,339z"/>
		<path class="st27" d="M1703.8,235.7c-4.1,14.3-21.7,54-57.5,57.3c-1-17.8-2.3-36.8-3.4-52.4L1703.8,235.7z"/>
		
			<ellipse transform="matrix(0.402 -0.9156 0.9156 0.402 841.5924 1687.9502)" class="st3" cx="1713.1" cy="199.7" rx="27.6" ry="27.6"/>
		<ellipse class="st5" cx="1713.1" cy="199.6" rx="14.5" ry="14.5"/>
		<path class="st3" d="M1609.4,205.2c2.3,38.8,15.5,69.3,54.8,66.7c22.5-1.5,50.7-34.1,48.4-72.9c-2.3-38.8-10.4-66.6-56.5-67.1
			C1611.6,131.4,1607.1,166.4,1609.4,205.2z"/>
		<path d="M1669.3,193.9c0.1,2,1.8,3.5,3.9,3.4c2-0.1,3.5-1.8,3.4-3.9c-0.1-2-1.8-3.5-3.9-3.4
			C1670.7,190.2,1669.2,191.9,1669.3,193.9z"/>
		<path d="M1619.5,195.9c0.1,2,1.8,3.5,3.8,3.4s3.5-1.8,3.4-3.8s-1.8-3.5-3.8-3.4S1619.3,193.9,1619.5,195.9z"/>
		<path class="st5" d="M1609.7,204.8c1.7-0.8,3.6-1.3,5.6-1.3c6.7,0.1,12,5.6,11.9,12.2c-0.1,6.7-5.6,12-12.2,11.9
			c-1,0-2-0.2-2.9-0.4c-1.6-7-2.5-14.4-2.4-22.2C1609.7,205,1609.7,204.9,1609.7,204.8z"/>
		<path class="st5" d="M1667.8,213.6c0.4,6.7,6.1,11.7,12.8,11.3c6.7-0.4,11.7-6.1,11.3-12.8c-0.4-6.7-6.1-11.7-12.8-11.3
			C1672.5,201.2,1667.4,206.9,1667.8,213.6z"/>
		<path class="st5" d="M1646.7,196.1l-9.6,18.4c-1.1,2.2,0.4,4.8,2.9,4.9l11.2,0.3L1646.7,196.1z"/>
		<path class="st6" d="M1716.3,219.4c0.1,1.3,1.2,2.3,2.5,2.2s2.3-1.2,2.2-2.5s-1.2-2.3-2.5-2.2S1716.2,218.1,1716.3,219.4z"/>
		<path class="st31" d="M1740.9,200.7c-23.2,6.4-36.3-2.8-45.9-10c-9.6-7.1-5-35.1-19.6-41.6s-19.7,5.1-35.5-1
			c-18.4-7.1-24.6,6-24.6,6s3.7-16.2,32.9-23c29.2-6.8,59.7-3.3,74.3,16c4.8,6.3,0.3,19,5.7,25.2
			C1741.7,187.8,1740.9,200.7,1740.9,200.7z"/>
		<path class="st29" d="M1739.2,190.1c-23.6,4.9-32.7,5.9-41.8-1.8c-9.1-7.7-2.7-35.3-16.9-42.8c-14.2-7.4-19.5,4.3-35.7-0.7
			c-17.3-5.3-24.6,1.8-24.6,1.8s-3.5-23.1,26.1-28s68,7.7,81.3,27.8C1740.8,166.7,1739.2,190.1,1739.2,190.1z"/>
		<path class="st29" d="M1681.6,180.1c-2.1-0.6-4.2-1.2-6.4-1.6c-2.1-0.4-4.3-0.6-6.4-0.6s-4.3,0.3-6.3,0.8
			c-2.1,0.5-4.1,1.3-5.9,2.4l0,0c-0.2,0.1-0.5,0.1-0.6-0.2c-0.1-0.2-0.1-0.4,0.1-0.6c1.7-1.6,3.8-2.7,6-3.4s4.5-1.1,6.8-1.1
			s4.6,0.3,6.8,0.9c1.1,0.3,2.2,0.7,3.3,1.1c1,0.5,2.1,0.9,3.1,1.4c0.2,0.1,0.3,0.4,0.2,0.6C1682.1,180,1681.9,180.1,1681.6,180.1
			L1681.6,180.1z"/>
		<path class="st29" d="M1634.3,182.8c-2-0.5-3.9-1.1-5.8-1.4c-1.9-0.3-3.9-0.7-5.8-0.7c-1.9-0.1-3.9,0-5.8,0.2
			c-1.9,0.3-3.8,0.8-5.6,1.6h-0.1c-0.2,0.1-0.5,0-0.6-0.2s0-0.4,0.1-0.6c1.7-1.4,3.7-2.1,5.8-2.6c2.1-0.5,4.2-0.6,6.3-0.5
			c2.1,0.1,4.2,0.5,6.1,1.1c1,0.3,2,0.7,2.9,1c0.9,0.4,1.9,0.8,2.8,1.3c0.2,0.1,0.3,0.4,0.2,0.6
			C1634.8,182.7,1634.5,182.8,1634.3,182.8z"/>
		<path class="st5" d="M1635.5,230c-0.1,1.8,6.3,5.6,14,5.6c7.7-0.1,13.8-3.6,13.9-5.8c0.1-2.7-6.3,2.4-14,2.5
			C1641.7,232.4,1635.6,227.3,1635.5,230z"/>
	</g>
	<path class="st32" d="M1777.5,440.2c0,0,45.4,34,56.6,119.4c0,0,0.8,37.8,21.8,37.8c33.5,0,39.2-32.7,39.2-32.7s-0.1-49-27.2-107.4
		c-27-58.3-56.1-87.8-127.6-120.7c-7.3,17.8-27.2,43.5-56.8,41.8c-33.3-1.9-46-21.7-51.5-38c-7.7,2.8-21.3,4.5-46.2,15.2
		c0.2,0.4,0.3,0.8,0.5,1.2l-2.1-2.6c-25.6,11.7-115.1,120.3-71,135.8c20.6,7.2,35.9-17,57-38.7c4.5-4.6,6.6-8.1,11.2-12.5
		c-5.2,11.2-9,23.7-1.7,32.3c12.4,14.5,26.8,17.5,26.8,17.5l6.6,28c0,0,20.9,22.1,74.1,27s69.8-14.9,69.8-14.9
		S1774.7,465.9,1777.5,440.2z M1608.4,415.4c0.3-0.2,0.5-0.4,0.8-0.7c0.1,0.3,0.3,0.5,0.4,0.8L1608.4,415.4z"/>
	<path class="st2" d="M1672,1104.3c-8.7,10.5-16.2,43-22.7,49.3c-7,6.8-12.3,4.4-27.4,1.3c-4.5,23.5-14.7,54.6-8.6,57.5
		c9.3,4.5,69.3-93.5,69.3-93.5S1678.4,1113.4,1672,1104.3z"/>
	<path class="st13" d="M1680.2,1115.7c-4.4,7.1-58.6,94.9-68.6,93.1c0.2,1.9,0.8,3.2,1.8,3.7c9.3,4.5,69.3-93.5,69.3-93.5
		S1681.8,1117.8,1680.2,1115.7z"/>
	<path class="st2" d="M1245.1,1191.9c-11.6-0.9-11.6-10.3-21.4-19.3c-20.6,11.4-45.5,23.9-45.3,28.7c0.3,7,33.3,10.9,61.9,2.6
		c25.9-7.5,36.6-4.5,54-9.8c2.1-3.4,4.8-9.7,7.9-18.3C1285.8,1176.9,1256.8,1192.8,1245.1,1191.9z"/>
	<path class="st13" d="M1296,1190.4c-17.4,5.3-28.1,2.3-54,9.8c-27.6,8-59.4,4.7-61.8-1.9c-1.2,1.2-1.8,2.1-1.8,2.9
		c0.3,7,33.3,10.9,61.9,2.6c25.9-7.5,36.6-4.5,54-9.8c1.1-1.7,2.3-4.2,3.7-7.4C1297.3,1188.2,1296.6,1189.5,1296,1190.4z"/>
	<path class="st5" d="M1364.7,746.4c-1.7-0.2-3.3-0.2-4.9,0.1c-4.6,8.1-9.1,17-13.3,26.5c2.7,5,7.7,8.7,13.7,9.4
		c9.9,1.2,19-5.8,20.3-15.8C1381.7,756.7,1374.6,747.6,1364.7,746.4z"/>
	<path class="st5" d="M1414.6,793.3c1.8,9.4,5.8,21,11.5,34.2c8.1-1.1,14.8-7.5,15.8-15.9c1.3-10.1-5.9-19.3-16-20.5
		C1421.8,790.5,1417.9,791.4,1414.6,793.3z"/>
</g>
<rect x="703.8" y="190" transform="matrix(0.7957 -0.6057 0.6057 0.7957 45.4001 516.0728)" class="st2" width="167.8" height="1.5"/>
<ellipse class="st33" cx="237.5" cy="392" rx="33.6" ry="33.6"/>
<ellipse class="st34" cx="236" cy="393.5" rx="33.6" ry="33.6"/>
<circle class="st2" cx="236" cy="393.4" r="12.8"/>
<path class="st23" d="M274.5,414.8c-1.1,2-3.6,2.7-5.6,1.7l-33.4-18.1c-2-1.1-2.7-3.6-1.7-5.6s3.6-2.7,5.6-1.7l33.4,18.1
	C274.8,410.3,275.5,412.8,274.5,414.8z"/>
<path class="st29" d="M276.3,410c-0.9,2.1-3.3,3.1-5.4,2.2l-35.2-14.4c-2.1-0.9-3.1-3.3-2.2-5.4c0.9-2.1,3.3-3.1,5.4-2.2l35.2,14.4
	C276.1,405.5,277.1,407.9,276.3,410z"/>
<path class="st3" d="M562.4,378.1c-0.8,3.9-2.6,10.8-3.4,14c-0.3,1,0.3,2.1,1.2,2.5c3.8,1.6,13.1,4.8,18.1,1.1
	c4.8-3.6,4.2-3.1,4.2-3.1s-1.2-1.4-3-0.8c-1.2,0.4-4.4-1.2-6.4-2.2c-1.1-0.6-1.6-1.8-1.3-2.9l2-7.4L562.4,378.1z"/>
<path class="st34" d="M576,274c1.9,8.3,12.6,44.2,10.3,68c-2.4,24.6-9.4,38.4-9.4,38.4c-4.6,1.2-12.6-1.8-14.5-2.3
	c0,0,6.6-26.1,4.2-45.2c-2.4-19.1-12.8-52.9-12.8-52.9L576,274z"/>
<path class="st35" d="M576,274c1.9,8.3,12.6,44.2,10.3,68c-2.4,24.6-9.4,38.4-9.4,38.4c-4.6,1.2-12.6-1.8-14.5-2.3
	c0,0,6.6-26.1,4.2-45.2c-2.4-19.1-12.8-52.9-12.8-52.9L576,274z"/>
<path class="st36" d="M661.2,334.4l-15,11.1c-0.8,0.6-1.9,0.5-2.5-0.3c-1.3-1.6-3.8-4.6-7-8.1c3.5-2.8,7.9-7.3,7.9-7.3l4.4,5.2
	c0.7,0.8,1.8,1.1,2.7,0.8c2.2-0.7,6-1.9,7.2-2.2C660.6,333.2,661.2,334.4,661.2,334.4z"/>
<g>
	<path class="st36" d="M652.9,284.2c0,0,1.3-3.6-4.2-7.9c-4.8-3.7-24.8-16.6-29.9-19.9c-4.2,1.2-8.5,2.2-12.7,3.1
		c5.3,10.2,29.6,16.8,32.9,18.4c3.7,1.8,5.8,2.5,7.3,3.7s1.8,2.6,2.4,2.4c0.5-0.1,0-2.2,0-2.2c0.5,0.6,0.9,3.1,1.5,2.8
		c0.6-0.3-0.1-2.6-0.1-2.6c0.6,0.7,0.7,2.8,1.3,2.9s0.5-2.3,0.5-2.3L652.9,284.2z"/>
</g>
<path class="st32" d="M600.9,226.9c3.8,8,5.6,23.5,17.8,29.4l-9.2,9.8l-18.8-9.8L600.9,226.9z"/>
<g>
	<path class="st37" d="M582.5,226.6c2.1,6.3,10.4,8.7,12.4,8.5c3.6-0.4,2,0.9,4.4-1.5c-0.9-6.9-1.7-8.5-0.5-11
		c1.4-2.8,12.3-14.7,12.3-14.7l-10.3-8.3c0,0-10.6,11.9-12.6,13.7c-1.2,1.1-5.4,1.7-7.6,2.6C580.1,219.8,581.2,222.8,582.5,226.6z"
		/>
	<path class="st38" d="M602.1,215.7c0.4,0.3,0.9,0.6,1.3,0.9c3.4-4.3,6.7-8.2,6.7-8.2l-7.5-5.7C599.3,207.6,598.6,213,602.1,215.7z"
		/>
	<path class="st39" d="M603.1,188.6c-2.8,2.1-6.8,3.8-4.7,13.5l4.7,0.9l1.8-9.8L603.1,188.6z"/>
	<path class="st36" d="M617.2,207.9c-1.9,3.4-4.6,7.4-7.4,8.3c-1.8,0.6-3.4-0.3-6.4-3.1c-2.9-2.6-4.2-7.9-1.1-13.5
		c3.1-5.6,7-9.3,13.1-6C622,197.3,620.3,202.3,617.2,207.9z"/>
	<path d="M615.6,204.7c-0.2,0.3-0.6,0.4-0.9,0.2c-0.3-0.2-0.4-0.6-0.2-0.9c0.2-0.3,0.6-0.4,0.9-0.2
		C615.6,204,615.7,204.4,615.6,204.7z"/>
	<g>
		<path class="st38" d="M603.7,205.3c-2.2-1.2-3-4-1.8-6.2s4-3,6.2-1.8L603.7,205.3z"/>
		<path class="st37" d="M604.8,203.4c-1.2-0.6-1.6-2.1-0.9-3.3c0.6-1.2,2.1-1.6,3.3-0.9L604.8,203.4z"/>
	</g>
	<path class="st38" d="M613.2,207.4c-0.5,1-1.7,1.3-2.7,0.8s-1.3-1.7-0.8-2.7s1.7-1.3,2.7-0.8C613.4,205.3,613.8,206.5,613.2,207.4z
		"/>
	<path class="st38" d="M617.6,205.4l0.6,4.6c0.1,0.5-0.4,1-1,0.8L615,210L617.6,205.4z"/>
	<path class="st39" d="M607.6,198.4l-1.8,3.1l1.1,0.7c0.4-0.8,1.6-2.6,2-3.2L607.6,198.4z"/>
	<path class="st39" d="M620.7,191.9c-1.8-3-4.1-0.3-5.8-4.6c-3.3-8.3-12-7.5-14.6-4.2c-1.7,2.2-6.8,0.3-7,6.1
		c-0.2,5.1,12.9,10.3,14.8,10.4c2.5,0.2,4.8-1.7,7.2-4.3c0,0,2.2,0.2,4.7,4.2C622,199,623.4,196.4,620.7,191.9z"/>
	<path class="st38" d="M613.9,201.6c0.7,0,1.4,0.2,2.1,0.6c0.3,0.2,0.7,0.4,0.9,0.6c0.1,0.1,0.3,0.2,0.4,0.4
		c0.1,0.1,0.1,0.1,0.2,0.2l0.1,0.1v0.1l0,0l0,0c0-0.1-0.2,0-0.2,0c0.1-0.1,0.2-0.1,0.3,0s0.1,0.2,0,0.3c0,0.1-0.2,0.1-0.3,0h-0.1
		h-0.1l-0.1-0.1c-0.1,0-0.1-0.1-0.2-0.1l-0.4-0.2c-0.3-0.2-0.6-0.3-0.9-0.5c-0.6-0.3-1.2-0.6-1.8-0.9c-0.1-0.1-0.1-0.2-0.1-0.3
		C613.7,201.6,613.8,201.6,613.9,201.6z"/>
</g>
<path class="st32" d="M598.7,222.8c0,0-1.5,3-7.2,0.5c-5.7-2.6-8.3-8.7-8.3-8.7s-14.9,3.3-29.4,28.5c-7.8,13.5-14.3,29.3-14.3,29.3
	s10.5,14.2,38,13.3c2.9-6.4,8.6-19.9,20-33.4C604,244.4,606.2,234.9,598.7,222.8z"/>
<path class="st40" d="M601,227.3c4.4,8,3.5,29.5,3.5,29.5l-5.7-6.8C600.6,246.6,601.6,232.8,601,227.3z"/>
<path class="st40" d="M570.1,229.9c0.8,10.1,7.2,36.2,14,41.7l7.4-12L570.1,229.9z"/>
<path class="st41" d="M570.1,228.3c-1.8,8.3,10.6,22.4,24.2,35.9c13.6,13.5,25.4,23.1,32.5,27.8c7.1,4.7,10.5,6.5,11.3,5.5
	c0.4-0.5-0.5-1.2-1.4-1.8c1,0.4,2.1,0.7,2.5,0.2s-0.5-1.3-1.4-2c1,0.5,2.2,0.9,2.7,0.3s-0.8-1.6-2-2.4c1,0.5,2,0.7,2.4,0.2
	c0.6-1-4.8-4.1-6.4-5.1c0.8,0.4,2.3,1.2,3.1,1.6c0.6,0.2,1.2-0.2,1.3-0.6s-0.2-0.6-1.4-1.4c-2.4-1.6-7.6-5.3-19.7-15.7
	s-22.4-28-27.4-37.5C582.8,219,572.1,219.4,570.1,228.3z"/>
<path class="st42" d="M599.1,268.9c3.9-1.7,8-6.1,9.3-7.7c-8-9.7-14.5-21-18.2-28c-7.5-14.4-18.3-14-20.3-5.1
	c-1.8,8.4,10.7,22.6,24.4,36.2C596,265.9,597.5,267.4,599.1,268.9z"/>
<path class="st32" d="M658.8,333.6c-1.2,0.3-5,1.5-7.2,2.2c-0.5,0.2-1.1,0.2-1.6,0c-0.3,0.7-0.7,1.6-1.5,2.4
	c-1.3,1.4-5.2,3.7-6.9,4.6c0.8,0.9,1.5,1.7,2,2.3c0.6,0.8,1.7,0.9,2.5,0.3l15-11.1C661.2,334.4,660.6,333.2,658.8,333.6z"/>
<path class="st12" d="M660.2,333.7l-15,11.1c-0.6,0.4-1.3,0.5-1.9,0.2c0.1,0.1,0.2,0.2,0.2,0.3c0.6,0.8,1.7,0.9,2.5,0.3l15-11.1
	C661.2,334.4,660.9,333.9,660.2,333.7z"/>
<path class="st43" d="M582.5,392.6c0,0-1.2-1.4-3-0.8c-1.2,0.4-4.4-1.2-6.4-2.2c-0.4-0.2-0.7-0.5-0.9-0.8c-3.7,3.4-7.5,2.4-12.5,0.5
	c-0.3,1.1-0.5,2.1-0.8,2.9c-0.3,1,0.3,2.1,1.2,2.5c3.8,1.6,13.1,4.8,18.1,1.1C581.6,393.3,582.4,392.7,582.5,392.6z"/>
<path class="st2" d="M578.3,394.5c-5,3.7-14.3,0.5-18.1-1.1c-0.6-0.3-1.1-0.8-1.2-1.4v0.1c-0.3,1,0.3,2.1,1.2,2.5
	c3.8,1.6,13.1,4.8,18.1,1.1c3.3-2.4,4.1-3,4.2-3.1c0,0-0.3-0.3-0.8-0.6C581.1,392.4,580.1,393.2,578.3,394.5z"/>
<path class="st35" d="M646.7,327.5l-2.2,2.2c0,0-4.6,5.3-8.1,8.1c-6.4-7-18.8-20.2-27.5-25.5c-15.3-9.4-36.7-9.4-50.5-10.9
	c-12.5-1.4-23.2-11.7-18.7-28.9c0,0,15.8,5.4,26.2,6.3c12.9,1.1,23.7-0.1,45,13.6C631.6,305.6,646.7,327.5,646.7,327.5z"/>
<path class="st44" d="M202.2,549.7l-1.5,0.8c0,0,0.4-130.4-0.1-149.5c-0.5-18.3,4.7-25,8.4-29.9c0.3-0.3,0.5-0.6,0.7-1
	c3.8-5.1,85.1-81.2,88.6-84.4l1,1.1c-0.8,0.8-84.7,79.3-88.4,84.2c-0.2,0.3-0.5,0.6-0.7,1c-3.8,5-8.6,11.2-8.1,29
	C202.6,419.6,202.2,541.8,202.2,549.7L202.2,549.7L202.2,549.7z"/>
<path class="st3" d="M297.9,272.3c2.1,1.2,4.5,5.7,4.5,5.7s-4.1,8-4.5,7.8c-0.4-0.1-3.9-4.3-5.8-6.8L297.9,272.3z"/>
<path class="st45" d="M304.4,273.5c-3.7,2.2-8.2,5.1-8.1,8.4c0.1,3.4,1,6.8,1,6.8l12.3-8.2L304.4,273.5z"/>
<path class="st35" d="M321.4,192.3c-1.2-1-3.6,0.1-3.6,0.1l3.2,1.9L321.4,192.3z"/>
<path class="st34" d="M331.1,369.2c0,0,1.2,3.5,0.6,4.5s-1.8,0.7-9.2,0.7s-15.4,0.8-15.8-0.5s2.1-1.7,5.7-2.8
	c3.6-1.1,4.8-2.8,4.8-2.8L331.1,369.2z"/>
<path class="st2" d="M307.1,373c1.4,0.9,8.8,0.2,15.6,0.2c7.4,0,8.6,0.2,9.2-0.7c0,0,0,0,0-0.1c0,0.5,0,1-0.1,1.3
	c-0.6,1-1.8,0.7-9.2,0.7s-15.4,0.8-15.8-0.5C306.6,373.5,306.7,373.2,307.1,373z"/>
<path class="st34" d="M385.9,366.2c0,0,1.9,3.1,1.4,4.1s-1.9,0.2-8.8,2.7c-5.7,2.1-15.6,1.9-16.3,0.8c-1.3-2.1,2.3-1.2,5.7-2.8
	c3.4-1.6,4.1-3.7,4.1-3.7L385.9,366.2z"/>
<path class="st2" d="M362.2,372.7c1.6,0.9,10.7,1,16.1-1c6.9-2.5,8.3-1.7,8.8-2.7c0-0.1,0.1-0.2,0.1-0.3c0.2,0.6,0.3,1.2,0.2,1.6
	c-0.5,1-1.9,0.2-8.8,2.7c-5.7,2.1-15.6,1.9-16.3,0.8C361.9,373.3,361.9,372.9,362.2,372.7z"/>
<path class="st35" d="M331.2,257c-7,24.6-9.9,33.8-13.5,64.9s-1.8,47.2-1.8,47.2c3.3,1.1,13.1,1.1,16.4,0.5c0,0,2.3-30.6,4.9-48.2
	c2.7-17.6,18.8-62.5,18.8-62.5L331.2,257z"/>
<path class="st35" d="M366.7,237.5c10.6,18,9.9,31.6,9.7,68.2c-0.2,34.5,10.1,60.7,10.1,60.7c-3.5,1.7-12.8,4.7-17.5,3.6
	c0,0-14.6-31.5-16-62.9c-1.5-31.8-0.7-46.3-0.7-46.3l-19.7-2.2L366.7,237.5z"/>
<path class="st39" d="M341.1,199.9c11.6,10.7,20.4,27.4,25.6,37.6c0,0-8,11.8-21.7,17.2c-13.8,5.4-14.3,3.8-14.3,3.8
	s-16.8-26.8-26.1-35.3c0,0,4.2-10.5,17.4-14.8C335.2,204,341.1,199.9,341.1,199.9z"/>
<path class="st46" d="M345.7,208.5c3.4,10.5,2.9,44.3,2.9,44.3s-12.1,5.4-16.1,5.8L321.8,245c0,0,6.9-15.3,9.4-26.5
	C333.7,207.4,345.7,208.5,345.7,208.5z"/>
<path class="st39" d="M324.5,194.6c18.5,1.3,22,9,22.5,21.4c0.5,12.5-2.1,28.4-13,44.9c-10.3,15.6-25.2,21.2-25.2,21.2l-6-9.1
	c0,0,10.5-6.6,18.8-18.1c10.5-14.5,9.6-36.3,9.6-36.3l-23.7,3.6c0,0-10.6,7-14.2,21.5c-3.6,14.5,5.3,28,5.3,28l-6,9.1
	c0,0-8.8-4.8-10.9-24.1c-2.3-21.3,8.4-40.7,17.3-48.9C308,199.5,324.5,194.6,324.5,194.6z"/>
<path class="st3" d="M310.6,204.4c0.1-1.5,0-1.7-0.6-2.9c-1.2-2.4-11.5-12.3-11.5-12.3l8.6-7.8c0,0,9.8,9.9,11.7,11.4
	c1.1,0.9,4,1.2,5.9,1.8C325.4,198.1,318.3,206.2,310.6,204.4z"/>
<path class="st47" d="M308.6,197.6c-0.4,0.3-0.7,0.6-1.1,0.8c-3.2-3.6-6.3-6.9-6.3-6.9l6.3-5.4C310.7,190.3,311.6,195,308.6,197.6z"
	/>
<path class="st3" d="M306.4,176.1c3,4.6,6.5,13.3,1.7,17.9c-8,7.7-13.5-2.1-17.5-8.4L306.4,176.1z"/>
<path class="st48" d="M306.4,176.1c0,0-7.5,9.5-19.9,11.8c-7.8,1.4-9.6-11.1-1.6-13.1c0,0,2.1-5.1,7.7-6.7
	C301.6,165.6,306.4,176.1,306.4,176.1z"/>
<path class="st13" d="M309.5,181.7l-2.9-0.4l-3-3.9l0.8-4.5c0,0,2.2,2.9,3.1,4.6C308.6,179.4,309.5,181.7,309.5,181.7z"/>
<polygon class="st13" points="302.5,179.4 303.9,181.3 302.8,181.8 301.1,180.2 "/>
<path d="M298.7,184.6c0.1,0.2,0.5,0.3,0.7,0.2s0.3-0.5,0.2-0.7c-0.1-0.2-0.5-0.3-0.7-0.2C298.6,184,298.5,184.3,298.7,184.6z"/>
<path class="st5" d="M301.3,186.2c0.5,0.7,1.4,1,2.2,0.5c0.7-0.5,1-1.4,0.5-2.2c-0.5-0.7-1.4-1-2.2-0.5
	C301,184.5,300.8,185.5,301.3,186.2z"/>
<path class="st5" d="M295.4,186.7v3.6c0,0.4,0.5,0.7,0.8,0.5l1.8-0.9L295.4,186.7z"/>
<g>
	<path class="st5" d="M305.7,183.9c1.6-1.1,2-3.4,0.9-5s-3.4-2-5-0.9L305.7,183.9z"/>
	<path class="st49" d="M304.7,182.5c0.9-0.6,1.1-1.8,0.5-2.6c-0.6-0.9-1.8-1.1-2.6-0.5L304.7,182.5z"/>
</g>
<path class="st50" d="M324.7,194.7c-2.3-1.6-3.3-2.4-3.3-2.4s-1.6,4.9-3.9,7.3c-2.3,2.4-5.3,5.2-5.3,5.2s5.5-0.1,9.2-3.2
	C325.1,198.5,324.7,194.7,324.7,194.7z"/>
<path class="st50" d="M312.3,204.8L309,200l-1.1,1.7c0,0,1.2,2.2,2.8,2.7C312.3,205,312.3,204.8,312.3,204.8z"/>
<path class="st3" d="M148.3,939.8c0.1,15.2,0.9,43.9,1.1,55.1c3.4,1.5,11.2,2.2,10.8,0c-0.3-3.5,1.6-24.3,2.3-44.2
	c0.9-24.3,0-82.1,0.9-82.2c1.7,0,9.5,44.2,10.1,67.9c0.8,25.5,0.2,47.5,0.5,58.5c3.4,1.8,11.2,2.3,10.8,0
	c-0.4-3.7,2.9-31.5,3.4-51.4c0.9-33.3,2.1-77.7,0-90.6c-3.4-19.9-8.8-27.1-9.7-33.3l-30.4,0.4c-0.8,4.8-7,10.8-10.8,24.8
	C133,861.2,148.1,919.4,148.3,939.8z"/>
<g>
	<path class="st11" d="M174.2,994.9c0,0.3,0,0.7,0,1l0.2,6.1h2l0.7-5.2c1.5,0.5,2.8,1.2,4.5,3.1c2.7,3,5.5,2.5,7,2.5
		c1,0,3.2,0.1,3.5,0c0-2.3-5.9-2.4-7-7.1c0-0.1,0-0.2-0.1-0.4C183.4,997.8,177.1,993.3,174.2,994.9z"/>
	<path class="st12" d="M177.1,996.2c2.7,0.5,5,3.6,6.6,4.7c1.5,1.1,4.5,1.1,8.2,1.1c0,0.1,0.1,0.2,0.1,0.4c-0.3,0.1-2.5,0-3.5,0
		c-1.5,0-4.4,0.5-7-2.5c-1.6-1.8-3-2.5-4.5-3.1l-0.7,5.2h-2l-0.2-6.2C174.9,995.8,175.9,995.9,177.1,996.2z"/>
</g>
<g>
	<path class="st11" d="M149.4,994.9c0,0.3,0.2,7.6,0.2,7.6h1.9l0.8-5.3c1.4,0.8,2.7,2,4.4,3.8c2.7,3,5.4,2.7,6.9,2.7
		c1,0,1.7-0.3,2-0.4c-0.2-1.3-4.1-3.3-5.2-8c0-0.1,0-0.2,0-0.4C159.5,996.5,152.7,993.6,149.4,994.9z"/>
	<path class="st12" d="M156.7,1000.9c-1.6-1.8-2.9-2.9-4.4-3.8l-0.8,5.3h-1.9l-0.2-6.5c0.8,0.1,2,0.3,3.2,0.6c2.1,0.7,4,3.7,6.1,5.2
		c2,1.4,4.4,1.2,6.6,0.9c0.1,0.2,0.2,0.4,0.2,0.5c-0.3,0.1-0.9,0.4-2,0.4C162.1,1003.6,159.3,1003.9,156.7,1000.9z"/>
</g>
<path class="st28" d="M148.3,820.1c0,0-9.2,15.5-10.9,23c-2.3,10.6-2.6,24.8-0.2,46.7c2.4,22,2.4,26.7,2.4,26.7s14.6,3.5,28.3,2.6
	s23.6-2.1,23.6-2.1s-0.2-17-0.9-39.4s-3.5-38.2-6.1-44.6c-2.6-6.4-5.8-13.4-5.8-13.4s-9.5,1.3-16.6,1.3
	C154.9,820.9,148.3,820.1,148.3,820.1z"/>
<path class="st19" d="M122.9,738.6c-0.1-4,3.4-3.1,6.2-3.8s1.4-4.1,5-5c5.4-1.3,7.1,3.1,6.2,6c-0.7,2.3,1.7,5.3,2.8,2.9
	c1.6-3.3,3.2-4.9,6.2-4.3c2.6,0.5,2,2.6,4.8,3.5c3,0.9,4.4-1.3,6.7,1.9c1.7,2.4,0.3,6.1-3.8,9.5c-4.2,3.4-3.6,13.3-11.3,14
	s-4-5.8-7.8-5c-3.7,0.8-5.2-0.2-6.2-3.3s-1.5-5-3.7-4.8s-5-1.6-5.2-3.9c-0.2-2.3,2.5-2.6,2.6-4.1
	C125.7,740.4,122.9,740.4,122.9,738.6z"/>
<path class="st39" d="M186.5,826.6c0,0,2.1-7-0.4-14.8s-8.9-16.8-8.9-16.8s-0.4,0-1-0.1c-0.5-4.5-0.9-8.9-2-13.3
	c0.3,0.1,0.5,0.1,0.8,0.2c9.6,2.6,18.4,14.3,21.6,25.7c3.2,11.5,3.5,23-3.5,25.5C187.4,835.1,186.5,826.6,186.5,826.6z"/>
<path class="st3" d="M145.5,795.5c-0.9-2.5-2-4.6-3.6-6.6c4.5-3,8.2-5,8.2-7.5c0-2.9-2.6-22-2.6-22l14-2.5c0,0,2.3,19.4,3.6,22.5
	c1.2,2.8,2.4,1.2,9.8,2.6c1.4,4.4,1.9,9,2.7,13.6c-2.7,0.1-7.1,0.3-11.8,1.2c-5.8,1.1-12.7,1.1-17.6,5.4
	C147.3,799.8,146.3,797.7,145.5,795.5z"/>
<path class="st5" d="M152.1,756.5c1.4,2.3,0.7,5.3-1.6,6.7s-5.3,0.7-6.7-1.6s-0.7-5.3,1.6-6.7C147.7,753.6,150.7,754.3,152.1,756.5z
	"/>
<path class="st49" d="M150.2,757.8c0.7,1.2,0.4,2.8-0.8,3.5s-2.8,0.4-3.5-0.8s-0.4-2.8,0.8-3.5C147.9,756.2,149.4,756.6,150.2,757.8
	z"/>
<path class="st51" d="M158.8,768.3c1.3,0,3.2-0.1,4.2-0.7c-0.8-5.7-1.4-10.8-1.4-10.8l-11.3,2C151.4,764.3,154.9,768.2,158.8,768.3z
	"/>
<path class="st3" d="M163.3,749.3c5.2,8.3,3.8,12.4-0.4,15c-4.3,2.6-11,0.5-14.9-5.2c-3.9-5.6-4.6-11.8,1.3-15.5
	C155.7,739.7,159.6,743.5,163.3,749.3z"/>
<path class="st51" d="M149.8,753.7c0.7-0.7,1.4-1.4,2.2-1.8c0.4-0.2,0.8-0.4,1.3-0.6c0.4-0.1,0.9-0.2,1.4-0.2l0,0
	c0.1,0,0.1,0,0.1-0.1s0-0.1-0.1-0.1c-1-0.2-2.1,0.1-2.9,0.6c-0.4,0.3-0.8,0.6-1.2,0.9c-0.2,0.2-0.3,0.4-0.5,0.6L149.8,753.7
	L149.8,753.7C149.7,753.8,149.7,753.8,149.8,753.7z"/>
<path d="M154.5,754c0.2,0.3,0.1,0.7-0.2,0.9s-0.7,0.1-0.9-0.2s-0.1-0.7,0.2-0.9C153.9,753.6,154.3,753.7,154.5,754z"/>
<path class="st51" d="M157.9,748.4c0.2-0.2,0.3-0.4,0.5-0.6c0.4-0.4,0.8-0.7,1.2-0.9c0.5-0.3,1-0.5,1.6-0.6c0.1,0.1,0.2,0.2,0.3,0.3
	c-0.1,0-0.2,0-0.4,0.1c-0.5,0.1-0.9,0.3-1.3,0.6c-0.8,0.5-1.5,1.1-2.2,1.8h-0.1c0,0-0.1-0.1,0-0.1L157.9,748.4z"/>
<path d="M162,749.4c0.2,0.3,0.1,0.7-0.2,0.9s-0.7,0.1-0.9-0.2s-0.1-0.7,0.2-0.9C161.4,749,161.8,749.1,162,749.4z"/>
<path class="st5" d="M163.7,750.4c0,0,0.1,0,0.1-0.1c0.8,1.4,1.4,2.6,1.9,3.8c-1,0.5-2.3,0.2-2.8-0.9
	C162.4,752.3,162.7,751,163.7,750.4z"/>
<path class="st5" d="M156.9,757.2c0.6,1,0.3,2.3-0.7,2.9c-1,0.6-2.3,0.3-2.9-0.7s-0.3-2.3,0.7-2.9
	C154.9,755.9,156.3,756.2,156.9,757.2z"/>
<path class="st5" d="M156.9,751.2l3.5,1.2c0.4,0.1,0.5,0.7,0.2,1l-1.4,1.4L156.9,751.2z"/>
<path class="st8" d="M163.2,755.4c0.1,0.2-0.3,1.1-1.3,1.7c-1,0.6-2,0.9-2.1,0.7s0.8-0.6,1.8-1.2C162.5,756,163,755.2,163.2,755.4z"
	/>
<path class="st39" d="M143.8,799.3c-0.5-1.3-1.1-2.7-1.5-4c-0.9-2.5,1.2-4.5-0.4-6.5c2.3-1.5,4.4-2.8,5.9-4.1
	c4.5,3.9,15.4,9.1,15.7,9.1s3.6-7.6,3.6-12.8c1.2,0.2,3,0.1,6.2,0.5l0,0c0.3,0,0.5,0.1,0.8,0.1c0.2,0,0.4,0.1,0.7,0.1l0,0
	c0.7,0.2,1.5,0.4,2.1,0.7c0.5,0.8,0.9,1.6,1.6,3.7c1,3.2,1.1,5.2,1.1,5.9l0,0c0,0,5.1,4.5,4.1,9.9c-0.9,5.3-5.3,7.2-5.3,7.2l1.7,9.4
	c0,0-4.2,1.9-14.7,2.2c-11.5,0.4-17.2-0.7-17.2-0.7l-4.8-11.5l1.3-8.6C144.9,800,142.5,799.8,143.8,799.3z"/>
<g>
	<g>
		
			<rect x="166.1" y="562.4" transform="matrix(0.9005 -0.4349 0.4349 0.9005 -249.2908 148.7539)" class="st1" width="68.6" height="113.3"/>
		<path class="st1" d="M214.8,566.8l-64.4,31.1c-1.8,0.9-3.9,0.1-4.8-1.7l-9-18.6c-0.9-1.8-0.1-3.9,1.7-4.8l64.4-31.1
			c1.8-0.9,3.9-0.1,4.8,1.7l9,18.6C217.4,563.8,216.6,565.9,214.8,566.8z"/>
		
			<rect x="149.5" y="582" transform="matrix(0.9005 -0.4349 0.4349 0.9005 -236.0135 138.145)" class="st16" width="68.7" height="5.5"/>
		<path class="st1" d="M191.3,683.3l65.2-31.5c1.6-0.8,3.4-0.1,4.2,1.5l9.4,19.4c0.8,1.6,0.1,3.4-1.5,4.2l-65.2,31.5
			c-1.6,0.8-3.4,0.1-4.2-1.5l-9.4-19.4C189.1,686,189.7,684.1,191.3,683.3z"/>
		
			<rect x="188.3" y="662.4" transform="matrix(0.9005 -0.4349 0.4349 0.9005 -267.0902 163.0142)" class="st16" width="68.7" height="5.5"/>
	</g>
	<g>
		
			<rect x="152.4" y="587.8" transform="matrix(0.9005 -0.4349 0.4349 0.9005 -249.7606 152.8391)" class="st1" width="113.3" height="68.6"/>
		<path class="st1" d="M261,635.6l-30.2-62.5c-1.1-2.3-0.1-5.1,2.1-6.2l16.7-8.1c2.3-1.1,5.1-0.1,6.2,2.1l30.2,62.5
			c1.1,2.3,0.1,5.1-2.1,6.2l-16.7,8.1C264.9,638.9,262.1,637.9,261,635.6z"/>
		
			<rect x="240.7" y="571.2" transform="matrix(0.9005 -0.4349 0.4349 0.9005 -239.1375 166.132)" class="st16" width="5.5" height="68.7"/>
		<path class="st1" d="M145.2,613.6l30.8,63.8c0.9,1.9,0.1,4.3-1.8,5.2l-18,8.7c-1.9,0.9-4.3,0.1-5.2-1.8l-30.8-63.8
			c-0.9-1.9-0.1-4.3,1.8-5.2l18-8.7C141.9,610.9,144.3,611.7,145.2,613.6z"/>
		
			<rect x="160.3" y="610" transform="matrix(0.9005 -0.4349 0.4349 0.9005 -264.0067 135.0553)" class="st16" width="5.5" height="68.7"/>
	</g>
</g>
<path class="st52" d="M286,623.5L255.8,561c-1.1-2.3-3.9-3.2-6.2-2.1l-16.7,8.1c-2.3,1.1-3.2,3.9-2.1,6.2l0.2,0.3l-4.9,2.4v0.1
	l-6.8,3.3l-3.3-6.8h0.1l-2.4-4.9h-0.1l0,0l1.3-0.6c1.8-0.9,2.5-3,1.7-4.8l-9-18.6c-0.9-1.8-3-2.5-4.8-1.7L138.4,573
	c-1.8,0.9-2.5,3-1.7,4.8l9,18.6c0.9,1.8,3,2.5,4.8,1.7l1.3-0.6l2.4,4.9h0.1l3.3,6.8l-6.8,3.3v-0.1l-4.9,2.4l-0.5-1
	c-0.9-1.9-3.3-2.7-5.2-1.8l-18,8.7c-1.9,0.9-2.7,3.3-1.8,5.2l30.8,63.8c0.9,1.9,3.3,2.7,5.2,1.8l18-8.7c1.9-0.9,2.7-3.3,1.8-5.2
	l-0.5-1l4.9-2.4v-0.1l6.8-3.3l3.3,6.8h-0.1l2.4,4.9l-1.6,0.8c-1.6,0.8-2.2,2.6-1.5,4.2l9.4,19.4c0.8,1.6,2.6,2.2,4.2,1.5l65.2-31.5
	c1.6-0.8,2.2-2.6,1.5-4.2l-9.4-19.4c-0.8-1.6-2.6-2.2-4.2-1.5l-1.7,0.8l0,0h0.1l-2.4-4.9h-0.1l-3.3-6.8l6.8-3.3v0.1l4.9-2.4v-0.1
	l0,0l0.2,0.4c1.1,2.3,3.9,3.2,6.2,2.1l16.7-8.1C286.1,628.6,287.1,625.8,286,623.5z"/>
<path class="st19" d="M148.5,762.4c7.2-3.5-1.1-13.7,1.8-17.3c3.9-4.8,8.1-2.4,8.4-2.6c1.2-0.7-4.1-3.4-4.1-3.4l-15.9,8.4
	L148.5,762.4z"/>
<path class="st51" d="M122.9,746.5c-0.2-2.3,2.5-2.6,2.6-4.1c0.1-2-2.6-2-2.7-3.7c0-1,0.2-1.7,0.5-2.2c1,2.4,3.5,4.3,7,4.5
	c4.2,0.2,5.4-3.3,7.2-0.4c2.8,4.3,5.4,2.5,5.4,2.5s-4.1,4-3.5,8.9c0.2,2,1.8,4.5,3.6,6.8c-0.1,1,0.1,2,0.7,3c0.5,0.8,1.2,1.4,2,1.8
	l0,0c-7.7,0.7-4-5.8-7.8-5c-3.7,0.8-5.2-0.2-6.2-3.3s-1.5-5-3.7-4.8C125.9,750.6,123.1,748.7,122.9,746.5z"/>
<path class="st44" d="M162.7,841.4h24.6c1,0,2-0.7,2.3-1.6l9.8-28.2c0.3-0.8-0.3-1.6-1.1-1.6h-25c-0.7,0-1.4,0.5-1.6,1.1l-10,28.8
	C161.4,840.6,162,841.4,162.7,841.4z"/>
<path class="st39" d="M131.8,820.9c1.5,11.8,4.3,20.7,11.6,22.3c5.6,1.2,17.8-1.8,24.2-3.6c-2.1-3-2.2-6.1-1.6-9.7
	c-7.3,1.5-21.2,3.7-21.2,3.7s-1.1-4.7-1.8-12.8c-0.7-8.2,1.8-18.9,1.8-18.9s0.3-0.2,0.9-0.4c-1.2-4.3-2.6-8.6-3.3-13
	c-0.2,0.2-0.4,0.3-0.6,0.5C134,795,130.3,809.1,131.8,820.9z"/>
<path class="st3" d="M167.6,839.6c1.9-0.5,3.3-0.9,3.8-1.1c2.2-0.6,9.9-2.3,9.5-3.6c-0.1-0.5-0.7-0.7-1.6-0.5
	c-0.9,0.2-1.8,0.3-2.3,0.4c1.3-0.3,5.9-1.3,5.6-2.4c-0.1-0.7-1.7-0.5-3.3-0.2c-1.1,0.2-2.3,0.4-2.9,0.5c0.7-0.2,2.2-0.5,3.6-0.9
	c1.4-0.4,2.6-1,2.4-1.6c-0.2-0.6-1.3-0.5-2.5-0.2c-0.9,0.2-1.9,0.5-2.7,0.7c1.7-0.5,4.2-1.4,3.8-2.1c-0.5-1.1-7.2,1-7.8,1.2
	c0.4-0.2,2.5-1.2,2.8-1.5c0.7-0.4,0.8-1.3-0.1-1.5c-0.9-0.2-5.6,1.4-7.5,2.7c-0.7,0.2-1.6,0.4-2.6,0.6
	C165.3,833.5,165.4,836.6,167.6,839.6z"/>
<path class="st53" d="M146.8,816.5c0.6-5.5-0.1-7.9-1.4-13.4l-1.9,5.6L146.8,816.5z"/>
<g>
	<rect x="269.6" y="469.9" class="st1" width="56.1" height="513.4"/>
	<path class="st1" d="M268.6,981h58.1c1.7,0,3.1,1.4,3.1,3.1v16.5c0,1.7-1.4,3.1-3.1,3.1h-58.1c-1.7,0-3.1-1.4-3.1-3.1v-16.5
		C265.5,982.3,266.8,981,268.6,981z"/>
	<rect x="269.6" y="976.4" class="st16" width="56.1" height="4.5"/>
</g>
<g>
	<rect x="916.1" y="749.2" class="st1" width="56.1" height="234"/>
	<path class="st1" d="M915.1,981h58.1c1.7,0,3.1,1.4,3.1,3.1v16.5c0,1.7-1.4,3.1-3.1,3.1h-58.1c-1.7,0-3.1-1.4-3.1-3.1v-16.5
		C912,982.3,913.4,981,915.1,981z"/>
	<rect x="916.1" y="976.4" class="st16" width="56.1" height="4.5"/>
</g>
<g>
	<rect x="715.3" y="327.4" class="st1" width="56.1" height="655.9"/>
	<path class="st1" d="M714.3,981h58.1c1.7,0,3.1,1.4,3.1,3.1v16.5c0,1.7-1.4,3.1-3.1,3.1h-58.1c-1.7,0-3.1-1.4-3.1-3.1v-16.5
		C711.2,982.3,712.6,981,714.3,981z"/>
	<rect x="715.3" y="976.4" class="st16" width="56.1" height="4.5"/>
</g>
<g>
	<rect x="715.3" y="-508" class="st1" width="56.1" height="655.9"/>
</g>
<g>
	<rect x="921.6" y="-327.9" class="st1" width="56.1" height="655.9"/>
</g>
<g>
	<rect x="268.9" y="545.6" class="st1" width="56.8" height="93.9"/>
	<path class="st1" d="M267.4,626.4h59.8c1.5,0,2.7,1.2,2.7,2.7v17.7c0,1.5-1.2,2.7-2.7,2.7h-59.8c-1.5,0-2.7-1.2-2.7-2.7v-17.7
		C264.7,627.6,266,626.4,267.4,626.4z"/>
	<rect x="268.8" y="621.8" class="st16" width="56.9" height="4.6"/>
	<rect x="268.8" y="649.4" class="st16" width="56.9" height="4.6"/>
	<path class="st1" d="M327.1,548h-59.6c-1.5,0-2.7-1.2-2.7-2.7v-17.5c0-1.5,1.2-2.7,2.7-2.7h59.6c1.5,0,2.7,1.2,2.7,2.7v17.5
		C329.9,546.7,328.6,548,327.1,548z"/>
	<rect x="268.9" y="548" class="st16" width="56.9" height="4.6"/>
</g>
<g>
	<rect x="274.9" y="558.8" class="st1" width="77.1" height="56.8"/>
	<path class="st1" d="M349.7,616v-57.6c0-2.1,1.7-3.8,3.8-3.8H369c2.1,0,3.8,1.7,3.8,3.8V616c0,2.1-1.7,3.8-3.8,3.8h-15.4
		C351.4,619.7,349.7,618,349.7,616z"/>
	<rect x="345.1" y="558.7" class="st16" width="4.6" height="56.9"/>
	<rect x="372.7" y="558.8" class="st16" width="4.6" height="56.9"/>
</g>
<g>
	<rect x="357.7" y="372" class="st1" width="513.4" height="56.1"/>
	<path class="st1" d="M868.8,429.1V371c0-1.7,1.4-3.1,3.1-3.1h16.5c1.7,0,3.1,1.4,3.1,3.1v58.1c0,1.7-1.4,3.1-3.1,3.1h-16.5
		C870.2,432.2,868.8,430.8,868.8,429.1z"/>
	<rect x="864.3" y="372" class="st16" width="4.5" height="56.1"/>
</g>
<g>
	<path class="st1" d="M356.6,429.2v-57.6c0-2.1,1.7-3.8,3.8-3.8h15.4c2.1,0,3.8,1.7,3.8,3.8v57.6c0,2.1-1.7,3.8-3.8,3.8h-15.4
		C358.3,433,356.6,431.3,356.6,429.2z"/>
	<rect x="352" y="372" class="st16" width="4.6" height="56.9"/>
	<rect x="379.6" y="371.9" class="st16" width="4.6" height="56.9"/>
</g>
<g>
	<path class="st1" d="M325.5,476.4h-56.9v-41.9c0-34.1,27.8-61.9,61.9-61.9h42.2v56.9h-42.2c-2.8,0-5,2.2-5,5V476.4z"/>
	<g>
		<path class="st1" d="M354.9,430.9V370c0-1.4,1.2-2.6,2.6-2.6h18.1c1.4,0,2.6,1.2,2.6,2.6v60.9c0,1.4-1.2,2.6-2.6,2.6h-18.1
			C356.1,433.5,354.9,432.3,354.9,430.9z"/>
		<rect x="350.3" y="371.5" class="st16" width="4.6" height="57.8"/>
	</g>
	<g>
		<path class="st1" d="M266.9,458.2h60.9c1.4,0,2.6,1.2,2.6,2.6v18.1c0,1.4-1.2,2.6-2.6,2.6h-60.9c-1.4,0-2.6-1.2-2.6-2.6v-18.1
			C264.3,459.4,265.5,458.2,266.9,458.2z"/>
		<rect x="268.4" y="453.5" class="st16" width="57.8" height="4.6"/>
		<rect x="268.4" y="481.6" class="st16" width="57.8" height="4.6"/>
		<rect x="268.4" y="520.4" class="st16" width="57.8" height="4.6"/>
	</g>
</g>
<g>
	<path class="st1" d="M921.5,324h56.9v41.9c0,34.1-27.8,61.9-61.9,61.9h-42.2v-56.9h42.2c2.8,0,5-2.2,5-5V324z"/>
	<g>
		<path class="st1" d="M892.1,369.6v60.9c0,1.4-1.2,2.6-2.6,2.6h-18.1c-1.4,0-2.6-1.2-2.6-2.6v-60.9c0-1.4,1.2-2.6,2.6-2.6h18.1
			C890.9,367,892.1,368.1,892.1,369.6z"/>
		<rect x="892.1" y="371.1" class="st16" width="4.6" height="57.8"/>
	</g>
	<g>
		<path class="st1" d="M980.1,342.3h-60.9c-1.4,0-2.6-1.2-2.6-2.6v-18.1c0-1.4,1.2-2.6,2.6-2.6h60.9c1.4,0,2.6,1.2,2.6,2.6v18.1
			C982.7,341.1,981.6,342.3,980.1,342.3z"/>
		<rect x="920.8" y="342.3" class="st16" width="57.8" height="4.6"/>
		<rect x="920.8" y="314.2" class="st16" width="57.8" height="4.6"/>
	</g>
</g>
<g>
	<path class="st1" d="M972.4,796.4h-56.9v-41.9c0-34.1,27.8-61.9,61.9-61.9h42.2v56.9h-42.2c-2.8,0-5,2.2-5,5V796.4z"/>
	<g>
		<path class="st1" d="M1001.8,750.8v-60.9c0-1.4,1.2-2.6,2.6-2.6h18.1c1.4,0,2.6,1.2,2.6,2.6v60.9c0,1.4-1.2,2.6-2.6,2.6h-18.1
			C1003,753.4,1001.8,752.2,1001.8,750.8z"/>
		<rect x="997.2" y="691.4" class="st16" width="4.6" height="57.8"/>
	</g>
	<g>
		<path class="st1" d="M913.8,778.1h60.9c1.4,0,2.6,1.2,2.6,2.6v18.1c0,1.4-1.2,2.6-2.6,2.6h-60.9c-1.4,0-2.6-1.2-2.6-2.6v-18.1
			C911.2,779.3,912.4,778.1,913.8,778.1z"/>
		<rect x="915.3" y="773.5" class="st16" width="57.8" height="4.6"/>
		<rect x="915.3" y="801.6" class="st16" width="57.8" height="4.6"/>
	</g>
</g>
<g>
	<g>
		<rect x="713.5" y="533.7" class="st1" width="58.1" height="96"/>
		<path class="st1" d="M773,547.1h-60.9c-1.6,0-2.9-1.3-2.9-2.9v-17.8c0-1.6,1.3-2.9,2.9-2.9H773c1.6,0,2.9,1.3,2.9,2.9v17.8
			C775.8,545.8,774.5,547.1,773,547.1z"/>
		<rect x="713.4" y="547.1" class="st16" width="58.2" height="4.7"/>
		<rect x="713.4" y="518.3" class="st16" width="58.2" height="4.7"/>
		<rect x="713.4" y="428.6" class="st16" width="58.2" height="4.7"/>
		<rect x="713.4" y="365.6" class="st16" width="58.2" height="4.7"/>
		<path class="st1" d="M712,627.3h61.1c1.5,0,2.8,1.2,2.8,2.8v18c0,1.5-1.2,2.8-2.8,2.8H712c-1.5,0-2.8-1.2-2.8-2.8v-18
			C709.2,628.6,710.5,627.3,712,627.3z"/>
		<rect x="713.5" y="622.6" class="st16" width="58.2" height="4.7"/>
	</g>
	<g>
		<rect x="700" y="558.2" class="st1" width="96" height="58.1"/>
		<path class="st1" d="M782.6,617.5v-60.6c0-1.7,1.4-3,3-3h17.5c1.7,0,3,1.4,3,3v60.6c0,1.7-1.4,3-3,3h-17.5
			C784,620.5,782.6,619.2,782.6,617.5z"/>
		<rect x="777.9" y="558.1" class="st16" width="4.7" height="58.2"/>
		<path class="st1" d="M702.4,557.5v59.4c0,2-1.6,3.6-3.6,3.6h-16.3c-2,0-3.6-1.6-3.6-3.6v-59.4c0-2,1.6-3.6,3.6-3.6h16.3
			C700.8,553.9,702.4,555.5,702.4,557.5z"/>
		<rect x="702.4" y="558.1" class="st16" width="4.7" height="58.2"/>
	</g>
</g>
<g>
	<g>
		
			<rect x="676.5" y="191.6" transform="matrix(0.9005 -0.4349 0.4349 0.9005 -37.2228 333.8309)" class="st1" width="68.6" height="113.3"/>
		<path class="st1" d="M725.2,195.9L660.8,227c-1.8,0.9-3.9,0.1-4.8-1.7l-9-18.6c-0.9-1.8-0.1-3.9,1.7-4.8l64.4-31.1
			c1.8-0.9,3.9-0.1,4.8,1.7l9,18.6C727.7,192.9,727,195.1,725.2,195.9z"/>
		
			<rect x="659.9" y="211.2" transform="matrix(0.9005 -0.4349 0.4349 0.9005 -23.9456 323.222)" class="st16" width="68.7" height="5.5"/>
		<path class="st1" d="M701.6,312.5l65.2-31.5c1.6-0.8,3.4-0.1,4.2,1.5l9.4,19.4c0.8,1.6,0.1,3.4-1.5,4.2l-65.2,31.5
			c-1.6,0.8-3.4,0.1-4.2-1.5l-9.4-19.4C699.4,315.1,700.1,313.2,701.6,312.5z"/>
		
			<rect x="698.6" y="291.6" transform="matrix(0.9005 -0.4349 0.4349 0.9005 -55.0494 348.0562)" class="st16" width="68.7" height="5.5"/>
	</g>
	<g>
		
			<rect x="662.9" y="217" transform="matrix(0.9005 -0.4349 0.4349 0.9005 -37.6924 337.9156)" class="st1" width="113.3" height="68.6"/>
		<path class="st1" d="M771.4,264.8l-30.2-62.5c-1.1-2.3-0.1-5.1,2.1-6.2L760,188c2.3-1.1,5.1-0.1,6.2,2.1l30.2,62.5
			c1.1,2.3,0.1,5.1-2.1,6.2l-16.7,8.1C775.2,268,772.5,267,771.4,264.8z"/>
		
			<rect x="751" y="200.4" transform="matrix(0.9005 -0.4349 0.4349 0.9005 -27.0623 351.1458)" class="st16" width="5.5" height="68.7"/>
		<path class="st1" d="M655.6,242.8l30.8,63.8c0.9,1.9,0.1,4.3-1.8,5.2l-18,8.7c-1.9,0.9-4.3,0.1-5.2-1.8l-30.8-63.8
			c-0.9-1.9-0.1-4.3,1.8-5.2l18-8.7C652.3,240.1,654.6,240.9,655.6,242.8z"/>
		
			<rect x="670.7" y="239.1" transform="matrix(0.9005 -0.4349 0.4349 0.9005 -51.9035 320.1047)" class="st16" width="5.5" height="68.7"/>
	</g>
</g>
<g>
	<path class="st1" d="M1597.5,540.5l-147.9,98.7c-5.5,3.7-13,2.2-16.6-3.3l-171.9-257.5c-3.7-5.5-2.2-13,3.3-16.6l147.9-98.7
		c5.5-3.7,13-2.2,16.6,3.3l171.9,257.5C1604.5,529.4,1603,536.8,1597.5,540.5z"/>
	<path class="st1" d="M1450.5,293.5L1278,408.7c-5.5,3.7-13,2.2-16.6-3.3l-32.1-48c-3.7-5.5-2.2-13,3.3-16.6l172.5-115.2
		c5.5-3.7,13-2.2,16.6,3.3l32.1,48C1457.5,282.4,1456,289.9,1450.5,293.5z"/>
	
		<rect x="1267.6" y="349.7" transform="matrix(0.8317 -0.5552 0.5552 0.8317 31.664 820.1248)" class="st16" width="202.2" height="16.2"/>
	<path class="st1" d="M1432.7,640.6l172.5-115.2c5.5-3.7,13-2.2,16.6,3.3l32.1,48c3.7,5.5,2.2,13-3.3,16.6l-172.5,115.2
		c-5.5,3.7-13,2.2-16.6-3.3l-32.1-48C1425.7,651.7,1427.2,644.2,1432.7,640.6z"/>
	
		<rect x="1413.4" y="568.2" transform="matrix(0.8317 -0.5552 0.5552 0.8317 -65.1075 937.845)" class="st16" width="202.2" height="16.2"/>
</g>
<path class="st3" d="M1832.7,541.2c-44.8,13.4-121.4,31.5-169.6,31.2c0,0-21.8-19.2-33.5-18s-22.9,5.5-22.3,7.6
	c0.7,2.2,18.3-0.6,18.3-0.6s-20.4,4.2-19,8.9s21.4-2,21.4-2s-17.3,4.7-16.6,9.5c0.8,4.8,19.1-2,19.1-2s-15.4,4.4-14.8,8.6
	c0.7,4.2,19.1,0.7,19.1,0.7s14.1,24,38.6,25.1c23.8,1.1,95.5,7.8,182.5-12.8c0,0,11.9-28.4,4.7-45.8
	C1853.5,534.2,1832.7,541.2,1832.7,541.2z"/>
<g>
	<path class="st5" d="M1014.2,779.4l-2.6,2.3c-0.3,0.3-0.2,0.8,0.2,0.9l1.7,0.7L1014.2,779.4z"/>
	<path class="st3" d="M1013.5,781.4c-1.4,6.3-1.7,11.4,4.4,12.7c1.7-3.2,3.1-4.5,5.4-10.6s4.7-10.9,1.1-11.6
		C1016.9,770.2,1014.9,775.1,1013.5,781.4z"/>
	<path class="st3" d="M962,786.5c0,0-1.5-11.5-1.8-12.4s-3.1-6.9-3.8-10.1c-0.7-3-0.6-3.9-0.1-4c0.6-0.1,2,4.3,2,4.3
		s-1.9-5.4-0.8-5.8c1.2-0.4,2.4,5.3,2.4,5.3s-2-6.4-0.8-6.8c1.2-0.4,2.7,6.2,2.7,6.2s-1.4-5.5-0.3-5.8c0.9-0.2,2.4,5.2,2.9,7.4
		c0.1,0.3,0.4,0.2,0.5,0c0.2-0.7,0.5-1.6,0.5-2.5c0.1-0.7,0.5-1.1,1-1.3c0.4-0.2,0.9,0.1,0.9,0.5c0,0.5,0,1.3,0.1,2.7
		c0.2,3.2-0.6,5.5,0.1,8.4c0.7,2.8,3.5,11.2,3.5,11.2s-2.5,1.4-4.2,1.9S962,786.5,962,786.5z"/>
	<path class="st54" d="M986,998.3v4.8c0,0-2.6,1-8.8,0.1s-11.7,0.6-15.7,0.2c-4-0.3-3.3-3.1-3.3-3.1s1-0.5,8.8-1.9
		c3.9-0.7,5-2.4,5-2.4L986,998.3z"/>
	<path class="st54" d="M1035.5,998.3v4.8c0,0-2.6,1-8.8,0.1c-6.2-0.9-11.7,0.6-15.7,0.3s-3.4-3.1-3.4-3.1s1-0.5,8.8-1.9
		c3.9-0.7,5-2.4,5-2.4L1035.5,998.3z"/>
	<path class="st32" d="M1031.6,863.3c4,16.5,0.8,53,0.5,77.5s3.7,58.1,3.7,58.1c-3,1.7-12.8,0-17.2-1.4c0,0-4.9-23.6-7.2-57.2
		c-2.3-33.6-1.3-47.6-1.3-47.6s-11.6,10.6-17,45.2c-5.4,34.6-6.2,61.5-6.2,61.5c-3.7,0.9-13.5,0-17-1.7c0,0,0-23,2.2-58.3
		s16.5-77.2,16.5-77.2L1031.6,863.3z"/>
	<path class="st55" d="M1032,866.1c-6.1,3.7-16.3,3.7-26.5,3.5c-10.2-0.1-18.2-1.2-18.2-1.2l1.5-6.5l42.8,1.3L1032,866.1z"/>
	<path class="st3" d="M1065,882.6c0.9,3.7,0.6,12.1-0.9,14.9c-1.4,2.7-3.4,2.8-3.9,2.4c-0.5-0.4,0.6-1.6,1.7-3.2
		c1.1-1.6-0.2-4.9-0.2-4.9s0.1,4.6-1.1,5.1s-1.2-4.7-1.8-5.9c-0.7-1.2-1.6-6.8-1.6-6.8L1065,882.6z"/>
	<path class="st3" d="M1014.4,804.6c1.3-2.9,5.9-21.4,5.9-21.4l11.2,5.5c0,0-2.9,15.8-3.1,18.5
		C1028.3,808.9,1013.1,807.6,1014.4,804.6z"/>
	<path class="st5" d="M1013.5,782.7c-0.2,1.1,0.4,2.2,1.5,2.4s2.2-0.4,2.4-1.5s-0.4-2.2-1.5-2.4
		C1014.8,781,1013.8,781.6,1013.5,782.7z"/>
	<path class="st56" d="M1015.2,776.5l0.5,0.2c0.2,0.1,0.3,0.2,0.5,0.2c0.2,0.1,0.3,0.2,0.5,0.2l0,0c0.1,0,0.2,0,0.3-0.1
		c0-0.1,0-0.1,0-0.2c-0.1-0.2-0.3-0.3-0.4-0.4c-0.1-0.1-0.3-0.3-0.5-0.4c-0.2-0.1-0.3-0.2-0.5-0.3c-0.1,0-0.1-0.1-0.2-0.1
		c-0.1,0.2-0.2,0.5-0.3,0.8C1015.1,776.4,1015.1,776.5,1015.2,776.5z"/>
	<path class="st39" d="M1059.7,855.6c-4.4-12.7-7.2-26.3-21-43.5l0,0c-1.6-2.2-3.6-4-5.8-5.3c-6.5-3.7-18.3-5.9-30.8-4.1
		c-13.2,1.8-21,0.9-26,1.3c-2.3-12-6.4-28.4-6.4-28.4l-10.8,2.2c0,0,1.5,30.2,8.4,37.9c5.1,6.4,24.4,8.8,24.4,8.8s-0.9,22.6-4.2,38
		c0,0,14.7,3.6,27,4c12.3,0.3,17.8-0.8,17.8-0.8s3.7-13.8,6.7-25.3c2.4,6,5.9,14.3,9,21c5.6,12,8.3,24.4,8.3,24.4l9.9-2.5
		C1066.3,883.4,1064.2,868.9,1059.7,855.6z"/>
	<path class="st28" d="M1018.6,772.2c0,0-3.1-6.4,0.5-7.7c4.1-1.5,6,2.7,6,2.7s8.9,0.3,10.8,6.5c2.4,7.8-4.9,18.1-4.9,18.1
		s-7.8-0.2-7.7-4.8c0.2-3.8-0.7-6.2-0.7-6.2l-1.7-1.8l-1.4,3.6l-1.3-0.2C1018.2,782.2,1021.7,774.6,1018.6,772.2z"/>
	<path class="st57" d="M1017.5,794c0.5-2,1.6-7.3,1.6-7.3l-0.9-0.2l-3.6,6.1c0,0,0.7,0.6,1.2,0.9
		C1016.3,793.6,1017.5,794,1017.5,794z"/>
	<g>
		<path class="st5" d="M1018,787.1c2.4,0.8,5-0.4,5.8-2.8c0.8-2.4-0.4-5-2.8-5.8L1018,787.1z"/>
		<path class="st49" d="M1018.7,785c1.3,0.4,2.6-0.2,3.1-1.5c0.4-1.3-0.2-2.6-1.5-3.1L1018.7,785z"/>
	</g>
</g>
<polyline class="st16" points="1025.4,691.9 1030,691.9 1030,748.8 1025.4,748.8 "/>
</svg>
