<?xml version="1.0" encoding="utf-8"?>
<!-- Generator: Adobe Illustrator 24.3.0, SVG Export Plug-In . SVG Version: 6.00 Build 0)  -->
<svg version="1.1" id="Layer_1" xmlns="http://www.w3.org/2000/svg" xmlns:xlink="http://www.w3.org/1999/xlink" x="0px" y="0px"
	 viewBox="0 0 1920 1080" style="enable-background:new 0 0 1920 1080;" xml:space="preserve">
<style type="text/css">
	.st0{fill:#EDF9FD;}
	.st1{fill:#B9EDFF;}
	.st2{font-family:'BebasNeue';}
	.st3{font-size:1032.7003px;}
	.st4{letter-spacing:-59.7;}
	.st5{letter-spacing:-18.9;}
	.st6{letter-spacing:-40.8;}
	.st7{letter-spacing:-90.4;}
	.st8{letter-spacing:-26.2;}
	.st9{fill:#171733;}
	.st10{fill:#23C6FD;}
	.st11{fill:none;stroke:#23C6FD;stroke-width:2;}
	.st12{opacity:0.3;fill:#3D6ACC;enable-background:new    ;}
	.st13{fill:#232E42;}
	.st14{fill:#F5CFBF;}
	.st15{fill:#292969;}
	.st16{fill:#007EC3;}
	.st17{fill:#3E3E78;}
	.st18{fill:#8AC0DF;}
	.st19{fill:#489DCD;}
	.st20{fill:#575757;}
	.st21{fill:#D0D0D0;}
	.st22{opacity:0.55;fill:#3D6ACC;enable-background:new    ;}
	.st23{fill:#FFFFFF;}
	.st24{fill:#349CD7;}
	.st25{fill:#FCE1CB;}
	.st26{opacity:0.65;fill:#FFBB9C;enable-background:new    ;}
	.st27{opacity:0.37;fill:#FFBB9C;enable-background:new    ;}
	.st28{fill:#4F97D0;}
	.st29{fill:#322200;}
	.st30{fill:#4F79A2;}
	.st31{fill:#FFBB9C;}
	.st32{fill:#FF9462;}
	.st33{fill:#F5A9A9;}
	.st34{fill:#FAF8DC;}
	.st35{opacity:0.72;fill:url(#SVGID_1_);enable-background:new    ;}
	.st36{opacity:0.72;fill:url(#SVGID_2_);enable-background:new    ;}
	.st37{opacity:0.7;fill:#CBC7FF;enable-background:new    ;}
	.st38{fill:url(#SVGID_3_);}
	.st39{fill:#F2F2F2;}
</style>
<rect id="Rectangle_1180_1_" x="0" class="st0" width="1920" height="1080"/>
<g id="Group_1407_1_" transform="translate(0 -4134)">
	<text transform="matrix(0.6862 0 0 1 -26.1929 5020.6133)" class="st1 st2 st3 st4">1</text>
	<text transform="matrix(0.6862 0 0 1 211.9185 5020.6133)" class="st1 st2 st3 st5">00 </text>
	<text transform="matrix(0.6862 0 0 1 840.4775 5020.6133)" class="st1 st2 st3 st6">D</text>
	<text transform="matrix(0.6862 0 0 1 1100.5474 5020.6133)" class="st1 st2 st3 st7">A</text>
	<text transform="matrix(0.6862 0 0 1 1325.8955 5020.6133)" class="st1 st2 st3 st8">Y</text>
	<text transform="matrix(0.6862 0 0 1 1587.3379 5020.6133)" class="st1 st2 st3 st5">S</text>
</g>
<g>
	<rect x="913.7" y="1231.8" class="st9" width="33.4" height="250.5"/>
	<path class="st10" d="M1196.1,1107H677.6V474c0-23.1,18.9-42,42-42H1154c23.1,0,42,18.9,42,42L1196.1,1107L1196.1,1107z"/>
	<path class="st11" d="M1196.1,1121.7H677.6v-633c0-23.1,18.9-42,42-42H1154c23.1,0,42,18.9,42,42L1196.1,1121.7L1196.1,1121.7z"/>
	<path class="st12" d="M1196.1,688.3c-36-117.2-112.6-194.4-188.1-209.5c0,0-0.7,0.9-1.8,2.6c-3.9-3.3-6.4-7.1-8.2-12.1h0.2
		c-0.7-1.6-1.3-3.4-1.9-5.5l0,0c-0.8-3-1.4-7.8-1.8-13.8H884.9c-0.4,4.9-0.8,8.8-1.2,11.2l0,0c-0.1,0.8-0.3,1.5-0.5,2.3
		c-0.1,0.2-0.1,0.4-0.2,0.6c-0.2,0.6-0.4,1.1-0.6,1.7c-0.1,0.2-0.2,0.4-0.3,0.6c-0.3,0.5-0.5,1.1-0.9,1.6c-0.1,0.2-0.2,0.4-0.4,0.5
		c-0.3,0.5-0.7,1-1.1,1.6c-1.5,2-3.4,3.9-5.7,5.7c-1.4-1.8-2.3-2.9-2.3-2.9s-136.9,24.3-187.8,160.4c-2.2,5.8-4.3,11.3-6.3,16.9
		v250.6c41.9,15.9,93.4,10,140.3,9.4h0.6h107.4h31.6h67.3h20h63.7h22.5h55.8h3.5c0,0,0.2,0,0.5-0.2c1.8-0.2,3.5-0.5,5.2-0.8V688.3
		H1196.1z"/>
	<g>
		<path class="st13" d="M766.3,678.2c-1.1,3.3,5.5,258.2,5.5,258.2h339.9l-0.6-271.3L766.3,678.2z"/>
		<g>
			<path class="st12" d="M1096.1,864.7c0,0-53.6,20.6-61,46.1c-3.8,13.2-6.4,15.3-7.1,25.6h83.8l-0.5-257.6l-29.7,18.1
				C1081.6,696.9,1099.4,817.7,1096.1,864.7z"/>
			<path class="st12" d="M942.1,891.9c-8.2-37.1-138.4-53.6-138.4-53.6l-3.3-141.4l-34.2-12.5c0,47.2,5.7,252,5.7,252h188.9
				C958.9,913.8,946.8,913,942.1,891.9z"/>
		</g>
		<path class="st14" d="M908.5,589c7.8,8.5,16.8,16.9,27.6,21.9c15.9-0.1,31.6,0.5,46.4,0.2c13.7-5.1,25.1-13.6,36.2-24.5
			c20.1-19.7,33.2-31.1,47.7-55.5c-52.9-17.5-61.5-20.2-66.9-40.9c-6-22.9-0.2-144.5-0.2-144.5l-105.6,1.8c0,0-3.6,120.1-6.8,140.1
			c-1.9,12.1-16.3,20.6-36.9,29.7C867,542.9,887.6,566.2,908.5,589z"/>
		
			<rect x="902.8" y="785.7" transform="matrix(0.9729 -0.2311 0.2311 0.9729 -173.1156 232.814)" class="st15" width="8.8" height="139.2"/>
		<path class="st14" d="M832.8,866.1c0,0,62.6-11.6,73.7-1s19.3,41.9,19.3,41.9s5.8,9.2,5.3,14.5s-1.9,14.9-1.9,14.9H821.8
			l-0.5-47.6L832.8,866.1z"/>
		<path class="st13" d="M875.1,499.2c0,0-136.9,24.3-187.8,160.4c-52.2,139.6-81.3,206.5-45,242.8c48.7,48.7,127.4,33,193.3,34.1
			c0,0-7.7-20.9-6.6-44s7.7-43.9,7.7-43.9l-95.6-6l59.3-145.5h281.2c0,0,22,8.8,40.6,70.3c19.3,63.5,12.1,169.2,12.1,169.2h55.8
			c23.4,0,42.3-18.1,42-41.5c-0.8-64.1-5.8-88.1-30.8-173.9c-35.2-120.8-113.1-200.5-190-215.9c0,0-36.3,52.2-62.6,54.4
			C922.3,561.8,875.1,499.2,875.1,499.2z"/>
		<path class="st14" d="M1048.1,936.4c0,0-1.6-33.5,14.8-50.6c16.5-17,47.6-22.4,58.9-22.4c11.2-0.1,23.5-7.9,23.5-7.9
			s42.8,1.6,48.3,41.8s0,39.1,0,39.1L1048.1,936.4L1048.1,936.4z"/>
	</g>
	<path class="st16" d="M1223.8,1231.8H658.9c-14.8,0-27-12.1-27-27v-106.4c0-14.8,12.1-27,27-27h564.9c14.8,0,27,12.1,27,27v106.4
		C1250.8,1219.7,1238.6,1231.8,1223.8,1231.8z"/>
	<path class="st15" d="M1104.3,1122.7H812.9c-10.5,0-19.1-8.6-19.1-19.1v-90c0-10.5,8.6-19.1,19.1-19.1h291.4
		c10.5,0,19.1,8.6,19.1,19.1v90C1123.3,1114.1,1114.8,1122.7,1104.3,1122.7z"/>
	<path class="st17" d="M756.4,1014.3c83.9-19.4,103.3,65.9,105.5,160.4s22,307.6,22,307.6H736.7c0,0-28.6-213.1-33-303.2
		C699.3,1089,699.3,1027.5,756.4,1014.3z"/>
	<path class="st17" d="M1078.7,1011.4c60.8-9.7,108.3,27.1,79.7,156.7c-28.6,129.6-83.5,314.2-83.5,314.2H934.3
		c0,0,54.3-259.8,69.2-328.5C1017.9,1087.9,1023.8,1020.2,1078.7,1011.4z"/>
	<path class="st12" d="M1196.1,1072.2v-84.8H677.6v86.8c-26.3,7.8-45.7,32.3-45.7,61.1v32.9c0,35.1,28.7,63.8,63.8,63.8h11.9
		c9.1,101.5,29.1,250.5,29.1,250.5h147.2c0,0-13.6-146.5-19.5-250.5h49.3v250.5H1075c0,0,39.1-131.5,68.5-250.5h43.5
		c35.1,0,63.8-28.7,63.8-63.8v-32.9C1250.8,1103.3,1226.9,1076.6,1196.1,1072.2z M947.1,1421.7v-189.9H987
		C974.2,1292.4,958.1,1369.2,947.1,1421.7z"/>
	<g>
		<path class="st18" d="M1503.9,913.5h-303.8l28.9-176.2c1.8-10.8,11.1-18.8,22.1-18.8H1518c9.3,0,16.5,8.4,15,17.6L1503.9,913.5z"
			/>
		<path class="st19" d="M1120.8,936.4h383.1v-22.8h-373.8c-5.1,0-9.2,4.1-9.2,9.2v13.6H1120.8z"/>
		<circle class="st0" cx="1378.5" cy="819.2" r="26.6"/>
	</g>
	<polygon class="st20" points="337.4,1482.3 290.3,1482.3 356.2,1011.4 403.4,1011.4 	"/>
	<polygon class="st20" points="1621.8,1482.3 1668.9,1482.3 1603,1011.4 1555.8,1011.4 	"/>
	<path class="st20" d="M1708.5,1014.3H252.6c-2,0-3.6-1.6-3.6-3.6v-71.8c0-2,1.6-3.6,3.6-3.6h1455.9c2,0,3.6,1.6,3.6,3.6v71.8
		C1712.1,1012.7,1710.5,1014.3,1708.5,1014.3z"/>
	<path class="st21" d="M1703.5,935.3h-1446c-4.7,0-8.6,3.9-8.6,8.6v9.9c0-4.7,3.9-8.6,8.6-8.6h1446c4.7,0,8.6,3.9,8.6,8.6v-9.9
		C1712.1,939.1,1708.3,935.3,1703.5,935.3z"/>
	<polygon class="st22" points="350.3,1053.9 397.4,1053.9 403.4,1011.4 356.2,1011.4 	"/>
	<polygon class="st22" points="1603,1011.4 1555.8,1011.4 1561.8,1053.9 1608.9,1053.9 	"/>
</g>
<g id="Group_840_2_" transform="translate(504.563 937.421)">
	<g id="Group_838_3_" transform="translate(0 0)">
		<path id="Path_516_3_" class="st23" d="M520.4-295.3l-8.5,0.1l21.2,40.5l4.2-8.3L520.4-295.3 M524.5-302l20.4,38.9l-7.1,14
			l-2.5,4.9c-0.5,1.1-1.3,1.6-2,1.6s-1.5-0.5-2.1-1.6L503-298c-1.1-2.2-0.1-4,2.4-4h4.9H524.5z"/>
	</g>
	<g id="Group_839_2_" transform="translate(45.457 1.15)">
		<path id="Path_517_2_" class="st24" d="M513.4-303.4l-22.8,0.2l3.8,7.2l13-0.1l-6.4,12.6l4.1,7.9l11.2-22.2L513.4-303.4z"/>
	</g>
</g>
<g>
	<path class="st25" d="M1013.8,296c0-1.6-0.3-3.5-0.7-5.4c-4-31.7-34.1-56.3-70.7-56.3c-25.3,0-47.5,11.8-60.2,29.6
		c-4.8,5.7-7.6,12.5-9.2,19.9c-1,4.1-1.6,8.4-1.7,12.8c-0.8,12.1,0,25.4-0.2,39.1c-0.5,46.5-4.5,69.2,9.5,112.1s38.9,46,64.2,46.5
		c25.3,0.5,36.7-0.8,51.3-23.7C1018.9,434.7,1017.4,362.3,1013.8,296z"/>
	<polygon class="st26" points="943.5,348 961.2,382.2 938,381.8 	"/>
	<circle class="st26" cx="901.1" cy="381.4" r="16.1"/>
	<ellipse class="st26" cx="983.8" cy="380.8" rx="16.1" ry="16.1"/>
	<path class="st27" d="M887.4,357.8c0,0,0.8-4.8,19-4.8c18.1,0,18.3,4.8,18.3,4.8s-5.1,2.3-17.6,2.3
		C894.6,360.2,887.4,357.8,887.4,357.8z"/>
	<path class="st27" d="M960.8,357.8c0,0,0.8-4.8,19-4.8c18.1,0,18.3,4.8,18.3,4.8s-5.1,2.3-17.6,2.3
		C968,360.2,960.8,357.8,960.8,357.8z"/>
	<circle class="st28" cx="905.1" cy="349.8" r="3.2"/>
	<path class="st29" d="M885.5,337.3c2.5-3.1,5.6-5.5,9.1-7.1c3.5-1.7,7.4-2.7,11.4-2.9s8,0.5,11.7,2c3.6,1.5,6.9,3.7,9.5,6.8
		c-4-0.1-7.5-0.7-10.9-0.8c-3.4-0.3-6.6-0.3-10-0.2c-3.3,0.2-6.5,0.6-10,0.9C893,336.4,889.5,337.1,885.5,337.3z"/>
	<path class="st28" d="M983.6,349.2c0,2.1-1.1,3.2-3.2,3.2s-3.2-1.1-3.2-3.2c0-2,1.1-3.2,3.2-3.2S983.6,347.1,983.6,349.2z"/>
	<path class="st29" d="M957.8,337.3c2.5-3.1,5.6-5.5,9.1-7.1c3.5-1.7,7.4-2.7,11.4-2.9s8,0.5,11.7,2c3.6,1.5,6.9,3.7,9.5,6.8
		c-4-0.1-7.5-0.7-10.9-0.8c-3.4-0.3-6.6-0.3-10-0.2c-3.3,0.2-6.5,0.6-10,0.9C965.3,336.4,961.8,337.1,957.8,337.3z"/>
	<path class="st23" d="M968.2,413.8c0.1,11.4-8.2,17.3-24.6,17.5c-16.4,0.1-24.8-5.7-24.9-17.1s8.7-1.8,25-1.9
		S968.1,402.4,968.2,413.8z"/>
	<path class="st30" d="M967.7,417.2c-6.4,0.1-11.3-0.8-23.4,1.7c-11.8,2.4-18.3-1.4-25-1.3c0.5,1.4,0.7,2.1,1.6,3.4
		c6.6,0.9,11.8,1.2,22.7,1.1c10.9-0.1,16.1-0.5,22.7-1.5C966.9,419.4,967.2,418.6,967.7,417.2z"/>
	<polygon class="st27" points="938,381.8 948.7,397.8 951,381.8 	"/>
	<g>
		<path class="st31" d="M872.2,401.7c-15.4,0-23.3-6.6-23.3-38.1c0-30.4,7.8-38.1,23.3-38.1V401.7z"/>
		<path class="st32" d="M872.2,383.3c-8.6,0-13.1-3.3-13.1-18.9c0-15.2,4.4-18.9,13.1-18.9V383.3z"/>
	</g>
	<g>
		<path class="st31" d="M1013.5,401.7c15.4,0,23.3-6.6,23.3-38.1c0-30.4-7.8-38.1-23.3-38.1V401.7z"/>
		<path class="st32" d="M1013.5,383.3c8.6,0,13.1-3.3,13.1-18.9c0-15.2-4.4-18.9-13.1-18.9V383.3z"/>
	</g>
	<path class="st32" d="M948.2,380.8c0-2.1-1.1-3.3-3.3-3.3c-2.1,0-3.3,1.1-3.3,3.3c0,0.5,0.1,0.7,0.2,1.1l6,0.1
		C948.2,381.5,948.2,381.2,948.2,380.8z"/>
	<path class="st33" d="M944.8,467.5c-0.6,0-0.9-0.5-0.9-0.9v-20.4c0-0.6,0.5-0.9,0.9-0.9c0.6,0,0.9,0.5,0.9,0.9v20.4
		C945.8,467.1,945.4,467.5,944.8,467.5z"/>
	<g>
		<path class="st29" d="M959.9,485.1h-28.3c-23.1,0-42-18.9-42-42v-5.9c0-23.1,18.9-42,42-42h28.3c23.1,0,42,18.9,42,42v5.9
			C1001.9,466.2,983,485.1,959.9,485.1z"/>
		<path class="st25" d="M961.7,455.7h-35.4c-12.3,0-22.3-10-22.3-22.3l0,0c0-12.3,10-22.3,22.3-22.3h35.4c12.3,0,22.3,10,22.3,22.3
			l0,0C983.8,445.7,973.9,455.7,961.7,455.7z"/>
	</g>
	<path class="st23" d="M968.8,429.2c0,2.9-10.5,6.1-23.7,6.1s-23.7-3.2-23.7-6.1s10.5-1.5,23.7-1.5S968.8,426.3,968.8,429.2z"/>
	<path class="st27" d="M976.5,308.9h-65.2c-0.8,0-1.5-0.7-1.5-1.5s0.7-1.5,1.5-1.5h65.2c0.8,0,1.5,0.7,1.5,1.5
		C978,308.3,977.3,308.9,976.5,308.9z"/>
	<path class="st27" d="M976.5,300.8h-65.2c-0.8,0-1.5-0.7-1.5-1.5s0.7-1.5,1.5-1.5h65.2c0.8,0,1.5,0.7,1.5,1.5
		C978,300.1,977.3,300.8,976.5,300.8z"/>
	<g>
		<path class="st29" d="M948,466.7h-6c-4.9,0-8.9-4-8.9-8.9v-1.2c0-4.9,4-8.9,8.9-8.9h6c4.9,0,8.9,4,8.9,8.9v1.2
			C956.8,462.7,952.8,466.7,948,466.7z"/>
	</g>
</g>
<g>
	<g>
		<path class="st34" d="M629,923c-0.2,4.1-7.8,12.6-11.4,15h-83.2c-5-3.3-10.6-12.5-11.4-15H629z"/>
		
			<linearGradient id="SVGID_1_" gradientUnits="userSpaceOnUse" x1="576" y1="142.8895" x2="576" y2="152.8704" gradientTransform="matrix(1 0 0 -1 0 1080)">
			<stop  offset="0" style="stop-color:#CBC7FF"/>
			<stop  offset="1" style="stop-color:#FFFFFF"/>
		</linearGradient>
		<path class="st35" d="M629,923c-0.2,4.1-7.8,12.6-11.4,15h-83.2c-5-3.3-10.6-12.5-11.4-15H629z"/>
		<path class="st34" d="M615.6,865.5l-1-0.2l2.5-12.5c0.2-1.2-0.7-2.3-1.9-2.3h-78.6c-1.2,0-2.1,1.1-1.9,2.3l14,70.2H603l2.6-12.9
			l1.4,0.3l0,0c1.2,0.2,2.5,0.4,3.7,0.4c9.4,0,17.8-6.7,19.6-16.2l1.1-5.7C633.6,878,626.5,867.5,615.6,865.5z M624,887.3l-1.1,5.7
			c-1.3,6.6-7.7,11-14.3,9.7l-1.3-0.3l5.9-29.7l1,0.2C620.8,874.3,625.2,880.7,624,887.3z"/>
		
			<linearGradient id="SVGID_2_" gradientUnits="userSpaceOnUse" x1="544.0574" y1="193.25" x2="575.9218" y2="193.25" gradientTransform="matrix(1 0 0 -1 0 1080)">
			<stop  offset="0" style="stop-color:#CBC7FF"/>
			<stop  offset="1" style="stop-color:#FFFFFF"/>
		</linearGradient>
		<path class="st36" d="M615.6,865.5l-1-0.2l2.5-12.5c0.2-1.2-0.7-2.3-1.9-2.3h-78.6c-1.2,0-2.1,1.1-1.9,2.3l14,70.2H603l2.6-12.9
			l1.4,0.3l0,0c1.2,0.2,2.5,0.4,3.7,0.4c9.4,0,17.8-6.7,19.6-16.2l1.1-5.7C633.6,878,626.5,867.5,615.6,865.5z M624,887.3l-1.1,5.7
			c-1.3,6.6-7.7,11-14.3,9.7l-1.3-0.3l5.9-29.7l1,0.2C620.8,874.3,625.2,880.7,624,887.3z"/>
	</g>
	
		<ellipse transform="matrix(0.9732 -0.2298 0.2298 0.9732 -180.1574 155.1766)" class="st34" cx="576.1" cy="851" rx="41.2" ry="41.2"/>
	<ellipse class="st37" cx="576.1" cy="851" rx="36.4" ry="36.4"/>
	
		<linearGradient id="SVGID_3_" gradientUnits="userSpaceOnUse" x1="576" y1="193.8898" x2="576" y2="254.4916" gradientTransform="matrix(1 0 0 -1 0 1080)">
		<stop  offset="0" style="stop-color:#996B5A"/>
		<stop  offset="1" style="stop-color:#5A3C37"/>
	</linearGradient>
	<ellipse class="st38" cx="576" cy="856.1" rx="36" ry="31.3"/>
	<path class="st39" d="M591.3,859.6l2.4-4.5c1.6-3.1-0.4-6.5-2.7-8.6c-2.3-2.1-9.8-6.1-13-6.8s-6.6,0.3-8.6,2.7s-6.5,11.4-6.8,13
		c-0.4,1.6-0.9,3-0.5,4.5c4.2,0.3,8.7,0.4,13.3,0.4C581,860.2,586.4,860,591.3,859.6z"/>
</g>
</svg>
