<?xml version="1.0" encoding="utf-8"?>
<!-- Generator: Adobe Illustrator 16.0.0, SVG Export Plug-In . SVG Version: 6.00 Build 0)  -->
<!DOCTYPE svg PUBLIC "-//W3C//DTD SVG 1.1//EN" "http://www.w3.org/Graphics/SVG/1.1/DTD/svg11.dtd">
<svg version="1.1" id="Layer_1" xmlns="http://www.w3.org/2000/svg" xmlns:xlink="http://www.w3.org/1999/xlink" x="0px" y="0px"
	 width="850.389px" height="850.391px" viewBox="0 0 850.389 850.391" enable-background="new 0 0 850.389 850.391"
	 xml:space="preserve">
<path fill="#0D0E12" d="M364.338,127.691c6.29-3.41,10.586-10.098,10.586-17.761c0-11.161-9.035-20.197-20.196-20.197
	c-0.798,0-1.595,0.044-2.348,0.133c-0.222-13.996-11.604-25.291-25.689-25.291c-6.466,0-12.356,2.392-16.874,6.333
	c-4.075-16.299-18.824-28.346-36.363-28.346c-20.684,0-37.471,16.787-37.471,37.47c0,2.702,0.311,5.315,0.842,7.884
	c-5.005-3.455-11.072-5.492-17.628-5.492c-17.096,0-30.915,13.863-30.915,30.916c0,5.182,1.284,10.054,3.543,14.35H364.338z"/>
<path fill="#0D0E12" d="M456.066,143.149c-4.163,0-7.529-3.366-7.529-7.53s3.366-7.529,7.529-7.529c0.222,0,0.442,0,0.62,0.044
	c1.55-4.385,5.713-7.574,10.63-7.574c4.916,0,9.124,3.189,10.674,7.574c0.31-0.044,0.62-0.044,0.931-0.044
	c1.195,0,2.303,0.266,3.321,0.797c1.639-3.056,4.828-5.094,8.548-5.094c5.359,0,9.656,4.34,9.656,9.655s-4.341,9.656-9.656,9.656
	h-34.724V143.149z"/>
<path fill="#0D0E12" d="M702.451,96.688c9.522,0,17.273-7.707,17.273-17.273c0-9.522-7.707-17.273-17.273-17.273
	c-2.082,0-4.03,0.398-5.891,1.063c-3.012-11.427-13.42-19.887-25.822-19.887c-12.002,0-22.101,7.884-25.467,18.779
	c-2.79-1.683-6.023-2.613-9.522-2.613c-10.275,0-18.603,8.327-18.603,18.603s8.327,18.602,18.603,18.602H702.451z"/>
<polygon fill="#C4D0DE" points="327.843,450.884 290.328,426.656 254.01,450.884 254.01,553.772 352.867,553.772 352.867,450.884 
	"/>
<rect x="327.843" y="450.884" fill="#CCECEF" width="25.024" height="102.889"/>
<path fill="#FFFFFF" d="M327.843,450.884c33.174,0,34.769,6.289-12.49-24.228C282.179,426.656,280.584,420.367,327.843,450.884z"/>
<path fill="#FFFFFF" d="M294.846,480.824c0-18.159,2.392-14.482-7.84-14.482C287.006,484.501,284.615,480.824,294.846,480.824z"/>
<path fill="#FFFFFF" d="M294.846,516.036c0-18.159,2.392-14.483-7.84-14.483C287.006,519.712,284.615,516.036,294.846,516.036z"/>
<path fill="#FFFFFF" d="M344.275,553.772c0-23.519,2.613-19.621-7.84-19.621C336.435,557.714,333.822,553.772,344.275,553.772z"/>
<polygon fill="#C4D0DE" points="535.745,450.884 498.231,426.656 461.912,450.884 461.912,553.772 560.77,553.772 560.77,450.884 
	"/>
<rect x="535.745" y="450.884" fill="#AD9DE3" width="25.024" height="102.889"/>
<path fill="#FFFFFF" d="M535.745,450.884c33.174,0,34.769,6.289-12.49-24.228C490.081,426.656,488.487,420.367,535.745,450.884z"/>
<path fill="#FFFFFF" d="M502.748,480.824c0-18.159,2.392-14.482-7.84-14.482C494.908,484.501,492.517,480.824,502.748,480.824z"/>
<path fill="#FFFFFF" d="M502.748,516.036c0-18.159,2.392-14.483-7.84-14.483C494.908,519.712,492.517,516.036,502.748,516.036z"/>
<path fill="#184657" d="M552.177,553.772c0-23.519,2.613-19.621-7.839-19.621C544.338,557.714,541.725,553.772,552.177,553.772z"/>
<path fill="#C4D0DE" d="M720.838,460.938c82.426,70.777,164.497-27.416,49.916-151.077c8.238-141.244-113.873-142.13-103.73-3.056
	C550.362,432.769,634.293,535.259,720.838,460.938z"/>
<path fill="#CCECEF" d="M751.62,550.096c-7.131-153.025-25.777-133.404-20.861-182.036c7.884-57.357-5.714-69.36-9.566-90.62
	c-2.259-26.087,6.644-51.511,0.398-72.549c-4.65,1.594,4.916-7.751-6.821,42.608c-12.357,53.194,9.39,65.816-3.941,105.236
	c-19.09,56.427,5.447,46.373-8.15,196.209C713.175,552.222,741.034,555.189,751.62,550.096z"/>
<path fill="#C4D0DE" d="M165.073,351.982c0,6.821-4.208,13.464-4.474,20.064c-0.266,6.865,3.366,13.819,2.79,20.374
	c-0.576,6.866-5.314,13.11-6.156,19.622c-0.886,6.864,2.037,14.173,0.842,20.551c-1.285,6.909-6.688,12.623-8.283,18.823
	c-1.771,6.91,0.178,14.528-1.904,20.463c-2.436,6.865-8.77,11.516-11.604,16.919c-3.499,6.821-4.03,14.749-8.061,18.912
	c-7.22,7.53-30.649,7.618-37.913,0c-4.03-4.207-4.562-12.136-8.062-18.912c-2.834-5.447-9.168-10.054-11.604-16.963
	c-2.082-5.936-0.178-13.598-1.905-20.463c-1.594-6.201-6.998-11.914-8.282-18.824c-1.195-6.378,1.771-13.686,0.842-20.551
	c-0.842-6.511-5.581-12.756-6.156-19.621c-0.532-6.555,3.1-13.509,2.79-20.374c-0.266-6.6-4.474-13.243-4.474-20.064
	s4.208-13.464,4.474-20.064c0.266-6.865-3.366-13.819-2.79-20.374c0.575-6.865,5.314-13.11,6.156-19.621
	c0.886-6.865-2.037-14.173-0.842-20.551c1.284-6.91,6.688-12.623,8.282-18.824c1.771-6.909-0.177-14.527,1.905-20.462
	c2.436-6.865,8.77-11.516,11.604-16.919c3.499-6.821,4.031-14.749,8.062-18.912c7.219-7.529,30.649-7.618,37.913,0
	c4.03,4.208,4.562,12.136,8.061,18.912c2.835,5.448,9.169,10.054,11.604,16.964c2.082,5.935,0.178,13.597,1.904,20.462
	c1.595,6.201,6.998,11.914,8.283,18.824c1.195,6.378-1.772,13.686-0.842,20.551c0.842,6.511,5.58,12.756,6.156,19.621
	c0.531,6.555-3.101,13.509-2.79,20.374C160.865,338.473,165.073,345.161,165.073,351.982z"/>
<path fill="#CCECEF" d="M109.355,273.941c2.879,14.35-0.531,43.804,0.531,59.217c0.398,10.851,4.917,21.525,6.245,50.049
	c1.771,41.146-5.891-0.62,4.606,90.133c2.835,22.5,4.916,69.359,5.847,92.214c-9.744,9.744-27.283,5.227-29.853-0.354
	c1.417-24.315,3.986-70.113,3.101-94.385c-0.133-3.145-2.879-31.801,1.062-61.033c8.327-52.042,0.62-57.799,2.569-81.229
	c0.93-11.471,3.188-24.759,4.429-36.363C110.019,271.992,107.318,274.339,109.355,273.941z"/>
<path fill="#CCECEF" d="M348.571,330.678c0,29.631,41.279,13.154,43.627,40.261c1.949,22.5-38.976,17.805-35.964,43.316
	c3.809,32.111,28.833,15.104,39.241,34.237c9.479,17.406,6.245,30.871,30.207,30.871c23.961,0,25.688-1.771,37.913-30.517
	c10.408-24.493,27.106-4.65,35.565-35.92c6.865-25.423-37.248-20.153-36.053-41.988c1.506-27.195,43.627-10.63,43.627-40.261
	s-40.482-13.243-43.627-40.261c-3.543-30.295,39.464-24.36,32.599-49.783c-8.46-31.225-54.7,0.665-53.548-23.74
	c1.417-29.63,9.39-56.117-14.528-56.117c-23.961,0-12.224,34.016-14.527,56.117c-2.568,24.271-45.088-7.485-53.548,23.74
	c-6.865,25.423,36.142,19.488,32.599,49.783C389.053,317.435,348.571,301.003,348.571,330.678z"/>
<path fill="#C4D0DE" d="M443.088,557.67c-18.957-354.152,1.904-207.283-13.907-344.142c-2.702,15.723-0.222,42.741-0.62,64.665
	c-0.487,26.973-8.858,33.794-5.891,97.219c1.195,49.34-6.422,36.895-11.914,182.568L443.088,557.67z"/>
<path fill="#BA9393" d="M388.876,355.968c0,0,3.277,0.841,8.946-1.196c5.67-2.082,10.497-3.455,16.521-4.473s8.46,1.019,3.81,3.101
	c-4.65,2.082-7.396,2.923-7.396,2.923s4.65,1.019,12.933,1.019s15.325-2.259,15.502,0.709c0.177,2.923-5.005,3.455-5.005,3.455
	s7.22,0,6.555,2.259c-0.708,2.259-11.383,3.455-11.383,3.455s3.942,0.842,3.632,3.632c-0.354,2.746-9.832,1.373-9.832,1.373
	s4.827-0.177,4.473,2.392c-0.354,2.569-6.023,3.1-17.406,3.1s-21.88-1.55-21.88-1.55l-0.354-20.152h0.886V355.968z"/>
<path fill="#AD9DE3" d="M393.571,355.879c-3.012,0.487-4.694,0.089-4.694,0.089h-0.886l0.354,20.152c0,0,3.854,0.576,9.435,1.019
	L393.571,355.879z"/>
<path fill="#F8C4C4" d="M222.828,819.785c-0.354,8.104-2.923,14.306-2.923,14.306s39.95-3.455,39.286-3.277
	c-0.709,0.177-5.669-7.043-5.359-10.497L222.828,819.785z"/>
<g>
	<path fill="#0D0E12" d="M219.197,833.515c0,0-3.721,10.808-1.86,13.819c1.86,2.967,5.581,2.259,28.391,2.259
		c22.811,0,47.79,2.613,48.897-1.506s-6.333-5.227-17.539-8.593c-11.205-3.366-17.894-8.681-17.894-8.681L219.197,833.515z"/>
	<path fill="#0D0E12" d="M293.562,845.163c-4.252,2.879-27.195,0.665-48.233,0.665c-22.766,0-26.53,0.753-28.391-2.259
		c-0.044-0.045-0.044-0.133-0.089-0.178c-0.133,1.639-0.088,3.101,0.443,3.897c1.86,2.968,5.581,2.26,28.391,2.26
		c22.766,0,47.79,2.612,48.897-1.507C294.935,846.891,294.536,845.961,293.562,845.163z"/>
</g>
<polygon fill="#F8C4C4" points="91.24,807.737 82.603,824.79 119.321,828.067 121.048,818.766 "/>
<g>
	<path fill="#0D0E12" d="M82.514,823.461c0,0-5.758,9.479-4.34,12.667c1.417,3.233,5.758,0.576,27.15,8.415
		c17.628,6.423,48.366,5.803,50.403,2.525c3.941-6.378-6.998-3.81-17.628-8.682s-16.919-10.674-16.919-10.674L82.514,823.461z"/>
	<path fill="#0D0E12" d="M155.905,843.48c-4.872,2.79-33.13,3.012-49.783-3.056c-21.393-7.796-25.733-5.183-27.15-8.416
		c-0.089-0.222-0.177-0.487-0.177-0.797c-0.665,1.948-1.063,3.765-0.576,4.872c1.417,3.233,5.758,0.575,27.15,8.415
		c17.628,6.422,48.366,5.802,50.403,2.524C156.879,845.297,156.79,844.233,155.905,843.48z"/>
</g>
<path fill="#AD9DE3" d="M146.338,462.045c-7.22,33.086-2.082,124.016-9.302,175.703c-7.219,51.688-50.447,173.267-50.447,173.267
	c6.644,3.278,27.771,11.117,37.204,11.87c0,0,46.329-104.526,63.912-157.233c17.584-52.706,28.923-122.996,28.923-122.996
	s13.42,111.613,11.383,157.101c-2.082,45.486-8.283,121.934-8.283,121.934c8.504,2.037,30.96,3.101,39.287,1.019
	c0,0,19.62-105.413,23.784-194.306c4.119-88.892-10.32-167.42-10.32-167.42l-76.49-17.584L146.338,462.045z"/>
<path fill="#0D0E12" d="M245.196,275.712c17.894,16.875,48.588,62.716,75.117,69.227c26.531,6.555,70.955,8.283,70.955,8.283
	l1.019,23.784c0,0-38.224,6.909-79.901-2.746c-41.678-9.7-66.126-26.575-66.126-26.575L245.196,275.712z"/>
<path fill="#AD9DE3" d="M278.325,363.675c1.196-8.194,3.366-26.354,3.277-47.259c-14.04-14.97-26.973-31.845-36.407-40.748
	l0.842,57.446l4.872,17.406C256.047,353.576,265.393,358.625,278.325,363.675z"/>
<path fill="#F8C4C4" d="M238.065,269.246c-2.657-1.949-3.277-3.455-3.721-7.396c-1.019-8.77,6.865-53.592,6.865-53.592
	l-37.071-4.164c0,0-7.042,44.335-9.124,51.644c-0.664,2.259-3.366,5.448-6.378,8.725
	C203.385,282.223,230.978,277.794,238.065,269.246z"/>
<path fill="#F39797" d="M232.13,237.667c1.55,0.221,3.056,0.266,4.473,0.221c2.215-15.325,4.562-29.675,4.562-29.675l-26.486-3.101
	C213.616,221.943,219.64,236.161,232.13,237.667z"/>
<path fill="#F8C4C4" d="M256.269,195.235c0.531,18.027-5.758,33.042-23.076,33.352c-13.243,0.398-24.404-13.952-24.936-31.979
	s3.587-32.775,23.075-33.351C252.77,162.637,255.737,177.209,256.269,195.235z"/>
<path fill="#8F8479" d="M194.35,168.75c-3.81,9.08-10.497,18.957,8.637,39.419l12.136-4.562l-9.656-26.442L194.35,168.75z"/>
<path fill="#AD9DE3" d="M247.765,190.054c0.044,1.019-0.753,1.815-1.772,1.86c-1.019,0.044-1.815-0.753-1.859-1.771
	c-0.045-1.019,0.753-1.816,1.771-1.86S247.72,189.035,247.765,190.054z"/>
<g>
	<path fill="#F8C4C4" d="M219.906,208.435c-7.087,0.221-12.978-5.359-13.154-12.446c-0.222-7.086,5.359-12.977,12.445-13.154
		L219.906,208.435z"/>
	<path fill="#F8C4C4" d="M219.728,202.411c-3.72,0.088-6.82-2.834-6.953-6.555c-0.089-3.72,2.835-6.821,6.555-6.954L219.728,202.411
		z"/>
</g>
<path fill="#F39797" d="M245.948,199.886c0.089,3.1-2.348,5.669-5.447,5.758c-3.101,0.088-5.67-2.348-5.758-5.448
	c-0.089-3.101,2.347-5.669,5.447-5.758C243.291,194.35,245.86,196.786,245.948,199.886z"/>
<path fill="#F39797" d="M253.788,188.592l8.105,10.187c0.974,1.196,0.31,3.012-1.196,3.322l-6.909,1.506V188.592z"/>
<path fill="#8F8479" d="M219.462,185.979l0.133,10.054l3.544,0.088c-0.311-2.48,0.177-8.548,0.398-10.585L219.462,185.979z"/>
<path fill="#8F8479" d="M239.039,183.499c1.948-0.753,3.986-1.019,6.067-0.975c1.02,0.044,2.082,0.177,3.101,0.443
	c0.531,0.133,1.019,0.31,1.506,0.532c0.222,0.133,0.487,0.221,0.709,0.354l0.354,0.177l0.177,0.089l0.044,0.044c0,0,0.045,0,0,0
	c-0.177-0.088-0.575,0.177-0.575,0.354c0.133-0.266,0.442-0.398,0.709-0.31c0.266,0.133,0.398,0.443,0.31,0.708
	c-0.044,0.177-0.443,0.399-0.664,0.354l-0.222-0.044h-0.177l-0.354-0.044c-0.222-0.044-0.487-0.044-0.709-0.044l-1.417-0.133
	c-0.931-0.044-1.905-0.133-2.835-0.133c-1.904-0.089-3.809-0.089-5.847-0.31c-0.31-0.044-0.531-0.31-0.487-0.62
	C238.685,183.764,238.818,183.587,239.039,183.499z"/>
<path fill="#8F8479" d="M255.693,204.537c0,0,7.441,22.146-0.354,25.202c-11.87,4.606-25.91-0.886-30.826-2.746
	c-4.474-1.683-4.562-21.525-4.562-21.525l-0.354-9.346l3.544,0.089c0,0,2.081,11.958,11.427,12.49
	C237.71,208.789,245.948,203.296,255.693,204.537z"/>
<path fill="#FFFFFF" d="M255.383,208.7c0.531,0,1.019-0.089,1.506-0.133c0.266,0.974,0.531,2.126,0.797,3.322
	c-0.664,0.221-1.417,0.31-2.215,0.354c-2.923,0.089-5.359-1.24-5.403-2.923C249.979,207.593,252.415,208.789,255.383,208.7z"/>
<path fill="#8F8479" d="M258.748,152.805c-3.676-3.588-10.763-1.285-14.527,0.354c-1.062-0.532-2.214-1.019-3.499-1.462
	c-11.914-4.119-22.146-3.056-31.357,0.842c-8.105,3.455-10.453,6.821-14.528,13.021c-3.188,4.872-4.96,10.851-1.372,18.514
	c6.156,13.154,23.917,6.378,28.789,4.075c6.466-3.056,9.124-10.984,11.205-20.905c0,0,5.625-2.613,17.362,3.499
	C257.464,167.775,263.887,157.854,258.748,152.805z"/>
<path fill="#0D0E12" d="M195.014,255.737c-14.572,14.129-31.093,32.022-38.002,78.528c-6.909,46.505-14.129,135.708-14.129,135.708
	s17.584-6.909,34.104,3.454c16.521,10.32,33.75,25.822,62.008,21.703c28.257-4.119,36.186-21.349,36.186-21.349
	s-3.81-54.788-2.082-93.011s-13.642-93.853-37.824-117.372l-6.245,7.131c0,0-11.028-2.392-19.312-6.555
	C201.481,259.856,195.014,255.737,195.014,255.737z"/>
<g>
	<path fill="#AD9DE3" d="M195.014,255.737c-2.569,2.48-5.183,5.093-7.84,7.972c1.019,1.152,5.05,5.404,13.42,11.56
		c9.833,7.22,17.318,9.833,17.318,9.833l11.117-14.572c0,0-11.028-2.392-19.312-6.555
		C201.481,259.856,195.014,255.737,195.014,255.737z"/>
	<path fill="#AD9DE3" d="M235.275,263.355l-6.245,7.131l10.054,8.371c0,0,3.189-2.038,4.65-5.492
		C241.076,269.601,238.242,266.234,235.275,263.355z"/>
</g>
<path fill="#AD9DE3" d="M273.099,380.771c0.398-8.814-0.133-18.514-1.417-28.568c-6.422-5.359-18.646-16.21-25.777-26.575
	c-10.01-14.483-21.703-33.085-34.813-32.731c-13.109,0.354-34.812,20.684-34.812,20.684c-0.709,17.583,8.282,53.061,41.678,87.519
	c24.316,25.069,45.664,36.806,55.541,41.368C272.789,423.822,272.257,400.171,273.099,380.771z"/>
<path fill="#BA9393" d="M353.399,410.889c7.574,2.924,17.584,9.479,22.722,11.029c5.182,1.55,21.171,3.1,33.085,9.123
	c11.87,6.024,10.497,7.22,10.497,7.22s-8.77,6.023-21.171,8.46c-12.401,2.392-22.234-4.474-28.922-5.492
	c-6.732-1.019-22.898-4.296-22.898-4.296L353.399,410.889z"/>
<path fill="#AD9DE3" d="M346.666,436.888c0,0,6.156,1.24,12.49,2.437c1.993-7.176-0.089-16.388-2.17-26.885
	c-1.24-0.576-2.437-1.107-3.588-1.551L346.666,436.888z"/>
<path fill="#0D0E12" d="M205.953,289.576c23.829,1.594,49.828,66.392,79.946,85.083c30.117,18.735,69.182,34.591,69.182,34.591
	c0.931,8.105-1.506,26.177-7.529,30.384c0,0-33.705-6.378-86.411-33.883c-52.707-27.549-68.651-53.193-76.004-62.495
	C171.539,325.938,169.059,287.095,205.953,289.576z"/>
<path fill="#FD9CAD" d="M666.138,746.04c-3.543,2.613-8.193,5.049-14.084,6.776c-7.973,2.259-15.9,2.215-22.5,1.329
	c-13.687-34.148-31.313-75.561-38.799-103.996c-13.774-52.352-22.058-135.043-22.058-135.043s-26.176,94.384-26.885,172.912
	c-0.221,26.265-1.24,52.396-2.48,75.604c-9.699,1.551-22.057,2.613-34.192,1.196c-5.359-36.496-12.49-85.083-13.642-123.705
	c-2.082-68.208,13.11-169.502,22.057-195.678c0,0,99.921-31.004,113.342-6.201c13.42,24.803,10.674,90.266,12.756,139.163
	c2.081,48.897,10.319,79.9,20.684,133.67C662.418,723.186,664.366,734.701,666.138,746.04z"/>
<path fill="#F8C4C4" d="M539.332,763.668c-2.436,46.24-5.802,80.742-5.802,80.742h-5.536l-1.019-13.109
	c0,0-29.276,17.583-40.97,17.583c-3.012,0-5.58-0.044-7.662-0.133c-2.437-0.089-3.233-3.366-1.063-4.518
	c10.808-5.891,31.093-20.374,33.528-26.708c1.506-3.897-1.55-24.758-5.625-52.662C517.321,766.281,529.677,765.174,539.332,763.668z
	"/>
<path fill="#F8C4C4" d="M676.857,831.345l-4.828,1.373l-2.081-15.147c0,0-1.728-2.082-12.047,11.028
	c-10.32,13.065-26.531,16.521-33.396,15.856c-6.909-0.709-4.118-4.828-4.118-4.828s21.348-13.065,26.884-26.885
	c2.525-6.289-6.2-29.852-17.716-58.597c6.6,0.886,14.571,0.93,22.5-1.329c5.891-1.683,10.541-4.163,14.084-6.776
	C672.915,789.977,676.857,831.345,676.857,831.345z"/>
<path fill="#FD9CAD" d="M710.474,275.58c13.818-6.29,15.147-20.817,8.681-29.055c-6.511-8.238-6.245-12.711-18.292-23.297
	c-12.003-10.585-17.628-9.168-30.428-12.756c-12.801-3.587-14.262-10.674-22.411-21.57c-8.194-10.851-16.389-16.432-30.517-19.178
	c-14.129-2.746-18.426,0.311-32.688-6.954c-14.262-7.308-11.028-16.21-26.53-19.842c-18.603-4.296-27.194,11.161-27.814,26.087
	c-0.665,14.97,26.618,47.037,26.618,47.037s3.766,3.455,13.022,14.572s14.793,13.465,31.49,12.978
	c16.698-0.487,24.582,5.049,31.093,11.383c6.511,6.333,17.982,9.257,28.213,7.352c10.231-1.904,17.54,0.842,25.955,7.22
	C695.281,276.022,705.424,277.883,710.474,275.58z"/>
<path fill="#AD9DE3" d="M541.813,178.671l31.713,16.609c16.564,4.518,21.658-0.62,29.365,8.149
	c7.706,8.77,15.324,17.805,23.386,19.887c8.061,2.038,20.772-1.639,30.472,5.581c9.744,7.264,11.648,17.849,21.969,22.411
	s15.635,2.303,23.076,12.18c2.967,3.942,4.207,8.681,4.65,13.021c-5.448,0.354-13.066-1.86-19.621-6.865
	c-8.416-6.378-15.724-9.124-25.955-7.219c-10.23,1.904-21.658-1.019-28.213-7.353c-6.511-6.333-14.395-11.87-31.093-11.383
	c-16.697,0.487-22.234-1.86-31.491-12.977s-13.021-14.572-13.021-14.572s-11.648-13.686-19.532-27.328L541.813,178.671z"/>
<path fill="#F8C4C4" d="M553.24,195.413c0.398,6.6,6.067,11.649,12.667,11.25c6.6-0.398,11.648-6.068,11.25-12.667
	c-0.398-6.599-6.068-11.648-12.667-11.25C557.891,183.144,552.842,188.813,553.24,195.413z"/>
<path fill="#F8C4C4" d="M558.865,195.103c0.221,3.499,3.188,6.157,6.688,5.935c3.499-0.221,6.156-3.189,5.936-6.688
	c-0.222-3.499-3.189-6.156-6.688-5.935C561.346,188.592,558.688,191.604,558.865,195.103z"/>
<g>
	<path fill="#F8C4C4" d="M547.837,299.984c-11.959,1.506-22.722,4.296-29.056,6.157c-1.904-5.891-2.037-11.826-2.568-18.071
		c-0.311-3.499,2.657-8.194,4.827-12.49c2.304-4.562,5.979-8.282,10.719-10.231c2.702-1.107,4.163-2.215,4.562-6.422
		c0.754-8.194,0.222-52.086,0.222-52.086l34.636-4.606c0,0-0.266,43.405,1.816,50.182c1.904,6.201,12.711,8.105,26.132,11.958
		c-5.803,10.541-6.024,24.847-3.146,36.54C580.613,292.543,563.029,298.08,547.837,299.984z"/>
	<path fill="#F39797" d="M551.513,231.82c-3.057,1.107-11.959,2.48-14.793,1.86c-0.354-13.73-0.222-26.84-0.222-26.84l28.169-3.721
		C565.731,216.938,560.459,228.631,551.513,231.82z"/>
</g>
<path fill="#F8C4C4" d="M519.978,196.343c1.195,17.273,8.593,30.959,23.208,30.162c12.446-0.664,22.367-15.147,22.102-32.421
	s-7.573-30.738-24.848-30.207C515.415,164.675,518.781,178.98,519.978,196.343z"/>
<g>
	<path fill="#C3B9DD" d="M550.671,183.321c-1.595-0.709-3.366-1.019-5.138-1.019c-1.771,0.044-3.499,0.31-5.138,1.019
		c-0.089,0.044-0.133,0.133-0.089,0.221c0.045,0.089,0.133,0.133,0.222,0.089c1.639-0.354,3.322-0.576,5.005-0.576
		c0.842-0.044,1.684,0.044,2.524,0.133c0.842,0.088,1.639,0.266,2.48,0.443c0.089,0,0.222-0.044,0.222-0.133
		C550.804,183.41,550.76,183.365,550.671,183.321z"/>
</g>
<g>
	<path fill="#C3B9DD" d="M529.677,184.473c-1.683-0.531-3.454-0.664-5.182-0.487c-1.728,0.222-3.455,0.665-5.005,1.55
		c-0.089,0.044-0.133,0.177-0.089,0.266c0.045,0.088,0.133,0.088,0.222,0.088c1.595-0.532,3.277-0.93,4.916-1.063
		c0.842-0.133,1.684-0.133,2.524-0.133c0.842,0,1.684,0.088,2.525,0.177c0.088,0,0.177-0.044,0.221-0.177
		C529.81,184.605,529.722,184.517,529.677,184.473z"/>
</g>
<path d="M544.692,189.788c0.045,0.886,0.798,1.55,1.728,1.506c0.886-0.044,1.551-0.797,1.506-1.727
	c-0.044-0.886-0.797-1.55-1.728-1.506C545.312,188.149,544.648,188.902,544.692,189.788z"/>
<path d="M521.616,191.072c0.044,0.886,0.797,1.55,1.728,1.506c0.886-0.044,1.55-0.797,1.506-1.728
	c-0.045-0.886-0.798-1.55-1.728-1.506C522.237,189.389,521.573,190.187,521.616,191.072z"/>
<path fill="#F39797" d="M520.199,195.988c0.133,0,0.221-0.044,0.354-0.044c2.879-0.177,5.404,2.037,5.537,4.916
	c0.177,2.746-1.86,5.138-4.562,5.492c-0.664-2.879-1.062-5.979-1.284-9.168C520.243,196.786,520.199,196.387,520.199,195.988z"/>
<ellipse fill="#F39797" cx="547.655" cy="198.952" rx="5.271" ry="5.271"/>
<path fill="#FD9CAD" d="M528.482,175.127c-2.879,2.303-6.865,4.208-9.169,5.049c1.373-17.761,13.554-17.185,13.554-17.185
	l21.968,3.1l22.234,22.367l0.311,6.688c-23.918,4.385-29.543-27.859-41.944-29.896C534.549,167.066,534.372,170.477,528.482,175.127
	z"/>
<path fill="#FFFFFF" d="M527.153,206.397c0.133,2.259,3.41,3.897,7.264,3.676c3.897-0.222,6.954-2.259,6.776-4.518
	c-0.133-2.259-3.232-0.398-7.131-0.133C530.164,205.688,527.02,204.138,527.153,206.397z"/>
<path fill="#FFFFFF" d="M567.062,205.482c0.124,1.619,1.494,2.741,2.988,2.616c1.621-0.124,2.741-1.494,2.617-2.99
	c-0.123-1.619-1.494-2.739-2.99-2.616C568.183,202.617,566.939,203.988,567.062,205.482z"/>
<path fill="#AD9DE3" d="M517.497,199.133c-1.506,0-2.968-0.576-4.119-1.595c-1.196-1.107-1.949-2.613-1.993-4.252l-0.177-3.72
	c-0.089-1.639,0.487-3.189,1.594-4.429c1.107-1.196,2.613-1.949,4.252-1.993l9.7-0.487c1.639-0.088,3.188,0.487,4.429,1.595
	c1.196,1.107,1.949,2.613,1.993,4.252l0.178,3.72c0.177,3.366-2.437,6.245-5.803,6.422
	C527.507,198.646,517.586,199.133,517.497,199.133z M527.02,185.004c-0.044,0-0.133,0-0.177,0l-9.7,0.487
	c-1.019,0.044-1.949,0.487-2.613,1.24s-1.019,1.728-0.975,2.746l0.178,3.721c0.044,1.019,0.487,1.949,1.24,2.613
	c0.753,0.664,1.728,1.019,2.746,0.974l9.699-0.487c2.082-0.088,3.677-1.904,3.588-3.986l-0.177-3.721
	c-0.045-1.019-0.487-1.949-1.24-2.613C528.836,185.358,527.95,185.004,527.02,185.004z"/>
<path fill="#AD9DE3" d="M541.459,197.981c-3.233,0-5.979-2.569-6.112-5.846l-0.178-3.721c-0.177-3.366,2.437-6.245,5.803-6.422
	l9.699-0.487c1.639-0.089,3.189,0.487,4.43,1.594c1.195,1.107,1.948,2.613,1.993,4.252l0.177,3.721
	c0.089,1.639-0.487,3.189-1.595,4.429c-1.107,1.196-2.613,1.949-4.252,1.993C551.469,197.494,541.592,197.981,541.459,197.981z
	 M551.026,183.897c-0.044,0-0.133,0-0.177,0l-9.7,0.487c-2.082,0.088-3.721,1.904-3.588,3.986l0.178,3.72
	c0.088,2.082,1.904,3.721,3.986,3.588l9.699-0.487c1.019-0.044,1.949-0.487,2.613-1.24s1.019-1.728,0.975-2.746l-0.178-3.721
	C554.701,185.447,553.019,183.897,551.026,183.897z"/>
<path fill="#AD9DE3" d="M567.812,188.636c0,0-3.101,0.221-3.897-0.443c-0.044-0.399-4.695,0.354-7.131,1.771l-1.195-2.037
	c1.151-0.665,4.916-2.392,7.484-2.17c0.62,0.044,2.259,0.088,2.48,0.665C566.217,188.061,567.857,188.371,567.812,188.636z"/>
<rect x="532.258" y="188.684" transform="matrix(-0.9988 0.0494 -0.0494 -0.9988 1077.3667 353.0719)" fill="#AD9DE3" width="4.119" height="2.347"/>
<path fill="#F39797" d="M533.531,191.072l-3.765,8.194c-0.443,0.974,0.266,2.082,1.373,2.037l4.872-0.133L533.531,191.072z"/>
<path fill="#FD9CAD" d="M558.555,160.556c0,0-3.854-5.182-18.336-7.441c-12.269-1.905-19.799,1.063-23.475,8.504
	c-2.569,5.182,0.709,10.585,3.632,14.262l0,0c4.961-1.107,7.22-4.164,14.66-11.693c1.771,0.31,5.669,0.886,8.682,1.993
	c6.909,2.613,13.109,28.922,36.761,24.582L558.555,160.556z"/>
<path fill="#EB7470" d="M540.086,295.909c8.504,1.285,29.719-0.531,29.719-0.531l-6.2,34.104l-24.006,0.266L540.086,295.909z"/>
<path fill="#0D0E12" d="M583.137,259.192c0,0-1.684,48.366-30.649,68.784c0,0-22.987-24.006-19.621-64.842
	c0,0-30.207,13.952-40.571,37.958c-8.282,19.222-18.336,54.522-39.02,76.712c-3.101,3.322-6.201,6.555-9.346,9.744l20.063,20.063
	c4.474-4.474,9.036-9.434,13.554-14.837c27.903-33.573,35.122-47.037,35.122-47.037s3.101,11.383,11.383,19.621
	c8.283,8.282,2.569,31.003-4.119,52.707c-6.731,21.702-10.054,29.453-10.054,29.453s13.42,6.201,23.784,6.201
	c7.485,0,15.768-6.201,15.768-6.201s5.448,9.522,18.868,10.586c26.354,2.081,64.843-14.705,64.843-14.705
	s-13.421-32.554-18.071-63.026c-4.65-30.473,5.669-51.688,5.669-51.688s11.428,9.522,21.614,22.81
	c9.124-6.511,18.691-12.401,28.303-18.292C647.404,297.017,611.262,262.824,583.137,259.192z"/>
<path fill="#232E42" d="M527.551,265.703c1.506-2.17,4.828-5.005,6.954-6.732c0.842-0.665,2.126-0.177,2.259,0.886
	c0.709,5.979,2.79,22.013,6.688,36.584c4.917,18.336,9.036,31.535,9.036,31.535s10.319-18.071,16.255-37.205
	c5.935-19.134,7.219-34.104,7.219-34.104s0.532-2.348,2.835-1.019c2.303,1.285,10.586,4.651,10.586,4.651
	s-2.215,24.892-9.966,39.419c-10.586,19.887-27.018,28.302-27.018,28.302s-13.154-9.567-19.621-30.738
	C526.4,276.022,527.551,265.703,527.551,265.703z"/>
<path fill="#F9D0D0" d="M463.993,407.656c-23.253,23.208-44.291,33.705-44.291,33.705l-16.521-9.833c0,0-16.521,8.77-19.134,6.201
	c-2.569-2.569,4.65-6.201,14.971-11.87c8.813-4.828,26.929-20.152,44.911-38.312L463.993,407.656z"/>
<g>
	<path fill="#FD9CAD" d="M615.027,380.417c-4.651-30.473,5.669-51.688,5.669-51.688c-12.401-10.054-20.418-14.705-20.418-14.705
		s-2.304,41.058,8.017,62.539c2.923,6.068,5.847,10.63,8.548,14.084C616.178,387.193,615.514,383.783,615.027,380.417z"/>
	<path fill="#FD9CAD" d="M492.03,354.595c-4.605,13.686-6.555,23.297-7.352,29.542c22.013-27.239,27.991-38.312,27.991-38.312
		c-3.366-9.833,6.732-39.286,6.732-39.286S501.331,326.913,492.03,354.595z"/>
</g>
<path fill="#FD9CAD" d="M552.488,327.976c-3.101,13.686-1.816,22.987,1.019,35.92s-4.119,83.71-4.119,83.71
	c0.753,1.86,4.474,5.271,5.979,6.2c0,0,5.138-56.338,3.587-71.308c-1.55-14.971-5.669-22.456-6.466-30.738
	C551.735,343.478,552.488,327.976,552.488,327.976z"/>
<path fill="#AD9DE3" d="M535.613,646.341c2.524,14.704,4.606,26.796,6.289,36.717c1.684-77.509,26.796-167.951,26.796-167.951
	c-3.809-22.722-8.282-43.052-8.282-43.052S524.23,580.214,535.613,646.341z"/>
<path fill="#8F8479" d="M740.592,485.121l-118.878,14.262c-1.373,0.177-2.613-0.797-2.746-2.17l-9.744-81.274
	c-0.177-1.373,0.798-2.613,2.171-2.746l118.877-14.262c1.373-0.178,2.613,0.797,2.746,2.17l9.744,81.274
	C742.939,483.703,741.965,484.943,740.592,485.121z"/>
<path fill="#AD9DE3" d="M739.041,487.689l-118.877,14.262c-1.373,0.178-2.613-0.797-2.746-2.17l-9.744-81.274
	c-0.178-1.373,0.797-2.613,2.17-2.746l118.878-14.262c1.373-0.177,2.613,0.798,2.746,2.171l9.744,81.273
	C741.389,486.272,740.414,487.513,739.041,487.689z"/>
<path fill="#0D0E12" d="M670.612,333.291c-9.611,5.846-19.178,11.781-28.302,18.292c3.854,5.049,7.573,10.63,10.408,16.432
	c8.327,17.096,13.287,27.46,16.255,45.177l28.479-4.518c-1.506-12.402-3.897-24.759-7.53-36.009
	C685.937,360.176,679.115,346.578,670.612,333.291z"/>
<path fill="#F9D0D0" d="M697.674,493.049c-1.02,8.77-14.483,12.401-20.153,11.87c-5.669-0.531-4.65-9.301-4.65-9.301l-7.22,0.531
	c1.551-5.669,9.302-14.483,9.302-14.483s-1.551-26.885-4.119-54.257c-0.487-5.314-1.107-10.01-1.816-14.262l28.479-4.518
	C702.236,447.385,698.471,486.405,697.674,493.049z"/>
<path fill="#0D0E12" d="M523.919,828.908c-5.846,4.119-23.075,12.048-23.075,12.048s-2.259-3.721-6.732-7.574
	c-5.935,4.341-12.225,8.371-16.83,10.896c-2.171,1.152-1.373,4.43,1.062,4.518c2.126,0.089,4.65,0.133,7.662,0.133
	c11.693,0,40.97-17.583,40.97-17.583l1.019,13.11h5.536c0,0,0.753-7.973,1.86-21.305
	C532.379,824.258,527.596,826.34,523.919,828.908z"/>
<path fill="#0D0E12" d="M624.504,844.41c6.865,0.709,23.076-2.746,33.396-15.855c10.319-13.11,12.047-11.029,12.047-11.029
	l2.081,15.148l4.828-1.373c0,0-0.886-9.391-2.569-23.962c-3.321,0.31-9.788,7.884-15.855,15.502
	c-6.954,8.77-16.698,11.25-16.698,11.25l-7.086-5.271c-7.087,6.378-14.262,10.763-14.262,10.763S617.595,843.746,624.504,844.41z"/>
<path fill="#0D0E12" d="M125.869,38.225c-4.163,0-7.529-3.366-7.529-7.53c0-4.163,3.366-7.529,7.529-7.529
	c0.222,0,0.442,0,0.62,0.045c1.55-4.385,5.713-7.574,10.63-7.574c4.916,0,9.124,3.189,10.674,7.574
	c0.31-0.045,0.62-0.045,0.931-0.045c1.195,0,2.303,0.266,3.321,0.798c1.639-3.056,4.828-5.094,8.548-5.094
	c5.359,0,9.656,4.341,9.656,9.655s-4.341,9.656-9.656,9.656h-34.724V38.225z"/>
</svg>
