<svg id="Layer_1" data-name="Layer 1" xmlns="http://www.w3.org/2000/svg" viewBox="0 0 1920 1418"><defs><style>.cls-1{fill:#c4d0de;}.cls-2{fill:#0d0e12;}.cls-3{fill:#ccecef;}.cls-4{fill:#9fd4e0;}.cls-5{fill:#ad9de3;}.cls-6{fill:#a7a7b1;}.cls-40,.cls-7{fill:#fff;}.cls-8{fill:#f5cfbf;}.cls-9{fill:#edf9fd;}.cls-10{fill:#fd9cad;}.cls-11{fill:#e6f2ff;}.cls-12{fill:#41b093;}.cls-13{fill:#e3f5ff;}.cls-14{fill:#6cc3f1;}.cls-15,.cls-27{fill:#5f48dc;}.cls-16{fill:#9f91ea;}.cls-17{fill:#7763e1;}.cls-18{fill:#93e6f0;}.cls-19{fill:#6898fd;}.cls-20{fill:#ec81b8;}.cls-21{fill:#f29d9d;}.cls-22{fill:#bd422a;}.cls-23{fill:#c3b9dd;}.cls-24{fill:#3a3a75;}.cls-25{fill:#ccc;}.cls-26{fill:#414179;}.cls-27{opacity:0.3;}.cls-27,.cls-39,.cls-40{isolation:isolate;}.cls-28{fill:#f6b8b8;}.cls-29{fill:#0d1d7e;}.cls-30{fill:#ffb993;}.cls-31{fill:#0d232b;}.cls-32{fill:#e6e5ce;}.cls-33{fill:#936037;}.cls-34{fill:#b17f4a;}.cls-35{fill:#ffcb8a;}.cls-36{fill:#7d4e24;}.cls-37{fill:#683c11;}.cls-38{fill:#f6d2c3;}.cls-39{fill:#134c83;opacity:0.09;}.cls-40{opacity:0.44;}</style></defs><title>continuous-delivery-partner (1)</title><path class="cls-1" d="M1913.5,1188.5H1612.3a5.8,5.8,0,0,0-5.8,5.8h0a5.8,5.8,0,0,0,5.8,5.8h301.2a5.8,5.8,0,0,0,5.8-5.8h0A5.8,5.8,0,0,0,1913.5,1188.5Z"/><path class="cls-1" d="M436.8,1088v48.4H205.7v16.2c0,146,119.4,265.4,265.4,265.4h879.5c146,0,265.4-119.4,265.4-265.4V1088Z"/><path class="cls-2" d="M1177.8,167.9a.9.9,0,0,1-.9-.9V109a.9.9,0,0,1,1.8,0v58.1A.88.88,0,0,1,1177.8,167.9Z"/><path class="cls-2" d="M1309,237.1a.6.6,0,0,1-.4-.1l-131.3-69.1a.89.89,0,0,1,.8-1.6l131.3,69.1a.93.93,0,0,1,.4,1.2A.89.89,0,0,1,1309,237.1Z"/><path class="cls-2" d="M1046.5,237.1a1,1,0,0,1-.8-.5.89.89,0,0,1,.4-1.2l131.3-69.1a.89.89,0,1,1,.8,1.6L1046.9,237C1046.8,237,1046.7,237.1,1046.5,237.1Z"/><path class="cls-2" d="M1177.8,109.9a.85.85,0,0,1-.8-.7.83.83,0,0,1,.6-1l454.9-106a1.27,1.27,0,0,1,.6.1l231.2,106a.83.83,0,1,1-.7,1.5L1632.6,3.9,1178,109.8C1177.9,109.9,1177.9,109.9,1177.8,109.9Z"/><path class="cls-2" d="M1589.4,1086.1a3,3,0,0,1-2.1-5.1l85.2-85.9-85.2-83.9a2.88,2.88,0,0,1-.9-2.1,2.72,2.72,0,0,1,.9-2.1l85.3-86.2-85.3-86a2.9,2.9,0,0,1,0-4.2l85.2-84.5-85.2-85.6a2.9,2.9,0,0,1,0-4.2l85.3-86.5-85.3-85.3a2.9,2.9,0,0,1,0-4.2l85.3-86.1L1587.4,208a3,3,0,1,1,4.2-4.2l87.3,88.3a2.9,2.9,0,0,1,0,4.2l-85.3,86.1,85.3,85.3a2.9,2.9,0,0,1,0,4.2l-85.3,86.5,85.3,85.7a2.88,2.88,0,0,1,.9,2.1,2.72,2.72,0,0,1-.9,2.1l-85.2,84.5,85.3,86a2.9,2.9,0,0,1,0,4.2l-85.3,86.1,85.2,83.9a2.88,2.88,0,0,1,.9,2.1,2.72,2.72,0,0,1-.9,2.1l-87.4,88.1A2.65,2.65,0,0,1,1589.4,1086.1Z"/><path class="cls-2" d="M1684.2,206.7H1582.6a3.16,3.16,0,0,1-3.2-3.2V101.9a3.16,3.16,0,0,1,3.2-3.2h101.6a3.16,3.16,0,0,1,3.2,3.2V203.5A3.29,3.29,0,0,1,1684.2,206.7Z"/><path class="cls-2" d="M1676.8,1086.1h-87.4a2.72,2.72,0,0,1-2.1-.9,2.88,2.88,0,0,1-.9-2.1l.5-877.3a3,3,0,0,1,3-3h86.8a3,3,0,0,1,3,3v877.3a2.72,2.72,0,0,1-.9,2.1A2.38,2.38,0,0,1,1676.8,1086.1Zm-84.4-5.9h81.4V208.9H1593Z"/><path class="cls-2" d="M1676.8,1086.1a2.88,2.88,0,0,1-2.1-.9l-87.4-88.1a2.88,2.88,0,0,1-.9-2.1,2.72,2.72,0,0,1,.9-2.1l85.2-83.9-85.3-86.1a2.9,2.9,0,0,1,0-4.2l85.3-86-85.2-84.5a2.88,2.88,0,0,1-.9-2.1,2.72,2.72,0,0,1,.9-2.1l85.3-85.7-85.3-86.5a2.9,2.9,0,0,1,0-4.2l85.3-85.3-85.3-86.1a2.9,2.9,0,0,1,0-4.2l87.4-88.3a3,3,0,1,1,4.2,4.2l-85.3,86.2,85.3,86.1a2.9,2.9,0,0,1,0,4.2l-85.3,85.3,85.3,86.5a2.9,2.9,0,0,1,0,4.2L1593.7,646l85.2,84.5a2.9,2.9,0,0,1,0,4.2l-85.3,86,85.3,86.2a2.88,2.88,0,0,1,.9,2.1,2.72,2.72,0,0,1-.9,2.1L1593.7,995l85.2,85.9a2.9,2.9,0,0,1,0,4.2A2.38,2.38,0,0,1,1676.8,1086.1Z"/><path class="cls-2" d="M1863.9,199.4h0l-176.5-.5a3,3,0,0,1-3-3V109a3,3,0,0,1,3-3h176.5a2.72,2.72,0,0,1,2.1.9,2.88,2.88,0,0,1,.9,2.1v87.4a2.72,2.72,0,0,1-.9,2.1A3.33,3.33,0,0,1,1863.9,199.4Zm-173.5-6.6,170.5.5V112H1690.4Z"/><path class="cls-2" d="M1775.7,199.4a2.88,2.88,0,0,1-2.1-.9l-88.3-87.4a3,3,0,0,1,4.2-4.2l86.2,85.3,86.1-85.3a3,3,0,1,1,4.2,4.2l-88.2,87.4A3,3,0,0,1,1775.7,199.4Z"/><path class="cls-2" d="M1579.4,199.4a1.27,1.27,0,0,1-.6-.1l-401.6-87.4a2.92,2.92,0,0,1-2.3-3.3,3,3,0,0,1,3-2.7h401.6a2.72,2.72,0,0,1,2.1.9,2.88,2.88,0,0,1,.9,2.1v87.4a2.84,2.84,0,0,1-1.1,2.3A3.41,3.41,0,0,1,1579.4,199.4ZM1205.7,112l370.7,80.6V112Z"/><path class="cls-2" d="M1506.8,183.6a2.88,2.88,0,0,1-2.1-.9l-71.2-69.6L1390,156.6a2.9,2.9,0,0,1-4.2,0l-42.2-42.2-26.1,26.1a2.9,2.9,0,0,1-4.2,0l-26.2-26.2-16,16a2.9,2.9,0,0,1-4.2,0l-16.5-16.5-10.3,10.3a2.9,2.9,0,0,1-4.2,0l-10.7-10.7-6.3,6.3a3,3,0,0,1-4.2-4.2l8.4-8.4a3.09,3.09,0,0,1,4.2,0l10.7,10.7,10.3-10.3a2.9,2.9,0,0,1,4.2,0L1269,124l16-16a2.9,2.9,0,0,1,4.2,0l26.2,26.2,26.1-26.1a2.9,2.9,0,0,1,4.2,0l42.2,42.2,43.5-43.5a2.9,2.9,0,0,1,4.2,0l71.2,69.7,70.5-69.5a3,3,0,1,1,4.2,4.2l-72.6,71.6A3.44,3.44,0,0,1,1506.8,183.6Z"/><rect class="cls-2" x="1593.8" y="136.8" width="77.7" height="8.6"/><path class="cls-2" d="M1589.4,101.7a2.66,2.66,0,0,1-1.2-.3,3,3,0,0,1-1.5-4l43.2-95.7a2.94,2.94,0,0,1,2.7-1.8h0a3,3,0,0,1,2.7,1.7l44.1,95.7a3,3,0,0,1-5.5,2.5l-41.4-89.7L1592,99.8A2.59,2.59,0,0,1,1589.4,101.7Z"/><path class="cls-2" d="M1310.5,301.9H1046.6V236.2h263.9Zm-224.3-46.3a13.4,13.4,0,1,0,13.4,13.4A13.4,13.4,0,0,0,1086.2,255.6Zm59.9,0a13.4,13.4,0,1,0,13.4,13.4A13.4,13.4,0,0,0,1146.1,255.6Zm59.9,0a13.4,13.4,0,1,0,13.4,13.4A13.4,13.4,0,0,0,1206,255.6Zm59.9,0a13.4,13.4,0,1,0,13.4,13.4A13.4,13.4,0,0,0,1265.9,255.6Z"/><path class="cls-1" d="M405.6,893.9a52.81,52.81,0,0,0-8.5-39c-5.8-8.7-6.4-19.4-1.2-28.1a69.32,69.32,0,0,0,9.1-24.2c4.3-23.8-3.7-47.2-19.8-64.5-8.4-9-11.3-21.3-7.2-32.4a45,45,0,0,0,2.2-8.2c3.8-20.9-6.4-41.4-24.2-53.2-10.4-6.8-14.4-19.2-9.3-29.7a62.76,62.76,0,0,0,5.4-15.4c6-33.2-18.3-65.4-54.4-72h-.1c-5.3-1-8.8-5.7-7.9-10.6a4.33,4.33,0,0,1,.1-.5c7.7-42.5-24-83.7-70.6-91.2-43.8-7-86.8,21-94.2,61.1a71.82,71.82,0,0,0,.5,28.5c4.5,20.2-6.3,40.5-26.4,48.7-34.7,14-61.1,43.3-67.9,80.7a104.67,104.67,0,0,0,10.6,67.6c9.4,18,5,39.3-10.7,52.4C16,776.7,5.1,794.1,1.4,814.5-5.2,850.7,12.6,886,43.8,906a16.16,16.16,0,0,1,7.6,16.5v.2C48,941.4,61.7,959.6,82,963.3c.2,0,.3.1.5.1a4,4,0,0,1,3.5,4.5h0c-4.8,26.4,14.5,51.9,43.2,57.1a55.59,55.59,0,0,0,12.8.9,29.2,29.2,0,0,1,24.5,11.6c17.3,23.6,44.5,41.2,77,46.8,60.7,10.4,120.5-27.7,131-83.4a98.24,98.24,0,0,0,.4-34.6,48,48,0,0,1,14.9-43.5A52.35,52.35,0,0,0,405.6,893.9Z"/><path class="cls-3" d="M453.9,895.1c1.4-12.5-2.7-24.4-10.4-34-5.9-7.3-7.2-16.7-3-24.7a62.78,62.78,0,0,0,6.7-21.9c2.3-21.3-6.6-41.5-22.5-55.8-8.3-7.5-11.8-18.2-8.8-28.2a44.09,44.09,0,0,0,1.5-7.4c2-18.7-8.6-36.2-25.7-45.6-9.9-5.4-14.5-16.1-10.5-25.7a49.59,49.59,0,0,0,3.8-13.9c3.2-29.7-21.2-56.7-54.5-60.4h-.1c-4.9-.5-8.4-4.5-7.9-8.9a.9.9,0,0,1,.1-.5c4.2-38-27.6-72.6-70.6-76.3-40.4-3.6-77.8,23.7-81.7,59.6a61.87,61.87,0,0,0,2.4,25.1c5.5,17.6-3,36.2-20.8,44.6-30.7,14.5-52.8,41.9-56.4,75.4a90.56,90.56,0,0,0,14.3,59.1c9.8,15.3,7.2,34.5-6.2,46.9a74,74,0,0,0-23.8,46.4c-3.5,32.3,15.1,62.5,44.9,78.3,5.6,3,8.7,8.5,8,14.1v.2c-1.8,16.7,11.9,32,30.7,34h.4a3.66,3.66,0,0,1,3.5,3.8h0c-2.6,23.6,16.8,45,43.3,47.9a57.18,57.18,0,0,0,11.7,0,27,27,0,0,1,23.1,8.8c17.4,19.8,43.4,33.7,73.4,36.7,56.1,5.6,108-31.6,113.9-81.5a84.55,84.55,0,0,0-2-30.6,41.53,41.53,0,0,1,10.6-39.3A43.29,43.29,0,0,0,453.9,895.1Z"/><path class="cls-1" d="M1562.5,907.8c2.5-11-.4-21.8-7.3-30.6-5.3-6.7-5.7-15.1-.7-22a52.77,52.77,0,0,0,8.8-19.1c4.3-18.7-2.8-37-17.4-50.4-7.6-7-10.1-16.6-6.2-25.4a35.51,35.51,0,0,0,2.2-6.5c3.8-16.5-5.3-32.5-21.6-41.5-9.5-5.2-13.1-14.9-8.2-23.2a45.63,45.63,0,0,0,5.2-12.1c6-26.1-16-51.2-49.2-55.9h-.1c-4.9-.7-8.1-4.4-7.1-8.2,0-.1.1-.3.1-.4,7.7-33.5-21-65.5-63.9-70.8-40.3-5-80.5,17.4-87.8,49a48.41,48.41,0,0,0,.1,22.4c3.9,15.8-6.4,31.9-25.1,38.5-32.2,11.4-57,34.7-63.8,64.1-4.3,18.7-.7,37.1,8.9,53,8.4,14,4.1,30.8-10.6,41.2-14.3,10.1-24.6,24-28.3,40-6.6,28.5,9.4,56,37.9,71.3,5.3,2.9,8,7.9,6.8,12.9v.1c-3.4,14.7,9,28.8,27.7,31.5a.6.6,0,0,1,.4.1c2.1.3,3.6,1.9,3.2,3.5h0c-4.8,20.7,12.7,40.6,39,44.4a58.63,58.63,0,0,0,11.8.5c8.9-.5,17.5,3,22.4,8.8,15.6,18.4,40.5,31.9,70.4,35.9,55.9,7.5,111.6-23,122.1-66.9a65.88,65.88,0,0,0,.8-27.2c-2.3-12.6,2.9-25.3,14.4-34.3C1555,924.7,1560.5,916.8,1562.5,907.8Z"/><path class="cls-3" d="M1585.9,932.2c1.3-9.3-1.8-18.1-8-25.1-4.7-5.4-5.6-12.3-2.1-18.3a42.9,42.9,0,0,0,5.7-16.3c2.2-15.8-4.8-30.7-17.5-41.2-6.6-5.5-9.3-13.4-6.8-20.8a33.86,33.86,0,0,0,1.3-5.5c1.9-13.9-6.5-26.8-20.3-33.5-8-3.9-11.5-11.8-8.2-18.9a36,36,0,0,0,3.3-10.4c3.1-22.1-16.4-41.9-43.4-44.2h-.1c-4-.3-6.8-3.3-6.3-6.5a.76.76,0,0,1,.1-.4c3.9-28.3-21.4-53.6-56.3-55.9-32.8-2.2-63.5,18.5-67.3,45.2a41.54,41.54,0,0,0,1.6,18.6c4.2,13-2.9,26.9-17.5,33.4-25.1,11.1-43.5,31.7-46.9,56.6-2.2,15.8,2,30.9,10.8,43.7,7.8,11.3,5.4,25.5-5.7,34.9-10.8,9.2-18.1,21.2-20,34.7-3.3,24,11.4,46.2,35.4,57.6,4.5,2.1,6.9,6.2,6.3,10.4v.1c-1.7,12.4,9.2,23.6,24.5,24.9h.3a2.72,2.72,0,0,1,2.8,2.8h0c-2.4,17.5,13,33.2,34.5,35.1a50.17,50.17,0,0,0,9.5-.1c7.1-.8,14.3,1.6,18.7,6.3,13.9,14.5,34.8,24.5,59.2,26.4,45.5,3.5,88.2-24.7,93.7-61.8a57.55,57.55,0,0,0-1.2-22.7c-2.7-10.4.6-21.2,9.2-29.3A33.56,33.56,0,0,0,1585.9,932.2Z"/><path class="cls-4" d="M1708.3,1083.7H1404.4a4.37,4.37,0,0,0-4.4,4.4v2.8a4.37,4.37,0,0,0,4.4,4.4h303.9a4.37,4.37,0,0,0,4.4-4.4v-2.8A4.44,4.44,0,0,0,1708.3,1083.7Z"/><path class="cls-1" d="M401.9,1141.4a5.8,5.8,0,0,0,5.8-5.8h0a5.8,5.8,0,0,0-5.8-5.8H100.7a5.8,5.8,0,0,0-5.8,5.8h0a5.8,5.8,0,0,0,5.8,5.8"/><ellipse class="cls-5" cx="440.5" cy="1175.3" rx="106.9" ry="12.7"/><path class="cls-6" d="M1389.8,1125.9H396.4a53.18,53.18,0,0,1-53.2-53.2V407.9a53.18,53.18,0,0,1,53.2-53.2h993.3a53.18,53.18,0,0,1,53.2,53.2v664.9A53.13,53.13,0,0,1,1389.8,1125.9Z"/><path class="cls-2" d="M1381.9,1139.2H389.8a56.25,56.25,0,0,1-56.2-56.2V415.9a56.25,56.25,0,0,1,56.2-56.2h992.1a56.19,56.19,0,0,1,56.2,56.2V1083A56.19,56.19,0,0,1,1381.9,1139.2Z"/><path class="cls-2" d="M1388.5,1130.9H388.7a49.85,49.85,0,0,1-49.9-49.9V409.6a49.85,49.85,0,0,1,49.9-49.9h999.8a49.85,49.85,0,0,1,49.9,49.9V1081A49.85,49.85,0,0,1,1388.5,1130.9Z"/><rect class="cls-7" x="410.2" y="377" width="956.8" height="736.7"/><path d="M1369,1115.6H408.2V375H1369Zm-956.8-3.9h952.9V378.9H412.2Z"/><path class="cls-1" d="M1400.2,767.8h0a3.9,3.9,0,0,1-3.9-3.9V711.2a3.9,3.9,0,0,1,3.9-3.9h0a3.9,3.9,0,0,1,3.9,3.9v52.7A3.78,3.78,0,0,1,1400.2,767.8Z"/><ellipse class="cls-1" cx="376.6" cy="737.5" rx="6" ry="6.7"/><rect class="cls-1" x="473.2" y="460.4" width="862.7" height="327.3"/><rect class="cls-3" x="1019.1" y="819" width="284.9" height="17.8"/><rect class="cls-3" x="473.2" y="431" width="128" height="29.4"/><rect class="cls-3" x="601.2" y="431.1" width="200.7" height="29.4"/><path class="cls-3" d="M580.4,851.5l-20.2,71L493.9,955a73.79,73.79,0,0,1,66.3-106.2A70.89,70.89,0,0,1,580.4,851.5Z"/><path class="cls-8" d="M560.2,922.5H634v.5C610.1,923.3,560.2,922.5,560.2,922.5Z"/><path class="cls-9" d="M618.7,877.6l-58.5,44.9,20.2-71A73.94,73.94,0,0,1,618.7,877.6Z"/><path class="cls-10" d="M634,922.5H560.2l58.5-44.9A73.12,73.12,0,0,1,634,922.5Z"/><path class="cls-5" d="M634,923a76.22,76.22,0,0,1-4,23.5l-69.8-24S610.1,923.3,634,923Z"/><path class="cls-3" d="M630,946.5a73.8,73.8,0,0,1-136.1,8.4l66.3-32.4Z"/><rect class="cls-1" x="1175.9" y="412.1" width="160" height="18.9"/><path class="cls-5" d="M733.7,848.7v16.7a57.06,57.06,0,0,0-40.4,97.4l-11.8,11.8a73.82,73.82,0,0,1,52.2-125.9Z"/><path class="cls-1" d="M807.5,922.5a73.82,73.82,0,0,1-126.1,52.1l11.8-11.8a57.08,57.08,0,1,0,40.4-97.4V848.7A73.83,73.83,0,0,1,807.5,922.5Z"/><path class="cls-11" d="M790.8,922.5a57.1,57.1,0,1,1-57.1-57.1A57.15,57.15,0,0,1,790.8,922.5Z"/><path class="cls-5" d="M964.6,966.5a73.82,73.82,0,1,1-59.3-117.8v16.7a57.1,57.1,0,1,0,46,91.1Z"/><path class="cls-3" d="M979.1,922.5a73.69,73.69,0,0,1-14.5,44l-13.4-9.9a57.13,57.13,0,0,0-45.9-91.1V848.8A73.66,73.66,0,0,1,979.1,922.5Z"/><path class="cls-11" d="M962.4,922.5a57.15,57.15,0,1,1-57.2-57.1A57,57,0,0,1,962.4,922.5Z"/><path class="cls-12" d="M1146.4,1189.6c0-93.3,75.6-284.9,168.9-284.9s168.9,191.6,168.9,284.9Z"/><rect class="cls-9" x="1019.1" y="890.8" width="284.9" height="133.2"/><path class="cls-10" d="M1146.4,1189.6c0-93.3,75.6-284.9,168.9-284.9s168.9,191.6,168.9,284.9Z"/><path class="cls-5" d="M1364.3,922.1l-29,20.4a29.06,29.06,0,0,0-46.3,32.7L1177.2,1054c-4.5,11.3-8.5,22.7-12.1,34l138.4-97.5a29.14,29.14,0,0,0,41.6-26.3c0-1-.1-1.9-.1-2.9l36.1-25.4A170,170,0,0,0,1364.3,922.1Z"/><path class="cls-5" d="M1640.5,742.5l-631.9,445.2a10.41,10.41,0,0,1-14.5-2.5h0a10.41,10.41,0,0,1,2.5-14.5l631.9-445.2A10.41,10.41,0,0,1,1643,728h0A10.32,10.32,0,0,1,1640.5,742.5Z"/><circle class="cls-13" cx="1315.9" cy="959.3" r="29.1"/><circle class="cls-5" cx="1315.9" cy="963.8" r="18.6"/><circle class="cls-14" cx="1315.9" cy="959.3" r="18.6"/><path class="cls-15" d="M530.5,1173c0-5.7-38.9-10.3-87-10.3s-87,4.6-87,10.3c0,.8.8,1.6,2.2,2.3,5.5,5,41.4,8.8,84.8,8.8s79.3-3.8,84.8-8.8C529.8,1174.5,530.5,1173.8,530.5,1173Z"/><path class="cls-5" d="M530.5,1173c0-5.7-38.9-10.3-87-10.3s-87,4.6-87,10.3c0,.8.8,1.6,2.2,2.3,5.5,5,41.4,8.8,84.8,8.8s79.3-3.8,84.8-8.8C529.8,1174.5,530.5,1173.8,530.5,1173Z"/><path class="cls-3" d="M356.6,1130.4v42c0,5.7,38.9,10.3,87,10.3s87-4.6,87-10.3v-42Z"/><ellipse class="cls-16" cx="443.6" cy="1130.4" rx="87" ry="10.3"/><ellipse class="cls-17" cx="443.6" cy="1129.4" rx="85.5" ry="10.2"/><ellipse class="cls-5" cx="443.6" cy="1129.4" rx="85.5" ry="10.2"/><path class="cls-5" d="M530.5,1126.7c0-5.7-38.9-10.3-87-10.3s-87,4.6-87,10.3c0,.8.8,1.6,2.2,2.3,5.5,5,41.4,8.8,84.8,8.8s79.3-3.8,84.8-8.8C529.8,1128.3,530.5,1127.5,530.5,1126.7Z"/><path class="cls-5" d="M530.5,1126.7c0-5.7-38.9-10.3-87-10.3s-87,4.6-87,10.3c0,.8.8,1.6,2.2,2.3,5.5,5,41.4,8.8,84.8,8.8s79.3-3.8,84.8-8.8C529.8,1128.3,530.5,1127.5,530.5,1126.7Z"/><path class="cls-2" d="M356.6,1084.1v42c0,5.7,38.9,10.3,87,10.3s87-4.6,87-10.3v-42Z"/><ellipse class="cls-18" cx="443.6" cy="1084.1" rx="87" ry="10.3"/><ellipse class="cls-5" cx="443.6" cy="1083.2" rx="85.5" ry="10.2"/><rect class="cls-10" x="473.2" y="819" width="24.7" height="17.8"/><rect class="cls-10" x="643.2" y="819" width="24.7" height="17.8"/><rect class="cls-10" x="807.3" y="819" width="24.7" height="17.8"/><rect class="cls-19" x="473.2" y="490.5" width="18.6" height="18.6"/><rect class="cls-19" x="473.2" y="521.7" width="18.6" height="18.6"/><rect class="cls-20" x="473.2" y="552.8" width="18.6" height="18.6"/><path class="cls-10" d="M83.4,813.1c-8-4.5-8.1-13.3-3.7-17.9s4.4-7.3,12.2-13.1,11.1-4.6,18.9-6.1,9.1-5.7,14.6-11.8,10.7-9.1,19.3-10,11.1,1.1,20-2.5,7.5-9.2,17-10.6c11.4-1.6,27.8,14.3,27.4,23.4s-30.4,20.7-30.4,20.7-2.4,1.9-8.6,8.1-9.6,7.3-19.6,6.2-15,1.8-19.3,5.3-11.3,4.7-17.3,3-10.6-.4-16,3S86.3,814.8,83.4,813.1Z"/><path class="cls-5" d="M189.8,763.4l-19.9,8.4c-10.2,1.9-13-1.5-18.1,3.4s-10.1,9.9-15.1,10.8-12.4-2-18.6,1.8-7.9,10.2-14.3,12.4-9.5.6-14.5,6.1a15.53,15.53,0,0,0-3.5,7.6c3.2.5,7.9-.5,12.1-3.1,5.4-3.4,9.9-4.7,16-3s13.1.5,17.3-3,9.3-6.4,19.3-5.3,13.5,0,19.6-6.2a97.89,97.89,0,0,1,8.6-8.1,127.3,127.3,0,0,0,13.1-15.4Z"/><path class="cls-21" d="M184.3,770.6a7.21,7.21,0,1,1-8.1-6.2A7.14,7.14,0,0,1,184.3,770.6Z"/><path class="cls-22" d="M180.9,771a3.83,3.83,0,1,1-4.3-3.3A4,4,0,0,1,180.9,771Z"/><path class="cls-8" d="M199.6,833.2a114.75,114.75,0,0,1,17.9,1.2c.6-3.7.2-7.2,0-11-.1-2.1-2.3-4.7-4-7.1a13.26,13.26,0,0,0-7.3-5.2c-1.7-.4-2.7-1-3.3-3.4-1.2-4.8-4.6-31.1-4.6-31.1l-21.1.2s3.9,25.9,3.2,30.1c-.6,3.9-6.9,5.9-14.6,9.4,4.4,5.8,5.7,14.3,5,21.6C179.4,831.6,190.3,833.4,199.6,833.2Z"/><path class="cls-5" d="M191.5,792.8c1.9.4,7.4.5,9-.2-1-8.2-2.2-16.1-2.2-16.1l-17.1.2C181.7,785.1,185.9,791.7,191.5,792.8Z"/><path class="cls-8" d="M204,767.8c1.4,10.1-1.5,18.9-10.2,20-7.4,1-15-6.3-16.9-16.3s.9-18.8,11.2-20.2C203,749.3,202.7,757.7,204,767.8Z"/><path class="cls-23" d="M182.7,763.3a9.92,9.92,0,0,1,4-1.6,10.86,10.86,0,0,1,4.4,0c.1,0,.1.1.1.2s-.1.1-.2.1h0a29.66,29.66,0,0,0-4.2.3,11.7,11.7,0,0,0-2,.5c-.7.2-1.3.5-2,.7h0c-.1,0-.2,0-.2-.1Z"/><path class="cls-23" d="M202.9,759.8h-1.5a10.18,10.18,0,0,0-4.2,1.2c-.1,0-.1.1-.1.2s.1.1.2.1h0a19.45,19.45,0,0,1,2-.5,15.17,15.17,0,0,1,2.1-.3c.5,0,1-.1,1.5-.1Z"/><path d="M188.7,766.3a1,1,0,1,1-1.1-.8A.92.92,0,0,1,188.7,766.3Z"/><path d="M202.5,764.4a1,1,0,1,1-1.1-.8C202,763.5,202.5,763.8,202.5,764.4Z"/><path class="cls-21" d="M203.9,767.1h-.2a3.17,3.17,0,0,0,.6,6.3,26.67,26.67,0,0,0-.3-5.6A2,2,0,0,0,203.9,767.1Z"/><path class="cls-21" d="M191.2,771.6a3.18,3.18,0,1,1-3.6-2.7A3.3,3.3,0,0,1,191.2,771.6Z"/><path class="cls-21" d="M196.2,764.4l3.2,4.4a.88.88,0,0,1-.6,1.4l-2.9.5Z"/><path class="cls-7" d="M201,774.1c.2,1.4-1.6,2.7-3.9,3s-4.4-.5-4.5-1.9,1.9-.6,4.2-.9S200.9,772.7,201,774.1Z"/><path class="cls-10" d="M208.8,752.2c-2.3-5-9.2-11.9-19.3-9.3a20.2,20.2,0,0,0-12.2,8.7L167.8,772c14.5-.1,15.1-16.5,18.9-18.8a31.55,31.55,0,0,1,4.9-2.2c3.4,8,10.2,3.8,12.5,5.9,3.1,2.8,1.8,12.1,2.6,12S212.3,759.8,208.8,752.2Z"/><path class="cls-8" d="M194.3,815.5c-.7,12.9,17.3,35.6,40.9,52.5s43.7,28.4,55.5,33.7,17.3,7.2,18.2,5.4c.4-.9-1-1.7-2.6-2.3,1.6.4,3.3.5,3.8-.3s-1.1-1.8-2.6-2.6c1.7.5,3.5.8,4-.2s-1.5-2.3-3.6-3.1c1.6.4,3.2.6,3.6-.3.6-1.6-8.1-5-10.8-6,1.2.4,3.7,1.3,5,1.6a1.72,1.72,0,0,0,1.9-1.2c.1-.6-.5-.9-2.5-1.8-4.1-1.8-13.8-5.1-34.4-17.6s-43.5-32.8-51.8-46.8c-1.2-2-3.1-5.6-4.2-7.6C208.9,814.7,195,801.7,194.3,815.5Z"/><path class="cls-21" d="M236.8,869q3.9,2.85,7.8,5.4a2.18,2.18,0,0,0,.5-.8,4.72,4.72,0,0,0-2.1-6.4A4.77,4.77,0,0,0,236.8,869Z"/><path class="cls-5" d="M222.3,834.7c5.6,10.2,4.1,26.4,4.1,26.4s-8.9-7.9-12-11S222.3,834.7,222.3,834.7Z"/><polygon class="cls-1" points="265 1122.4 262.3 1123.3 264.2 1128.9 266.5 1126.9 265 1122.4"/><path class="cls-8" d="M286,1127.5a6.57,6.57,0,0,1-2.6,1.5c-2.1.7-6.1,1.1-11.2-1.9s-8.3-3.6-12.6-3.7c-5.1-14.7-19.9-49.6-32.4-86.8-9.7-28.9-16.1-51.6-23.6-78l25.1-9.8s4.7,21.8,9.9,43.4c5.2,22,6.7,26.9,15.1,57.6,8.2,29.8,19.3,65.1,20.9,67.6C278.4,1123.6,285.1,1125.8,286,1127.5Z"/><path class="cls-24" d="M285.3,1128.8a12.56,12.56,0,0,1-10,.4c-4.2-1.6-9.1-4.9-12.6-5.1.3,1.3.9,2.6,1.5,4.8a11.4,11.4,0,0,1-2.8-.2s-.7-1.9-1.8-5.3c4.3.1,7.5.8,12.6,3.7s9.1,2.6,11.2,1.9a6.18,6.18,0,0,0,2.6-1.5C286.2,1128,286,1128.4,285.3,1128.8Z"/><polygon class="cls-1" points="117.5 1116.8 114.8 1116 113 1121.6 116 1121.4 117.5 1116.8"/><path class="cls-8" d="M131.3,1133.5a5.78,5.78,0,0,1-2.9-.4c-2.1-.7-5.5-2.8-7.9-8.2s-4.4-7.9-7.9-10.5c4.7-14.8,17.9-56.8,22.6-79.7,5.7-28.1,10.4-62.9,18.6-88.5l24.9,6.3a292.54,292.54,0,0,0-8.4,31.2c-4.4,19.9-7.5,37.7-20.1,71.7-10.8,29-21.7,60.2-22,63.2C127.6,1125.8,131.6,1131.6,131.3,1133.5Z"/><path class="cls-25" d="M208,973.5a33.74,33.74,0,0,1,10.8-6.5,28.34,28.34,0,0,1,13.6-1.3c-2.7-11.9-4.6-20.7-4.6-20.7l-25.1,9.8C204.4,961.2,206.2,967.4,208,973.5Z"/><path class="cls-25" d="M178.2,955.9l-24.9-6.3c-1.9,5.8-3.5,12-5.1,18.6a37.09,37.09,0,0,1,18.4,2.5,26.56,26.56,0,0,1,6.3,3.4C175.9,962.3,178.2,955.9,178.2,955.9Z"/><path class="cls-26" d="M129.9,1134.1a12.28,12.28,0,0,1-8.2-5.6c-2.4-3.8-4.4-9.4-7.1-11.6-.6,1.3-.9,2.6-1.7,4.8a10.87,10.87,0,0,1-2.1-1.9s.6-2,1.7-5.3c3.4,2.7,5.5,5.2,7.9,10.5s5.8,7.5,7.9,8.2a7.63,7.63,0,0,0,2.9.4C131.2,1134,130.8,1134.2,129.9,1134.1Z"/><path class="cls-2" d="M168.4,863.5c-1.2,7.1-10.6,14.8-17.6,35.2s-8.7,64.4-8.7,64.4,15.4,3.5,48.3,2.6c32.4-.9,44.5-4,44.5-4s.6-20.1-3.8-49.9-16.2-39.7-17.6-49Z"/><path class="cls-5" d="M192.1,937.3c-19.5.5-35.6.2-48.1-.4q-.45,5.1-.9,9.6c8.4.4,18.2.7,29.3.7,6.2,0,12.8-.1,19.9-.3,16.9-.5,30.9-1.2,42.2-2.1-.2-2.9-.4-6.1-.7-9.6C222.4,936.1,208.5,936.9,192.1,937.3Z"/><path class="cls-5" d="M192.1,918.7c-18.3.5-33.6.2-45.8-.3-.5,3.2-.9,6.4-1.3,9.6,8,.4,17.1.6,27.5.6,6.2,0,12.8-.1,19.9-.3,16.2-.4,29.6-1.2,40.7-2q-.45-4.65-1.2-9.6C220.8,917.6,207.5,918.3,192.1,918.7Z"/><path class="cls-5" d="M192.1,900.1c-16.3.4-30.3.3-41.7-.1a96,96,0,0,0-2.4,9.6c7.3.3,15.4.5,24.5.5,6.2,0,12.8-.1,19.9-.3,15-.4,27.6-1.1,38.2-1.8a97,97,0,0,0-2.1-9.5C218.1,899.2,206,899.8,192.1,900.1Z"/><path class="cls-5" d="M192.1,881.6c-12.7.3-23.9.3-33.6.1a84.16,84.16,0,0,0-4.7,9.5c5.7.2,12,.3,18.7.3,6.2,0,12.8-.1,19.9-.3,12.7-.3,23.8-.9,33.3-1.5a77.48,77.48,0,0,0-4.1-9.4C212.9,880.8,203,881.3,192.1,881.6Z"/><path class="cls-5" d="M168.4,863.5c-.5,2.8-2.2,5.7-4.5,9.3,2.8,0,5.6.1,8.6.1,6.2,0,12.8-.1,19.9-.3,9.1-.2,17.3-.6,24.7-1-1.7-3.3-3-6.1-3.4-8.8Z"/><path class="cls-5" d="M234.9,953.7c-11.7.9-26,1.8-42.8,2.2-20.3.5-36.8.2-49.6-.5-.3,4.7-.4,7.7-.4,7.7s12,2.7,37.4,2.7c4.1,0,8.4-.1,12.8-.2,2.1-.1,4.1-.1,6.1-.2,26.4-1.1,36.5-3.7,36.5-3.7S235.1,958.8,234.9,953.7Z"/><path class="cls-5" d="M206.5,811.1c2.7,2,8.4,19.2,8.4,19.2l7.3,1.1s-4.8-12-8.2-15.8A14.35,14.35,0,0,0,206.5,811.1Z"/><path class="cls-5" d="M164.2,845.5l4-12.2a174.15,174.15,0,0,1,30.9-3.6c17.6-.4,22,.4,22,.4s6.3,7.8,3.7,15.5a14.28,14.28,0,0,1-9.5,9.2l-1.8,8s-5.8,2.2-22.9,2-22.3-1.3-22.3-1.3Z"/><path class="cls-21" d="M161.2,1019.2a4.74,4.74,0,1,1-3-6A4.66,4.66,0,0,1,161.2,1019.2Z"/><path class="cls-21" d="M243.9,1017.1a4.74,4.74,0,1,1-6-3A4.74,4.74,0,0,1,243.9,1017.1Z"/><path class="cls-2" d="M128.3,1133.2a7.63,7.63,0,0,0,2.9.4c.2-1.1-1.2-3.7-2.2-7.2-4.4,0-6-2.9-6-2.9-1.1-4.3-5.7-9.8-9.6-11.9-.3,1-.6,2-.9,2.9,3.4,2.7,5.5,5.2,7.9,10.5S126.2,1132.5,128.3,1133.2Z"/><path class="cls-2" d="M283.4,1129a6.18,6.18,0,0,0,2.6-1.5c-.4-.9-2.5-1.9-4.8-3.5-3.9,2.8-7.1,1.2-7.1,1.2-3.6-3.2-11.2-5.3-15.4-4.4.3.9.7,1.8.9,2.7,4.3.1,7.5.8,12.6,3.7S281.3,1129.7,283.4,1129Z"/><path class="cls-27" d="M192.3,892.9c14.7,8.3,28,14.9,39,19.8,0-.3-.1-.6-.1-.9a109,109,0,0,0-4-17.7c-21.6-10.3-45.9-27.7-55.5-40.5-1.4-1.8-3.7-5.3-5-7.1-.7-.4-1.5-.9-2.3-1.4l-.1.4,4.2,18c-.5,2.7-2.1,5.5-4.4,9.1A151.14,151.14,0,0,0,192.3,892.9Z"/><path class="cls-5" d="M170.1,814.3c-8.2,3.9-14.7,9.1-13.4,18.1a34.3,34.3,0,0,0,5.3,14.5,20,20,0,0,1,7.8-7.3c5-2.4,8.2-1.9,9.4-2.1C178.9,836.8,170.1,814.3,170.1,814.3Z"/><path class="cls-8" d="M683.5,1151c-4.9,4.4-14,11.8-18.3,15.2a3.42,3.42,0,0,0-.8,4.5c3.5,5.8,12.7,19.2,23,19.2H696a4.75,4.75,0,0,0-3.2-4c-1.9-.6-4.7-5.9-6.4-9.3a4.16,4.16,0,0,1,1.2-5.1l9.9-7.9Z"/><path class="cls-5" d="M803.7,1026.2c-5.6,12.9-26.5,71-53.1,100.4-27.4,30.3-50.2,41.7-50.2,41.7-7.4-2.9-14.9-14.8-17-17.2,0,0,34.4-28.1,50-55.8s34.9-82.7,34.9-82.7Z"/><path class="cls-5" d="M803.7,1026.2c-5.6,12.9-26.5,71-53.1,100.4-27.4,30.3-50.2,41.7-50.2,41.7-7.4-2.9-14.9-14.8-17-17.2,0,0,34.4-28.1,50-55.8s34.9-82.7,34.9-82.7Z"/><path class="cls-8" d="M857.4,1189.8H826.6a3.15,3.15,0,0,1-3.1-2.9c-.2-3.5-.6-9.8-1.4-17.6,7.3-.3,17.7-1.9,17.7-1.9l.7,11.2a4.29,4.29,0,0,0,2.9,3.8c3.6,1.2,9.8,3.4,11.7,4.2C857.8,1187.7,857.4,1189.8,857.4,1189.8Z"/><path class="cls-1" d="M844.9,1166.6l-5.1.9s-11.4,2.5-18.7,2.8c-1.6-15.6-5.2-45.3-11.4-60.9-11-27.5-39.5-48.5-56.3-64-15.3-14.1-16-28.4-6.3-45.6l41.3,24.9s28.8,21.2,43.6,60.2C846.4,1122.7,844.9,1166.6,844.9,1166.6Z"/><path class="cls-8" d="M929.4,1031.7s2.5-5.8-6.2-13.3c-7.5-6.6-39.3-29.6-47.5-35.5-7.1,1.5-14.1,2.9-21.3,4,7.8,17.3,47.2,30.4,52.5,33.3,6,3.4,9.3,4.7,11.6,6.8s2.8,4.4,3.7,4.3.3-3.6.3-3.6c.8,1,1.3,5.2,2.2,4.7s.1-4.3.1-4.3c1,1.2.8,4.7,1.8,4.9s1-3.8,1-3.8Z"/><path class="cls-5" d="M929.4,1031.7s2.5-5.8-6.2-13.3c-7.5-6.6-39.3-29.6-47.5-35.5-7.1,1.5-14.1,2.9-21.3,4,7.8,17.3,47.2,30.4,52.5,33.3,6,3.4,9.3,4.7,11.6,6.8s2.8,4.4,3.7,4.3.3-3.6.3-3.6c.8,1,1.3,5.2,2.2,4.7s.1-4.3.1-4.3c1,1.2.8,4.7,1.8,4.9s1-3.8,1-3.8Z"/><path class="cls-10" d="M958.9,1188a87.69,87.69,0,1,1,42.4-150.8l-13.4,14.6A67.88,67.88,0,1,0,955,1168.5Z"/><path class="cls-3" d="M1006.9,1161.1a86.46,86.46,0,0,1-48,26.9l-3.8-19.5a67.85,67.85,0,0,0,32.8-116.7l13.4-14.6A87.64,87.64,0,0,1,1006.9,1161.1Z"/><path class="cls-2" d="M992.3,1147.7a66.82,66.82,0,0,1-37.1,20.8,67.9,67.9,0,1,1,37.1-20.8Z"/><path class="cls-2" d="M848.8,932.3c5.5,13.5,7.1,39.3,26.7,50.1l-16,15.4L829.4,980Z"/><path class="cls-8" d="M818.6,930.3c2.9,10.6,16.3,15.3,19.6,15.1,6-.3,3.3,1.6,7.3-2-.8-11.4-2-14.1.3-18.2,2.5-4.5,21.6-23.1,21.6-23.1l-16.2-14.6s-18.5,18.7-22,21.4c-2.1,1.7-9.1,2.3-12.7,3.5C815.2,918.8,816.8,923.9,818.6,930.3Z"/><path class="cls-5" d="M851.9,914.1c.7.6,1.4,1.1,2.1,1.6,6.1-6.7,11.9-13,11.9-13L854,892.6C848,900.4,846.3,909.2,851.9,914.1Z"/><path class="cls-10" d="M856,869.5c-4.8,3.2-11.6,5.7-8.9,21.8l7.7,1.9,3.9-16Z"/><path class="cls-8" d="M877.5,902.5c-3.4,5.4-8.2,11.8-12.9,12.9-3.1.8-5.6-.9-10.3-5.6-4.5-4.6-6.2-13.4-.6-22.3s12.4-14.8,22.1-8.7C886.4,885.6,883.1,893.6,877.5,902.5Z"/><path d="M875,897.2a1.08,1.08,0,1,1-.3-1.5A1.12,1.12,0,0,1,875,897.2Z"/><path class="cls-28" d="M855.5,897.1a7.46,7.46,0,1,1,8-12.6Z"/><path class="cls-21" d="M857.4,894.1a3.91,3.91,0,1,1,4.2-6.6Z"/><path class="cls-21" d="M870.9,901.4a3.26,3.26,0,1,1-1-4.5A3.17,3.17,0,0,1,870.9,901.4Z"/><path class="cls-21" d="M878.4,898.5l.6,7.6a1.19,1.19,0,0,1-1.7,1.2l-3.8-1.5Z"/><path class="cls-10" d="M862.6,886l-3.2,4.9,1.7,1.2a54.1,54.1,0,0,1,3.6-5Z"/><path class="cls-10" d="M884.7,876.5c-2.7-5.1-6.7-.9-9.1-8.2-4.6-13.9-19.1-13.5-23.6-8.2-3,3.5-11.3-.1-12.1,9.3-.8,8.5,20.3,18.1,23.4,18.5,4.1.6,8-2.4,12.3-6.5,0,0,3.6.6,7.3,7.4C886.1,888.4,888.8,884.1,884.7,876.5Z"/><path class="cls-21" d="M872.5,891.9a11.63,11.63,0,0,1,1.8.4,12.2,12.2,0,0,1,1.7.7,7.17,7.17,0,0,1,1.5,1.1,4.35,4.35,0,0,1,.6.7c.1.1.2.3.3.4l.1.2.1.1h0a.3.3,0,0,0-.4,0,.28.28,0,1,1,0,.4h-.1l-.1-.1-.2-.1a.52.52,0,0,0-.4-.2l-.7-.4a10,10,0,0,0-1.4-.8c-1-.6-2-1.1-3-1.7h0a.44.44,0,0,1-.1-.5C872.3,891.9,872.4,891.9,872.5,891.9Z"/><path class="cls-21" d="M872.1,908.5a4.35,4.35,0,0,0,.7.6,5.5,5.5,0,0,1-.7.9,7,7,0,0,1-1-.8c-1.2-1.2-1.8-2.4-1.3-2.7S870.9,907.4,872.1,908.5Z"/><path class="cls-2" d="M845.6,925.5s-2.8,4.8-11.9.1-12.9-15.1-12.9-15.1-24.9,4.1-51,44.3c-14,21.5-26.2,47-26.2,47s16,24.3,61.3,25.3c5.3-10.3,16-32,36-53.3C852.4,961.6,856.8,946.1,845.6,925.5Z"/><path class="cls-5" d="M849,933.1c6.5,13.5,3.1,49,3.1,49l-8.7-11.8C846.5,964.8,849.4,942.2,849,933.1Z"/><path class="cls-5" d="M900.4,1051.1a50.87,50.87,0,0,0-29.3-1.1s7-9.2,12.1-12.4S900.4,1051.1,900.4,1051.1Z"/><path class="cls-5" d="M797.9,934.5c.4,16.7,8.6,60.4,19.3,70l13.3-19Z"/><path class="cls-8" d="M798.1,931.8c-3.7,13.6,15.4,37.8,36.5,61.3s39.8,40.5,51.1,48.8,16.7,11.7,18.1,10c.7-.8-.7-2-2.2-3,1.7.8,3.4,1.3,4.1.6s-.7-2.2-2.2-3.4c1.7,1,3.6,1.7,4.3.7s-1.1-2.8-3.1-4.2c1.6.8,3.3,1.4,3.9.6,1.1-1.6-7.5-7.2-10.1-8.9a48.49,48.49,0,0,0,4.9,2.9,1.94,1.94,0,0,0,2.3-.8c.3-.6-.3-1-2.3-2.5-3.9-2.9-12.1-9.5-31-27.7S838,958,830.7,941.9C819.7,917.8,802,917.4,798.1,931.8Z"/><path class="cls-21" d="M837.7,996.3l7,7.6c.3-.2.5-.5.8-.7a5.22,5.22,0,0,0-.7-7.3A5.13,5.13,0,0,0,837.7,996.3Z"/><path class="cls-2" d="M842.1,1001.5c6.6-2.5,13.7-9.4,16.1-11.8-12.3-16.7-22-36-27.4-47.8-11.1-24.5-29-24.8-32.9-10.3-3.8,13.7,15.5,38.2,36.9,61.9C837.2,996.2,839.6,998.9,842.1,1001.5Z"/><path class="cls-5" d="M855.1,1186.6c-1.9-.8-8.1-2.9-11.7-4.2a3.75,3.75,0,0,1-2.1-1.6,12.23,12.23,0,0,1-4.4,1.7c-3,.6-10.6-.3-13.7-.7q.15,3,.3,5.1a3.08,3.08,0,0,0,3.1,2.9h30.8S857.8,1187.7,855.1,1186.6Z"/><path class="cls-2" d="M856.9,1188H826.2a2.92,2.92,0,0,1-2.7-1.6v.6a3.08,3.08,0,0,0,3.1,2.9h30.8A2.47,2.47,0,0,0,856.9,1188Z"/><path class="cls-5" d="M695.9,1190a4.75,4.75,0,0,0-3.2-4c-1.9-.6-4.7-5.9-6.4-9.3a4.33,4.33,0,0,1-.4-1.9c-8.2,1-12.3-4.1-17-11.6-1.5,1.2-2.8,2.3-3.9,3.1a3.42,3.42,0,0,0-.8,4.5c3.5,5.8,12.7,19.2,23,19.2Z"/><path class="cls-2" d="M688.5,1188.3c-10.2,0-19.4-13.3-23-19.2a3.52,3.52,0,0,1-.3-3l-.1.1a3.42,3.42,0,0,0-.8,4.5c3.5,5.8,12.7,19.2,23,19.2h8.6a6.71,6.71,0,0,0-.5-1.6Z"/><path class="cls-5" d="M1909.1,1158.3c4.2,5.1,6.3,6.1,10,10.2a3.5,3.5,0,0,1,.1,4.6c-4.4,5.2-15.5,17-25.6,15.4l-8.5-1.3a4.8,4.8,0,0,1,3.7-3.5c2-.3,5.5-5.1,7.7-8.2a4.09,4.09,0,0,0-.4-5.2l-8.6-9.3Z"/><path class="cls-29" d="M1802.4,1005.8c3.5,13.6,16.7,77.1,38.4,110.3a205.88,205.88,0,0,0,52.3,53.9c7.7-1.7,13.6-9.5,16-11.6,0,0-35.4-40.8-46.4-70.5-6.3-16.9-13.7-47.8-16.6-62a179.44,179.44,0,0,0,4.6-28Z"/><path class="cls-2" d="M1802.4,1005.8c3.5,13.6,16.7,77.1,38.4,110.3a205.88,205.88,0,0,0,52.3,53.9c7.7-1.7,13.6-9.5,16-11.6,0,0-35.4-40.8-46.4-70.5-6.3-16.9-13.7-47.8-16.6-62a179.44,179.44,0,0,0,4.6-28Z"/><path class="cls-5" d="M1700.6,1188.2l34.8.4a3.49,3.49,0,0,0,3.5-3.2c.3-3.9.9-14,2-22.8-8.3-.4-20.3-1.3-20.3-1.3l-.7,14.5a4.7,4.7,0,0,1-3.3,4.2c-4.1,1.4-11.1,3.7-13.3,4.6C1700.2,1185.7,1700.6,1188.2,1700.6,1188.2Z"/><path class="cls-2" d="M1718.4,1172.6l24.9,2.4c2.6-15.5,14.1-55.9,18.9-70.2,9.5-28,33.9-61,51.6-72.2,15.4-9.7,27.6-24.2,29-32.7l-45.2-26.5s-42.8,49.2-60,104.5C1725.5,1116.6,1718.4,1172.6,1718.4,1172.6Z"/><path class="cls-8" d="M1730.4,801.6s5.1-3.7,14.4,3.1c8,5.9,51.3,44.3,58.8,51,.1,7.2.2,14.4.8,21.6-18.6-3.8-53.8-51.8-57.8-56.3-4.6-5.1-6.6-8-9.2-9.9s-4.9-1.7-5-2.6,3.5-1,3.5-1c-1.1-.6-5.4-.1-5.1-1.1s4.2-1,4.2-1c-1.3-.7-4.8.2-5.1-.7s3.5-1.8,3.5-1.8Z"/><path class="cls-5" d="M1730.4,801.6s5.1-3.7,14.4,3.1c8,5.9,51.3,44.3,58.8,51,.1,7.2.2,14.4.8,21.6-18.6-3.8-53.8-51.8-57.8-56.3-4.6-5.1-6.6-8-9.2-9.9s-4.9-1.7-5-2.6,3.5-1,3.5-1c-1.1-.6-5.4-.1-5.1-1.1s4.2-1,4.2-1c-1.3-.7-4.8.2-5.1-.7s3.5-1.8,3.5-1.8Z"/><rect class="cls-2" x="1691.19" y="704.6" width="1.9" height="128.2" transform="translate(25.95 1592.13) rotate(-50.73)"/><path class="cls-3" d="M1859,886.7c-16.6-7-29.4-11.8-41.2-19.9-4.6-3.2-38.8-34.6-45.5-39.1l-9.1,13.7c6.5,6.7,56.2,53.9,64.8,57.2Z"/><path class="cls-30" d="M1867.9,910.4c-10.7,2.8-21.4-6.5-22.9-9.4-2.7-5.3-3-2-1.9-7.3,10.3-5,13.2-5.3,15.6-9.3,2.6-4.4,9.2-30.2,9.2-30.2l20.8,6.7s-6.9,25.3-7.6,29.7c-.4,2.7,2.5,9,3.3,12.8C1879.4,907.6,1874.3,908.7,1867.9,910.4Z"/><path class="cls-5" d="M1865.3,873.4a13.32,13.32,0,0,1-2.4-1c2.8-8.6,5.3-16.7,5.3-16.7l14.7,5.3C1879.1,869.9,1872.2,875.8,1865.3,873.4Z"/><path class="cls-30" d="M1862.5,845.5c-3,5.6-6.1,13-4.8,17.6.9,3.1,3.6,4.5,10,6.1s14.7-1.3,19.6-10.6,6.6-18.1-3.5-23.5C1872.7,829.3,1867.4,836.1,1862.5,845.5Z"/><path class="cls-31" d="M1903.5,850.8c4.1,11.5-7.8,13.5-5.4,23-8.4,5.6-25.4,2.6-16.2-13.3l11.9-11.4Z"/><path d="M1868.3,844.9a1,1,0,1,0,1.4-.4A1,1,0,0,0,1868.3,844.9Z"/><path class="cls-30" d="M1878.2,861.8a7.47,7.47,0,1,0,7-13.2Z"/><path class="cls-21" d="M1879.8,858.7a3.91,3.91,0,1,0,3.7-6.9Z"/><path class="cls-21" d="M1866.7,850.6a3.26,3.26,0,1,0,4.4-1.4A3.28,3.28,0,0,0,1866.7,850.6Z"/><path class="cls-21" d="M1865.5,842.6l-6.9,3.2a1.26,1.26,0,0,0-.2,2.1l3.2,2.6Z"/><path class="cls-31" d="M1884.2,850.1l-2.7,5.3-1.9-.9a38.66,38.66,0,0,0,2.5-5.6Z"/><path class="cls-31" d="M1872.3,822.4c5.2-2.4,4.1,4.9,11.6,3.5,10.6-2,18.6,6.2,17.3,13.1-.8,4.5,10.3,10.7,2,18.7-6.1,5.9-20.5-3.5-22.5-5.9-2.6-3.3-4-5.5-2.5-11.2,0,0,1.2-6.8-6.5-6.6C1867.8,832.7,1864.3,826,1872.3,822.4Z"/><path class="cls-21" d="M1873.7,844.9a29.1,29.1,0,0,1-3-1.7c-.5-.3-1-.6-1.4-.8l-.7-.4c-.1-.1-.2-.1-.4-.2l-.2-.1-.1-.1h-.1c-.1,0-.3-.3-.2-.4s.2-.3.4-.3.3.2.3.4c.1-.1-.1-.3-.2-.3h.8c.3.1.6.1.9.2a13,13,0,0,1,1.7.8,14.31,14.31,0,0,1,1.5,1.1,4.89,4.89,0,0,1,1.2,1.3c.1.1.1.3-.1.5s-.2.1-.4,0Z"/><path class="cls-21" d="M1860,853.1a6.89,6.89,0,0,1-.8-.3c-.1.3-.3.7-.4,1,.4.2.8.3,1.2.5,1.6.5,2.9.4,3-.2C1862.9,853.5,1861.6,853.6,1860,853.1Z"/><path class="cls-2" d="M1859.2,883.4s-3.6,5.6,4,9.1c8.2,3.8,19.4,1.6,19.4,1.6s11.4,26.1-13.5,70c-12.7,22.3-18.5,38.5-18.5,38.5s-33.9,0-63.7-25.5c10.3-30.7,24.8-37.6,33.9-65.4C1826.2,895.1,1835.5,885.6,1859.2,883.4Z"/><path class="cls-5" d="M1864.3,922.5c-14.9,7.6-42.3,20.1-57.3,16.9,6.2-6.7,14.2-27.3,15.9-33.2Z"/><path class="cls-30" d="M1862.7,923.1c-13.5,4-38.1-14.7-62-35.4s-55-51.5-63.6-62.6-12-16.5-10.4-17.9c.8-.7,2,.6,3.1,2.1-.8-1.6-1.4-3.4-.6-4s2.2.7,3.4,2.1c-1-1.6-1.8-3.5-.8-4.3s2.8,1.1,4.2,3c-.9-1.6-1.5-3.3-.6-3.8,1.6-1.1,7.4,7.3,9.1,9.9-.8-1.2-2.3-3.6-2.9-4.8a1.83,1.83,0,0,1,.8-2.3c.6-.3,1,.3,2.5,2.2,3,3.8,9.7,11.9,28.3,30.5s62.6,45.9,78.9,52.9C1876.4,901.2,1877,918.9,1862.7,923.1Z"/><path class="cls-2" d="M1757.8,848.4c2.4-6.7,9.7-11.8,12.1-14.2,19.7,20.4,70.2,51.3,82.2,56.4,24.7,10.6,25.3,28.5,10.9,32.7-13.6,4-38.5-14.8-62.5-35.7C1797.6,885.2,1761.2,852.9,1757.8,848.4Z"/><path class="cls-3" d="M1703.3,1184.5c2.2-.9,9.2-3.2,13.3-4.6a4.63,4.63,0,0,0,2.4-1.7,15.07,15.07,0,0,0,4.9,2c3.4.7,12-.2,15.5-.6-.2,2.3-.3,4.2-.4,5.7a3.42,3.42,0,0,1-3.5,3.2l-34.8-.4C1700.6,1188.2,1700.2,1185.7,1703.3,1184.5Z"/><path class="cls-32" d="M1701.2,1186.1l34.7.4a3.53,3.53,0,0,0,3.1-1.8v.6a3.42,3.42,0,0,1-3.5,3.2l-34.8-.4C1700.6,1188.2,1700.4,1187.1,1701.2,1186.1Z"/><path class="cls-3" d="M1885,1187.1a4.8,4.8,0,0,1,3.7-3.5c2-.3,5.5-5.1,7.7-8.2a4.49,4.49,0,0,0,.7-1.8c8,2.3,12.8-2.1,18.6-8.9,1.3,1.4,2.4,2.7,3.3,3.7a3.5,3.5,0,0,1,.1,4.6c-4.4,5.2-15.5,17-25.6,15.4C1886.8,1187.4,1885.3,1187.2,1885,1187.1Z"/><path class="cls-32" d="M1892.6,1186.7c10.1,1.6,21.3-10.2,25.7-15.4a3.45,3.45,0,0,0,.8-2.9l.1.1a3.5,3.5,0,0,1,.1,4.6c-4.4,5.2-15.5,17-25.6,15.4-6.7-1-8.2-1.3-8.5-1.3a6.56,6.56,0,0,1,.7-1.5C1887,1185.8,1889.1,1186.1,1892.6,1186.7Z"/><path class="cls-5" d="M1316.2,1028.3a19,19,0,0,0-18.9,18.9V1190h37.8V1047.3A19,19,0,0,0,1316.2,1028.3Z"/><path class="cls-1" d="M585.2,563.8c40.5-17,.1,0,0,0-.5,0-3.3-1.3-3.3-1.8L556.7,231.9a1,1,0,0,1,1-.9.92.92,0,0,1,.9,1l23.3,330C581.9,562.5,585.8,563.8,585.2,563.8Z"/><path class="cls-33" d="M559.9,217.8c-2.7,1.6-6,7.6-6,7.6s5.5,10.7,6,10.5,5.2-5.8,7.8-9.1Z"/><path class="cls-34" d="M551.2,219.4c5,2.9,11,6.8,10.8,11.3a55.76,55.76,0,0,1-1.3,9.1l-16.5-11Z"/><path class="cls-2" d="M528.4,110.7c1.6-1.3,4.8.1,4.8.1l-4.2,2.5Z"/><path class="cls-35" d="M515.5,347.6s-1.6,4.7-.8,6,2.4,1,12.3,1,20.7,1.1,21.2-.6-2.7-2.3-7.6-3.7-6.5-3.7-6.5-3.7Z"/><path class="cls-2" d="M547.7,352.7c-1.8,1.3-11.8.3-20.9.3-9.9,0-11.5.3-12.3-1v-.1a3,3,0,0,0,.2,1.7c.8,1.3,2.4,1,12.3,1s20.7,1.1,21.2-.6A1.23,1.23,0,0,0,547.7,352.7Z"/><path class="cls-35" d="M442,343.7s-2.5,4.1-1.9,5.5,2.5.3,11.8,3.6c7.6,2.8,20.9,2.5,21.8,1.1,1.7-2.8-3-1.6-7.6-3.8s-5.5-5-5.5-5Z"/><path class="cls-2" d="M473.8,352.3c-2.1,1.2-14.3,1.3-21.6-1.3-9.3-3.4-11.1-2.2-11.8-3.6,0-.1-.1-.2-.1-.3a2.68,2.68,0,0,0-.2,2.1c.6,1.4,2.5.3,11.8,3.6,7.6,2.8,20.9,2.5,21.8,1.1C474.2,353.1,474.2,352.6,473.8,352.3Z"/><path class="cls-2" d="M515.3,197.3c9.4,33,13.3,45.3,18.1,87s2.4,63.3,2.4,63.3c-4.4,1.4-17.5,1.4-22,.6,0,0-3.1-41-6.6-64.6S482,199.9,482,199.9Z"/><path class="cls-2" d="M467.8,171.2c-14.2,24.2-13.3,42.4-12.9,91.4.3,46.2-13.5,81.4-13.5,81.4,4.7,2.3,17.1,6.3,23.4,4.8,0,0,19.5-42.2,21.5-84.3,2-42.6,1-62.1,1-62.1l26.4-2.9Z"/><path class="cls-5" d="M502.1,120.8c-15.5,14.3-27.3,36.7-34.3,50.3,0,0,10.7,15.8,29.1,23s19.2,5.1,19.2,5.1,22.6-35.9,34.9-47.3c0,0-5.6-14.1-23.3-19.9S502.1,120.8,502.1,120.8Z"/><path class="cls-5" d="M495.9,132.4c-4.6,14.1-3.9,59.4-3.9,59.4s16.2,7.3,21.6,7.8l14.3-18.2s-9.2-20.5-12.6-35.5S495.9,132.4,495.9,132.4Z"/><path class="cls-5" d="M524.4,113.7c-24.7,1.7-29.4,12.1-30.1,28.6-.7,16.7,2.8,38,17.5,60.1a77.92,77.92,0,0,0,33.7,28.4l8-12.1a100.77,100.77,0,0,1-25.2-24.2c-14.1-19.4-12.9-48.6-12.9-48.6l31.7,4.8a51.63,51.63,0,0,1,19.1,28.8c4.8,19.4-7.1,37.5-7.1,37.5l8,12.1s11.8-6.5,14.5-32.3c3-28.6-11.2-54.6-23.2-65.6S524.4,113.7,524.4,113.7Z"/><path class="cls-36" d="M542.9,126.9a5.18,5.18,0,0,1,.8-3.9c1.7-3.3,15.4-16.4,15.4-16.4L547.6,96.2s-13.2,13.3-15.6,15.2c-1.5,1.2-5.3,1.6-7.9,2.5C523.1,118.4,532.6,129.2,542.9,126.9Z"/><path class="cls-5" d="M545.6,117.7a14.31,14.31,0,0,0,1.5,1.1c4.3-4.8,8.4-9.2,8.4-9.2l-8.5-7.2C542.8,108,541.6,114.3,545.6,117.7Z"/><path class="cls-33" d="M548.5,89c-4,6.1-8.7,17.9-2.3,24,10.7,10.3,18.1-2.8,23.4-11.2Z"/><path class="cls-2" d="M548.5,89s10.1,12.8,26.6,15.8c10.4,1.9,12.9-14.9,2.2-17.5,0,0-2.9-6.9-10.3-9C554.9,74.9,548.5,89,548.5,89Z"/><path class="cls-2" d="M544.4,96.4l3.9-.5,4-5.2-1.1-6.1s-2.9,3.9-4.2,6.1A58.87,58.87,0,0,0,544.4,96.4Z"/><polygon class="cls-2" points="553.7 93.4 551.9 95.9 553.3 96.6 555.7 94.5 553.7 93.4"/><path d="M558.9,100.3a.65.65,0,1,1-.2-.9A.65.65,0,0,1,558.9,100.3Z"/><path class="cls-37" d="M555.4,102.5a2.11,2.11,0,1,1-.7-2.9A2.11,2.11,0,0,1,555.4,102.5Z"/><path class="cls-36" d="M563.2,103.1V108a.74.74,0,0,1-1.1.7l-2.4-1.2Z"/><path class="cls-33" d="M549.6,99.4a4.81,4.81,0,1,1,5.5-7.9Z"/><path class="cls-37" d="M550.8,97.5a2.51,2.51,0,1,1,2.9-4.1Z"/><path class="cls-5" d="M524.1,113.8c3-2.2,4.4-3.2,4.4-3.2s2.2,6.5,5.2,9.8a96,96,0,0,0,7.2,6.9s-9.3.5-14.2-3.6C521.6,119.7,524.1,113.8,524.1,113.8Z"/><path class="cls-2" d="M540.7,127.5l4.4-6.4,1.5,2.3s-1.6,3-3.8,3.6S540.7,127.5,540.7,127.5Z"/><path class="cls-8" d="M821.7,265.7c-3.9,26.6-5.1,76.5-5.1,76.5l14.1,1.6s7.9-57.4,11.5-76.2Z"/><path class="cls-8" d="M893.4,265.3c4.3,26.5,6.1,76.4,6.1,76.4l-14.1,1.8s-8.7-57.3-12.6-76.1Z"/><path class="cls-21" d="M836.4,272.5a4.8,4.8,0,1,1-4.8-4.8A4.94,4.94,0,0,1,836.4,272.5Z"/><path class="cls-21" d="M888.4,272.5a4.8,4.8,0,0,1-4.8,4.8,4.74,4.74,0,0,1-4.8-4.8,4.8,4.8,0,1,1,9.6,0Z"/><path class="cls-2" d="M824.4,179.2c-4.5,28.8-7.4,89.2-7.4,89.2s4.8,3.6,16.2,3.9,14.5-1.3,14.5-1.3l8.9-73a.5.5,0,0,1,1,0l7.9,71.3s3.9,2.3,16.5,1.6,14.5-5.5,14.5-5.5-1-58.8-11-82.8Z"/><path class="cls-2" d="M827.2,127s-5.3,28.5-6.1,51.8c0,0,19.6,17.3,37.8,15.8a35.9,35.9,0,0,0,26.5-14.5l-6.9-59.2Z"/><path class="cls-5" d="M833.7,129.2c1,9.1,4.6,35.4,6.7,41s14.3,32,14.3,32-21.6-26.9-23.6-36S833.7,129.2,833.7,129.2Z"/><path class="cls-5" d="M874.4,126.7s11.2,18.6,10.7,28.1-4.2,27.4-7.2,34.7S866.3,206,866.3,206s6.5-21.7,9-40.1S874.4,126.7,874.4,126.7Z"/><path class="cls-8" d="M815.1,148.9c1.9,26.7,22.7,56.2,39.2,65.6s8.4-6.1,5.3-7.6-12.2-13-19.9-29.4-7.3-28.9-7.3-28.9Z"/><path class="cls-8" d="M881.6,150.3c.2,14.8-4.6,46.6-17.5,58s4.4,9.9,11.4,2.9,20.6-27.6,21.6-61.1Z"/><path class="cls-2" d="M819,116.4c3.7-9.5,22.1-17.5,37.1-17.7s33,7.3,36.4,19.4,6.1,24.7,6.3,33.2c0,0-9.7,3.2-18.2,1.2,0-6.6-3.7-21.7-6.5-26.2H835.3c-1.6,5.8-1.8,20.6-1.5,25.5,0,0-10.4,2.7-19.4.5C814.4,152.2,812.5,133.3,819,116.4Z"/><path class="cls-8" d="M848.1,90.9c-.2,3.3-.3,8.1-1.7,11.6,0,0,7.9,8.1,10.9,8.1s9.7-8.5,9.7-8.5-1.4-.8-1.6-3.6,0-6.7,0-6.7Z"/><path class="cls-5" d="M865.3,97.3a78.23,78.23,0,0,1,.9-13.3H848.5s-.2,5.7-.7,11.9c1.9,2.7,4.7,6,8.9,6.1C861.3,102.1,863.6,99.5,865.3,97.3Z"/><path class="cls-38" d="M869.7,81c0,9-5.4,16.2-12.6,16.2S844.5,89.9,844.5,81s5.6-16.2,12.6-16.2S869.7,72,869.7,81Z"/><path d="M850.9,85.4a.65.65,0,1,1-.2-.9C851,84.6,851.1,85,850.9,85.4Z"/><path d="M863.9,85.7a.65.65,0,1,1-.2-.9C864.1,84.9,864.1,85.4,863.9,85.7Z"/><path class="cls-21" d="M850.3,89.1a2.11,2.11,0,1,1-.7-2.9A2.11,2.11,0,0,1,850.3,89.1Z"/><path class="cls-21" d="M867.7,89.6a2.11,2.11,0,1,1-.7-2.9A2.11,2.11,0,0,1,867.7,89.6Z"/><path class="cls-21" d="M857.9,85.7l1.7,4.6a.73.73,0,0,1-.8,1l-2.6-.3Z"/><path class="cls-21" d="M845.5,86.3a4.8,4.8,0,0,1-.2-9.6Z"/><path class="cls-22" d="M845.4,84a2.55,2.55,0,0,1-.1-5.1Z"/><path class="cls-5" d="M846.8,75.4c2.6,6.1,6.6,10.1,9.5,10.6a4.28,4.28,0,0,0,4.1-1.1s2.9,3.4,5.5,3.6,2.7-.2,2.7-.2a43,43,0,0,0,1.8-7.9C870.5,77.3,846.8,75.4,846.8,75.4Z"/><path class="cls-21" d="M868.8,86.4a4.8,4.8,0,1,0,.2-9.6Z"/><path class="cls-22" d="M868.9,84.2a2.55,2.55,0,1,0,.1-5.1Z"/><path class="cls-2" d="M859.7,80c4.9,3.6,8.9,3.6,10.8,1.2,2.7-3.6,2.8-14.5-2.9-19.1-3.3-2.6-5.3-4.8-8.4-4.8-4.1-.1-5.7.7-10.8,3.8s-4.7,12.5-4.8,15.8l1.3.3.3,4.8s.9,1.1,1,.8.6-7.4.6-7.4,5.1,6.1,8.6,6.3C858.7,81.9,859.7,80,859.7,80Z"/><path class="cls-5" d="M816.3,337.8a13,13,0,0,0,7.6,2.1,14.54,14.54,0,0,0,7.8-2.1l-.3,13.6-18.6-.6C814.4,347.6,816.1,339.4,816.3,337.8Z"/><path class="cls-5" d="M813.9,346.6c4.5-1.5,6-2.1,10.4-2.3,5.2-.2,7,2.5,7,2.5l.4,5.1a2.78,2.78,0,0,1-2.8,3H812.3a1.64,1.64,0,0,1-1.5-2.3Z"/><path class="cls-2" d="M829.3,353.1H812.7a1.64,1.64,0,0,1-1.5-1l-.2.5a1.62,1.62,0,0,0,1.5,2.3H829a2.84,2.84,0,0,0,2.8-3v-.4A2.92,2.92,0,0,1,829.3,353.1Z"/><path class="cls-5" d="M899.6,337.8a13,13,0,0,1-7.6,2.1,14.54,14.54,0,0,1-7.8-2.1l.3,13.6,18.6-.6C901.5,347.6,899.8,339.4,899.6,337.8Z"/><path class="cls-5" d="M902.1,346.6c-4.5-1.5-6-2.1-10.4-2.3-5.2-.2-7,2.5-7,2.5l-.4,5.1a2.78,2.78,0,0,0,2.8,3h16.6a1.64,1.64,0,0,0,1.5-2.3Z"/><path class="cls-2" d="M886.7,353.1h16.6a1.64,1.64,0,0,0,1.5-1l.2.5a1.62,1.62,0,0,1-1.5,2.3H887a2.84,2.84,0,0,1-2.8-3v-.4A2.92,2.92,0,0,0,886.7,353.1Z"/><path class="cls-1" d="M889.4,552.8a1,1,0,0,1-1-.7L861.3,211a.88.88,0,0,1,.9-.8c.5,0,1,.3,1,.7L890.4,552a.92.92,0,0,1-1,.8Z"/><path class="cls-2" d="M1771.4,327a16.5,16.5,0,0,1,0-33,6.6,6.6,0,0,1,1.4.1,24.77,24.77,0,0,1,46.8.1,13.4,13.4,0,0,1,2-.1,16.33,16.33,0,0,1,7.3,1.7,21.28,21.28,0,1,1,18.7,31.4h-76.2V327Z"/><path class="cls-2" d="M297.3,290.7a31.5,31.5,0,0,0,0-63,32.27,32.27,0,0,0-10.8,1.9,48.75,48.75,0,0,0-93.7-2,34,34,0,1,0-17.4,63.2l121.9-.1Z"/><path class="cls-2" d="M1074.9,105.4a16,16,0,0,0,0-32,16.75,16.75,0,0,0-5.5,1,24.71,24.71,0,0,0-47.5-1,17.58,17.58,0,0,0-8.8-2.4,17.2,17.2,0,0,0,0,34.4Z"/><path class="cls-10" d="M245.7,842v62.6a15.08,15.08,0,0,0,7.5,13l54.2,31.3a14.9,14.9,0,0,0,15,0l54.2-31.3a15.08,15.08,0,0,0,7.5-13V842a15.08,15.08,0,0,0-7.5-13l-54.2-31.3a14.9,14.9,0,0,0-15,0L253.2,829A15.08,15.08,0,0,0,245.7,842Z"/><path class="cls-39" d="M249.2,915.3l62.2,35.9c1.9,1.1,3.5.2,3.5-2V877.4a7.74,7.74,0,0,0-3.5-6l-62.2-35.9c-1.9-1.1-3.5-.2-3.5,2v71.8A7.74,7.74,0,0,0,249.2,915.3Z"/><path class="cls-40" d="M319.8,873.8a.55.55,0,0,1-.5-.3c-.1-.3-.1-.6.2-.7l59.8-34.5c.3-.1.6-.1.7.2s.1.6-.2.7L320,873.7C320,873.8,319.9,873.8,319.8,873.8Z"/><path class="cls-8" d="M156.8,830.5c-.7,12.9,17.3,35.6,40.9,52.5s43.7,28.4,55.5,33.7,17.3,7.2,18.2,5.4c.4-.9-1-1.7-2.6-2.3,1.6.4,3.3.5,3.8-.3s-1.1-1.8-2.6-2.6c1.7.5,3.5.8,4-.2s-1.5-2.3-3.6-3.1c1.6.4,3.2.6,3.6-.3.6-1.6-8.1-5-10.8-6,1.2.4,3.7,1.3,5,1.6a1.72,1.72,0,0,0,1.9-1.2c.1-.6-.5-.9-2.5-1.8-4.1-1.8-13.8-5.1-34.4-17.6s-43.5-32.8-51.8-46.8c-1.2-2-3.1-5.6-4.2-7.6C171.4,829.7,157.5,816.8,156.8,830.5Z"/><path class="cls-21" d="M199.3,884q3.9,2.85,7.8,5.4a2.18,2.18,0,0,0,.5-.8,4.72,4.72,0,0,0-2.1-6.4A4.77,4.77,0,0,0,199.3,884Z"/><path class="cls-31" d="M250.9,898.4a56,56,0,0,1-6.5,13.9c1,.5,2,1.1,3,1.5a37,37,0,0,0,2.5-4.3,87.66,87.66,0,0,0,4-9.6Q252.55,899.3,250.9,898.4Z"/><path class="cls-3" d="M989.24,816.91A90.3,90.3,0,0,1,926,791.76a86.13,86.13,0,0,1-26.31-62.49c0-48.39,38.69-86.87,88.08-87.62h62.93v17.52H988c-39.69.64-70.76,31.41-70.76,70.1,0,39.32,31.63,70.12,72,70.12s72-30.8,72-70.12V571.56c0-49.15,39.33-87.64,89.55-87.64a90.29,90.29,0,0,1,63.23,25.15,86.16,86.16,0,0,1,26.31,62.49c0,48.37-38.69,86.86-88.08,87.61h-62.94V641.66h62.74c39.68-.64,70.76-31.42,70.76-70.1,0-39.32-31.64-70.12-72-70.12s-72,30.8-72,70.12V729.27C1078.8,778.41,1039.46,816.91,989.24,816.91Z"/><path class="cls-10" d="M989.24,785.05A90.25,90.25,0,0,1,926,759.9a86.11,86.11,0,0,1-26.31-62.48c0-48.39,38.69-86.87,88.08-87.62h62.93v17.52H988c-39.69.63-70.76,31.41-70.76,70.1,0,39.31,31.63,70.12,72,70.12s72-30.81,72-70.12V539.7c0-49.14,39.33-87.63,89.55-87.63a90.33,90.33,0,0,1,63.23,25.14,86.19,86.19,0,0,1,26.31,62.49c0,48.38-38.69,86.87-88.08,87.62h-62.94V609.8h62.74c39.68-.64,70.76-31.42,70.76-70.1,0-39.31-31.64-70.11-72-70.11s-72,30.8-72,70.11V697.42C1078.8,746.56,1039.46,785.05,989.24,785.05Z"/><path class="cls-5" d="M989.24,753.2A90.25,90.25,0,0,1,926,728.05a86.12,86.12,0,0,1-26.31-62.49c0-48.38,38.69-86.86,88.08-87.61h62.93v17.52H988c-39.69.63-70.76,31.41-70.76,70.09,0,39.32,31.63,70.12,72,70.12s72-30.8,72-70.12V507.85c0-49.14,39.33-87.64,89.55-87.64a90.29,90.29,0,0,1,63.23,25.15,86.17,86.17,0,0,1,26.31,62.49c0,48.38-38.69,86.86-88.08,87.62h-62.94V578h62.74c39.68-.64,70.76-31.42,70.76-70.1,0-39.32-31.64-70.12-72-70.12s-72,30.8-72,70.12V665.56C1078.8,714.71,1039.46,753.2,989.24,753.2Z"/><path class="cls-3" d="M649.24,816.91A90.3,90.3,0,0,1,586,791.76a86.13,86.13,0,0,1-26.31-62.49c0-48.39,38.69-86.87,88.08-87.62h62.93v17.52H648c-39.69.64-70.76,31.41-70.76,70.1,0,39.32,31.63,70.12,72,70.12s72-30.8,72-70.12V571.56c0-49.15,39.33-87.64,89.55-87.64a90.29,90.29,0,0,1,63.23,25.15,86.16,86.16,0,0,1,26.31,62.49c0,48.37-38.69,86.86-88.08,87.61H749.35V641.66h62.74c39.68-.64,70.76-31.42,70.76-70.1,0-39.32-31.64-70.12-72-70.12s-72,30.8-72,70.12V729.27C738.8,778.41,699.46,816.91,649.24,816.91Z"/><path class="cls-10" d="M649.24,785.05A90.25,90.25,0,0,1,586,759.9a86.11,86.11,0,0,1-26.31-62.48c0-48.39,38.69-86.87,88.08-87.62h62.93v17.52H648c-39.69.63-70.76,31.41-70.76,70.1,0,39.31,31.63,70.12,72,70.12s72-30.81,72-70.12V539.7c0-49.14,39.33-87.63,89.55-87.63a90.33,90.33,0,0,1,63.23,25.14,86.19,86.19,0,0,1,26.31,62.49c0,48.38-38.69,86.87-88.08,87.62H749.35V609.8h62.74c39.68-.64,70.76-31.42,70.76-70.1,0-39.31-31.64-70.11-72-70.11s-72,30.8-72,70.11V697.42C738.8,746.56,699.46,785.05,649.24,785.05Z"/><path class="cls-5" d="M649.24,753.2A90.25,90.25,0,0,1,586,728.05a86.12,86.12,0,0,1-26.31-62.49c0-48.38,38.69-86.86,88.08-87.61h62.93v17.52H648c-39.69.63-70.76,31.41-70.76,70.09,0,39.32,31.63,70.12,72,70.12s72-30.8,72-70.12V507.85c0-49.14,39.33-87.64,89.55-87.64a90.29,90.29,0,0,1,63.23,25.15,86.17,86.17,0,0,1,26.31,62.49c0,48.38-38.69,86.86-88.08,87.62H749.35V578h62.74c39.68-.64,70.76-31.42,70.76-70.1,0-39.32-31.64-70.12-72-70.12s-72,30.8-72,70.12V665.56C738.8,714.71,699.46,753.2,649.24,753.2Z"/></svg>