<svg xmlns="http://www.w3.org/2000/svg" version="1.1" xmlns:xlink="http://www.w3.org/1999/xlink" xmlns:svgjs="http://svgjs.com/svgjs" width="214.8" height="209.2"><svg version="1.1" id="SvgjsSvg1000" xmlns="http://www.w3.org/2000/svg" xmlns:xlink="http://www.w3.org/1999/xlink" x="0px" y="0px" viewBox="0 0 214.8 209.2" style="enable-background:new 0 0 214.8 209.2;" xml:space="preserve">
<style type="text/css">
	.st0{fill:#0D0E12;}
</style>
<g>
	<path class="st0" d="M162,104.7c-18.2,0-36.3,0-54.5,0c0-17.4,0-34.9,0-52.3c0-29.7,24-52.4,53.6-52.4c29.6,0,53.6,22.7,53.6,52.4
		C214.8,81.7,191.3,104.2,162,104.7z"></path>
	<path class="st0" d="M52.7,104.5c18.2,0,36.3,0,54.5,0c0,17.4,0,34.9,0,52.3c0,29.6-24,52.4-53.6,52.4C24,209.2,0,186.5,0,156.9
		C0,127.5,23.5,105,52.7,104.5z"></path>
</g>
</svg><style>@media (prefers-color-scheme: light) { :root { filter: none; } }
</style></svg>