<?xml version="1.0" encoding="utf-8"?>
<!-- Generator: Adobe Illustrator 16.0.0, SVG Export Plug-In . SVG Version: 6.00 Build 0)  -->
<!DOCTYPE svg PUBLIC "-//W3C//DTD SVG 1.1//EN" "http://www.w3.org/Graphics/SVG/1.1/DTD/svg11.dtd">
<svg version="1.1" id="Layer_1" xmlns="http://www.w3.org/2000/svg" xmlns:xlink="http://www.w3.org/1999/xlink" x="0px" y="0px"
	 width="850.389px" height="850.391px" viewBox="0 0 850.389 850.391" enable-background="new 0 0 850.389 850.391"
	 xml:space="preserve">
<path id="Path_430" fill="#AD9DE3" d="M936.784,378.421c0,1.082-0.885,1.966-1.967,1.966c-1.081,0-1.966-0.885-1.966-1.966
	s0.885-1.966,1.966-1.966C935.852,376.455,936.737,377.339,936.784,378.421L936.784,378.421z"/>
<path fill="#AD9DE3" d="M729.827,436.329c20.255,1.229,39.818,83.226,19.123,131.302c-20.694,48.077-61.497,68.232-103.38,68.773
	c-41.883,0.54-40.851-5.703-40.851-5.703l72.9-150.424C677.621,480.277,704.463,434.757,729.827,436.329z"/>
<path fill="#0D0E12" d="M661.597,553.67l61.497,9.586c0,0-3.344,20.696-23.006,25.857c-19.663,5.162-67.445,3.098-67.445,3.098
	L661.597,553.67z"/>
<path fill="#AD9DE3" d="M382.918,696.721c13.075,43.407,48.962,59.285,102.691,48.962c53.778-10.322,71.673-48.224,66.854-81.355
	C547.698,631.242,382.918,696.721,382.918,696.721z"/>
<path fill="#0D0E12" d="M254.369,647.415c16.565-7.914,22.761-12.044,22.761-12.044l61.349,39.622c0,0-21.384,16.223-38.589,25.513
	c-17.254,9.291-38.245,18.632-38.245,18.632l-22.76-45.472L254.369,647.415z"/>
<path fill="#CCECEF" d="M82.413,493.402c-14.501,28.658-0.886,63.463,31.707,70.001c32.642,6.538,86.813-17.305,86.813-17.305
	l-28.267-54.467L82.413,493.402z"/>
<path fill="#AD9DE3" d="M73.073,323.265c-13.125,21.286-7.423,58.843,18.092,81.554c25.513,22.711,60.268,33.673,81.554,35.099
	c21.285,1.426,6.39-94.335,4.62-95.367C175.52,343.519,73.073,323.265,73.073,323.265z"/>
<path fill="#AD9DE3" d="M157.97,199.534c-15.092,19.221-15.189,71.083-12.486,88.436c2.704,17.354,47.733,43.407,47.733,43.407
	l53.729-73.246c0,0-22.81-24.432-22.269-40.162s-8.16-46.651-34.165-38C164.508,188.67,163.967,191.914,157.97,199.534z"/>
<path fill="#0D0E12" d="M168.392,226.423c-7.473,14.453-19.663,42.128-6.979,58.154c12.683,16.026,31.265,23.792,31.265,23.792
	l44.438-55.844l-20.399-12.388l-2.312-9.045L168.392,226.423z"/>
<path fill="#CCECEF" d="M184.908,303.258c-6.637-14.354-38.54-26.84-61.447-28.463c0,0-25.269-3.195-39.622,16.468
	c-10.471,14.354-23.399,44.145-3.736,63.316c19.664,19.172,47.881,40.163,72.312,51.321c24.479,11.158,27.381-80.325,27.381-80.325
	s-1.771-1.229-4.475-3.245C182.5,315.597,187.366,308.567,184.908,303.258z"/>
<path fill="#CCECEF" d="M71.304,339.586c2.458,15.977,27.676,54.615,44.488,54.959c16.812,0.344,20.204-19.319,20.204-19.319
	l-23.006-16.517l-6.784,4.129L71.304,339.586z"/>
<g>
	<path fill="#F7B6B6" d="M166.867,307.682c7.619-0.197,15.238,3.195,15.092,9.389c-0.196,6.194-32.444,35.836-40.949,38.835
		c-8.504,2.999,10.471-40.261,11.356-40.604C153.201,314.958,166.867,307.682,166.867,307.682z"/>
	<path fill="#F9C9C9" d="M112.99,358.708c1.081,9.291,8.356,19.712,18.237,19.172c13.961-0.787,22.072-53.583,26.35-59.973
		c4.276-6.391,13.175-11.454,13.175-11.454l-2.949-1.18c0,0,0.245-2.261-1.721-2.409c0,0-0.395-1.475-2.409-1.573
		c0,0-2.017-0.688-3.981-0.246c-2.016,0.393-10.225,2.015-15.043,7.57C139.83,314.171,112.99,358.708,112.99,358.708z"/>
	<path fill="#F7B6B6" d="M108.271,348.828c-5.407,3.54-10.027,9.586-9.291,10.471c0.737,0.885,4.425-2.311,4.425-2.311
		s-4.276,4.277-2.999,5.85c1.229,1.573,5.311-4.769,5.311-4.769s-2.458,4.621-0.885,5.506c1.571,0.885,4.08-5.653,4.08-5.653
		s-1.771,6.046,0.195,5.85c1.968-0.196,3.981-5.063,3.981-5.063l8.604-14.01C121.642,344.649,112.351,346.173,108.271,348.828z"/>
</g>
<path fill="#F8C3C3" d="M77.203,270.961c3.734,10.913,5.997,22.613,5.997,22.613s11.307,1.327,18.729-1.18
	c7.423-2.507,7.718-4.67,7.718-4.67l-8.259-16.763H77.203z"/>
<path fill="#F9CECE" d="M82.954,236.648c0,0,9.979,2.654,16.763,1.327c6.784-1.327,10.127-1.721,10.127-1.721s0,16.616-0.786,23.399
	c-0.787,6.784-1.082,16.911-7.718,19.565c-6.637,2.655-19.812,1.082-24.088-8.258c-4.277-9.291-4.13-24.727-2.802-29.79
	C75.778,236.107,82.954,236.648,82.954,236.648z"/>
<path fill="#0D0E12" d="M205.113,165.958c-17.599,4.67-28.412,8.013-33.624,28.955c-5.16,20.941-3.638,32.837-3.638,32.837
	s7.228,8.259,25.611,7.767c18.386-0.492,21.729-2.311,21.729-2.311s12.389-7.226,17.305-17.058s1.817-14.453-1.032-21.974
	c-2.95-7.767-12.685-25.611-12.685-25.611L205.113,165.958z"/>
<path fill="#AD9DE3" d="M767.877,276.27c4.325,11.355,3.688,60.464-33.183,87.698c-36.87,27.234-74.426,33.33-74.426,33.33
	s-39.277-92.467-38.245-92.811c1.032-0.344,46.604-41.342,53.484-55.5c6.882-14.108,33.428-29.298,61.005-15.829
	C764.092,246.627,764.092,266.242,767.877,276.27z"/>
<path fill="#8F8479" d="M698.466,341.306c-11.65,8.799-21.826,14.748-26.841,17.55c-1.327,0.393-2.605,0.787-3.639,1.082
	l-34.804-69.362c0,0,3.244-1.721,7.767-4.375l16.812,25.808C671.034,327.739,689.37,337.275,698.466,341.306z"/>
<path fill="#0D0E12" d="M713.262,230.602c-0.245-1.032-13.42-33.624-13.42-33.624l34.361,8.259l35.395,43.947l-24.137-4.67
	l-8.455,45.472c0,0,69.805-7.472,65.676-38c-4.13-30.479-48.323-49.65-48.323-49.65s-42.374-41.342-65.676-28.414
	c-23.251,12.929-2.852,75.753-2.852,75.753L713.262,230.602z"/>
<path fill="#0D0E12" d="M757.995,264.423c-0.639,11.355-15.927,30.527-26.446,44.488c-26.742-2.9-52.797-28.807-59.974-47.93
	c9.881-13.076,21.777-32.248,21.777-32.248c14.452-4.129,25.709,3.638,37.508,6.98C746.346,240.139,759.029,246.873,757.995,264.423
	z"/>
<path fill="#0D0E12" d="M731.549,308.911c-5.751,7.668-9.979,14.256-16.714,21.924c-3.639,4.129-9.587,9.537-13.716,12.683
	c-9.095-4.031-30.085-15.78-43.406-31.56l-16.812-25.808c6.783-3.982,16.468-10.028,22.22-15.289
	c2.311-2.114,5.261-5.702,8.455-9.881C678.753,280.104,704.807,306.011,731.549,308.911z"/>
<path fill="#F6B1B1" d="M745.609,220.377l-17.992-5.998l-13.174,20.991c0,0,3.785,4.228,10.716,7.03
	c6.98,2.802,11.11,1.475,11.11,1.475"/>
<g>
	<path fill="#F5A7A7" d="M723.389,214.724c-4.229-0.344-7.521-2.802-7.128-7.669c0.345-4.719,3.98-6.784,8.259-6.489
		L723.389,214.724z"/>
	<path fill="#F39797" d="M723.635,211.283c-2.359-0.197-4.229-1.426-4.031-3.834c0.197-2.359,2.212-3.343,4.572-3.195
		L723.635,211.283z"/>
</g>
<path fill="#F8C2C2" d="M748.903,210.889c-1.475,10.569-8.8,18.336-16.32,17.255c-11.65-1.721-12.438-10.471-10.963-21.089
	c1.476-10.569,5.653-19.958,15.534-18.532C748.263,190.095,750.377,200.32,748.903,210.889z"/>
<path fill="#F39797" d="M743.593,213.396c-0.295,2.064-2.261,3.49-4.326,3.195c-2.064-0.295-3.49-2.261-3.195-4.326
	c0.295-2.064,2.263-3.49,4.326-3.195C742.462,209.415,743.888,211.332,743.593,213.396z"/>
<path fill="#F39797" d="M726.437,210.988c0.295-2.065-1.131-4.031-3.195-4.326c-0.541-0.098-1.081-0.049-1.572,0.098
	c0,0.099-0.05,0.197-0.05,0.295c-0.344,2.36-0.541,4.621-0.541,6.784c0.346,0.147,0.688,0.295,1.032,0.344
	C724.225,214.478,726.142,213.052,726.437,210.988z"/>
<path fill="#0D0E12" d="M727.568,203.761c-0.049,0.344-0.394,0.59-0.737,0.541c-0.344-0.049-0.59-0.394-0.541-0.738
	c0.05-0.344,0.395-0.59,0.737-0.541C727.42,203.073,727.615,203.417,727.568,203.761z"/>
<path fill="#0D0E12" d="M723.781,200.861c2.359-1.77,6.538-0.983,8.111,1.131C727.322,200.763,725.993,200.91,723.781,200.861z"/>
<path fill="#0D0E12" d="M740.594,206.072c-0.099,0.344-0.442,0.541-0.786,0.442s-0.541-0.442-0.442-0.787
	c0.1-0.344,0.442-0.541,0.786-0.442C740.545,205.384,740.693,205.728,740.594,206.072z"/>
<path fill="#0D0E12" d="M737.104,203.073c2.36-1.671,6.539-0.885,8.111,1.327C740.988,203.171,739.857,203.171,737.104,203.073z"/>
<polygon fill="#F39797" points="733.024,204.45 728.01,209.857 732.729,210.84 "/>
<path fill="#CCECEF" d="M734.057,214.084c-0.148,1.573-2.065,2.261-3.639,2.114c-1.523-0.147-3.343-1.082-3.195-2.704
	c0.147-1.573,1.278-0.295,3.54-0.098C733.024,213.593,734.203,212.512,734.057,214.084z"/>
<path fill="#8F8479" d="M772.202,206.612c-4.424-0.688-5.161-5.162-4.424-10.52c0.688-5.408-5.015-11.405-9.979-8.849
	c-5.556,3.146-8.21-7.57-14.698-5.948c-4.031,1.032-6.194,3.785-10.717,4.129c-4.523,0.344-6.933,3.785-8.8,7.668
	c-1.867,3.884-1.867,11.552-1.867,11.552l4.521-11.7c0,0,5.702,2.655,11.848,1.229c5.947-1.376,9.635,3.097,9.144,7.177
	c-0.541,4.277-2.458,10.667-2.458,10.667l3.589,0.098c0,0,0.983-0.983,2.312-2.605c4.473,2.557,12.239,6.538,17.941,6.687
	C777.021,216.444,776.627,207.35,772.202,206.612z"/>
<g>
	<path fill="#F5A7A7" d="M746.641,217.329c4.228,0.492,7.914-1.327,8.455-6.145c0.541-4.719-2.605-7.423-6.833-7.915
		L746.641,217.329z"/>
	<path fill="#F39797" d="M747.082,213.937c2.359,0.295,4.426-0.59,4.721-2.999c0.295-2.359-1.524-3.736-3.884-3.982L747.082,213.937
		z"/>
</g>
<path fill="#D5D5D5" d="M671.625,358.807c-2.113,1.18-3.295,1.77-3.295,1.77l-0.344-0.639
	C669.02,359.593,670.248,359.249,671.625,358.807z"/>
<path fill="#AD9DE3" d="M614.503,154.505c22.81,8.504,32.543,19.811,31.313,33.477c-1.278,13.666-27.136,62.234-27.136,62.234
	s-100.774-41.489-100.234-42.423c0.541-0.934,13.175-63.562,35.296-65.921C575.816,139.561,597.493,148.163,614.503,154.505z"/>
<path fill="#CCECEF" d="M522.774,138.577c9.586-10.618,18.631-22.219,33.87-26.103c15.239-3.883,29.986-11.11,39.032,0.541
	c9.045,11.65,20.153,60.76,13.174,85.831c-6.98,25.07-14.452,32.837-14.452,32.837l-54.812-32.051l-1.032-41.637L522.774,138.577z"
	/>
<g>
	<g>
		<g>
			<g>
				<g>
					<defs>
						<polygon id="SVGID_1_" points="-49.724,-44.931 -49.232,-44.931 -49.724,-44.439 						"/>
					</defs>
					<clipPath id="SVGID_2_">
						<use xlink:href="#SVGID_1_"  overflow="visible"/>
					</clipPath>
				</g>
				<g>
					<defs>
						<polygon id="SVGID_3_" points="-49.724,-44.931 -49.232,-44.931 -49.724,-44.439 						"/>
					</defs>
					<defs>
						<polygon id="SVGID_4_" points="-50.707,-45.914 -51.199,-45.914 -50.707,-46.405 						"/>
					</defs>
					<clipPath id="SVGID_5_">
						<use xlink:href="#SVGID_3_"  overflow="visible"/>
					</clipPath>
					<clipPath id="SVGID_6_" clip-path="url(#SVGID_5_)">
						<use xlink:href="#SVGID_4_"  overflow="visible"/>
					</clipPath>
					
						<linearGradient id="SVGID_7_" gradientUnits="userSpaceOnUse" x1="567.2297" y1="261.0996" x2="612.0976" y2="272.3166" gradientTransform="matrix(0.4916 0 0 0.4916 285.5901 58.9867)">
						<stop  offset="0" style="stop-color:#000000"/>
						<stop  offset="1" style="stop-color:#FFFFFF"/>
					</linearGradient>
					<path clip-path="url(#SVGID_6_)" fill="url(#SVGID_7_)" d="M585.058,155.635c-1.278,10.864-19.123,35.689-19.123,35.689
						l-26.644-2.999v0.541l51.025,40.458l4.03,2.359c0,0,1.819-1.868,4.474-6.734c3.49-10.569,8.701-27.037,8.21-27.922
						C606.243,195.699,585.058,155.635,585.058,155.635z"/>
				</g>
			</g>
		</g>
	</g>
</g>
<path fill="#F0ACA8" d="M566.82,88.583c2.95,5.162,10.274,20.253,10.274,20.253s-3.884,6.98-11.109,8.554
	c-7.227,1.573-11.355-1.229-11.355-1.229l-5.851-20.843L566.82,88.583z"/>
<path fill="#F0B8A8" d="M536.932,80.472c2.359,13.224,5.062,25.611,16.615,26.3c11.552,0.688,15.042-12.241,15.042-19.762
	c0-7.521-0.491-24.235-13.862-23.989C541.307,63.218,535.406,71.87,536.932,80.472z"/>
<path fill="#AD9DE3" d="M406.366,97.727c24.283,1.376,37.9,14.944,41.343,28.266c4.816,18.631-4.031,52.649-4.031,52.649
	s-110.901,3.343-110.606,2.31c0.246-1.032-6.192-64.643,14.207-73.393C367.679,98.759,388.277,96.694,406.366,97.727z"/>
<path fill="#0D0E12" d="M425.096,167.237c-0.245-0.787-7.521-25.857-7.521-25.857l-3.393,28.167l-65.921,2.852l4.129-38.589
	c-0.639,3.392-7.029,54.369-26.349,54.369c-15.73,0-13.862,36.869-15.829,19.171c7.864,1.623,9.832-7.472,13.519-9.684
	c2.114,7.079-3.097-11.798-2.261-8.258c0,0,6.636-51.125,11.798-68.674c5.161-17.599,8.799-20.401,15.239-24.825
	c8.209-5.604,22.219-13.174,39.03-10.569c16.812,2.605,34.116,5.162,40.604,16.566c6.44,11.354,18.631,42.915,21.434,58.154
	C452.478,175.25,425.342,168.023,425.096,167.237z"/>
<g>
	<path fill="#F39797" d="M378.247,56.68c-4.67,0.295-8.65-1.868-8.995-7.275c-0.345-5.211,3.294-8.062,7.964-8.357L378.247,56.68z"
		/>
	<path fill="#F38597" d="M378.002,52.895c-2.654,0.196-4.866-0.885-5.015-3.589c-0.146-2.605,1.868-4.031,4.522-4.178
		L378.002,52.895z"/>
</g>
<ellipse fill="#CCECEF" cx="421.939" cy="433.671" rx="267.763" ry="267.763"/>
<g>
	<ellipse fill="#C4D0DE" cx="421.949" cy="425.416" rx="267.765" ry="267.765"/>
	<path fill="#C4D0DE" d="M421.949,694.214c-148.213,0-268.798-120.585-268.798-268.798c0-148.212,120.585-268.847,268.798-268.847
		c148.212,0,268.799,120.585,268.799,268.798C690.747,573.579,570.212,694.214,421.949,694.214z M421.949,158.683
		c-147.081,0-266.732,119.651-266.732,266.733s119.651,266.733,266.732,266.733s266.732-119.651,266.732-266.733
		C688.683,278.334,569.031,158.683,421.949,158.683z"/>
</g>
<rect x="360.714" y="418.236" transform="matrix(0.9319 -0.3626 0.3626 0.9319 -144.3664 193.9381)" fill="#CCECEF" width="167.468" height="126.621"/>
<path fill="#F39797" d="M380.608,61.546l-6.438,26.644c0,0,5.406,3.097,13.715,3.638c8.259,0.541,12.143-2.31,12.143-2.31
	l1.573-27.922L380.608,61.546L380.608,61.546z"/>
<path fill="#F39797" d="M405.531,48.47c0.049,11.798-6.734,21.433-15.141,21.433c-13.027-0.049-15.239-9.488-15.289-21.286
	c-0.049-11.798,3.048-22.711,14.011-22.711C401.549,25.857,405.482,36.672,405.531,48.47z"/>
<path fill="#F38597" d="M400.122,52.059c0,2.311-1.917,4.179-4.227,4.179c-2.312,0-4.179-1.917-4.179-4.228
	c0-2.311,1.917-4.179,4.228-4.179C398.256,47.831,400.122,49.699,400.122,52.059z"/>
<path fill="#F29D9D" d="M561.706,87.6c0,2.311-1.917,4.179-4.228,4.179c-2.312,0-4.179-1.917-4.179-4.228
	c0-2.31,1.917-4.178,4.228-4.178C559.839,83.373,561.706,85.241,561.706,87.6z"/>
<path fill="#F38597" d="M376.823,47.88c-0.59,0-1.18,0.147-1.671,0.344c0,0.099,0,0.246,0,0.344c0,2.655,0.147,5.162,0.491,7.472
	c0.394,0.098,0.787,0.197,1.18,0.197c2.312,0,4.18-1.868,4.229-4.179C381.001,49.748,379.133,47.88,376.823,47.88z"/>
<path fill="#242638" d="M381.1,43.997c0,0.394-0.295,0.688-0.688,0.688c-0.393,0-0.688-0.295-0.688-0.688s0.295-0.688,0.688-0.688
	C380.805,43.309,381.1,43.604,381.1,43.997z"/>
<path fill="#0D0E12" d="M376.479,41.44c2.311-2.311,6.833-2.114,9.045-0.049C380.903,40.9,379.428,41.047,376.479,41.44z"/>
<path fill="#242638" d="M395.698,44.488c-0.049,0.394-0.394,0.639-0.786,0.59c-0.394-0.049-0.64-0.393-0.59-0.787
	c0.049-0.393,0.394-0.639,0.786-0.59C395.502,43.75,395.747,44.095,395.698,44.488z"/>
<path fill="#242638" d="M551.188,83.422c-0.05,0.393-0.394,0.639-0.787,0.59c-0.393-0.049-0.639-0.394-0.59-0.787
	s0.394-0.639,0.787-0.59C550.99,82.685,551.284,83.078,551.188,83.422z"/>
<path fill="#242638" d="M540.176,86.175c-0.049,0.393-0.395,0.639-0.787,0.59c-0.394-0.049-0.639-0.394-0.59-0.787
	c0.05-0.394,0.394-0.639,0.787-0.59C539.98,85.437,540.225,85.831,540.176,86.175z"/>
<path fill="#0D0E12" d="M391.372,41.785c2.36-2.261,6.884-1.966,9.046,0.197C395.847,41.293,394.323,41.44,391.372,41.785z"/>
<path fill="#0D0E12" d="M545.582,81.75c1.622-2.851,5.997-3.884,8.701-2.458C549.713,80.03,548.286,80.57,545.582,81.75z"/>
<path fill="#0D0E12" d="M537.323,82.488c0.345,1.77-0.54,1.229,4.375,0.442C540.371,82.193,538.799,82.193,537.323,82.488z"/>
<polygon fill="#F38597" points="387.196,43.898 382.573,50.633 387.883,50.977 "/>
<path fill="#8F8479" d="M374.807,45.963c0,0-1.229-8.406,0.197-12.929c1.426-4.571,3.539-8.701,8.405-9.782
	c4.915-1.082,8.11-0.442,8.11-0.442s-1.277-3.982,2.95-5.703c6.783-2.802,11.403,8.504,16.959,4.179c0,0,2.213,4.817,1.032,12.486
	c-1.181,7.718-7.424,16.173-7.424,16.173l-3.933,0.492c0,0,1.131-7.325,1.032-12.044c-0.098-4.522-3.981-6.145-10.667-5.112
	c-6.637,1.032-13.47-0.099-13.47-0.099L374.807,45.963z"/>
<g>
	<path fill="#F39797" d="M404.106,55.844c4.719-0.146,8.455-2.704,8.308-8.062c-0.146-5.21-4.03-7.718-8.75-7.62L404.106,55.844z"/>
	<path fill="#F38597" d="M404.007,52.059c2.654-0.049,4.72-1.327,4.67-4.031c-0.049-2.605-2.261-3.834-4.866-3.736L404.007,52.059z"
		/>
</g>
<path fill="#0D0E12" d="M421.557,155.635c2.409,7.226,3.933,17.304,3.933,17.304s-8.7,16.124-13.519,23.694l18.533,10.421
	c0,0,17.844-23.448,20.94-31.019c3.097-7.57-3.688-22.81-3.688-22.81L421.557,155.635z"/>
<path fill="#F39797" d="M412.412,196.486c-4.08,6.686-4.916,5.751-9.586,9.733c-4.67,3.982-8.603,6.784-8.603,6.784
	s0.983,3.343,4.474,1.966c3.44-1.376,5.506-2.851,5.506-2.851s-2.262,4.867-4.769,10.618s-2.605,8.554-1.082,9.389
	c1.524,0.836,3.146-1.13,3.146-1.13s-0.245,4.572,1.673,4.277c1.866-0.246,2.752-3.884,2.752-3.884s-0.099,1.917,2.163,1.623
	c2.212-0.295,3.44-3.982,3.44-3.982s-0.049,2.114,3.146,1.278c3.194-0.786,15.288-26.004,14.895-26.152
	c-0.344-0.099-2.556-4.326-7.865-6.194C416.395,196.093,412.412,196.486,412.412,196.486z"/>
<path fill="#F39797" d="M328.5,222.491c-0.442,0-0.886-0.295-0.983-0.737c-0.147-0.541,0.146-1.131,0.737-1.278l28.609-7.915
	c0.541-0.147,1.131,0.147,1.278,0.737c0.146,0.541-0.147,1.131-0.737,1.278l-28.609,7.915
	C328.648,222.491,328.599,222.491,328.5,222.491z"/>
<path fill="#F39797" d="M554.824,221.409c-0.196,0-0.394-0.049-0.541-0.147l-24.973-16.075c-0.491-0.295-0.639-0.934-0.295-1.426
	c0.295-0.492,0.935-0.639,1.426-0.295l24.973,16.075c0.491,0.295,0.64,0.934,0.296,1.426
	C555.464,221.212,555.169,221.409,554.824,221.409z"/>
<path fill="#AD9DE3" d="M374.168,225.047l-29.691-1.671c-0.59-0.049-0.983-0.541-0.983-1.082c0.05-0.59,0.541-1.032,1.081-0.983
	l29.644,1.671c0.59,0.049,0.982,0.541,0.982,1.081C375.152,224.604,374.709,225.047,374.168,225.047z"/>
<path fill="#AD9DE3" d="M306.084,455.452c-0.246,0-0.541-0.1-0.737-0.295c-0.394-0.395-0.394-1.082,0-1.476l20.99-20.99
	c0.394-0.394,1.081-0.394,1.475,0s0.394,1.082,0,1.475l-20.99,20.991C306.625,455.354,306.379,455.452,306.084,455.452z"/>
<path fill="#F39797" d="M442.252,427.727c-0.196,0-0.394-0.049-0.54-0.146l-24.925-16.222c-0.49-0.296-0.639-0.936-0.295-1.427
	c0.295-0.491,0.936-0.64,1.426-0.295l24.875,16.173c0.49,0.296,0.639,0.935,0.295,1.427
	C442.941,427.53,442.597,427.727,442.252,427.727z"/>
<path fill="#F39797" d="M536.587,449.946c-0.099,0-0.147,0-0.245-0.049l-28.856-6.884c-0.541-0.146-0.885-0.688-0.786-1.229
	c0.147-0.541,0.688-0.885,1.229-0.787l28.855,6.883c0.54,0.147,0.886,0.688,0.786,1.229
	C537.522,449.603,537.078,449.946,536.587,449.946z"/>
<path fill="#CCECEF" d="M487.625,325.33l-29.691-1.671c-0.59-0.049-0.983-0.541-0.983-1.082c0.05-0.59,0.541-1.032,1.082-0.983
	l29.644,1.671c0.59,0.049,0.982,0.541,0.982,1.082C488.609,324.888,488.166,325.33,487.625,325.33z"/>
<polygon fill="#0D0E12" points="419.491,271.747 482.169,206.957 598.674,271.747 533.884,342.093 "/>
<path fill="#8F8479" d="M448.938,319.382l-48.076-28.069c-1.672-0.983-3.736-0.983-5.457-0.049l-48.322,27.578
	c-1.672,0.983-2.852,2.753-2.899,4.719v55.647c0,1.966,0.885,3.736,2.556,4.719l48.077,28.069c1.672,0.982,3.736,0.982,5.457,0.049
	l48.322-27.578c1.671-0.983,2.852-2.753,2.899-4.719v-55.647C451.493,322.135,450.61,320.316,448.938,319.382z"/>
<path fill="#8F8479" d="M373.677,239.008l-48.372,27.627c-1.327,0.787-1.917,2.409-1.327,3.834l20.843,51.174l53.779-30.724
	l-20.548-50.437C377.364,238.762,375.299,238.074,373.677,239.008z"/>
<path fill="#242638" d="M395.306,292.148l-48.322,27.578c-1.475,0.836-1.522,2.262,0,3.097l48.077,28.069
	c1.475,0.885,3.883,0.885,5.407,0.049l48.321-27.578c1.476-0.835,1.524-2.261,0-3.097l-48.075-28.069
	C399.19,291.312,396.781,291.312,395.306,292.148z"/>
<g opacity="0.29">
	<path fill="#CCECEF" d="M397.224,408.801c-0.246,0-0.295-0.195-0.295-0.394v-53.484c0-0.246,0.295-0.394,0.54-0.394
		c0.246,0,0.295,0.197,0.295,0.394v53.484C397.764,408.653,397.469,408.801,397.224,408.801z"/>
</g>
<g>
	<polygon fill="#0D0E12" points="354.898,318.743 354.948,318.743 354.948,318.693 	"/>
	<path fill="#0D0E12" d="M356.766,325.821c-0.54-0.835-0.982-1.229-0.54-1.868c0.737-1.131-0.59-6.292,0.196-9.586
		c-4.18,2.359,0.441,4.522-1.476,4.375c-0.099,0.787,0.491,1.082-0.246,2.064c0.688,1.229-1.376,2.36,0.936,5.113
		c-0.295,0.59-0.591,1.082-0.738,1.622C357.553,329.066,355.39,328.034,356.766,325.821z"/>
	<path fill="#0D0E12" d="M393.34,343.863L393.34,343.863C393.439,342.732,393.193,343.617,393.34,343.863
		c1.277,0-0.836-1.376,0.688-1.966c-0.787-0.934-0.246-4.424-0.688-5.506c-0.395-1.032,0.49-1.376,0.394-2.016
		c-0.982,0-0.836-0.492-0.345-0.639c-0.246-0.934-0.246-2.015,0.441-2.851c-1.376-1.671,0.147-0.098-0.539-3.343
		c-0.296-0.098-0.641-0.098-0.591-0.393c0.05-0.344,0.295-0.049,0.591-0.147c0.295-0.885,0.49-0.639,0.344-0.934
		c-1.082-1.18-0.688-2.36,0.099-2.9c0.935-0.639-0.59-1.032-0.688-1.819c1.131-0.983-0.147-5.899,0.394-8.308
		c0.442-1.966-0.05-1.278-0.246-2.409c0.639-0.59,1.032-0.737,0.59-1.425c-0.935-1.573,0.147-0.492,0.295-1.721
		c-0.146-0.197-1.031-10.864-0.982-10.962c0.345-0.541,0.885-1.13,0.492-1.671c-0.197-0.246,0.639-2.212-1.524-0.983
		c-1.426,4.621,0.885,3.736,0.344,4.424c-0.786,0.934-0.393,1.229-0.146,2.851c-0.344,0.492,0,0.934,0.196,1.376
		c-0.688,1.868-1.031,2.704-0.688,4.08c0.688,2.9-0.639,4.178,0.049,5.702c0.295,0.639,0.1,1.229-0.146,2.163
		c0.64,0.344,0.541,0.393-0.147,0.885c0.688,0.836-0.049,0.934,0.05,2.605c0,0.197,1.476,7.03-0.05,9.586
		c1.181,0.541,0.395,3.441,0.05,4.277c-0.196,0.442,0.442,0.344,0.345,0.934c-0.196,1.77,1.131,1.425-0.196,2.507
		c-0.541,0.442,1.721,2.851,0,2.851c0.196,1.573-0.345,1.426,0.59,1.426c0.049,0.688-1.622,2.507-0.197,3.785
		c-0.981,1.573,0.346,1.278-0.098,4.424c0.393,0.344,1.18,0.787,0.786,1.13c-0.196,0.197-1.722-0.196,0.394,1.082
		C393.193,349.663,393.193,350.892,393.34,343.863z"/>
	<path fill="#0D0E12" d="M349.884,322.773c-1.376-1.475,0.736-2.114-0.395-2.999c-0.393-0.295,0.147-0.639,0.246-1.573
		c-1.967,1.13-1.622,0.835-1.622,1.032c0.049,3.638,0.099,2.999,0,3.146C347.573,323.216,350.079,326.067,349.884,322.773z"/>
	<path fill="#0D0E12" d="M388.914,303.799L388.914,303.799L388.914,303.799z"/>
	<path fill="#0D0E12" d="M389.85,346.911c1.327-0.934-1.032-0.688,0.737-2.655c-0.983-0.787-0.345-0.983-0.591-1.475
		c-0.099-0.197-0.344-0.541,0.05-0.639c1.031-0.295-0.786-2.261,0.05-3.441c0.688-0.934-0.492-1.721,0.393-2.311
		c0.1-0.049-0.049,0.196-0.049-1.475c-1.229-0.934,1.081-2.802-0.442-3.195c-0.64-0.147-0.441-0.443,0.147-0.787
		c-0.147-0.394-0.59-0.639-0.541-0.983c0.395-0.639,0.737-0.885-0.196-1.966c0.59-0.492,0.295-1.032,0.196-1.622
		c1.426-0.639,0.442-1.721,0.541-3.146c-0.197,0-0.344,0-0.541,0c0-0.147,0-0.344,0.049-0.394c1.771-0.688,0.295-2.163,0.591-3.834
		c0.245-1.327,0.245-1.327-0.196-2.458c-0.395-0.934,0.541-0.885,0.441-1.671c-1.966-0.442,0.59-0.541-0.344-3.294
		c-0.59-0.541,1.131-2.015-0.442-2.654c0.1-0.394,0.442,0,0.541-0.147c0.345-3.048-0.296-0.983-0.737-1.868
		c0.982-2.261,0.146-5.358,0.295-5.702c0.64-0.344,0.591,0,0.197-1.672c0.245-0.246,0.736-0.491-0.051-1.376
		c0.541-1.573,0.296-3.146,0.246-3.195c-1.966,1.13-1.475,0.737-1.475,1.18c0.049,4.375-0.836,2.359-0.295,4.965
		c0.736,0.147-0.196,0.836,0.441,2.605c0.196-0.147,0.442-0.147,0.64,0.049c-0.05,0.541-0.64,0.442-0.935,0.835
		c0.049,0.59,0.344,37.065-0.394,40.359c-0.099,0.344,0.394,0.147,0.394,0.541c0,0.59,0.049,0.492,0.344,0.934
		c-1.18,1.18,0.395,0.344,0.147,0.934C389.899,347.943,389.996,348.287,389.85,346.911z M389.899,324.789
		c0.099,0.442,0.099,0.442-0.393,0.639C389.555,324.986,389.555,324.986,389.899,324.789z M389.701,337.177
		c-0.049-0.147-0.049-0.147,0-0.197C389.751,337.128,389.751,337.128,389.701,337.177z"/>
	<path fill="#0D0E12" d="M362.862,330.344c0.787,1.671,0.395,0.835,0.05-5.948c0.295-0.246,0.835-1.917,0.295-3.343
		c-0.099-0.295-0.935-0.394-0.54-0.836c0.836-0.885,1.031-0.737,0.688-1.229c-0.59-0.885-0.983-3.392,0-4.08
		c0-0.196-0.394-4.277-1.476-3.687c-0.688,11.749-0.64,8.897-0.147,8.799c1.131,4.129-1.818,4.522,0.246,4.277
		c-0.147,0.737-0.147,0.442,0,1.18c-1.032,0.442-0.885,1.671,0.099,1.573c0.59,0.934,0.64,0.639,0.246,1.082
		c-0.246-0.147-0.591-1.475-0.886,0c-0.344,1.671,1.377,0.59,0.05,2.065c0.147,1.671-0.59,0.934,1.426,2.114
		C362.714,331.18,362.419,329.361,362.862,330.344z M362.764,322.43c0.098,0,0.098,0.098,0,0.098
		C362.714,322.479,362.714,322.38,362.764,322.43z"/>
	<path fill="#0D0E12" d="M352.588,321.496c1.475-4.522,0.195-4.67,0.393-5.063c0.147-0.295,0.492-0.442-1.475,0.737
		c0.246,0.639-0.541,3.097-0.541,3.294c0.541,0.442,0.787-0.442,0.541,1.622c-0.395,2.9,0.441,0.197-0.05,3.146
		c-0.05,0.295-0.345,0.049,1.081,0.885C351.997,325.33,354.358,322.282,352.588,321.496z"/>
	<path fill="#0D0E12" d="M369.252,335.358c0.196,0,0.935-9.685,0.935-9.93c-0.64-0.344-0.737-1.475-0.541-1.622
		c0.442-0.344-0.737-3.048-0.099-3.589c0.64,0.541,0.59,0.639,0.441-0.147c-0.049-0.147,0.787-0.983,0.147-1.966
		c-0.295-0.491-0.196-0.835-0.245-2.212c0-0.59-0.737-0.492-0.147-1.032c0.54-0.492,0.394-0.394-0.146-1.524
		c-0.197-0.492,0.639-4.326,0.245-5.309c-0.64-1.376,1.131-1.966-1.771-0.295c0.049,0.491,0.395,0.491,0.147,1.229
		c-0.786,2.36,1.032,1.328,0.099,2.36c0.147,0.197,0.541,0.737,0.395,0.934c-0.443,0.541,0,0.639,0,1.917
		c-0.688,0.295-0.541,0.099-0.147,2.016c-2.163,0,1.13,3.588-0.197,5.997c-0.195,0.394-0.146,0.147-0.146,3.884
		c1.082,0.492,0.246,0-0.147,1.77c1.427,0.492,0.1,0.737,0.147,1.77c0.688,1.573-0.442,1.573,0.049,2.409
		c1.377,0.737-0.737,1.278,0.246,2.802c-0.688,0.492-0.836,0.147,1.229,1.376C369.793,335.506,370.088,335.751,369.252,335.358z"/>
	<path fill="#0D0E12" d="M359.665,329.263c0.051-0.295,0.442-0.492,0.147-1.376c-0.442-1.18-0.098-1.229-0.245-2.114
		c-0.688-3.982,0.737-3.097,0.442-4.031c-0.197-0.639-0.541-2.311-0.541-2.458c0.934,0.344,0.688-0.491,0-1.18
		c0.491-0.442,0.441-5.26,0.441-5.702c-3.589,2.064-1.131,0.246-1.522,2.064c-0.541,2.36-0.197,2.016-0.148,2.605
		c0.492,6.341-0.344,9.34-0.098,9.783c1.868,0.049-0.246,1.475,0.049,2.605C359.665,330.295,359.47,330.492,359.665,329.263z
		 M359.126,328.427c-0.051-0.049-0.051-0.049,0-0.196C359.224,328.329,359.175,328.329,359.126,328.427z"/>
	<path fill="#0D0E12" d="M382.821,342.879c0.737-1.278,0.245,0.098,0.245-2.753c0.737-0.787,0.688-0.639,0.295-1.13
		c-0.786-1.032,0.197-0.492,0.246-2.163c0.049-1.18-0.196-1.573-0.146-1.819c0.146-0.983,0.688-0.197-0.395-1.475
		c0.787-1.376-0.59-2.557,0.541-4.129c-1.377-1.868-0.099-1.966-0.196-3.736c-1.082,0.442-1.426,0,0.196-1.327
		c-0.394-0.934,0.246-3.785-0.491-5.358c-0.345-0.737,0.295-0.688,0.295-0.983c-0.05-0.885-0.295-2.409,0.295-3.933
		c-0.982-3.834-1.082-2.753,0.05-4.621c-1.032-1.475-0.64-9.537-0.442-10.471c-1.672,0.934-1.327,0.492-1.622,1.966
		c0.885,0.983-0.394,0.934,0.049,2.114c0.395,1.082,0.345,0.934-0.344,2.605c0.786-0.197,0.295,6.538,0.344,6.735
		c-0.982,1.229,0.295,0.885,0.395,1.376c-0.983,1.475-0.345,17.254-0.246,17.451c0.737,1.524-0.049-0.787-0.295,4.08
		c-0.049,0.492,0.394,0.197,0.394,0.688c-0.345,4.424-0.736,2.311,0.147,3.441c-0.395,0.885-0.345,2.753-0.197,3.097
		c0.147,0.344,0.099,0.59-0.146,0.836C384.197,344.6,383.508,344.403,382.821,342.879z M382.918,309.894L382.918,309.894
		C382.771,310.042,382.771,309.845,382.918,309.894z"/>
	<path fill="#0D0E12" d="M395.698,313.974L395.698,313.974L395.698,313.974z"/>
	<path fill="#0D0E12" d="M395.306,294.95c-0.295,0.295-0.099,1.032,0.099,1.18c0.64-0.197,0.492-0.295,0.59,0.639
		c-0.246,0.246-0.836,0.393-0.541,1.082c1.477,3.588-0.885,1.229-0.098,5.162c-0.982,0.639,0.491,0.835,0.393,3.047
		c-1.18,0.344-0.146-0.541-0.59,4.769c-0.049,0.688,0,0.639,0.787,2.114c-0.146,0.246-0.394,0.442-0.197,0.787
		c0.051,0.049,0,0.197-0.049,0.295c2.704,0.737,0.836-1.13,0.886-3.588c1.031-0.541,0.59-1.376,0.049-2.409
		c0.295-0.688,0.591-1.131-0.049-1.573c-0.196-0.147-0.442-0.836,0.099-0.983c0.639,0.836,0.491,0,0.344-0.246
		c-0.441-0.639,0.983-1.229-0.59-2.016c-0.295-0.147,0-0.442,0.147-0.688c-0.196-1.77-0.837-0.541-0.246-1.966
		c0.099-0.295,0.246,0.098,0.786-0.197c-1.572-1.819-1.131-2.311-0.344-3.146c-0.099-2.016,0-2.311-0.295-2.753
		c-0.394-0.59,0.639-2.605,0.54-2.802C394.371,292,396.24,293.869,395.306,294.95z"/>
	<path fill="#0D0E12" d="M384.983,299.227c0.64,0.492,0.885,0.492,0.492,0.935c-0.295,0.344-0.147,0.639-0.05,0.983
		c-0.982,1.475,1.229,1.376-0.394,2.114c0.835,2.016,0.54,1.868,1.966,0.787c-0.244-0.59-0.146-0.295-0.344-1.131
		c0.786-0.541-0.049-1.13-0.146-1.327c0.146-0.393,0.195-0.393,0.099-0.541c-0.836-0.885,0.393-1.868,0.295-2.065
		c-0.935-1.524,0.59-2.409-1.721-1.082C384.934,299.423,384.983,299.227,384.983,299.227z"/>
	<path fill="#0D0E12" d="M395.698,313.974L395.698,313.974L395.698,313.974z"/>
	<path fill="#0D0E12" d="M395.011,315.449c-0.049,0.098,0.099,0.295,0.345,0.295c1.523-3.638-0.836,3.883-0.295,5.309
		c0.786,2.015,0.196,20.695,0.639,25.464c-0.195,0.147-0.344,0.295-0.59,0.492c0.59,0.737-0.146,1.376-0.146,2.114
		c1.08,0.934-0.147,1.278,0.441,2.064c0.246,0.099,1.524,0.541,1.377,0.295c0,0,0.344-1.475,0-2.31
		c-0.246-0.639,0.737-0.492,0.245-1.082c-0.688-0.836,0.295-1.77-0.491-2.507c-0.492-0.442,0.541-0.639,0.345-0.885
		c-0.05-0.049,0.099-2.95,0.196-3.146c0.196-0.394-0.196-0.344-0.736-1.426c1.081-0.885-0.246-2.507,0.441-3.343
		c0.295-0.344,0.147-0.688-0.146-2.163c0.885-0.541-0.051-0.885-0.246-1.18c0.246-0.344,1.817-2.114,0.195-3.441
		c1.968-4.375-0.885-11.257,0.395-11.847c-0.344-0.442-0.295-0.885-0.196-1.376c0.147-0.836-0.688-2.163-1.032-2.704
		C394.617,313.827,395.503,314.368,395.011,315.449z M396.534,327.395c0.05,0,0.099,0.049,0,0.098
		C396.437,327.395,396.437,327.345,396.534,327.395z"/>
	<path fill="#0D0E12" d="M346.148,322.184c0.197-0.737,0-0.688,0.099-1.622C346.394,319.726,345.362,321.151,346.148,322.184z"/>
	<polygon fill="#0D0E12" points="354.898,318.743 354.948,318.693 354.898,318.693 	"/>
	<path fill="#0D0E12" d="M354.603,318.448c-0.098-0.049-0.098,0.246,0.05,0.295C354.948,318.841,354.948,318.546,354.603,318.448z"
		/>
	<path fill="#0D0E12" d="M366.254,333.146c0.146-0.442,0.441-0.983,0-1.819c-0.246-0.492,0.344-0.688,0.295-1.13
		c-0.346,0.049-0.541-0.147-0.641-0.443c-0.295-0.786,1.229-0.147,0.983-1.72c-1.426-0.344,0.049-0.639-0.344-1.475
		c-0.395-0.147,0.146-1.818,0-3.047c-1.524-1.131,0.59-1.18-0.1-3.54c-0.736,0.541-0.885,0.197-0.688,0
		c0.59-0.541,1.082,0.049,0.935-0.787c-0.099-0.393-0.59-0.344-0.64-0.737c1.032-1.327-0.737-1.032,0.541-7.767
		c0.491-2.654-0.147-0.835,0.146-2.261c-1.426,0.835-2.753,2.016-1.426,3.048c-2.163,5.604,1.426,3.785-0.491,11.011
		c0.935,0.688-0.146,1.131,0.295,3.54c-0.441,0.099-0.491,0.442-0.59,0.885c-0.394,1.868,0.196,0.934,0.64,0.885
		c0.541,1.278-0.688,1.917,0,5.751C367.384,334.817,365.908,334.08,366.254,333.146z M365.516,313.778
		c-0.098,0.147-0.344,0.246-0.295-0.099C365.271,313.335,365.663,313.483,365.516,313.778z M365.762,331.032
		C365.663,331.032,365.663,330.934,365.762,331.032L365.762,331.032z"/>
	<path fill="#0D0E12" d="M376.823,339.192c-0.639-0.786,0.787-1.18-0.393-6.489c-0.641-2.802,0.981-2.409,0.098-4.867
		c0.442-0.393,0.1-8.504,0.246-8.259c-0.885-1.278,0.196-1.868,0.049-2.458c-0.639-3.195,0.395-1.819-0.491-3.245
		c1.523-2.212-0.49-2.311,0.296-6.538c0.049-0.295-0.345-0.983-0.345-1.278c-0.099-2.9,2.113-4.276-1.082-2.458
		c0.786,1.524-1.327,8.111,0.05,12.929c0.05,0.196-0.296,1.13-0.345,1.573c-0.344,1.77,0.395,8.357,0.246,8.554
		c-0.295,0.393-0.246,0.787,0.147,1.131c-0.936,0.983-0.395,1.523,0.098,1.573c-0.049,0.246,0.099,0-0.393,0.885
		c1.671,0.983-0.395,1.229,0.49,2.458c0.688,0.934-0.934,1.868-0.295,6.587c2.114,1.229,1.819,1.18,1.868,0.885
		C377.069,339.881,377.116,339.537,376.823,339.192z M376.38,322.331c0.099,0.099,0.099,0.099,0,0.147
		C376.33,322.38,376.33,322.43,376.38,322.331z M375.889,304.044c0-1.229,0.394-0.197,0.196-0.049
		C376.085,303.995,376.035,303.995,375.889,304.044z"/>
	<path fill="#0D0E12" d="M373.382,337.275c-0.787-0.492,0.59-0.737-0.051-1.524c-0.885-1.032,1.032-1.573-0.785-1.426
		c0-0.147,0-0.344,0.049-0.344c1.377-0.688,0.099-3.146,0.099-3.343c0.295-4.129,1.032-2.114,0.491-3.49
		c-0.835-2.163,1.426-0.738-0.147-3.146c0.147-0.196,0.492-4.965,0.492-5.604c-0.05-0.983-0.736-0.787-0.197-1.819
		c0.246-0.492,0.246-0.295-0.195-1.376c0.541-0.688,0.146-1.18-0.196-1.966c0.737-0.835,0.245-1.032,0.245-2.015
		c1.131,0.295,0.295-0.197,0-1.524c-0.049-0.246,0.146-0.492,0.099-0.738c-0.59-4.276,1.081-4.768-1.377-3.392
		c0.147,0.147-0.098,12.093-0.491,12.535c-0.049,0.295-0.146,1.131,0.05,1.327c1.031,1.131-0.196,6.932,0.295,7.718
		c0.688,1.082-0.54,1.573-0.345,2.163c1.476,0.197-0.59-0.049,0,1.77c0.246,0.787-0.099,1.425,0.196,1.573
		c0.936,0.492-0.295,1.131,0.246,2.36c-1.131,2.409,0.836,2.949,1.573,3.392C373.53,337.915,373.677,337.521,373.382,337.275z"/>
	<path fill="#0D0E12" d="M379.674,339.192c-0.395-1.622,0.688,0.147,0.541-1.425c-0.492-0.246-0.59-0.099-0.197-1.328
		c-0.344-0.737-0.344-0.737-0.245-1.081c0.54,0.049,0.491-0.344,0.394-0.541c-0.442-0.787,0.245-1.032-0.296-1.868
		c-0.195-0.295,0.147-0.344,0.346-0.491c0.49-0.442-0.737-1.623,0.146-2.753c-1.082-2.36,0.394-3.589-0.196-5.112
		c-0.345-0.934-0.591-1.229-0.245-1.819c0.934-1.77-0.738-2.409,0.146-2.752c0.344-0.099,0.54-0.295-0.05-0.639
		c-0.245-0.147,0-0.344,0.442-0.934c-1.427-1.524,0.196-1.376-0.296-2.704c-1.229-2.999,0.591-2.655,0.1-5.309
		c-0.491-0.197-0.639-0.394-0.541-0.737c0.541-1.671-0.147-0.787,0.099-1.868c1.032-4.719-0.541-3.245,0.147-4.424
		c1.229-2.064-1.771-2.802-1.229-1.082c0.591,1.917-0.934,2.114-0.344,3.785c0.147,0.394-0.099,0.492-0.196,0.836
		c-0.295,1.13,1.131,1.524,0.59,2.704c-1.523,1.082,0.737,7.865-0.491,9.291c-0.737,0.835-0.295,0.246-0.05,1.032
		c0.591,1.868,0.591,1.229-0.146,2.999c1.327,3.293-0.395,6.636,0.737,8.603c-1.573,1.868,0.935,1.18-0.737,3.343
		c1.082,1.13-0.491,2.654,0.146,3.441c0.395,0.492,0,0.639,0.05,1.278C378.445,341.896,380.805,343.912,379.674,339.192z"/>
	<path fill="#0D0E12" d="M386.311,327.444c-0.688-0.688,0.344-0.492,0.442-1.229c-0.197-0.394-0.591-1.229-0.197-1.032
		c0.787,0.442-0.196-1.18,0.197-2.065c0.344-0.737-0.1-0.934-0.442-1.72c2.064-2.262-1.131-1.426,0.688-7.472
		c-0.441-0.541-0.539-1.524-0.393-1.721c0.885-1.327-0.246-3.54,0.393-5.407c-0.688-2.065-0.885-1.77-1.426-1.524
		c-0.491,0.196,0.443,1.18,0.147,1.72c-0.442-0.098-0.885-0.344-0.64,0.885c0.246,0.246,0.591,0,0.737,0.344
		c-0.344,0.737-1.671,3.638-0.344,4.326c-0.787,1.376-0.147,3.933,0.295,4.228c0.344,0.246-0.935,0.787-0.394,4.277
		c0.099,0.541-0.737,1.18-0.147,1.917c0.344,0.442,0.099,1.278-0.099,1.868c0.59,1.475,0.491,1.327,0.196,2.949
		c-0.59,3.343,0.737,2.311-0.295,4.326c1.278,1.573-0.441,3.883,0.344,4.817c1.573,1.917,0.688,0.787,0.246,1.721
		c-0.146,0.344,0.395,1.917-0.146,2.654c-0.688,0.885,0.541,1.18-0.246,2.261c0.885,1.376,0.394,0.836,0,1.426
		c0.639,0.492,1.868-0.098,1.524-0.442c-0.837-0.787,1.229-4.375,0.098-5.112c-1.081-0.688,0.246,0,0.246-1.082
		c0-2.065-0.344-0.787-0.1-2.802c-1.18-1.376,0.395-1.13-0.195-2.704C386.556,332.605,387.638,325.133,386.311,327.444z"/>
	<path fill="#0D0E12" d="M385.229,309.255L385.229,309.255L385.229,309.255z"/>
	<path fill="#0D0E12" d="M390.242,306.011c-0.05,0.196-0.099,0.393-0.146,0.639C391.077,306.551,390.391,305.617,390.242,306.011z"
		/>
	<path fill="#0D0E12" d="M390.636,311.123c-0.59-0.098-0.442-0.196-0.442,0.492C390.44,311.517,390.636,311.418,390.636,311.123z"/>
	<path fill="#0D0E12" d="M390.194,311.025L390.194,311.025L390.194,311.025C390.194,311.025,390.145,311.025,390.194,311.025z"/>
	<path fill="#0D0E12" d="M390.194,311.615L390.194,311.615L390.194,311.615z"/>
	<path fill="#0D0E12" d="M371.268,322.577c-0.099,0.147,0.099,0.344,0.295,0.246C372.2,322.479,371.365,322.43,371.268,322.577z"/>
	<path fill="#0D0E12" d="M371.858,322.577L371.858,322.577L371.858,322.577z"/>
	<polygon fill="#0D0E12" points="356.275,317.169 356.275,317.169 356.226,317.219 	"/>
	<path fill="#0D0E12" d="M356.471,317.464c0.394-0.295-0.245-0.541-0.196,0.099C356.323,317.514,356.422,317.514,356.471,317.464z"
		/>
	<polygon fill="#0D0E12" points="356.226,317.563 356.275,317.612 356.275,317.563 	"/>
	<polygon fill="#0D0E12" points="385.229,309.206 385.229,309.255 385.229,309.255 	"/>
	<path fill="#0D0E12" d="M385.08,308.911c0,0-0.049,0-0.099,0C385.13,309.501,385.376,309.157,385.08,308.911z"/>
	<path fill="#0D0E12" d="M383.508,341.061c0.146-0.295,0.099-0.197-0.049-0.393C383.459,341.061,383.459,340.962,383.508,341.061z"
		/>
	<path fill="#0D0E12" d="M364.681,323.265c-0.05,0.246-0.1,0.197,0.098,0.246C364.827,323.314,364.877,323.413,364.681,323.265z"/>
	<path fill="#0D0E12" d="M388.473,303.75c0,0.197,0.246,0.098,0.441,0.098C388.768,303.7,388.473,303.553,388.473,303.75z"/>
	<path fill="#0D0E12" d="M388.914,303.799L388.914,303.799L388.914,303.799z"/>
	<path fill="#0D0E12" d="M368.171,328.378c-0.051-0.246-0.051-0.443-0.1-0.59C368.073,327.984,367.876,328.132,368.171,328.378z"/>
	<path fill="#0D0E12" d="M368.073,327.788L368.073,327.788L368.073,327.788z"/>
	<path fill="#0D0E12" d="M381.64,309.107c-0.147,0.099-0.147,0-0.098,0.246C381.739,309.255,381.69,309.354,381.64,309.107z"/>
	<path fill="#0D0E12" d="M374.807,307.24c0.146-0.049,0.246-0.049,0.099-0.197C374.807,306.945,374.758,307.043,374.807,307.24z"/>
	<path fill="#0D0E12" d="M375.053,334.031c-0.147,0.049-0.1,0.049-0.049,0.147C375.102,334.129,375.053,334.178,375.053,334.031z"/>
</g>
<polygon fill="#F39797" points="545.141,85.044 542.487,95.17 548.826,93.45 "/>
<path fill="#F39797" d="M552.269,96.203c0,0.491-0.394,0.885-0.885,0.885s-0.886-0.394-0.886-0.885c0-0.492,0.395-0.885,0.886-0.885
	C551.875,95.367,552.269,95.76,552.269,96.203z"/>
<path fill="#AD9DE3" d="M529.853,77.08c4.522,1.376,13.567-2.31,15.779-3.883c2.213-1.573,7.62-5.063,7.62-5.063
	s2.212,5.063,5.309,6.587c3.098,1.573,4.031,0.393,4.916,2.458c0.885,2.064,0.64,6.341,0.64,6.341l4.276-1.032l-0.885,11.11
	c0,0,3.343-0.639,3.98-5.162c0.641-4.523,0.295-20.843-5.014-25.366c-5.31-4.522-9.832-2.065-9.832-2.065s-3.343-7.816-10.864-6.046
	c-7.472,1.819-6.241,6.833-11.306,7.767c-5.062,0.885-9.931,0.393-11.355,5.407C521.693,73.197,525.969,75.95,529.853,77.08z"/>
<g>
	<path fill="#F0B8A8" d="M567.656,91.238c4.72-0.147,8.455-2.704,8.309-8.062c-0.147-5.21-4.031-7.718-8.75-7.619L567.656,91.238z"
		/>
	<path fill="#F39797" d="M567.557,87.453c2.655-0.049,4.72-1.327,4.67-4.031c-0.049-2.605-2.261-3.834-4.866-3.736L567.557,87.453z"
		/>
</g>
<path fill="#CCECEF" d="M538.554,157.946l-23.252,21.286c0,0-0.395,1.18-1.082,3.097c-3.49-3.244-10.372-5.702-19.712-3.195
	c0.982-3.588,1.917-6.636,2.753-8.799c3.638-9.291,14.993-19.663,25.562-31.805c0,0,8.7,2.409,12.485,6.046
	C539.045,148.212,538.554,157.946,538.554,157.946z"/>
<path fill="#F0B8A8" d="M514.171,182.328c-2.9,8.308-10.814,30.822-13.027,36.722c-2.753,7.226-9.144,12.388-9.635,14.305
	c-0.541,1.917-1.917,1.032-1.917,1.032l0.688,2.409c0,0-1.721,2.064-5.015,1.032c-3.244-1.032-6.392-4.67-6.193-10.52
	c0.147-5.85,8.799-9.635,8.799-9.635c0-8.553,3.394-26.496,6.589-38.54C503.799,176.626,510.73,179.133,514.171,182.328z"/>
<path fill="#AD9DE3" d="M490.182,237.729c-0.395,0-0.737-0.196-0.934-0.59l-12.93-26.742c-0.246-0.491-0.05-1.13,0.491-1.376
	c0.491-0.246,1.131-0.049,1.377,0.491l12.928,26.742c0.246,0.492,0.05,1.131-0.491,1.376
	C490.526,237.729,490.328,237.729,490.182,237.729z"/>
<path fill="#CCECEF" d="M603.639,236.206c-4.769-7.275-11.602-10.176-21.875-12.29l6.145-9.585c0,0,3.394-35.148-2.556-53.779
	c-5.948-18.631,9.192-48.323,9.192-48.323c9.291,8.603,22.76,32.739,24.137,66.511C619.714,203.761,611.995,222.884,603.639,236.206
	z"/>
<g>
	<path fill="#AD9DE3" d="M523.315,316.137c-0.196,0-0.344-0.049-0.541-0.147l-0.885-0.541c-0.491-0.295-0.639-0.934-0.344-1.426
		c0.295-0.492,0.934-0.639,1.426-0.344l0.885,0.541c0.491,0.295,0.639,0.934,0.344,1.425
		C524.003,315.94,523.657,316.137,523.315,316.137z"/>
	<path fill="#AD9DE3" d="M518.891,313.483c-0.197,0-0.345-0.049-0.541-0.147l-1.771-1.082c-0.491-0.295-0.64-0.934-0.345-1.426
		c0.295-0.492,0.936-0.639,1.426-0.344l1.771,1.082c0.492,0.295,0.64,0.934,0.345,1.426
		C519.628,313.335,519.282,313.483,518.891,313.483z M513.68,310.336c-0.197,0-0.345-0.049-0.541-0.147l-1.771-1.032
		c-0.491-0.295-0.64-0.934-0.345-1.425c0.295-0.492,0.936-0.639,1.426-0.344l1.771,1.032c0.492,0.295,0.64,0.934,0.345,1.426
		C514.366,310.14,514.024,310.336,513.68,310.336z M508.42,307.141c-0.197,0-0.346-0.049-0.541-0.147l-1.771-1.082
		c-0.492-0.295-0.64-0.934-0.345-1.425c0.295-0.491,0.935-0.639,1.426-0.344l1.771,1.082c0.491,0.295,0.64,0.934,0.345,1.426
		C509.108,306.945,508.764,307.141,508.42,307.141z M503.209,303.995c-0.197,0-0.346-0.049-0.541-0.147l-1.771-1.032
		c-0.492-0.295-0.64-0.934-0.345-1.426c0.295-0.491,0.935-0.639,1.426-0.344l1.77,1.032c0.492,0.295,0.641,0.934,0.346,1.425
		C503.897,303.799,503.553,303.995,503.209,303.995z M497.948,300.8c-0.195,0-0.344-0.049-0.54-0.147l-1.77-1.082
		c-0.492-0.295-0.641-0.934-0.345-1.425c0.295-0.492,0.935-0.639,1.426-0.344l1.77,1.082c0.492,0.295,0.641,0.934,0.346,1.426
		C498.637,300.604,498.293,300.8,497.948,300.8z M492.689,297.654c-0.196,0-0.344-0.049-0.54-0.147l-1.771-1.082
		c-0.491-0.295-0.64-0.934-0.345-1.426c0.295-0.491,0.935-0.639,1.426-0.344l1.771,1.081c0.491,0.295,0.639,0.934,0.344,1.426
		C493.426,297.457,493.082,297.654,492.689,297.654z M487.478,294.458c-0.196,0-0.344-0.049-0.54-0.147l-1.77-1.082
		c-0.492-0.295-0.641-0.934-0.346-1.426c0.295-0.491,0.936-0.639,1.426-0.344l1.771,1.081c0.491,0.295,0.64,0.934,0.345,1.426
		C488.166,294.262,487.823,294.458,487.478,294.458z M482.218,291.312c-0.196,0-0.345-0.049-0.54-0.147l-1.771-1.082
		c-0.49-0.295-0.639-0.934-0.344-1.426c0.295-0.492,0.934-0.639,1.426-0.344l1.771,1.082c0.491,0.295,0.639,0.934,0.344,1.426
		C482.906,291.116,482.563,291.312,482.218,291.312z M477.007,288.117c-0.196,0-0.345-0.049-0.54-0.147l-1.771-1.082
		c-0.492-0.295-0.64-0.934-0.345-1.426s0.935-0.639,1.426-0.344l1.771,1.082c0.49,0.295,0.64,0.934,0.345,1.426
		C477.696,287.92,477.352,288.117,477.007,288.117z M471.746,284.971c-0.195,0-0.344-0.049-0.539-0.147l-1.771-1.081
		c-0.491-0.295-0.639-0.934-0.344-1.426c0.295-0.492,0.934-0.639,1.426-0.344l1.77,1.082c0.491,0.295,0.64,0.934,0.345,1.426
		C472.436,284.774,472.092,284.971,471.746,284.971z M466.488,281.775c-0.196,0-0.344-0.049-0.541-0.147l-1.77-1.081
		c-0.491-0.295-0.64-0.934-0.345-1.426c0.296-0.492,0.935-0.639,1.427-0.344l1.77,1.082c0.491,0.295,0.64,0.934,0.345,1.426
		C467.176,281.579,466.881,281.775,466.488,281.775z M510.532,280.104c-0.441,0-0.934-0.049-1.376-0.099
		c-0.591-0.098-0.982-0.59-0.886-1.18c0.099-0.59,0.59-0.934,1.181-0.885c0.59,0.098,1.229,0.098,1.818,0.049
		c0.59-0.049,1.082,0.394,1.131,0.934c0.049,0.59-0.394,1.082-0.935,1.131C511.122,280.104,510.827,280.104,510.532,280.104z
		 M515.155,278.826c-0.345,0-0.688-0.197-0.885-0.492c-0.295-0.492-0.146-1.13,0.344-1.425c0.541-0.295,0.983-0.688,1.426-1.082
		c0.395-0.393,1.081-0.393,1.476,0.049c0.394,0.394,0.394,1.082-0.049,1.475c-0.541,0.541-1.181,0.983-1.819,1.376
		C515.547,278.777,515.351,278.826,515.155,278.826z M461.277,278.629c-0.196,0-0.394-0.049-0.54-0.147
		c-0.64-0.393-1.229-0.885-1.771-1.425c-0.394-0.394-0.394-1.082,0-1.475s1.082-0.393,1.476,0c0.441,0.442,0.885,0.787,1.425,1.131
		c0.492,0.295,0.641,0.934,0.295,1.425C461.965,278.433,461.62,278.629,461.277,278.629z M505.47,278.58
		c-0.196,0-0.345-0.049-0.54-0.147l-1.771-1.032c-0.49-0.295-0.639-0.934-0.344-1.425c0.295-0.491,0.934-0.639,1.426-0.344
		l1.771,1.032c0.491,0.295,0.639,0.934,0.344,1.426C506.157,278.384,505.815,278.58,505.47,278.58z M500.209,275.483
		c-0.195,0-0.344-0.049-0.54-0.147l-1.771-1.032c-0.491-0.295-0.639-0.934-0.344-1.426s0.934-0.639,1.426-0.344l1.77,1.033
		c0.491,0.295,0.64,0.934,0.345,1.425C500.899,275.287,500.554,275.483,500.209,275.483z M519.577,274.599
		c-0.245,0-0.49-0.099-0.688-0.295c-0.395-0.394-0.443-1.032-0.05-1.475l1.377-1.475c0.393-0.442,1.031-0.442,1.475-0.049
		c0.395,0.395,0.442,1.033,0.049,1.475l-1.376,1.475C520.118,274.5,519.872,274.599,519.577,274.599z M457.59,273.861
		c-0.442,0-0.836-0.295-0.983-0.688c-0.246-0.737-0.394-1.475-0.491-2.212c-0.05-0.59,0.344-1.082,0.935-1.131
		c0.59-0.049,1.082,0.344,1.131,0.934c0.049,0.59,0.196,1.18,0.394,1.77c0.196,0.541-0.099,1.131-0.64,1.328
		C457.785,273.861,457.688,273.861,457.59,273.861z M494.901,272.386c-0.196,0-0.344-0.049-0.54-0.146l-1.77-1.032
		c-0.492-0.295-0.641-0.934-0.346-1.425c0.296-0.492,0.936-0.639,1.427-0.344l1.77,1.032c0.492,0.295,0.641,0.934,0.345,1.425
		C495.639,272.189,495.294,272.386,494.901,272.386z M523.707,270.125c-0.196,0-0.441-0.049-0.64-0.196
		c-0.442-0.344-0.541-0.983-0.196-1.426c0.345-0.492,0.688-1.032,0.886-1.573c0.246-0.541,0.836-0.737,1.376-0.541
		c0.541,0.246,0.737,0.835,0.541,1.376c-0.295,0.688-0.688,1.376-1.131,1.966C524.347,269.978,524.052,270.125,523.707,270.125z
		 M489.641,269.24c-0.196,0-0.344-0.049-0.54-0.147l-1.771-1.032c-0.49-0.295-0.639-0.934-0.344-1.426
		c0.295-0.491,0.935-0.639,1.426-0.344l1.771,1.032c0.491,0.295,0.639,0.934,0.344,1.425
		C490.328,269.093,489.986,269.24,489.641,269.24z M457.639,267.864c-0.098,0-0.246,0-0.344-0.049
		c-0.541-0.196-0.836-0.786-0.641-1.327c0.246-0.737,0.591-1.376,1.032-2.016c0.295-0.491,0.935-0.639,1.426-0.295
		c0.492,0.295,0.641,0.934,0.295,1.426c-0.344,0.492-0.59,1.032-0.786,1.622C458.426,267.618,458.031,267.864,457.639,267.864z
		 M484.381,266.144c-0.196,0-0.345-0.049-0.541-0.148l-1.771-1.032c-0.491-0.295-0.639-0.934-0.344-1.425
		c0.295-0.492,0.934-0.639,1.426-0.344l1.771,1.032c0.49,0.295,0.639,0.934,0.344,1.425
		C485.07,265.947,484.725,266.144,484.381,266.144z M525.478,264.374c-0.541,0-1.032-0.442-1.032-0.983
		c0-0.59-0.099-1.229-0.246-1.77c-0.146-0.541,0.196-1.13,0.737-1.278c0.541-0.148,1.131,0.196,1.278,0.737
		c0.195,0.737,0.295,1.475,0.344,2.261C526.559,263.882,526.115,264.324,525.478,264.374L525.478,264.374z M479.12,263.046
		c-0.195,0-0.344-0.049-0.541-0.147l-1.77-1.033c-0.491-0.295-0.639-0.934-0.344-1.425c0.295-0.491,0.934-0.639,1.426-0.344
		l1.77,1.032c0.491,0.295,0.64,0.934,0.345,1.426C479.81,262.85,479.465,263.046,479.12,263.046z M461.178,262.948
		c-0.245,0-0.491-0.099-0.688-0.295c-0.441-0.394-0.441-1.033-0.05-1.475l1.278-1.376l0.836,0.59l0.737,0.737l-1.377,1.475
		C461.769,262.85,461.473,262.948,461.178,262.948z M473.812,259.9c-0.147,0-0.344-0.049-0.491-0.147
		c-0.541-0.344-1.081-0.59-1.672-0.738c-0.54-0.196-0.835-0.737-0.639-1.327c0.197-0.541,0.736-0.835,1.327-0.639
		c0.688,0.246,1.377,0.541,2.016,0.885c0.491,0.295,0.688,0.934,0.394,1.426C474.5,259.753,474.156,259.9,473.812,259.9z
		 M465.947,259.212c-0.441,0-0.835-0.246-0.981-0.688c-0.197-0.541,0.049-1.13,0.59-1.327c0.688-0.246,1.475-0.442,2.212-0.541
		c0.59-0.098,1.081,0.295,1.18,0.885c0.1,0.59-0.295,1.082-0.885,1.18c-0.59,0.099-1.18,0.246-1.771,0.442
		C466.193,259.212,466.094,259.212,465.947,259.212z M523.315,258.77c-0.295,0-0.59-0.098-0.787-0.344
		c-0.393-0.442-0.835-0.885-1.327-1.229c-0.441-0.344-0.54-0.983-0.195-1.425c0.344-0.443,0.982-0.541,1.426-0.197
		c0.59,0.442,1.18,0.983,1.671,1.524c0.394,0.442,0.345,1.082-0.098,1.475C523.806,258.671,523.561,258.77,523.315,258.77z
		 M518.3,255.279c-0.196,0-0.345-0.049-0.54-0.147l-1.771-1.032c-0.492-0.295-0.64-0.934-0.345-1.426
		c0.295-0.492,0.935-0.639,1.426-0.344l1.771,1.033c0.492,0.295,0.64,0.934,0.345,1.425
		C519.036,255.083,518.694,255.279,518.3,255.279z M513.039,252.133c-0.195,0-0.344-0.049-0.539-0.147l-1.771-1.033
		c-0.491-0.295-0.639-0.934-0.344-1.425c0.295-0.491,0.934-0.639,1.426-0.344l1.77,1.032c0.491,0.295,0.64,0.934,0.345,1.426
		C513.729,251.986,513.385,252.133,513.039,252.133z M507.781,249.036c-0.196,0-0.344-0.049-0.541-0.147l-1.77-1.032
		c-0.491-0.295-0.64-0.934-0.344-1.426c0.295-0.491,0.934-0.639,1.426-0.344l1.77,1.032c0.491,0.295,0.64,0.934,0.345,1.425
		C508.469,248.839,508.123,249.036,507.781,249.036z M502.521,245.939c-0.196,0-0.345-0.049-0.541-0.148l-1.77-1.032
		c-0.491-0.295-0.64-0.934-0.345-1.425c0.295-0.492,0.935-0.639,1.426-0.344l1.771,1.032c0.491,0.295,0.639,0.934,0.344,1.426
		C503.209,245.743,502.865,245.939,502.521,245.939z M497.211,242.793c-0.196,0-0.345-0.049-0.54-0.147l-1.771-1.032
		c-0.491-0.295-0.639-0.934-0.344-1.426c0.295-0.491,0.935-0.639,1.426-0.344l1.771,1.032c0.491,0.295,0.639,0.934,0.344,1.425
		C497.948,242.646,497.605,242.793,497.211,242.793z"/>
	<path fill="#AD9DE3" d="M491.854,239.647c-0.197,0-0.345-0.049-0.541-0.147l-0.885-0.541c-0.492-0.295-0.641-0.934-0.346-1.425
		c0.296-0.492,0.936-0.639,1.427-0.344l0.885,0.541c0.492,0.295,0.64,0.934,0.345,1.426
		C492.591,239.45,492.245,239.647,491.854,239.647z"/>
</g>
<path fill="#AD9DE3" d="M544.551,304.684c-0.541,0-0.983-0.394-1.032-0.934c-0.049-0.59,0.344-1.082,0.934-1.131
	c0.641-0.049,1.229-0.197,1.868-0.393c0.541-0.197,1.131,0.098,1.327,0.639c0.197,0.541-0.098,1.131-0.639,1.328
	c-0.737,0.246-1.476,0.393-2.263,0.492C544.6,304.684,544.551,304.684,544.551,304.684z M540.371,304.29
	c-0.098,0-0.195,0-0.295-0.049c-0.736-0.246-1.475-0.541-2.112-0.934c-0.492-0.295-0.688-0.934-0.395-1.426
	c0.294-0.492,0.935-0.688,1.427-0.393c0.541,0.295,1.131,0.59,1.721,0.786c0.54,0.197,0.835,0.737,0.688,1.278
	C541.207,303.995,540.815,304.29,540.371,304.29z M550.203,302.176c-0.295,0-0.541-0.098-0.785-0.344
	c-0.395-0.442-0.346-1.081,0.098-1.475c0.441-0.442,0.885-0.885,1.278-1.426c0.344-0.442,0.982-0.541,1.426-0.246
	c0.441,0.344,0.54,0.983,0.245,1.426c-0.442,0.639-0.982,1.229-1.572,1.72C550.696,302.078,550.449,302.176,550.203,302.176z
	 M535.309,300.652c-0.295,0-0.639-0.147-0.835-0.442c-0.442-0.639-0.836-1.278-1.181-2.016c-0.245-0.541,0-1.13,0.491-1.376
	c0.541-0.246,1.131,0,1.376,0.492c0.246,0.59,0.59,1.131,0.936,1.622c0.344,0.442,0.246,1.131-0.197,1.426
	C535.752,300.604,535.555,300.652,535.309,300.652z M553.301,296.769c-0.049,0-0.147,0-0.196,0
	c-0.541-0.099-0.935-0.688-0.787-1.229c0.147-0.59,0.197-1.229,0.197-1.868c0-0.59,0.442-1.082,1.032-1.082s1.031,0.394,1.031,0.983
	h-1.031l1.031,0.098c0,0.787-0.099,1.573-0.245,2.311C554.236,296.425,553.793,296.769,553.301,296.769z M533.392,294.704
	c-0.59,0-1.032-0.442-1.032-1.032h1.032h-1.032c0-0.787,0.1-1.573,0.246-2.311c0.098-0.541,0.688-0.934,1.229-0.786
	c0.541,0.098,0.935,0.639,0.786,1.229c-0.099,0.59-0.196,1.229-0.196,1.819C534.424,294.213,533.933,294.704,533.392,294.704z
	 M552.614,290.477c-0.394,0-0.787-0.246-0.935-0.59c-0.246-0.59-0.59-1.131-0.983-1.622c-0.344-0.442-0.245-1.131,0.197-1.426
	c0.442-0.344,1.081-0.246,1.425,0.197c0.442,0.639,0.836,1.278,1.182,2.015c0.244,0.541,0,1.131-0.492,1.377
	C552.907,290.477,552.76,290.477,552.614,290.477z M535.26,288.805c-0.196,0-0.442-0.049-0.59-0.197
	c-0.442-0.344-0.591-0.983-0.246-1.425c0.441-0.639,0.982-1.229,1.523-1.721c0.442-0.393,1.081-0.344,1.476,0.049
	c0.394,0.442,0.344,1.082-0.05,1.475c-0.441,0.442-0.885,0.885-1.229,1.426C535.899,288.658,535.555,288.805,535.26,288.805z
	 M548.385,285.905c-0.196,0-0.344-0.049-0.491-0.147c-0.541-0.295-1.131-0.541-1.721-0.737c-0.54-0.147-0.836-0.737-0.688-1.278
	s0.738-0.836,1.278-0.688c0.737,0.246,1.475,0.541,2.114,0.934c0.49,0.295,0.688,0.934,0.393,1.425
	C549.122,285.708,548.779,285.905,548.385,285.905z M540.275,285.118c-0.442,0-0.836-0.295-0.982-0.688
	c-0.197-0.541,0.098-1.131,0.639-1.327c0.737-0.246,1.475-0.394,2.262-0.492c0.541-0.049,1.081,0.344,1.131,0.934
	s-0.345,1.082-0.935,1.13c-0.639,0.049-1.229,0.197-1.818,0.394C540.471,285.118,540.371,285.118,540.275,285.118z"/>
<path fill="#F0B8A8" d="M603.639,236.206c-2.949,4.67-5.997,8.603-8.75,11.798c-10.667,12.388-22.22,22.662-22.22,22.662
	s-9.29,10.323-11.65,12.683c-2.31,2.359-4.62,14.748-6.439,13.42c-1.817-1.278,0.786-12.683,0.786-12.683s-5.702,9.586-8.553,9.291
	c-2.655-0.246-0.295-4.179-0.05-4.572c-0.59,0.393-5.653,3.785-6.146,2.802c-0.49-0.983,2.999-6.637,3.344-7.177
	c-0.491,0.442-5.407,4.769-5.653,2.802c-0.246-2.016,11.159-14.699,11.848-15.485c-0.64,0.394-7.325,4.769-10.568,2.311
	c-3.394-2.605-1.573-2.359-1.573-2.359s7.767-2.556,11.896-5.653c4.13-3.097,8.8-5.948,8.8-5.948l23.056-36.131
	C592.037,226.03,598.87,228.931,603.639,236.206z"/>
<path fill="#0D0E12" d="M517.955,328.476c-0.441,0-0.885-0.295-0.982-0.737c-0.147-0.541,0.146-1.131,0.737-1.278l28.609-7.915
	c0.541-0.147,1.131,0.147,1.278,0.737c0.146,0.541-0.147,1.131-0.737,1.278l-28.609,7.915
	C518.153,328.427,518.055,328.476,517.955,328.476z"/>
<path fill="#F39797" d="M585.99,296.179c-0.49,0-0.885-0.344-0.982-0.787c-0.147-0.541,0.246-1.131,0.787-1.229l28.953-6.44
	c0.541-0.147,1.132,0.246,1.229,0.787c0.147,0.541-0.245,1.131-0.786,1.229l-28.954,6.439
	C586.139,296.179,586.09,296.179,585.99,296.179z"/>
<path fill="#F39797" d="M593.021,312.745c-0.393,0-0.737-0.196-0.934-0.59c-0.246-0.541,0-1.13,0.49-1.376l26.842-12.633
	c0.541-0.246,1.131,0,1.376,0.491c0.245,0.541,0,1.131-0.491,1.376l-26.841,12.683C593.316,312.696,593.168,312.745,593.021,312.745
	z"/>
<path fill="#AD9DE3" d="M601.868,328.279c-0.344,0-0.688-0.197-0.885-0.541c-0.295-0.492-0.098-1.131,0.395-1.426l25.71-14.846
	c0.49-0.295,1.131-0.098,1.426,0.393c0.295,0.492,0.098,1.131-0.395,1.426l-25.71,14.846
	C602.214,328.23,602.017,328.279,601.868,328.279z"/>
<path fill="#F39797" d="M612.98,344.796c-0.246,0-0.541-0.098-0.737-0.295c-0.394-0.393-0.394-1.081,0-1.475l20.99-20.991
	c0.395-0.393,1.081-0.393,1.475,0c0.395,0.394,0.395,1.082,0,1.475l-20.989,20.99C613.52,344.698,613.275,344.796,612.98,344.796z"
	/>
<path fill="#AD9DE3" d="M629.005,357.824c-0.196,0-0.395-0.049-0.591-0.147c-0.49-0.295-0.59-0.934-0.295-1.426l16.37-24.776
	c0.295-0.492,0.935-0.59,1.425-0.295c0.492,0.295,0.591,0.934,0.295,1.426l-16.368,24.776
	C629.694,357.627,629.349,357.824,629.005,357.824z"/>
<path fill="#AD9DE3" d="M495.244,428.219c-0.295,0-0.59-0.146-0.836-0.394c-0.344-0.442-0.295-1.082,0.196-1.476l23.399-18.287
	c0.441-0.344,1.082-0.295,1.476,0.196c0.344,0.442,0.295,1.082-0.197,1.476l-23.398,18.287
	C495.688,428.169,495.442,428.219,495.244,428.219z"/>
<path fill="#2E2E2E" d="M442.302,295.638c-0.345,0-0.688-0.147-0.886-0.492l-16.025-24.972c-0.295-0.492-0.147-1.131,0.295-1.426
	c0.492-0.295,1.131-0.147,1.426,0.295l16.075,24.973c0.295,0.492,0.147,1.13-0.295,1.425
	C442.695,295.589,442.497,295.638,442.302,295.638z"/>
<path fill="#AD9DE3" d="M558.365,259.802c3.736,0.197,13.125,4.522,14.256,11.847l1.476-1.278c0.59-0.492,0.787-1.328,0.441-2.016
	c-0.785-1.573-2.556-4.375-6.242-7.03c-3.44-2.507-5.997-3.343-7.424-3.638c-0.688-0.147-1.426,0.197-1.77,0.787L558.365,259.802z"
	/>
<g>
	<path fill="#0D0E12" d="M450.069,220.426c-1.18,0-2.261-0.59-2.899-1.573l-7.424-11.7c-0.49-0.787-0.639-1.671-0.441-2.556
		c0.196-0.885,0.737-1.623,1.475-2.114l32.102-20.352c0.541-0.344,1.18-0.541,1.818-0.541c1.181,0,2.262,0.59,2.9,1.573l7.422,11.7
		c0.983,1.573,0.541,3.687-1.032,4.67l-32.1,20.352C451.347,220.229,450.707,220.426,450.069,220.426z"/>
	<path fill="#242638" d="M474.745,182.328c0.935,0,1.771,0.442,2.262,1.229l7.423,11.7c0.787,1.229,0.394,2.9-0.835,3.687
		l-32.102,20.352c-0.441,0.246-0.935,0.393-1.426,0.393c-0.934,0-1.77-0.442-2.262-1.229l-7.422-11.7
		c-0.787-1.229-0.395-2.9,0.835-3.687l32.101-20.352C473.763,182.427,474.254,182.328,474.745,182.328z M474.745,180.854
		c-0.736,0-1.523,0.197-2.212,0.639l-32.101,20.352c-1.917,1.229-2.507,3.785-1.278,5.702l7.423,11.7
		c0.787,1.229,2.114,1.917,3.49,1.917c0.737,0,1.524-0.196,2.212-0.639l32.102-20.352c1.917-1.229,2.507-3.785,1.277-5.703
		l-7.423-11.7C477.448,181.493,476.121,180.804,474.745,180.854z"/>
</g>
<g>
	<path fill="#0D0E12" d="M373.726,491.682c-1.081,0-2.114-0.295-3.048-0.836l-38.394-22.17c-1.426-0.836-2.458-2.163-2.852-3.735
		c-0.442-1.622-0.196-3.244,0.59-4.671l15.092-26.104c1.082-1.917,3.146-3.097,5.358-3.097c1.081,0,2.114,0.295,3.048,0.836
		l38.393,22.17c1.427,0.836,2.458,2.163,2.853,3.735c0.441,1.573,0.196,3.244-0.59,4.671l-15.092,26.104
		C378.002,490.502,375.938,491.682,373.726,491.682z"/>
	<path fill="#0D0E12" d="M350.523,432.249c0.885,0,1.721,0.246,2.458,0.64l38.393,22.17c2.36,1.377,3.195,4.426,1.819,6.833
		l-15.092,26.104c-0.885,1.523-2.557,2.507-4.326,2.507c-0.885,0-1.721-0.246-2.458-0.639l-38.393-22.171
		c-2.359-1.376-3.195-4.425-1.818-6.833l15.092-26.104C347.031,433.232,348.703,432.249,350.523,432.249z M350.474,429.89
		c-2.558,0-5.014,1.327-6.392,3.688l-15.092,26.104c-2.016,3.49-0.835,8.014,2.704,10.028l38.394,22.17
		c1.131,0.688,2.407,0.983,3.638,0.983c2.557,0,5.014-1.327,6.391-3.688l15.093-26.104c2.016-3.49,0.835-8.014-2.704-10.028
		l-38.394-22.17C352.981,430.233,351.752,429.89,350.474,429.89z"/>
</g>
<path fill="#0D0E12" d="M251.42,193.782c-3.934,8.455-14.698,12.634-17.451,13.567c-3.343-5.161-5.555-8.799-5.555-8.799
	l-19.123-36.967C222.121,161.583,237.853,171.907,251.42,193.782z"/>
<path fill="#F8C4C4" d="M198.477,140.445c-0.737,5.899-1.818,22.613-1.818,22.613s13.075,18.435,20.352,17.107
	c7.275-1.327,2.064-16.812,2.064-16.812l-1.327-23.547L198.477,140.445z"/>
<path fill="#F8C4C4" d="M293.008,234.436l-4.67,14.453c0,0-27.382-5.407-37.213-17.304c-5.752-6.932-12.535-17.058-17.205-24.284
	c2.752-0.934,13.566-5.112,17.451-13.568c0.344,0.541,0.688,1.082,1.031,1.671c13.666,23.006,23.007,29.692,23.007,29.692
	L293.008,234.436z"/>
<path fill="#0D0E12" d="M202.655,224.801c-6.241,4.867-18.482,8.897-28.068,9.389c-0.835-2.409-1.523-4.67-2.064-6.686
	c-3.884-14.453-5.161-28.168,4.425-32.838c9.241-4.522,21.434,6.44,25.316,27.922C202.409,223.326,202.507,224.063,202.655,224.801z
	"/>
<path fill="#F8C4C4" d="M230.43,120.88c-0.146,13.469,1.13,25.808-10.127,28.414c-11.258,2.605-18.729-9.242-20.008-16.665
	s-3.588-23.94,9.685-25.956C223.252,104.658,230.528,112.13,230.43,120.88z"/>
<g opacity="0.17">
	<g>
		<path fill="#134C83" d="M230.43,120.88c0,0.295,0,0.541,0,0.835c-10.274,0.639-18.091-10.225-18.091-10.225l15.189,0.59
			C229.495,114.539,230.479,117.636,230.43,120.88z"/>
	</g>
	<g>
		<path fill="#4B4B4B" d="M230.43,120.88c0,0.295,0,0.541,0,0.835c-10.274,0.639-18.091-10.225-18.091-10.225l15.189,0.59
			C229.495,114.539,230.479,117.636,230.43,120.88z"/>
	</g>
</g>
<path fill="#F39797" d="M207.817,134.546c0.395,2.261,2.558,3.785,4.866,3.392c2.262-0.394,3.785-2.557,3.394-4.867
	c-0.395-2.261-2.558-3.785-4.867-3.392C208.948,130.122,207.423,132.285,207.817,134.546z"/>
<path fill="#F39797" d="M81.185,261.276c0.491,2.704,3.048,4.523,5.751,4.031c2.704-0.492,4.523-3.048,4.031-5.751
	c-0.491-2.704-3.048-4.523-5.751-4.031C82.512,255.967,80.694,258.573,81.185,261.276z"/>
<path fill="#F39797" d="M230.38,130.663c-1.966,0.639-3.244,2.605-2.852,4.719c0.245,1.328,1.081,2.409,2.162,2.95
	C230.134,135.972,230.331,133.416,230.38,130.663z"/>
<path fill="#242638" d="M214.797,127.074c0.099,0.344,0.491,0.59,0.885,0.442c0.344-0.098,0.59-0.491,0.442-0.885
	c-0.1-0.344-0.491-0.59-0.886-0.442C214.845,126.337,214.65,126.73,214.797,127.074z"/>
<path fill="#242638" d="M228.021,127.566c0.1,0.344,0.491,0.59,0.885,0.442c0.345-0.098,0.591-0.492,0.442-0.885
	c-0.099-0.344-0.491-0.59-0.885-0.442C228.069,126.829,227.873,127.222,228.021,127.566z"/>
<path fill="#0D0E12" d="M220.745,123.142c-2.263-2.359-6.784-2.261-9.045-0.197C216.321,122.502,217.796,122.699,220.745,123.142z"
	/>
<path fill="#0D0E12" d="M230.43,122.945c-0.05,1.77,0.737,1.082-4.277,1.18C227.382,123.191,228.906,122.896,230.43,122.945z"/>
<polygon fill="#F39797" points="222.416,127.32 225.317,133.809 220.893,133.367 "/>
<path fill="#C4D0DE" d="M236.869,116.358c-4.277,2.114-13.766,0-16.174-1.18c-2.408-1.18-8.356-3.687-8.356-3.687
	s-1.327,5.358-4.129,7.374c-2.803,2.065-3.884,1.033-4.425,3.245c-0.54,2.212,0.441,6.341,0.441,6.341l-4.375-0.295l2.753,10.815
	c0,0-6.637,7.226-8.013,2.9c-1.376-4.375-0.59-27.824,3.884-33.182c4.475-5.358,9.34-3.687,9.34-3.687s2.017-8.308,9.686-7.767
	c7.668,0.541,7.324,5.702,12.437,5.751c5.113,0.049,9.881-1.278,12.144,3.441C244.243,111.196,240.507,114.588,236.869,116.358z"/>
<g>
	<path fill="#F8C4C4" d="M201.967,136.66c-4.67,0.639-8.75-1.229-9.537-6.587c-0.737-5.162,2.654-8.308,7.325-8.947L201.967,136.66z
		"/>
	<path fill="#F39797" d="M201.426,132.924c-2.605,0.393-4.916-0.541-5.26-3.195c-0.346-2.556,1.572-4.179,4.179-4.523
		L201.426,132.924z"/>
</g>
<path fill="#C4D0DE" d="M207.768,105.002c-6.686-2.458-20.105,3.884-21.63,18.582c-1.524,14.649-8.357,15.977-12.781,20.106
	c-4.474,4.129-8.259,14.748-4.424,19.663c3.834,4.916,5.014,9.93,2.162,15.485c-2.851,5.555,0.983,12.929,6.686,14.403
	c5.703,1.426,7.03,9.685,14.158,8.456c7.178-1.229,10.667-8.898,7.373-14.061c-3.293-5.162-4.67-11.995-0.835-15.729
	c3.834-3.736,4.325-8.504,2.312-12.142c-2.017-3.638-1.427-7.472,2.063-13.568c4.77-8.406-4.916-7.668-5.162-11.65
	c-0.295-5.063,6.538-2.163,8.111-9.045C207.374,118.619,207.768,105.002,207.768,105.002z"/>
<path fill="#CCECEF" d="M223.744,139.314c-0.592,1.475-2.655,1.573-4.081,0.934c-1.426-0.59-2.899-2.015-2.262-3.49
	c0.591-1.475,1.573-0.688,3.688,0.197C223.203,137.791,224.334,137.84,223.744,139.314z"/>
<path fill="#0D0E12" d="M291.828,272.78l-31.167,11.65c-2.654,0.983-4.474-0.688-4.03-3.785l7.865-55.156
	c0.441-3.097,2.948-6.391,5.652-7.374l31.166-11.602c2.654-0.983,4.475,0.688,4.031,3.785l-7.865,55.156
	C297.039,268.503,294.531,271.796,291.828,272.78z"/>
<path fill="#8F8479" d="M257.909,281.775l7.864-55.155c0.442-3.097,2.949-6.391,5.653-7.374l31.166-11.601
	c0.934-0.344,1.721-0.344,2.409-0.099c-0.641-1.229-1.967-1.72-3.688-1.082l-31.166,11.602c-2.653,0.983-5.211,4.277-5.652,7.374
	l-7.865,55.156c-0.295,2.016,0.393,3.392,1.622,3.884C257.909,283.84,257.762,282.906,257.909,281.775z"/>
<path fill="#F8C4C4" d="M300.824,242.301c2.261,0.787,6.979,5.358,5.357,9.291c-1.623,3.982-2.753,6.194-5.408,6.538
	c-2.653,0.344-5.406,0.59-5.26-0.098c0.197-0.688,3.884-1.819,3.884-1.819s-4.474,0.934-6.538,0.885
	c-2.063-0.098-1.622-1.622-0.688-1.721c0.935-0.098,7.325-2.064,7.325-2.064s-6.392,1.229-7.669,1.13
	c-1.278-0.098-0.886-1.278,0-1.622c0.885-0.344,7.815-2.312,7.815-2.312s-6.538,1.622-7.227,0.688
	c-0.688-0.934,7.324-3.097,7.767-4.375C300.578,245.497,300.824,242.301,300.824,242.301z"/>
<path fill="#F8C4C4" d="M271.477,269.29c-0.196-0.541-0.885-0.197-0.885-0.197s1.229-1.426,0.885-2.016
	c-0.295-0.59-0.982,0.049-0.982,0.049s1.426-1.868,1.229-2.212s-0.738-0.344-1.721,0.541c-0.983,0.885-4.67,2.654-4.67,2.654
	s4.62-3.49,4.719-3.981c0.049-0.295,0-0.541-0.246-0.688c-0.491,0-1.081,0.099-1.671,0.492c-3.884,2.359-9.635,5.506-9.635,5.506
	l0.195-3.884c0,0-3.638,5.948-14.551,4.818c-7.227-0.738-30.231-9.291-30.231-9.291s-7.228-15.878-11.208-36.279
	c-6.243,4.867-18.483,8.898-28.069,9.39c4.965,14.748,14.698,35.247,25.365,43.456c12.388,9.537,31.806,10.569,43.651,8.799
	c11.308-1.721,21.681-7.718,26.005-12.732C270.542,272.042,271.624,269.732,271.477,269.29z"/>
<path fill="#0D0E12" d="M73.516,251.937l4.67,1.868c0,0,0.147-6.096,4.572-8.062c3.195-1.426,2.556-8.849,6.979-7.521
	c2.508,0.737,9.046,1.868,14.206,0.787c5.408-1.131,5.899-2.753,5.899-2.753s9.192-14.895-4.769-15.436
	c-12.24-0.442-26.645,2.016-30.625,11.061C69.19,243.727,73.516,251.937,73.516,251.937z"/>
<path fill="#242638" d="M93.179,258.032c-5.309,0-6.243-2.95-6.341-4.719c-0.05-0.836,0.246-1.966,1.868-2.802
	c1.031-0.541,2.458-0.885,4.178-0.934c3.884-0.197,6.342,1.032,6.44,3.244c0.049,1.278-0.395,2.556-1.278,3.49
	c-0.737,0.787-2.212,1.77-4.77,1.77C93.229,258.032,93.229,258.032,93.179,258.032z M93.621,250.609c-0.245,0-0.442,0-0.688,0
	c-1.573,0.098-2.852,0.344-3.736,0.835c-0.884,0.491-1.326,1.082-1.277,1.819c0.099,2.458,1.917,3.736,5.26,3.736
	c0.05,0,0.05,0,0.099,0c1.722,0,3.098-0.492,3.981-1.426c0.688-0.737,1.033-1.721,0.983-2.704c-0.05-0.737-0.54-1.328-1.523-1.721
	C95.982,250.757,94.851,250.609,93.621,250.609z"/>
<path fill="#242638" d="M99.03,253.264l-0.441-0.983c1.475-0.639,4.129-0.295,4.228-0.295l-0.146,1.032
	C102.028,252.969,100.012,252.821,99.03,253.264z"/>
<path fill="#242638" d="M87.232,253.166c-3.786-2.409-12.044-6.391-13.126-5.948c-0.885,0.737-0.836,1.819-0.836,1.868l-1.081,0.049
	c0-0.049-0.099-1.622,1.229-2.752c1.817-1.573,14.256,5.8,14.354,5.899L87.232,253.166z"/>
<g>
	<path fill="#F6B1B1" d="M77.596,266.34c-5.604,0.787-10.568-1.475-11.454-7.915c-0.885-6.243,3.245-9.979,8.8-10.766L77.596,266.34
		z"/>
	<path fill="#F39797" d="M76.957,261.817c-3.146,0.442-5.899-0.639-6.343-3.834c-0.441-3.097,1.918-5.014,5.016-5.457
		L76.957,261.817z"/>
</g>
<path fill="#242638" d="M95.244,253.067c0,0.442-0.346,0.786-0.787,0.786c-0.442,0-0.786-0.344-0.786-0.786s0.344-0.787,0.786-0.787
	C94.899,252.28,95.244,252.625,95.244,253.067z"/>
<path fill="#242638" d="M109.205,252.379c0,0.442-0.346,0.787-0.787,0.787c-0.442,0-0.786-0.344-0.786-0.787
	c0-0.443,0.344-0.787,0.786-0.787C108.86,251.592,109.205,251.937,109.205,252.379z"/>
<polygon fill="#F39797" points="100.652,252.821 105.764,263.096 99.668,263.096 "/>
<path fill="#0D0E12" d="M89.935,248.839c1.573-0.688,3.244-0.835,4.867-0.737c1.622,0.098,3.244,0.394,4.768,1.278
	c-1.671,0.393-3.243,0.393-4.865,0.344C93.13,249.577,91.557,249.43,89.935,248.839z"/>
<path fill="#0D0E12" d="M101.094,249.085c1.475-0.934,3.048-1.376,4.67-1.573c1.622-0.147,3.294-0.147,4.916,0.442
	c-1.573,0.639-3.146,0.934-4.72,1.131C104.388,249.282,102.815,249.38,101.094,249.085z"/>
<path fill="#242638" d="M108.123,256.803c-5.015,0-5.997-2.851-6.097-4.572c-0.049-0.836,0.197-1.966,1.771-2.851
	c1.033-0.541,2.458-0.934,4.13-1.032c1.671-0.147,3.195,0.049,4.326,0.491c1.72,0.639,2.163,1.77,2.212,2.605
	c0.099,1.278-0.345,2.556-1.229,3.54c-0.736,0.835-2.161,1.819-4.719,1.917C108.418,256.803,108.271,256.803,108.123,256.803z
	 M109.008,249.331c-0.344,0-0.639,0-0.982,0.049c-1.523,0.098-2.852,0.442-3.735,0.934c-0.886,0.491-1.278,1.081-1.229,1.868
	c0.197,2.458,2.065,3.736,5.457,3.589c1.721-0.049,3.098-0.59,3.981-1.524c0.688-0.737,1.031-1.721,0.935-2.753
	c-0.05-0.737-0.59-1.327-1.523-1.671C111.122,249.479,110.139,249.331,109.008,249.331z"/>
<g>
	
		<rect x="223.205" y="294.683" transform="matrix(0.0305 -0.9995 0.9995 0.0305 -93.3664 581.4881)" fill="#F39797" width="59.723" height="88.38"/>
	<path fill="#F39797" d="M289.419,350.204c-0.295,0-0.54-0.246-0.491-0.541l0.541-18.483c0-0.295,0.196-0.541,0.54-0.492
		c0.295,0,0.492,0.246,0.492,0.541l-0.541,18.483C289.96,350.007,289.714,350.204,289.419,350.204z"/>
	<path fill="#F39797" d="M279.784,361.314c-0.296,0-0.541-0.246-0.491-0.541l1.276-41.49c0-0.295,0.197-0.541,0.541-0.491
		c0.295,0,0.492,0.246,0.492,0.541l-1.277,41.49C280.325,361.068,280.079,361.314,279.784,361.314z"/>
	<path fill="#F39797" d="M275.262,361.167c-0.295,0-0.541-0.246-0.491-0.541l1.277-41.49c0-0.295,0.246-0.491,0.541-0.491
		s0.491,0.246,0.491,0.541l-1.277,41.44C275.803,360.92,275.557,361.167,275.262,361.167z"/>
	<path fill="#F39797" d="M270.74,361.019c-0.295,0-0.54-0.246-0.491-0.541l1.277-41.49c0-0.295,0.197-0.491,0.541-0.491
		c0.295,0,0.491,0.246,0.491,0.541l-1.277,41.49C271.281,360.773,271.034,361.019,270.74,361.019z"/>
	<path fill="#F39797" d="M266.217,360.872c-0.295,0-0.541-0.246-0.492-0.541l1.278-41.49c0-0.295,0.196-0.491,0.541-0.491
		c0.295,0,0.491,0.246,0.491,0.541l-1.278,41.49C266.757,360.675,266.512,360.872,266.217,360.872z"/>
	<path fill="#F39797" d="M261.695,360.724c-0.295,0-0.541-0.246-0.491-0.541l1.277-41.49c0-0.295,0.246-0.491,0.541-0.491
		s0.491,0.246,0.491,0.541l-1.278,41.49C262.235,360.527,261.99,360.724,261.695,360.724z"/>
	<path fill="#F39797" d="M257.171,360.625c-0.295,0-0.54-0.246-0.491-0.541l1.278-41.49c0-0.295,0.195-0.541,0.541-0.492
		c0.295,0,0.49,0.246,0.49,0.541l-1.277,41.489C257.712,360.38,257.466,360.625,257.171,360.625z"/>
	<path fill="#F39797" d="M252.649,360.478c-0.295,0-0.54-0.246-0.49-0.541l1.277-41.44c0-0.295,0.196-0.492,0.54-0.492
		c0.296,0,0.492,0.246,0.492,0.541l-1.278,41.44C253.19,360.232,252.944,360.478,252.649,360.478z"/>
	<path fill="#F39797" d="M248.126,360.331c-0.295,0-0.54-0.246-0.491-0.541l1.278-41.49c0-0.295,0.245-0.492,0.54-0.492
		s0.541,0.246,0.491,0.541l-1.277,41.489C248.667,360.085,248.421,360.331,248.126,360.331z"/>
	<path fill="#F39797" d="M243.604,360.183c-0.295,0-0.541-0.246-0.491-0.541l1.278-41.49c0-0.295,0.196-0.492,0.54-0.492
		c0.295,0,0.492,0.246,0.492,0.541l-1.278,41.489C244.145,359.986,243.899,360.183,243.604,360.183z"/>
	<path fill="#F39797" d="M239.081,360.036c-0.295,0-0.541-0.246-0.491-0.541l1.277-41.49c0-0.295,0.196-0.492,0.541-0.492
		c0.295,0,0.491,0.246,0.491,0.541l-1.277,41.489C239.622,359.839,239.376,360.036,239.081,360.036z"/>
	<path fill="#F39797" d="M234.559,359.938c-0.295,0-0.541-0.246-0.491-0.541l1.277-41.489c0-0.295,0.246-0.492,0.541-0.492
		s0.541,0.246,0.491,0.541l-1.277,41.49C235.1,359.691,234.854,359.938,234.559,359.938z"/>
	<path fill="#F39797" d="M230.036,359.79c-0.295,0-0.541-0.246-0.492-0.541l1.277-41.44c0-0.295,0.197-0.492,0.541-0.492
		c0.296,0,0.491,0.246,0.491,0.541l-1.276,41.49C230.577,359.544,230.331,359.79,230.036,359.79z"/>
	<path fill="#F39797" d="M225.514,359.643c-0.295,0-0.541-0.246-0.492-0.541l1.278-41.49c0-0.295,0.196-0.541,0.541-0.491
		c0.295,0,0.491,0.246,0.491,0.541l-1.278,41.49C226.054,359.396,225.809,359.643,225.514,359.643z"/>
	<path fill="#F39797" d="M221.04,359.495c-0.295,0-0.541-0.246-0.491-0.541l1.277-41.49c0-0.295,0.245-0.491,0.541-0.491
		c0.295,0,0.541,0.246,0.49,0.541l-1.276,41.49C221.531,359.298,221.286,359.495,221.04,359.495z"/>
	<path fill="#F39797" d="M216.518,359.348c-0.295,0-0.541-0.246-0.492-0.541l1.278-41.49c0-0.295,0.197-0.541,0.541-0.491
		c0.295,0,0.491,0.246,0.491,0.541l-1.277,41.49C217.009,359.151,216.764,359.348,216.518,359.348z"/>
</g>
<g>
	
		<rect x="285.446" y="489.19" transform="matrix(0.2767 -0.961 0.961 0.2767 -260.3555 692.217)" fill="#CCECEF" width="88.394" height="59.731"/>
	<path fill="#8F8479" d="M349.048,486.963c-0.05,0-0.099,0-0.147,0l-17.746-5.113c-0.295-0.098-0.441-0.344-0.344-0.639
		s0.344-0.442,0.639-0.344l17.746,5.111c0.295,0.1,0.442,0.345,0.346,0.64C349.442,486.815,349.244,486.963,349.048,486.963z"/>
	<path fill="#8F8479" d="M357.406,499.056c-0.05,0-0.099,0-0.146,0l-39.868-11.454c-0.295-0.099-0.442-0.344-0.344-0.639
		c0.098-0.295,0.344-0.441,0.639-0.345l39.868,11.454c0.295,0.099,0.441,0.344,0.344,0.639
		C357.798,498.908,357.602,499.056,357.406,499.056z"/>
	<path fill="#8F8479" d="M356.127,503.382c-0.05,0-0.1,0-0.147,0l-39.867-11.454c-0.295-0.099-0.441-0.345-0.345-0.64
		c0.099-0.295,0.345-0.442,0.64-0.344l39.867,11.454c0.295,0.098,0.442,0.344,0.344,0.639
		C356.57,503.234,356.372,503.382,356.127,503.382z"/>
	<path fill="#8F8479" d="M354.898,507.757c-0.049,0-0.098,0-0.146,0l-39.867-11.454c-0.295-0.099-0.442-0.344-0.345-0.639
		c0.1-0.296,0.345-0.443,0.64-0.345l39.867,11.454c0.295,0.099,0.442,0.344,0.345,0.639
		C355.29,507.609,355.095,507.757,354.898,507.757z"/>
	<path fill="#8F8479" d="M353.619,512.082c-0.05,0-0.099,0-0.146,0l-39.868-11.503c-0.295-0.098-0.442-0.344-0.344-0.639
		c0.098-0.296,0.344-0.442,0.639-0.346l39.868,11.504c0.295,0.099,0.442,0.345,0.344,0.64
		C354.063,511.935,353.865,512.082,353.619,512.082z"/>
	<path fill="#8F8479" d="M352.391,516.457c-0.049,0-0.098,0-0.147,0l-39.866-11.453c-0.296-0.099-0.442-0.345-0.345-0.64
		c0.099-0.295,0.345-0.442,0.64-0.345l39.866,11.454c0.296,0.099,0.442,0.345,0.346,0.64
		C352.832,516.311,352.588,516.457,352.391,516.457z"/>
	<path fill="#8F8479" d="M351.113,520.783c-0.049,0-0.098,0-0.146,0l-39.867-11.454c-0.295-0.098-0.442-0.344-0.344-0.639
		c0.098-0.296,0.344-0.442,0.639-0.345l39.867,11.454c0.295,0.099,0.441,0.344,0.345,0.64
		C351.555,520.636,351.359,520.783,351.113,520.783z"/>
	<path fill="#8F8479" d="M349.884,525.158c-0.049,0-0.1,0-0.147,0l-39.867-11.453c-0.295-0.099-0.441-0.345-0.345-0.64
		c0.099-0.296,0.345-0.442,0.64-0.345l39.867,11.454c0.295,0.099,0.442,0.344,0.345,0.64
		C350.325,525.011,350.079,525.158,349.884,525.158z"/>
	<path fill="#8F8479" d="M348.606,529.484c-0.049,0-0.098,0-0.146,0l-39.867-11.454c-0.295-0.099-0.442-0.345-0.345-0.64
		c0.099-0.295,0.345-0.441,0.64-0.345l39.867,11.454c0.295,0.099,0.441,0.345,0.345,0.64
		C349.048,529.337,348.852,529.484,348.606,529.484z"/>
	<path fill="#8F8479" d="M347.377,533.811c-0.051,0-0.1,0-0.147,0l-39.868-11.453c-0.295-0.1-0.441-0.345-0.344-0.64
		s0.344-0.441,0.639-0.345l39.868,11.454c0.295,0.099,0.442,0.344,0.344,0.64C347.82,533.663,347.621,533.811,347.377,533.811z"/>
	<path fill="#8F8479" d="M346.148,538.186c-0.049,0-0.098,0-0.146,0l-39.867-11.453c-0.295-0.1-0.442-0.345-0.344-0.64
		c0.098-0.295,0.344-0.441,0.639-0.345l39.867,11.454c0.295,0.099,0.441,0.345,0.345,0.64
		C346.54,538.038,346.345,538.186,346.148,538.186z"/>
	<path fill="#8F8479" d="M344.868,542.512c-0.049,0-0.098,0-0.146,0l-39.867-11.454c-0.295-0.099-0.441-0.344-0.344-0.64
		c0.099-0.295,0.344-0.442,0.64-0.344l39.867,11.454c0.295,0.099,0.442,0.344,0.344,0.639
		C345.313,542.364,345.115,542.512,344.868,542.512z"/>
	<path fill="#8F8479" d="M343.641,546.887c-0.049,0-0.1,0-0.147,0l-39.866-11.454c-0.295-0.099-0.442-0.344-0.344-0.639
		c0.098-0.295,0.344-0.442,0.639-0.345l39.866,11.454c0.296,0.099,0.442,0.344,0.345,0.64
		C344.033,546.739,343.837,546.887,343.641,546.887z"/>
	<path fill="#8F8479" d="M342.363,551.213c-0.049,0-0.098,0-0.146,0l-39.867-11.454c-0.295-0.099-0.441-0.345-0.344-0.64
		s0.344-0.442,0.639-0.344l39.867,11.453c0.295,0.1,0.441,0.345,0.345,0.64C342.805,551.065,342.609,551.213,342.363,551.213z"/>
	<path fill="#8F8479" d="M341.134,555.588c-0.05,0-0.1,0-0.147,0l-39.866-11.454c-0.295-0.099-0.442-0.345-0.346-0.64
		c0.1-0.295,0.346-0.442,0.641-0.344l39.866,11.453c0.295,0.1,0.442,0.345,0.345,0.64
		C341.527,555.44,341.329,555.588,341.134,555.588z"/>
	<path fill="#8F8479" d="M339.856,559.913c-0.049,0-0.099,0-0.146,0l-39.867-11.453c-0.295-0.099-0.442-0.345-0.344-0.64
		c0.098-0.295,0.344-0.442,0.639-0.345l39.867,11.454c0.295,0.099,0.441,0.345,0.344,0.64
		C340.298,559.766,340.102,559.913,339.856,559.913z"/>
</g>
<g>
	<path fill="#683C11" d="M289.124,384.418c0.541,0.934-2.557,5.604-9.438,11.945c0,0-20.302,50.388-36.967,53.141
		c-7.521,1.229-19.271-3.343-29.889-8.701c0.688-4.129,2.852-15.829,6.783-23.152c11.159,8.259,19.663,15.878,19.663,15.878
		l30.822-43.505c0,0,6.538-9.586,8.357-10.127c1.817-0.541-1.819,6.342-1.819,6.342s6.342-3.982,7.964-6.882
		s3.441-4.916,3.638-4.179c0.197,0.738,2.359,3.245,0.737,6.686c-1.229,2.605-1.917,3.736-2.212,4.179
		C287.207,385.401,288.682,383.681,289.124,384.418z"/>
	<path fill="#0D0E12" d="M219.615,417.698c-3.98,7.325-6.096,19.023-6.783,23.152c-12.83-6.487-23.989-14.156-23.989-14.156
		l-14.157-29.741C185.646,394.692,204.965,406.785,219.615,417.698z"/>
	<path fill="#0D0E12" d="M174.733,396.953c-16.124,5.261-40.947,26.841-58.007,47.144c-17.058,20.303-34.804,49.307-34.804,49.307
		s3.244,18.482,22.317,28.266c19.023,9.783,34.805,3.441,34.805,3.441s14.305-17.942,26.447-31.02
		c12.142-13.076,39.522-36.82,39.522-36.82l-7.964-30.478L174.733,396.953z"/>
	<path fill="#683C11" d="M306.527,423.745c0.54,0.934-1.426,3.933-9.781,7.669c0,0-19.369,54.467-39.523,57.22
		c-8.308,1.131-25.71-6.882-40.556-14.846c8.896-6.637,12.485-20.843,13.812-27.922c14.108,11.159,25.809,22.761,25.809,22.761
		l30.821-43.506c0,0,4.13-4.08,5.852-4.866c4.08-1.917,7.423-4.13,9.389-6.391c1.476-1.722,8.652-3.195,4.229,5.506
		c-1.229,2.408-4.916,5.604-5.261,6.046C303.43,425.562,306.084,423.008,306.527,423.745z"/>
	<g>
		<path fill="#683C11" d="M171.832,407.031c0.591,7.227,11.896,4.621,16.518,5.801s14.797,6.931,14.797,6.931l6.933-24.479
			l-22.318-11.012c0,0-3.638,8.406-6.391,12.438C178.616,400.837,171.832,407.031,171.832,407.031z"/>
		<path fill="#683C11" d="M197.74,345.927c5.898-2.605,19.271,0.885,20.549,12.191c1.277,11.306,8.11,26.644,1.031,32.592
			c-7.078,5.948-15.042,4.916-15.042,4.916l-17.106-8.111c0,0-3.934-10.864-2.9-23.153
			C185.302,352.023,193.856,347.648,197.74,345.927z"/>
		<polygon fill="#936037" points="219.172,365.886 225.12,371.539 220.942,373.161 		"/>
		<path fill="#936037" d="M217.451,373.505c0,2.753-2.262,5.014-5.015,5.014s-5.015-2.261-5.015-5.014s2.262-5.014,5.015-5.014
			S217.451,370.752,217.451,373.505z"/>
		<path fill="#2E2E2E" d="M214.109,366.918c0,0.492-0.393,0.885-0.885,0.885c-0.491,0-0.885-0.393-0.885-0.885
			s0.394-0.885,0.885-0.885C213.716,366.033,214.109,366.426,214.109,366.918z"/>
		<path fill="#706F6F" d="M208.603,364.066c0.885-1.229,2.262-1.917,3.688-2.212c0.736-0.147,1.475-0.197,2.212-0.098
			c0.736,0.098,1.475,0.344,2.063,0.885c-1.475,0.393-2.653,0.639-3.884,0.934c-0.639,0.098-1.277,0.246-1.917,0.344
			C210.078,363.968,209.39,364.066,208.603,364.066z"/>
		<path fill="#575756" d="M197.592,370.556c3.785,0.295,7.963-3.343,6.931-12.044c-0.59-4.916,7.521-8.111,8.996-9.438
			c1.426-1.327-3.195-4.621-9.438-4.621c-6.243,0-14.649,3.146-19.417,10.126c-12.88,18.828-2.753,25.661,0.59,30.281
			C188.596,389.531,197.592,370.556,197.592,370.556z"/>
		<g>
			<path fill="#936037" d="M201.031,383.681c-5.701,0.787-10.716-1.524-11.649-8.013c-0.885-6.341,3.294-10.126,8.947-10.962
				L201.031,383.681z"/>
			<path fill="#683C11" d="M200.394,379.109c-3.195,0.442-5.997-0.639-6.438-3.884c-0.442-3.146,1.917-5.063,5.111-5.555
				L200.394,379.109z"/>
		</g>
	</g>
	<path fill="#0D0E12" d="M230.479,445.768c-1.327,7.129-4.916,21.286-13.812,27.923c-13.716-7.424-25.269-14.797-25.269-14.797
		l-1.081-32.888C199.903,424.04,216.37,434.658,230.479,445.768z"/>
</g>
<path fill="#F8C1C1" d="M273.984,490.158c5.407,2.015,9.882,5.111,13.862,20.548c3.982,15.436,7.227,20.008-1.229,26.251
	c-8.455,6.242-8.209,35.05-8.209,35.05L252.6,560.405c3.441-4.965,8.652-21.384,8.357-28.463l2.261-39.031L273.984,490.158z"/>
<path fill="#AD9DE3" d="M184.073,553.326c-2.604,2.604-32.493,10.176-35.395,10.077c-16.861-0.54-32.101-43.505-36.967-70.148
	c-4.916-26.644-29.839-67.544-45.324-54.959c-35.345,28.808-24.137,119.75,38.442,146.395c36.672,15.632,84.452,10.225,98.905,3.638
	C195.281,576.087,191.594,566.796,184.073,553.326z"/>
<path fill="#0D0E12" d="M264.201,485.045c-5.753,4.867-17.402-1.081-22.121,5.457c-4.721,6.538-10.913,10.521-23.598,10.521
	c-12.683,0-9.438,15.633-16.714,20.303c-7.274,4.719-12.683-1.818-22.514,5.062c-9.783,6.882-3.64,22.121-15.239,23.94
	c-11.602,1.818-17.796,7.619-18.533,17.795c-0.736,10.176-12.339,8.355-14.895,18.532c-2.558,10.176,8.701,20.695,14.895,15.977
	c6.194-4.719,9.782-10.52,19.614-5.456c9.782,5.063,25.415,0.344,31.216-8.356c5.801-8.701,10.176-22.858,19.614-23.252
	c9.438-0.345,21.433-3.244,25.415-10.913c3.98-7.619,10.863-15.093,15.976-15.239c11.651-0.344,7.769-6.98,16.321-19.221
	c8.111-11.603-3.195-27.628,0.344-30.135C273.984,490.158,276.196,474.869,264.201,485.045z"/>
<g>
	<path fill="#F5A7A7" d="M279.243,524.52c-5.261,1.377-10.273-0.195-11.848-6.242c-1.573-5.851,1.917-9.881,7.177-11.308
		L279.243,524.52z"/>
	<path fill="#F39797" d="M278.114,520.243c-2.949,0.786-5.702,0.049-6.488-2.95c-0.787-2.9,1.229-5.014,4.179-5.801L278.114,520.243
		z"/>
</g>
<g>
	<path fill="#F6B1B1" d="M442.892,527.567c-4.522,2.999-9.783,3.048-13.224-2.163c-3.344-5.063-1.327-10.028,3.243-12.979
		L442.892,527.567z"/>
	<path fill="#C2C2C2" d="M440.483,523.881c-2.556,1.671-5.407,1.867-7.078-0.738c-1.672-2.507-0.394-5.111,2.162-6.782
		L440.483,523.881z"/>
</g>
<path fill="#F6B1B1" d="M459.556,494.091c5.062-1.967,10.226-0.885,12.438,4.965c2.163,5.653-0.885,10.028-5.947,11.994
	L459.556,494.091z"/>
<polygon fill="#F39797" points="286.961,508.199 292.664,512.427 289.075,515.081 "/>
<path fill="#0D0E12" d="M279.588,505.889c0.146-1.277,1.081-2.212,2.016-2.852c0.982-0.59,2.113-1.032,3.343-0.885
	c-0.786,0.935-1.672,1.523-2.557,2.113C281.505,504.856,280.669,505.348,279.588,505.889z"/>
<path fill="#242638" d="M285.438,508.543c0,0.442-0.344,0.836-0.787,0.836c-0.441,0-0.786-0.394-0.786-0.836
	s0.345-0.836,0.786-0.836C285.094,507.707,285.438,508.101,285.438,508.543z"/>
<path fill="#F39797" d="M287.797,516.507c0,2.359-1.917,4.326-4.326,4.326c-2.359,0-4.325-1.918-4.325-4.326
	c0-2.358,1.917-4.326,4.325-4.326C285.831,512.181,287.797,514.146,287.797,516.507z"/>
<path fill="#FD9CAD" d="M242.67,561.24c11.011-6.537,17.254-3.194,24.479-1.376c11.013,2.753,25.169,11.012,35.492,21.04
	c10.323,9.979,26.693,26.349,26.693,26.349s-5.358,11.896-9.145,16.025c-3.785,4.13-8.603,6.193-8.603,6.193l-19.319-14.107
	c0,0,0,10.667-8.603,14.797c-8.604,4.129-13.421,5.161-13.421,5.161l-15.189,37.95l-65.823-24.48c0,0,12.732-28.954,21.04-45.472
	C218.533,586.754,232.986,566.992,242.67,561.24z"/>
<path fill="#F9CACA" d="M451.691,459.336c1.426,1.523,5.948,1.032,7.473,0.786c1.573-0.246,6.193,4.129,6.193,4.129l9.931-10.176
	c0,0-3.44-9.979-11.453-11.307c-8.014-1.277-8.801,6.439-10.323,8.014C451.937,452.355,448.594,455.993,451.691,459.336z"/>
<path fill="#AD9DE3" d="M176.158,609.17c7.128-2.654,16.565,6.194,35.491,18.287c21.236,13.519,39.967,19.319,46.85,42.719
	c6.882,23.448,11.011,45.473,11.011,45.473l38.59-19.664c0,0,3.097,11.354-12.388,22.417c-15.485,11.061-53.829,26.594-94.09,3.097
	c-34.805-20.353-40.311-49.994-42.374-68.576C157.233,634.781,162.395,614.332,176.158,609.17z"/>
<path fill="#F9CACA" d="M378.297,549.345c5.604-3.194,16.025-11.503,16.025-11.503s1.181-11.896,3.098-15.682
	s3.735-4.916,3.243-2.017c-0.49,2.9-0.786,5.948-0.786,5.948s3.44-9.832,4.866-9.191c1.377,0.639-0.934,8.258-0.934,8.258
	s3.834-10.028,5.604-9.438c1.771,0.59-1.917,10.226-1.917,10.226s3.195-6.734,4.18-6.292c0.982,0.49-3.049,14.942-3.049,14.942
	s6.638-4.67,8.455-3.49c1.819,1.182-22.76,22.122-22.76,22.122L378.297,549.345z"/>
<path fill="#0D0E12" d="M350.866,568.319c6.734-7.227,21.188-15.142,27.381-19.468c6.194-4.324,10.323-2.604,13.272-1.376
	c2.95,1.229,6.194,6.047,6.194,6.047L350.866,568.319z"/>
<rect x="493.971" y="558.182" transform="matrix(0.9176 -0.3976 0.3976 0.9176 -188.811 261.5684)" fill="#CCECEF" width="84.804" height="55.848"/>
<rect x="528.409" y="542.251" transform="matrix(0.6209 -0.7839 0.7839 0.6209 -230.5594 663.6028)" fill="#F39797" width="84.8" height="55.845"/>
<path fill="#0D0E12" d="M425.686,540.25c18.386-8.062,52.551-16.025,64.447-16.369c10.322-6.538,13.271-24.137,13.271-24.137
	l-38.245-33.821c0,0,1.032-6.194,4.77-9.045c3.048-2.311,5.407-2.803,5.407-2.803s39.966,15.682,51.025,38.441
	c11.013,22.761-20.008,69.461-20.008,69.461s3.441,34.115,4.13,54.812c0.688,20.695,0.344,60.661,0.344,60.661
	c-3.44,16.91-79.733,19.762-78.555,3.097c0.688-1.032,1.721-35.147,1.032-53.091c-0.689-17.943-17.6-54.812-17.6-54.812
	s-58.94,18.977-66.166,2.754C342.265,559.176,400.173,551.458,425.686,540.25z"/>
<path fill="#F9CACA" d="M464.964,516.457l8.258,16.911c0,0-1.72,7.079-11.011,8.799c-9.291,1.721-15.142-2.949-15.142-2.949
	l-2.754-13.765L464.964,516.457z"/>
<path fill="#8F8479" d="M468.405,504.069c-2.016-13.125-11.257-23.989-23.547-22.516c-3.392-5.651-10.766-8.945-18.631-7.718
	c-9.979,1.524-17.009,9.686-15.73,18.188c0.688,4.62,3.736,8.309,7.914,10.568c-0.195,0.641-0.295,1.327-0.295,2.017
	c0,4.228,3.394,7.669,7.62,7.718c3.244,11.798,19.073,19.811,29.593,16.91C463.391,522.16,470.469,517.44,468.405,504.069z"/>
<path fill="#F8C1C1" d="M328.304,608.285c8.062,6.538,10.225,7.128,10.862,6.733c0,0,7.915-31.166,9.637-40.506
	c1.276-6.784-0.1-9.191-2.213-13.912c-2.113-4.719-2.703-8.355-1.277-7.569c1.425,0.836,4.521,4.031,4.521,4.031l4.817-17.402
	c0,0,0.688,2.9,5.161,12.24s2.409,34.805,0.885,50.142c-1.327,13.371-3.392,29.299-16.024,35.345
	c-12.635,5.998-32.052-9.486-32.052-9.486C319.357,626.769,326.239,614.676,328.304,608.285z"/>
<path fill="#F39797" d="M450.806,460.908c-0.295,0-0.59-0.147-0.786-0.394c-0.345-0.441-0.295-1.082,0.146-1.475l22.761-19.024
	c0.441-0.345,1.082-0.295,1.476,0.147c0.344,0.442,0.295,1.081-0.147,1.475l-22.761,19.024
	C451.298,460.859,451.052,460.908,450.806,460.908z"/>
<path fill="#CCECEF" d="M432.569,676.025c-2.753,22.071-1.475,36.229,17.254,44.095c13.076,5.506,47.536,2.753,57.564-11.355
	c8.75-12.339,3.098-36.181,3.098-36.181s-9.636,12.389-38.59,14.453C442.892,689.102,432.569,676.025,432.569,676.025z"/>
<circle fill="#F39797" cx="633.921" cy="296.228" r="1.278"/>
<circle fill="#0D0E12" cx="578.323" cy="547.477" r="1.278"/>
<circle fill="#AD9DE3" cx="472.387" cy="420.795" r="1.278"/>
<circle fill="#AD9DE3" cx="557.135" cy="531.697" r="1.278"/>
<circle fill="#0D0E12" cx="304.364" cy="397.642" r="1.278"/>
<circle fill="#CCECEF" cx="534.424" cy="543.347" r="1.278"/>
<circle fill="#AD9DE3" cx="560.233" cy="481.063" r="1.278"/>
<path fill="#AD9DE3" d="M413.198,668.946c0,0.736-0.59,1.277-1.276,1.277c-0.737,0-1.278-0.59-1.278-1.277
	c0-0.737,0.59-1.277,1.278-1.277C412.61,667.669,413.198,668.259,413.198,668.946z"/>
<circle fill="#FD9CAD" cx="584.566" cy="583.657" r="1.278"/>
<path fill="#CCECEF" d="M390.44,197.666c0,0.738-0.59,1.278-1.278,1.278c-0.736,0-1.277-0.59-1.277-1.278s0.59-1.278,1.277-1.278
	C389.85,196.388,390.44,196.978,390.44,197.666z"/>
<circle fill="#AD9DE3" cx="333.219" cy="245.939" r="1.278"/>
<circle fill="#CCECEF" cx="637.805" cy="309.698" r="1.278"/>
<circle fill="#C4D0DE" cx="363.649" cy="194.323" r="1.278"/>
<circle fill="#AD9DE3" cx="347.081" cy="419.714" r="1.278"/>
<circle fill="#AD9DE3" cx="352.588" cy="188.129" r="1.278"/>
<path fill="#AD9DE3" d="M590.514,328.82c0,0.835-0.688,1.573-1.573,1.573c-0.835,0-1.572-0.688-1.572-1.573
	c0-0.836,0.688-1.573,1.572-1.573C589.777,327.247,590.514,327.935,590.514,328.82z"/>
<path fill="#F39797" d="M476.86,383.091c0,0.836-0.688,1.573-1.572,1.573c-0.836,0-1.572-0.688-1.572-1.573
	c0-0.835,0.688-1.573,1.572-1.573C476.173,381.518,476.86,382.206,476.86,383.091z"/>
<circle fill="#0D0E12" cx="582.991" cy="616.249" r="1.573"/>
<g>
	<path fill="#683C11" d="M645.818,437.46c-0.591,7.227-11.896,4.621-16.518,5.801c-4.622,1.181-7.521,5.997-7.521,5.997
		L607.818,423.4l22.072-8.7c0,0,3.638,8.405,6.391,12.437C639.032,431.217,645.818,437.46,645.818,437.46z"/>
	<path fill="#683C11" d="M619.909,376.356c-5.897-2.605-19.27,0.885-20.548,12.191c-1.327,11.306-8.111,26.645-1.032,32.592
		c7.079,5.948,15.042,4.916,15.042,4.916l17.107-8.11c0,0,3.933-10.864,2.9-23.154C632.348,382.403,623.794,378.077,619.909,376.356
		z"/>
	<polygon fill="#683C11" points="598.478,396.314 592.53,401.968 596.707,403.59 	"/>
	<path fill="#936037" d="M600.198,403.934c0,2.753,2.262,5.016,5.015,5.016s5.015-2.262,5.015-5.016
		c0-2.752-2.262-5.014-5.015-5.014C602.409,398.92,600.198,401.182,600.198,403.934z"/>
	<path fill="#242638" d="M603.541,397.347c0,0.492,0.393,0.886,0.885,0.886c0.491,0,0.885-0.394,0.885-0.886
		c0-0.49-0.394-0.885-0.885-0.885C603.934,396.462,603.541,396.855,603.541,397.347z"/>
	<path fill="#3C3C3B" d="M609.047,394.496c-0.787,0-1.476-0.098-2.114-0.197c-0.639-0.098-1.278-0.246-1.917-0.344
		c-1.278-0.246-2.458-0.541-3.884-0.934c0.59-0.541,1.327-0.737,2.063-0.885c0.737-0.099,1.477-0.049,2.213,0.049
		C606.784,392.579,608.113,393.267,609.047,394.496z"/>
	<path fill="#AD9DE3" d="M620.058,400.984c-3.785,0.295-7.963-3.344-6.931-12.043c0.59-4.916-7.521-8.111-8.996-9.438
		c-1.427-1.327,3.194-4.621,9.438-4.621s14.649,3.146,19.417,10.127c12.88,18.828,2.753,25.661-0.59,30.282
		C629.005,419.96,620.058,400.984,620.058,400.984z"/>
	<path fill="#AD9DE3" d="M616.125,376.995c3.098-7.57,9.636-11.011,15.141-8.947c5.506,2.065,7.915,9.291,7.915,9.291
		s6.193-7.915,12.73-4.129c6.539,3.785,7.571,12.044,7.571,12.044s10.323-4.129,14.108,3.441c3.784,7.571-1.377,12.388-1.377,12.388
		s9.979,0.344,9.291,9.291c-0.688,8.946-11.699,6.193-11.699,6.193s-2.409,7.227-12.732,5.851
		c-10.323-1.377-10.323-7.915-10.323-7.915s-1.377,5.852-6.537,4.13c-5.162-1.721-9.291-6.883-9.291-6.883L616.125,376.995z"/>
	<g>
		<path fill="#936037" d="M616.616,414.109c5.702,0.787,10.716-1.523,11.65-8.014c0.885-6.341-3.294-10.125-8.947-10.962
			L616.616,414.109z"/>
		<path fill="#683C11" d="M617.256,409.489c3.194,0.441,5.997-0.641,6.438-3.884c0.442-3.146-1.917-5.063-5.112-5.556
			L617.256,409.489z"/>
	</g>
</g>
<path fill="#683C11" d="M640.115,508.592c-3.883,6.342-16.369,5.311-21.728,9.733c-5.358,4.425-9.537,10.618-9.537,10.618
	s0.541,2.113,3.981-1.426c0,0-3.638,5.015-2.604,6.047c1.081,1.031,3.244-3.393,3.244-3.393s-3.539,5.31-1.868,6.146
	c1.672,0.836,4.228-4.866,4.228-4.866s-1.77,4.129-0.146,4.275c1.623,0.147,4.817-5.996,7.57-7.914s4.571-1.818,4.571-1.818
	s-2.557,3.834-4.474,4.621c-1.917,0.736-2.359,1.868-2.704,2.604c-0.344,0.737,3.54,0.295,5.457-0.441
	c1.917-0.737,7.521-5.702,8.259-6.933c0.737-1.229,16.074-6.243,20.548-8.455C659.434,515.081,640.115,508.592,640.115,508.592z"/>
<path fill="#FD9CAD" d="M645.818,437.46c20.4,2.999,63.808,44.341,74.18,72.263c10.323,27.922,3.098,55.845,3.098,55.845
	s-31.511,1.031-44.439-4.13c-12.928-5.161-17.058-7.768-17.058-7.768c4.769-11.503-9.487-34.46-16.025-39.277
	c0,0-19.123-0.539-20.695-10.862s-3.098-54.271-3.098-54.271s2.064-8.259,9.832-9.291
	C639.327,438.935,645.818,437.46,645.818,437.46z"/>
<path fill="#683C11" d="M632.643,458.058c13.322-10.077,26.89,5.161,23.252,16.566c-3.638,11.355-61.006,54.812-78.062,50.142
	c-17.058-4.67,8.259-67.739,8.259-67.739s-13.961-2.605-14.453-8.555c-0.54-5.947-2.312-11.354,0.246-11.354
	c2.604,0,2.852,8.013,2.852,8.013l13.715,3.638c0,0-6.438-4.13-4.67-6.193c1.818-2.064,14.452,7.227,16.271,13.421
	c1.817,6.192-8.014,45.471-8.014,45.471S623.057,465.283,632.643,458.058z"/>
<path fill="#AD9DE3" d="M632.348,601.502c15.779-1.033,41.342-21.188,56.09-45.227c19.368-31.608,42.915-47.536,42.915-47.536
	s19.663,54.812-9.586,80.374C692.615,614.676,632.348,601.502,632.348,601.502z"/>
<g>
	<path fill="#FD9CAD" d="M526.41,364.607v44.095c0,12.585,10.177,22.761,22.762,22.761c12.584,0,22.76-10.176,22.76-22.761v-44.095
		H526.41z"/>
	<circle fill="#FD9CAD" cx="549.172" cy="364.607" r="22.76"/>
	<circle fill="#CCECEF" cx="549.172" cy="364.607" r="19.565"/>
</g>
<path fill="#0D0E12" d="M566.573,592.801c-0.147,0-0.295-0.05-0.442-0.099l-26.692-12.979c-0.491-0.245-0.737-0.885-0.491-1.377
	c0.245-0.491,0.885-0.736,1.376-0.491l26.693,12.979c0.491,0.246,0.737,0.885,0.491,1.377
	C567.312,592.555,566.967,592.801,566.573,592.801z"/>
<path fill="#0D0E12" d="M568.589,566.402c-0.345,0-0.688-0.196-0.886-0.541l-14.846-25.71c-0.295-0.491-0.099-1.131,0.395-1.426
	c0.49-0.295,1.131-0.099,1.426,0.394l14.846,25.71c0.295,0.492,0.098,1.131-0.394,1.426
	C568.934,566.354,568.737,566.402,568.589,566.402z"/>
<path fill="#C4D0DE" d="M392.7,340.225c-0.345-2.359,0.886-4.424,2.064-6.439c0.786-1.327,1.721-2.95,1.622-3.884
	c-0.1-0.491-1.229-1.72-1.917-2.458c-1.623-1.819-3.688-4.031-3.835-6.98c-0.147-2.655,1.475-4.867,2.899-6.784
	c0.737-0.983,1.868-2.507,1.868-3.195c0-0.541-1.032-2.015-1.671-2.9c-1.426-2.065-3.098-4.425-2.852-7.227
	c0.246-2.753,2.212-4.719,3.98-6.489c0.836-0.836,2.114-2.114,2.263-2.753c0.099-0.541-0.688-2.261-1.132-3.245
	c-1.081-2.311-2.261-4.916-1.475-7.619c0.786-2.704,3.195-4.277,5.309-5.653c0.983-0.639,2.509-1.623,2.753-2.163
	c0.246-0.541-0.098-2.261-0.295-3.441c-0.49-2.507-1.031-5.407,0.492-7.865c1.475-2.458,4.229-3.293,6.687-4.031
	c1.13-0.344,2.851-0.836,3.293-1.376l4.72,3.982c-1.622,1.917-4.08,2.654-6.243,3.293c-0.983,0.295-2.852,0.836-3.146,1.278
	c-0.245,0.491,0.099,2.458,0.295,3.49c0.441,2.212,0.885,4.719-0.05,6.98c-0.982,2.311-3.146,3.736-5.062,4.965
	c-0.885,0.59-2.507,1.622-2.703,2.163c-0.147,0.541,0.688,2.359,1.18,3.343c0.982,2.064,2.064,4.424,1.622,6.931
	c-0.441,2.556-2.311,4.424-3.981,6.046c-0.737,0.737-2.113,2.114-2.162,2.655c-0.05,0.59,1.081,2.163,1.77,3.146
	c1.327,1.868,2.803,4.031,2.803,6.538c-0.05,2.654-1.622,4.867-3.049,6.784c-0.639,0.836-1.671,2.261-1.721,2.802
	c0.05,0.688,1.377,2.114,2.212,3.097c1.524,1.671,3.245,3.54,3.49,5.998c0.295,2.95-1.229,5.555-2.457,7.668
	c-0.492,0.836-1.229,2.114-1.278,2.557L392.7,340.225z"/>
<path fill="#F39797" d="M415.756,337.472l-5.702-2.458c0.885-2.065,2.703-3.293,4.179-4.228c0.639-0.442,1.622-1.082,1.818-1.426
	c0.196-0.393,0.246-1.573,0.295-2.409c0.049-1.721,0.099-3.834,1.327-5.653c1.277-1.868,3.294-2.654,4.916-3.343
	c0.688-0.295,1.77-0.737,2.016-1.032c0.295-0.344,0.541-1.524,0.737-2.359c0.344-1.671,0.836-3.736,2.358-5.26
	c1.622-1.573,3.736-2.015,5.457-2.409c0.688-0.147,1.868-0.393,2.163-0.639c0.394-0.295,0.835-1.376,1.18-2.212
	c0.688-1.623,1.476-3.49,3.195-4.67c1.917-1.327,4.129-1.376,5.948-1.425c0.688,0,1.77-0.049,2.113-0.197
	c0.541-0.295,1.229-1.278,1.818-2.163c0.983-1.425,2.064-3.048,3.981-3.834c2.999-1.229,5.801-0.295,7.669,0.295
	c0.394,0.147,0.983,0.295,1.18,0.344l0.147,6.194c-1.131,0.049-2.212-0.295-3.244-0.639c-1.229-0.394-2.508-0.836-3.441-0.442
	c-0.195,0.147-0.736,0.983-1.131,1.573c-0.934,1.376-2.063,3.048-3.933,4.08c-1.573,0.885-3.393,0.934-4.965,0.983
	c-0.935,0-2.163,0.049-2.558,0.344c-0.245,0.246-0.688,1.327-0.981,1.966c-0.641,1.475-1.377,3.343-2.95,4.621
	c-1.476,1.229-3.244,1.573-4.817,1.917c-0.835,0.197-2.063,0.442-2.358,0.737c-0.246,0.295-0.491,1.475-0.64,2.163
	c-0.345,1.622-0.736,3.49-2.064,5.014c-1.229,1.475-2.949,2.163-4.425,2.753c-0.736,0.295-1.916,0.786-2.162,1.13
	c-0.196,0.295-0.196,1.524-0.246,2.261c-0.049,1.671-0.099,3.54-1.032,5.26c-0.935,1.671-2.458,2.654-3.785,3.588
	C416.985,336.391,415.904,337.128,415.756,337.472z"/>
<path fill="#FD9CAD" d="M375.494,331.622c-0.394-2.016,0.246-4.031,0.836-5.801c0.442-1.278,0.886-2.752,0.688-3.49
	c-0.147-0.491-1.328-1.475-2.114-2.114c-1.573-1.278-3.294-2.752-4.179-4.965c-0.786-2.016-0.491-4.178-0.245-6.096
	c0.147-1.229,0.393-2.753,0.049-3.343c-0.246-0.492-1.622-1.229-2.557-1.77c-1.72-0.934-3.688-2.016-4.915-3.933
	c-1.181-1.819-1.328-3.982-1.477-5.899c-0.098-1.229-0.195-2.753-0.639-3.245c-0.344-0.442-1.868-0.835-2.899-1.13
	c-1.868-0.541-4.031-1.131-5.653-2.655c-1.573-1.475-2.261-3.49-2.852-5.309c-0.394-1.18-0.885-2.605-1.377-2.999
	c-0.441-0.295-2.016-0.344-3.048-0.344c-1.966-0.049-4.179-0.049-6.145-1.131c-1.868-1.032-3.048-2.802-4.08-4.375
	c-0.688-1.032-1.524-2.311-2.114-2.556l2.262-5.751c2.458,0.983,3.885,3.195,5.063,4.965c0.59,0.934,1.376,2.064,1.868,2.359
	c0.639,0.344,2.015,0.344,3.243,0.394c2.163,0.049,4.621,0.049,6.637,1.524c2.113,1.524,2.95,4.031,3.639,6.046
	c0.344,1.032,0.786,2.359,1.229,2.753c0.49,0.492,1.817,0.836,2.999,1.18c2.063,0.59,4.473,1.229,6.046,3.146
	c1.622,2.015,1.818,4.473,2.016,6.686c0.099,1.13,0.196,2.507,0.541,2.999c0.393,0.59,1.622,1.278,2.703,1.868
	c1.868,1.032,3.981,2.212,5.113,4.375c1.18,2.312,0.835,4.916,0.54,6.981c-0.147,1.082-0.345,2.458-0.147,2.999
	c0.246,0.688,1.377,1.622,2.359,2.409c1.623,1.327,3.44,2.851,4.08,5.162c0.737,2.605-0.099,5.112-0.737,7.128
	c-0.295,0.885-0.737,2.261-0.639,2.704L375.494,331.622z"/>
<path fill="#CCECEF" d="M382.132,294.065c-1.476,0-2.753-0.983-2.999-2.458c-1.376-7.669-4.916-27.578-21.875-48.765
	c-1.082-1.328-0.836-3.293,0.49-4.375c1.327-1.082,3.295-0.836,4.375,0.491c17.943,22.417,21.68,43.456,23.104,51.371
	c0.295,1.671-0.786,3.392-2.507,3.687C382.476,294.065,382.28,294.065,382.132,294.065z"/>
<path fill="#AD9DE3" d="M410.84,318.743c-0.295,0-0.59-0.049-0.886-0.147c-1.622-0.492-2.556-2.212-2.063-3.883
	c4.031-13.175,16.665-27.185,17.205-27.824c1.131-1.278,3.098-1.376,4.375-0.197c1.277,1.131,1.377,3.097,0.197,4.375
	c-0.1,0.147-12.24,13.617-15.879,25.464C413.397,317.858,412.166,318.743,410.84,318.743z"/>
<path fill="#CCECEF" d="M391.03,58.843c-0.59,0.934-2.653,0.983-4.08,0.59c-1.426-0.394-2.899-1.278-2.262-2.212
	c0.59-0.934,1.573-0.442,3.688,0.098C390.489,57.859,391.618,57.909,391.03,58.843z"/>
</svg>
