<?xml version="1.0" standalone="no"?>
<!DOCTYPE svg PUBLIC "-//W3C//DTD SVG 20010904//EN"
 "http://www.w3.org/TR/2001/REC-SVG-20010904/DTD/svg10.dtd">
<svg version="1.0" xmlns="http://www.w3.org/2000/svg"
 width="860.000000pt" height="860.000000pt" viewBox="0 0 860.000000 860.000000"
 preserveAspectRatio="xMidYMid meet">
<metadata>
Created by potrace 1.14, written by Peter Selinger 2001-2017
</metadata>
<g transform="translate(0.000000,860.000000) scale(0.100000,-0.100000)"
fill="#000000" stroke="none">
<path d="M6247 8484 c-2 -3 -29 -7 -58 -10 -45 -4 -127 -17 -243 -40 -34 -6
-200 -54 -221 -64 -11 -5 -47 -18 -80 -30 -55 -19 -170 -70 -205 -90 -8 -5
-35 -20 -60 -32 -25 -13 -46 -26 -48 -30 -2 -5 -8 -8 -13 -8 -17 0 -198 -128
-284 -200 -84 -71 -281 -280 -309 -329 -5 -9 -16 -23 -25 -31 -14 -15 -121
-176 -121 -184 0 -2 -17 -35 -39 -73 -57 -105 -171 -393 -155 -393 3 0 0 -9
-6 -21 -7 -11 -14 -33 -16 -47 -3 -15 -11 -58 -19 -97 -15 -71 -22 -117 -32
-190 -5 -43 -11 -2294 -6 -2310 2 -7 385 -10 1126 -9 995 1 1194 4 1312 20 57
7 161 25 175 29 17 6 91 17 96 15 4 -1 10 2 13 7 5 7 42 19 116 37 6 2 24 8
40 15 17 6 44 16 60 23 74 27 96 36 200 89 90 45 247 138 290 171 6 5 35 27
65 50 71 55 118 97 199 179 104 103 201 219 201 239 0 5 4 10 10 10 5 0 17 15
26 33 9 17 20 34 24 37 5 4 52 83 93 155 42 76 123 263 132 304 2 9 11 36 19
60 9 24 18 53 20 65 2 12 11 50 19 86 28 117 29 120 43 270 11 110 7 455 -6
455 -1 0 -3 20 -6 44 -5 48 -4 46 -29 166 -26 125 -90 316 -135 405 -9 19 -26
53 -37 75 -44 87 -141 247 -180 296 -7 8 -38 46 -69 84 -69 84 -234 251 -246
247 -4 -1 -8 2 -8 7 0 6 -46 44 -102 85 -57 42 -107 79 -113 84 -5 4 -17 11
-25 15 -8 4 -33 18 -55 32 -87 55 -330 167 -410 189 -5 2 -17 6 -25 9 -22 9
-210 57 -249 63 -18 3 -43 8 -55 10 -11 3 -37 7 -56 10 -19 3 -51 8 -70 10
-46 7 -457 14 -463 8z"/>
<path d="M2067 4304 c-2 -2 -190 -17 -229 -18 -16 -1 -28 -5 -28 -9 0 -5 -4
-6 -8 -3 -10 6 -214 -37 -278 -59 -27 -10 -56 -18 -64 -19 -8 -1 -24 -6 -35
-10 -11 -4 -38 -15 -60 -23 -97 -37 -126 -50 -231 -103 -200 -102 -385 -239
-544 -401 -100 -103 -153 -165 -194 -228 -17 -25 -33 -48 -37 -51 -3 -3 -21
-30 -39 -60 -18 -30 -40 -62 -47 -72 -8 -9 -15 -22 -17 -30 -1 -8 -11 -29 -22
-48 -33 -58 -126 -270 -118 -270 2 0 -7 -30 -20 -67 -22 -62 -38 -124 -51
-193 -21 -111 -26 -143 -33 -200 -12 -107 -6 -535 8 -535 1 0 3 -9 4 -20 6
-44 16 -97 26 -137 13 -51 18 -76 24 -103 27 -129 194 -498 260 -575 8 -8 15
-20 17 -26 9 -25 178 -231 241 -294 80 -80 175 -163 228 -200 19 -13 37 -27
40 -30 30 -36 316 -196 430 -240 19 -7 39 -17 44 -22 6 -4 20 -8 32 -8 13 0
25 -4 28 -9 3 -5 27 -14 53 -21 27 -7 53 -15 58 -16 43 -14 124 -36 140 -39
11 -1 20 -3 20 -5 0 -1 9 -3 20 -4 26 -4 150 -24 195 -32 44 -8 452 -14 464
-7 4 3 31 7 60 9 28 2 62 6 76 8 13 3 42 8 65 11 22 3 54 10 70 15 17 5 44 11
60 14 61 10 239 68 340 111 72 31 240 116 256 131 8 8 19 14 22 14 7 0 154
100 191 130 110 88 212 183 289 271 21 24 46 53 56 64 10 11 39 49 64 85 26
36 51 70 56 76 4 5 21 32 36 60 15 27 31 54 35 59 10 12 82 157 103 205 49
114 77 199 112 340 13 55 14 58 16 63 0 1 2 11 3 22 9 59 17 113 22 136 13 65
15 218 15 1224 0 589 0 1086 0 1105 l-1 35 -1111 0 c-611 0 -1111 -1 -1112 -1z"/>
</g>
</svg>
