<?xml version="1.0" encoding="utf-8"?>
<!-- Generator: Adobe Illustrator 16.0.0, SVG Export Plug-In . SVG Version: 6.00 Build 0)  -->
<!DOCTYPE svg PUBLIC "-//W3C//DTD SVG 1.1//EN" "http://www.w3.org/Graphics/SVG/1.1/DTD/svg11.dtd">
<svg version="1.1" id="Livello_1" xmlns="http://www.w3.org/2000/svg" xmlns:xlink="http://www.w3.org/1999/xlink" x="0px" y="0px"
	 width="249.464px" height="70.413px" viewBox="0 0 249.464 70.413" enable-background="new 0 0 249.464 70.413"
	 xml:space="preserve">
<g>
	<rect x="140.938" y="33.277" fill="#0D0E12" width="12.539" height="36.171"/>
	<path fill="#0D0E12" d="M147.208,22.691c-3.07,0-6.142,0-9.213,0c0-2.949,0-5.898,0-8.848c0-5.013,4.05-8.851,9.064-8.851
		c5.012,0,9.063,3.837,9.063,8.851C156.123,18.805,152.151,22.616,147.208,22.691z"/>
	<path fill="#0D0E12" d="M128.73,22.665c3.071,0,6.143,0,9.214,0c0,2.949,0,5.898,0,8.847c0,5.013-4.051,8.851-9.065,8.851
		c-5.011,0-9.063-3.838-9.063-8.851C119.816,26.55,123.788,22.739,128.73,22.665z"/>
	<path fill="#0D0E12" d="M236.925,53.052c-2.413,3.472-6.561,5.787-11.287,5.787c-7.041,0-12.348-5.402-12.348-12.732
		c0-6.753,4.728-12.829,12.059-12.829c4.822,0,8.971,2.314,11.576,5.787C236.925,43.728,236.925,48.39,236.925,53.052z
		 M249.464,22.667c-4.02,0-8.039,0-12.058,0c0,1.254,0,2.507,0,3.761c-3.665-2.99-8.392-4.725-13.696-4.725
		c-12.733,0-22.959,10.609-22.959,24.403c0,6.365,2.318,12.154,5.981,16.398c4.147,4.822,10.706,7.908,17.653,7.908
		c4.725,0,9.162-1.445,13.021-4.725c0,1.254,0,2.507,0,3.76c4.019,0,8.038,0,12.058,0C249.464,53.854,249.464,38.261,249.464,22.667
		z"/>
	<path fill="#0D0E12" d="M196.888,11.574c-1.062-0.289-2.604-0.483-3.762-0.483c-3.086,0-5.498,0.87-7.041,2.702
		c-1.062,1.35-1.736,3.087-1.736,7.426c0,0.482,0,0.965,0,1.448c4.823,0,9.646,0,14.469,0c0,3.537,0,7.073,0,10.61
		c-4.822,0-9.646,0-14.469,0c0,12.058,0,24.115,0,36.173c-4.18,0-8.359,0-12.539,0c0-12.059,0-24.115,0-36.173
		c-4.02,0-8.039,0-12.058,0c0-3.537,0-7.073,0-10.61c4.019,0,8.038,0,12.058,0c0-0.643,0-1.286,0-1.93
		c0-7.524,1.735-12.058,5.015-15.24C180.104,2.314,185.022,0,191.39,0c2.509,0,4.822,0.192,7.428,0.868
		C198.175,4.437,197.531,8.005,196.888,11.574z"/>
	<path fill="#0D0E12" d="M64.438,40.029c0.579-4.244,4.822-8.199,10.033-8.199c5.112,0,8.874,4.05,9.26,8.199
		C77.301,40.029,70.87,40.029,64.438,40.029z M88.265,54.884c-2.219,2.412-6.463,5.401-11.769,5.401
		c-6.655,0-11.96-4.532-12.636-11.093c10.804,0,21.607,0,32.411,0c0.192-1.061,0.289-2.314,0.289-3.568
		c0-13.022-9.163-23.921-22.089-23.921c-13.89,0-22.764,11.382-22.764,24.403c0,14.663,10.513,24.308,24.5,24.308
		c7.235,0,14.661-2.989,19.196-8.391C93.023,59.644,90.644,57.264,88.265,54.884z"/>
	<polygon fill="#0D0E12" points="25.85,51.219 38.68,22.667 51.701,22.667 30.19,69.45 21.509,69.45 0,22.667 13.021,22.667 	"/>
	<rect x="104.28" y="22.667" fill="#0D0E12" width="12.539" height="46.783"/>
</g>
</svg>
