<?xml version="1.0" encoding="utf-8"?>
<!-- Generator: Adobe Illustrator 16.0.0, SVG Export Plug-In . SVG Version: 6.00 Build 0)  -->
<!DOCTYPE svg PUBLIC "-//W3C//DTD SVG 1.1//EN" "http://www.w3.org/Graphics/SVG/1.1/DTD/svg11.dtd">
<svg version="1.1" id="Layer_1" xmlns="http://www.w3.org/2000/svg" xmlns:xlink="http://www.w3.org/1999/xlink" x="0px" y="0px"
	 width="879.658px" height="596.984px" viewBox="-15.849 146.21 879.658 596.984"
	 enable-background="new -15.849 146.21 879.658 596.984" xml:space="preserve">
<g>
	<g>
		<path fill="#FD9CAD" d="M173.078,188.655c-12.292,15.677-32.152,24.494-53.618,24.225c-14.962-0.176-30.105,1.872-44.891,6.414
			C4.208,240.76-33.377,314.597-7.817,381.127c13.717,35.715,41.951,63.24,76.065,78.646c10.864,4.9,18.613,14.605,19.949,25.564
			c0.623,4.717,1.781,9.529,3.65,14.248c12.47,31.354,49.521,48.719,82.833,38.744h0.089c2.673-0.803,5.61,0.623,6.59,3.207
			c0.092,0.178,0.092,0.355,0.18,0.533c8.817,22.268,35.182,34.561,58.785,27.523c0.088,0,0.177-0.092,0.267-0.092
			c8.016-2.402,17.011-0.268,22.979,5.701c32.153,31.619,81.675,45.602,127.277,31.975c25.741-7.658,46.313-22.889,59.764-42.307
			c13.808-19.861,40.704-28.502,65.91-21.021c28.68,8.553,60.032,9.266,90.048,0.359c47.294-14.074,80.07-48.809,91.472-90.314
			c6.592-24.049,30.816-39.725,58.07-38.119c12.292,0.711,24.94-0.623,37.142-4.275c50.682-15.143,78.558-68.494,60.745-116.5
			c-18.886-51.213-78.825-79.804-132.531-63.861c-0.268,0.087-0.446,0.087-0.625,0.178c-6.146,1.87-13.093-1.247-15.319-7.036
			l-0.088-0.091c-15.676-39.454-62.437-61.367-104.388-48.809c-6.59,1.96-13.093,5.078-18.974,8.641
			c-12.557,7.571-29.479,5.166-40.434-5.342c-18.883-18.082-47.475-26.01-74.018-18.172c-3.562,1.07-7.035,2.406-10.239,3.92
			c-13.539,6.501-30.105,5.344-43.556-2.582c-25.649-15.143-57.716-20.129-87.73-11.224c-11.044,3.295-21.021,8.283-29.571,14.428
			c-10.244,7.396-24.315,8.551-36.695,3.474c-16.209-6.678-34.825-8.104-52.459-2.849
			C193.031,169.952,181.272,178.144,173.078,188.655z"/>
		<path fill="#AD9DE3" d="M195.701,213.951c-11.935,13.449-30.016,20.306-48.988,18.703c-13.271-1.069-26.809-0.179-40.167,3.027
			C42.863,250.824,4.83,315.665,23.268,377.833c9.798,33.314,33.043,60.211,62.347,76.332c9.262,5.166,15.496,14.428,16.031,24.492
			c0.18,4.367,0.979,8.818,2.317,13.186c8.994,29.301,40.702,47.381,70.896,40.436h0.091c2.402-0.535,4.987,0.891,5.609,3.293
			c0.088,0.18,0.088,0.357,0.179,0.445c6.412,20.844,28.947,33.668,50.323,28.771c0.088,0,0.178,0,0.178-0.09
			c7.215-1.691,15.052,0.891,19.951,6.59c26.453,30.82,69.384,46.584,110.709,37.055c23.336-5.346,42.484-17.994,55.666-34.828
			c13.539-17.189,37.854-23.424,59.766-14.963c24.851,9.531,52.55,12.203,79.715,5.969c42.754-9.887,74.016-39.455,86.753-76.42
			c7.392-21.467,29.836-34.201,53.885-31.084c10.866,1.426,22.09,0.98,33.134-1.604c45.868-10.598,73.925-57.449,61.276-102.25
			c-13.447-47.74-64.662-77.575-113.292-66.354c-0.18,0.09-0.446,0.09-0.624,0.179c-5.611,1.335-11.488-1.96-13.182-7.392v-0.09
			c-11.312-36.874-51.304-59.764-89.335-50.946c-5.968,1.335-11.846,3.83-17.367,6.679c-11.577,6.146-26.452,2.851-35.448-7.392
			c-15.498-17.636-40.438-26.632-64.308-21.109c-3.205,0.712-6.323,1.692-9.264,2.939c-12.379,5.077-26.986,2.938-38.387-5.076
			c-21.732-15.411-49.788-22.001-76.954-15.677c-10.064,2.313-19.149,6.146-27.166,11.31c-9.53,6.057-22.088,6.324-32.776,0.892
			c-13.983-7.037-30.282-9.53-46.226-5.879C214.583,198.273,203.63,204.955,195.701,213.951z"/>
		<rect x="556.826" y="434.584" fill="#8F8479" width="66.481" height="265.969"/>
		<rect x="556.826" y="434.584" fill="#0D0E12" width="66.481" height="182.17"/>
		<path fill="#8F8479" d="M855.659,601.872H324.477c-4.474,0-8.149-3.676-8.149-8.148V237.356c0-4.474,3.677-8.149,8.149-8.149
			h531.183c4.474,0,8.149,3.676,8.149,8.149v356.365C863.765,598.196,860.133,601.872,855.659,601.872z"/>
		<rect x="322.262" y="234.389" fill="#0D0E12" width="535.611" height="346.047"/>
		<rect x="322.262" y="234.389" fill="#C4D0DE" width="138.365" height="346.047"/>
		<path fill="#8F8479" d="M713.353,713.487h-246.57l0,0c0-7.131,5.804-12.936,12.935-12.936h220.701
			C707.55,700.553,713.353,706.311,713.353,713.487L713.353,713.487z"/>
		<path fill="#C4D0DE" d="M568.255,275.624H483.88c-3.146,0-5.759-2.569-5.759-5.758l0,0c0-3.145,2.569-5.758,5.759-5.758h84.375
			c3.145,0,5.758,2.569,5.758,5.758l0,0C574.013,273.055,571.4,275.624,568.255,275.624z"/>
		<path fill="#AD9DE3" d="M568.255,295.599H483.88c-3.146,0-5.759-2.569-5.759-5.758l0,0c0-3.145,2.569-5.758,5.759-5.758h84.375
			c3.145,0,5.758,2.569,5.758,5.758l0,0C574.013,293.03,571.4,295.599,568.255,295.599z"/>
		<path fill="#C4D0DE" d="M527.993,315.575H483.88c-3.146,0-5.759-2.568-5.759-5.758l0,0c0-3.145,2.569-5.758,5.759-5.758h44.113
			c3.146,0,5.759,2.568,5.759,5.758l0,0C533.752,313.006,531.139,315.575,527.993,315.575z"/>
		<path fill="#C4D0DE" d="M635.754,315.575h-86.367c-3.146,0-5.758-2.568-5.758-5.758l0,0c0-3.145,2.567-5.758,5.758-5.758h86.367
			c3.146,0,5.758,2.568,5.758,5.758l0,0C641.512,313.006,638.944,315.575,635.754,315.575z"/>
		<path fill="#C4D0DE" d="M675.748,295.599h-84.373c-3.146,0-5.759-2.569-5.759-5.758l0,0c0-3.145,2.568-5.758,5.759-5.758h84.373
			c3.146,0,5.759,2.569,5.759,5.758l0,0C681.507,293.03,678.894,295.599,675.748,295.599z"/>
		<path fill="#C4D0DE" d="M607.364,522.282H522.99c-3.145,0-5.758-2.57-5.758-5.758l0,0c0-3.146,2.568-5.76,5.758-5.76h84.374
			c3.146,0,5.758,2.568,5.758,5.76l0,0C613.12,519.711,610.509,522.282,607.364,522.282z"/>
		<path fill="#C4D0DE" d="M607.364,542.256H522.99c-3.145,0-5.758-2.568-5.758-5.758l0,0c0-3.145,2.568-5.758,5.758-5.758h84.374
			c3.146,0,5.758,2.568,5.758,5.758l0,0C613.12,539.688,610.509,542.256,607.364,542.256z"/>
		<path fill="#C4D0DE" d="M567.104,562.231H522.99c-3.145,0-5.758-2.568-5.758-5.758l0,0c0-3.145,2.568-5.758,5.758-5.758h44.114
			c3.145,0,5.758,2.568,5.758,5.758l0,0C572.817,559.663,570.247,562.231,567.104,562.231z"/>
		<path fill="#C4D0DE" d="M674.864,562.231h-86.367c-3.146,0-5.758-2.568-5.758-5.758l0,0c0-3.145,2.568-5.758,5.758-5.758h86.367
			c3.146,0,5.758,2.568,5.758,5.758l0,0C680.62,559.663,678.053,562.231,674.864,562.231z"/>
		<path fill="#C4D0DE" d="M714.859,542.256h-84.375c-3.145,0-5.758-2.568-5.758-5.758l0,0c0-3.145,2.569-5.758,5.758-5.758h84.375
			c3.146,0,5.758,2.568,5.758,5.758l0,0C720.573,539.688,718.003,542.256,714.859,542.256z"/>
		<path fill="#C4D0DE" d="M604.308,405.352h-84.375c-3.146,0-5.758-2.566-5.758-5.758l0,0c0-3.145,2.568-5.758,5.758-5.758h84.375
			c3.145,0,5.758,2.57,5.758,5.758l0,0C610.022,402.784,607.451,405.352,604.308,405.352z"/>
		<path fill="#C4D0DE" d="M604.308,425.329h-84.375c-3.146,0-5.758-2.57-5.758-5.758l0,0c0-3.146,2.568-5.758,5.758-5.758h84.375
			c3.145,0,5.758,2.566,5.758,5.758l0,0C610.022,422.758,607.451,425.329,604.308,425.329z"/>
		<path fill="#C4D0DE" d="M711.758,425.329h-84.375c-3.146,0-5.758-2.57-5.758-5.758l0,0c0-3.146,2.568-5.758,5.758-5.758h84.375
			c3.145,0,5.758,2.566,5.758,5.758l0,0C717.516,422.758,714.948,425.329,711.758,425.329z"/>
		<path fill="#C4D0DE" d="M604.308,343.079h-84.375c-3.146,0-5.758-2.568-5.758-5.758l0,0c0-3.145,2.568-5.758,5.758-5.758h84.375
			c3.145,0,5.758,2.568,5.758,5.758l0,0C610.022,340.465,607.451,343.079,604.308,343.079z"/>
		<path fill="#AD9DE3" d="M721.148,383.25H586.413c-3.145,0-5.758-2.568-5.758-5.758l0,0c0-3.145,2.568-5.758,5.758-5.758h134.733
			c3.145,0,5.758,2.569,5.758,5.758l0,0C726.906,380.638,724.337,383.25,721.148,383.25z"/>
		<path fill="#C4D0DE" d="M564.003,363.055h-44.114c-3.146,0-5.758-2.569-5.758-5.758l0,0c0-3.146,2.568-5.758,5.758-5.758h44.114
			c3.145,0,5.758,2.568,5.758,5.758l0,0C569.761,360.486,567.192,363.055,564.003,363.055z"/>
		<path fill="#C4D0DE" d="M564.003,383.25h-44.114c-3.146,0-5.758-2.568-5.758-5.758l0,0c0-3.145,2.568-5.758,5.758-5.758h44.114
			c3.145,0,5.758,2.569,5.758,5.758l0,0C569.761,380.638,567.192,383.25,564.003,383.25z"/>
		<path fill="#AD9DE3" d="M566.484,477.104h-84.375c-3.145,0-5.758-2.568-5.758-5.758l0,0c0-3.145,2.569-5.758,5.758-5.758h84.375
			c3.146,0,5.758,2.568,5.758,5.758l0,0C572.24,474.536,569.628,477.104,566.484,477.104z"/>
		<path fill="#C4D0DE" d="M605.548,497.079h-84.375c-3.146,0-5.759-2.568-5.759-5.758l0,0c0-3.145,2.569-5.758,5.759-5.758h84.375
			c3.145,0,5.758,2.568,5.758,5.758l0,0C611.306,494.51,608.737,497.079,605.548,497.079z"/>
		<path fill="#C4D0DE" d="M713.041,497.079h-84.373c-3.146,0-5.759-2.568-5.759-5.758l0,0c0-3.145,2.568-5.758,5.759-5.758h84.373
			c3.146,0,5.759,2.568,5.759,5.758l0,0C718.8,494.51,716.232,497.079,713.041,497.079z"/>
		<path fill="#AD9DE3" d="M683.323,455.002H548.59c-3.146,0-5.758-2.568-5.758-5.758l0,0c0-3.145,2.567-5.758,5.758-5.758h134.732
			c3.146,0,5.758,2.568,5.758,5.758l0,0C689.08,452.389,686.512,455.002,683.323,455.002z"/>
		<path fill="#C4D0DE" d="M526.178,455.002h-44.113c-3.145,0-5.758-2.568-5.758-5.758l0,0c0-3.145,2.568-5.758,5.758-5.758h44.113
			c3.145,0,5.758,2.568,5.758,5.758l0,0C531.936,452.389,529.366,455.002,526.178,455.002z"/>
		<path fill="#C4D0DE" d="M739.839,363.055h-44.114c-3.146,0-5.758-2.569-5.758-5.758l0,0c0-3.146,2.567-5.758,5.758-5.758h44.114
			c3.145,0,5.758,2.568,5.758,5.758l0,0C745.597,360.486,743.028,363.055,739.839,363.055z"/>
		<path fill="#AD9DE3" d="M671.808,363.055H585.44c-3.145,0-5.758-2.569-5.758-5.758l0,0c0-3.146,2.568-5.758,5.758-5.758h86.368
			c3.145,0,5.758,2.568,5.758,5.758l0,0C677.566,360.486,674.951,363.055,671.808,363.055z"/>
		<path fill="#C4D0DE" d="M663.835,343.079h-36.452c-3.146,0-5.758-2.568-5.758-5.758l0,0c0-3.145,2.568-5.758,5.758-5.758h36.452
			c3.145,0,5.758,2.568,5.758,5.758l0,0C669.593,340.465,666.98,343.079,663.835,343.079z"/>
		<rect x="333.954" y="264.108" fill="#0D0E12" width="18.69" height="16.564"/>
		<rect x="333.954" y="287.317" fill="#0D0E12" width="18.69" height="16.564"/>
		<rect x="333.954" y="310.525" fill="#0D0E12" width="18.69" height="16.565"/>
		<rect x="333.954" y="333.734" fill="#0D0E12" width="18.69" height="16.565"/>
		<rect x="343.3" y="362.346" fill="#0D0E12" width="18.69" height="16.564"/>
		<rect x="343.3" y="385.555" fill="#0D0E12" width="18.69" height="16.564"/>
		<rect x="343.3" y="408.762" fill="#0D0E12" width="18.69" height="16.566"/>
		<path fill="#0D0E12" d="M423.244,277.041h-56.604c-2.569,0-4.65-2.082-4.65-4.65l0,0c0-2.569,2.081-4.65,4.65-4.65h56.604
			c2.569,0,4.651,2.082,4.651,4.65l0,0C427.897,274.959,425.815,277.041,423.244,277.041z"/>
		<path fill="#0D0E12" d="M423.244,300.25h-56.604c-2.569,0-4.65-2.083-4.65-4.651l0,0c0-2.569,2.081-4.65,4.65-4.65h56.604
			c2.569,0,4.651,2.082,4.651,4.65l0,0C427.897,298.168,425.815,300.25,423.244,300.25z"/>
		<path fill="#0D0E12" d="M423.244,323.458h-56.604c-2.569,0-4.65-2.082-4.65-4.65l0,0c0-2.569,2.081-4.65,4.65-4.65h56.604
			c2.569,0,4.651,2.082,4.651,4.65l0,0C427.897,321.375,425.815,323.458,423.244,323.458z"/>
		<path fill="#0D0E12" d="M423.244,346.667h-56.604c-2.569,0-4.65-2.082-4.65-4.649l0,0c0-2.569,2.081-4.651,4.65-4.651h56.604
			c2.569,0,4.651,2.082,4.651,4.651l0,0C427.897,344.584,425.815,346.667,423.244,346.667z"/>
		<path fill="#0D0E12" d="M435.736,375.279h-56.647c-2.568,0-4.65-2.082-4.65-4.649l0,0c0-2.569,2.082-4.65,4.65-4.65h56.604
			c2.568,0,4.65,2.082,4.65,4.65l0,0C440.342,373.197,438.26,375.279,435.736,375.279z"/>
		<path fill="#0D0E12" d="M435.736,398.487h-56.647c-2.568,0-4.65-2.08-4.65-4.65l0,0c0-2.568,2.082-4.649,4.65-4.649h56.604
			c2.568,0,4.65,2.082,4.65,4.649l0,0C440.342,396.407,438.26,398.487,435.736,398.487z"/>
		<path fill="#0D0E12" d="M435.736,421.696h-56.647c-2.568,0-4.65-2.082-4.65-4.65l0,0c0-2.568,2.082-4.65,4.65-4.65h56.604
			c2.568,0,4.65,2.082,4.65,4.65l0,0C440.342,419.614,438.26,421.696,435.736,421.696z"/>
		<polygon fill="#0D0E12" points="352.513,708.038 348.836,706.178 349.103,714.194 352.646,714.239 		"/>
		<path fill="#683C11" d="M366.686,697.985c-3.543-7.354,2.613-22.545,9.833-56.162c-7.22-0.975-17.097-4.518-24.759-2.48
			c-2.126,19.533-0.089,31.758-2.79,45.576c-1.418,7.396-3.722,15.812-3.544,20.33c5.358,1.729,10.808,0.619,17.053,4.916
			c6.333,4.385,14.395,4.119,17.185,3.455c1.949-0.488,3.057-1.197,3.499-1.639C382.188,709.721,370.716,706.399,366.686,697.985z"
			/>
		<path fill="#0D0E12" d="M382.011,713.62c-2.48,1.105-10.542,2.258-15.812-0.355c-5.226-2.611-12.933-4.385-17.229-5.936
			c-0.134,1.771,0.133,4.119,0.133,7.088c-1.729-0.443-3.588-0.09-3.588-0.09s0.089-4.428-0.089-9.035
			c5.358,1.729,10.23,0.355,17.272,4.252c6.777,3.721,14.129,4.783,16.92,4.119c1.948-0.486,3.057-1.195,3.499-1.639
			C383.339,712.645,383.073,713.131,382.011,713.62z"/>
		<path fill="#0D0E12" d="M379.618,713.663c1.948-0.486,3.057-1.195,3.499-1.639c-0.576-1.373-4.694-3.455-9.699-6.6
			c-4.828,2.924-9.124,1.283-9.124,1.283c-6.335-3.32-13.065-6.73-18.69-7.484c-0.665,1.949-0.266,4.873-0.222,6.068
			c5.358,1.729,14.438,4.119,17.008,5.271C370.141,713.973,376.827,714.327,379.618,713.663z"/>
		<polygon fill="#0D0E12" points="164.408,692.049 164.763,688.374 157.056,687.709 158.252,691.428 		"/>
		<path fill="#683C11" d="M165.294,706.045c3.276-0.488,33.483,2.701,66.569,6.688c-0.842-7.885-0.089-19.666-1.284-27.506
			c-16.83-0.797-35.345,3.367-48.454,2.393c-6.423-0.486-12.137-2.258-16.166-2.568c-2.349,5.139-4.917,8.549-10.984,13.066
			c-6.201,4.605-7.84,9.521-8.062,12.4c-0.178,1.992,0.178,3.277,0.442,3.854C149.837,714.239,156.037,707.374,165.294,706.045z"/>
		<path fill="#0D0E12" d="M146.205,712.821c-0.267-2.701,0.574-7.928,4.693-12.09c4.119-4.164,10.586-8.283,12.667-12.357
			c-1.771-0.311-3.587-0.311-6.511-0.709c0.62-1.684,1.729-3.234,1.729-3.234s2.656,0.223,7.22,0.576
			c-2.349,5.139-4.916,8.549-10.984,13.066c-6.2,4.605-7.84,9.521-8.061,12.4c-0.179,1.992,0.177,3.277,0.441,3.854
			C146.737,714.417,146.338,713.973,146.205,712.821z"/>
		<path fill="#0D0E12" d="M146.958,710.518c-0.179,1.994,0.177,3.277,0.441,3.855c1.506-0.09,4.386-2.658,8.46-4.918
			c-1.239-5.535,1.904-8.414,1.904-8.414c5.094-2.701,10.763-10.143,12.18-15.635c-1.417-0.09-2.746-0.223-3.896-0.311
			c-2.347,5.139-4.916,8.547-10.984,13.064C148.863,702.768,147.224,707.684,146.958,710.518z"/>
		<path fill="#0D0E12" d="M250.068,611.44l102.978-30.605L340.6,672.649l28.878,2.613c0,0,37.381-101.691,13.109-132.52
			c-24.979-31.713-122.021,1.949-122.021,1.949l-50.492-34.77l1.949,73.479L250.068,611.44z"/>
		<path fill="#0D0E12" d="M209.365,509.303c-18.381,22.324-49.871,88.539-35.434,122.688c15.147,35.787,125.3,43.316,125.3,43.316
			l-90.53,9.168l-1.328,28.215c0,0,64.931,1.947,91.194,1.947c26.22,0,59.704-21.658,41.323-56.426
			c-18.381-34.77-108.689-69.096-108.689-69.096l49.649-52.264L209.365,509.303z"/>
		<polygon fill="#FBF9E3" points="312.696,464.704 355.656,453.321 360.264,469.309 312.696,489.549 		"/>
		<path fill="#AD9DE3" d="M623.752,422.715c0,75.826-61.478,137.303-137.304,137.303c-75.825,0-137.303-61.477-137.303-137.303
			c0-75.827,61.478-137.303,137.303-137.303C562.275,285.412,623.752,346.888,623.752,422.715z M486.448,305.875
			c-64.532,0-116.84,52.308-116.84,116.84c0,64.531,52.308,116.84,116.84,116.84s116.84-52.309,116.84-116.84
			C603.288,358.183,550.982,305.875,486.448,305.875z"/>
		<path fill="#C4D0DE" d="M486.448,305.875c-64.532,0-116.84,52.308-116.84,116.84c0,64.531,52.308,116.84,116.84,116.84
			s116.84-52.309,116.84-116.84C603.288,358.183,550.982,305.875,486.448,305.875z"/>
		<path fill="#AD9DE3" d="M236.869,666.272c-14.572,13.197-36.983-12.004-22.634-25.025l160.111-141.51
			c6.688-0.531,18.824,11.428,19.268,21.305L236.869,666.272z"/>
		<path fill="#574F72" d="M384.668,504.875L230.314,641.292c-8.901,8.062-3.676,20.816,5.049,26.176
			c0.532-0.354,1.021-0.752,1.508-1.195l156.745-145.188C393.349,515.459,389.319,509.127,384.668,504.875z"/>
		<path fill="#AD9DE3" d="M393.615,521.042c-0.442-9.877-12.623-21.836-19.268-21.305l-9.479,8.371
			c3.854-0.398,9.921-0.576,14.129,1.373c7.176,3.232,10.631,8.857,10.631,15.234L393.615,521.042z"/>
		<path fill="#62686F" d="M478.344,318.764c64.531,0,116.84,52.309,116.84,116.84c0,20.107-5.094,39.064-14.04,55.586
			c15.635-19.889,24.979-44.955,24.979-72.238c0-64.533-52.309-116.841-116.841-116.841c-44.424,0-83.045,24.759-102.799,61.255
			C407.877,336.258,441.051,318.764,478.344,318.764z"/>
		<path fill="#FD9CAD" d="M628.358,414.211c0,75.826-61.476,137.303-137.303,137.303c-75.826,0-137.302-61.477-137.302-137.303
			c0-75.828,61.476-137.303,137.302-137.303C566.882,276.908,628.358,338.383,628.358,414.211z M491.011,297.371
			c-64.532,0-116.84,52.308-116.84,116.84c0,64.531,52.308,116.84,116.84,116.84s116.84-52.309,116.84-116.84
			C607.851,349.679,555.543,297.371,491.011,297.371z"/>
		<path fill="#AD9DE3" d="M629.643,412.573c0,75.826-61.477,137.303-137.303,137.303s-137.304-61.477-137.304-137.303
			c0-75.828,61.478-137.304,137.304-137.304S629.643,336.747,629.643,412.573z M492.34,295.732
			c-64.532,0-116.84,52.308-116.84,116.841c0,64.531,52.308,116.84,116.84,116.84c64.531,0,116.84-52.309,116.84-116.84
			C609.18,348.04,556.871,295.732,492.34,295.732z"/>
		<path opacity="0.68" fill="#FFFFFF" enable-background="new    " d="M512.315,338.65c19.887,3.146,47.393,25.601,58.598,48.81
			L512.315,338.65z"/>
		<path fill="#B15B4B" d="M360.441,399.063l1.329,8.459c0.089,0.619-0.443,1.152-1.062,1.062l-4.43-0.664L360.441,399.063z"/>
		<path fill="#683C11" d="M366.775,374.26c3.455,5.271,0,16.033-4.252,22.631c-4.252,6.602-11.339,28.037-22.146,26.709
			c-7.93-0.93-14.396-4.252-14.396-4.252l-19.045,25.512l-26.265-15.945l46.771-47.258L366.775,374.26z"/>
		<path fill="#0D0E12" d="M360.131,394.545c0.574-0.088,1.194-0.133,1.814-0.133c0.312,0,0.62,0,0.932,0.043
			c0.31,0.045,0.619,0.045,0.975,0.178c0.266,0.088,0.398,0.354,0.354,0.619c-0.088,0.267-0.354,0.398-0.619,0.354
			c-0.044,0-0.089-0.044-0.134-0.088c-0.177-0.133-0.441-0.222-0.708-0.354c-0.266-0.088-0.531-0.177-0.842-0.266
			C361.281,394.767,360.705,394.633,360.131,394.545z"/>
		<path opacity="0.24" fill="#FCC557" enable-background="new    " d="M354.905,406.504c-0.31,2.834-2.879,4.871-5.714,4.562
			c-2.834-0.312-4.872-2.879-4.562-5.715c0.31-2.836,2.879-4.871,5.714-4.562C353.177,401.1,355.215,403.67,354.905,406.504z"/>
		<path fill="#FBF9E3" d="M237.976,447.34c-10.982,16.787-31.845,65.906-31.845,65.906s9.832,6.908,26.574,13.773
			c16.122,6.645,37.735,5.58,37.735,5.58l25.246-53.945L237.976,447.34z"/>
		<path fill="#0D0E12" d="M323.368,344.629c20.729-9.479,32.066,12.623,39.153,14.306c14.483,3.455,8.548,26.442-8.593,32.864
			c-13.243,4.959-17.052,32.332-35.654,21.393c-11.56-6.775-16.521,11.25-35.653-1.02c-11.781-7.574-20.816,15.104-41.59,6.689
			c-20.904-8.461-33.439-13.42-45.442-2.127c-12.18,11.428-28.302,22.014-48.277,15.279c-19.931-6.73-24.05-22.232-22.81-29.586
			c3.455-20.772,23.962-20.418,26.708-32.598c3.41-15.281,21.393-26.266,40.569-20.418c19.179,5.846,30.915,12.711,40.306,5.271
			c9.39-7.396,18.912-15.546,36.938-9.611C287.095,350.918,300.869,354.95,323.368,344.629z"/>
		<path fill="#683C11" d="M361.504,546.686c2.79-0.223,2.259-3.012,2.259-3.012c-1.771,0.842-8.46,0.842-12.136,2.215
			c-3.897-0.975-8.371-2.082-13.021-3.545c0.354,5.492-1.993,11.826-4.297,16.521c7.707,0.223,13.863,0.576,17.628,1.684
			c11.028,3.189,11.383-10.273,11.383-10.273c-1.019-0.977-2.834-1.771-5.227-2.57C359.199,547.217,360.397,546.774,361.504,546.686
			z"/>
		<path fill="#C4D0DE" d="M273.985,532.956l14.439-60.68l-38.711,59.352c0,0,8.193,2.613,13.773,2.613
			C269.069,534.241,273.985,532.956,273.985,532.956z"/>
		<path fill="#FBF9E3" d="M334.309,558.821c-19.754-0.619-47.436-1.596-58.862-10.363c-15.899-12.18,10.408-71.441,10.408-71.441
			l-47.923-29.676c0,0,27.505-28.877,47.834-21.658c22.5,7.973,26.663,14.572,30.96,34.369
			c4.296,19.799-17.185,71.576-17.185,71.576s20.948,5.049,38.976,10.717C338.96,547.836,336.568,554.127,334.309,558.821z"/>
	</g>
	<path fill="#FD9CAD" d="M806.134,743.194c30.213,0,54.675-24.457,54.675-54.675c0-30.219-24.457-54.674-54.675-54.674
		c-6.606,0-12.794,1.262-18.691,3.367c-9.558-36.268-42.45-62.967-81.802-62.967c-37.943,0-70.134,25.019-80.679,59.452
		c-8.855-5.202-19.111-8.296-30.08-8.296c-32.601,0-58.889,26.429-58.889,58.9c0,32.604,26.426,58.892,58.889,58.892H806.134z"/>
	<path fill="#AD9DE3" d="M773.393,722.932c24.483,0,44.307-19.818,44.307-44.307c0-24.487-19.818-44.306-44.307-44.306
		c-5.354,0-10.367,1.022-15.146,2.729c-7.747-29.391-34.401-51.026-66.29-51.026c-30.748,0-56.835,20.274-65.381,48.178
		c-7.176-4.215-15.486-6.723-24.376-6.723c-26.419,0-47.722,21.417-47.722,47.731c0,26.422,21.415,47.724,47.722,47.724H773.393z"/>
</g>
</svg>
