<?xml version="1.0" encoding="utf-8"?>
<!-- Generator: Adobe Illustrator 16.0.0, SVG Export Plug-In . SVG Version: 6.00 Build 0)  -->
<!DOCTYPE svg PUBLIC "-//W3C//DTD SVG 1.1//EN" "http://www.w3.org/Graphics/SVG/1.1/DTD/svg11.dtd">
<svg version="1.1" id="Livello_1" xmlns="http://www.w3.org/2000/svg" xmlns:xlink="http://www.w3.org/1999/xlink" x="0px" y="0px"
	 width="430.434px" height="430.434px" viewBox="0 0 430.434 430.434" enable-background="new 0 0 430.434 430.434"
	 xml:space="preserve">
<circle fill="#0D0E12" cx="214.217" cy="214.217" r="215.217"/>
<path fill="#C4D0DE" d="M320.881,170.991c-9.135,0-18.273,0-27.41,0c0-8.773,0-17.546,0-26.32c0-14.915,12.049-26.329,26.969-26.329
	c14.908,0,26.961,11.414,26.961,26.329C347.401,159.43,335.584,170.768,320.881,170.991z"/>
<path fill="#C4D0DE" d="M265.91,170.911c9.139,0,18.273,0,27.41,0c0,8.774,0,17.546,0,26.32c0,14.91-12.049,26.329-26.967,26.329
	c-14.906,0-26.963-11.419-26.963-26.329C239.391,182.471,251.207,171.133,265.91,170.911z"/>
<polygon fill="#FD9CAD" points="157.932,255.857 196.1,170.917 234.836,170.917 170.845,310.092 145.018,310.092 81.032,170.917 
	119.768,170.917 "/>
</svg>
