<?xml version="1.0" encoding="utf-8"?>
<!-- Generator: Adobe Illustrator 16.0.0, SVG Export Plug-In . SVG Version: 6.00 Build 0)  -->
<!DOCTYPE svg PUBLIC "-//W3C//DTD SVG 1.1//EN" "http://www.w3.org/Graphics/SVG/1.1/DTD/svg11.dtd">
<svg version="1.1" id="Livello_1" xmlns="http://www.w3.org/2000/svg" xmlns:xlink="http://www.w3.org/1999/xlink" x="0px" y="0px"
	 width="850.45px" height="198.757px" viewBox="0 325.816 850.45 198.757" enable-background="new 0 325.816 850.45 198.757"
	 xml:space="preserve">
<title>PAsset 1</title>
<g id="Layer_2">
	<g id="Logo">
		<path fill="#F9FAFB" d="M289.25,480.044v-45.718h-40.21v45.718h-20.474V371.636h20.474v44.591h40.21v-44.591h20.474v108.408
			H289.25z"/>
		<path fill="#F9FAFB" d="M384.78,480.044h-16.256l-1.474-5.364c-7.026,4.566-15.227,6.999-23.606,7.002
			c-14.495,0-20.678-9.93-20.678-23.606c0-16.112,7.002-22.295,23.114-22.295h19.04v-8.312c0-8.783-2.437-11.875-15.13-11.875
			c-7.383,0.052-14.742,0.84-21.968,2.354l-2.437-15.13c8.856-2.451,18-3.711,27.188-3.747c24.896,0,32.226,8.783,32.226,28.663
			L384.78,480.044z M364.92,450.091h-14.639c-6.51,0-8.291,1.781-8.291,7.821c0,5.527,1.781,7.984,7.984,7.984
			c5.254-0.085,10.401-1.493,14.966-4.095L364.92,450.091z"/>
		<path fill="#F9FAFB" d="M423.208,481.661c-9.294-0.152-18.513-1.691-27.353-4.565l2.765-15.13
			c7.679,2.196,15.619,3.347,23.605,3.419c8.783,0,10.094-2.048,10.094-7.984c0-4.873-0.983-7.33-13.84-10.422
			c-19.368-4.729-21.641-9.602-21.641-24.896c0-15.949,7.002-22.951,29.625-22.951c8.003,0.008,15.979,0.936,23.77,2.765
			l-2.047,15.785c-7.197-1.328-14.488-2.088-21.805-2.273c-8.619,0-10.094,2.048-10.094,6.839c0,6.347,0.491,6.838,11.24,9.602
			c22.193,5.876,24.322,8.804,24.322,24.999C451.851,472.223,447.121,481.661,423.208,481.661z"/>
		<path fill="#F9FAFB" d="M510.938,480.044v-55.279c0-4.237-1.781-6.347-6.347-6.347c-4.873,0-13.513,2.928-20.679,6.675v54.951
			h-19.859V368.381l19.859-2.764v41.172c8.99-4.614,18.874-7.227,28.971-7.657c13.185,0,17.894,9.274,17.894,23.442v57.47H510.938z"
			/>
		<path fill="#F9FAFB" d="M545.436,389.551V366.6h19.859v22.951H545.436z M545.436,480.044v-79.273h19.859v79.273H545.436z"/>
		<path fill="#F9FAFB" d="M579.135,401.425c0-19.859,11.547-31.406,38.572-31.406c9.93-0.002,19.822,1.201,29.462,3.583
			l-2.252,17.73c-8.779-1.664-17.683-2.588-26.616-2.764c-14.168,0-18.713,4.893-18.713,16.378v41.664
			c0,11.547,4.565,16.379,18.713,16.379c8.934-0.176,17.837-1.101,26.616-2.764l2.272,17.75c-9.64,2.382-19.532,3.585-29.462,3.583
			c-27.025,0-38.572-11.547-38.572-31.406L579.135,401.425z"/>
		<path fill="#F9FAFB" d="M687.911,481.661c-27.188,0-34.498-14.966-34.498-31.243v-20.022c0-16.276,7.329-31.243,34.498-31.243
			c27.168,0,34.498,14.967,34.498,31.243v20.022C722.348,466.695,715.038,481.661,687.911,481.661z M687.911,416.146
			c-10.585,0-14.639,4.729-14.639,13.677v21.251c0,8.947,4.095,13.677,14.639,13.677s14.639-4.729,14.639-13.677V429.74
			c-0.041-8.947-4.115-13.677-14.639-13.677V416.146z"/>
		<path fill="#F9FAFB" d="M775.088,417.374c-7.289,3.303-14.312,7.163-21.006,11.547v51.185h-19.859v-79.335h16.768l1.311,8.783
			c6.459-4.374,13.467-7.878,20.842-10.422L775.088,417.374z"/>
		<path fill="#F9FAFB" d="M850.389,453.674c0,17.587-7.82,27.987-26.206,27.987c-7.114-0.075-14.204-0.843-21.169-2.293v32.758
			l-19.859,2.764V400.771h15.785l2.047,6.674c7.236-5.402,16.029-8.312,25.06-8.292c15.949,0,24.404,9.438,24.404,27.517
			L850.389,453.674z M803.034,462.621c5.778,1.271,11.67,1.957,17.587,2.047c7.165,0,9.93-3.419,9.93-10.585v-27.946
			c0-6.511-2.437-10.094-9.767-10.094c-6.573,0.237-12.854,2.773-17.75,7.166V462.621z"/>
		<polygon fill="#F9FAFB" points="78.25,325.816 0,370.96 0,370.981 0,479.368 29.4,496.341 29.4,387.933 78.25,359.721 		"/>
		<polygon fill="#F9FAFB" points="109.472,325.816 109.472,412.153 78.25,412.153 78.25,379.928 48.85,396.9 48.85,507.52 
			78.25,524.533 78.25,438.441 109.472,438.441 109.472,470.441 138.872,453.489 138.872,342.789 		"/>
		<polygon fill="#F9FAFB" points="109.472,524.573 187.722,479.43 187.722,479.389 187.722,371.022 158.323,354.049 
			158.323,462.457 109.472,490.67 		"/>
	</g>
</g>
</svg>
