<?xml version="1.0" encoding="utf-8"?>
<!-- Generator: Adobe Illustrator 24.3.0, SVG Export Plug-In . SVG Version: 6.00 Build 0)  -->
<svg version="1.1" id="Layer_1" xmlns="http://www.w3.org/2000/svg" xmlns:xlink="http://www.w3.org/1999/xlink" x="0px" y="0px"
	 viewBox="0 0 1920 1080" style="enable-background:new 0 0 1920 1080;" xml:space="preserve">
<style type="text/css">
	.st0{fill:#EDF9FD;}
	.st1{fill:#B9EDFE;}
	.st2{fill:#FFF9FD;}
	.st3{fill:#00BC7F;}
	.st4{fill:#009A69;}
	.st5{fill:#DADADA;}
	.st6{fill:#9D9D9C;}
	.st7{fill:#B2B2B2;}
	.st8{fill:none;stroke:#004A6E;stroke-width:2.8346;stroke-linecap:round;stroke-miterlimit:10;}
	.st9{fill:#004A6E;}
	.st10{fill:#1D567E;}
	.st11{fill:#064A6E;}
	.st12{font-family:'Montserrat-Bold';}
	.st13{font-size:34.0157px;}
	.st14{font-size:28.3465px;}
	.st15{enable-background:new    ;}
</style>
<rect id="Rectangle_1180" class="st0" width="1920" height="1080"/>
<rect x="1407.9" y="72.2" class="st1" width="153.6" height="807.3"/>
<path id="Polygon_1_8_" class="st1" d="M1484.4,934l-112.7-68.9h225.4L1484.4,934z"/>
<rect x="883.8" y="72.2" class="st1" width="153.6" height="807.3"/>
<image style="overflow:visible;" width="1394" height="768" xlink:href="../../../../../../../Users/jonathancoull/Desktop/Screenshot 2020-09-03 at 17.31.23.png"  transform="matrix(0.5 0 0 0.5 -831.6021 696.0345)">
</image>
<g>
	<polygon class="st2" points="876.8,712.6 972.7,636.4 1052,712.6 1037.3,797.5 948.8,830 876.8,783.9 	"/>
	<g>
		<polygon class="st3" points="959.1,615 857.5,673.7 926.1,714 940,705.5 973.7,724.3 973.7,685.3 1006,665.8 1006,705 
			1062.5,673.7 1062.5,673.5 		"/>
		<polygon class="st4" points="1006,705 1006,743.9 978.9,759.5 960,747.8 960,849.2 960.5,849.2 1062.5,790.7 1062.5,673.7 
			1060.6,673.7 		"/>
		<polygon class="st3" points="946.3,740 946.3,779 915.6,798.5 915.6,720.4 927.2,713.2 858.1,673.7 857.5,673.7 857.5,790.7 
			960,849.2 960,747.8 		"/>
	</g>
</g>
<g>
	<g>
		<g>
			<polygon class="st5" points="1451.2,144.8 1484.4,163.3 1517.7,144.8 1484.4,126.3 			"/>
		</g>
		<g>
			<polygon class="st6" points="1451.2,144.8 1451.2,181.7 1484.4,200.2 1484.4,163.3 			"/>
		</g>
		<g>
			<polygon class="st7" points="1484.4,163.3 1484.4,200.2 1517.7,181.7 1517.7,144.8 			"/>
		</g>
	</g>
	<g>
		<polygon class="st2" points="1469.5,160.9 1486.7,147.3 1501,160.9 1498.3,176.2 1482.4,182 1469.5,173.7 		"/>
		<g>
			<polygon class="st3" points="1484.3,143.4 1466.1,154 1478.4,161.2 1480.8,159.7 1486.9,163 1486.9,156 1492.7,152.5 
				1492.7,159.6 1502.8,154 1502.8,153.9 			"/>
			<polygon class="st4" points="1492.7,159.6 1492.7,166.5 1487.8,169.3 1484.4,167.2 1484.4,185.4 1484.5,185.5 1502.8,174.9 
				1502.8,154 1502.5,153.9 			"/>
			<polygon class="st3" points="1482,165.8 1482,172.9 1476.5,176.4 1476.5,162.3 1478.6,161 1466.2,154 1466.1,154 1466.1,174.9 
				1484.4,185.4 1484.4,167.2 			"/>
		</g>
	</g>
</g>
<g>
	<g>
		<g>
			<polygon class="st5" points="1451.2,224.7 1484.4,243.1 1517.7,224.7 1484.4,206.2 			"/>
		</g>
		<g>
			<polygon class="st6" points="1451.2,224.7 1451.2,261.6 1484.4,280.1 1484.4,243.1 			"/>
		</g>
		<g>
			<polygon class="st7" points="1484.4,243.1 1484.4,280.1 1517.7,261.6 1517.7,224.7 			"/>
		</g>
	</g>
	<g>
		<polygon class="st2" points="1469.5,240.8 1486.7,227.1 1501,240.8 1498.3,256 1482.4,261.9 1469.5,253.6 		"/>
		<g>
			<polygon class="st3" points="1484.3,223.3 1466.1,233.8 1478.4,241.1 1480.8,239.5 1486.9,242.9 1486.9,235.9 1492.7,232.4 
				1492.7,239.4 1502.8,233.8 1502.8,233.8 			"/>
			<polygon class="st4" points="1492.7,239.4 1492.7,246.4 1487.8,249.2 1484.4,247.1 1484.4,265.3 1484.5,265.3 1502.8,254.8 
				1502.8,233.8 1502.5,233.8 			"/>
			<polygon class="st3" points="1482,245.7 1482,252.7 1476.5,256.2 1476.5,242.2 1478.6,240.9 1466.2,233.8 1466.1,233.8 
				1466.1,254.8 1484.4,265.3 1484.4,247.1 			"/>
		</g>
	</g>
</g>
<g>
	<g>
		<g>
			<polygon class="st5" points="1451.2,304.5 1484.4,323 1517.7,304.5 1484.4,286.1 			"/>
		</g>
		<g>
			<polygon class="st6" points="1451.2,304.5 1451.2,341.5 1484.4,360 1484.4,323 			"/>
		</g>
		<g>
			<polygon class="st7" points="1484.4,323 1484.4,360 1517.7,341.5 1517.7,304.5 			"/>
		</g>
	</g>
	<g>
		<polygon class="st2" points="1469.5,320.7 1486.7,307 1501,320.7 1498.3,335.9 1482.4,341.8 1469.5,333.5 		"/>
		<g>
			<polygon class="st3" points="1484.3,303.2 1466.1,313.7 1478.4,320.9 1480.8,319.4 1486.9,322.8 1486.9,315.8 1492.7,312.3 
				1492.7,319.3 1502.8,313.7 1502.8,313.7 			"/>
			<polygon class="st4" points="1492.7,319.3 1492.7,326.3 1487.8,329.1 1484.4,327 1484.4,345.2 1484.5,345.2 1502.8,334.7 
				1502.8,313.7 1502.5,313.7 			"/>
			<polygon class="st3" points="1482,325.6 1482,332.6 1476.5,336.1 1476.5,322.1 1478.6,320.8 1466.2,313.7 1466.1,313.7 
				1466.1,334.7 1484.4,345.2 1484.4,327 			"/>
		</g>
	</g>
</g>
<g>
	<g>
		<g>
			<polygon class="st5" points="1451.2,384.4 1484.4,402.9 1517.7,384.4 1484.4,365.9 			"/>
		</g>
		<g>
			<polygon class="st6" points="1451.2,384.4 1451.2,421.4 1484.4,439.9 1484.4,402.9 			"/>
		</g>
		<g>
			<polygon class="st7" points="1484.4,402.9 1484.4,439.9 1517.7,421.4 1517.7,384.4 			"/>
		</g>
	</g>
	<g>
		<polygon class="st2" points="1469.5,400.6 1486.7,386.9 1501,400.6 1498.3,415.8 1482.4,421.6 1469.5,413.4 		"/>
		<g>
			<polygon class="st3" points="1484.3,383 1466.1,393.6 1478.4,400.8 1480.8,399.3 1486.9,402.7 1486.9,395.7 1492.7,392.2 
				1492.7,399.2 1502.8,393.6 1502.8,393.6 			"/>
			<polygon class="st4" points="1492.7,399.2 1492.7,406.2 1487.8,409 1484.4,406.9 1484.4,425.1 1484.5,425.1 1502.8,414.6 
				1502.8,393.6 1502.5,393.6 			"/>
			<polygon class="st3" points="1482,405.5 1482,412.5 1476.5,416 1476.5,402 1478.6,400.7 1466.2,393.6 1466.1,393.6 1466.1,414.6 
				1484.4,425.1 1484.4,406.9 			"/>
		</g>
	</g>
</g>
<g>
	<g>
		<g>
			<polygon class="st5" points="1451.2,464.3 1484.4,482.8 1517.7,464.3 1484.4,445.8 			"/>
		</g>
		<g>
			<polygon class="st6" points="1451.2,464.3 1451.2,501.3 1484.4,519.7 1484.4,482.8 			"/>
		</g>
		<g>
			<polygon class="st7" points="1484.4,482.8 1484.4,519.7 1517.7,501.3 1517.7,464.3 			"/>
		</g>
	</g>
	<g>
		<polygon class="st2" points="1469.5,480.4 1486.7,466.8 1501,480.4 1498.3,495.7 1482.4,501.5 1469.5,493.2 		"/>
		<g>
			<polygon class="st3" points="1484.3,462.9 1466.1,473.5 1478.4,480.7 1480.8,479.2 1486.9,482.5 1486.9,475.5 1492.7,472.1 
				1492.7,479.1 1502.8,473.5 1502.8,473.4 			"/>
			<polygon class="st4" points="1492.7,479.1 1492.7,486.1 1487.8,488.9 1484.4,486.8 1484.4,505 1484.5,505 1502.8,494.4 
				1502.8,473.5 1502.5,473.5 			"/>
			<polygon class="st3" points="1482,485.4 1482,492.4 1476.5,495.9 1476.5,481.8 1478.6,480.6 1466.2,473.5 1466.1,473.5 
				1466.1,494.4 1484.4,505 1484.4,486.8 			"/>
		</g>
	</g>
</g>
<g>
	<g>
		<g>
			<polygon class="st5" points="1451.2,544.2 1484.4,562.7 1517.7,544.2 1484.4,525.7 			"/>
		</g>
		<g>
			<polygon class="st6" points="1451.2,544.2 1451.2,581.1 1484.4,599.6 1484.4,562.7 			"/>
		</g>
		<g>
			<polygon class="st7" points="1484.4,562.7 1484.4,599.6 1517.7,581.1 1517.7,544.2 			"/>
		</g>
	</g>
	<g>
		<polygon class="st2" points="1469.5,560.3 1486.7,546.6 1501,560.3 1498.3,575.5 1482.4,581.4 1469.5,573.1 		"/>
		<g>
			<polygon class="st3" points="1484.3,542.8 1466.1,553.3 1478.4,560.6 1480.8,559 1486.9,562.4 1486.9,555.4 1492.7,551.9 
				1492.7,559 1502.8,553.3 1502.8,553.3 			"/>
			<polygon class="st4" points="1492.7,559 1492.7,565.9 1487.8,568.7 1484.4,566.6 1484.4,584.8 1484.5,584.8 1502.8,574.3 
				1502.8,553.3 1502.5,553.3 			"/>
			<polygon class="st3" points="1482,565.2 1482,572.2 1476.5,575.7 1476.5,561.7 1478.6,560.4 1466.2,553.3 1466.1,553.3 
				1466.1,574.3 1484.4,584.8 1484.4,566.6 			"/>
		</g>
	</g>
</g>
<g>
	<g>
		<g>
			<polygon class="st5" points="1451.2,624.5 1484.4,643 1517.7,624.5 1484.4,606 			"/>
		</g>
		<g>
			<polygon class="st6" points="1451.2,624.5 1451.2,661.4 1484.4,679.9 1484.4,643 			"/>
		</g>
		<g>
			<polygon class="st7" points="1484.4,643 1484.4,679.9 1517.7,661.4 1517.7,624.5 			"/>
		</g>
	</g>
	<g>
		<polygon class="st2" points="1469.5,640.6 1486.7,626.9 1501,640.6 1498.3,655.8 1482.4,661.7 1469.5,653.4 		"/>
		<g>
			<polygon class="st3" points="1484.3,623.1 1466.1,633.6 1478.4,640.9 1480.8,639.3 1486.9,642.7 1486.9,635.7 1492.7,632.2 
				1492.7,639.3 1502.8,633.6 1502.8,633.6 			"/>
			<polygon class="st4" points="1492.7,639.3 1492.7,646.2 1487.8,649 1484.4,646.9 1484.4,665.1 1484.5,665.1 1502.8,654.6 
				1502.8,633.6 1502.5,633.6 			"/>
			<polygon class="st3" points="1482,645.5 1482,652.5 1476.5,656 1476.5,642 1478.6,640.7 1466.2,633.6 1466.1,633.6 1466.1,654.6 
				1484.4,665.1 1484.4,646.9 			"/>
		</g>
	</g>
</g>
<g>
	<g>
		<g>
			<polygon class="st5" points="1451.2,704.4 1484.4,722.8 1517.7,704.4 1484.4,685.9 			"/>
		</g>
		<g>
			<polygon class="st6" points="1451.2,704.4 1451.2,741.3 1484.4,759.8 1484.4,722.8 			"/>
		</g>
		<g>
			<polygon class="st7" points="1484.4,722.8 1484.4,759.8 1517.7,741.3 1517.7,704.4 			"/>
		</g>
	</g>
	<g>
		<polygon class="st2" points="1469.5,720.5 1486.7,706.8 1501,720.5 1498.3,735.7 1482.4,741.6 1469.5,733.3 		"/>
		<g>
			<polygon class="st3" points="1484.3,703 1466.1,713.5 1478.4,720.7 1480.8,719.2 1486.9,722.6 1486.9,715.6 1492.7,712.1 
				1492.7,719.1 1502.8,713.5 1502.8,713.5 			"/>
			<polygon class="st4" points="1492.7,719.1 1492.7,726.1 1487.8,728.9 1484.4,726.8 1484.4,745 1484.5,745 1502.8,734.5 
				1502.8,713.5 1502.5,713.5 			"/>
			<polygon class="st3" points="1482,725.4 1482,732.4 1476.5,735.9 1476.5,721.9 1478.6,720.6 1466.2,713.5 1466.1,713.5 
				1466.1,734.5 1484.4,745 1484.4,726.8 			"/>
		</g>
	</g>
</g>
<g>
	<g>
		<g>
			<polygon class="st5" points="1451.2,784.2 1484.4,802.7 1517.7,784.2 1484.4,765.8 			"/>
		</g>
		<g>
			<polygon class="st6" points="1451.2,784.2 1451.2,821.2 1484.4,839.7 1484.4,802.7 			"/>
		</g>
		<g>
			<polygon class="st7" points="1484.4,802.7 1484.4,839.7 1517.7,821.2 1517.7,784.2 			"/>
		</g>
	</g>
	<g>
		<polygon class="st2" points="1469.5,800.4 1486.7,786.7 1501,800.4 1498.3,815.6 1482.4,821.4 1469.5,813.2 		"/>
		<g>
			<polygon class="st3" points="1484.3,782.9 1466.1,793.4 1478.4,800.6 1480.8,799.1 1486.9,802.5 1486.9,795.5 1492.7,792 
				1492.7,799 1502.8,793.4 1502.8,793.4 			"/>
			<polygon class="st4" points="1492.7,799 1492.7,806 1487.8,808.8 1484.4,806.7 1484.4,824.9 1484.5,824.9 1502.8,814.4 
				1502.8,793.4 1502.5,793.4 			"/>
			<polygon class="st3" points="1482,805.3 1482,812.3 1476.5,815.8 1476.5,801.8 1478.6,800.5 1466.2,793.4 1466.1,793.4 
				1466.1,814.4 1484.4,824.9 1484.4,806.7 			"/>
		</g>
	</g>
</g>
<g id="Group_1387" transform="translate(0 -5327)">
</g>
<path id="Polygon_1_1_" class="st1" d="M960.4,934l-112.7-68.9h225.4L960.4,934z"/>
<line class="st8" x1="496.7" y1="492" x2="808" y2="492"/>
<line class="st8" x1="712.1" y1="249.6" x2="808" y2="249.6"/>
<line class="st8" x1="1037.4" y1="244.1" x2="1264.6" y2="244.1"/>
<line class="st8" x1="1037.1" y1="485.7" x2="1264.6" y2="485.7"/>
<line class="st8" x1="1037.1" y1="722.6" x2="1264.6" y2="722.6"/>
<line class="st8" x1="712.1" y1="733.2" x2="808" y2="733.2"/>
<line class="st8" x1="712.1" y1="733.2" x2="712.1" y2="244.7"/>
<line class="st8" x1="1264.6" y1="324.4" x2="1264.6" y2="166.3"/>
<line class="st8" x1="1264.6" y1="553.2" x2="1264.6" y2="395.1"/>
<line class="st8" x1="1264.6" y1="803.2" x2="1264.6" y2="645.1"/>
<circle class="st9" cx="359.8" cy="492" r="136.9"/>
<circle class="st9" cx="712.1" cy="249.6" r="16.7"/>
<circle class="st9" cx="712.1" cy="492" r="16.7"/>
<circle class="st9" cx="712.1" cy="734.5" r="16.7"/>
<path id="Polygon_1_9_" class="st10" d="M823.3,249.6l-20.2,11.8v-23.6L823.3,249.6z"/>
<path id="Polygon_1_10_" class="st10" d="M823.3,492l-20.2,11.8v-23.6L823.3,492z"/>
<path id="Polygon_1_11_" class="st10" d="M823.3,732.5l-20.2,11.8v-23.6L823.3,732.5z"/>
<g id="Group_1472_1_">
	<g id="Group_1471_1_">
		<g id="Group_1470_1_">
			<path id="Path_8880_1_" class="st2" d="M712.1,258.7c-4,0-7.3-3.3-7.3-7.3v-5.7c0-0.4,0.3-0.6,0.6-0.6h1.9c0.2,0,0.3-0.1,0.3-0.3
				c0-2.5,2-4.4,4.5-4.4c2.4,0,4.4,2,4.4,4.4c0,0.2,0.1,0.3,0.3,0.3c0,0,0,0,0,0h1.9c0.4,0,0.6,0.3,0.6,0.6v5.7
				C719.4,255.5,716.1,258.7,712.1,258.7z M706.4,246.4c-0.2,0-0.3,0.1-0.3,0.3v4.8c0,3.3,2.7,6,6,6c3.3,0,6-2.7,6-6v-4.8
				c0-0.2-0.1-0.3-0.3-0.3H706.4z M712.1,241.6c-1.7,0-3.2,1.4-3.2,3.2c0,0.2,0.1,0.3,0.3,0.3h5.7c0.2,0,0.3-0.1,0.3-0.3
				c0,0,0,0,0,0C715.2,243,713.8,241.6,712.1,241.6z"/>
		</g>
	</g>
</g>
<line class="st8" x1="1264.6" y1="164.6" x2="1360.5" y2="164.6"/>
<circle class="st9" cx="1264.6" cy="164.6" r="16.7"/>
<path id="Polygon_1_2_" class="st10" d="M1375.9,164.6l-20.2,11.8v-23.6L1375.9,164.6z"/>
<g id="Group_1472_4_">
	<g id="Group_1471_4_">
		<g id="Group_1470_4_">
			<path id="Path_8880_4_" class="st2" d="M1264.6,173.8c-4,0-7.3-3.3-7.3-7.3v-5.7c0-0.4,0.3-0.6,0.6-0.6h1.9
				c0.2,0,0.3-0.1,0.3-0.3c0-2.5,2-4.4,4.5-4.4c2.4,0,4.4,2,4.4,4.4c0,0.2,0.1,0.3,0.3,0.3c0,0,0,0,0,0h1.9c0.4,0,0.6,0.3,0.6,0.6
				v5.7C1271.9,170.5,1268.7,173.8,1264.6,173.8z M1258.9,161.4c-0.2,0-0.3,0.1-0.3,0.3v4.8c0,3.3,2.7,6,6,6s6-2.7,6-6v-4.8
				c0-0.2-0.1-0.3-0.3-0.3H1258.9z M1264.6,156.7c-1.7,0-3.2,1.4-3.2,3.2c0,0.2,0.1,0.3,0.3,0.3h5.7c0.2,0,0.3-0.1,0.3-0.3
				c0,0,0,0,0,0C1267.8,158.1,1266.4,156.7,1264.6,156.7z"/>
		</g>
	</g>
</g>
<line class="st8" x1="1264.6" y1="244.5" x2="1360.5" y2="244.5"/>
<circle class="st9" cx="1264.6" cy="244.5" r="16.7"/>
<path id="Polygon_1_3_" class="st10" d="M1375.9,244.5l-20.2,11.8v-23.6L1375.9,244.5z"/>
<g id="Group_1472_5_">
	<g id="Group_1471_5_">
		<g id="Group_1470_5_">
			<path id="Path_8880_5_" class="st2" d="M1264.6,253.7c-4,0-7.3-3.3-7.3-7.3v-5.7c0-0.4,0.3-0.6,0.6-0.6h1.9
				c0.2,0,0.3-0.1,0.3-0.3c0-2.5,2-4.4,4.5-4.4c2.4,0,4.4,2,4.4,4.4c0,0.2,0.1,0.3,0.3,0.3c0,0,0,0,0,0h1.9c0.4,0,0.6,0.3,0.6,0.6
				v5.7C1271.9,250.4,1268.7,253.7,1264.6,253.7z M1258.9,241.3c-0.2,0-0.3,0.1-0.3,0.3v4.8c0,3.3,2.7,6,6,6s6-2.7,6-6v-4.8
				c0-0.2-0.1-0.3-0.3-0.3H1258.9z M1264.6,236.6c-1.7,0-3.2,1.4-3.2,3.2c0,0.2,0.1,0.3,0.3,0.3h5.7c0.2,0,0.3-0.1,0.3-0.3
				c0,0,0,0,0,0C1267.8,238,1266.4,236.6,1264.6,236.6z"/>
		</g>
	</g>
</g>
<line class="st8" x1="1264.6" y1="324.4" x2="1360.5" y2="324.4"/>
<circle class="st9" cx="1264.6" cy="324.4" r="16.7"/>
<path id="Polygon_1_4_" class="st10" d="M1375.9,324.4l-20.2,11.8v-23.6L1375.9,324.4z"/>
<g id="Group_1472_6_">
	<g id="Group_1471_6_">
		<g id="Group_1470_6_">
			<path id="Path_8880_6_" class="st2" d="M1264.6,333.5c-4,0-7.3-3.3-7.3-7.3v-5.7c0-0.4,0.3-0.6,0.6-0.6h1.9
				c0.2,0,0.3-0.1,0.3-0.3c0-2.5,2-4.4,4.5-4.4c2.4,0,4.4,2,4.4,4.4c0,0.2,0.1,0.3,0.3,0.3c0,0,0,0,0,0h1.9c0.4,0,0.6,0.3,0.6,0.6
				v5.7C1271.9,330.3,1268.7,333.5,1264.6,333.5z M1258.9,321.2c-0.2,0-0.3,0.1-0.3,0.3v4.8c0,3.3,2.7,6,6,6s6-2.7,6-6v-4.8
				c0-0.2-0.1-0.3-0.3-0.3H1258.9z M1264.6,316.4c-1.7,0-3.2,1.4-3.2,3.2c0,0.2,0.1,0.3,0.3,0.3h5.7c0.2,0,0.3-0.1,0.3-0.3
				c0,0,0,0,0,0C1267.8,317.8,1266.4,316.4,1264.6,316.4z"/>
		</g>
	</g>
</g>
<line class="st8" x1="1264.6" y1="402.7" x2="1360.5" y2="402.7"/>
<circle class="st9" cx="1264.6" cy="402.7" r="16.7"/>
<path id="Polygon_1_5_" class="st10" d="M1375.9,402.7l-20.2,11.8v-23.6L1375.9,402.7z"/>
<g id="Group_1472_7_">
	<g id="Group_1471_7_">
		<g id="Group_1470_7_">
			<path id="Path_8880_7_" class="st2" d="M1264.6,411.8c-4,0-7.3-3.3-7.3-7.3v-5.7c0-0.4,0.3-0.6,0.6-0.6h1.9
				c0.2,0,0.3-0.1,0.3-0.3c0-2.5,2-4.4,4.5-4.4c2.4,0,4.4,2,4.4,4.4c0,0.2,0.1,0.3,0.3,0.3c0,0,0,0,0,0h1.9c0.4,0,0.6,0.3,0.6,0.6
				v5.7C1271.9,408.6,1268.7,411.8,1264.6,411.8z M1258.9,399.5c-0.2,0-0.3,0.1-0.3,0.3v4.8c0,3.3,2.7,6,6,6s6-2.7,6-6v-4.8
				c0-0.2-0.1-0.3-0.3-0.3H1258.9z M1264.6,394.7c-1.7,0-3.2,1.4-3.2,3.2c0,0.2,0.1,0.3,0.3,0.3h5.7c0.2,0,0.3-0.1,0.3-0.3
				c0,0,0,0,0,0C1267.8,396.1,1266.4,394.7,1264.6,394.7z"/>
		</g>
	</g>
</g>
<line class="st8" x1="1264.6" y1="482.8" x2="1360.5" y2="482.8"/>
<circle class="st9" cx="1264.6" cy="482.8" r="16.7"/>
<path id="Polygon_1_6_" class="st10" d="M1375.9,482.8l-20.2,11.8V471L1375.9,482.8z"/>
<g id="Group_1472_8_">
	<g id="Group_1471_8_">
		<g id="Group_1470_8_">
			<path id="Path_8880_8_" class="st2" d="M1264.6,491.9c-4,0-7.3-3.3-7.3-7.3v-5.7c0-0.4,0.3-0.6,0.6-0.6h1.9
				c0.2,0,0.3-0.1,0.3-0.3c0-2.5,2-4.4,4.5-4.4c2.4,0,4.4,2,4.4,4.4c0,0.2,0.1,0.3,0.3,0.3c0,0,0,0,0,0h1.9c0.4,0,0.6,0.3,0.6,0.6
				v5.7C1271.9,488.7,1268.7,491.9,1264.6,491.9z M1258.9,479.6c-0.2,0-0.3,0.1-0.3,0.3v4.8c0,3.3,2.7,6,6,6s6-2.7,6-6v-4.8
				c0-0.2-0.1-0.3-0.3-0.3H1258.9z M1264.6,474.8c-1.7,0-3.2,1.4-3.2,3.2c0,0.2,0.1,0.3,0.3,0.3h5.7c0.2,0,0.3-0.1,0.3-0.3
				c0,0,0,0,0,0C1267.8,476.2,1266.4,474.8,1264.6,474.8z"/>
		</g>
	</g>
</g>
<line class="st8" x1="1264.6" y1="564" x2="1360.5" y2="564"/>
<circle class="st9" cx="1264.6" cy="564" r="16.7"/>
<path id="Polygon_1_7_" class="st10" d="M1375.9,564l-20.2,11.8v-23.6L1375.9,564z"/>
<g id="Group_1472_9_">
	<g id="Group_1471_9_">
		<g id="Group_1470_9_">
			<path id="Path_8880_9_" class="st2" d="M1264.6,573.2c-4,0-7.3-3.3-7.3-7.3v-5.7c0-0.4,0.3-0.6,0.6-0.6h1.9
				c0.2,0,0.3-0.1,0.3-0.3c0-2.5,2-4.4,4.5-4.4c2.4,0,4.4,2,4.4,4.4c0,0.2,0.1,0.3,0.3,0.3c0,0,0,0,0,0h1.9c0.4,0,0.6,0.3,0.6,0.6
				v5.7C1271.9,569.9,1268.7,573.2,1264.6,573.2z M1258.9,560.8c-0.2,0-0.3,0.1-0.3,0.3v4.8c0,3.3,2.7,6,6,6s6-2.7,6-6v-4.8
				c0-0.2-0.1-0.3-0.3-0.3H1258.9z M1264.6,556.1c-1.7,0-3.2,1.4-3.2,3.2c0,0.2,0.1,0.3,0.3,0.3h5.7c0.2,0,0.3-0.1,0.3-0.3
				c0,0,0,0,0,0C1267.8,557.5,1266.4,556.1,1264.6,556.1z"/>
		</g>
	</g>
</g>
<line class="st8" x1="1264.6" y1="644.3" x2="1360.5" y2="644.3"/>
<circle class="st9" cx="1264.6" cy="644.3" r="16.7"/>
<path id="Polygon_1_12_" class="st10" d="M1375.9,644.3l-20.2,11.8v-23.6L1375.9,644.3z"/>
<g id="Group_1472_10_">
	<g id="Group_1471_10_">
		<g id="Group_1470_10_">
			<path id="Path_8880_10_" class="st2" d="M1264.6,653.5c-4,0-7.3-3.3-7.3-7.3v-5.7c0-0.4,0.3-0.6,0.6-0.6h1.9
				c0.2,0,0.3-0.1,0.3-0.3c0-2.5,2-4.4,4.5-4.4c2.4,0,4.4,2,4.4,4.4c0,0.2,0.1,0.3,0.3,0.3c0,0,0,0,0,0h1.9c0.4,0,0.6,0.3,0.6,0.6
				v5.7C1271.9,650.2,1268.7,653.5,1264.6,653.5z M1258.9,641.1c-0.2,0-0.3,0.1-0.3,0.3v4.8c0,3.3,2.7,6,6,6s6-2.7,6-6v-4.8
				c0-0.2-0.1-0.3-0.3-0.3H1258.9z M1264.6,636.4c-1.7,0-3.2,1.4-3.2,3.2c0,0.2,0.1,0.3,0.3,0.3h5.7c0.2,0,0.3-0.1,0.3-0.3
				c0,0,0,0,0,0C1267.8,637.8,1266.4,636.4,1264.6,636.4z"/>
		</g>
	</g>
</g>
<line class="st8" x1="1264.6" y1="722.8" x2="1360.5" y2="722.8"/>
<circle class="st9" cx="1264.6" cy="722.8" r="16.7"/>
<path id="Polygon_1_13_" class="st10" d="M1375.9,722.8l-20.2,11.8V711L1375.9,722.8z"/>
<g id="Group_1472_11_">
	<g id="Group_1471_11_">
		<g id="Group_1470_11_">
			<path id="Path_8880_11_" class="st2" d="M1264.6,732c-4,0-7.3-3.3-7.3-7.3V719c0-0.4,0.3-0.6,0.6-0.6h1.9c0.2,0,0.3-0.1,0.3-0.3
				c0-2.5,2-4.4,4.5-4.4c2.4,0,4.4,2,4.4,4.4c0,0.2,0.1,0.3,0.3,0.3c0,0,0,0,0,0h1.9c0.4,0,0.6,0.3,0.6,0.6v5.7
				C1271.9,728.7,1268.7,732,1264.6,732z M1258.9,719.6c-0.2,0-0.3,0.1-0.3,0.3v4.8c0,3.3,2.7,6,6,6s6-2.7,6-6V720
				c0-0.2-0.1-0.3-0.3-0.3H1258.9z M1264.6,714.9c-1.7,0-3.2,1.4-3.2,3.2c0,0.2,0.1,0.3,0.3,0.3h5.7c0.2,0,0.3-0.1,0.3-0.3
				c0,0,0,0,0,0C1267.8,716.3,1266.4,714.9,1264.6,714.9z"/>
		</g>
	</g>
</g>
<line class="st8" x1="1264.6" y1="802.7" x2="1360.5" y2="802.7"/>
<circle class="st9" cx="1264.6" cy="802.7" r="16.7"/>
<path id="Polygon_1_14_" class="st10" d="M1375.9,802.7l-20.2,11.8v-23.6L1375.9,802.7z"/>
<g id="Group_1472_12_">
	<g id="Group_1471_12_">
		<g id="Group_1470_12_">
			<path id="Path_8880_12_" class="st2" d="M1264.6,811.9c-4,0-7.3-3.3-7.3-7.3v-5.7c0-0.4,0.3-0.6,0.6-0.6h1.9
				c0.2,0,0.3-0.1,0.3-0.3c0-2.5,2-4.4,4.5-4.4c2.4,0,4.4,2,4.4,4.4c0,0.2,0.1,0.3,0.3,0.3c0,0,0,0,0,0h1.9c0.4,0,0.6,0.3,0.6,0.6
				v5.7C1271.9,808.6,1268.7,811.9,1264.6,811.9z M1258.9,799.5c-0.2,0-0.3,0.1-0.3,0.3v4.8c0,3.3,2.7,6,6,6s6-2.7,6-6v-4.8
				c0-0.2-0.1-0.3-0.3-0.3H1258.9z M1264.6,794.8c-1.7,0-3.2,1.4-3.2,3.2c0,0.2,0.1,0.3,0.3,0.3h5.7c0.2,0,0.3-0.1,0.3-0.3
				c0,0,0,0,0,0C1267.8,796.2,1266.4,794.8,1264.6,794.8z"/>
		</g>
	</g>
</g>
<g id="Group_1472_2_">
	<g id="Group_1471_2_">
		<g id="Group_1470_2_">
			<path id="Path_8880_2_" class="st2" d="M712.1,500.4c-4,0-7.3-3.3-7.3-7.3v-5.7c0-0.4,0.3-0.6,0.6-0.6h1.9c0.2,0,0.3-0.1,0.3-0.3
				c0-2.5,2-4.4,4.5-4.4c2.4,0,4.4,2,4.4,4.4c0,0.2,0.1,0.3,0.3,0.3c0,0,0,0,0,0h1.9c0.4,0,0.6,0.3,0.6,0.6v5.7
				C719.4,497.1,716.1,500.4,712.1,500.4z M706.4,488.1c-0.2,0-0.3,0.1-0.3,0.3v4.8c0,3.3,2.7,6,6,6c3.3,0,6-2.7,6-6v-4.8
				c0-0.2-0.1-0.3-0.3-0.3H706.4z M712.1,483.3c-1.7,0-3.2,1.4-3.2,3.2c0,0.2,0.1,0.3,0.3,0.3h5.7c0.2,0,0.3-0.1,0.3-0.3
				c0,0,0,0,0,0C715.2,484.7,713.8,483.3,712.1,483.3z"/>
		</g>
	</g>
</g>
<g id="Group_1472_3_">
	<g id="Group_1471_3_">
		<g id="Group_1470_3_">
			<path id="Path_8880_3_" class="st2" d="M712.1,742.6c-4,0-7.3-3.3-7.3-7.3v-5.7c0-0.4,0.3-0.6,0.6-0.6h1.9c0.2,0,0.3-0.1,0.3-0.3
				c0-2.5,2-4.4,4.5-4.4c2.4,0,4.4,2,4.4,4.4c0,0.2,0.1,0.3,0.3,0.3c0,0,0,0,0,0h1.9c0.4,0,0.6,0.3,0.6,0.6v5.7
				C719.4,739.4,716.1,742.6,712.1,742.6z M706.4,730.3c-0.2,0-0.3,0.1-0.3,0.3v4.8c0,3.3,2.7,6,6,6c3.3,0,6-2.7,6-6v-4.8
				c0-0.2-0.1-0.3-0.3-0.3H706.4z M712.1,725.5c-1.7,0-3.2,1.4-3.2,3.2c0,0.2,0.1,0.3,0.3,0.3h5.7c0.2,0,0.3-0.1,0.3-0.3
				c0,0,0,0,0,0C715.2,726.9,713.8,725.5,712.1,725.5z"/>
		</g>
	</g>
</g>
<path class="st2" d="M432.8,554.8c-2.9-29.9-23.6-54.5-51.4-63.1c15.4-7.9,26-23.9,26-42.4c0-26.3-21.3-47.6-47.6-47.6
	s-47.6,21.3-47.6,47.6c0,18.5,10.6,34.5,26,42.4c-27.8,8.6-48.6,33.2-51.4,63.1c-0.3,3.2,2.2,5.9,5.4,5.9l0,0c2.8,0,5.1-2.1,5.4-4.9
	c0.6-6.3,2.1-12.5,4.6-18.3c1.6-3.7,3.5-7.3,5.8-10.6c2.2-3.3,4.8-6.4,7.6-9.3s6-5.4,9.3-7.6c3.3-2.3,6.9-4.2,10.6-5.8
	c7.7-3.3,15.9-4.9,24.4-4.9s16.7,1.7,24.4,4.9c3.7,1.6,7.3,3.5,10.6,5.8c3.3,2.2,6.4,4.8,9.3,7.6c2.8,2.8,5.4,6,7.6,9.3
	c2.3,3.3,4.2,6.9,5.8,10.6c2.5,5.9,4,12,4.6,18.3c0.3,2.8,2.6,4.9,5.4,4.9C430.6,560.7,433.1,558,432.8,554.8z M359.8,486.2
	c-5,0-9.8-1-14.3-2.9c-4.4-1.9-8.3-4.5-11.7-7.9c-3.4-3.4-6-7.3-7.9-11.7c-1.9-4.5-2.9-9.4-2.9-14.3c0-5,1-9.8,2.9-14.3
	c1.9-4.4,4.5-8.3,7.9-11.7c3.4-3.4,7.3-6,11.7-7.9c4.5-1.9,9.4-2.9,14.3-2.9s9.8,1,14.3,2.9c4.4,1.9,8.3,4.5,11.7,7.9
	s6,7.3,7.9,11.7c1.9,4.5,2.9,9.4,2.9,14.3c0,5-1,9.8-2.9,14.3c-1.9,4.4-4.5,8.3-7.9,11.7c-3.4,3.4-7.3,6-11.7,7.9
	C369.6,485.2,364.8,486.2,359.8,486.2z"/>
<g id="Group_1407_1_" transform="translate(0 -4134)">
	<text transform="matrix(1 0 0 1 222.8953 4237.1934)" class="st11 st12 st13">Nomad Architecture</text>
</g>
<g id="Group_1407_8_" transform="translate(0 -4134)">
	<text transform="matrix(1 0 0 1 246.7339 5113.9287)" class="st11 st12 st14">Nomad Admins</text>
</g>
<g id="Group_1407_9_" transform="translate(0 -4134)">
	<text transform="matrix(1 0 0 1 883.8405 5113.9287)" class="st15"><tspan x="0" y="0" class="st11 st12 st14">Nomad Servers</tspan><tspan x="0" y="34" class="st11 st12 st14">(Scale Set)</tspan></text>
</g>
<g id="Group_1407_10_" transform="translate(0 -4134)">
	<text transform="matrix(1 0 0 1 1371.7235 5113.9287)" class="st15"><tspan x="0" y="0" class="st11 st12 st14">Nomad Clients</tspan><tspan x="0" y="34" class="st11 st12 st14">(Scale Set)</tspan></text>
</g>
<g>
	<polygon class="st2" points="876.8,217.6 972.7,141.4 1052,217.6 1037.3,302.5 948.8,335 876.8,288.9 	"/>
	<g>
		<polygon class="st3" points="959.1,120 857.5,178.7 926.1,219 940,210.6 973.7,229.4 973.7,190.3 1006,170.9 1006,210 
			1062.5,178.7 1062.5,178.6 		"/>
		<polygon class="st4" points="1006,210 1006,248.9 978.9,264.5 960,252.8 960,354.2 960.5,354.3 1062.5,295.7 1062.5,178.7 
			1060.6,178.7 		"/>
		<polygon class="st3" points="946.3,245 946.3,284.1 915.6,303.6 915.6,225.5 927.2,218.3 858.1,178.7 857.5,178.7 857.5,295.7 
			960,354.2 960,252.8 		"/>
	</g>
</g>
<g>
	<polygon class="st2" points="876.8,465.1 972.7,388.9 1052,465.1 1037.3,550 948.8,582.5 876.8,536.4 	"/>
	<g>
		<polygon class="st3" points="959.1,367.5 857.5,426.2 926.1,466.5 940,458 973.7,476.9 973.7,437.8 1006,418.4 1006,457.5 
			1062.5,426.2 1062.5,426.1 		"/>
		<polygon class="st4" points="1006,457.5 1006,496.4 978.9,512 960,500.3 960,601.7 960.5,601.8 1062.5,543.2 1062.5,426.2 
			1060.6,426.2 		"/>
		<polygon class="st3" points="946.3,492.5 946.3,531.5 915.6,551 915.6,473 927.2,465.8 858.1,426.2 857.5,426.2 857.5,543.2 
			960,601.7 960,500.3 		"/>
	</g>
</g>
</svg>
